<?xml version="1.0" encoding="utf-8"?>
<!-- Generator: Adobe Illustrator 24.0.2, SVG Export Plug-In . SVG Version: 6.00 Build 0)  -->
<svg version="1.1" id="Layer_1" xmlns="http://www.w3.org/2000/svg" xmlns:xlink="http://www.w3.org/1999/xlink" x="0px" y="0px"
	 viewBox="0 0 500 500" style="enable-background:new 0 0 500 500;" xml:space="preserve">
<style type="text/css">
	.st0{fill:#3471A3;}
	.st1{fill:#0D5691;}
	.st2{fill:#C8CAD4;}
	.st3{fill:none;}
	.st4{fill:#FDD247;}
	.st5{fill:#FDE6BC;}
</style>
<g>
	<g>
		<polygon class="st0" points="18.5,218.5 18.9,230.6 255.6,296.2 481.5,230.2 481.5,218.5 255.6,148.7 		"/>
		<polygon class="st1" points="255.6,296.2 481.5,230.2 481.5,218.5 255.6,148.7 		"/>
		<polygon class="st1" points="18.5,230.3 255.6,308 481.5,230.3 255.6,160.5 		"/>
		<polygon class="st2" points="18.5,230.3 255.6,308 481.5,230.3 255.6,160.5 		"/>
		<path class="st1" d="M354.6,243.3c0,0-3.9-7.1-33.3-18.9c-41-16.5-97-16.5-138.3,0c-29.4,11.7-33.3,18.9-33.3,18.9
			s-7.1,26.7-6.6,49.5c0.7,22.8,2,32,2,32s32.7,1.3,64.6,11.7c21,6.8,40.2,19,42.2,20.4c0,0.1,0,0.1,0,0.1s0.1,0,0.1-0.1l0.1,0.1
			c0,0,0,0,0-0.1c2.1-1.3,21.3-13.5,42.2-20.4c32-10.5,64.6-11.7,64.6-11.7s1.3-9.1,2-32C362,262.8,354.6,243.3,354.6,243.3z"/>
	</g>
	<g>
		<path class="st3" d="M93.7,187.9c-6.2,0.5-9.7,5.9-11.5,12l22.3-6.6C102.1,189.7,98.1,187.5,93.7,187.9z"/>
		<path class="st4" d="M93.4,183.1c-8.1,0.6-13.8,7-16.5,18.2c-0.2,1.2-0.5,2.3-0.7,3.6c-2.3,14-2.3,28.3-2.2,41l0,0
			c0,9.9,0.5,19,1,27.7l4.7-0.3c-0.7-8.3-1-16.8-1-26.1c0-0.5,0-0.9,0-1.4c-0.1-12.4-0.1-26.6,2.1-40.2c0.3-2,0.8-3.9,1.4-5.9
			c1.8-6,5.2-11.5,11.5-12c4.4-0.3,8.4,1.8,10.8,5.4l4.7-1.4C106.2,186.2,99.9,182.7,93.4,183.1z"/>
	</g>
	<g>
		<path class="st4" d="M94.1,321.6c-2.4-23-10.2-39.7-10.2-39.7l-4.8-0.2v-0.2l-1.7,0.1l-1.7-0.1v0.2l-4.8,0.2
			c0,0-7.8,16.7-10.2,39.7s-1,40.2-1,40.2h16.1H79h16.1C95.1,361.8,96.5,344.7,94.1,321.6z"/>
		<path class="st4" d="M91,278.5c0,6.6-6.1,11.9-13.7,11.9c-7.6,0-13.7-5.3-13.7-11.9c0-6.6,6.1-11.9,13.7-11.9
			C84.7,266.6,91,271.9,91,278.5z"/>
		<path class="st5" d="M81.6,267.2c1.7,2,2.8,4.4,2.8,7.1c0,6.6-6.1,11.9-13.7,11.9c-1.5,0-3-0.2-4.4-0.6c2.5,2.9,6.4,4.8,10.9,4.8
			c7.6,0,13.7-5.3,13.7-11.9C91,273.3,87,268.8,81.6,267.2z"/>
		<path class="st5" d="M85.5,286.2c-0.3-0.2-0.7-0.3-1-0.6c4.6,16.8,6.9,34.2,6.8,51.7c0,6.2,1,14.9-3.2,16.2
			c-1.2,0.3-3.7-2.9-3.9-5.9c-0.2-5.2-0.5-10.5-0.7-15.7c0,5.5-0.7,11.1-1.7,16.6c-0.3,1.5-0.7,3.1-1.6,4.4
			c-0.9,1.3-2.4,2.3-3.9,2.1s-2.6-1.4-3.3-2.8c-0.6-1.4-0.7-2.9-0.8-4.4c-0.6-8.2-1-16.3-1.6-24.5c-0.2,8.4-0.9,16.8-1.8,25.2
			c-0.3,3.5-1.3,7-4.8,8.4c-1.8,0.7-3.2,0.3-4.7-0.2c0.1,3.3,0.2,5.2,0.2,5.2h16.1h3.5H95c0,0,1.5-17.2-1-40.2
			C92.3,305.5,88,292.5,85.5,286.2z"/>
	</g>
</g>
</svg>
