<?xml version="1.0" encoding="utf-8"?>
<!-- Generator: Adobe Illustrator 24.0.2, SVG Export Plug-In . SVG Version: 6.00 Build 0)  -->
<svg version="1.1" id="Layer_1" xmlns="http://www.w3.org/2000/svg" xmlns:xlink="http://www.w3.org/1999/xlink" x="0px" y="0px"
	 viewBox="0 0 500 500" style="enable-background:new 0 0 500 500;" xml:space="preserve">
<style type="text/css">
	.st0{fill:#2C5871;}
	.st1{fill:#173848;}
	.st2{fill:#001C28;}
	.st3{fill:#F8BF00;}
	.st4{fill:#E34F3B;}
	.st5{fill:#D7A600;}
</style>
<g>
	<g>
		<polygon class="st0" points="493.4,192.5 255.2,109.1 255.2,109.1 255.1,109.1 255.1,109.1 255.1,109.1 16.9,192.5 255.1,295.8 
			255.2,295.8 		"/>
		<g>
			<polygon class="st1" points="255.2,108.9 493.4,192.5 493.4,168 255.2,79.7 			"/>
			<polygon class="st2" points="255.1,108.9 16.9,192.5 16.9,168 255.1,79.7 			"/>
		</g>
		<path class="st1" d="M255.2,170.1c-81.3,0-172.8,20.8-172.8,42.4v129.8H428V212.4C428,197.2,317.8,170.1,255.2,170.1z"/>
	</g>
	<g>
		<path class="st3" d="M386.9,294.3c-11.2,5.1-18.3,5.1-29.4,0c-7.2,17.6-18.3,49.7-26.3,70.4c3.8,1.7,7.6,3.2,11.5,4.4l18.8-53.2
			l-10.5,55.5c20.7,4.6,42.6,2.3,62.1-6.7C405.8,344,394.3,311.8,386.9,294.3z"/>
		<polygon class="st4" points="381.3,294.5 363.1,294.5 363.1,119.6 381.3,126.2 		"/>
		<path class="st5" d="M386.9,294.3c0,8-6.6,14.4-14.7,14.4c-8.1,0-14.7-6.4-14.7-14.4c0-7.9,6.6-14.4,14.7-14.4
			C380.3,279.9,386.9,286.4,386.9,294.3z"/>
	</g>
</g>
</svg>
