<svg id="color" enable-background="new 0 0 24 24" height="512" viewBox="0 0 24 24" width="512" xmlns="http://www.w3.org/2000/svg"><path d="m10 24c-5.514 0-10-4.486-10-10s4.486-10 10-10 10 4.486 10 10-4.486 10-10 10z" fill="#fafafa"/><g fill="#f44336"><path d="m10 24c-5.514 0-10-4.486-10-10s4.486-10 10-10 10 4.486 10 10-4.486 10-10 10zm0-18.5c-4.687 0-8.5 3.813-8.5 8.5s3.813 8.5 8.5 8.5 8.5-3.813 8.5-8.5-3.813-8.5-8.5-8.5z"/><path d="m10 20.5c-3.584 0-6.5-2.916-6.5-6.5s2.916-6.5 6.5-6.5 6.5 2.916 6.5 6.5-2.916 6.5-6.5 6.5zm0-11.5c-2.757 0-5 2.243-5 5s2.243 5 5 5 5-2.243 5-5-2.243-5-5-5z"/><path d="m10 17c-1.654 0-3-1.346-3-3s1.346-3 3-3 3 1.346 3 3-1.346 3-3 3zm0-4.5c-.827 0-1.5.673-1.5 1.5s.673 1.5 1.5 1.5 1.5-.673 1.5-1.5-.673-1.5-1.5-1.5z"/></g><path d="m10 4c-5.514 0-10 4.486-10 10 0 5.514 4.486 10 10 10v-1.5c-4.687 0-8.5-3.813-8.5-8.5s3.813-8.5 8.5-8.5z" fill="#d43a2f"/><path d="m10 7.5c-3.584 0-6.5 2.916-6.5 6.5s2.916 6.5 6.5 6.5v-1.5c-2.757 0-5-2.243-5-5s2.243-5 5-5z" fill="#d43a2f"/><path d="m10 12.5c-.827 0-1.5.673-1.5 1.5s.673 1.5 1.5 1.5z" fill="#dadada"/><path d="m10 11c-1.654 0-3 1.346-3 3s1.346 3 3 3v-1.5c-.827 0-1.5-.673-1.5-1.5s.673-1.5 1.5-1.5z" fill="#d43a2f"/><path d="m10 9c-2.757 0-5 2.243-5 5s2.243 5 5 5v-2c-1.654 0-3-1.346-3-3s1.346-3 3-3z" fill="#dadada"/><path d="m10 5.5c-4.687 0-8.5 3.813-8.5 8.5s3.813 8.5 8.5 8.5v-2c-3.584 0-6.5-2.916-6.5-6.5s2.916-6.5 6.5-6.5z" fill="#dadada"/><path d="m10 14.75c-.192 0-.384-.073-.53-.22-.293-.293-.293-.768 0-1.061l7.5-7.5c.293-.293.768-.293 1.061 0s.293.768 0 1.061l-7.5 7.5c-.147.147-.339.22-.531.22z" fill="#607d8b"/><path d="m20.25 7h-2.5c-.414 0-.75-.336-.75-.75v-2.5c0-.199.079-.39.22-.53l3-3c.215-.215.538-.278.817-.163.28.116.463.39.463.693v1.75h1.75c.303 0 .577.183.693.463s.052.603-.163.817l-3 3c-.14.141-.331.22-.53.22z" fill="#2196f3"/><path d="m17 5.941c-.01.009-.02.019-.03.029l-7.5 7.5c-.293.293-.293.768 0 1.061l7.75-7.75c-.136-.136-.22-.324-.22-.531z" fill="#546d79"/><path d="m20.75 0c-.195 0-.387.076-.531.22l-3 3c-.14.14-.219.331-.219.53v2.191.309c0 .207.084.395.22.53l4.28-4.28v-1.75c0-.303-.183-.577-.463-.693-.093-.038-.19-.057-.287-.057z" fill="#1d83d4"/></svg>