<?xml version="1.0" encoding="utf-8"?>
<!-- Generator: Adobe Illustrator 24.0.2, SVG Export Plug-In . SVG Version: 6.00 Build 0)  -->
<svg version="1.1" xmlns="http://www.w3.org/2000/svg" xmlns:xlink="http://www.w3.org/1999/xlink" x="0px" y="0px"
	 viewBox="0 0 1900 900" style="enable-background:new 0 0 1900 900;" xml:space="preserve">
<style type="text/css">
	.st0{fill:#FFFFFF;}
	.st1{fill:#0065C5;}
	.st2{font-family:'Montserrat-Regular';}
	.st3{font-size:28.6291px;}
	.st4{font-family:'Montserrat-Bold';}
	.st5{font-size:20.5515px;}
	.st6{opacity:0.7;fill:#0065C5;}
	.st7{font-family:'Montserrat-Medium';}
	.st8{clip-path:url(#SVGID_2_);}
	.st9{fill:#0057B5;}
	.st10{fill:#F2FAFF;}
	.st11{fill:url(#SVGID_3_);}
	.st12{fill:url(#SVGID_4_);}
	.st13{fill:url(#SVGID_5_);}
	.st14{fill:url(#SVGID_6_);}
	.st15{fill:url(#SVGID_7_);}
	.st16{opacity:0.8;fill:#D0E2F0;}
	.st17{enable-background:new    ;}
	.st18{fill:#005AAC;}
	.st19{fill:#0068C2;}
	.st20{fill:#0063B3;}
	.st21{fill:#007ACB;}
	.st22{fill:#2587DA;}
	.st23{fill:#0079D1;}
	.st24{fill:#54A7FF;}
	.st25{fill:#9BBAFF;}
	.st26{fill:#4087DE;}
	.st27{fill:#91D3FB;}
	.st28{fill:#A4E2FF;}
	.st29{fill:#F2AE39;}
	.st30{fill:#FFC335;}
	.st31{opacity:0.5;fill:#FFC335;}
	.st32{fill:url(#SVGID_8_);}
	.st33{fill:url(#SVGID_9_);}
	.st34{fill:url(#SVGID_10_);}
	.st35{fill:url(#SVGID_11_);}
	.st36{fill:url(#SVGID_12_);}
	.st37{fill:url(#SVGID_13_);}
	.st38{fill:url(#SVGID_14_);}
	.st39{fill:url(#SVGID_15_);}
	.st40{fill:url(#SVGID_16_);}
	.st41{fill:url(#SVGID_17_);}
	.st42{fill:url(#SVGID_18_);}
	.st43{fill:url(#SVGID_19_);}
	.st44{fill:url(#SVGID_20_);}
	.st45{fill:url(#SVGID_21_);}
	.st46{fill:url(#SVGID_22_);}
	.st47{fill:url(#SVGID_23_);}
	.st48{fill:url(#SVGID_24_);}
	.st49{fill:url(#SVGID_25_);}
	.st50{fill:url(#SVGID_26_);}
	.st51{fill:url(#SVGID_27_);}
	.st52{fill:url(#SVGID_28_);}
	.st53{opacity:0.5;fill:#539AC2;}
	.st54{fill:#00385C;}
	.st55{fill:#364173;}
	.st56{opacity:0.2;fill:#364173;}
	.st57{fill:#F4E4CB;}
	.st58{opacity:0.8;fill:#F4E4CB;}
	.st59{fill:#92DAFF;}
	.st60{fill:#2E4E87;}
	.st61{fill:#FDFDFD;}
	.st62{fill:#7FBBFB;}
	.st63{fill:#7EAABC;}
	.st64{fill:#A5CFE8;}
	.st65{fill:#004567;}
	.st66{fill:#F3B987;}
</style>
<g id="Layer_1">
	<g>
		<g>
			
				<image style="overflow:visible;opacity:0.6;" width="1936" height="936" xlink:href="96891770.png"  transform="matrix(1 0 0 1 -18 -12)">
			</image>
			<g>
				<rect class="st0" width="1900" height="900"/>
			</g>
		</g>
		<g>
			<g>
				<text transform="matrix(1.4074 0 0 1 126.7305 89.6597)"><tspan x="0" y="0" class="st1 st2 st3">your</tspan><tspan x="65" y="0" class="st1 st4 st3">logo</tspan></text>
				<g>
					<text transform="matrix(1.4074 0 0 1 1117.3359 84.7808)" class="st1 st4 st5">home</text>
					<text transform="matrix(1.4074 0 0 1 1274.9756 84.7808)" class="st6 st7 st5">service</text>
					<text transform="matrix(1.4074 0 0 1 1442.5518 84.7808)" class="st6 st7 st5">about</text>
					<text transform="matrix(1.4074 0 0 1 1578.9639 84.7808)" class="st6 st7 st5">contact</text>
					<path class="st6" d="M1785.2,70.4h-31.2v-2.8h31.2V70.4z M1785.2,74.7h-31.2v2.8h31.2V74.7z M1785.2,81.9h-31.2v2.8h31.2V81.9z
						"/>
				</g>
			</g>
		</g>
	</g>
</g>
<g id="Layer_4">
	<g>
		<g>
			<rect class="st0" width="1900" height="900"/>
			<g>
				<defs>
					<rect id="SVGID_1_" width="1900" height="900"/>
				</defs>
				<clipPath id="SVGID_2_">
					<use xlink:href="#SVGID_1_"  style="overflow:visible;"/>
				</clipPath>
				<g class="st8">
					<g>
						
							<image style="overflow:visible;opacity:0.3;" width="1949" height="296" xlink:href="96891771.png"  transform="matrix(1 0 0 1 -24 625)">
						</image>
						<g>
							<path class="st9" d="M1900,759.5V900H0V652.7c0,0,324.7,266.6,1118.2,70.2C1529,621.3,1900,759.5,1900,759.5z"/>
						</g>
					</g>
					<g>
						
							<image style="overflow:visible;opacity:0.3;" width="1284" height="311" xlink:href="96891777.png"  transform="matrix(1 0 0 1 641 -21)">
						</image>
						<g>
							<path class="st1" d="M1900,250.8V0H665.8c0,0,93.3,198.6,356.2,201.5c279.2,3,348.6-148.2,518.3-30.6
								C1738.6,308.3,1900,250.8,1900,250.8z"/>
						</g>
					</g>
					<g>
						
							<image style="overflow:visible;opacity:0.3;" width="1156" height="283" xlink:href="96891772.png"  transform="matrix(1 0 0 1 771.8907 -21.646)">
						</image>
						<g>
							<path class="st10" d="M1902.9,192.6V0H810.5c0,0-55.7,107.3,51.6,153.9c185.8,80.6,360.9-90,681.1,43.5
								C1747.7,282.7,1902.9,192.6,1902.9,192.6z"/>
						</g>
					</g>
					<g>
						
							<image style="overflow:visible;opacity:0.3;" width="1127" height="300" xlink:href="96891773.png"  transform="matrix(1 0 0 1 798 621)">
						</image>
						<g>
							<path class="st1" d="M1900,834.1V900H822c0,0,35.7-77.1,187.1-68.9c112.3,6.1,89.4-57.7,313-152.7
								C1599.4,560.6,1900,834.1,1900,834.1z"/>
						</g>
					</g>
					<g>
						
							<image style="overflow:visible;opacity:0.3;" width="852" height="135" xlink:href="9689177E.png"  transform="matrix(1 0 0 1 935 786)">
						</image>
						<g>
							<path class="st10" d="M1763,900H959.1c0,0,44.7-101.9,196.9-84.8c123.7,13.9,197.6,95.8,347.4,50.7
								C1689.2,810,1763,900,1763,900z"/>
						</g>
					</g>
				</g>
			</g>
		</g>
		<g>
			
				<linearGradient id="SVGID_3_" gradientUnits="userSpaceOnUse" x1="-2939.4851" y1="723.5158" x2="-2874.325" y2="297.0158" gradientTransform="matrix(-0.2697 0 0 1 0 0)">
				<stop  offset="0" style="stop-color:#72BBFF;stop-opacity:0.1"/>
				<stop  offset="1" style="stop-color:#72BBFF"/>
			</linearGradient>
			<path class="st11" d="M920.2,587.3h54.4V474.8h-54.4V587.3z M840.3,437.4h54.4v149.9h-54.4V437.4z M760.5,450.1h54.4v137.2h-54.4
				V450.1z M680.7,403.3h54.4v184h-54.4V403.3z M600.9,336.3h54.4v251h-54.4V336.3z M615.6,262.7l43.5,17.5l-17.5,7.3l146.6,127.3
				l80.2-37.7L951,448l-7.3,4.3l-77.1-66.2l-79.4,37.3L633.4,290.9l-17.5,7.3L615.6,262.7z M558.3,597.7h458.8v3.2H558.3V597.7z"/>
			<g>
				
					<linearGradient id="SVGID_4_" gradientUnits="userSpaceOnUse" x1="-1177.6112" y1="447.4316" x2="-1177.6112" y2="367.6852" gradientTransform="matrix(-0.2697 0 0 1 0 0)">
					<stop  offset="0" style="stop-color:#72DFFF;stop-opacity:0.1"/>
					<stop  offset="1" style="stop-color:#72DFFF"/>
				</linearGradient>
				<path class="st12" d="M373.7,404.2v6.7c0,2.1-2,3.8-4.8,4.3l-1.9,0.3c-2.1,0.3-3.8,1.4-4.5,2.8c-0.7,1.4-1.5,2.8-2.4,4.2
					c-1,1.4-0.8,3,0.3,4.3l1,1.2c1.5,1.7,1.2,4-0.8,5.4l-6.7,4.8c-2,1.5-5.2,1.7-7.7,0.6l-1.5-0.7c-1.8-0.8-4.1-0.9-6-0.2
					c-1.9,0.7-3.9,1.3-6,1.8c-2,0.5-3.5,1.7-4,3.2l-0.4,1.2c-0.6,2-3.1,3.4-6,3.4h-9.5c-2.9,0-5.4-1.4-6-3.4l-0.3-1.1
					c-0.5-1.5-2-2.7-4-3.2c-2.1-0.5-4.2-1.1-6.2-1.8c-1.9-0.7-4.2-0.6-6,0.2l-1.3,0.6c-2.4,1.1-5.6,0.9-7.7-0.6l-6.7-4.8
					c-2-1.5-2.4-3.7-0.8-5.4l0.8-0.9c1.2-1.3,1.3-2.9,0.3-4.3c-1-1.4-1.9-2.9-2.6-4.4c-0.7-1.5-2.4-2.5-4.5-2.9l-1.4-0.2
					c-2.8-0.4-4.8-2.2-4.8-4.3v-6.7c0-2.1,2-3.8,4.8-4.3l1.4-0.2c2.1-0.3,3.8-1.4,4.5-2.9c0.7-1.5,1.6-3,2.6-4.4
					c1-1.4,0.9-3-0.3-4.3l-0.8-0.9c-1.5-1.7-1.2-4,0.8-5.4l6.7-4.8c2-1.5,5.2-1.7,7.7-0.6l1.3,0.6c1.8,0.8,4.1,0.9,6,0.2
					c2-0.7,4.1-1.3,6.2-1.8c2-0.5,3.6-1.7,4-3.2l0.3-1.1c0.6-2,3.1-3.4,6-3.4h9.5c2.9,0,5.4,1.4,6,3.4l0.4,1.2c0.5,1.5,2,2.7,4,3.2
					c2.1,0.5,4.1,1.1,6,1.8c1.9,0.7,4.2,0.6,6-0.2l1.5-0.7c2.4-1.1,5.6-0.9,7.7,0.6l6.7,4.8c2,1.5,2.4,3.7,0.8,5.4l-1,1.2
					c-1.1,1.3-1.3,2.9-0.3,4.3c0.9,1.3,1.7,2.7,2.4,4.2c0.7,1.4,2.4,2.5,4.5,2.8l1.9,0.3C371.7,400.4,373.7,402.1,373.7,404.2z
					 M345.2,407.6c0-10.9-12.4-19.7-27.8-19.7s-27.8,8.8-27.8,19.7s12.4,19.7,27.8,19.7S345.2,418.5,345.2,407.6z"/>
				
					<linearGradient id="SVGID_5_" gradientUnits="userSpaceOnUse" x1="-1362.6864" y1="373.1298" x2="-1362.6864" y2="321.8916" gradientTransform="matrix(-0.2697 0 0 1 0 0)">
					<stop  offset="0" style="stop-color:#72DFFF;stop-opacity:0.1"/>
					<stop  offset="1" style="stop-color:#72DFFF"/>
				</linearGradient>
				<path class="st13" d="M403.6,345.4v4.3c0,1.3-1.3,2.5-3.1,2.7l-1.2,0.2c-1.3,0.2-2.4,0.9-2.9,1.8c-0.4,0.9-1,1.8-1.6,2.7
					c-0.6,0.9-0.5,1.9,0.2,2.7l0.7,0.7c1,1.1,0.8,2.6-0.5,3.5l-4.3,3.1c-1.3,0.9-3.4,1.1-4.9,0.4l-1-0.4c-1.2-0.5-2.6-0.6-3.9-0.1
					c-1.2,0.4-2.5,0.8-3.9,1.1c-1.3,0.3-2.3,1.1-2.6,2l-0.2,0.8c-0.4,1.3-2,2.2-3.9,2.2h-6.1c-1.9,0-3.5-0.9-3.9-2.2l-0.2-0.7
					c-0.3-1-1.3-1.7-2.6-2.1c-1.4-0.3-2.7-0.7-4-1.2c-1.2-0.4-2.7-0.4-3.9,0.2l-0.9,0.4c-1.6,0.7-3.6,0.5-4.9-0.4l-4.3-3.1
					c-1.3-0.9-1.5-2.4-0.5-3.5l0.5-0.6c0.7-0.8,0.8-1.9,0.2-2.8c-0.6-0.9-1.2-1.9-1.7-2.9c-0.4-0.9-1.5-1.6-2.9-1.9l-0.9-0.1
					c-1.8-0.3-3.1-1.4-3.1-2.7v-4.3c0-1.3,1.3-2.5,3.1-2.7l0.9-0.1c1.4-0.2,2.4-0.9,2.9-1.9c0.5-1,1-1.9,1.7-2.9
					c0.6-0.9,0.6-1.9-0.2-2.8l-0.5-0.6c-1-1.1-0.8-2.6,0.5-3.5l4.3-3.1c1.3-0.9,3.4-1.1,4.9-0.4l0.9,0.4c1.2,0.5,2.6,0.6,3.9,0.2
					c1.3-0.5,2.6-0.8,4-1.2c1.3-0.3,2.3-1.1,2.6-2.1l0.2-0.7c0.4-1.3,2-2.2,3.9-2.2h6.1c1.9,0,3.5,0.9,3.9,2.2l0.2,0.8
					c0.3,1,1.3,1.7,2.6,2c1.3,0.3,2.6,0.7,3.9,1.1c1.2,0.4,2.7,0.4,3.9-0.1l1-0.4c1.6-0.7,3.6-0.5,4.9,0.4l4.3,3.1
					c1.3,0.9,1.5,2.4,0.5,3.5l-0.7,0.7c-0.7,0.8-0.8,1.9-0.2,2.7c0.6,0.9,1.1,1.8,1.6,2.7c0.4,0.9,1.5,1.6,2.9,1.8l1.2,0.2
					C402.3,342.9,403.6,344,403.6,345.4z M385.3,347.5c0-7-8-12.7-17.9-12.7c-9.9,0-17.9,5.7-17.9,12.7s8,12.7,17.9,12.7
					C377.3,360.2,385.3,354.5,385.3,347.5z"/>
			</g>
			<g>
				
					<linearGradient id="SVGID_6_" gradientUnits="userSpaceOnUse" x1="-3279.7388" y1="651.6073" x2="-3279.7388" y2="551.7422" gradientTransform="matrix(-0.2697 0 0 1 0 0)">
					<stop  offset="0" style="stop-color:#72DFFF;stop-opacity:0.1"/>
					<stop  offset="1" style="stop-color:#72DFFF"/>
				</linearGradient>
				<path class="st14" d="M954.9,597.5v8.4c0,2.6-2.5,4.8-6,5.4l-2.3,0.4c-2.6,0.4-4.8,1.8-5.6,3.6c-0.9,1.8-1.9,3.5-3,5.2
					c-1.2,1.7-1,3.7,0.4,5.3l1.3,1.4c1.9,2.2,1.5,5-1.1,6.8l-8.4,6c-2.6,1.8-6.5,2.1-9.6,0.7l-1.9-0.9c-2.3-1-5.2-1.1-7.6-0.3
					c-2.4,0.9-4.9,1.6-7.5,2.2c-2.5,0.6-4.4,2.1-5,4l-0.5,1.5c-0.8,2.5-3.9,4.3-7.5,4.3h-11.8c-3.6,0-6.7-1.8-7.5-4.3l-0.4-1.4
					c-0.6-1.9-2.5-3.4-5.1-4c-2.7-0.6-5.3-1.4-7.8-2.3c-2.4-0.8-5.3-0.7-7.5,0.3l-1.7,0.8c-3.1,1.4-7,1.1-9.6-0.8l-8.4-6
					c-2.6-1.8-3-4.7-1.1-6.8l1-1.1c1.5-1.6,1.6-3.7,0.4-5.4c-1.3-1.8-2.4-3.6-3.3-5.6c-0.9-1.8-3-3.2-5.6-3.6l-1.8-0.3
					c-3.5-0.6-6-2.8-6-5.4v-8.4c0-2.6,2.5-4.8,6-5.4l1.8-0.3c2.6-0.4,4.8-1.8,5.6-3.6c0.9-1.9,2-3.8,3.3-5.6
					c1.2-1.7,1.1-3.8-0.4-5.4l-1-1.1c-1.9-2.2-1.5-5,1.1-6.8l8.4-6c2.6-1.8,6.5-2.1,9.6-0.7l1.7,0.8c2.3,1,5.1,1.1,7.5,0.3
					c2.5-0.9,5.1-1.6,7.8-2.3c2.6-0.6,4.5-2.1,5.1-4l0.4-1.4c0.8-2.5,3.9-4.3,7.5-4.3h11.8c3.6,0,6.7,1.8,7.5,4.3l0.5,1.5
					c0.6,1.9,2.5,3.4,5,4c2.6,0.6,5.1,1.4,7.5,2.2c2.4,0.9,5.3,0.7,7.6-0.3l1.9-0.9c3.1-1.4,7-1.1,9.6,0.7l8.4,6
					c2.6,1.8,3,4.6,1.1,6.8l-1.3,1.4c-1.4,1.6-1.6,3.6-0.4,5.3c1.2,1.7,2.2,3.4,3,5.2c0.9,1.8,3,3.2,5.6,3.6l2.3,0.4
					C952.4,592.7,954.9,594.9,954.9,597.5z M919.1,601.7c0-13.7-15.6-24.7-34.8-24.7c-19.2,0-34.8,11.1-34.8,24.7
					s15.6,24.7,34.8,24.7C903.6,626.4,919.1,615.3,919.1,601.7z"/>
				
					<linearGradient id="SVGID_7_" gradientUnits="userSpaceOnUse" x1="5358.8999" y1="558.5607" x2="5358.8999" y2="494.3961" gradientTransform="matrix(0.2697 0 0 1 -626.8347 0)">
					<stop  offset="0" style="stop-color:#72DFFF;stop-opacity:0.1"/>
					<stop  offset="1" style="stop-color:#72DFFF"/>
				</linearGradient>
				<path class="st15" d="M863.7,523.8v5.4c0,1.7-1.6,3.1-3.9,3.4l-1.5,0.2c-1.7,0.3-3.1,1.1-3.6,2.3c-0.5,1.2-1.2,2.3-2,3.4
					c-0.8,1.1-0.7,2.4,0.3,3.4l0.8,0.9c1.2,1.4,1,3.2-0.7,4.4l-5.4,3.8c-1.6,1.2-4.2,1.4-6.2,0.5l-1.2-0.6c-1.5-0.7-3.3-0.7-4.9-0.2
					c-1.6,0.6-3.2,1-4.8,1.4c-1.6,0.4-2.8,1.4-3.2,2.6l-0.3,1c-0.5,1.6-2.5,2.8-4.8,2.8h-7.6c-2.3,0-4.3-1.1-4.8-2.8l-0.3-0.9
					c-0.4-1.2-1.6-2.2-3.2-2.6c-1.7-0.4-3.4-0.9-5-1.5c-1.5-0.5-3.4-0.5-4.8,0.2l-1.1,0.5c-2,0.9-4.5,0.7-6.2-0.5l-5.4-3.8
					c-1.6-1.2-1.9-3-0.7-4.4l0.6-0.7c0.9-1,1-2.4,0.2-3.5c-0.8-1.1-1.5-2.3-2.1-3.6c-0.6-1.2-1.9-2.1-3.6-2.3l-1.1-0.2
					c-2.3-0.4-3.9-1.8-3.9-3.4v-5.4c0-1.7,1.6-3.1,3.9-3.4l1.1-0.2c1.7-0.3,3.1-1.1,3.6-2.3c0.6-1.2,1.3-2.4,2.1-3.6
					c0.8-1.1,0.7-2.4-0.2-3.5l-0.6-0.7c-1.2-1.4-1-3.2,0.7-4.4l5.4-3.8c1.6-1.2,4.2-1.4,6.2-0.5l1.1,0.5c1.5,0.7,3.3,0.7,4.8,0.2
					c1.6-0.6,3.3-1.1,5-1.5c1.6-0.4,2.9-1.4,3.2-2.6l0.3-0.9c0.5-1.6,2.5-2.8,4.8-2.8h7.6c2.3,0,4.3,1.1,4.8,2.8l0.3,1
					c0.4,1.2,1.6,2.2,3.2,2.6c1.7,0.4,3.3,0.9,4.8,1.4c1.5,0.6,3.4,0.5,4.9-0.2l1.2-0.6c2-0.9,4.5-0.7,6.2,0.5l5.4,3.8
					c1.6,1.2,1.9,3,0.7,4.4L853,511c-0.9,1-1,2.3-0.3,3.4c0.8,1.1,1.4,2.2,2,3.4c0.6,1.2,1.9,2,3.6,2.3l1.5,0.2
					C862.1,520.7,863.7,522.1,863.7,523.8z M840.8,526.5c0-8.8-10-15.9-22.4-15.9c-12.3,0-22.4,7.1-22.4,15.9
					c0,8.8,10,15.9,22.4,15.9C830.7,542.4,840.8,535.3,840.8,526.5z"/>
			</g>
			<g>
				<g>
					<ellipse class="st16" cx="656" cy="714" rx="276.6" ry="118.5"/>
					<ellipse class="st16" cx="460.5" cy="760.5" rx="230.3" ry="48.5"/>
					<g class="st17">
						<g>
							<g>
								<polygon class="st18" points="666.3,496.6 666.3,712.8 592.7,760.4 592.7,544.2 								"/>
							</g>
							<g>
								<path class="st19" d="M666.3,496.6l-73.6,47.5l-125.5,40.6c-47.4-9.4-77.7-23.7-77.7-39.7c0-28.2,94.2-51.1,210.3-51.1
									C623,494,645.4,495,666.3,496.6z"/>
							</g>
							<g>
								<polygon class="st20" points="592.7,544.2 592.7,760.4 467.2,801 467.2,584.8 								"/>
							</g>
							<path class="st21" d="M462.4,583.8c-1.5-0.3-3.1-0.6-4.6-1c-1.3-0.3-2.6-0.6-3.9-0.9c-1.5-0.3-2.9-0.7-4.4-1
								c-2-0.5-4-1-6-1.6c-0.4-0.1-0.9-0.2-1.3-0.3c-2.4-0.7-4.7-1.3-6.9-2c-0.7-0.2-1.3-0.4-1.9-0.6c-1.6-0.5-3.1-1-4.6-1.5
								c-0.8-0.3-1.5-0.5-2.3-0.8c-1.3-0.5-2.6-0.9-3.8-1.4c-0.8-0.3-1.5-0.6-2.3-0.9c-1.2-0.5-2.3-0.9-3.4-1.4
								c-0.7-0.3-1.4-0.6-2.1-0.9c-1.1-0.5-2.2-1-3.2-1.5c-0.6-0.3-1.2-0.6-1.8-0.9c-1.1-0.6-2.2-1.2-3.3-1.8
								c-0.4-0.2-0.8-0.4-1.2-0.7c-1.4-0.8-2.7-1.6-3.9-2.5c-0.3-0.2-0.5-0.4-0.7-0.5c-0.9-0.7-1.9-1.3-2.7-2
								c-0.4-0.3-0.7-0.6-1-0.9c-0.6-0.6-1.3-1.1-1.8-1.7c-0.3-0.3-0.6-0.7-1-1c-0.5-0.5-1-1.1-1.4-1.6c-0.3-0.4-0.5-0.7-0.8-1.1
								c-0.4-0.6-0.7-1.1-1-1.7c-0.2-0.3-0.4-0.7-0.5-1c-0.3-0.6-0.5-1.2-0.7-1.9c-0.1-0.3-0.2-0.6-0.3-0.9
								c-0.2-0.9-0.3-1.9-0.3-2.8l0,0v0v216.2c0,0.9,0.1,1.9,0.3,2.8c0.1,0.3,0.2,0.6,0.3,0.9c0.2,0.6,0.4,1.2,0.7,1.9
								c0.2,0.3,0.4,0.7,0.5,1c0.3,0.6,0.6,1.1,1,1.7c0.2,0.4,0.5,0.7,0.8,1.1c0.4,0.6,0.9,1.1,1.4,1.6c0.3,0.3,0.6,0.7,1,1
								c0.6,0.6,1.2,1.1,1.8,1.7c0.4,0.3,0.7,0.6,1.1,0.9c0.8,0.7,1.7,1.3,2.7,2c0.3,0.2,0.5,0.4,0.7,0.5c1.2,0.8,2.5,1.7,3.9,2.5
								c0.4,0.2,0.8,0.4,1.2,0.7c1,0.6,2.1,1.2,3.2,1.7c0.6,0.3,1.2,0.6,1.8,0.9c1,0.5,2.1,1,3.2,1.5c0.7,0.3,1.4,0.6,2.1,0.9
								c1.1,0.5,2.2,0.9,3.4,1.4c0.7,0.3,1.5,0.6,2.3,0.9c1.2,0.5,2.5,0.9,3.8,1.4c0.8,0.3,1.5,0.5,2.3,0.8c1.5,0.5,3,1,4.6,1.5
								c0.6,0.2,1.3,0.4,1.9,0.6c2.2,0.7,4.5,1.3,6.9,2c0.4,0.1,0.9,0.2,1.3,0.3c1.7,0.5,3.5,0.9,5.3,1.4c0.2,0.1,0.5,0.1,0.7,0.2
								c1.4,0.4,2.9,0.7,4.4,1c1.3,0.3,2.6,0.6,3.9,0.9c1.5,0.3,3,0.7,4.6,1c1.2,0.2,2.3,0.5,3.5,0.7c0.4,0.1,0.8,0.2,1.3,0.2V584.8
								C465.5,584.5,464,584.1,462.4,583.8z"/>
						</g>
						<g>
							<polygon class="st22" points="822.7,571.7 822.7,745.1 631,754.7 631,581.3 							"/>
						</g>
						<g>
							<path class="st23" d="M822.7,571.7L631,581.3l69-44.5C760.7,543,806.8,555.9,822.7,571.7z"/>
						</g>
						<g>
							<g>
								<path class="st24" d="M610.7,644.1l193.5-9.6c1.8,2.7,2.9,5.5,2.9,8.4c0,16-30.2,30.3-77.6,39.6L610.7,644.1z"/>
							</g>
							<path class="st25" d="M806.9,644c-0.1,0.8-0.2,1.6-0.4,2.4c-0.1,0.4-0.3,0.8-0.4,1.2c-0.3,0.7-0.6,1.3-0.9,2
								c-0.2,0.4-0.5,0.8-0.7,1.2c-0.4,0.6-0.9,1.2-1.4,1.8c-0.3,0.4-0.6,0.8-1,1.2c-0.6,0.6-1.2,1.2-1.9,1.9
								c-0.4,0.4-0.8,0.7-1.2,1.1c-0.9,0.7-1.8,1.5-2.8,2.2c-0.3,0.2-0.6,0.5-1,0.7c-1.4,1-2.9,1.9-4.6,2.9
								c-0.4,0.2-0.8,0.4-1.2,0.6c-1.4,0.7-2.8,1.5-4.3,2.2c-0.6,0.3-1.3,0.6-2,0.9c-1.5,0.7-3,1.4-4.7,2c-0.7,0.3-1.4,0.6-2.1,0.9
								c-2.5,1-5.2,2-8,3c-2,0.7-4.1,1.4-6.3,2c-0.7,0.2-1.4,0.4-2.1,0.6c-1.5,0.4-3,0.9-4.5,1.3c-1.5,0.4-3,0.8-4.5,1.2
								c-1.2,0.3-2.3,0.6-3.5,0.9c-1.6,0.4-3.2,0.8-4.8,1.2c-1.2,0.3-2.4,0.6-3.6,0.8c-3.1,0.7-6.3,1.4-9.5,2v126.7
								c3.3-0.6,6.4-1.3,9.5-2c0.2-0.1,0.5-0.1,0.7-0.2c1-0.2,1.9-0.5,2.8-0.7c1.6-0.4,3.3-0.8,4.8-1.2c1.2-0.3,2.4-0.6,3.5-0.9
								c1.5-0.4,3-0.8,4.5-1.2c0.4-0.1,0.8-0.2,1.2-0.3c1.2-0.3,2.3-0.7,3.4-1c0.7-0.2,1.4-0.4,2-0.6c2.2-0.7,4.2-1.3,6.3-2
								c0,0,0,0,0.1,0c2.8-1,5.4-2,8-3c0.3-0.1,0.6-0.2,0.9-0.4c0.4-0.2,0.8-0.4,1.2-0.5c1.6-0.7,3.2-1.4,4.6-2
								c0.4-0.2,0.9-0.4,1.3-0.6c0.2-0.1,0.4-0.2,0.6-0.3c1.5-0.7,2.9-1.5,4.3-2.2c0.3-0.2,0.7-0.4,1-0.5c0.1,0,0.1-0.1,0.2-0.1
								c1.6-0.9,3.2-1.9,4.6-2.9c0,0,0.1-0.1,0.1-0.1c0.3-0.2,0.5-0.4,0.8-0.6c1-0.7,2-1.4,2.8-2.2c0.1-0.1,0.2-0.2,0.3-0.2
								c0.3-0.3,0.6-0.6,0.9-0.8c0.7-0.6,1.3-1.2,1.9-1.9c0.1-0.1,0.3-0.3,0.4-0.4c0.2-0.3,0.4-0.5,0.6-0.8c0.5-0.6,1-1.2,1.4-1.8
								c0.1-0.2,0.3-0.4,0.4-0.6c0.1-0.2,0.2-0.5,0.3-0.7c0.4-0.7,0.7-1.3,0.9-2c0.1-0.2,0.3-0.5,0.3-0.7c0.1-0.2,0-0.3,0.1-0.5
								c0.2-0.8,0.4-1.6,0.4-2.4c0-0.3,0.1-0.5,0.1-0.7c0-0.2,0-0.3,0-0.5V642.8C807,643.2,806.9,643.6,806.9,644z"/>
							<g>
								<polygon class="st26" points="729.5,682.4 729.5,809.1 610.7,770.8 610.7,644.1 								"/>
							</g>
						</g>
						<g>
							<path class="st27" d="M713.4,734c-5.1,0.9-10.4,1.7-15.8,2.4c-2.1,0.3-4.2,0.6-6.3,0.8c-2.7,0.4-5.5,0.7-8.3,1
								c-1.9,0.2-3.8,0.4-5.7,0.6c-4.3,0.5-8.6,0.9-13.1,1.3c-1.9,0.2-3.7,0.3-5.6,0.5c-5.6,0.5-11.3,0.9-17,1.2
								c-0.6,0-1.2,0.1-1.8,0.1c-6.1,0.4-12.3,0.6-18.5,0.9c-2.7,0.1-5.5,0.2-8.3,0.2c-2.8,0.1-5.5,0.2-8.3,0.2
								c-5.2,0.1-10.4,0.1-15.7,0.1c-5.6,0-11.1-0.1-16.6-0.2c-1.2,0-2.3-0.1-3.5-0.1c-4.1-0.1-8.1-0.2-12.1-0.3
								c-1.8-0.1-3.5-0.1-5.3-0.2c-3.4-0.1-6.7-0.3-10.1-0.5c-1.8-0.1-3.7-0.2-5.5-0.3c-3.3-0.2-6.5-0.4-9.8-0.7
								c-1.7-0.1-3.4-0.2-5.1-0.4c-3.6-0.3-7.1-0.6-10.7-0.9c-1.2-0.1-2.5-0.2-3.7-0.3c-4.8-0.5-9.5-1-14.1-1.5
								c-1.2-0.1-2.4-0.3-3.6-0.5c-3.5-0.4-6.9-0.9-10.3-1.4c-2.9-0.4-5.8-0.9-8.6-1.3c-1.9-0.3-3.8-0.6-5.6-0.9v83.4
								c0.2,0,0.5,0.1,0.7,0.1c1.6,0.3,3.3,0.5,4.9,0.8c2.8,0.4,5.7,0.9,8.6,1.3c0.2,0,0.4,0.1,0.6,0.1c3.2,0.4,6.4,0.9,9.7,1.3
								c1.2,0.2,2.4,0.3,3.6,0.5c0.1,0,0.1,0,0.2,0c4.3,0.5,8.7,1,13.1,1.4c0.2,0,0.5,0,0.7,0.1c1.2,0.1,2.5,0.2,3.7,0.3
								c2.8,0.3,5.7,0.5,8.6,0.8c0.7,0.1,1.4,0.1,2.1,0.2c1.7,0.1,3.4,0.2,5,0.4c2,0.1,3.9,0.3,5.9,0.4c1.3,0.1,2.6,0.1,3.8,0.2
								c1.8,0.1,3.6,0.2,5.5,0.3c1.3,0.1,2.6,0.2,4,0.2c2,0.1,4.1,0.2,6.1,0.3c1.8,0.1,3.5,0.2,5.3,0.2c0.7,0,1.5,0.1,2.2,0.1
								c3.3,0.1,6.6,0.2,9.9,0.3c1.2,0,2.3,0.1,3.5,0.1c0.2,0,0.4,0,0.6,0c4.8,0.1,9.7,0.1,14.7,0.1c0.4,0,0.9,0,1.3,0
								c4.7,0,9.5,0,14.1-0.1c0.5,0,1,0,1.6,0c2.8,0,5.5-0.1,8.3-0.2c2.3-0.1,4.7-0.1,7-0.2c0.5,0,0.9,0,1.4-0.1
								c6.3-0.2,12.4-0.5,18.5-0.9c0.1,0,0.2,0,0.3,0c0.5,0,1-0.1,1.5-0.1c5.8-0.3,11.5-0.8,17-1.2c1.9-0.2,3.8-0.3,5.6-0.5
								c4.4-0.4,8.8-0.8,13.1-1.3c1.1-0.1,2.3-0.2,3.4-0.3c0.8-0.1,1.5-0.2,2.3-0.3c2.8-0.3,5.6-0.7,8.3-1c1.6-0.2,3.2-0.4,4.7-0.6
								c0.5-0.1,1-0.2,1.6-0.2c5.4-0.8,10.7-1.6,15.8-2.4V734z"/>
							<g>
								<path class="st28" d="M464.6,734l124.3-40.2L713.4,734c-35.3,6-78.2,9.5-124.5,9.5C542.7,743.5,499.8,740,464.6,734z"/>
							</g>
						</g>
					</g>
				</g>
				<g>
					<ellipse class="st16" cx="951.9" cy="743.5" rx="70.1" ry="41.5"/>
					<g>
						<path class="st29" d="M837.2,741.4h0.9c0.2-0.6,0.4-1.2,0.7-1.8c6.9-16.2,36.1-27,66.5-27c30.4,0,59.6,10.9,66.5,27
							c0.3,0.6,0.5,1.2,0.7,1.8h0.9v5.8h0c-0.3,17.7-27.4,33.7-68.1,33.7s-67.8-16-68.1-33.7h0V741.4z"/>
						<path class="st30" d="M905.3,707.2c30.4,0,59.6,10.9,66.5,27c8.7,20.4-20.1,41.4-66.5,41.4s-75.2-20.9-66.5-41.4
							C845.7,718.1,874.9,707.2,905.3,707.2z"/>
						<path class="st31" d="M905.3,709c28.4,0,55.5,10.2,61.4,25.3c7.3,18.7-19.4,37.4-61.4,37.4s-68.7-18.7-61.4-37.4
							C849.8,719.2,876.9,709,905.3,709z M905.3,768.9c38.9,0,64.1-17.2,57.7-34.7c-5.3-14.2-30.7-24-57.7-24
							c-27,0-52.4,9.8-57.7,24C841.2,751.7,866.4,768.9,905.3,768.9z"/>
						<path class="st31" d="M912,727.6c-0.8-0.4-2.1-0.7-3.9-0.9l0.1,4.7c1.7-0.2,3-0.6,3.8-0.9c0.9-0.4,1.3-0.8,1.3-1.4
							C913.3,728.5,912.9,728,912,727.6z M897.1,738.5c-0.9,0.4-1.4,0.9-1.5,1.5c0,0.6,0.4,1.2,1.3,1.6c0.9,0.5,2.2,0.8,4,1l0.1-5.2
							C899.3,737.7,898,738.1,897.1,738.5z M905.3,712.5c24.4,0,47.2,8.9,51.4,21.7c5,15.3-17.5,30.1-51.4,30.1
							s-56.4-14.8-51.4-30.1C858.1,721.5,880.9,712.5,905.3,712.5z M887.6,745c2.9,1.6,7.3,2.6,13.2,3l-0.1,4.8h8l-0.1-4.7
							c3.8-0.1,7.5-0.5,10.9-1.1c3.4-0.6,6.1-1.3,8.1-2.2l-4.7-4.8c-1.8,0.7-4,1.3-6.5,1.8c-2.5,0.5-5.1,0.8-7.9,0.9l-0.1-6.3
							c3.4-0.4,6.3-0.9,8.6-1.4c2.3-0.5,4.2-1.2,5.7-2.2c1.5-0.9,2.1-2.1,1.9-3.6c-0.2-1.8-1.8-3.3-4.7-4.6c-2.8-1.2-6.7-2-11.8-2.2
							l-0.1-3.3h-6.5l-0.1,3.2c-5.4,0.2-10,0.8-13.7,1.9l3,3.9c3.5-0.9,7-1.5,10.6-1.7l-0.1,5.6c-3.3,0.4-6.1,0.8-8.5,1.3
							c-2.3,0.5-4.4,1.2-6.1,2.2c-1.7,1-2.7,2.3-2.9,3.9C883.5,741.6,884.7,743.5,887.6,745z"/>
					</g>
					<g>
						<path class="st29" d="M848.2,723.1h0.9c0.2-0.6,0.4-1.2,0.7-1.8c6.9-16.2,36.1-27,66.5-27c30.4,0,59.6,10.9,66.5,27
							c0.3,0.6,0.5,1.2,0.7,1.8h0.9v5.8h0c-0.3,17.7-27.4,33.7-68.1,33.7c-40.7,0-67.8-16-68.1-33.7h0V723.1z"/>
						<path class="st30" d="M916.2,688.9c30.4,0,59.6,10.9,66.5,27c8.7,20.4-20.1,41.4-66.5,41.4c-46.5,0-75.2-20.9-66.5-41.4
							C856.6,699.8,885.8,688.9,916.2,688.9z"/>
						<path class="st31" d="M916.2,690.7c28.4,0,55.5,10.2,61.4,25.3c7.3,18.7-19.4,37.4-61.4,37.4c-42,0-68.7-18.7-61.4-37.4
							C860.7,700.9,887.8,690.7,916.2,690.7z M916.2,750.6c38.9,0,64.1-17.2,57.7-34.7c-5.3-14.2-30.7-24-57.7-24
							c-27,0-52.4,9.8-57.7,24C852.1,733.4,877.3,750.6,916.2,750.6z"/>
						<path class="st31" d="M922.9,709.3c-0.8-0.4-2.1-0.7-3.9-0.9l0.1,4.7c1.7-0.2,3-0.6,3.8-0.9c0.9-0.4,1.3-0.8,1.3-1.4
							C924.2,710.2,923.8,709.8,922.9,709.3z M908,720.2c-0.9,0.4-1.4,0.9-1.5,1.5c0,0.6,0.4,1.2,1.3,1.6c0.9,0.5,2.2,0.8,4,1
							l0.1-5.2C910.3,719.4,908.9,719.8,908,720.2z M916.2,694.2c24.4,0,47.2,8.9,51.4,21.7c5,15.3-17.5,30.1-51.4,30.1
							c-33.8,0-56.4-14.8-51.4-30.1C869.1,703.2,891.8,694.2,916.2,694.2z M898.5,726.7c2.9,1.6,7.3,2.6,13.2,3l-0.1,4.8h8l-0.1-4.7
							c3.8-0.1,7.5-0.5,10.9-1.1c3.4-0.6,6.1-1.3,8.1-2.2l-4.7-4.8c-1.8,0.7-4,1.3-6.5,1.8c-2.5,0.5-5.1,0.8-7.9,0.9l-0.1-6.3
							c3.4-0.4,6.3-0.9,8.6-1.4c2.3-0.5,4.2-1.2,5.7-2.2c1.5-0.9,2.1-2.1,1.9-3.6c-0.2-1.8-1.8-3.3-4.7-4.6c-2.8-1.2-6.7-2-11.8-2.2
							l-0.1-3.3h-6.5l-0.1,3.2c-5.4,0.2-10,0.8-13.7,1.9l3,3.9c3.5-0.9,7-1.5,10.6-1.7l-0.1,5.6c-3.3,0.4-6.1,0.8-8.5,1.3
							c-2.3,0.5-4.4,1.2-6.1,2.2c-1.7,1-2.7,2.3-2.9,3.9C894.4,723.4,895.7,725.2,898.5,726.7z"/>
					</g>
					<g>
						<path class="st29" d="M858.7,704.6h0.9c0.2-0.6,0.4-1.2,0.7-1.8c6.9-16.2,36.1-27,66.5-27c30.4,0,59.6,10.9,66.5,27
							c0.3,0.6,0.5,1.2,0.7,1.8h0.9v5.8h0c-0.3,17.7-27.4,33.7-68.1,33.7c-40.7,0-67.8-16-68.1-33.7h0V704.6z"/>
						<path class="st30" d="M926.8,670.4c30.4,0,59.6,10.9,66.5,27c8.7,20.4-20.1,41.4-66.5,41.4s-75.2-20.9-66.5-41.4
							C867.1,681.2,896.4,670.4,926.8,670.4z"/>
						<path class="st31" d="M926.8,672.1c28.4,0,55.5,10.2,61.4,25.3c7.3,18.7-19.4,37.4-61.4,37.4c-42,0-68.7-18.7-61.4-37.4
							C871.3,682.4,898.3,672.1,926.8,672.1z M926.8,732.1c38.9,0,64.1-17.2,57.7-34.7c-5.3-14.2-30.7-24-57.7-24
							c-27,0-52.4,9.8-57.7,24C862.6,714.8,887.8,732.1,926.8,732.1z"/>
						<path class="st31" d="M933.5,690.8c-0.8-0.4-2.1-0.7-3.9-0.9l0.1,4.7c1.7-0.2,3-0.6,3.8-0.9c0.9-0.4,1.3-0.8,1.3-1.4
							C934.8,691.7,934.3,691.2,933.5,690.8z M918.6,701.6c-0.9,0.4-1.4,0.9-1.5,1.5c0,0.6,0.4,1.2,1.3,1.6c0.9,0.5,2.2,0.8,4,1
							l0.1-5.2C920.8,700.9,919.5,701.2,918.6,701.6z M926.8,675.7c24.4,0,47.2,8.9,51.4,21.7c5,15.3-17.5,30.1-51.4,30.1
							c-33.8,0-56.4-14.8-51.4-30.1C879.6,684.6,902.3,675.7,926.8,675.7z M909.1,708.2c2.9,1.6,7.3,2.6,13.2,3l-0.1,4.8h8l-0.1-4.7
							c3.8-0.1,7.5-0.5,10.9-1.1c3.4-0.6,6.1-1.3,8.1-2.2l-4.7-4.8c-1.8,0.7-4,1.3-6.5,1.8c-2.5,0.5-5.1,0.8-7.9,0.9l-0.1-6.3
							c3.4-0.4,6.3-0.9,8.6-1.4c2.3-0.5,4.2-1.2,5.7-2.2c1.5-0.9,2.1-2.1,1.9-3.6c-0.2-1.8-1.8-3.3-4.7-4.6c-2.8-1.2-6.7-2-11.8-2.2
							l-0.1-3.3H923l-0.1,3.2c-5.4,0.2-10,0.8-13.7,1.9l3,3.9c3.5-0.9,7-1.5,10.6-1.7l-0.1,5.6c-3.3,0.4-6.1,0.8-8.5,1.3
							c-2.3,0.5-4.4,1.2-6.1,2.2c-1.7,1-2.7,2.3-2.9,3.9C904.9,704.8,906.2,706.6,909.1,708.2z"/>
					</g>
					<g>
						<path class="st29" d="M848.2,690.1h0.9c0.2-0.6,0.4-1.2,0.7-1.8c6.9-16.2,36.1-27,66.5-27c30.4,0,59.6,10.9,66.5,27
							c0.3,0.6,0.5,1.2,0.7,1.8h0.9v5.8h0c-0.3,17.7-27.4,33.7-68.1,33.7c-40.7,0-67.8-16-68.1-33.7h0V690.1z"/>
						<path class="st30" d="M916.2,655.9c30.4,0,59.6,10.9,66.5,27c8.7,20.4-20.1,41.4-66.5,41.4c-46.5,0-75.2-20.9-66.5-41.4
							C856.6,666.7,885.8,655.9,916.2,655.9z"/>
						<path class="st31" d="M916.2,657.6c28.4,0,55.5,10.2,61.4,25.3c7.3,18.7-19.4,37.4-61.4,37.4c-42,0-68.7-18.7-61.4-37.4
							C860.7,667.8,887.8,657.6,916.2,657.6z M916.2,717.6c38.9,0,64.1-17.2,57.7-34.7c-5.3-14.2-30.7-24-57.7-24
							c-27,0-52.4,9.8-57.7,24C852.1,700.3,877.3,717.6,916.2,717.6z"/>
						<path class="st31" d="M922.9,676.2c-0.8-0.4-2.1-0.7-3.9-0.9l0.1,4.7c1.7-0.2,3-0.6,3.8-0.9c0.9-0.4,1.3-0.8,1.3-1.4
							C924.2,677.2,923.8,676.7,922.9,676.2z M908,687.1c-0.9,0.4-1.4,0.9-1.5,1.5c0,0.6,0.4,1.2,1.3,1.6c0.9,0.5,2.2,0.8,4,1
							l0.1-5.2C910.3,686.4,908.9,686.7,908,687.1z M916.2,661.2c24.4,0,47.2,8.9,51.4,21.7c5,15.3-17.5,30.1-51.4,30.1
							c-33.8,0-56.4-14.8-51.4-30.1C869.1,670.1,891.8,661.2,916.2,661.2z M898.5,693.7c2.9,1.6,7.3,2.6,13.2,3l-0.1,4.8h8l-0.1-4.7
							c3.8-0.1,7.5-0.5,10.9-1.1c3.4-0.6,6.1-1.3,8.1-2.2l-4.7-4.8c-1.8,0.7-4,1.3-6.5,1.8c-2.5,0.5-5.1,0.8-7.9,0.9l-0.1-6.3
							c3.4-0.4,6.3-0.9,8.6-1.4c2.3-0.5,4.2-1.2,5.7-2.2c1.5-0.9,2.1-2.1,1.9-3.6c-0.2-1.8-1.8-3.3-4.7-4.6c-2.8-1.2-6.7-2-11.8-2.2
							l-0.1-3.3h-6.5l-0.1,3.2c-5.4,0.2-10,0.8-13.7,1.9l3,3.9c3.5-0.9,7-1.5,10.6-1.7l-0.1,5.6c-3.3,0.4-6.1,0.8-8.5,1.3
							c-2.3,0.5-4.4,1.2-6.1,2.2c-1.7,1-2.7,2.3-2.9,3.9C894.4,690.3,895.7,692.1,898.5,693.7z"/>
					</g>
					<g>
						<path class="st29" d="M842.7,671.5h0.9c0.2-0.6,0.4-1.2,0.7-1.8c6.9-16.2,36.1-27,66.5-27s59.6,10.9,66.5,27
							c0.3,0.6,0.5,1.2,0.7,1.8h0.9v5.8h0c-0.3,17.7-27.4,33.7-68.1,33.7c-40.7,0-67.8-16-68.1-33.7h0V671.5z"/>
						<path class="st30" d="M910.8,637.3c30.4,0,59.6,10.9,66.5,27c8.7,20.4-20.1,41.4-66.5,41.4s-75.2-20.9-66.5-41.4
							C851.1,648.1,880.4,637.3,910.8,637.3z"/>
						<path class="st31" d="M910.8,639c28.4,0,55.5,10.2,61.4,25.3c7.3,18.7-19.4,37.4-61.4,37.4S842,683,849.4,664.3
							C855.3,649.3,882.3,639,910.8,639z M910.8,699c38.9,0,64.1-17.2,57.7-34.7c-5.3-14.2-30.7-24-57.7-24s-52.4,9.8-57.7,24
							C846.6,681.8,871.8,699,910.8,699z"/>
						<path class="st31" d="M917.5,657.7c-0.8-0.4-2.1-0.7-3.9-0.9l0.1,4.7c1.7-0.2,3-0.6,3.8-0.9c0.9-0.4,1.3-0.8,1.3-1.4
							C918.8,658.6,918.3,658.1,917.5,657.7z M902.6,668.5c-0.9,0.4-1.4,0.9-1.5,1.5c0,0.6,0.4,1.2,1.3,1.6c0.9,0.5,2.2,0.8,4,1
							l0.1-5.2C904.8,667.8,903.5,668.1,902.6,668.5z M910.8,642.6c24.4,0,47.2,8.9,51.4,21.7c5,15.3-17.5,30.1-51.4,30.1
							s-56.4-14.8-51.4-30.1C863.6,651.5,886.3,642.6,910.8,642.6z M893.1,675.1c2.9,1.6,7.3,2.6,13.2,3l-0.1,4.8h8l-0.1-4.7
							c3.8-0.1,7.5-0.5,10.9-1.1c3.4-0.6,6.1-1.3,8.1-2.2l-4.7-4.8c-1.8,0.7-4,1.3-6.5,1.8c-2.5,0.5-5.1,0.8-7.9,0.9l-0.1-6.3
							c3.4-0.4,6.3-0.9,8.6-1.4c2.3-0.5,4.2-1.2,5.7-2.2c1.5-0.9,2.1-2.1,1.9-3.6c-0.2-1.8-1.8-3.3-4.7-4.6c-2.8-1.2-6.7-2-11.8-2.2
							l-0.1-3.3H907l-0.1,3.2c-5.4,0.2-10,0.8-13.7,1.9l3,3.9c3.5-0.9,7-1.5,10.6-1.7l-0.1,5.6c-3.3,0.4-6.1,0.8-8.5,1.3
							c-2.3,0.5-4.4,1.2-6.1,2.2c-1.7,1-2.7,2.3-2.9,3.9C888.9,671.7,890.2,673.5,893.1,675.1z"/>
					</g>
					<ellipse class="st16" cx="853.6" cy="774.2" rx="65.9" ry="33.9"/>
					<g>
						<ellipse class="st30" cx="826.2" cy="756.1" rx="72.1" ry="51.2"/>
						<path class="st31" d="M826.2,708.9c36.7,0,66.5,21.2,66.5,47.3s-29.8,47.3-66.5,47.3c-36.7,0-66.5-21.2-66.5-47.3
							S789.4,708.9,826.2,708.9z M826.2,800.6c34.5,0,62.5-19.9,62.5-44.4c0-24.5-28-44.4-62.5-44.4c-34.5,0-62.5,19.9-62.5,44.4
							C763.6,780.7,791.6,800.6,826.2,800.6z"/>
						<path class="st31" d="M833.8,745.2c-0.9-0.7-2.4-1.2-4.3-1.6v7.8c1.9-0.4,3.3-0.9,4.3-1.5c1-0.6,1.5-1.3,1.5-2.3
							C835.2,746.8,834.7,746,833.8,745.2z M817.5,762.5c-1,0.6-1.4,1.3-1.4,2.3c0,0.9,0.5,1.7,1.4,2.4c0.9,0.7,2.3,1.1,4.2,1.4V761
							C819.9,761.4,818.5,761.9,817.5,762.5z M826.2,716.6c30.7,0,55.7,17.7,55.7,39.5c0,21.8-24.9,39.5-55.7,39.5
							c-30.7,0-55.7-17.7-55.7-39.5C770.5,734.3,795.4,716.6,826.2,716.6z M808.2,771.9c3.1,2.2,7.6,3.5,13.4,4v6.2h7.8v-6
							c3.8-0.1,7.5-0.6,10.9-1.4c3.5-0.8,6.3-1.8,8.4-3l-4.3-6.7c-2,1-4.3,1.9-6.9,2.6c-2.6,0.7-5.4,1.1-8.2,1.3v-9.2
							c3.7-0.6,6.8-1.3,9.3-2.1s4.7-1.9,6.4-3.4c1.7-1.5,2.6-3.5,2.6-5.9c0-3.1-1.6-5.7-4.7-7.9c-3.1-2.2-7.6-3.5-13.5-4v-6.1h-7.8
							v6c-6.4,0.4-11.6,1.5-15.8,3.4l3.9,6.8c3.9-1.6,7.8-2.5,11.9-2.9v9.4c-3.6,0.6-6.7,1.3-9.2,2c-2.5,0.8-4.6,1.9-6.3,3.4
							c-1.7,1.5-2.6,3.4-2.6,5.9C803.6,767.1,805.1,769.7,808.2,771.9z"/>
					</g>
					<g>
						
							<linearGradient id="SVGID_8_" gradientUnits="userSpaceOnUse" x1="-3976.3557" y1="738.8002" x2="-3885.0205" y2="547.1249" gradientTransform="matrix(-0.2697 0 0 1 0 0)">
							<stop  offset="0" style="stop-color:#FFE285;stop-opacity:0.1"/>
							<stop  offset="1" style="stop-color:#FFE285"/>
						</linearGradient>
						<path class="st32" d="M1059.5,597.7c30.8,0,55.7,17.7,55.7,39.6c0,21.9-24.9,39.6-55.7,39.6c-30.8,0-55.7-17.7-55.7-39.6
							C1003.7,615.4,1028.7,597.7,1059.5,597.7z M1059.5,673.8c28.4,0,51.4-16.4,51.4-36.5c0-20.2-23-36.5-51.4-36.5
							c-28.4,0-51.4,16.4-51.4,36.5C1008,657.5,1031.1,673.8,1059.5,673.8z"/>
						<g>
							
								<linearGradient id="SVGID_9_" gradientUnits="userSpaceOnUse" x1="-3976.3552" y1="738.8003" x2="-3885.0205" y2="547.1263" gradientTransform="matrix(-0.2697 0 0 1 0 0)">
								<stop  offset="0" style="stop-color:#FFE285;stop-opacity:0.1"/>
								<stop  offset="1" style="stop-color:#FFE285"/>
							</linearGradient>
							<path class="st33" d="M1059.5,603c26.7,0,48.3,15.4,48.3,34.3c0,19-21.6,34.3-48.3,34.3c-26.7,0-48.3-15.4-48.3-34.3
								C1011.1,618.3,1032.8,603,1059.5,603z M1059.5,667.9c23.8,0,43-13.7,43-30.6s-19.3-30.6-43-30.6c-23.8,0-43,13.7-43,30.6
								S1035.7,667.9,1059.5,667.9z"/>
							
								<linearGradient id="SVGID_10_" gradientUnits="userSpaceOnUse" x1="-3966.8389" y1="722.1137" x2="-3892.1709" y2="565.4164" gradientTransform="matrix(-0.2697 0 0 1 0 0)">
								<stop  offset="0" style="stop-color:#FFE285;stop-opacity:0.1"/>
								<stop  offset="1" style="stop-color:#FFE285"/>
							</linearGradient>
							<path class="st34" d="M1048.9,636.3c1.9-0.6,4.3-1.1,7.1-1.6v-7.2c-3.1,0.3-6.2,1-9.2,2.2l-3-5.2c3.2-1.5,7.3-2.3,12.2-2.6
								v-4.6h6v4.7c4.6,0.4,8.1,1.4,10.5,3.1c2.4,1.7,3.6,3.7,3.6,6.1c0,1.9-0.7,3.4-2,4.6c-1.3,1.2-3,2-4.9,2.6
								c-2,0.6-4.4,1.1-7.2,1.6v7.1c2.2-0.1,4.3-0.5,6.3-1c2-0.5,3.8-1.2,5.3-2l3.3,5.2c-1.6,0.9-3.8,1.7-6.5,2.3
								c-2.7,0.6-5.5,1-8.5,1.1v4.6h-6v-4.8c-4.5-0.4-8-1.4-10.4-3.1c-2.4-1.7-3.6-3.7-3.6-6c0-1.9,0.7-3.4,2-4.5
								C1045.3,637.8,1046.9,636.9,1048.9,636.3z M1062,633.7c1.4-0.3,2.5-0.7,3.3-1.2c0.8-0.5,1.1-1,1.1-1.7c0-0.7-0.4-1.4-1.1-1.9
								c-0.7-0.6-1.8-1-3.4-1.2V633.7z M1052.7,645.8c0.7,0.5,1.8,0.9,3.2,1.1V641c-1.4,0.3-2.5,0.7-3.2,1.2c-0.7,0.5-1.1,1-1.1,1.7
								C1051.7,644.7,1052,645.3,1052.7,645.8z"/>
						</g>
					</g>
					<g>
						
							<linearGradient id="SVGID_11_" gradientUnits="userSpaceOnUse" x1="-3636.2222" y1="596.4638" x2="-3582.5085" y2="483.7409" gradientTransform="matrix(-0.2697 0 0 1 0 0)">
							<stop  offset="0" style="stop-color:#FFE285;stop-opacity:0.1"/>
							<stop  offset="1" style="stop-color:#FFE285"/>
						</linearGradient>
						<path class="st35" d="M973.1,513.5c18.1,0,32.8,10.4,32.8,23.3c0,12.9-14.7,23.3-32.8,23.3c-18.1,0-32.8-10.4-32.8-23.3
							C940.3,523.9,955,513.5,973.1,513.5z M973.1,558.3c16.7,0,30.2-9.6,30.2-21.5c0-11.9-13.5-21.5-30.2-21.5
							c-16.7,0-30.2,9.6-30.2,21.5C942.9,548.6,956.4,558.3,973.1,558.3z"/>
						<g>
							
								<linearGradient id="SVGID_12_" gradientUnits="userSpaceOnUse" x1="-3636.2227" y1="596.4637" x2="-3582.5095" y2="483.7418" gradientTransform="matrix(-0.2697 0 0 1 0 0)">
								<stop  offset="0" style="stop-color:#FFE285;stop-opacity:0.1"/>
								<stop  offset="1" style="stop-color:#FFE285"/>
							</linearGradient>
							<path class="st36" d="M973.1,516.6c15.7,0,28.4,9,28.4,20.2c0,11.2-12.7,20.2-28.4,20.2c-15.7,0-28.4-9-28.4-20.2
								C944.7,525.6,957.4,516.6,973.1,516.6z M973.1,554.7c14,0,25.3-8,25.3-18c0-9.9-11.3-18-25.3-18s-25.3,8-25.3,18
								C947.8,546.7,959.1,554.7,973.1,554.7z"/>
							
								<linearGradient id="SVGID_13_" gradientUnits="userSpaceOnUse" x1="-3630.6257" y1="586.6508" x2="-3586.7139" y2="494.498" gradientTransform="matrix(-0.2697 0 0 1 0 0)">
								<stop  offset="0" style="stop-color:#FFE285;stop-opacity:0.1"/>
								<stop  offset="1" style="stop-color:#FFE285"/>
							</linearGradient>
							<path class="st37" d="M966.9,536.2c1.1-0.3,2.5-0.6,4.2-0.9V531c-1.8,0.2-3.6,0.6-5.4,1.3l-1.8-3.1c1.9-0.9,4.3-1.4,7.2-1.5
								V525h3.5v2.8c2.7,0.2,4.7,0.8,6.2,1.8c1.4,1,2.1,2.2,2.1,3.6c0,1.1-0.4,2-1.2,2.7c-0.8,0.7-1.7,1.2-2.9,1.5
								c-1.2,0.4-2.6,0.7-4.2,1v4.2c1.3-0.1,2.5-0.3,3.7-0.6c1.2-0.3,2.2-0.7,3.1-1.2l1.9,3.1c-1,0.5-2.2,1-3.8,1.4
								c-1.6,0.4-3.2,0.6-5,0.7v2.7H971v-2.8c-2.7-0.2-4.7-0.8-6.1-1.8c-1.4-1-2.1-2.2-2.1-3.5c0-1.1,0.4-2,1.2-2.7
								C964.8,537.1,965.7,536.5,966.9,536.2z M974.6,534.7c0.8-0.2,1.5-0.4,1.9-0.7c0.4-0.3,0.7-0.6,0.7-1c0-0.4-0.2-0.8-0.6-1.1
								c-0.4-0.3-1.1-0.6-2-0.7V534.7z M969.1,541.8c0.4,0.3,1.1,0.5,1.9,0.7V539c-0.8,0.2-1.4,0.4-1.9,0.7c-0.4,0.3-0.7,0.6-0.7,1
								C968.5,541.1,968.7,541.5,969.1,541.8z"/>
						</g>
					</g>
					<g>
						
							<linearGradient id="SVGID_14_" gradientUnits="userSpaceOnUse" x1="-985.9741" y1="557.8677" x2="-932.2604" y2="445.1447" gradientTransform="matrix(-0.2697 0 0 1 0 0)">
							<stop  offset="0" style="stop-color:#FFE285;stop-opacity:0.1"/>
							<stop  offset="1" style="stop-color:#FFE285"/>
						</linearGradient>
						<path class="st38" d="M258.3,474.9c18.1,0,32.8,10.4,32.8,23.3c0,12.9-14.7,23.3-32.8,23.3c-18.1,0-32.8-10.4-32.8-23.3
							C225.5,485.3,240.2,474.9,258.3,474.9z M258.3,519.7c16.7,0,30.2-9.6,30.2-21.5c0-11.9-13.5-21.5-30.2-21.5
							c-16.7,0-30.2,9.6-30.2,21.5C228,510,241.6,519.7,258.3,519.7z"/>
						<g>
							
								<linearGradient id="SVGID_15_" gradientUnits="userSpaceOnUse" x1="-985.9747" y1="557.8676" x2="-932.2615" y2="445.1456" gradientTransform="matrix(-0.2697 0 0 1 0 0)">
								<stop  offset="0" style="stop-color:#FFE285;stop-opacity:0.1"/>
								<stop  offset="1" style="stop-color:#FFE285"/>
							</linearGradient>
							<path class="st39" d="M258.3,478c15.7,0,28.4,9,28.4,20.2c0,11.2-12.7,20.2-28.4,20.2c-15.7,0-28.4-9-28.4-20.2
								C229.8,487,242.6,478,258.3,478z M258.3,516.1c14,0,25.3-8,25.3-18c0-9.9-11.3-18-25.3-18c-14,0-25.3,8-25.3,18
								C233,508.1,244.3,516.1,258.3,516.1z"/>
							
								<linearGradient id="SVGID_16_" gradientUnits="userSpaceOnUse" x1="-980.3782" y1="548.0544" x2="-936.4663" y2="455.9016" gradientTransform="matrix(-0.2697 0 0 1 0 0)">
								<stop  offset="0" style="stop-color:#FFE285;stop-opacity:0.1"/>
								<stop  offset="1" style="stop-color:#FFE285"/>
							</linearGradient>
							<path class="st40" d="M252,497.6c1.1-0.3,2.5-0.6,4.2-0.9v-4.3c-1.8,0.2-3.6,0.6-5.4,1.3l-1.8-3.1c1.9-0.9,4.3-1.4,7.2-1.5
								v-2.7h3.5v2.8c2.7,0.2,4.7,0.8,6.2,1.8c1.4,1,2.1,2.2,2.1,3.6c0,1.1-0.4,2-1.2,2.7c-0.8,0.7-1.7,1.2-2.9,1.5
								c-1.2,0.4-2.6,0.7-4.2,1v4.2c1.3-0.1,2.5-0.3,3.7-0.6c1.2-0.3,2.2-0.7,3.1-1.2l1.9,3.1c-1,0.5-2.2,1-3.8,1.4
								c-1.6,0.4-3.2,0.6-5,0.7v2.7h-3.5v-2.8c-2.7-0.2-4.7-0.8-6.1-1.8c-1.4-1-2.1-2.2-2.1-3.5c0-1.1,0.4-2,1.2-2.7
								C249.9,498.5,250.9,497.9,252,497.6z M259.7,496.1c0.8-0.2,1.5-0.4,1.9-0.7c0.4-0.3,0.7-0.6,0.7-1c0-0.4-0.2-0.8-0.6-1.1
								c-0.4-0.3-1.1-0.6-2-0.7V496.1z M254.3,503.2c0.4,0.3,1.1,0.5,1.9,0.7v-3.5c-0.8,0.2-1.5,0.4-1.9,0.7c-0.4,0.3-0.7,0.6-0.7,1
								C253.7,502.5,253.9,502.9,254.3,503.2z"/>
						</g>
					</g>
					<g>
						
							<linearGradient id="SVGID_17_" gradientUnits="userSpaceOnUse" x1="-1012.2651" y1="716.9156" x2="-932.716" y2="549.9747" gradientTransform="matrix(-0.2697 0 0 1 0 0)">
							<stop  offset="0" style="stop-color:#FFE285;stop-opacity:0.1"/>
							<stop  offset="1" style="stop-color:#FFE285"/>
						</linearGradient>
						<path class="st41" d="M261.7,594c26.8,0,48.5,15.4,48.5,34.5c0,19-21.7,34.5-48.5,34.5c-26.8,0-48.5-15.4-48.5-34.5
							C213.1,609.5,234.9,594,261.7,594z M261.7,660.3c24.7,0,44.8-14.2,44.8-31.8c0-17.6-20.1-31.8-44.8-31.8
							c-24.7,0-44.8,14.2-44.8,31.8C216.9,646.1,236.9,660.3,261.7,660.3z"/>
						<g>
							
								<linearGradient id="SVGID_18_" gradientUnits="userSpaceOnUse" x1="-1012.2653" y1="716.9156" x2="-932.7167" y2="549.976" gradientTransform="matrix(-0.2697 0 0 1 0 0)">
								<stop  offset="0" style="stop-color:#FFE285;stop-opacity:0.1"/>
								<stop  offset="1" style="stop-color:#FFE285"/>
							</linearGradient>
							<path class="st42" d="M261.7,598.6c23.2,0,42.1,13.4,42.1,29.9c0,16.5-18.8,29.9-42.1,29.9c-23.2,0-42.1-13.4-42.1-29.9
								C219.6,612,238.4,598.6,261.7,598.6z M261.7,655.1c20.7,0,37.5-11.9,37.5-26.6s-16.8-26.6-37.5-26.6
								c-20.7,0-37.5,11.9-37.5,26.6S241,655.1,261.7,655.1z"/>
							
								<linearGradient id="SVGID_19_" gradientUnits="userSpaceOnUse" x1="-1003.9767" y1="702.3828" x2="-938.944" y2="565.9057" gradientTransform="matrix(-0.2697 0 0 1 0 0)">
								<stop  offset="0" style="stop-color:#FFE285;stop-opacity:0.1"/>
								<stop  offset="1" style="stop-color:#FFE285"/>
							</linearGradient>
							<path class="st43" d="M252.4,627.7c1.7-0.5,3.8-1,6.2-1.4V620c-2.7,0.2-5.4,0.9-8,1.9l-2.6-4.6c2.8-1.3,6.3-2,10.6-2.3v-4
								h5.2v4.1c4,0.3,7,1.2,9.1,2.7c2.1,1.5,3.2,3.2,3.2,5.3c0,1.7-0.6,3-1.7,4c-1.1,1-2.6,1.8-4.3,2.3c-1.7,0.5-3.8,1-6.3,1.4v6.2
								c1.9-0.1,3.7-0.4,5.5-0.9c1.8-0.5,3.3-1.1,4.7-1.7l2.9,4.5c-1.4,0.8-3.3,1.5-5.6,2c-2.3,0.5-4.8,0.9-7.4,1v4h-5.2v-4.2
								c-3.9-0.3-6.9-1.2-9-2.7c-2.1-1.4-3.1-3.2-3.1-5.2c0-1.6,0.6-3,1.7-4C249.3,628.9,250.8,628.2,252.4,627.7z M263.9,625.4
								c1.3-0.3,2.2-0.6,2.9-1c0.7-0.4,1-0.9,1-1.5c0-0.6-0.3-1.2-0.9-1.7c-0.6-0.5-1.6-0.8-2.9-1.1V625.4z M255.8,635.9
								c0.6,0.4,1.6,0.8,2.8,1v-5.1c-1.2,0.3-2.1,0.6-2.8,1c-0.6,0.4-1,0.9-1,1.5C254.9,635,255.2,635.5,255.8,635.9z"/>
						</g>
					</g>
					<g>
						
							<linearGradient id="SVGID_20_" gradientUnits="userSpaceOnUse" x1="-3867.1479" y1="548.8788" x2="-3796.1646" y2="399.9139" gradientTransform="matrix(-0.2697 0 0 1 0 0)">
							<stop  offset="0" style="stop-color:#FFE285;stop-opacity:0.1"/>
							<stop  offset="1" style="stop-color:#FFE285"/>
						</linearGradient>
						<path class="st44" d="M1032.9,439.2c23.9,0,43.3,13.8,43.3,30.8c0,17-19.4,30.8-43.3,30.8c-23.9,0-43.3-13.8-43.3-30.8
							C989.6,453,1009,439.2,1032.9,439.2z M1032.9,498.4c22.1,0,40-12.7,40-28.4c0-15.7-17.9-28.4-40-28.4c-22.1,0-40,12.7-40,28.4
							C992.9,485.7,1010.8,498.4,1032.9,498.4z"/>
						<g>
							
								<linearGradient id="SVGID_21_" gradientUnits="userSpaceOnUse" x1="-3867.1475" y1="548.8791" x2="-3796.1646" y2="399.9149" gradientTransform="matrix(-0.2697 0 0 1 0 0)">
								<stop  offset="0" style="stop-color:#FFE285;stop-opacity:0.1"/>
								<stop  offset="1" style="stop-color:#FFE285"/>
							</linearGradient>
							<path class="st45" d="M1032.9,443.3c20.7,0,37.6,11.9,37.6,26.7s-16.8,26.7-37.6,26.7c-20.7,0-37.6-11.9-37.6-26.7
								S1012.2,443.3,1032.9,443.3z M1032.9,493.7c18.5,0,33.4-10.6,33.4-23.8c0-13.1-15-23.8-33.4-23.8
								c-18.5,0-33.4,10.6-33.4,23.8C999.5,483.1,1014.4,493.7,1032.9,493.7z"/>
							
								<linearGradient id="SVGID_22_" gradientUnits="userSpaceOnUse" x1="-3859.7517" y1="535.9106" x2="-3801.7217" y2="414.1295" gradientTransform="matrix(-0.2697 0 0 1 0 0)">
								<stop  offset="0" style="stop-color:#FFE285;stop-opacity:0.1"/>
								<stop  offset="1" style="stop-color:#FFE285"/>
							</linearGradient>
							<path class="st46" d="M1024.7,469.2c1.5-0.5,3.4-0.9,5.5-1.2v-5.6c-2.4,0.2-4.8,0.8-7.1,1.7l-2.3-4.1c2.5-1.1,5.6-1.8,9.5-2
								v-3.6h4.7v3.7c3.5,0.3,6.3,1.1,8.1,2.4c1.9,1.3,2.8,2.9,2.8,4.7c0,1.5-0.5,2.7-1.5,3.6c-1,0.9-2.3,1.6-3.8,2
								c-1.5,0.5-3.4,0.9-5.6,1.3v5.5c1.7-0.1,3.3-0.4,4.9-0.8c1.6-0.4,3-0.9,4.2-1.6l2.6,4c-1.3,0.7-3,1.3-5,1.8
								c-2.1,0.5-4.3,0.8-6.6,0.9v3.6h-4.7v-3.7c-3.5-0.3-6.2-1.1-8.1-2.4c-1.9-1.3-2.8-2.8-2.8-4.7c0-1.5,0.5-2.6,1.5-3.5
								C1021.9,470.4,1023.2,469.7,1024.7,469.2z M1034.9,467.2c1.1-0.2,2-0.5,2.6-0.9c0.6-0.4,0.9-0.8,0.9-1.4
								c0-0.6-0.3-1.1-0.8-1.5c-0.6-0.4-1.4-0.7-2.6-0.9V467.2z M1027.7,476.6c0.6,0.4,1.4,0.7,2.5,0.9v-4.6
								c-1.1,0.3-1.9,0.6-2.5,0.9c-0.6,0.4-0.9,0.8-0.9,1.4S1027.1,476.2,1027.7,476.6z"/>
						</g>
					</g>
					<g>
						
							<linearGradient id="SVGID_23_" gradientUnits="userSpaceOnUse" x1="-635.5393" y1="622.1732" x2="-572.1675" y2="489.182" gradientTransform="matrix(-0.2697 0 0 1 0 0)">
							<stop  offset="0" style="stop-color:#FFE285;stop-opacity:0.1"/>
							<stop  offset="1" style="stop-color:#FFE285"/>
						</linearGradient>
						<path class="st47" d="M162.4,524.3c21.4,0,38.7,12.3,38.7,27.5c0,15.2-17.3,27.5-38.7,27.5s-38.7-12.3-38.7-27.5
							C123.7,536.6,141,524.3,162.4,524.3z M162.4,577.1c19.7,0,35.7-11.4,35.7-25.4c0-14-16-25.4-35.7-25.4
							c-19.7,0-35.7,11.4-35.7,25.4C126.7,565.7,142.7,577.1,162.4,577.1z"/>
						<g>
							
								<linearGradient id="SVGID_24_" gradientUnits="userSpaceOnUse" x1="-635.5392" y1="622.1732" x2="-572.168" y2="489.1831" gradientTransform="matrix(-0.2697 0 0 1 0 0)">
								<stop  offset="0" style="stop-color:#FFE285;stop-opacity:0.1"/>
								<stop  offset="1" style="stop-color:#FFE285"/>
							</linearGradient>
							<path class="st48" d="M162.4,527.9c18.5,0,33.5,10.7,33.5,23.8s-15,23.8-33.5,23.8s-33.5-10.7-33.5-23.8
								S143.8,527.9,162.4,527.9z M162.4,573c16.5,0,29.8-9.5,29.8-21.2s-13.4-21.2-29.8-21.2c-16.5,0-29.8,9.5-29.8,21.2
								S145.9,573,162.4,573z"/>
							
								<linearGradient id="SVGID_25_" gradientUnits="userSpaceOnUse" x1="-628.9361" y1="610.5956" x2="-577.129" y2="501.8737" gradientTransform="matrix(-0.2697 0 0 1 0 0)">
								<stop  offset="0" style="stop-color:#FFE285;stop-opacity:0.1"/>
								<stop  offset="1" style="stop-color:#FFE285"/>
							</linearGradient>
							<path class="st49" d="M155,551.1c1.3-0.4,3-0.8,4.9-1.1v-5c-2.2,0.2-4.3,0.7-6.4,1.5l-2.1-3.6c2.2-1,5-1.6,8.5-1.8v-3.2h4.2
								v3.3c3.2,0.3,5.6,1,7.3,2.1c1.7,1.2,2.5,2.6,2.5,4.2c0,1.3-0.5,2.4-1.4,3.2c-0.9,0.8-2.1,1.4-3.4,1.8c-1.4,0.4-3,0.8-5,1.1
								v4.9c1.5-0.1,3-0.3,4.4-0.7c1.4-0.4,2.7-0.8,3.7-1.4l2.3,3.6c-1.1,0.6-2.6,1.2-4.5,1.6c-1.9,0.4-3.8,0.7-5.9,0.8v3.2H160
								v-3.3c-3.1-0.3-5.5-1-7.2-2.1c-1.7-1.2-2.5-2.5-2.5-4.2c0-1.3,0.5-2.4,1.4-3.2C152.5,552.1,153.7,551.5,155,551.1z
								 M164.1,549.3c1-0.2,1.8-0.5,2.3-0.8c0.5-0.3,0.8-0.7,0.8-1.2c0-0.5-0.3-1-0.8-1.3c-0.5-0.4-1.3-0.7-2.3-0.8V549.3z
								 M157.7,557.7c0.5,0.4,1.3,0.6,2.2,0.8v-4.1c-1,0.2-1.7,0.5-2.2,0.8c-0.5,0.3-0.8,0.7-0.8,1.2
								C157,556.9,157.2,557.3,157.7,557.7z"/>
						</g>
					</g>
					<g>
						
							<linearGradient id="SVGID_26_" gradientUnits="userSpaceOnUse" x1="-2931.3831" y1="371.4181" x2="-2879.7683" y2="263.1002" gradientTransform="matrix(-0.2697 0 0 1 0 0)">
							<stop  offset="0" style="stop-color:#FFE285;stop-opacity:0.1"/>
							<stop  offset="1" style="stop-color:#FFE285"/>
						</linearGradient>
						<path class="st50" d="M783.3,291.7c17.4,0,31.5,10,31.5,22.4c0,12.4-14.1,22.4-31.5,22.4c-17.4,0-31.5-10-31.5-22.4
							C751.8,301.7,765.9,291.7,783.3,291.7z M783.3,334.7c16,0,29.1-9.2,29.1-20.6c0-11.4-13-20.6-29.1-20.6
							c-16,0-29.1,9.2-29.1,20.6C754.2,325.5,767.2,334.7,783.3,334.7z"/>
						<g>
							
								<linearGradient id="SVGID_27_" gradientUnits="userSpaceOnUse" x1="-2931.3826" y1="371.4183" x2="-2879.7681" y2="263.1009" gradientTransform="matrix(-0.2697 0 0 1 0 0)">
								<stop  offset="0" style="stop-color:#FFE285;stop-opacity:0.1"/>
								<stop  offset="1" style="stop-color:#FFE285"/>
							</linearGradient>
							<path class="st51" d="M783.3,294.6c15.1,0,27.3,8.7,27.3,19.4c0,10.7-12.2,19.4-27.3,19.4c-15.1,0-27.3-8.7-27.3-19.4
								C756,303.3,768.2,294.6,783.3,294.6z M783.3,331.3c13.4,0,24.3-7.7,24.3-17.3c0-9.5-10.9-17.3-24.3-17.3s-24.3,7.7-24.3,17.3
								C759,323.6,769.9,331.3,783.3,331.3z"/>
							
								<linearGradient id="SVGID_28_" gradientUnits="userSpaceOnUse" x1="-2926.0051" y1="361.9887" x2="-2883.8093" y2="273.437" gradientTransform="matrix(-0.2697 0 0 1 0 0)">
								<stop  offset="0" style="stop-color:#FFE285;stop-opacity:0.1"/>
								<stop  offset="1" style="stop-color:#FFE285"/>
							</linearGradient>
							<path class="st52" d="M777.3,313.5c1.1-0.3,2.4-0.6,4-0.9v-4.1c-1.8,0.1-3.5,0.6-5.2,1.3l-1.7-3c1.8-0.8,4.1-1.3,6.9-1.5
								v-2.6h3.4v2.7c2.6,0.2,4.6,0.8,5.9,1.7c1.4,1,2.1,2.1,2.1,3.4c0,1.1-0.4,1.9-1.1,2.6c-0.7,0.7-1.7,1.1-2.8,1.5
								c-1.1,0.3-2.5,0.6-4.1,0.9v4c1.2-0.1,2.4-0.3,3.6-0.6c1.2-0.3,2.2-0.7,3-1.1l1.9,2.9c-0.9,0.5-2.1,0.9-3.7,1.3
								c-1.5,0.4-3.1,0.6-4.8,0.6v2.6h-3.4v-2.7c-2.6-0.2-4.5-0.8-5.9-1.7c-1.4-0.9-2-2.1-2-3.4c0-1.1,0.4-1.9,1.1-2.6
								C775.3,314.3,776.2,313.8,777.3,313.5z M784.7,312c0.8-0.2,1.4-0.4,1.9-0.7c0.4-0.3,0.6-0.6,0.6-1c0-0.4-0.2-0.8-0.6-1.1
								c-0.4-0.3-1-0.5-1.9-0.7V312z M779.5,318.9c0.4,0.3,1,0.5,1.8,0.6v-3.3c-0.8,0.2-1.4,0.4-1.8,0.7c-0.4,0.3-0.6,0.6-0.6,1
								C778.9,318.2,779.1,318.6,779.5,318.9z"/>
						</g>
					</g>
				</g>
				<path class="st53" d="M537.1,511.7c0,0,66.8-4.5,73.6,6c6.8,10.5-76.6,24.9-89.4,27.4c-12.7,2.6-86,31.9-86,31.9
					s9.9,49.9,12,59.3c2.1,9.4,6.4,47.1-4.2,65.7c-10.6,18.6-35.6,26.9-39.3,22.3c-3.7-4.6,2.3-113.6,0-117.6
					c-2.3-4-12.9-41-12.9-41L537.1,511.7z"/>
				<g>
					<path class="st54" d="M305.7,702c0,0-4.4,17.9-17.8,15.4c-13.4-2.5-66.2-24.5-67.8-27.6c-1.7-3.1,11.6-6.3,18-4.1
						c6.4,2.2,32.9,8.8,35.3,9.3C275.8,695.5,305.7,702,305.7,702z"/>
					<g>
						<path class="st54" d="M423.4,654.6c0,0,15.8,3.1,10.5,17.5c-5.3,14.4-43.7,41.5-50.8,39.5c-7.1-2,6.6-40.7,16.4-45.6
							C409.3,661.1,423.4,654.6,423.4,654.6z"/>
						<path class="st55" d="M363.7,484.7c0,0-88.6,40.8-72.1,65.9c16.5,25.1,110.8,127,110.8,127s22-17.3,19.5-23.8
							c-2.5-6.4-60.8-108.1-50.6-114.1c10.3-6,89.2-42.4,89.2-42.4S394.1,468.6,363.7,484.7z"/>
						<path class="st56" d="M300.5,551.5c2.8-13.9,14.7-25.8,19.1-39.4c0.3-1,0.5-2,0.7-3c20.4-13.7,43.4-24.3,43.4-24.3
							c30.3-16.1,96.7,12.6,96.7,12.6s-78.9,36.4-89.2,42.4c-10.3,6,48,107.6,50.6,114.1c0.6,1.5-0.2,3.5-1.6,5.8
							c-11.2-7.8-42.6-60.3-72.8-61.9c-0.1,0,4.5,3.2,4.4,3.2c-21.5-15.5-41.2-30.7-52.4-41.5C299.7,556.8,300,554.1,300.5,551.5z"
							/>
					</g>
					<path class="st55" d="M508.7,532.8c0,0-28.3,26-124.5,41.5c-43.6,50-78.5,127.7-78.5,127.7l-32.2-7c0,0,22.9-119.9,51.3-144.2
						c16.1-13.8,90.2-58.3,117.4-63.5C469.4,482.1,499,513.6,508.7,532.8z"/>
					<g>
						<path class="st57" d="M512.4,339.3c0,0,6.9,28.5,8.9,33.6c1.9,5.1-22.1,18.8-35.3,16.1c-13.1-2.7-18.4-14.5-18.4-14.5
							l2.8-25.4C470.4,349,508.7,342.4,512.4,339.3z"/>
						<path class="st58" d="M512.4,339.3c0,0,6.9,28.5,8.9,33.6c1.9,5.1-22.1,18.8-35.3,16.1c-13.1-2.7-18.4-14.5-18.4-14.5
							l2.8-25.4C470.4,349,508.7,342.4,512.4,339.3z"/>
					</g>
					<path class="st59" d="M525,358.5l-43.1,33.8l-12.9-31.3c0,0-66.1,13.3-73.9,19.6c-7.9,6.3,41.6,108.1,47.2,109.7
						C447.9,492,627.8,372.5,525,358.5z"/>
					<path class="st55" d="M300.7,458.4c2.4-1.7,86.4-71.5,94.3-77.7c7.9-6.3,73.9-19.6,73.9-19.6L451,475.1l74-116.6
						c102.8,14,46.9,96.9,34.5,103.3c-8.7,4.5-24.7,45.1-33.6,69.2c-0.6,0.6-1.1,1.2-1.6,1.8c-0.6,0.8-1.3,1.5-2,2.3
						c-0.3,0.2-0.6,0.5-1.1,0.9c-1.3,0.9-2.6,1.8-3.9,2.7c-0.2,0-2.4,1.2-3.5,1.8c-0.2,0-0.4,0.1-0.6,0.1c-1.1,0.2-2.1,0.4-3.2,0.6
						c-19.7-15.4-63.4-49.5-67.8-50.8c-5.6-1.6-70.2,8.4-70.2,8.4s-0.4-14,10-24.1c1.4-1.4,13.7-19.4,6.8-20.7
						c-9-1.8-31.4,21.8-47.4,23.1C317.2,478.9,299.6,459.2,300.7,458.4z"/>
					<path class="st56" d="M442.2,490.4c-1.3-0.4-6.9,0-14.7,0.9c0.2-18.7-33.9-15.3-36.1-31.9c-0.3-2-6.3-12-6.5-9.7
						c-0.3-1.6-0.7-3.2-1.2-4.7c-2.1-7.7-9.5-12.2-18.4-13.9c0.4-0.8,0.8-1.7,1.1-2.6c7.8-2.1,15.1-5,21.6-9.3
						c4.7-3.1,8.7-6.6,12.3-10.5c2.2,13.7,5,27.3,12.6,40.4c6.1,10.4,19.6,17.6,36,14.5c-1.7,10.2-2.8,18.2-3,22
						c58,58.5,68.7,21.2,73.1,8.5c-32.3-1.9-69.2-16-69.2-16l11.6-17.2c18.1-0.1,36-10.6,28.4-26.1c-1.6-3.3-2.9-6.7-3.9-10.1
						l39-66.1c9.6,1.3,22.8,6,29.7,8.4c-1.2,3.1-10.9,9.1-14.5,26c-7.9,0.3-17.1,0.7-21.5,0.2c1.6,4.8,5.6,10.9,5.1,15.4
						c-9,9.6-18.6,15.2-23.5,20.4c3.4,5.2,9.4,9.6,15.5,11.2c3.8,1,7.8-7.9,16-25.4c33.2,21.8,36.9,42.3,27.6,47.1
						c-8.7,4.5-24.7,45.1-33.6,69.2c-0.6,0.6-1.1,1.2-1.6,1.8c-0.6,0.8-1.3,1.5-2,2.3c-0.3,0.2-0.6,0.5-1.1,0.9
						c-1.3,0.9-2.6,1.8-3.9,2.7c-0.2,0-2.4,1.2-3.5,1.8c-0.2,0-0.4,0.1-0.6,0.1c-1.1,0.2-2.1,0.4-3.2,0.6
						C490.4,525.7,446.6,491.6,442.2,490.4z"/>
					<path class="st57" d="M425.3,299.5c0,0,12.2,32.9,18.1,42.1c15.4,24,29.1,18.2,37.6,17.6c8.6-0.7,29.5-12.5,33.2-17.7
						c6.3-8.8,13.8-27.1,7.2-37C514.8,294.6,451.3,267.7,425.3,299.5z"/>
					<path class="st60" d="M525,358.5c0,0-78.5,108.9-77.6,124c0,0,66.6-76.9,71.3-78.5l-3.9-14.3l21.2,0.4c0,0,13.4-21,18.7-23.3
						C560,364.5,529.6,358.5,525,358.5z"/>
					<path class="st60" d="M468.9,361.1c0,0-2,90.9-21.7,116.9c0,0-2.2-75-1.8-80.7l11.9-5.4l-12.3-1.4c0,0-4.8-14.2-5.6-24
						C449.4,363.1,463.4,364.3,468.9,361.1z"/>
					<polygon class="st61" points="525,358.5 516.1,354 488.4,384.7 500.8,398.1 					"/>
					<polygon class="st61" points="488.4,384.7 469,364 466.9,395.6 					"/>
					<polygon class="st62" points="496.2,393.1 488.8,399.8 477.8,398.3 474.4,391.8 488.4,384.7 					"/>
					<path class="st55" d="M572.9,377c0,0,26.8,38.3,6.9,72.1c-14,23.7-37.5,39.5-81.5,37.2c-43.2-2.3-94.3-26.8-94.3-26.8
						s-0.3-15.3,8.4-17.7c0,0,44.1,23.4,85.3,17.4c31.6-4.6,34.3-37.5,34.2-43.2C531.8,410.3,572.9,377,572.9,377z"/>
					<path class="st57" d="M414.9,443.1c0,0-14.6-14.6-20.5-16.8c-5.9-2.2-45.3,2.8-45.3,2.8s-6,16,5.1,14.7
						c11.2-1.3,28.4,8,30.1,8.4c1.6,0.4,20.9,5.1,26.2,5C415.9,457.1,414.9,443.1,414.9,443.1z"/>
					<g>
						<polygon class="st63" points="332.5,421.9 370.9,495.8 368.4,498.1 301.3,502.3 249.9,434.3 252.9,432.7 						"/>
						<polygon class="st64" points="330,423.8 368.4,498.1 297,505.9 249.9,434.3 						"/>
						<path class="st65" d="M292.5,454.2c0.4,2.9,4.4,5.1,9.1,4.8c4.7-0.3,8.2-2.9,7.8-5.8c-0.4-2.9-4.4-5.1-9.1-4.8
							C295.6,448.6,292.1,451.2,292.5,454.2z"/>
					</g>
					<path class="st57" d="M272,466.6c0,0,3.3,9.9,9.1,10.2c10.4,0.6,24.7-5.4,28.8-0.3c4.1,5.1,9.7,4,6.7,12.2
						c-3,8.2-3.1,12.2-14.9,14.6c-11.9,2.4-28.7,3.2-32.8-3.6C264.7,492.9,256.2,471.4,272,466.6z"/>
					<path class="st66" d="M505.2,321.4c0,0-6.4-4-7.4-17.3c-1-13.4-14.4-15.7-30.4-8.6c-16,7.2-36.3,13.4-49.1,7
						c-12.8-6.4-16.8-26.6,7.8-29.2c24.6-2.6,43.7,3.8,58.4-0.7c14.7-4.5,36.5-3.2,42.5,14.2c6,17.4,5.4,38.9-10.8,52.1
						c0,0,0.6-6.9,0.5-10C525.5,316.8,513.7,311,505.2,321.4z"/>
					<path class="st62" d="M488.8,399.8c-0.4,4.9-2.4,38.4,38.4,46.2c27.7,5.3,68.4,30.7,69,31.8c0.6,1.1,0.6,28.4,0.6,28.4
						l-32.1-5.7c-3.8-4.5-42.3-32.9-66.9-41.3c-24.6-8.4-19.9-60.9-19.9-60.9L488.8,399.8z"/>
				</g>
			</g>
		</g>
	</g>
</g>
<g id="Layer_3">
</g>
<g id="social">
</g>
</svg>
