<?xml version="1.0" encoding="utf-8"?>
<!-- Generator: Adobe Illustrator 24.0.2, SVG Export Plug-In . SVG Version: 6.00 Build 0)  -->
<svg version="1.1" id="Layer_1" xmlns="http://www.w3.org/2000/svg" xmlns:xlink="http://www.w3.org/1999/xlink" x="0px" y="0px"
	 viewBox="0 0 1900 1080" style="enable-background:new 0 0 1900 1080;" xml:space="preserve">
<style type="text/css">
	.st0{fill:url(#SVGID_1_);}
	.st1{fill:#0D5691;}
	.st2{fill:#EBECF0;}
	.st3{fill:#D7D9E0;}
	.st4{fill:#E2E3E9;}
	.st5{fill:#EB6556;}
	.st6{fill:#54BEDE;}
	.st7{fill:#F7A307;}
	.st8{fill:#E95848;}
	.st9{fill:#3471A3;}
	.st10{fill:#C8CAD4;}
	.st11{fill:none;}
	.st12{fill:#FDD247;}
	.st13{fill:#FDE6BC;}
	.st14{fill:#FAB08B;}
	.st15{fill:#25679C;}
	.st16{fill:#222B54;}
	.st17{fill:#E74A38;}
	.st18{fill:#FDD963;}
	.st19{fill:#FEE491;}
	.st20{fill:#FBBFA1;}
	.st21{fill:#434B6E;}
	.st22{fill:#FEE184;}
	.st23{fill:#FDD44E;}
	.st24{fill:#F8AD23;}
	.st25{fill:#8E93A8;}
	.st26{fill:#B6B9C7;}
	.st27{fill:#316FA2;}
	.st28{fill:#626886;}
	.st29{fill:#384065;}
	.st30{fill:#FBC5A9;}
	.st31{fill:#FFFFFF;}
	.st32{fill:#F8AF28;}
	.st33{fill:#6EC8E3;}
	.st34{fill:#454D6F;}
	.st35{fill:#EC7264;}
	.st36{fill:none;stroke:#535A7A;stroke-width:1.3824;stroke-linecap:round;stroke-miterlimit:10;}
</style>
<g id="Layer_2_1_">
	
		<linearGradient id="SVGID_1_" gradientUnits="userSpaceOnUse" x1="-176.5573" y1="111.7" x2="2321.3821" y2="111.7" gradientTransform="matrix(1 0 0 1 0 580)">
		<stop  offset="0" style="stop-color:#553D93"/>
		<stop  offset="1" style="stop-color:#2B1E6E"/>
	</linearGradient>
	<path class="st0" d="M31,848.4c432.5-119.7,565.1-117.1,581-190c6.4-29.3-4.5-53.9,10.2-108.3C652.5,437.7,745.5,370.6,773.3,352
		c141.1-94.1,235.5-62.2,299.1-142.9c59.7-75.7,30.2-184.7-37.6-243.1c-35.4-30.5-53.5-24.4-53.8-32.7
		c-1.2-35.3,635.1-283.7,1026-4.1c401.4,287.1,400.9,1035.9,98,1382.8c-571.2,654.3-2293-35.5-2281.5-310.5
		C-173.7,935.3-69.6,884,31,848.4z"/>
</g>
<g id="Layer_1_1_">
	<g>
		<g>
			<g>
				<path class="st1" d="M833.7,794.9H356.2v22.6v101.1v22.6h477.5c31.8,0,57.6-25.8,57.6-57.6v-31.2
					C891.2,820.7,865.5,794.9,833.7,794.9z"/>
				<path class="st2" d="M650.8,931.6H186.2V807.9h464.6c15.9,0,28.8,12.9,28.8,28.8v66.1C679.6,918.7,666.7,931.6,650.8,931.6z"/>
				<path class="st3" d="M650.8,807.9H186.2v34h493.4v-5.2C679.6,820.8,666.7,807.9,650.8,807.9z"/>
				<path class="st1" d="M642.5,794.9H165v22.6h477.5c19.3,0,34.9,15.7,34.9,34.9v31.2c0,19.3-15.7,34.9-34.9,34.9H165v22.6h477.5
					c31.8,0,57.6-25.8,57.6-57.6v-31.2C700,820.7,674.3,794.9,642.5,794.9z"/>
				<rect x="216.9" y="859.8" class="st2" width="212.7" height="2.1"/>
				<rect x="330.8" y="881.1" class="st2" width="212.7" height="2.1"/>
				<rect x="210.1" y="903.2" class="st2" width="212.7" height="2.1"/>
				<rect x="496.5" y="859.8" class="st2" width="143.9" height="2.1"/>
			</g>
			<path class="st4" d="M642.5,794.9H165v22.6h477.5c19.3,0,34.9,15.7,34.9,34.9v31.2c0,19.3-15.7,34.9-34.9,34.9H165v22.6h477.5
				c31.8,0,57.6-25.8,57.6-57.6v-31.2C700,820.7,674.3,794.9,642.5,794.9z"/>
		</g>
		<path class="st5" d="M301.3,846.9h56.8v91.5l-26.2-20.7l-30.5,21.6C301.3,939.2,301.7,847.3,301.3,846.9z"/>
	</g>
	<g>
		<g>
			<path class="st6" d="M641.2,565.2H281v17.1v76.3v17.1h360.2c24,0,43.4-19.4,43.4-43.4v-23.5C684.7,584.6,665.2,565.2,641.2,565.2
				z"/>
			<path class="st2" d="M503.3,668.3H152.8V575h350.5c12,0,21.7,9.7,21.7,21.7v49.8C525,658.6,515.3,668.3,503.3,668.3z"/>
			<path class="st3" d="M503.3,575H152.8v25.7H525v-4C525,584.8,515.3,575,503.3,575z"/>
			<path class="st6" d="M497,565.2H136.8v17.1H497c14.5,0,26.4,11.8,26.4,26.4v23.5c0,14.5-11.8,26.4-26.4,26.4H136.8v17.1H497
				c24,0,43.4-19.4,43.4-43.4v-23.5C540.4,584.6,521,565.2,497,565.2z"/>
			<rect x="175.9" y="614.2" class="st2" width="160.4" height="1.6"/>
			<rect x="261.9" y="630.2" class="st2" width="160.4" height="1.6"/>
			<rect x="170.8" y="646.9" class="st2" width="160.4" height="1.6"/>
			<rect x="386.9" y="614.2" class="st2" width="108.6" height="1.6"/>
		</g>
		<path class="st4" d="M497,565.2H136.8v17.1H497c14.5,0,26.4,11.8,26.4,26.4v23.5c0,14.5-11.8,26.4-26.4,26.4H136.8v17.1H497
			c24,0,43.4-19.4,43.4-43.4v-23.5C540.4,584.6,521,565.2,497,565.2z"/>
	</g>
	<g>
		<g>
			<g>
				<path class="st7" d="M665.4,449.5H288.6v17.8v79.8V565h376.9c25.1,0,45.4-20.3,45.4-45.4V495
					C710.9,469.8,690.5,449.5,665.4,449.5z"/>
				<path class="st2" d="M521.2,557.4H226.4v-97.6h294.7c12.5,0,22.7,10.2,22.7,22.7v52.1C543.9,547.2,533.7,557.4,521.2,557.4z"/>
				<path class="st3" d="M521.2,459.8H226.4v26.9h317.5v-4.1C543.9,470,533.7,459.8,521.2,459.8z"/>
				<path class="st7" d="M514.6,449.5h-305v17.8h304.9c15.2,0,27.6,12.4,27.6,27.6v24.6c0,15.2-12.4,27.6-27.6,27.6H209.6V565h304.9
					c25.1,0,45.4-20.3,45.4-45.4V495C560,469.8,539.6,449.5,514.6,449.5z"/>
				<rect x="250.6" y="500.7" class="st2" width="95.9" height="1.6"/>
				<rect x="268.6" y="517.5" class="st2" width="167.9" height="1.6"/>
				<rect x="245.2" y="535" class="st2" width="95.9" height="1.6"/>
				<rect x="399.3" y="500.7" class="st2" width="113.6" height="1.6"/>
			</g>
			<path class="st4" d="M514.6,449.5h-305v17.8h304.9c15.2,0,27.6,12.4,27.6,27.6v24.6c0,15.2-12.4,27.6-27.6,27.6H209.6V565h304.9
				c25.1,0,45.4-20.3,45.4-45.4V495C560,469.8,539.6,449.5,514.6,449.5z"/>
		</g>
		<path class="st8" d="M425.6,499.3h58.9V595l-27.2-21.7l-31.7,22.5C425.6,595.8,426,499.7,425.6,499.3z"/>
	</g>
	<g>
		<g>
			<polygon class="st9" points="335.4,357.1 335.7,367.6 541.3,424.6 737.5,367.3 737.5,357.1 541.3,296.5 			"/>
			<polygon class="st1" points="541.3,424.6 737.5,367.3 737.5,357.1 541.3,296.5 			"/>
			<polygon class="st1" points="335.4,367.4 541.3,434.9 737.5,367.4 541.3,306.7 			"/>
			<polygon class="st10" points="335.4,367.4 541.3,434.9 737.5,367.4 541.3,306.7 			"/>
			<path class="st1" d="M627.3,378.7c0,0-3.4-6.2-28.9-16.4c-35.6-14.3-84.3-14.3-120.1,0c-25.5,10.2-28.9,16.4-28.9,16.4
				s-6.2,23.2-5.7,43c0.6,19.8,1.7,27.8,1.7,27.8s28.4,1.1,56.1,10.2c18.2,5.9,34.9,16.5,36.7,17.7c0,0.1,0,0.1,0,0.1s0.1,0,0.1-0.1
				l0.1,0.1c0,0,0,0,0-0.1c1.8-1.1,18.5-11.7,36.7-17.7c27.8-9.1,56.1-10.2,56.1-10.2s1.1-7.9,1.7-27.8
				C633.7,395.6,627.3,378.7,627.3,378.7z"/>
		</g>
		<g>
			<path class="st11" d="M400.7,330.5c-5.4,0.4-8.4,5.1-10,10.4l19.4-5.7C408,332.1,404.5,330.2,400.7,330.5z"/>
			<path class="st12" d="M400.4,326.4c-7,0.5-12,6.1-14.3,15.8c-0.2,1-0.4,2-0.6,3.1c-2,12.2-2,24.6-1.9,35.6l0,0
				c0,8.6,0.4,16.5,0.9,24.1l4.1-0.3c-0.6-7.2-0.9-14.6-0.9-22.7c0-0.4,0-0.8,0-1.2c-0.1-10.8-0.1-23.1,1.8-34.9
				c0.3-1.7,0.7-3.4,1.2-5.1c1.6-5.2,4.5-10,10-10.4c3.8-0.3,7.3,1.6,9.4,4.7l4.1-1.2C411.5,329.1,406.1,326,400.4,326.4z"/>
		</g>
		<g>
			<path class="st12" d="M401,446.7c-2.1-20-8.9-34.5-8.9-34.5l-4.2-0.2v-0.2l-1.5,0.1l-1.5-0.1v0.2l-4.2,0.2c0,0-6.8,14.5-8.9,34.5
				s-0.9,34.9-0.9,34.9h14h3h14C401.9,481.6,403.1,466.7,401,446.7z"/>
			<path class="st12" d="M398.3,409.2c0,5.7-5.3,10.3-11.9,10.3s-11.9-4.6-11.9-10.3c0-5.7,5.3-10.3,11.9-10.3
				C392.9,398.9,398.3,403.5,398.3,409.2z"/>
			<path class="st13" d="M390.2,399.4c1.5,1.7,2.4,3.8,2.4,6.2c0,5.7-5.3,10.3-11.9,10.3c-1.3,0-2.6-0.2-3.8-0.5
				c2.2,2.5,5.6,4.2,9.5,4.2c6.6,0,11.9-4.6,11.9-10.3C398.3,404.7,394.9,400.8,390.2,399.4z"/>
			<path class="st13" d="M393.6,415.9c-0.3-0.2-0.6-0.3-0.9-0.5c4,14.6,6,29.7,5.9,44.9c0,5.4,0.9,12.9-2.8,14.1
				c-1,0.3-3.2-2.5-3.4-5.1c-0.2-4.5-0.4-9.1-0.6-13.6c0,4.8-0.6,9.6-1.5,14.4c-0.3,1.3-0.6,2.7-1.4,3.8c-0.8,1.1-2.1,2-3.4,1.8
				s-2.3-1.2-2.9-2.4c-0.5-1.2-0.6-2.5-0.7-3.8c-0.5-7.1-0.9-14.2-1.4-21.3c-0.2,7.3-0.8,14.6-1.6,21.9c-0.3,3-1.1,6.1-4.2,7.3
				c-1.6,0.6-2.8,0.3-4.1-0.2c0.1,2.9,0.2,4.5,0.2,4.5h14h3h14c0,0,1.3-14.9-0.9-34.9C399.5,432.7,395.7,421.4,393.6,415.9z"/>
		</g>
	</g>
	<g>
		<g>
			<path class="st14" d="M214.8,539c-0.4,5-1.2,9.9-2.5,14.7c3.6,0.4,7.2,0.4,10.8-0.1c0.5-0.1,1-0.2,1.4-0.4
				c0.6-0.4,0.9-1.2,1.1-1.9c1.2-3.8,1.9-7.8,2.2-11.8C223.5,540.1,219,540,214.8,539"/>
		</g>
		<g>
			<path class="st14" d="M265.4,538.4c1.5,3.8,2.5,7.7,3.2,11.7c3.8-1.3,7.7-2.6,11.5-3.8c0.1,0,0.3-0.1,0.4-0.2
				c0.1-0.2,0.1-0.5,0-0.7c-1.1-3.6-2.4-7.2-3.7-10.7c0-0.1-0.1-0.2-0.2-0.3s-0.2,0-0.4,0C272.5,535.2,268.8,536.6,265.4,538.4"/>
		</g>
		<path class="st1" d="M269,420.1c-0.9,0.3-48.1,29.8-51,40.4c-3,10.6-8.6,81.7-8.6,81.7s6.8,2.7,12.4,2.7c5.6,0,7.7,0,7.7,0
			s8.6-48.1,11.2-59c2.7-10.9,6.8-16.5,10.3-20.4c3.5-3.8,50.8-34.5,50.8-34.5l4.4-12.7L269,420.1z"/>
		<path class="st15" d="M285.8,418.6c0,0-25.4,16.7-37.2,31.7s-8.8,15.2-6.8,24.6c2.1,9.4,21.5,68.8,21.5,68.8s5.6,0.3,10.6-1.2
			s6.2-3,6.2-3s-3.8-32.8-5.3-45.1c-1.5-12.4-4.1-25.4-4.1-25.4s29.6-8.4,41.7-19s2.6-31.2,2.6-31.2L285.8,418.6z"/>
		<path class="st16" d="M280.5,543.6c0,0,3.2,6.3,2.9,9c-0.3,2.7-14.1,10.8-18.5,11.7s-14.2,1.8-15.3-0.8c-1.1-2.5,8.7-7.4,11.5-10
			c2.8-2.5,6.4-6.2,6.4-6.2s2.9,1.4,7.2,0.4C279.2,546.8,280.5,543.6,280.5,543.6z"/>
		<path class="st16" d="M212,549.5c0,0,1.3,2.1,5.7,2.3c6,0.3,8.8-1.7,8.8-1.7s0.3,8.3-1.8,10s-14.4,5.3-28.8,4.9
			c-9.2-0.3-7.9-2.4-6-3.9C191.7,559.6,212,549.5,212,549.5z"/>
		<path class="st17" d="M321.5,351.9c0,0-6.6-8.9-14-12.5s-13.4-5.7-13.4-5.7s-14.9,3.8-19.1,5.7c-4.3,1.9-16.4,8.3-19.4,11.7
			c-3,3.4-5.3,7.9-3.4,19.8c1.9,11.9,9.8,31,11.5,37.6s1.5,13,1.5,13s14.9-0.2,28.7,0.2c13.8,0.4,25.5,3.6,25.5,3.6
			s-2.1-31.7-0.6-42.3C320.2,372.3,321.5,351.9,321.5,351.9z"/>
		<polygon class="st18" points="249.2,361.7 256.6,417.8 296.8,403.1 289.2,347.6 		"/>
		<g>
			<path class="st14" d="M269.1,286.8c-3.8,3-6,7.8-6.7,12.6c-0.7,4.8,0,9.7,1,14.5c0.9,4.1,2,8.2,4.5,11.6
				c2.4,3.4,6.4,5.9,10.5,5.7c3.6-0.2,6.9-2.4,9.4-5c5.9-6.3,8.3-15.3,7.5-23.8c-0.2-1.6-0.4-3.2-1-4.7c-1.2-3.4-3.8-6.2-6.9-8.1
				s-6.6-2.9-10.2-3.3c-3.3-0.4-6.8-0.2-9.7,1.5"/>
		</g>
		<g>
			<path class="st14" d="M277.6,328.3c0.6,2.3,1.2,4.7,1.9,7c0.1,0.4,0.2,0.8,0.1,1.2c-0.1,0.5-0.4,0.9-0.8,1.3
				c-0.7,0.8-1.3,1.7-1.8,2.6c-0.9,1.7-1.4,4.1,0.1,5.3c0.5,0.4,1.1,0.6,1.7,0.7c3.5,0.8,7.2-0.2,10.2-2c3-1.9,5.5-4.6,7.5-7.5
				c0.2-0.3,0.4-0.7,0.5-1c0.1-0.5-0.2-0.9-0.4-1.4c-2.4-4.9-4.5-10.1-6-15.3c-4.7,2.3-8.9,5.5-12.4,9.4"/>
		</g>
		<g>
			<path class="st16" d="M260.4,291.7c-0.2,1-0.1,2,0.4,2.8c0.3,0.5,0.8,1,1.3,1.3c2.4,1.6,5.4,1.9,8.3,1.9
				c6.4,0.1,12.8-0.6,19.1-1.9c-0.9,8,2.1,14.5,4.6,20.1c3.4-5.3,7.7-8.9,8.1-15.2c0.1-1.5,0.1-3.1-0.7-4.4c-0.9-1.5-1.9-1.9-3.3-2
				c0.6,0,0.5-3.5,0.4-3.9c-0.9-5.1-5.9-5.8-9.4-2.5c0.1-4-3.1-7.6-7-8.7s-8-0.1-11.5,1.8C266.7,283.3,261.2,287,260.4,291.7z"/>
		</g>
		<g>
			<path class="st14" d="M296.5,307.9c0-0.1,0-0.2-0.1-0.3c-0.3-1.4-1.4-2.5-2.9-2.4c-1.1,0.1-2,0.7-2.8,1.4
				c-0.8,0.7-1.5,1.6-2.3,2.3l0.7,1.4c0.4,1,1,2,2,2.2c0.5,0.1,0.9,0,1.4-0.1C294.6,312,296.7,310.2,296.5,307.9z"/>
		</g>
		<g>
			<path class="st14" d="M282.2,398.8c-7.5-0.6-15-1.5-22.4-2.8c-1.9-0.3-4-0.9-4.7-2.7c-0.5-1.4,0.3-3,1.5-3.9s2.7-1.2,4.2-1.4
				c3.3-0.5,6.7-0.5,10-0.2c-1-1-1.9-2.1-2.9-3.1c-0.3-0.3-0.6-0.6-0.6-1c0-0.5,0.5-0.9,0.9-1c0.5-0.1,1,0.1,1.4,0.2
				c4.1,1.6,6.8,5.7,10.9,7.3c0.7,0.3,1.4,0.5,1.7,1.1c0.2,0.4,0.1,0.8,0.1,1.2c-0.2,2.3-0.4,4.5-0.5,6.8"/>
		</g>
		<path class="st5" d="M316.2,348.1c-9.8-1.1-9.4,14.5-9.6,22.3c-0.2,7.9,4,20.8,3.8,24.7c-1.3,0-31.4-6.8-31.4-6.8
			s-2.6,12.5-1.5,13.4s35.9,16.8,42,13.8c6.2-3,8.9-15.1,10-22.1C331.8,378.3,326,349.1,316.2,348.1z"/>
		<polygon class="st19" points="249.2,361.7 226,347.6 234.7,406.1 256.6,417.8 		"/>
		<g>
			<path class="st14" d="M234.3,391.3c-0.7,0.4-1.5,0.7-2.4,0.8c-0.2,0-0.3,0-0.5,0c-0.2-0.1-0.3-0.2-0.4-0.4
				c-1.5-2.3-2.4-5.1-2.5-7.9c-0.1-2.2,0.4-4.5,2-6c0.9,0.9,0.1,2.3,0.3,3.6c0,0.1,0,0.2,0.1,0.3c0.1,0.1,0.2,0.1,0.4,0.1
				c1,0,1.9-0.7,2.7-1.3c0.9-0.6,2-1,2.9-0.3c0.2,0.2,0.4,0.5,0.6,0.7c1.1,1.9,1.6,4.1,1.2,6.3c-0.1,0.8-0.4,1.5-0.9,2.1
				c-0.3,0.3-0.8,0.6-1.2,0.8c-1,0.6-2.1,1.1-3.1,1.7"/>
		</g>
	</g>
	<g>
		<g>
			<g>
				<g>
					<path class="st17" d="M251.3,675.2h393.5v18.6v83.3v18.6H251.3c-26.2,0-47.4-21.2-47.4-47.4v-25.7
						C203.9,696.5,225.1,675.2,251.3,675.2z"/>
					<path class="st2" d="M402,787.9h382.9V686H402c-13.1,0-23.7,10.6-23.7,23.7v54.5C378.3,777.2,388.9,787.9,402,787.9z"/>
					<path class="st3" d="M402,686h382.9v28H378.3v-4.3C378.3,696.6,388.9,686,402,686z"/>
					<path class="st17" d="M408.9,675.2h393.5v18.6H408.9c-15.9,0-28.8,12.9-28.8,28.8v25.7c0,15.9,12.9,28.8,28.8,28.8h393.5v18.6
						H408.9c-26.2,0-47.4-21.2-47.4-47.4v-25.7C361.4,696.5,382.7,675.2,408.9,675.2z"/>
					<rect x="584.3" y="728.7" class="st2" width="175.3" height="1.7"/>
					<rect x="490.5" y="746.3" class="st2" width="175.3" height="1.7"/>
					<rect x="590" y="764.4" class="st2" width="175.3" height="1.7"/>
					<rect x="410.6" y="728.7" class="st2" width="118.6" height="1.7"/>
				</g>
			</g>
			<path class="st4" d="M408.9,675.2h393.5v18.6H408.9c-15.9,0-28.8,12.9-28.8,28.8v25.7c0,15.9,12.9,28.8,28.8,28.8h393.5v18.6
				H408.9c-26.2,0-47.4-21.2-47.4-47.4v-25.7C361.4,696.5,382.7,675.2,408.9,675.2z"/>
		</g>
		<path class="st6" d="M704,729h51.6v91.5l-23.9-20.7L704,821.3C704,821.3,704.3,729.4,704,729z"/>
	</g>
	<g>
		<g>
			<path class="st20" d="M793.4,626c4.1,0.2,7.7,2.6,11.7,3.7c2.4,0.6,5,0.8,7.3,1.9c0.7,0.4,1.5,1.1,1.1,1.9
				c-0.1,0.3-0.4,0.4-0.6,0.6c-1.6,1.1-3.6,1.4-5.6,1.4c-1.9-0.1-3.8-0.5-5.7-1c-2.3-0.5-4.5-1.1-6.6-2.1c-0.7-0.3-1.3-0.7-1.7-1.2
				c-0.6-0.8-0.6-1.8-0.4-2.8c0.2-0.9,0.8-1.8,1.3-2.6"/>
		</g>
		<g>
			<path class="st20" d="M817,740.1c0,2.2,0.1,4.5,0.4,6.7c0.1,1,0.3,2.1,0.8,3s1.3,1.6,2.1,2.3c3.4,3,7.1,5.7,11,8
				c1.3,0.8,2.7,1.6,4.2,2.1c0.2,0.1,0.5,0.2,0.7,0.1c0.5-0.2,0.4-1,0.2-1.5c-2.8-6.9-8.6-12.9-8.9-20.4c0-0.6,0-1.3-0.4-1.8
				c-0.5-0.7-1.6-0.8-2.6-0.7c-2.5,0.1-5.2,0.3-7.3,1.7"/>
		</g>
		<g>
			<path class="st20" d="M863.2,736.9c2,5,4.4,9.8,7.4,14.2c0.3,0.4,0.6,0.8,1,1s0.9,0.2,1.3,0.2c4.5-0.3,8.9-1.3,13-3
				c2.6-1.1,5.3-2.6,6.8-5c0.4-0.7,0.7-1.7,0-2.2c-0.2-0.2-0.5-0.2-0.8-0.3c-2.6-0.3-5.2,0.1-7.9,0c-2.6-0.1-5.4-0.7-7.2-2.7
				c-1.7-1.8-2.2-4.5-3.6-6.6c-3.5,1.4-6.9,2.8-10.4,4.3"/>
		</g>
		<path class="st16" d="M745.1,633.5c0,0,85.5,0.4,95.7,7.7c10.2,7.2,37.9,93.2,37.9,93.2l-17.9,7.7c0,0-25.1-52.7-33.6-67.2
			s-34.9-11.9-43.8-12.3s-39.6-0.9-39.6-0.9L745.1,633.5z"/>
		<path class="st21" d="M735.6,636.1c0,0,72.9,0,83.6,5.5c10.6,5.5,13.6,22.5,14,39.6c0.4,17-0.9,62.5-0.9,62.5H817
			c0,0-8.5-45.5-11.1-57s-2.6-14.9-2.6-14.9s-54.4,11.5-71.5,7.2c-17-4.3-25.1-15.7-25.1-29.3s9.4-17.9,9.4-17.9L735.6,636.1z"/>
		<g>
			<path class="st16" d="M753.3,487.5c-4.3-3.1-10.5-2.5-14.8,0.4c-4.3,3-6.9,8-7.9,13.2c-0.6,3.4-0.6,6.9-1.8,10.1
				c-2.2,6.1-7.9,10-12.2,14.9c-4.9,5.7-8,13.3-6.8,20.7c1.3,7.8,6.9,14.2,13.1,19c8.2,6.4,18.1,10.9,28.5,11.5
				c6,0.3,12.2-0.7,17-4.3c4.7-3.6,7.5-10.2,5.4-15.8c-1.3-3.6-4.3-6.3-6-9.8c-2.3-4.6-1.9-10.2-0.5-15.2s3.7-9.7,5.3-14.6
				c1.3-3.9,2-8,2.3-12.1s0-8.5-2.4-11.8c-2.1-2.9-5.5-4.6-9.1-5.3c-3.5-0.7-7.1-0.5-10.7-0.3"/>
		</g>
		<path class="st22" d="M759.6,549.5c0,0,6.8,7.8,7.6,19.7s1,25.4,9.1,38.4c8.2,13,19.9,18.1,21,19s-5.5,4.6-5.5,4.6
			s-11.1-1.2-18-4.6c-6.8-3.4-13.1-2.8-15.3-13s-1.4-53.6-1.4-53.6L759.6,549.5z"/>
		<g>
			<path class="st20" d="M767.8,620.5c10.3,2.1,20.1,6.5,28.6,12.8c0.2,0.1,0.4,0.3,0.4,0.6s-0.3,0.6-0.7,0.7
				c-1.7,0.6-3.6,0.7-5.4,0.8c-3,0.1-5.9,0-8.8-0.7c-3.4-0.7-6.6-2.2-9.8-3.7c-2.1-0.9-4.2-2-5.4-3.9s-1-4.9,1-5.9"/>
		</g>
		<path class="st23" d="M734.5,540.6l4.9,0.2c0,0,12.3,2.3,14.9,5.1c2.6,2.8,7,14,8.7,24.7c1.7,10.6-0.6,51.9-1.3,55.1
			c-0.6,3.2-2.1,8.1-2.1,8.1s-26.6,6-28.5,5.3c-1.9-0.6,4.3-45.5,4.5-60C735.8,564.6,734.5,541.7,734.5,540.6z"/>
		<path class="st24" d="M752.5,543.9c0,0,7.8,9.5,9,32.4c0.8,14.5-3.2,41.3-3.2,45.5c0,4.3-1.1,11.5-1.1,11.5l8.9,0.2
			c0,0,5.1-40.2,4-53.4s-3.6-24.5-7.9-29.3C758.1,545.9,752.5,543.9,752.5,543.9z"/>
		<g>
			<path class="st20" d="M749.5,492c-2.2,4.7-4.4,9.5-5.8,14.5s-1.9,10.4-0.6,15.5c1.3,5.1,4.4,9.8,9.1,12.2
				c4.6,2.4,10.7,2.1,14.7-1.4c2-1.8,3.3-4.1,4.5-6.5c3.5-7.2,5.7-15.5,3.6-23.2c-0.6-2.4-1.7-4.7-3.4-6.4c-1.2-1.2-2.8-2.1-4.3-2.8
				c-5.7-2.6-12.3-3-18.3-1.3"/>
		</g>
		<g>
			<path class="st20" d="M758.4,533.4c-1.1,1.7-5.8,7.7-5.9,9.1c1,1.7,1.5,3.6,2,4.8c0.7,1.9,1.5,3.9,0.9,5.8c-0.6,1.9-3,2.4-4.9,2
				c-0.7-0.2-1.4-0.5-2-1c-4.3-2.8-7.9-6.5-10.8-10.7c-0.3-0.4-0.6-0.9-0.6-1.4s0.2-1.1,0.5-1.5c2.9-5.6,6.7-12.4,6.6-18.7
				c4.7,2.7,10.2,7.5,14.3,11"/>
		</g>
		<g>
			<path class="st16" d="M752,487.6c0.8,3.8,0.8,7.7-0.2,11.4c-0.7,2.6-1.9,5.2-3.7,7.2s-4.3,3.5-7.1,3.7c0.3-2.8,0.6-5.5,0.9-8.3
				c0.1-1.1,0.3-2.2,0.5-3.3c1.1-4.8,4.8-9,9.5-10.6"/>
		</g>
		<g>
			<path class="st16" d="M751.4,487.5c-0.6,2.8,1.9,5.8,3.6,8.1c2.7,3.4,5.7,5.3,9.5,7.5c2.7,1.6,5.6,2.8,7.9,5
				c2.3,2.1,3.9,5.4,2.8,8.4c1.9-7.1,3.7-14.9,0.6-21.5c-2-4.3-6.1-7.6-10.6-8.9c-4.6-1.4-9.4-0.7-13.7,1.3"/>
		</g>
		<g>
			<path class="st20" d="M747.1,509.7c-0.3-0.3-0.7-0.5-1-0.8s-0.7-0.5-1-0.8c-1.8-1.4-4.8-3.2-6.4-0.5c-1.1,1.9-0.1,4.3,1.7,5.3
				c2.2,1.2,5.1,0.9,7.1-0.7"/>
		</g>
		<path class="st24" d="M716.8,546.8c0,0,4-3.8,9.4-5.7c5.3-1.9,10-2.1,10-2.1s7.4,14.5,7.9,31.3s-7.2,82.5-7.2,82.5
			s-14.5,0.4-23-0.6c-8.5-1.1-11.3-1.5-11.3-1.5s6.2-18.7,7.9-30.8s6.6-50.2,6.6-57.6S716.8,546.8,716.8,546.8z"/>
		<path class="st22" d="M771.2,616.7c0,0-2.3,4-2.3,7.9c0,4,0.3,8.2,0.3,8.2s-21.3-0.1-43.7-4.5c-17.3-3.4-17.6-2.8-19.6-11.6
			s1.1-45.9,3.7-57c2.6-11.1,7.4-13.3,9.9-13c2.6,0.3,9.4,4.8,9.6,20.1c0.3,15.3-4.5,44.2-4.5,44.2s19.8,1.7,30.1,2.8
			C765,615,771.2,616.7,771.2,616.7z"/>
		<path class="st1" d="M817.4,746.8c0,0-0.8,1.3-1.4,4.9c-0.6,3.5,0.9,4.7,0.9,4.7s22.7,18.7,26.4,16.4s-2.4-9.4-4.5-11.3
			c-2.1-2-3.5-3.5-3.5-3.5s-5.2-1.4-11.1-5.1C819.4,749.8,817.4,746.8,817.4,746.8z"/>
		<path class="st1" d="M868.3,748.5c0,0,1.8,9.5,7.9,8.8s21.1-8.4,24.1-10.8c3-2.4,4.3-4.1,1.8-5.4c-2.4-1.3-11.3-0.3-11.3-0.3
			s-3.4,3.5-10.4,5.8C874.2,748.8,868.3,748.5,868.3,748.5z"/>
		<g>
			<rect x="769.4" y="634.4" class="st25" width="38.9" height="3.4"/>
			<polygon class="st25" points="806.8,635.4 825.9,600.8 830.5,600.8 810.5,637.8 803.4,637.8 			"/>
			<polygon class="st26" points="830.5,600.8 865.9,602.6 846.6,638.5 809.6,637.8 			"/>
		</g>
	</g>
	<g>
		<g>
			<path class="st16" d="M425.2,669.6c-0.5-4.5,2.4-8.6,4.1-12.8c2.7-6.7,2.7-14.7-1.2-20.8c-7.5-11.7-18.2-16.2-29.7-15.3
				c-11.8,0.9-20.7,12.2-22.8,23.1c-1,5.1-1.2,10.5,0.6,15.4c1.2,3.2,3.2,6,3.7,9.4c0.8,5.1-2.2,9.9-4.5,14.5s-4.1,10.4-1.3,14.7
				c1.9,2.8,5.3,4.2,8.5,5.2c6.1,1.9,12.5,3,18.9,3.4c7.8,0.4,16.2-0.6,22.1-5.7c6-5.2,8.2-14.3,5.3-21.7
				C427.6,675.8,425.5,672.9,425.2,669.6z"/>
		</g>
		<g>
			<path class="st7" d="M409.2,684c0,0,28.4,0,35.4,11.6c7.1,11.6,11.6,31.2,9.6,43.4s-10.2,18.1-18.1,22.1s-15.6,5.1-15.6,5.1
				l1.7-18.1c0,0,10.2-8.1,12.8-11.6c3.7-5.1,1.1-14.9-0.9-19.6c-3.1-7.4-11.9-12.2-11.9-12.2L409.2,684z"/>
			<path class="st7" d="M395.2,684c0,0-28.4,0-35.4,11.6c-7.1,11.6-11.6,31.2-9.6,43.4s10.2,18.1,18.1,22.1s15.6,5.1,15.6,5.1
				l-1.7-18.1c0,0-10.2-8.1-12.8-11.6c-3.7-5.1-1.1-14.9,0.9-19.6c3.1-7.4,11.9-12.2,11.9-12.2L395.2,684z"/>
		</g>
		<g>
			<path class="st14" d="M385.1,635.3c-2,6.3-1.4,13.1-0.4,19.6c0.8,5.1,1.9,10.3,4.7,14.7c2.8,4.4,7.5,7.8,12.7,7.8
				c7.2-0.1,12.6-6.6,15.5-13.1c3.3-7.5,4.6-15.9,3.8-24.1c-0.2-2.4-0.7-4.8-2.4-6.6c-1.4-1.5-3.5-2.2-5.6-2.6
				c-9.7-2.1-20.3-0.2-28.7,5.2"/>
		</g>
		<g>
			<path class="st14" d="M393.7,669.2c0.3,3.5,0.6,6.9,0.2,10.4c-0.4,3.4-1.6,6.9-3.9,9.5c-0.3,0.4-0.7,0.8-0.8,1.2
				c-0.1,0.8,0.6,1.4,1.2,1.8c7.2,4.8,17.6,4,23.9-1.9c0.3-0.3,0.7-0.7,0.8-1.2c0.1-0.8-0.6-1.4-1.1-1.9c-2-2.1-2.5-5.1-2.9-7.9
				c-0.4-3.1-0.7-6.2-0.8-9.3c-4.9,1.1-10,1.5-15,1"/>
		</g>
		<g>
			<path class="st16" d="M380.2,650.6c6.2,4.1,14.7,3.7,21.1,0c6.4-3.6,11-10.1,13.5-17.1c-0.3,8.4,2.6,16.8,7.9,23.4
				c0.5-2.8,0.9-5.5,1.1-8.3c0.2-3,0.3-6-0.3-8.9c-0.6-2.9-2-5.7-4.2-7.7c-3.5-3.1-8.5-3.6-13.2-3.7c-5.1-0.1-10.3,0.1-15,2
				c-1.8,0.7-3.4,1.7-5,2.9c-1.1,0.9-2.2,1.9-2.9,3c-0.8,1.2-1.2,2.5-1.6,3.8c-1,3.4-1.4,6.9-1.2,10.5"/>
		</g>
		<path class="st12" d="M432,707.9c-2.6-6.2-16.6-22.9-16.6-22.9s-0.8,7.4-12.7,8c-0.1,0-0.3,0-0.4,0s-0.3,0-0.4,0
			c-11.9-0.6-12.1-8.3-12.1-8.3s-14.7,17-17.2,23.2c-2.6,6.2,4.7,54.9,4.7,54.9l23.7,1.5v0.2l1.3-0.1l1.3,0.1v-0.2l23.7-1.5
			C427.3,762.8,434.5,714.1,432,707.9z"/>
		<path class="st26" d="M435.4,771.1H369v-35.2c0-3.4,2.8-6.2,6.2-6.2h54c3.4,0,6.2,2.8,6.2,6.2L435.4,771.1L435.4,771.1z"/>
		<path class="st16" d="M366,786.4c0,0-6.3-0.5-7.3,4.3c-0.9,4.8,3.8,6.9,5.4,6.9s4.7-0.2,4.7-0.2s-0.1,2.5-5.2,3.1
			c-5.1,0.5-12.3,1.3-16.7,1.7c-4.4,0.4-11.7-2.3-13.2-7.5s3.1-8.6,8.5-8.2C348.9,786.9,366,786.4,366,786.4z"/>
		<g>
			<g>
				<path class="st14" d="M424.7,782.3c5.7,2.5,12,3.9,18.3,4.1c1.8,0,3.7,0,5.4,0.5c1.8,0.5,3.4,1.6,4,3.4c0.9,2.5-1,5.3-3.5,6.4
					c-2.4,1.1-5.2,0.9-7.9,0.8c-6.5-0.5-13.2-1.1-18.7-4.4c-0.3-0.2-0.6-0.4-0.8-0.7c-0.3-0.5-0.1-1.1,0.1-1.7c1-2.8,2-5.6,3.1-8.5"
					/>
			</g>
			<g>
				<path class="st14" d="M379.7,782.3c-5.7,2.5-12,3.9-18.3,4.1c-1.8,0-3.7,0-5.4,0.5c-1.8,0.5-3.4,1.6-4,3.4
					c-0.9,2.5,1,5.3,3.5,6.4c2.4,1.1,5.2,0.9,7.9,0.8c6.5-0.5,13.2-1.1,18.7-4.4c0.3-0.2,0.6-0.4,0.8-0.7c0.3-0.5,0.1-1.1-0.1-1.7
					c-1-2.8-2-5.6-3.1-8.5"/>
			</g>
			<path class="st1" d="M454.3,754.1c14.5-1.3,22,0.3,22.3,8.6c0.5,12.7-15.9,17.8-48.2,23.1c-32.3,5.4-53.6,10.8-53.6,10.8
				l-2.7-12.9C372.2,783.7,439.8,755.4,454.3,754.1z"/>
			<path class="st27" d="M350.1,754.1c-14.5-1.3-22,0.3-22.3,8.6c-0.5,12.7,15.9,17.8,48.2,23.1c32.3,5.4,53.6,10.8,53.6,10.8
				l2.7-12.9C432.2,783.7,364.7,755.4,350.1,754.1z"/>
		</g>
		<path class="st16" d="M441.5,786.4c0,0,6.3-0.5,7.3,4.3c0.9,4.8-3.8,6.9-5.4,6.9s-4.7-0.2-4.7-0.2s0.1,2.5,5.2,3.1
			c5.1,0.5,12.3,1.3,16.7,1.7c4.4,0.4,11.7-2.3,13.2-7.5s-3.1-8.6-8.5-8.2C458.6,786.9,441.5,786.4,441.5,786.4z"/>
	</g>
	<g>
		<path class="st28" d="M207.8,988.6c0,0-2.8,12.4,0.3,15.2s30.1,1.9,35.9,1.4c5.8-0.6,8.3-0.6,7.2-3c-1.1-2.5-27.9-11.9-29.2-14.4
			c-1.4-2.5-2.5-5.3-2.5-5.3L207.8,988.6z"/>
		<path class="st28" d="M127.6,984.8c0,0-9.1,17.7-8.3,21.6c0.8,3.9,18.5,5.8,24.3,5s7.2-0.8,4.4-6.1s-9.7-12.4-9.7-16.6
			s1.1-6.1,1.1-6.1L127.6,984.8z"/>
		<path class="st16" d="M195.5,799.2c0,0,13.7,74.7,19.9,117.4s9.1,71.8,9.1,71.8l-20.3,2.9c0,0-22.4-98.7-31.1-124.9
			c-8.7-26.1-10.4-36.1-10.4-36.1l2.5-37.3L195.5,799.2z"/>
		<path class="st29" d="M174,802.1c0,0-1.7,77.6-14.9,125.7c-13.3,48.1-19.5,61.4-19.5,61.4l-15.8-1.7c0,0,9.1-106.6,10.4-141
			c1.2-34.4,0-45.6,0-45.6L174,802.1z"/>
		<path class="st5" d="M154,682.7c0,0-13.7-6.4-31.7,4.6c-15.4,9.5-18.9,26.1-20.7,45.4c-1.9,19.3,2.2,44,10.3,53.3
			s22.2,7.9,26.8,6.4s16.6-38.8,19.1-57.9C160.3,715.5,154,682.7,154,682.7z"/>
		<path class="st6" d="M118.8,697.4c0,0,7.7-11.6,19.6-16.3c11.9-4.7,31.5-2.5,35.1-0.8c3.6,1.7,7.7,5.8,11.3,18.5
			c3,10.5,13.3,69.4,13.8,88.8c0.6,19.4-0.3,19.9-0.3,19.9s-23.5,2.5-43.1,1.9s-26.3-1.9-26.3-1.9s3.9-66.4,2.2-83.2
			C129.6,707.4,118.8,697.4,118.8,697.4z"/>
		<g>
			<path class="st30" d="M150.8,654.6c-1.5,8-2.9,16.1-4.4,24.1c-0.1,0.7-0.2,1.3-0.1,2c0.2,0.7,0.6,1.4,1.1,1.9
				c4.9,5.9,11.4,10.5,18.7,13.1c2.1,0.7,4.5,1.3,6.3,0.1c2.2-1.4,2.4-4.5,1.7-7c-1.1-3.7-3.8-6.6-5.4-10.1
				c-1.7-3.5-2.2-7.6-1.5-11.5c0.3-1.4,0.7-2.9,0.3-4.3c-0.4-1.2-1.4-2.2-2.3-3.1c-1.8-1.7-3.7-3.4-6-4.5c-2.2-1.1-4.9-1.5-7.3-0.6"
				/>
		</g>
		<g>
			<path class="st16" d="M173.6,623.2c1.3-2,2.3-4.2,2.5-6.6c0.1-2.4-0.7-4.9-2.6-6.2c-1.4-1-3.2-1.3-4.9-1.2
				c-4.7,0.3-9,3.8-10.2,8.4c-1.5-2.3-4.2-3.7-6.9-3.8s-5.5,1.2-7.2,3.3c-3,3.7-2.4,9-1.7,13.7c-4.6-0.8-9.6,2.1-11.3,6.5
				c-1.3,3.4-0.5,7.4,1.8,10.1c1.9,2.3,1.6,1.4,0.6,4c-0.8,1.8-0.7,3.9,0,5.8c0.8,2.2,2.5,4.2,4.6,5.2s4.8,0.9,6.8-0.4
				c1.1-0.7,1.8-1.8,2.5-2.9c2.5-4.3,2.8-9.8,0.9-14.3"/>
		</g>
		<g>
			<g>
				<path class="st14" d="M147.1,653.4C147.1,653.4,147.1,653.3,147.1,653.4C147.1,653.3,147.1,653.3,147.1,653.4L147.1,653.4z"/>
			</g>
			<g>
				<path class="st30" d="M183,629.8c-0.2-0.8-0.5-1.7-1.2-2.1c-0.6-0.4-1.3-0.4-1.9-0.4c-2.9,0-5.8,0-8.7-0.1c-4.8,0-9.8,0-14,2.3
					c-4.2,2.4-6.9,6.8-8.2,11.5c-1.3,4.6-1.8,7.5-1.8,12.3c1.2,6.2,3.5,12.4,8,16.9s11.5,6.9,17.4,4.6c6.6-2.6,10-9.9,11.5-16.8
					C186,648.7,185.6,638.9,183,629.8z"/>
			</g>
		</g>
		<g>
			<path class="st30" d="M152.9,648.8c-0.4-0.8-0.9-1.5-1.7-2.2c-2-1.9-5.9-3.6-8.5-1.8c-1.5,1-2.3,3.2-2.2,5
				c0.2,3.3,3.9,4.3,6.7,4.1c0.7,0,7.2-1.3,6.8-2.4C153.6,650.5,153.3,649.6,152.9,648.8z"/>
		</g>
		<g>
			<path class="st14" d="M174.1,746.7"/>
		</g>
		<g>
			<path class="st16" d="M148.4,647.8c-2.3-4.2-3.1-8.8-1.7-11.9c1.4-3.2,5.6-6.6,8.7-7.9c0.3-0.1,0.4-0.5,0.6-0.5
				c0.4-0.1,0.7,0.4,0.9,0.8c1.4,3.6-0.5,7.4-2,10.9C152,645.8,148.4,647.8,148.4,647.8z"/>
		</g>
		<g>
			<path class="st16" d="M155.4,630.4c3.8,2.5,8.5,3.4,13,3.2s8.9-1.6,13.1-3.5c2.1-0.9,4.1-2,5.6-3.7s2.2-4.2,1.4-6.3
				c-0.9-2.1-3.3-3.4-5.6-3.5s-4.6,0.6-6.7,1.5c-7.3,2.9-17.6,3.9-23.7,9"/>
		</g>
		<path class="st6" d="M179.9,686.9c0,0,13,11.6,19.1,22.1s10.5,27.1,10.5,27.1l-22.7-0.3L179.9,686.9z"/>
		<path class="st17" d="M121.8,690.5c0,0,9.7,3.3,16,16.3c6.4,13,3.3,31,1.9,36.2c-1.4,5.3-7.7,18.5-7.7,18.5l-0.8,8.8
			c0,0,10.8-3,16-18.5c5.9-17.5,5-32.9-1.1-47.3c-6.1-14.4-14.1-21.3-14.1-21.3s-2.5-0.8-5.8,1.7
			C122.9,687.5,121.8,690.5,121.8,690.5z"/>
		<path class="st17" d="M169.2,678.9c0,0,6-0.4,11.4,4.4c12.7,11.3,12,32.1,12,32.1l-6,0.6c0,0-0.6-11.4-4.7-21.8
			C177.7,683.9,169.2,678.9,169.2,678.9z"/>
		<g>
			<polygon class="st7" points="233.8,710.2 213.6,677.9 206.7,729.5 231.8,730.4 			"/>
			<path class="st31" d="M176.9,720.7c0,0,12.6-9.4,27-10.6c14.4-1.2,26.7,4.6,26.7,4.6s-8.4,4.3-18.4,5.8s-33,4.3-33,4.3
				L176.9,720.7z"/>
			<polygon class="st7" points="176.9,720.7 177.1,777.4 226.4,770.5 227.7,714.9 			"/>
			<polygon class="st32" points="233.6,712.2 233.8,710.2 213.6,677.9 213.4,679.5 			"/>
			<path class="st12" d="M227.7,714.9c0,0,2.1,0.3,3.9-1c1.7-1.2,2.2-3.6,2.2-3.6l-1.9,55.5c0,0,0.4,2.8-1.9,4
				c-1.9,1-3.7,0.7-3.7,0.7L227.7,714.9z"/>
		</g>
		<g>
			<path class="st30" d="M170.6,747.6c1.9-4.1,4.2-8,6.7-11.8c0.4-0.5,0.9-1.1,1.5-1c0.6,0.2,0.8,0.9,0.9,1.6
				c0.2,2.8,0.2,5.7-0.2,8.5c0,0.3-0.1,0.6,0.1,0.9c0.2,0.2,0.4,0.2,0.6,0.2c4.7,0.4,9.4-1,14.1-1c0.7,0,1.4,0.1,1.9,0.4
				c0.5,0.3,0.9,0.8,1.2,1.4c1.4,2.6,0.8,6-1.2,8c-1.3,1.3-3.1,2-4.8,2.7c-5.8,2.2-11.7,4-17.8,5.5c-0.4,0.1-1,0.2-1.3,0
				c-0.4-0.2-0.5-0.7-0.7-1.2c-1.2-4.8-1.6-9.8-1-14.7"/>
		</g>
		<path class="st33" d="M118.8,697.4c0,0,5.5-5.5,12.7,6.9s0.6,48.9,4.4,52.5c3.9,3.6,34.6-11.1,34.6-11.1s2.8,5.5,4.4,11.9
			c1.7,6.4,1.1,7.5,1.1,7.5s-30.4,24.1-49.8,15.5s-16.6-51.4-15.5-61.7C112.4,703.5,118.8,697.4,118.8,697.4z"/>
	</g>
	<g>
		<path class="st34" d="M586.6,988.1c0,0-0.6,10.5-1.4,11.3c-0.9,0.9-25.2,8.5-25,11.9c0.3,3.4,4.8,4.5,15.6,4.3
			c10.8-0.3,25.2-1.1,26.9-4c1.7-2.8,1.7-22.4,1.7-22.4L586.6,988.1z"/>
		<path class="st34" d="M696.1,956c0,0,9.1,7.9,8.8,9.6c-0.3,1.7-6.5,26.9-4,27.5c2.6,0.6,25.8-32.6,26.7-35.7
			c0.9-3.1-17-14.7-17-14.7L696.1,956z"/>
		<path class="st15" d="M585.2,810c0,0-7,70.7-7,82.6c0,11.9,5.3,100,5.3,100l23.8,1.1c0,0,4.9-89.3,6-101.2s9.3-73.5,9.3-73.5
			L585.2,810z"/>
		<path class="st27" d="M609.6,804.9c0,0-2.3,70.3,2.3,77.7c4.5,7.4,81.7,79.4,81.7,79.4l20.4-18.7c0,0-59.5-57.3-63-73.7
			c-3.4-16.4-1.1-60.7-1.1-60.7L609.6,804.9z"/>
		<path class="st35" d="M595.7,691.7c0,0-9.4,11.6-13.3,21.8c-4,10.2-7.7,26.1-7.7,26.1l19.3,2c0,0,4.3-26.7,4.5-33.7
			C598.8,700.8,595.7,691.7,595.7,691.7z"/>
		<path class="st17" d="M595.7,691.7c0,0-5.4,7.7-7.4,24.1c-2,16.4-0.9,72.6-0.9,72.6l65.5,0.3c0,0,2.8-60.4-2-74.6
			c-4.8-14.2-16.7-19.6-22.3-22.7C623,688.3,614,685,614,685s-5.8,8.5-10,9.3C599.7,695.1,595.7,691.7,595.7,691.7z"/>
		<g>
			<rect x="559.7" y="731.3" class="st12" width="160.8" height="121.6"/>
			<line class="st36" x1="557.6" y1="788.9" x2="617.9" y2="729.7"/>
			<line class="st36" x1="723.4" y1="788.9" x2="663.1" y2="729.7"/>
		</g>
		<g>
			<path class="st14" d="M582,635.4c-3.4,6.8-5.4,14.2-6,21.7c-0.4,5.6,0,11.5,2.3,16.6c2.3,5.2,6.7,9.6,12.2,10.9
				c1.7,0.4,3.4,0.5,5.1,0.2c1.5-0.3,2.9-1,4.2-1.8c6.1-3.8,10.4-10.5,11.3-17.7c0.7-5.8-0.6-11.7-1.9-17.4c-0.6-2.6-1.3-5.3-3-7.2
				c-2.5-2.8-6.5-3.4-10.2-3.9c-4.7-0.6-9.4-1.2-14.1-1.8"/>
		</g>
		<g>
			<path class="st14" d="M594,680.8c1.3,5.6,1.4,11.5,0,17.1c-0.2,0.7-0.3,1.6,0.3,2c0.3,0.2,0.6,0.3,1,0.3c1.3,0,2.5-0.6,3.6-1.1
				c5-2.5,9.7-5.7,13.8-9.4c0.7-0.6,1.5-1.4,1.7-2.3c0.2-0.6,0.1-1.3,0-2c-1-6.5-1.9-13-2.9-19.6c0-0.3-0.1-0.7-0.4-0.9
				c-0.4-0.2-0.8,0.1-1.2,0.4c-3.5,3.2-6.9,6.4-10.4,9.5c-2.2,2.1-4.5,4.2-5.9,6.9"/>
		</g>
		<g>
			<path class="st14" d="M639.2,816.4c-2,3-3.8,6.2-5.4,9.4c-0.7,1.4-1.3,2.9-1.6,4.5c-0.2,1.6,0,3.3,1,4.5c1.5,1.9,4.3,2.4,6.6,1.6
				c2.3-0.8,4.1-2.5,5.5-4.4c2.6-3.4,4.5-7.3,5.4-11.5c0.1-0.7,0.3-1.4,0-2c-0.5-1.1-1.8-1.4-3-1.6c-2.8-0.4-5.6-0.7-8.4-1"/>
		</g>
		<g>
			<path class="st16" d="M620.5,652.7c-0.1-0.5,0.3-1,0.6-1.4c2.7-3.7,4.4-8.9,1.8-12.6c-1.5-2.1-4.1-3.3-6.7-3.3
				c-2.6-0.1-5.1,0.8-7.4,2c1.9-4.5-1-10.4-5.8-11.6c-4.2-1-10.2,2.1-12,6.2c-1.3-2.2-3.9-3.5-6.5-3.4c-3,0.1-5.8,2-7.4,4.5
				c-0.5,0.9-0.9,1.8-0.9,2.8c0,1.7,1.2,3.1,2.7,3.9c1.5,0.8,3.2,1,4.8,1.2c6.2,0.6,12.4,0.6,18.5,0.1c-2.7,7.1,0.6,15.9,7.4,19.4
				c-0.1,3.1,0.2,6.6,2.5,8.7c2.2,1.9,5.7,1.9,8.1,0.2c2.4-1.7,3.7-4.7,3.6-7.6c0-2.9-1.2-5.7-3-8.1
				C620.7,653.2,620.5,653,620.5,652.7z"/>
		</g>
		<g>
			<path class="st14" d="M614.1,654.6c-1.7-0.8-3.7-0.5-5.4,0.3c-1.6,0.7-2.9,1.9-4.3,2.8l-0.1,0.7c0.2,1.7,0.5,3.6,1.8,4.6
				c2.8,2.3,7.3-0.3,9-2.8C616.7,658.2,616.5,655.8,614.1,654.6z"/>
		</g>
		<path class="st35" d="M615.8,698.5c-1.7,8.9,12.3,16.2,21.3,33.2c8.9,17,12.3,25.9,10.2,43c-2.1,17-11.9,43-11.9,43l18.3,6.4
			c0,0,17.9-46.4,18.7-67.6s-10-36.8-20.4-48.9C636.2,689.2,617.5,689.6,615.8,698.5z"/>
	</g>
</g>
</svg>
