<?xml version="1.0" encoding="utf-8"?>
<!-- Generator: Adobe Illustrator 24.0.2, SVG Export Plug-In . SVG Version: 6.00 Build 0)  -->
<svg version="1.1" id="Layer_1" xmlns="http://www.w3.org/2000/svg" xmlns:xlink="http://www.w3.org/1999/xlink" x="0px" y="0px"
	 viewBox="0 0 1900 1080" style="enable-background:new 0 0 1900 1080;" xml:space="preserve">
<style type="text/css">
	.st0{fill:url(#SVGID_1_);}
	.st1{opacity:0.3;fill:url(#SVGID_2_);enable-background:new    ;}
	.st2{fill:#02797D;}
	.st3{fill:#FFFFFF;}
	.st4{fill:#31C0B2;}
	.st5{fill:#025289;}
	.st6{fill:#FEAD19;}
	.st7{fill:#F26A40;}
	.st8{opacity:0.15;enable-background:new    ;}
	.st9{opacity:0.1;}
	.st10{fill:#0286CB;}
	.st11{fill:#67362D;}
	.st12{fill:#0D9393;}
	.st13{fill:#26A595;}
	.st14{fill:#F9C990;}
	.st15{opacity:0.2;fill:#565656;enable-background:new    ;}
</style>
<g id="Layer_2_1_">
	
		<linearGradient id="SVGID_1_" gradientUnits="userSpaceOnUse" x1="-156.8424" y1="360.2" x2="2341.0969" y2="360.2" gradientTransform="matrix(1 0 0 -1 0 1080)">
		<stop  offset="0" style="stop-color:#553D93"/>
		<stop  offset="1" style="stop-color:#2B1E6E"/>
	</linearGradient>
	<path class="st0" d="M50.7,876.4c447.4-36,565.1-117.1,581-190c6.4-29.3-4.5-53.9,10.2-108.3C672.2,465.7,765.2,398.6,793,380
		c141.1-94.1,235.5-62.2,299.1-142.9c59.7-75.7,30.2-184.7-37.6-243.1c-35.4-30.5-53.5-24.4-53.8-32.7
		c-1.2-35.3,635.1-283.7,1026-4.1c401.4,287.1,400.9,1035.9,98,1382.8c-571.2,654.3-2293-35.5-2281.5-310.5
		C-154,963.3-49.9,912,50.7,876.4z"/>
</g>
<g id="Layer_1_1_">
	<g id="Layer_2_2_">
		<g>
			
				<linearGradient id="SVGID_2_" gradientUnits="userSpaceOnUse" x1="441.1" y1="-228.2" x2="441.1" y2="420.6" gradientTransform="matrix(1 0 0 1 0 580)">
				<stop  offset="0" style="stop-color:#FFFFFF"/>
				<stop  offset="0.4257" style="stop-color:#DCDDDE"/>
				<stop  offset="1" style="stop-color:#A7A9AC"/>
			</linearGradient>
			<circle class="st1" cx="441.1" cy="676.2" r="324.4"/>
			<g>
				<path class="st2" d="M249.5,823.2c0,0-75.2-26.6-64.9-65.9c0,0,4.5-7.7,16.5-0.5c0,0-29.9-24.3-14.2-41.2c0,0,5.3-6.3,19,2.4
					c0,0-16.8-35.6,1.4-47.6c0,0,23.1-4.3,28.4,41.3c0,0,26.5-32.4,19.5,29.2c0,0,6.5-10,14.6-5.6c4.5,1.4,24.3,18.5-14.2,79.4
					L249.5,823.2z"/>
				<path class="st3" d="M246,801.6c-0.7,0.4-1.5,0.2-2-0.4c-1.6-2.5-3.1-5-4.6-7.7c0,0,0,0,0-0.1c-0.4-0.7-0.7-1.4-1.1-2.1
					c-13.1-2-31.2-14.6-40.9-22.1l-0.6-0.5c-0.6-0.5-0.8-1.4-0.3-2s1.4-0.8,2-0.3l0.7,0.5c15.2,11.6,28.4,19,37.6,21.2
					c-4.4-9.2-7.9-19.3-10.7-29.3c-0.1-0.2-0.1-0.4-0.2-0.6c-0.8-2.7-1.5-5.5-2.1-8.2c-9.9-6.7-21.9-17.2-22-17.3
					c-0.6-0.5-0.7-1.4-0.1-2c0.5-0.6,1.3-0.6,1.9-0.2l0.1,0.1c0.1,0.1,10,8.7,19.1,15.3c-6.2-27-7.5-50.5-7.5-50.9
					c0-0.8,0.6-1.5,1.3-1.5c0.3,0,0.7,0.1,0.9,0.3c0.3,0.2,0.6,0.6,0.6,1.1c0,0.4,1.6,28.2,9.2,57.9c2.4-6.8,6.4-12.8,9.2-17.1
					c1.3-1.9,2.7-4.1,2.9-4.7c0-0.8,0.6-1.4,1.4-1.4c0.3,0,0.6,0.1,0.9,0.3c0.4,0.3,0.6,0.7,0.6,1.1c0,1.3-1,2.9-3.3,6.3
					c-3.4,5-8.4,12.5-10.2,20.8c2.8,9.8,6.2,19.6,10.5,28.6c0.5-9.9,3.9-19.4,9.9-27.2l0.2-0.3c0.5-0.6,1.4-0.8,2-0.3s0.8,1.4,0.3,2
					l-0.3,0.3c-3.9,5.1-10.3,15.8-9.3,31.1c1.4,2.5,2.8,4.9,4.3,7.2C246.8,800.2,246.7,801.1,246,801.6z"/>
			</g>
			<g>
				<path class="st4" d="M252.9,825c0,0-57,13-66-15.4c0,0-0.3-6.5,10.1-6.8c0,0-28-3.3-24.9-19.9c0,0,0.8-6,12.7-5.9
					c0,0-24.3-15.4-17.8-30c0,0,12.6-11.7,33.8,14.5c0,0,3.7-30.4,23.5,10.4c0,0,0.1-8.7,6.9-9.2c3.3-0.9,22.3,1.9,22.3,54.7
					L252.9,825z"/>
				<path class="st3" d="M242.3,813c-0.2,0.5-0.9,0.8-1.4,0.5c-2-0.9-3.9-1.9-5.8-3l0,0c-0.5-0.3-1-0.6-1.5-0.9
					c-8.9,3.9-25,3.1-34,2.3H199c-0.6,0-1-0.5-1-1.1s0.5-1,1.1-1l0.6,0.1c13.9,1.3,25,0.7,31.6-1.6c-6.3-4-12.4-8.8-18.1-13.9
					c-0.1-0.1-0.2-0.2-0.3-0.3c-1.5-1.4-3.1-2.8-4.5-4.2c-8.7-0.3-20.3-2.1-20.4-2.1c-0.6-0.1-1-0.6-0.9-1.2
					c0.1-0.5,0.6-0.9,1.1-0.9h0.1c0.1,0,9.6,1.5,17.8,2c-14.4-14.3-24.4-28.3-24.6-28.5c-0.3-0.5-0.2-1.1,0.2-1.5
					c0.2-0.1,0.4-0.2,0.7-0.2s0.6,0.2,0.8,0.4c0.2,0.3,12,16.8,28.4,32.2c-1.2-5.2-1.1-10.5-1-14.2c0-1.7,0.1-3.6-0.1-4
					c-0.3-0.5-0.2-1.1,0.3-1.4c0.2-0.1,0.4-0.2,0.6-0.2c0.3,0,0.6,0.2,0.8,0.5c0.5,0.8,0.5,2.2,0.4,5.2c-0.1,4.4-0.3,11.1,1.8,16.9
					c5.5,5,11.5,9.7,17.7,13.6c-3.6-6.3-5.2-13.5-4.5-20.7v-0.3c0-0.6,0.5-1,1.1-1s1,0.5,1,1.1v0.3c-0.4,4.7-0.2,13.8,6.4,22.9
					c1.8,1,3.7,2,5.5,2.8C242.3,811.9,242.5,812.5,242.3,813z"/>
			</g>
			<g>
				<path class="st2" d="M640.2,823.2c0,0,75.2-26.6,64.9-65.9c0,0-4.5-7.7-16.5-0.5c0,0,29.9-24.3,14.2-41.2c0,0-5.3-6.3-19,2.4
					c0,0,16.8-35.6-1.4-47.6c0,0-23.1-4.3-28.4,41.3c0,0-26.5-32.4-19.5,29.2c0,0-6.5-10-14.6-5.6c-4.5,1.4-24.3,18.5,14.2,79.4
					L640.2,823.2z"/>
				<path class="st3" d="M643.8,801.6c0.7,0.4,1.5,0.2,2-0.4c1.6-2.5,3.1-5,4.6-7.7c0,0,0,0,0-0.1c0.4-0.7,0.7-1.4,1.1-2.1
					c13.1-2,31.2-14.6,40.9-22.1l0.6-0.5c0.6-0.5,0.8-1.4,0.3-2s-1.4-0.8-2-0.3l-0.7,0.5c-15.2,11.6-28.4,19-37.6,21.2
					c4.4-9.2,7.9-19.3,10.7-29.3c0.1-0.2,0.1-0.4,0.2-0.6c0.8-2.7,1.5-5.5,2.1-8.2c9.9-6.7,21.9-17.2,22-17.3c0.6-0.5,0.7-1.4,0.1-2
					c-0.5-0.6-1.3-0.6-1.9-0.2l-0.1,0.1c-0.1,0.1-10,8.7-19.1,15.3c6.2-27,7.5-50.5,7.5-50.9c0-0.8-0.6-1.5-1.3-1.5
					c-0.3,0-0.7,0.1-0.9,0.3c-0.3,0.2-0.6,0.6-0.6,1.1c0,0.4-1.6,28.2-9.2,57.9c-2.4-6.8-6.4-12.8-9.2-17.1
					c-1.3-1.9-2.7-4.1-2.9-4.7c0-0.8-0.6-1.4-1.4-1.4c-0.3,0-0.6,0.1-0.9,0.3c-0.3,0.3-0.6,0.7-0.6,1.1c0,1.3,1,2.9,3.3,6.3
					c3.4,5,8.4,12.5,10.2,20.8c-2.8,9.8-6.2,19.6-10.5,28.6c-0.5-9.9-3.9-19.4-9.9-27.2l-0.2-0.3c-0.5-0.6-1.4-0.8-2-0.3
					s-0.8,1.4-0.3,2l0.3,0.3c3.9,5.1,10.3,15.8,9.3,31.1c-1.4,2.5-2.8,4.9-4.3,7.2C642.9,800.2,643.1,801.1,643.8,801.6z"/>
			</g>
			<g>
				<path class="st4" d="M636.8,825c0,0,57,13,66-15.4c0,0,0.3-6.5-10.1-6.8c0,0,28-3.3,24.9-19.9c0,0-0.8-6-12.7-5.9
					c0,0,24.3-15.4,17.8-30c0,0-12.6-11.7-33.8,14.5c0,0-3.7-30.4-23.5,10.4c0,0-0.1-8.7-6.9-9.2c-3.3-0.9-22.3,1.9-22.3,54.7
					L636.8,825z"/>
				<path class="st3" d="M647.5,813c0.2,0.5,0.9,0.8,1.4,0.5c2-0.9,3.9-1.9,5.8-3l0,0c0.5-0.3,1-0.6,1.5-0.9c8.9,3.9,25,3.1,34,2.3
					h0.6c0.6,0,1-0.5,1-1.1s-0.5-1-1.1-1l-0.6,0.1c-13.9,1.3-25,0.7-31.6-1.6c6.3-4,12.4-8.8,18.1-13.9c0.1-0.1,0.2-0.2,0.3-0.3
					c1.5-1.4,3.1-2.8,4.5-4.2c8.7-0.3,20.3-2.1,20.4-2.1c0.6-0.1,1-0.6,0.9-1.2c-0.1-0.5-0.6-0.9-1.1-0.9h-0.1
					c-0.1,0-9.6,1.5-17.8,2c14.4-14.3,24.4-28.3,24.6-28.5c0.3-0.5,0.2-1.1-0.2-1.5c-0.2-0.1-0.4-0.2-0.7-0.2s-0.6,0.2-0.8,0.4
					c-0.2,0.3-12,16.8-28.4,32.2c1.2-5.2,1.1-10.5,1-14.2c0-1.7-0.1-3.6,0.1-4c0.3-0.5,0.2-1.1-0.3-1.4c-0.2-0.1-0.4-0.2-0.6-0.2
					c-0.3,0-0.6,0.2-0.8,0.5c-0.5,0.8-0.5,2.2-0.4,5.2c0.1,4.4,0.3,11.1-1.8,16.9c-5.5,5-11.5,9.7-17.7,13.6
					c3.6-6.3,5.2-13.5,4.5-20.7v-0.3c0-0.6-0.5-1-1.1-1s-1,0.5-1,1.1v0.3c0.4,4.7,0.2,13.8-6.4,22.9c-1.8,1-3.7,2-5.5,2.8
					C647.5,811.9,647.2,812.5,647.5,813z"/>
			</g>
			<g id="XMLID_126_">
				<path id="XMLID_118_" class="st2" d="M685.3,842.8H204.6c-5,0-9.1-4.1-9.1-9.1l0,0c0-5,4.1-9.1,9.1-9.1h480.7
					c5,0,9.1,4.1,9.1,9.1l0,0C694.3,838.7,690.3,842.8,685.3,842.8z"/>
				<g id="XMLID_125_">
					<g id="XMLID_720_">
						<polygon id="XMLID_109_" class="st5" points="625.6,478.2 264.3,478.2 224.3,535.9 665.6,535.9 						"/>
						<rect id="XMLID_119_" x="232.6" y="643.7" class="st6" width="424.6" height="175.5"/>
						<rect id="XMLID_578_" x="232.6" y="643.7" class="st7" width="424.6" height="11.8"/>
						<rect id="XMLID_715_" x="232.6" y="655.5" class="st8" width="424.6" height="3.7"/>
						<rect id="XMLID_575_" x="250.1" y="535.9" class="st6" width="382.1" height="107.8"/>
						<rect id="XMLID_606_" x="248.3" y="535.9" class="st7" width="393.4" height="6.9"/>
						<path id="XMLID_433_" class="st7" d="M660.2,824.7H229.7c-3,0-5.4-2.4-5.4-5.4l0,0c0-3,2.4-5.4,5.4-5.4h430.5
							c3,0,5.4,2.4,5.4,5.4l0,0C665.6,822.2,663.2,824.7,660.2,824.7z"/>
						<polygon id="XMLID_577_" class="st5" points="504.7,675 385.2,675 362.2,713.1 527.7,713.1 						"/>
						<rect id="XMLID_546_" x="375.2" y="713.1" class="st6" width="139.4" height="100.8"/>
						<path id="XMLID_579_" class="st3" d="M285,719.8h-27.1v-22.4c0-4.1,3.3-7.4,7.4-7.4h12.3c4.1,0,7.4,3.3,7.4,7.4L285,719.8
							L285,719.8z"/>
						<path id="XMLID_581_" class="st3" d="M337.6,719.8h-27.1v-22.4c0-4.1,3.3-7.4,7.4-7.4h12.3c4.1,0,7.4,3.3,7.4,7.4L337.6,719.8
							L337.6,719.8z"/>
						<path id="XMLID_596_" class="st3" d="M285,769h-27.1v-22.4c0-4.1,3.3-7.4,7.4-7.4h12.3c4.1,0,7.4,3.3,7.4,7.4L285,769L285,769
							z"/>
						<path id="XMLID_585_" class="st3" d="M337.6,769h-27.1v-22.4c0-4.1,3.3-7.4,7.4-7.4h12.3c4.1,0,7.4,3.3,7.4,7.4L337.6,769
							L337.6,769z"/>
						<rect id="XMLID_580_" x="256.6" y="719.8" class="st7" width="30.4" height="3.9"/>
						<rect id="XMLID_607_" x="256.6" y="769" class="st7" width="30.4" height="3.9"/>
						<rect id="XMLID_1080_" x="256.6" y="719.8" class="st8" width="14.7" height="3.9"/>
						<rect id="XMLID_1079_" x="256.6" y="769" class="st8" width="14.7" height="3.9"/>
						<rect id="XMLID_613_" x="308.9" y="719.8" class="st7" width="30.4" height="3.9"/>
						<rect id="XMLID_610_" x="308.9" y="769" class="st7" width="30.4" height="3.9"/>
						<rect id="XMLID_1082_" x="308.9" y="719.8" class="st8" width="15.2" height="3.9"/>
						<rect id="XMLID_1081_" x="308.9" y="769" class="st8" width="15.2" height="3.9"/>
						<g>
							<path id="XMLID_663_" class="st3" d="M299,580.4h-27.1V558c0-4.1,3.3-7.4,7.4-7.4h12.3c4.1,0,7.4,3.3,7.4,7.4L299,580.4
								L299,580.4z"/>
							<path id="XMLID_660_" class="st3" d="M351.7,580.4h-27.1V558c0-4.1,3.3-7.4,7.4-7.4h12.3c4.1,0,7.4,3.3,7.4,7.4L351.7,580.4
								L351.7,580.4z"/>
							<path id="XMLID_657_" class="st3" d="M299,629.6h-27.1v-22.4c0-4.1,3.3-7.4,7.4-7.4h12.3c4.1,0,7.4,3.3,7.4,7.4L299,629.6
								L299,629.6z"/>
							<path id="XMLID_654_" class="st3" d="M351.7,629.6h-27.1v-22.4c0-4.1,3.3-7.4,7.4-7.4h12.3c4.1,0,7.4,3.3,7.4,7.4
								L351.7,629.6L351.7,629.6z"/>
							<rect id="XMLID_651_" x="270.6" y="580.4" class="st7" width="30.4" height="3.9"/>
							<rect id="XMLID_862_" x="270.6" y="580.4" class="st8" width="15.2" height="3.9"/>
							<rect id="XMLID_648_" x="270.6" y="629.6" class="st7" width="30.4" height="3.9"/>
							<rect id="XMLID_1069_" x="270.6" y="629.6" class="st8" width="15.2" height="3.9"/>
							<rect id="XMLID_645_" x="323" y="580.4" class="st7" width="30.4" height="3.9"/>
							<rect id="XMLID_1068_" x="323" y="580.4" class="st8" width="15.2" height="3.9"/>
							<rect id="XMLID_642_" x="323" y="629.6" class="st7" width="30.4" height="3.9"/>
							<rect id="XMLID_1070_" x="323" y="629.6" class="st8" width="15.2" height="3.9"/>
							<path id="XMLID_687_" class="st3" d="M428.2,580.4h-27.1V558c0-4.1,3.3-7.4,7.4-7.4h12.3c4.1,0,7.4,3.3,7.4,7.4L428.2,580.4
								L428.2,580.4z"/>
							<path id="XMLID_684_" class="st3" d="M480.9,580.4h-27.1V558c0-4.1,3.3-7.4,7.4-7.4h12.3c4.1,0,7.4,3.3,7.4,7.4L480.9,580.4
								L480.9,580.4z"/>
							<path id="XMLID_681_" class="st3" d="M428.2,629.6h-27.1v-22.4c0-4.1,3.3-7.4,7.4-7.4h12.3c4.1,0,7.4,3.3,7.4,7.4
								L428.2,629.6L428.2,629.6z"/>
							<path id="XMLID_678_" class="st3" d="M480.9,629.6h-27.1v-22.4c0-4.1,3.3-7.4,7.4-7.4h12.3c4.1,0,7.4,3.3,7.4,7.4
								L480.9,629.6L480.9,629.6z"/>
							<rect id="XMLID_675_" x="399.8" y="580.4" class="st7" width="30.4" height="3.9"/>
							<rect id="XMLID_672_" x="399.8" y="629.6" class="st7" width="30.4" height="3.9"/>
							<rect id="XMLID_669_" x="452.1" y="580.4" class="st7" width="30.4" height="3.9"/>
							<rect id="XMLID_666_" x="452.1" y="629.6" class="st7" width="30.4" height="3.9"/>
							<rect id="XMLID_1074_" x="452.1" y="580.4" class="st8" width="15.2" height="3.9"/>
							<rect id="XMLID_33_" x="399.8" y="580.4" class="st8" width="15.2" height="3.9"/>
							<rect id="XMLID_35_" x="399.8" y="629.6" class="st8" width="15.2" height="3.9"/>
							<rect id="XMLID_1073_" x="452.1" y="629.6" class="st8" width="15.2" height="3.9"/>
							<path id="XMLID_711_" class="st3" d="M557.3,580.4h-27.1V558c0-4.1,3.3-7.4,7.4-7.4h12.3c4.1,0,7.4,3.3,7.4,7.4L557.3,580.4
								L557.3,580.4z"/>
							<path id="XMLID_708_" class="st3" d="M610,580.4h-27.1V558c0-4.1,3.3-7.4,7.4-7.4h12.3c4.1,0,7.4,3.3,7.4,7.4L610,580.4
								L610,580.4z"/>
							<path id="XMLID_705_" class="st3" d="M557.3,629.6h-27.1v-22.4c0-4.1,3.3-7.4,7.4-7.4h12.3c4.1,0,7.4,3.3,7.4,7.4
								L557.3,629.6L557.3,629.6z"/>
							<path id="XMLID_702_" class="st3" d="M610,629.6h-27.1v-22.4c0-4.1,3.3-7.4,7.4-7.4h12.3c4.1,0,7.4,3.3,7.4,7.4L610,629.6
								L610,629.6z"/>
							<rect id="XMLID_699_" x="529" y="580.4" class="st7" width="30.4" height="3.9"/>
							<rect id="XMLID_696_" x="529" y="629.6" class="st7" width="30.4" height="3.9"/>
							<rect id="XMLID_1076_" x="529" y="580.4" class="st8" width="16.5" height="3.9"/>
							<rect id="XMLID_1075_" x="529" y="629.6" class="st8" width="16.5" height="3.9"/>
							<rect id="XMLID_693_" x="581.3" y="580.4" class="st7" width="30.4" height="3.9"/>
							<rect id="XMLID_690_" x="581.3" y="629.6" class="st7" width="30.4" height="3.9"/>
							<rect id="XMLID_1078_" x="581.3" y="580.4" class="st8" width="15.2" height="3.9"/>
							<rect id="XMLID_1077_" x="581.3" y="629.6" class="st8" width="15.2" height="3.9"/>
						</g>
						<path id="XMLID_639_" class="st3" d="M579.2,719.8h-27.1v-22.4c0-4.1,3.3-7.4,7.4-7.4h12.3c4.1,0,7.4,3.3,7.4,7.4L579.2,719.8
							L579.2,719.8z"/>
						<path id="XMLID_636_" class="st3" d="M631.8,719.8h-27.1v-22.4c0-4.1,3.3-7.4,7.4-7.4h12.3c4.1,0,7.4,3.3,7.4,7.4L631.8,719.8
							L631.8,719.8z"/>
						<path id="XMLID_633_" class="st3" d="M579.2,769h-27.1v-22.4c0-4.1,3.3-7.4,7.4-7.4h12.3c4.1,0,7.4,3.3,7.4,7.4L579.2,769
							L579.2,769z"/>
						<path id="XMLID_630_" class="st3" d="M631.8,769h-27.1v-22.4c0-4.1,3.3-7.4,7.4-7.4h12.3c4.1,0,7.4,3.3,7.4,7.4L631.8,769
							L631.8,769z"/>
						<rect id="XMLID_627_" x="550.8" y="719.8" class="st7" width="30.4" height="3.9"/>
						<rect id="XMLID_624_" x="550.8" y="769" class="st7" width="30.4" height="3.9"/>
						<rect id="XMLID_1084_" x="550.8" y="719.8" class="st8" width="15.8" height="3.9"/>
						<rect id="XMLID_1083_" x="550.8" y="769" class="st8" width="15.8" height="3.9"/>
						<rect id="XMLID_621_" x="603.1" y="719.8" class="st7" width="30.4" height="3.9"/>
						<rect id="XMLID_618_" x="603.1" y="769" class="st7" width="30.4" height="3.9"/>
						<rect id="XMLID_1086_" x="603.1" y="719.8" class="st8" width="15.2" height="3.9"/>
						<rect id="XMLID_1085_" x="603.1" y="769" class="st8" width="15.2" height="3.9"/>
						<rect id="XMLID_716_" x="417.7" y="743.7" class="st3" width="54.6" height="70.2"/>
						<rect id="XMLID_1087_" x="443.6" y="743.7" class="st7" width="2.7" height="70.2"/>
						<g id="XMLID_1089_" class="st9">
							<polygon id="XMLID_1088_" points="425.6,783.1 423.3,783.1 428.4,769.7 430.7,769.7 							"/>
							<polygon id="XMLID_1090_" points="431.3,783.1 429,783.1 434.1,769.7 436.3,769.7 							"/>
						</g>
						<g id="XMLID_1092_" class="st9">
							<polygon id="XMLID_1094_" points="453.7,783.1 451.5,783.1 456.5,769.7 458.8,769.7 							"/>
							<polygon id="XMLID_1093_" points="459.4,783.1 457.1,783.1 462.2,769.7 464.5,769.7 							"/>
						</g>
					</g>
					<g id="XMLID_108_">
						<rect id="XMLID_123_" x="375.2" y="713.1" class="st3" width="12.6" height="100.8"/>
						<rect id="XMLID_124_" x="502.1" y="713.1" class="st3" width="12.6" height="100.8"/>
					</g>
					<rect id="XMLID_1095_" x="368.8" y="801.5" class="st7" width="19" height="12.4"/>
					<rect id="XMLID_1097_" x="502.1" y="801.5" class="st7" width="19" height="12.4"/>
					<rect id="XMLID_1096_" x="372.1" y="713.1" class="st7" width="18.8" height="5.2"/>
					<rect id="XMLID_1099_" x="499" y="713.1" class="st7" width="18.8" height="5.2"/>
				</g>
			</g>
			<rect id="XMLID_1072_" x="390.9" y="589.3" class="st8" width="15.9" height="4.1"/>
			<rect id="XMLID_1071_" x="390.9" y="640.5" class="st8" width="15.9" height="4.1"/>
			<g>
				<path id="XMLID_102_" class="st5" d="M119.3,355.9l-48-11.1l14.8-63.9l41.4,9.6c6.1,1.4,9.9,7.5,8.5,13.6l-11.2,48.4
					C124.2,355,121.7,356.5,119.3,355.9z"/>
				<path id="XMLID_101_" class="st10" d="M128.2,358l48,11.1l14.8-63.9l-41.4-9.6c-6.1-1.4-12.2,2.4-13.6,8.5l-11.2,48.4
					C124.2,355,125.7,357.4,128.2,358z"/>
				<g>
					<g id="XMLID_100_">
						<path class="st3" d="M122,313.5c-0.1,0-0.1,0-0.2,0l-29.8-7c-0.5-0.1-0.8-0.6-0.7-1c0.1-0.5,0.6-0.8,1-0.7l29.8,6.9
							c0.5,0.1,0.8,0.6,0.7,1C122.7,313.2,122.4,313.5,122,313.5z"/>
					</g>
					<g id="XMLID_99_">
						<path class="st3" d="M124.3,303.4c-0.1,0-0.1,0-0.2,0l-29.8-6.9c-0.5-0.1-0.8-0.6-0.7-1c0.1-0.5,0.6-0.8,1-0.7l29.8,6.9
							c0.5,0.1,0.8,0.6,0.7,1C125.1,303.1,124.7,303.4,124.3,303.4z"/>
					</g>
					<g id="XMLID_98_">
						<path class="st3" d="M117.2,334c-0.1,0-0.1,0-0.2,0l-29.8-7c-0.5-0.1-0.8-0.6-0.7-1c0.1-0.5,0.6-0.8,1-0.7l29.8,6.9
							c0.5,0.1,0.8,0.6,0.7,1C118,333.7,117.6,334,117.2,334z"/>
					</g>
					<g id="XMLID_97_">
						<path class="st3" d="M114.8,344.6c-0.1,0-0.1,0-0.2,0l-29.8-6.9c-0.5-0.1-0.8-0.6-0.7-1c0.1-0.5,0.6-0.8,1-0.7l29.8,6.9
							c0.5,0.1,0.8,0.6,0.7,1S115.2,344.6,114.8,344.6z"/>
					</g>
					<g id="XMLID_96_">
						<path class="st3" d="M119.6,323.9c-0.1,0-0.1,0-0.2,0L89.5,317c-0.5-0.1-0.8-0.6-0.7-1c0.1-0.5,0.6-0.8,1-0.7l29.8,6.9
							c0.5,0.1,0.8,0.6,0.7,1C120.3,323.6,120,323.9,119.6,323.9z"/>
					</g>
					<g id="XMLID_95_">
						<path class="st3" d="M175.4,325.4c-0.1,0-0.1,0-0.2,0l-29.8-6.9c-0.5-0.1-0.8-0.6-0.7-1s0.6-0.8,1-0.7l29.8,6.9
							c0.5,0.1,0.8,0.6,0.7,1C176.1,325.1,175.8,325.4,175.4,325.4z"/>
					</g>
					<g id="XMLID_94_">
						<path class="st3" d="M177.7,315.3c-0.1,0-0.1,0-0.2,0l-29.8-6.9c-0.5-0.1-0.8-0.6-0.7-1c0.1-0.5,0.6-0.8,1-0.7l29.8,6.9
							c0.5,0.1,0.8,0.6,0.7,1C178.5,315.1,178.1,315.3,177.7,315.3z"/>
					</g>
					<g id="XMLID_93_">
						<path class="st3" d="M170.6,345.9c-0.1,0-0.1,0-0.2,0l-29.8-6.9c-0.5-0.1-0.8-0.6-0.7-1c0.1-0.5,0.6-0.8,1-0.7l29.8,6.9
							c0.5,0.1,0.8,0.6,0.7,1C171.4,345.7,171,345.9,170.6,345.9z"/>
					</g>
					<g id="XMLID_92_">
						<path class="st3" d="M168.2,356.5c-0.1,0-0.1,0-0.2,0l-29.8-6.9c-0.5-0.1-0.8-0.6-0.7-1c0.1-0.5,0.6-0.8,1-0.7l29.8,6.9
							c0.5,0.1,0.8,0.6,0.7,1C168.9,356.2,168.6,356.5,168.2,356.5z"/>
					</g>
					<g id="XMLID_91_">
						<path class="st3" d="M173,335.9c-0.1,0-0.1,0-0.2,0L143,329c-0.5-0.1-0.8-0.6-0.7-1c0.1-0.5,0.6-0.8,1-0.7l29.8,6.9
							c0.5,0.1,0.8,0.6,0.7,1C173.7,335.6,173.3,335.9,173,335.9z"/>
					</g>
				</g>
			</g>
			<g>
				<path id="XMLID_76_" class="st6" d="M748.3,649.6c4.3-14.7,19.7-23.1,34.4-18.8c14.6,4.3,23.1,19.8,18.8,34.4
					c-2.7,9.2-9.7,16-18.3,18.7c-2.1,0.6-3.7,2.2-4.3,4.3l-0.3,1.2c-0.6,2.1-2.8,3.3-4.9,2.7l-16.6-4.9c-2.1-0.6-3.3-2.8-2.7-4.9
					l0.3-1.2c0.6-2.1,0.1-4.3-1.3-6C747.8,668.3,745.6,658.8,748.3,649.6z"/>
				<path id="XMLID_75_" class="st7" d="M760.4,707.1L760.4,707.1c5.1,1.5,10.4-1.4,11.9-6.5l2.4-8.3l-18.3-5.4l-2.4,8.3
					C752.4,700.3,755.3,705.6,760.4,707.1z"/>
				<path id="XMLID_71_" class="st7" d="M791.2,639.3c2.2,2.4,6.6,8.2,7.1,16.3c0.1,1-0.6,1.9-1.6,2l0,0c-1,0.2-2-0.6-2.2-1.6
					c-0.4-2.9-1.8-8.8-6.4-13.9c-0.7-0.8-0.6-2.1,0.3-2.8l0.3-0.2C789.5,638.5,790.6,638.6,791.2,639.3z"/>
				<g id="XMLID_53_">
					<g id="XMLID_69_">
						<path class="st6" d="M785.6,625.2c-0.4-0.1-0.6-0.5-0.5-0.9l6-20.2c0.1-0.4,0.5-0.6,0.9-0.5s0.6,0.5,0.5,0.9l-6,20.2
							C786.4,625.1,786,625.3,785.6,625.2L785.6,625.2z"/>
					</g>
					<g id="XMLID_68_">
						<path class="st6" d="M808.7,668.9c-0.4-0.1-0.6-0.5-0.5-0.9s0.5-0.6,0.9-0.5l21,5.5c0.4,0.1,0.6,0.5,0.5,0.9s-0.5,0.6-0.9,0.5
							L808.7,668.9L808.7,668.9z"/>
					</g>
					<g id="XMLID_66_">
						<path class="st6" d="M728.8,648c-0.4-0.1-0.6-0.5-0.5-0.9s0.5-0.6,0.9-0.5l10.5,2.7c0.4,0.1,0.6,0.5,0.5,0.9s-0.5,0.6-0.9,0.5
							L728.8,648L728.8,648z"/>
					</g>
					<g id="XMLID_64_">
						<path class="st6" d="M804.9,641.7c-0.2-0.1-0.3-0.2-0.4-0.3c-0.2-0.4-0.1-0.8,0.3-1l18.7-11c0.4-0.2,0.8-0.1,1,0.3
							c0.2,0.4,0.1,0.8-0.3,1l-18.7,11C805.4,641.7,805.1,641.7,804.9,641.7z"/>
					</g>
					<g id="XMLID_63_">
						<path class="st6" d="M755.8,628.9c-0.2-0.1-0.3-0.2-0.4-0.3l-11-18.7c-0.2-0.4-0.1-0.8,0.3-1c0.4-0.2,0.8-0.1,1,0.3l11,18.7
							c0.2,0.4,0.1,0.8-0.3,1C756.3,628.9,756,629,755.8,628.9z"/>
					</g>
					<g id="XMLID_62_">
						<path class="st6" d="M809.4,653.7c-0.3-0.1-0.5-0.3-0.5-0.6c-0.1-0.4,0.2-0.8,0.6-0.9l10.7-1.8c0.4-0.1,0.8,0.2,0.9,0.6
							c0.1,0.4-0.2,0.8-0.6,0.9l-10.7,1.8C809.6,653.8,809.5,653.8,809.4,653.7z"/>
					</g>
					<g id="XMLID_61_">
						<path class="st6" d="M726.4,668c-0.3-0.1-0.5-0.3-0.5-0.6c-0.1-0.4,0.2-0.8,0.6-0.9l12.3-2.1c0.4-0.1,0.8,0.2,0.9,0.6
							c0.1,0.4-0.2,0.8-0.6,0.9l-12.3,2.1C726.6,668.1,726.5,668.1,726.4,668z"/>
					</g>
					<g id="XMLID_60_">
						<path class="st6" d="M767.9,624.5c-0.3-0.1-0.5-0.3-0.5-0.6l-1.9-10.8c-0.1-0.4,0.2-0.8,0.6-0.9c0.4-0.1,0.8,0.2,0.9,0.6
							l1.9,10.8c0.1,0.4-0.2,0.8-0.6,0.9C768.1,624.5,768,624.5,767.9,624.5z"/>
					</g>
					<g id="XMLID_58_">
						<path class="st6" d="M812.4,687.7c-0.1,0-0.2-0.1-0.3-0.1l-8.8-7.6c-0.3-0.3-0.3-0.7-0.1-1.1c0.3-0.3,0.7-0.3,1.1-0.1l8.8,7.6
							c0.3,0.3,0.3,0.7,0.1,1.1C813,687.7,812.7,687.8,812.4,687.7z"/>
					</g>
					<g id="XMLID_55_">
						<path class="st6" d="M744.4,639.6c-0.1,0-0.1-0.1-0.2-0.1l-17.9-12.2c-0.3-0.2-0.4-0.7-0.2-1s0.7-0.4,1-0.2l17.9,12.2
							c0.3,0.2,0.4,0.7,0.2,1S744.7,639.7,744.4,639.6z"/>
					</g>
					<g id="XMLID_54_">
						<path class="st6" d="M794.2,630.2c-0.1,0-0.1-0.1-0.2-0.1c-0.3-0.2-0.4-0.7-0.2-1l7.2-10.6c0.2-0.3,0.7-0.4,1-0.2
							s0.4,0.7,0.2,1l-7.2,10.6C794.9,630.2,794.5,630.3,794.2,630.2z"/>
					</g>
				</g>
			</g>
			<g id="XMLID_827_" class="st9">
				<g id="XMLID_677_">
					<polygon id="XMLID_673_" points="275.7,572.2 274.2,572.2 281.9,556.4 283.4,556.4 					"/>
					<polygon id="XMLID_823_" points="280.4,572.2 278.8,572.2 286.5,556.4 288,556.4 					"/>
				</g>
				<g id="XMLID_828_">
					<polygon id="XMLID_847_" points="332.7,572.2 331.2,572.2 338.9,556.4 340.4,556.4 					"/>
					<polygon id="XMLID_829_" points="337.3,572.2 335.8,572.2 343.5,556.4 345,556.4 					"/>
				</g>
				<g id="XMLID_851_">
					<polygon id="XMLID_860_" points="275.7,623.6 274.2,623.6 281.9,607.8 283.4,607.8 					"/>
					<polygon id="XMLID_858_" points="280.4,623.6 278.8,623.6 286.5,607.8 288,607.8 					"/>
				</g>
				<g id="XMLID_848_">
					<polygon id="XMLID_850_" points="332.7,623.6 331.2,623.6 338.9,607.8 340.4,607.8 					"/>
					<polygon id="XMLID_849_" points="337.3,623.6 335.8,623.6 343.5,607.8 345,607.8 					"/>
				</g>
			</g>
			<g id="XMLID_1042_" class="st9">
				<g id="XMLID_1052_">
					<polygon id="XMLID_1054_" points="262.9,713.7 261.4,713.7 269.1,697.9 270.6,697.9 					"/>
					<polygon id="XMLID_1053_" points="267.6,713.7 266.1,713.7 273.8,697.9 275.3,697.9 					"/>
				</g>
				<g id="XMLID_1049_">
					<polygon id="XMLID_1051_" points="319.9,713.7 318.4,713.7 326.1,697.9 327.6,697.9 					"/>
					<polygon id="XMLID_1050_" points="324.6,713.7 323.1,713.7 330.8,697.9 332.3,697.9 					"/>
				</g>
				<g id="XMLID_1046_">
					<polygon id="XMLID_1048_" points="262.9,765 261.4,765 269.1,749.2 270.6,749.2 					"/>
					<polygon id="XMLID_1047_" points="267.6,765 266.1,765 273.8,749.2 275.3,749.2 					"/>
				</g>
				<g id="XMLID_1043_">
					<polygon id="XMLID_1045_" points="319.9,765 318.4,765 326.1,749.2 327.6,749.2 					"/>
					<polygon id="XMLID_1044_" points="324.6,765 323.1,765 330.8,749.2 332.3,749.2 					"/>
				</g>
			</g>
			<g id="XMLID_1055_" class="st9">
				<g id="XMLID_1065_">
					<polygon id="XMLID_1067_" points="557.5,712.8 556,712.8 563.7,697 565.2,697 					"/>
					<polygon id="XMLID_1066_" points="562.2,712.8 560.7,712.8 568.4,697 569.9,697 					"/>
				</g>
				<g id="XMLID_1062_">
					<polygon id="XMLID_1064_" points="614.5,712.8 613,712.8 620.7,697 622.2,697 					"/>
					<polygon id="XMLID_1063_" points="619.2,712.8 617.7,712.8 625.4,697 626.9,697 					"/>
				</g>
				<g id="XMLID_1059_">
					<polygon id="XMLID_1061_" points="557.5,764.2 556,764.2 563.7,748.4 565.2,748.4 					"/>
					<polygon id="XMLID_1060_" points="562.2,764.2 560.7,764.2 568.4,748.4 569.9,748.4 					"/>
				</g>
				<g id="XMLID_1056_">
					<polygon id="XMLID_1058_" points="614.5,764.2 613,764.2 620.7,748.4 622.2,748.4 					"/>
					<polygon id="XMLID_1057_" points="619.2,764.2 617.7,764.2 625.4,748.4 626.9,748.4 					"/>
				</g>
			</g>
			<g id="XMLID_863_" class="st9">
				<g id="XMLID_1026_">
					<polygon id="XMLID_1028_" points="407.8,572.2 406.3,572.2 414,556.4 415.5,556.4 					"/>
					<polygon id="XMLID_1027_" points="412.5,572.2 411,572.2 418.7,556.4 420.2,556.4 					"/>
				</g>
				<g id="XMLID_981_">
					<polygon id="XMLID_1025_" points="464.8,572.2 463.3,572.2 471,556.4 472.5,556.4 					"/>
					<polygon id="XMLID_1024_" points="469.5,572.2 468,572.2 475.6,556.4 477.1,556.4 					"/>
				</g>
				<g id="XMLID_887_">
					<polygon id="XMLID_889_" points="407.8,623.6 406.3,623.6 414,607.8 415.5,607.8 					"/>
					<polygon id="XMLID_888_" points="412.5,623.6 411,623.6 418.7,607.8 420.2,607.8 					"/>
				</g>
				<g id="XMLID_882_">
					<polygon id="XMLID_884_" points="464.8,623.6 463.3,623.6 471,607.8 472.5,607.8 					"/>
					<polygon id="XMLID_883_" points="469.5,623.6 468,623.6 475.6,607.8 477.1,607.8 					"/>
				</g>
			</g>
			<g id="XMLID_1029_" class="st9">
				<g id="XMLID_1039_">
					<polygon id="XMLID_1041_" points="536.6,572.2 535.1,572.2 542.8,556.4 544.3,556.4 					"/>
					<polygon id="XMLID_1040_" points="541.3,572.2 539.8,572.2 547.5,556.4 549,556.4 					"/>
				</g>
				<g id="XMLID_1036_">
					<polygon id="XMLID_1038_" points="593.6,572.2 592.1,572.2 599.8,556.4 601.3,556.4 					"/>
					<polygon id="XMLID_1037_" points="598.3,572.2 596.8,572.2 604.4,556.4 605.9,556.4 					"/>
				</g>
				<g id="XMLID_1033_">
					<polygon id="XMLID_1035_" points="536.6,623.6 535.1,623.6 542.8,607.8 544.3,607.8 					"/>
					<polygon id="XMLID_1034_" points="541.3,623.6 539.8,623.6 547.5,607.8 549,607.8 					"/>
				</g>
				<g id="XMLID_1030_">
					<polygon id="XMLID_1032_" points="593.6,623.6 592.1,623.6 599.8,607.8 601.3,607.8 					"/>
					<polygon id="XMLID_1031_" points="598.3,623.6 596.8,623.6 604.4,607.8 605.9,607.8 					"/>
				</g>
			</g>
			<rect id="XMLID_1091_" x="378.9" y="682.3" class="st8" width="124.2" height="5.4"/>
			<g id="XMLID_1104_">
				<path id="XMLID_1156_" class="st11" d="M580.4,826.6L580.4,826.6c-1.4,0-2.5-1.1-2.5-2.5v-31.7h5.1V824
					C582.9,825.5,581.8,826.6,580.4,826.6z"/>
				
					<rect id="XMLID_1152_" x="573.1" y="792.1" transform="matrix(0.7071 -0.7071 0.7071 0.7071 -397.6832 640.2079)" class="st11" width="1.8" height="16.1"/>
				<polygon id="XMLID_1149_" class="st11" points="580.4,814.3 582.1,815.1 591.8,794.6 590.2,793.8 				"/>
				<path id="XMLID_1107_" class="st2" d="M569.7,793.6c0,0-7.6,6-14.2,1.8c-6.3-4.1-6.7-12.7-1.5-16.1c0,0-4.9-8.6,0.3-14.5
					c5.3-6,12.4-3.2,12.4-3.2s2.2-10.6,12.8-10.3s10.8,9.9,10.8,9.9s8.5-3,12.9,5.1c3.4,6.4-0.1,12.5-0.1,12.5s8.3,5.6,2.7,14.5
					c-4.5,7.1-14.4,2.6-14.4,2.6s-2.6,6.2-10.7,6.2C574.7,802.1,571.2,798.5,569.7,793.6z"/>
			</g>
			<g id="XMLID_1147_">
				<path id="XMLID_1170_" class="st11" d="M299.3,828L299.3,828c1.7,0,3-1.4,3-3v-37.8h-6.1V825C296.3,826.7,297.6,828,299.3,828z"
					/>
				
					<rect id="XMLID_1165_" x="297.2" y="795.4" transform="matrix(0.7071 -0.7071 0.7071 0.7071 -473.3527 450.2786)" class="st11" width="19.3" height="2.2"/>
				<polygon id="XMLID_1153_" class="st11" points="299.3,813.3 297.3,814.3 285.7,789.9 287.6,788.9 				"/>
				<path id="XMLID_1148_" class="st12" d="M312,788.6c0,0,9,7.2,16.9,2.1c7.5-4.8,8-15.1,1.8-19.2c0,0,5.8-10.3-0.4-17.3
					c-6.3-7.1-14.8-3.8-14.8-3.8s-2.6-12.6-15.2-12.2c-12.6,0.4-12.9,11.8-12.9,11.8s-10.2-3.6-15.4,6.1c-4.1,7.6,0.1,14.9,0.1,14.9
					s-9.9,6.7-3.2,17.3c5.3,8.4,17.2,3.1,17.2,3.1s3.1,7.4,12.8,7.4C306.1,798.8,310.3,794.6,312,788.6z"/>
			</g>
			<polygon id="XMLID_1195_" class="st10" points="699.8,600.4 693.2,598.6 688.1,603.1 687.7,596.3 681.9,592.8 688.2,590.3 
				689.8,583.6 694.1,588.9 700.9,588.4 697.2,594.1 			"/>
			<polygon id="XMLID_1194_" class="st2" points="200.2,574.8 195.3,573.6 191.5,576.9 191.2,571.9 186.8,569.4 191.5,567.5 
				192.5,562.5 195.8,566.4 200.8,565.9 198.1,570.2 			"/>
			<polygon id="XMLID_38_" class="st7" points="207.1,1015.1 202.3,1013.9 198.5,1017.3 198.1,1012.3 193.8,1009.7 198.5,1007.8 
				199.5,1002.9 202.8,1006.7 207.8,1006.2 205.1,1010.5 			"/>
			<polygon id="XMLID_1113_" class="st6" points="809,456.5 806.6,453.3 802.6,453.5 804.9,450.3 803.4,446.5 807.2,447.7 
				810.3,445.1 810.4,449.1 813.8,451.3 810,452.6 			"/>
			<path id="XMLID_1203_" class="st6" d="M268.8,292.6c0,2.8-2.3,5.1-5.1,5.1c-2.8,0-5.1-2.3-5.1-5.1s2.3-5.1,5.1-5.1
				S268.8,289.8,268.8,292.6z"/>
			<path id="XMLID_1208_" class="st7" d="M490.4,445.5c0,2-1.6,3.6-3.6,3.6s-3.6-1.6-3.6-3.6s1.6-3.6,3.6-3.6
				C488.8,441.8,490.4,443.5,490.4,445.5z"/>
			<path id="XMLID_1199_" class="st6" d="M808.2,785.6c0,2.8-2.3,5.1-5.1,5.1s-5.1-2.3-5.1-5.1s2.3-5.1,5.1-5.1
				S808.2,782.8,808.2,785.6z"/>
			<path id="XMLID_73_" class="st6" d="M71.5,915c0,2.8-2.3,5.1-5.1,5.1c-2.8,0-5.1-2.3-5.1-5.1s2.3-5.1,5.1-5.1
				C69.2,909.9,71.5,912.2,71.5,915z"/>
			<path id="XMLID_74_" class="st6" d="M630.6,286.7c0,2.8-2.3,5.1-5.1,5.1s-5.1-2.3-5.1-5.1c0-2.8,2.3-5.1,5.1-5.1
				C628.3,281.7,630.6,283.9,630.6,286.7z"/>
			<g>
				<path class="st7" d="M755.2,503.4l-79-88.9c-1.7-1.9-4.6-2.1-6.4-0.4l-8.5,7.6c-1.9,1.7-2.1,4.6-0.4,6.4l79,88.9L755.2,503.4z"
					/>
				
					<rect x="674.1" y="437.1" transform="matrix(0.7474 -0.6644 0.6644 0.7474 -118.9671 565.6375)" class="st3" width="20.5" height="4.3"/>
				
					<rect x="708.1" y="433.8" transform="matrix(0.7474 -0.6644 0.6644 0.7474 -139.2605 594.0027)" class="st2" width="6.8" height="92.7"/>
				
					<rect x="713.2" y="429.2" transform="matrix(0.7474 -0.6644 0.6644 0.7474 -134.9472 596.2321)" class="st13" width="6.8" height="92.7"/>
				
					<rect x="718.4" y="424.7" transform="matrix(0.7474 -0.6644 0.6644 0.7474 -130.604 598.5577)" class="st2" width="6.8" height="92.7"/>
				<polygon class="st14" points="739.8,517.1 759.1,523.4 755.2,503.4 				"/>
				<polyline class="st2" points="754,521.7 759.1,523.4 758.1,518.1 				"/>
			</g>
			<g>
				<path class="st7" d="M155.5,910.7l-65.7-99.2c-1.4-2.1-4.2-2.7-6.3-1.3l-9.5,6.3c-2.1,1.4-2.7,4.2-1.3,6.3l65.7,99.2
					L155.5,910.7z"/>
				
					<rect x="84.2" y="835.1" transform="matrix(0.8338 -0.552 0.552 0.8338 -446.4817 191.2672)" class="st3" width="20.5" height="4.3"/>
				
					<rect x="112.2" y="835.2" transform="matrix(0.8338 -0.552 0.552 0.8338 -467.4237 210.2977)" class="st2" width="6.8" height="92.7"/>
				
					<rect x="117.9" y="831.4" transform="matrix(0.8338 -0.552 0.552 0.8338 -464.3812 212.7983)" class="st13" width="6.8" height="92.7"/>
				
					<rect x="123.6" y="827.7" transform="matrix(0.8338 -0.552 0.552 0.8338 -461.376 215.3431)" class="st2" width="6.8" height="92.7"/>
				<polygon class="st14" points="138.4,922 156.6,931 155.5,910.7 				"/>
				<polyline class="st2" points="151.8,928.6 156.6,931 156.3,925.6 				"/>
			</g>
			<g>
				<path class="st7" d="M135.8,447.4l7.8,75.3l86.5-85.1L135.8,447.4z M150.3,457.5l49.9-5.2L154.5,498L150.3,457.5z"/>
				<g>
					<g id="XMLID_704_">
						<g id="XMLID_706_">
							<g id="XMLID_707_">
								
									<rect x="196.5" y="440.9" transform="matrix(0.9947 -0.1031 0.1031 0.9947 -44.6165 22.7071)" class="st6" width="1.7" height="4.1"/>
							</g>
							<g id="XMLID_709_">
								
									<rect x="204.9" y="440" transform="matrix(0.9947 -0.1031 0.1031 0.9947 -44.4789 23.5684)" class="st6" width="1.7" height="4.1"/>
							</g>
						</g>
						<g id="XMLID_710_">
							<g id="XMLID_712_">
								
									<rect x="179.6" y="442.7" transform="matrix(0.9946 -0.1035 0.1035 0.9946 -45.0624 21.0651)" class="st6" width="1.7" height="4.1"/>
							</g>
							<g id="XMLID_713_">
								
									<rect x="188" y="441.8" transform="matrix(0.9947 -0.1031 0.1031 0.9947 -44.7546 21.8356)" class="st6" width="1.7" height="4.1"/>
							</g>
						</g>
						<g id="XMLID_718_">
							<g id="XMLID_721_">
								
									<rect x="162.6" y="444.4" transform="matrix(0.9946 -0.1036 0.1036 0.9946 -45.3728 19.3358)" class="st6" width="1.7" height="4.1"/>
							</g>
							<g id="XMLID_722_">
								
									<rect x="171" y="443.6" transform="matrix(0.9947 -0.1031 0.1031 0.9947 -45.0306 20.0924)" class="st6" width="1.7" height="4.1"/>
							</g>
						</g>
						<g id="XMLID_723_">
							<g id="XMLID_724_">
								
									<rect x="145.7" y="446.2" transform="matrix(0.9947 -0.1031 0.1031 0.9947 -45.4336 17.498)" class="st6" width="1.7" height="4.1"/>
							</g>
							<g id="XMLID_725_">
								
									<rect x="154.1" y="445.3" transform="matrix(0.9947 -0.1031 0.1031 0.9947 -45.2961 18.3592)" class="st6" width="1.7" height="4.1"/>
							</g>
						</g>
					</g>
					<g id="XMLID_726_">
						<g id="XMLID_973_">
							<g id="XMLID_975_">
								
									<rect x="137.7" y="465.2" transform="matrix(0.9946 -0.1036 0.1036 0.9946 -47.5309 16.986)" class="st6" width="4.1" height="1.7"/>
							</g>
							<g id="XMLID_974_">
								
									<rect x="136.9" y="456.8" transform="matrix(0.9946 -0.1035 0.1035 0.9946 -46.6203 16.8392)" class="st6" width="4.1" height="1.7"/>
							</g>
						</g>
						<g id="XMLID_735_">
							<g id="XMLID_972_">
								
									<rect x="139.5" y="482.2" transform="matrix(0.9946 -0.1036 0.1036 0.9946 -49.2825 17.264)" class="st6" width="4.1" height="1.7"/>
							</g>
							<g id="XMLID_971_">
								
									<rect x="138.6" y="473.8" transform="matrix(0.9946 -0.1035 0.1035 0.9946 -48.3707 17.1064)" class="st6" width="4.1" height="1.7"/>
							</g>
						</g>
						<g id="XMLID_732_">
							<g id="XMLID_734_">
								
									<rect x="141.2" y="499.2" transform="matrix(0.9946 -0.1036 0.1036 0.9946 -51.0346 17.5316)" class="st6" width="4.1" height="1.7"/>
							</g>
							<g id="XMLID_733_">
								
									<rect x="140.4" y="490.7" transform="matrix(0.9946 -0.1035 0.1035 0.9946 -50.1101 17.3835)" class="st6" width="4.1" height="1.7"/>
							</g>
						</g>
					</g>
				</g>
			</g>
			<g>
				<path class="st10" d="M801,898.6l-4.3-1.6c-0.9-0.3-1.5-1.2-1.4-2.1c0-0.8,0.1-1.5,0.1-2.3c0-0.6,0-1.1,0-1.7
					c0-1,0.6-1.9,1.6-2.1l4.6-1.2c1.1-0.3,1.8-1.5,1.5-2.6l-2.7-10.1c-0.3-1.2-1.5-1.8-2.6-1.5l-5.2,1.4c-0.9,0.3-1.9-0.2-2.4-1
					c-0.6-1-1.2-1.9-1.9-2.8c-0.6-0.8-0.5-1.9,0.1-2.7l3.5-4.2c0.8-0.9,0.6-2.3-0.3-3l-8-6.7c-0.9-0.8-2.3-0.6-3,0.3l-3.8,4.6
					c-0.6,0.7-1.6,1-2.5,0.6c-1.9-0.8-4-1.5-5.8-2c-0.9-0.3-1.6-1.1-1.6-2.1v-6.7c0-1.2-1-2.2-2.2-2.2h-11.3c-1.2,0-2.2,1-2.2,2.2
					v6.8c0,1-0.6,1.8-1.5,2.1c-0.8,0.2-1.8,0.5-2.8,0.8c-0.9,0.3-1.9,0-2.4-0.8l-3.3-4.9c-0.7-1-2-1.2-3-0.5l-8.5,6
					c-1,0.7-1.2,2-0.5,3l3.2,4.6c0.6,0.8,0.5,1.9-0.1,2.7c-0.7,0.8-1.5,1.7-2.1,2.6c-0.6,0.8-1.6,1.1-2.5,0.8l-5.2-1.9
					c-1.1-0.4-2.4,0.2-2.8,1.3l-3.6,9.9c-0.4,1.1,0.2,2.4,1.3,2.8l4.6,1.7c0.9,0.3,1.5,1.3,1.4,2.3c-0.2,1.6-0.3,3.2-0.3,4.8
					c0,0.2,0,0.5,0,0.7l-6.2,1.7c-1.1,0.3-1.8,1.5-1.5,2.6l2.7,10.1c0.3,1.2,1.5,1.8,2.6,1.5l3.9-1.1c1-0.3,2,0.2,2.5,1.1
					c0.7,1.3,1.4,2.6,2.2,3.8c0.5,0.8,0.5,1.8-0.2,2.6l-2.5,3c-0.8,0.9-0.6,2.3,0.3,3l8,6.7c0.9,0.8,2.3,0.6,3.1-0.3l2-2.5
					c0.6-0.8,1.7-1.1,2.6-0.6c2.3,1.2,4.6,2.1,7.1,2.8c0.9,0.2,1.6,1.1,1.6,2.1v3.6c0,1.2,1,2.2,2.2,2.2h11.3c1.2,0,2.2-1,2.2-2.2
					v-3.6c0-1,0.6-1.8,1.6-2.1c1.4-0.4,2.9-0.9,4.4-1.4c0.9-0.4,2,0,2.5,0.8l1.9,2.8c0.7,1,2,1.2,3,0.5l8.6-6c1-0.7,1.2-2,0.5-3
					l-2.2-3.1c-0.5-0.8-0.5-1.8,0.1-2.6c0.9-1.1,1.8-2.3,2.6-3.6c0.5-0.8,1.6-1.2,2.5-0.8l3.7,1.4c1.1,0.4,2.4-0.2,2.8-1.3l3.6-9.9
					C802.7,900.2,802.2,899,801,898.6z M759.1,907.3c-9,0-16.3-7.3-16.3-16.3s7.3-16.3,16.3-16.3s16.3,7.3,16.3,16.3
					S768.1,907.3,759.1,907.3z"/>
				<path class="st6" d="M759.1,865.5c-14.1,0-25.6,11.4-25.6,25.6c0,14.1,11.4,25.6,25.6,25.6s25.6-11.4,25.6-25.6
					C784.7,876.9,773.3,865.5,759.1,865.5z M759.1,907.3c-9,0-16.3-7.3-16.3-16.3s7.3-16.3,16.3-16.3s16.3,7.3,16.3,16.3
					S768.1,907.3,759.1,907.3z"/>
			</g>
			<g>
				<path class="st7" d="M789.1,327.7c0,0-3.6,9.3-37.1,9.3c-33.2,0-37.4-9.3-37.4-9.3v-33.4h74.5V327.7z"/>
				<path class="st6" d="M789.1,323.3c0,0-3.6,9.3-37.1,9.3c-33.2,0-37.4-9.3-37.4-9.3v-27h74.5V323.3z"/>
				<path class="st15" d="M722.9,301.2v32c0,0-6.4-2.3-8.3-5.5v-28.3L722.9,301.2z"/>
				<polygon class="st5" points="751.8,314.5 694.5,298.1 751.8,281.8 809.2,298.1 				"/>
				<g id="XMLID_674_">
					<path class="st6" d="M797.9,352.3c-0.2,0-0.4-0.2-0.4-0.4l-0.4-50l-45.1-5.2c-0.2,0-0.4-0.2-0.4-0.5c0-0.2,0.2-0.4,0.5-0.4
						l45.5,5.2c0.2,0,0.4,0.2,0.4,0.4l0.4,50.4C798.3,352.1,798.1,352.3,797.9,352.3L797.9,352.3z"/>
				</g>
				<ellipse id="XMLID_670_" class="st7" cx="797.9" cy="355.1" rx="2.5" ry="4.8"/>
				<path id="XMLID_671_" class="st7" d="M749.2,295.9c-0.1,1.1,1.1,2.1,2.7,2.3c1.6,0.2,3.1-0.5,3.2-1.6c0.1-1.1-1.1-2.1-2.7-2.3
					C750.8,294.2,749.3,294.9,749.2,295.9z"/>
			</g>
			<g>
				<path class="st6" d="M145.6,654.4c0,0-1.7,9.8-34.6,16.4c-32.6,6.5-38.5-1.9-38.5-1.9L66,636.2l73.1-14.5L145.6,654.4z"/>
				<path class="st10" d="M144.8,650.1c0,0-1.7,9.8-34.6,16.4c-32.6,6.5-38.5-1.9-38.5-1.9l-5.3-26.5l73.1-14.5L144.8,650.1z"/>
				<path class="st15" d="M75.5,641.3l6.2,31.4c0,0-6.8-1-9.3-3.8L67,641.1L75.5,641.3z"/>
				<polygon class="st5" points="106.5,648.7 47.1,643.8 100.2,616.6 159.6,621.5 				"/>
				<g id="XMLID_70_">
					<path class="st7" d="M159.1,676.8c-0.2,0-0.5-0.1-0.5-0.3l-10.1-48.9l-45.3,3.7c-0.2,0-0.5-0.2-0.5-0.4s0.1-0.4,0.4-0.5
						l45.7-3.8c0.2,0,0.4,0.1,0.5,0.3l10.2,49.3C159.4,676.5,159.3,676.7,159.1,676.8L159.1,676.8z"/>
				</g>
				<path id="XMLID_40_" class="st6" d="M157.2,680c0.5,2.6,2,4.5,3.4,4.2s2-2.6,1.5-5.2c-0.5-2.6-2-4.5-3.4-4.2
					S156.6,677.4,157.2,680z"/>
				<path id="XMLID_37_" class="st6" d="M100.3,631c0.1,1.1,1.5,1.8,3.1,1.7s2.9-1.1,2.8-2.1c-0.1-1.1-1.5-1.8-3.1-1.7
					C101.5,628.9,100.3,629.9,100.3,631z"/>
			</g>
			<polygon id="XMLID_72_" class="st7" points="72.8,422 70.4,418.8 66.4,419 68.6,415.8 67.2,412 71,413.2 74.1,410.6 74.2,414.6 
				77.5,416.8 73.8,418.1 			"/>
			<path id="XMLID_47_" class="st7" d="M614.4,988.8c0,2-1.6,3.6-3.6,3.6s-3.6-1.6-3.6-3.6s1.6-3.6,3.6-3.6
				C612.8,985.2,614.4,986.8,614.4,988.8z"/>
		</g>
	</g>
</g>
</svg>
