<?xml version="1.0" encoding="utf-8"?>
<!-- Generator: Adobe Illustrator 24.0.2, SVG Export Plug-In . SVG Version: 6.00 Build 0)  -->
<svg version="1.1" id="Layer_1" xmlns="http://www.w3.org/2000/svg" xmlns:xlink="http://www.w3.org/1999/xlink" x="0px" y="0px"
	 viewBox="0 0 1900 1080" style="enable-background:new 0 0 1900 1080;" xml:space="preserve">
<style type="text/css">
	.st0{fill:url(#SVGID_1_);}
	.st1{fill:#355389;}
	.st2{fill:#466EB6;}
	.st3{fill:#13375B;}
	.st4{fill:#184655;}
	.st5{fill:#50BFA5;}
	.st6{fill:#FAE0B2;}
	.st7{fill:#B75742;}
	.st8{fill:#F47458;}
	.st9{fill:#F7CC7F;}
	.st10{fill:#F79C8D;}
	.st11{fill:#F48C7F;}
	.st12{fill:#FFF3D9;}
	.st13{fill:#FED333;}
	.st14{fill:#FFFFFF;}
	.st15{fill:#96D9C9;}
	.st16{fill:#86B1F2;}
	.st17{fill:#F7A491;}
	.st18{fill:#07345A;}
	.st19{fill:#3C8F7C;}
	.st20{fill:#F8A492;}
	.st21{fill:#EFEFEF;}
	.st22{fill:#9BC1F9;}
</style>
<g id="Layer_2_1_">
	
		<linearGradient id="SVGID_1_" gradientUnits="userSpaceOnUse" x1="-132.3318" y1="391.0216" x2="2365.6077" y2="391.0216" gradientTransform="matrix(1 0 0 -1 0 1080)">
		<stop  offset="0" style="stop-color:#553D93"/>
		<stop  offset="1" style="stop-color:#2B1E6E"/>
	</linearGradient>
	<path class="st0" d="M75.2,845.6c447.4-36,565.1-117.1,581-190c6.4-29.3-4.5-53.9,10.2-108.3c30.3-112.4,123.3-179.5,151.1-198.1
		c141.1-94.1,235.5-62.2,299.1-142.9c59.7-75.7,30.2-184.7-37.6-243.1c-35.4-30.5-53.5-24.4-53.8-32.7
		c-1.2-35.3,635.1-283.7,1026-4.1c401.4,287.1,400.9,1035.9,98,1382.8c-571.2,654.3-2293-35.5-2281.5-310.5
		C-129.5,932.5-25.4,881.2,75.2,845.6z"/>
</g>
<g id="Layer_2_2_">
	<g>
		<g>
			<g>
				<g>
					<path class="st1" d="M897.5,966.5c0,0,96.3-47.5,112.9-72.3c16.6-24.8-7.8-26.2-7.8-26.2s43-41.8,36.9-59.4
						c-6-17.6-28.6-0.8-28.6-0.8s27.9-62.2,14.9-68.4c-24.3-11.5-58.3,54.7-58.3,54.7s7.3-28.8-9.4-27.8
						c-25.2,1.4-24.2,66.5-24.2,66.5s-2.8-24.9-18-16.8C888.6,830.5,897.5,966.5,897.5,966.5z"/>
				</g>
				<path class="st2" d="M913.5,806c16.5-5,20.3,13.3,20.3,13.3s-1-51.5,24.3-53c16.7-0.9,9.4,27.8,9.4,27.8s34.1-66.2,58.3-54.7
					l-128.4,226C896.5,949.7,889.8,813.1,913.5,806z"/>
			</g>
			<g>
				<g>
					<path class="st1" d="M900,967.1c0,0,78.8,9.8,99.2,1.1s5.8-19.5,5.8-19.5s43.8-8.6,47.2-22c3.4-13.4-17.5-12.1-17.5-12.1
						s42.7-27.4,37.1-36.6c-10.5-17-58.6,10.4-58.6,10.4s16.2-15,5.4-21.2c-16.3-9.4-42.1,31.6-42.1,31.6s1.6-10.1-11.2-11.2
						C942.3,885.5,900,967.1,900,967.1z"/>
				</g>
				<path class="st3" d="M964.1,884.9c12.8,1.1,12.3,13.9,12.3,13.9s25.8-41,42.1-31.6c10.8,6.2-5.4,21.2-5.4,21.2
					s48.1-27.5,58.6-10.4l-171.9,88.7C905.6,956.4,942.7,883,964.1,884.9z"/>
			</g>
		</g>
		<g>
			<path class="st4" d="M1051.2,971.5c0-1.8-1-3.3-2.2-3.3H56.7c-1.5,0-2.7,1.5-2.7,3.3s1.2,3.3,2.7,3.3H1049
				C1050.2,974.8,1051.2,973.4,1051.2,971.5L1051.2,971.5z"/>
		</g>
		<g>
			<g>
				<g>
					<path class="st1" d="M267,966.7c0,0-125.6-61.9-147.1-94.2c-21.6-32.3,10.1-34.1,10.1-34.1S74,783.9,81.9,761s37.3-1,37.3-1
						s-36.4-81.1-19.4-89.1c31.6-15,76,71.3,76,71.3s-9.5-37.5,12.2-36.3c32.9,1.8,31.5,86.6,31.5,86.6s3.7-32.5,23.5-22
						C278.6,789.4,267,966.7,267,966.7z"/>
				</g>
				<path class="st2" d="M249.8,761.6c-17.3-10.2-30.5,13.9-30.5,13.9s1.7-67.8-31.2-69.6c-21.8-1.2-12.2,36.3-12.2,36.3
					s-44.4-86.3-76-71.3l167.4,294.5C268.4,944.8,272.8,775.2,249.8,761.6z"/>
			</g>
			<g>
				<g>
					<path class="st1" d="M263.8,967.5c0,0-102.7,12.8-129.3,1.4c-26.6-11.4-7.5-25.4-7.5-25.4s-57.1-11.2-61.5-28.7
						S88.3,899,88.3,899S32.7,863.2,40,851.2c13.6-22.2,76.4,13.6,76.4,13.6s-21.2-19.5-7.1-27.6c21.2-12.2,54.9,41.2,54.9,41.2
						s-2.1-13.2,14.6-14.6C208.6,861.2,263.8,967.5,263.8,967.5z"/>
				</g>
				<path class="st3" d="M178.6,854.9c-16.6,1.5-14.5,23.5-14.5,23.5s-29.8-57-54.9-42c-14,8.3,5.4,27.7,5.4,27.7s-61-35-74.6-12.8
					L264.1,967C256.5,953.6,206.5,852.5,178.6,854.9z"/>
			</g>
		</g>
		<path class="st5" d="M822.9,870.8H279.8c-20.7,0-37.6-14.6-37.6-32.7v-19.4c0-18.1,16.8-32.7,37.6-32.7h543.1l0,0
			c-24.8,23.6-25.3,59.8-1,83.9L822.9,870.8z"/>
		<path class="st6" d="M815.2,795.6H542c-18.8,0-34.1,14.6-34.1,32.7l0,0c0,18.1,15.3,32.7,34.1,32.7h273.3
			C802.5,841,802.5,815.6,815.2,795.6z"/>
		<g>
			<path class="st7" d="M941.9,866.3H257.7c-21.2,0-38.5,16.2-38.5,36.2v30.4c0,20,17.2,36.2,38.5,36.2h684.1l-0.4-0.4
				C912.2,940.1,912.4,894.8,941.9,866.3z"/>
			<path class="st6" d="M929.7,881.5H564c-21.2,0-38.5,16.2-38.5,36.2l0,0c0,20,17.2,36.2,38.5,36.2h365.7
				C916.3,931.5,916.3,903.9,929.7,881.5z"/>
		</g>
		<g>
			<path class="st3" d="M718.9,917.9H691c-6,0-10.9,4.9-10.9,10.9v1h38.8L718.9,917.9L718.9,917.9z"/>
			<path class="st1" d="M692.1,917.9c6.7,0,16.6,5.6,22.3,12.6l66.2,82.1h38.9l-63-78.1c-7.4-9.2-20.5-16.6-29.3-16.6H692.1z"/>
		</g>
		<path class="st8" d="M252.7,356c-0.2,0.6-0.7,1-1.3,1.1s-1.2-0.2-1.5-0.7l-6.5-9.5h-11.5c-0.6,0-1.2-0.3-1.4-0.9
			c-0.3-0.5-0.2-1.2,0.2-1.7l7-9.1l-3.6-10.9c-0.2-0.6,0-1.2,0.4-1.6s1.1-0.6,1.6-0.4l10.8,3.8l9.3-6.8c0.5-0.4,1.1-0.4,1.7-0.1
			c0.5,0.3,0.9,0.8,0.8,1.4l-0.3,11.5l9.3,6.7c0.5,0.4,0.7,1,0.6,1.5c-0.1,0.6-0.5,1.1-1.1,1.2l-11,3.3L252.7,356z"/>
		<path class="st9" d="M665.1,218.8c0.8-2,0.5-9.1,10.3-15.9c4-2.8,7.4-5.1,8.3-8.4c1.5-5.6-4.3-8.3-10.2-8.2c-3,0-5.5-2.4-5.6-5.4
			l0,0c-0.1-3.1,2.3-5.6,5.4-5.8c3.4-0.2,7.3,0.2,11.5,1.3c12.6,3.5,16.3,12,14.1,19.9c-2,7.2-7.8,10.7-12.5,13.7
			c-8,5-7.9,10.7-8.6,12.3L665.1,218.8z M658.9,231.2c1.4-5,5.9-7.7,10.9-6.3c5.1,1.4,7.5,6,6.2,11c-1.4,4.9-5.8,7.7-11,6.3
			C660,240.8,657.6,236.1,658.9,231.2z"/>
		<path class="st10" d="M982.3,347l4.7,7.8c0.5,0.8,1.8,0.7,2.1-0.2l3.3-8.4l8.8-2c1-0.2,1.2-1.4,0.5-2.1l-7-5.8l0.8-9
			c0.1-1-1-1.6-1.8-1.1l-7.6,4.9l-8.3-3.5c-0.9-0.4-1.9,0.4-1.6,1.4l2.3,8.8l-5.9,6.8c-0.6,0.7-0.2,1.9,0.8,2L982.3,347z"/>
		<polygon class="st11" points="769.8,231.5 759.6,224.2 762.4,211.7 765.7,212.5 763.4,222.8 773.9,230.3 768.5,243.7 780.4,250.1 
			775,262 770.9,262.7 776,251.6 764.2,245.2 		"/>
		<polygon class="st9" points="299.2,283.6 305.5,289.2 313.4,285.8 320.1,292.5 327.3,286.2 335.2,293.5 342.6,288.6 351.3,294.4 
			349.1,297.7 342.6,293.4 334.8,298.6 327.2,291.6 319.8,297.9 312.5,290.5 304.8,293.8 299,288.7 294.4,292 292.1,288.7 		"/>
		<g>
			<path class="st12" d="M1013.2,401.8c8.7,8.4,9,22.2,0.6,31c-8.4,8.7-22.2,9-31,0.6c-8.7-8.4-9-22.2-0.6-31
				C990.6,393.7,1004.5,393.4,1013.2,401.8z"/>
			<path class="st13" d="M1012.7,420.1l-9.3,2.9l-2.9,9.3c-0.2,0.8-1.2,0.9-1.7,0.3l-5.6-8l-9.8,0.1c-0.8,0-1.2-0.9-0.8-1.5l5.9-7.8
				l-3.1-9.2c-0.3-0.7,0.5-1.5,1.2-1.2l9.2,3.2l7.8-5.8c0.6-0.5,1.5,0,1.5,0.8l-0.2,9.8l7.9,5.7
				C1013.6,418.8,1013.5,419.8,1012.7,420.1z"/>
		</g>
		<g>
			<path class="st9" d="M369,216.7c-12.3,7-9.9,25.5,3.8,29.2c2.5,0.7,4.6,2.2,6,4.3l4.9,7.3c1.4,2,4,2.6,6.1,1.4l4.7-2.6
				c2.1-1.2,2.9-3.8,1.9-6c-3.7-8-5.7-10.7-4.3-15.3C396,221.3,381.3,209.7,369,216.7z"/>
			<g>
				<path class="st14" d="M383.1,251c-3.4-6.7-7.4-13.8-8.6-15.7c-7.3,3.2-7.4-5.8-2.8-3.8c1.3,0.6,2.2,1.6,3.1,2.9
					c2.4-1.1,4.6-2.7,6.4-4.7c-0.8-1.7-1.4-3-1.3-4.2c0.1-2,2.1-3.2,3.6-1.9c0.6,0.5,0.9,1.3,0.9,2c0,1.6-1.2,3.1-2.2,4.3
					c2.5,5.5,5.1,10.9,7.8,16.2l-0.7,0.3c-2.7-5.2-5.3-10.6-7.7-16c-1.8,1.9-3.9,3.5-6.3,4.6c1.5,2.5,5.3,9.4,8.5,15.7L383.1,251z
					 M370.4,235c0.9,0.5,2.2,0.4,3.8-0.3c-0.7-1.1-1.5-2-2.6-2.5C369,231.1,368.9,234.2,370.4,235z M380.7,225.5
					c-0.1,1.1,0.5,2.2,1.1,3.6c0.8-1,1.8-2.2,1.8-3.5c0-0.9-0.7-1.9-1.6-1.8C381.9,223.8,380.7,224.7,380.7,225.5z"/>
			</g>
			<path class="st15" d="M378.7,250c0,0.1,0.1,0.1,0.1,0.2l4.9,7.3c1.4,2,4,2.6,6.1,1.4l4.7-2.6c2.1-1.2,2.9-3.8,1.9-6
				c-1.7-3.6-3-6.1-3.8-8.1L378.7,250z"/>
			<g>
				<path class="st6" d="M357.1,214.3l-6.5-5.7c-0.6-0.6-0.7-1.5-0.1-2.1s1.5-0.7,2.1-0.1l6.5,5.7c0.6,0.6,0.7,1.5,0.1,2.1
					C358.7,214.8,357.7,214.8,357.1,214.3z"/>
			</g>
			<g>
				<path class="st6" d="M354.9,234.7l-8.8,2.4c-0.8,0.2-1.6-0.3-1.9-1.1c-0.2-0.8,0.3-1.6,1.1-1.9l8.8-2.4c0.8-0.2,1.6,0.3,1.9,1.1
					C356.2,233.6,355.7,234.4,354.9,234.7z"/>
			</g>
			<g>
				<path class="st6" d="M356.1,263.9c-0.8-0.4-1.1-1.3-0.7-2c1.3-2.8,2.9-5.6,4.8-8.1c0.5-0.7,1.4-0.8,2.1-0.3s0.8,1.4,0.3,2.1
					c-1.7,2.4-3.2,4.9-4.5,7.6C357.7,263.9,356.8,264.2,356.1,263.9z"/>
			</g>
			<g>
				<path class="st6" d="M378,206.1c-0.8,0.1-1.6-0.5-1.7-1.4c-0.4-4-1.1-7.9-2.3-11.7c-0.2-0.8,0.2-1.7,1-1.9s1.7,0.2,1.9,1
					c1.2,4,2.1,8.2,2.4,12.3C379.5,205.3,378.8,206.1,378,206.1z"/>
			</g>
			<g>
				<path class="st6" d="M390.8,213.9c-0.5-0.7-0.4-1.6,0.3-2.1l7.9-5.9c0.7-0.5,1.6-0.4,2.1,0.3s0.4,1.6-0.3,2.1l-7.9,5.9
					C392.3,214.7,391.3,214.5,390.8,213.9z"/>
			</g>
			<g>
				<path class="st6" d="M414,232.1c-0.1,0-0.3,0.1-0.4,0.1c-3.4,0.3-6.8,0.2-10.2-0.3c-0.8-0.1-1.4-0.9-1.3-1.7s0.9-1.4,1.7-1.3
					c3.2,0.4,6.4,0.5,9.5,0.3c0.8-0.1,1.6,0.6,1.6,1.4C415.1,231.2,414.7,231.9,414,232.1z"/>
			</g>
		</g>
		<g>
			<path class="st2" d="M876.8,228.2l-3.9,7.2c-9.2,17-21.6,32.5-36.7,45.6l-1.6,1.4c0,0,3.2,14.5,17.8,12l0,0
				c11.3-17.3,24.4-32.7,39.9-47l5.7-4.7L876.8,228.2z"/>
			<path class="st16" d="M897.9,242.8c-0.9,1-6.3-1.4-12.1-5.4s-9.9-8.1-9-9.2c0.9-1,6.3,1.4,12.2,5.4
				C894.8,237.6,898.8,241.7,897.9,242.8z"/>
			<path class="st1" d="M897.9,242.8L897.9,242.8c0,0-13.4-7.5-15.8-11.6l-1.6,2c1.5,1.3,3.3,2.7,5.4,4.2
				C891.6,241.3,896.9,243.8,897.9,242.8z"/>
			<g>
				<path class="st7" d="M873.6,266.5c-1.7,0.6-9.3,2.4-16-7.9c-0.9,1.1-1.7,2.2-2.6,3.3c4.6,6.4,9.6,8.3,13.2,8.7
					c0.6,0.1,1.3,0.1,1.9,0.2C871.2,269.3,872.4,267.9,873.6,266.5z"/>
				<polygon class="st7" points="860.1,258.9 855.4,242.2 853,247.3 847.6,246.4 857,260.6 				"/>
				<polygon class="st7" points="856.4,261.8 843.2,259.5 846.3,263.1 843.3,265.8 856,264.8 				"/>
				<path class="st8" d="M854,265c-1.2-2.8,0.5-6.2,3.7-7.4c3.2-1.3,6.8,0,7.9,2.8c1.2,2.8-0.5,6.2-3.7,7.4
					C858.8,269.1,855.2,267.8,854,265z"/>
			</g>
		</g>
		<g>
			<g>
				<path class="st8" d="M862.2,458.8c-12.2-6.6-27-3.9-35.4,7c-7.4-2.2-15.7-1.4-22.3,2.5c-13,7.5-21,28.6-10.4,40
					c2.6,11.8,4.6,23.9,16.3,24c6.9,12.7,31.2,13.5,43.6,1.6c10.9,3.4,22.5-2.8,30-11.5c1.8-2,3.3-5.2,4-5.7c0,0,28-5.2,25.4-32.3
					C910.7,456,881.2,436.5,862.2,458.8z"/>
				<path class="st17" d="M755.7,798.5c0.7,12.3,3,23.3,3.3,24.6c0.2,0.6,2.2,3.1,2.4,3.8c-3,14.5-13,22-22.1,27.1
					c2.7-7.1,7.8-15.1,7.5-16.8c-0.5-2.7-2.3-15.1-7.4-31C746.4,806.3,749.5,802.2,755.7,798.5z"/>
				<path class="st7" d="M789.6,622l43.6,35.2c0,0-21.9,21.7-30.1,29.7c-8.2,8.1-49.6,37.1-50.3,38.9c-0.1,0.4,2,4.8,2.7,10.3
					c1.8,14.9,4.2,56.7,4.9,81.5c-4.7,4.9-12.8,8.3-18.9,9.9c-15-30.5-22.7-104.1-22.7-111.1C718.9,705,789.6,622,789.6,622z"/>
				<path class="st17" d="M916.7,698.5c-1.7,1.1-15.1,17.8-20.8,27.1c-4.4-4.6-6.7-9.4-12-13.1c6.1-5.8,18.5-20.3,20.1-24.1
					c3.8-9,6.1-9.9,6.1-9.9s27.8,17.7,29.1,21.2C940.7,703.2,923.6,694.1,916.7,698.5z"/>
				<path class="st4" d="M903.3,690.5c-2.3-0.5,2.6-11,3.7-13.4c1.2-2.7,3-3.2,3.4-3.2c1.1,0,32,19.7,36.7,25.2
					c0.3,0.4,0.8,1.4,0.9,1.7c1.8,6.8-26,1.4-29.4-2.2C915.5,695.5,913.8,692.9,903.3,690.5z"/>
				<path class="st7" d="M780.2,632.2l38.4-15.9c-0.2,0.1,0.2,1.6,0.2,1.8c3.5,14.6,11.3,7.9,19,33.4c5.4,18,3.5,82.6,3.5,82.6
					s33.3-20.5,52.1-34.5c1.7-1.3,12.2,15.5,12.2,15.5c-25.6,43-78.2,63.4-83.2,61.5c-17.1-6.7-31.8-123.1-31.8-123.1
					C787.4,646.5,780.2,632.2,780.2,632.2z"/>
				<path class="st17" d="M842.3,535.2c0,0,47.1-9.5,57.6-11s47.1-13.3,48.5-13.8s7.1-19.6,9.1-18.2s-3.4,9.6-0.9,10.8
					c2.5,1.2,24.6-7.9,24.7-6c0.2,3.4-13.3,6.1-12.9,7.7c0.4,1.6,13.8-4.1,15.4-1.7c1.6,2.4-13.2,4.2-13.5,5.5s14.1,0.3,13.3,3.1
					c-0.5,1.5-12.9,0.6-12.4,2.4s9.9,4.1,9.2,5.7c-0.7,1.7-7.7-3-12.6-1.9c-4.9,1-9-0.8-16.4,3.2c-7.3,4-31.4,21.4-48.3,24.4
					c-16.9,3-54.2,9.7-54.2,9.7L842.3,535.2z"/>
				<path class="st17" d="M755.9,447.2c-2.9-9.9-5.3-18.5-5.5-19.2c-0.3-1.5,12.5-16.7,10.2-17.6s-6.2,8.1-8.6,6.7
					c-2.4-1.4-6.9-24.9-8.5-24c-3,1.7,2.2,14.5,0.7,15c-1.5,0.6-4.1-13.8-7-13.8s3.8,13.3,2.8,14.3c-0.9,1-8-11.7-9.9-9.4
					c-1,1.2,6.6,11.1,4.8,11.7s-8.8-6-9.8-4.5s6.7,4.8,8.5,9.5s5.6,7.1,6.3,15.4c0.3,3.3,0.2,10.1,0.5,18.1
					C745.6,449.1,750.9,448.5,755.9,447.2z"/>
				<path class="st4" d="M759.1,823.6c1.2-2.2,9.1,6.3,11,8.1c2.1,2,2.1,3.9,2,4.3c-0.3,1.1-26.4,27.1-33.5,30.3
					c-0.7,0.3-2,0.1-2.3-0.1c-3.5-2,5.4-24.9,10.8-29C750.5,834.6,753.9,833.4,759.1,823.6z"/>
				<path class="st1" d="M733.2,442.4c1.5,12,2.9,23.9,4.5,35.9c1.9,14,8.5,26.8,15.2,39.1c1.8,3.3,17.7,26,16,29c0,0-5,9.2-3.7,16
					c8.3,44.4-7.9,79.6-32,115.5c-6.7,10-13,20.5-17.1,31.9c-4,11.3-3.9,22.3-4.8,34c-1.3,16.6-2.5,33.2-3.8,49.7
					c0,0,36.7,13.8,55.1-0.2c18.3-14.1,46.2,3.2,61.3,5.9s52.1-17.3,59.3-36.5c7.1-18.9,1.8-60.5,1.6-61.5c0.2,1.9-31.7,12-35.1,5.8
					c-2.2-4.1,1.3-17.5,1.3-22.5c0.1-8.6-0.5-17.1-1.5-25.6c-2.3-17.7-8.9-33.7-12.9-50.7c-2.7-11.4-9.3-27.1-5.9-38.8
					c1.9-6.5,52.8-13.6,76.9-19.9c24-6.3,42.3-21.1,42.3-21.1l-8.5-20.2c0,0-36.4,12.2-55.2,14.2c-18.7,2.1-59.6,14.3-85.8,6.5
					c-26.2-7.7-39.7-57.2-39.7-57.2l-7.9-36.6C752.8,435.2,733.2,442.4,733.2,442.4z"/>
				<path class="st17" d="M815.8,515.2c0,0-2.5,13.1-2.1,18.3s-2,21.9-12.5,21.8c-10.5,0-1.8-21.2-0.8-26.3s1.4-20.8,1.4-20.8
					L815.8,515.2z"/>
				<path class="st14" d="M812.6,542.9c-2.3,1-4.9,1.6-7.5,1.2c-3.8-0.6-6-3.4-7.2-6.4c-2.2,7.9-3.8,17.6,3.3,17.6
					C807.6,555.3,811.1,549,812.6,542.9z"/>
				<path class="st8" d="M801.5,516.1c0.2-4.3,0.3-7.9,0.3-7.9l14,7c0,0-0.5,2.7-1,6.1C808.6,522.5,804.1,520.1,801.5,516.1z"/>
				<path class="st17" d="M821.2,479c0,0,5.4,3.2,7.3,10c1.9,6.8-0.5,24.4-14.5,28.5s-20-9.8-17-20.7C800,486,806.4,472.2,821.2,479
					z"/>
				<path class="st17" d="M795.3,492.6c0.3,2.9,1.8,5.2,3.4,5c1.6-0.2,2.8-2.6,2.5-5.6c-0.2-2.9-1.8-5.2-3.4-5
					C796.2,487.2,795.1,489.7,795.3,492.6z"/>
				<path class="st8" d="M819.6,478.1c0,0,2.4,19.6,8.4,23.2s3.4,12.3,3.4,12.3s5.7-20.2,0.9-26.7
					C827.6,480.4,819.6,478.1,819.6,478.1z"/>
				<path class="st17" d="M824.4,504.1c-1.7,2.5-1.7,5.6,0,6.7c1.6,1.2,4.3,0.1,6-2.5c1.7-2.5,1.7-5.6,0-6.7
					C828.8,500.4,826.1,501.5,824.4,504.1z"/>
			</g>
			<g>
				<g>
					<path class="st10" d="M348.1,450.8c0,0-9.7-13.2-8-17c1.7-3.7-0.5-10.2-0.5-10.2l-7.2-4.5l-14.2,13.7v0.3
						c0,0,8.7,12.4,10.2,12.8c0.6,0.1,1.4,0.3,2.3,0.5l9.3,12.7L348.1,450.8z"/>
					<path class="st1" d="M437.7,357.8l-31.9,32.6c-1.2,1.3-1.1,2.7,0.3,3.2l38.7,13.7c1.4,0.5,3.5-0.1,4.7-1.4l31.9-32.6
						c1.2-1.3,1.1-2.7-0.3-3.2l-38.7-13.7C441,355.9,438.9,356.5,437.7,357.8z"/>
					<path class="st1" d="M507.4,416.5l-24.1-41.8c-0.9-1.6-0.4-3.6,1.2-4.5l42.5-24.6c1.6-0.9,3.5-0.4,4.4,1.2l24.1,41.8
						c0.9,1.6,0.4,3.6-1.2,4.5l-42.5,24.6C510.3,418.6,508.3,418.1,507.4,416.5z"/>
					<path class="st3" d="M501.9,403.1c0,0-3.1-13.1-1.2-20c1.8-6.8,5.1-10.8,6-11.5c4-3.3,8.8-5.6,14-6.4
						c11.7-1.8,28.4,6.9,28.7,21l-5.3,5.6L501.9,403.1z"/>
					<path class="st7" d="M432.2,395.3c-4.9,6-41.2,9.7-52,14.5c-25.9,11.6-11.5,56.2,5.4,59c5.7,0.9,20.5-3.3,23.3-1.7
						c8.7,4.9,19.8,6.4,31.2-1.5c11.4-8,5.7-14.5,9.4-21.1c3.7-6.6,11.9,1.5,16.4-12.8c4.8-15.5,4.9-31.9,0.6-40.8
						c-7.3-14.7-19.6-16.1-26.2-13.3C438.2,378.4,433.2,394,432.2,395.3z"/>
					<polygon class="st3" points="506.8,433.6 487.8,434 459.2,432 438.6,430.5 432.4,447.2 494.2,476 					"/>
					<g>
						<path class="st8" d="M547.7,452.1c0,0,3.1-4.9,1-7.8c0,0,1.8,1.2,1.7,3.4C550.3,449.9,547.7,452.1,547.7,452.1z"/>
					</g>
					<path class="st1" d="M445.5,464l54.5,21.4l26.8,9.2l-5.8-31.1c-40.6-2.2-57.4-26.2-66.4-27.5C443.4,434.3,445.5,464,445.5,464z
						"/>
					<path class="st17" d="M333.3,712.4c-7.3,9.1-15.2,16.2-16.2,17c-0.5,0.4-3.5,1-4,1.4c-5.4,13.1-1.2,25.1,3.7,34.8
						c1.6-7.2,3.2-17.2,4.4-18.3c1.9-1.8,8.6-9.6,21.5-18.8C336.8,724.2,336.5,719.1,333.3,712.4z"/>
					<path class="st8" d="M316.7,729.5c-4.7-0.2-13.8,1.9-13.8,2.8c0,1.2,1.2,41.6,7,45.7c3.5,2.5,4.7-3.6,6.9-12.5
						C311.9,755.9,313.7,730.5,316.7,729.5z"/>
					<path class="st17" d="M421.9,738.7c-0.7,9.7-2.6,31.1-3,33.2c-0.1,0.6,0.4,3,0.7,3.5c11.7,6.3,23.6,3.2,33.3-0.8
						c-6.6-2.2-15.4-5-16.8-5.8c-1.3-0.8-3-3.5-2.6-7.3c0.8-7.9,3.4-16.1,1.7-24.8C430.4,742.1,428.6,736.1,421.9,738.7z"/>
					<path class="st8" d="M418.9,771.7c-0.8,4.6-0.9,14.8,0,14.9c1.1,0.1,39.9-0.2,45.1-4.3c3.3-2.6-2.9-4.9-11-7.8
						C443.2,778.5,419.4,774.7,418.9,771.7z"/>
					<path class="st3" d="M447,430.7c0,0-20.6-11.2-42.2-1.8c-1.4,0.6-5.5,6-5.5,8.2c0,2.6,4.2,9.5,4.2,9.5l38.4-1.8L447,430.7z"/>
					<path class="st3" d="M634.6,339.9l2.3,0.1c1.2,0,2.2-0.9,2.2-2.1l1.2-48.1c0-1.2-0.9-2.2-2.1-2.2l-2.3-0.1
						c-1.2,0-2.2,0.9-2.2,2.1l-1.2,48.1C632.5,338.9,633.4,339.9,634.6,339.9z"/>
					<path class="st17" d="M646.9,350c-0.1-4.3,4.1-28.6,3.9-30.3c-0.2-1.7-6.1-13.7-6.6-14.8c-0.5-1.1-2.7-2.4-3.7-0.7
						c-0.5,0.9,0.8,4.3,2.2,7.1c-1.4-2.3-4.9-6.7-6.4-6.5c-2.9,0.4,0.3,8.1,2.5,11.2s-2.3,15.8-2.3,15.8s-2.8,2.2-3.7,0.1
						s1.4-8.1-1.3-6.4c-2.7,1.6-5.1,9.3-3.7,11.3c1.3,1.9,6.4,14.1,6.8,15.2l0,0l-3.9,12c4.8,2.4,9.9,4.3,14.9,6.1
						C646.6,359.5,646.9,350,646.9,350z"/>
					<path class="st17" d="M477.9,730.4c0,0-9.1,11.4-11.4,12.8c-2.3,1.4,1,17.9,7.2,19c3.5,0.6,5.4-3.3,5.4-3.3l-1-4.8l13.1-13.5
						L477.9,730.4z"/>
					<path class="st17" d="M521.1,730.8c0,0-7.6,12.5-9.7,14.1c-2.1,1.7,3.3,17.6,9.6,17.9c3.5,0.2,5-3.9,5-3.9l-1.6-4.6l11.2-15.1
						L521.1,730.8z"/>
					<path class="st18" d="M511.9,744.5c0,0,4.4,5.6,6.8,7.8c3.1,2.9,7,5.7,7,5.7s4.5,8.1,5.7,11c2.7,6.3,5.8,13.4,5.3,16.9
						c-0.1,1.1-2.7,2.3-4.8,1.7c-8.8-2.7-31.4-23.5-34.3-29C494.3,752.1,511.9,744.5,511.9,744.5z"/>
					<path class="st7" d="M576.4,554.8c-0.8-2.3-1.6-4.4-2.4-6.4c-9.4,2.1-20,4.3-30.9,6.7l-1.3,40.1c0-3.1,8.2,64,8.2,64
						s-19.3,46.6-33.8,74.1c6,7.5,7.5,8.5,16.2,13.6c22.5-27.1,51.3-74.8,52.6-83.1C585.5,659,586.2,582.4,576.4,554.8z"/>
					<path class="st8" d="M494.2,573.6c2.9,31.3,9.3,91.1,8.7,95.9c-1.6,6-28.8,61.3-34,69.4c4.1,6.1,10,11.9,16.8,13.7
						c1.3,0.4,47.4-65.7,49.9-71c2.9-6,7.7-38.7,7.8-79.3l1.3-40.1C526.6,566.1,509.9,569.9,494.2,573.6z"/>
					<path class="st3" d="M569.4,465.2c0,0,49.5-24.8,54.2-30.4c3.1-3.8,27.1-74.1,27.1-74.1c0.4-4.7-19.1-6.4-19.7-5.4
						c-2.3,3.5-27,59.5-27,59.5L547.6,431l-13.2,3.9L569.4,465.2z"/>
					<path class="st18" d="M466.9,742.8c0,0,3.6,6.1,5.7,8.6c2.7,3.2,6.3,6.5,6.3,6.5s3.4,8.7,4.3,11.6c1.9,6.6,4,14.6,3.1,18.1
						c-0.3,1.1-2.7,3.2-4.7,1.9c-7.7-5.1-28.5-28.8-30.6-34.6C448.6,748.1,466.9,742.8,466.9,742.8z"/>
					<path class="st19" d="M438.4,540.6l13.4,0.1c0,0-3.6,24.5-3.5,32.6c0,8.1,11.1,75.2,10.4,83.9c-0.8,8.7-22.8,100.2-22.8,100.2
						l-18.1-0.5c0,0,3-58.8,6.2-70.4c3.2-11.6,5.8-22.2,5.8-22.2L410,594.6L438.4,540.6z"/>
					<path class="st5" d="M451.7,538.3c0,0-22.6,122.5-28.6,126.9s-86.6,68.9-86.6,68.9l-9.9-15.3c0,0,34.3-66.7,64.5-69
						c0,0-1.9-80.2,3.7-93.1c5.6-12.9,23.9-29.6,23.9-29.6l33.1,6L451.7,538.3z"/>
					<polygon class="st6" points="597.1,306.7 597.5,315.5 583.4,317.8 582.4,330.8 572.1,334.2 573.8,339.4 587.6,334.8 
						588.5,322.5 603.2,320.2 602.5,306.9 					"/>
					<polygon class="st6" points="607.1,288 598.4,288.9 595.4,274.9 582.4,274.6 578.4,264.5 573.3,266.5 578.6,280 590.9,280.3 
						594,294.8 607.2,293.5 					"/>
					<path class="st3" d="M495.8,434.7c-6.1,48.2-5.8,91-8,139.5c-1,22.8-0.7,57-6.3,79.1c-3.2,12.5-15.6,24-24.2,33.2
						c0,0,11.3,5.3,12,5.6c10.9,3.9,22.7,5.5,34.3,4.9c15.4-0.7,30.3-4.3,45.8-5.1c17.2-0.9,31.8,8.8,48.5,4.8
						c5.2-1.2,17.6-46.1,10.1-89.4c-11.7-67.1-41.6-150.6-41.6-150.6l-10.2-28.2L495.8,434.7z"/>
					<g>
						<path class="st9" d="M527.4,370.8c0,0-8.3-7-13.2,3.2c0,0-4.9-2.1-7.6,2.9c0,0-8.6-1.6-9.2,11.1c0,0-4.4-0.3-4.3,4.8
							c0,5.1,3,8.2,3,8.2s-2.2,2.1-0.6,6.6c1.4,3.9,4.7,4.1,4.7,4.1s1.6,6.6,4.8,8.3c3.1,1.7,7,0.3,7,0.3s1.5,3.5,4.8,2.8
							s7.2-4.4,11.1-3.4c3.9,1,13.6-1.6,13.6-1.6s10.5-6.2,5.9-17.1c0,0,5.2-5.9-0.6-11.6c0,0,2.6-10.3-5.4-15.2
							C533.4,369.2,527.4,370.8,527.4,370.8z"/>
						<path class="st17" d="M532.2,424.1l2.5,9.8c0,0,3.8,16.6-2.7,16.9c-4.8,0.2-16.7-18.1-16.7-18.1l0.5-22.6L532.2,424.1z"/>
						<path class="st8" d="M516.3,418.3c4.2,8.3,12.4,12.7,18,14.1l-2.1-8.3l-16.4-14L516.3,418.3z"/>
						<path class="st9" d="M493.3,395.2c0.4,3.8,3,6.7,5.7,6.4c2.7-0.3,4.5-3.7,4.1-7.5s-3-6.7-5.7-6.4
							C494.7,388,492.8,391.4,493.3,395.2z"/>
						<path class="st9" d="M506.2,378.6c0.3,2.2,3.1,3.7,6.4,3.3c3.3-0.4,5.7-2.5,5.5-4.7c-0.3-2.2-3.1-3.7-6.4-3.3
							C508.4,374.3,505.9,376.4,506.2,378.6z"/>
						<path class="st17" d="M521.7,382.5c7.5-3.6,16.5,0.7,18.6,8.6c0.9,3.5,1.9,7.8,2.5,12.7c1.5,11.6-3.2,23.6-8.5,24.2
							s-20.7-5.3-23.1-21.7C509.8,396.1,513.8,386.3,521.7,382.5z"/>
						<path class="st17" d="M515.3,407.1c0.3,2.6-1.2,4.8-3.3,5.1c-2.1,0.2-4-1.6-4.3-4.2s1.2-4.8,3.3-5.1
							C513.1,402.7,515,404.6,515.3,407.1z"/>
						<path class="st9" d="M543.9,374.1c5.9,3.7,8.6,10.1,5.9,14.2c-2.7,4.1-9.6,4.5-15.6,0.8c-5.9-3.7-8.6-10.1-5.9-14.2
							C531,370.7,537.9,370.4,543.9,374.1z"/>
						<path class="st9" d="M530,379.3c0.2,1.9-1.9,3.7-4.7,4s-5.2-0.9-5.4-2.8s1.9-3.7,4.7-4C527.4,376.1,529.8,377.4,530,379.3z"/>
						<path class="st9" d="M546.7,392c0.3,2.4-1.4,4.6-3.8,4.9c-2.4,0.3-4.5-1.5-4.8-3.9s1.4-4.6,3.8-4.9
							C544.3,387.8,546.4,389.6,546.7,392z"/>
						<path class="st14" d="M520.1,439.6c3.9,5.2,9.1,11.3,11.9,11.2c4.1-0.2,4.1-7,3.5-11.9C532.4,443.5,524.9,441.5,520.1,439.6z"
							/>
					</g>
					<g>
						<path class="st9" d="M511.6,353.1c-1.8,0-3.7-0.2-5.6-0.8c-3.9-1.1-6.7-3.2-8.3-6c-2.4-4.5-1-9.3-0.9-9.5
							c0.1-0.4,0.6-0.6,1-0.5s0.6,0.6,0.5,1c0,0-1.3,4.5,0.8,8.4c1.4,2.5,3.8,4.3,7.3,5.3c11.5,3.3,20.9-5.8,21-5.9
							c0.3-0.3,0.8-0.3,1.1,0s0.3,0.8,0,1.1C528.1,346.3,521.2,353.1,511.6,353.1z"/>
					</g>
					<g>
						<path class="st9" d="M501.1,327.5l-1.8,5.1c-1-0.2-2.1,0.2-2.8,1.1c-1.1,1.3-1.1,3.1,0,4.1s2.9,0.8,4-0.5
							c0.7-0.8,1-1.9,0.7-2.8l4.9-2.5l8.1-4.2l-10.1-8.9L501.1,327.5z"/>
					</g>
					<g>
						<path class="st9" d="M435.2,374c-1.2,1.4-2.6,2.7-4.2,3.8c-3.4,2.3-6.7,3.1-9.9,2.4c-5-1-7.7-5.3-7.9-5.5
							c-0.2-0.4-0.1-0.8,0.2-1.1c0.4-0.2,0.8-0.1,1.1,0.2c0,0,2.6,3.9,6.9,4.8c2.8,0.6,5.7-0.2,8.8-2.2c10-6.7,9.1-19.8,9.1-19.9
							c0-0.4,0.3-0.8,0.7-0.8c0.4,0,0.8,0.3,0.8,0.7C440.8,357,441.4,366.7,435.2,374z"/>
					</g>
					<g>
						<path class="st9" d="M409,365.4l2.7,4.7c-0.8,0.6-1.2,1.7-1,2.9c0.2,1.7,1.6,2.8,3.1,2.6c1.5-0.2,2.5-1.8,2.2-3.4
							c-0.2-1.1-0.8-2-1.7-2.4l1.3-5.4l2.1-8.9l-13.3,2L409,365.4z"/>
					</g>
					<path class="st2" d="M345.4,441.6l-16,13c0,0,34.2,49.2,40.1,48.6c5.9-0.5,41-30.9,41.1-30.9c-1.3,1.1-1.1,9.7-1.3,11.4
						c-4.5,31.9-7.2,32.4-23.4,69.8c-13.5,31.2-1.6,59.3-23,88.7c-10.6,14.6-27.7,24.2-42.6,33.9c0,0,18.2,27.9,45,27.9
						s40.7-2.1,57.3,5.4c16.6,7.5,43,2.4,51.6-2.4c6.8-3.8,11.9-11.1,18.4-15.3c-9.1-28.3-14.2-55.1-20.8-84.1
						c-6.2-27-16.6-56.8-7.9-84.1c8.2-25.9,18.3-60.3-1.6-84.5c0,0-9.8-5.4-31.9-9s-58.2,40.3-58.2,40.3L345.4,441.6z"/>
					<g>
						<path class="st20" d="M407.8,450.6c0.5-0.4-0.9-2.5-1.1-3.6c1.7,3.6,3.2,7.7,4.3,6.8c0.4-0.4-0.7-5.7-0.7-6.6
							c0.7,1.7,1.8,6.3,3.4,5.5c1-0.5,0-5.9-0.7-9c0.6,1.9,2.1,7.8,2.7,7.3c1.2-1.1-1.5-14.3,0-16.3c0.6-0.8-1.3-2.4-3.7-3.1
							c-1.5-0.5-3.2-0.6-4.7-0.2c-2.2,0.3-4,1.4-5.3,2.2c-0.8,0.5-1.4,1.1-1.9,1.9c-1.4,2.2-1.4,5-0.2,7.3
							C401.6,446.1,406.4,451.8,407.8,450.6z"/>
						<path class="st20" d="M419.2,437.1c0,0-0.6-2.3-1.4-3.6c-0.8-1.2-8.7-4.1-12.9-1.4c-4.1,2.6,9.2,4.3,9.2,4.3s1.7,0.9,2.5,2.1
							s-0.1,3.8,1.1,4.3C418.9,443.3,420,439.8,419.2,437.1z"/>
					</g>
					<g>
						<path class="st20" d="M548.8,444.5c-0.5-0.4,0.9-2.5,1.1-3.6c-1.7,3.6-3.2,7.7-4.3,6.8c-0.4-0.4,0.7-5.7,0.7-6.6
							c-0.7,1.7-1.8,6.3-3.4,5.5c-1-0.5,0-5.9,0.7-9c-0.6,1.9-2.1,7.8-2.7,7.3c-1.2-1.1,1.5-14.3,0-16.3c-0.6-0.8,1.3-2.4,3.7-3.1
							c1.5-0.5,3.2-0.6,4.7-0.2c2.2,0.3,4,1.4,5.3,2.2c0.8,0.5,1.4,1.1,1.9,1.9c1.4,2.2,1.4,5,0.2,7.3
							C555,440,550.1,445.7,548.8,444.5z"/>
						<path class="st20" d="M537.3,430.9c0,0,0.6-2.3,1.4-3.6c0.8-1.2,8.7-4.1,12.9-1.4c4.1,2.6-9.2,4.3-9.2,4.3s-1.7,0.9-2.5,2.1
							s0.1,3.8-1.1,4.3C537.6,437.1,536.6,433.7,537.3,430.9z"/>
					</g>
					<path class="st17" d="M443.2,417.1c0,0-1.6,13.2-3.6,17.9c-2,4.7,1.6,22.9,11.6,26.4s1.9-21,2.4-26.1c0.6-5.1,5.1-20,5.1-20
						L443.2,417.1z"/>
					<path class="st14" d="M451.1,461.4c7.6,2.7,4.7-11,3.1-19.9v0.1c-3.3,9.2-10.2,4.7-15.1-0.2C440,448.7,443.9,458.9,451.1,461.4
						z"/>
					<path class="st8" d="M456.5,422.8c1.1-4.1,2.2-7.5,2.2-7.5l-15.5,1.8c0,0-0.3,2.7-0.9,6.1C447.8,426.4,452.7,425.6,456.5,422.8
						z"/>
					<path class="st17" d="M469.6,402.7c-1.1,2.7-3.3,4.3-4.8,3.6c-1.5-0.7-1.8-3.4-0.7-6.1c1.1-2.7,3.3-4.3,4.8-3.6
						C470.5,397.3,470.8,400.1,469.6,402.7z"/>
					<path class="st17" d="M449.1,381.1c0,0-6.1,1.2-10.1,6.9c-3.9,5.8-7.1,23.1,5,31.8c12.1,8.6,22.1-2.5,22.6-13.7
						C467.2,394.9,465.3,379.8,449.1,381.1z"/>
					<path class="st17" d="M438.4,403.7c0.8,3-0.1,5.8-2,6.3s-4.1-1.4-4.9-4.4s0.1-5.8,2-6.3C435.4,398.8,437.6,400.7,438.4,403.7z"
						/>
					<path class="st3" d="M431.4,396c0,0,26.4-10.6,35-5.3l-2.9-13.4c-1.3-6-14.8-3.3-18.8-2.7c-4.8,0.7-13.8,2.9-15.8,8
						C427.6,386.2,431.4,396,431.4,396z"/>
					<g>
						<path class="st2" d="M338.4,382.1l-3.4,8.7c-4.8,24.6-13.3,38.1-35,56.9l-1.6,1.9c0,0,5.2,16.3,21,11.6l0,0
							c10.4-21.3,23-40.6,38.3-58.9l5.7-6.1L338.4,382.1z"/>
						<path class="st16" d="M363.4,396.2c-0.8,1.3-7.1-0.8-14-4.7c-6.9-3.9-11.8-8.1-11-9.4s7.1,0.8,14,4.7
							C359.3,390.7,364.2,394.9,363.4,396.2z"/>
						<path class="st1" d="M363.4,396.2L363.4,396.2c0,0-15.6-7-18.8-11.4l-1.5,2.5c1.8,1.3,4,2.7,6.4,4.1
							C356.3,395.3,362.4,397.5,363.4,396.2z"/>
						<path class="st10" d="M332.2,422c0,0-2,1.4-0.9,3.2c1.1,1.8,5.2,2.6,5.2,2.6s-2.2,3.2-1.1,6.5s4.8-7.2,4.8-7.2l-0.1-2.7
							L332.2,422z"/>
						<path class="st7" d="M330.2,441c1.2-2.1,2.5-4.1,3.7-6.1c-2.7-5.5-6.1-11.9-8.7-15.8c-1.1,2-2.4,4-3.7,5.9
							C324,429.4,327.6,435.7,330.2,441z"/>
					</g>
				</g>
				<path class="st10" d="M325.3,418.8c0,0-2.7,0-3.5,0.5s0.2,2-0.8,2.9c-1.1,0.8-3.2,0.6-3,2.1c0.2,1.6-0.7,2.9-1.5,4.1
					c-0.8,1.1,3.6,7.8,5.7,8.1c2,0.2-1.9-8.3-1.5-8.2c0.4,0.2,3.5,5.7,4.7,5.2s-1.9-9.2-1.9-9.2s3.1,5.4,4.3,4.7
					C328.9,428.2,325.3,418.8,325.3,418.8z"/>
			</g>
			<g>
				<g>
					<path class="st9" d="M789.4,402.5c-1.6-0.8-3.2-1.9-4.6-3.3c-3-2.8-4.5-5.9-4.6-9.2c-0.1-5.1,3.5-8.7,3.6-8.9
						c0.3-0.3,0.8-0.3,1.1,0s0.3,0.8,0,1.1c0,0-3.3,3.3-3.2,7.8c0,2.8,1.4,5.6,4.1,8.1c8.7,8.3,21.4,4.6,21.6,4.5
						c0.4-0.1,0.8,0.1,1,0.5c0.1,0.4-0.1,0.8-0.5,1C807.3,404.2,797.9,407,789.4,402.5z"/>
				</g>
				<g>
					<path class="st9" d="M792,375l-4,3.7c-0.8-0.6-1.9-0.8-3-0.4c-1.6,0.6-2.4,2.2-1.9,3.6s2.3,2,3.8,1.4c1-0.4,1.8-1.2,2-2.2
						l5.5,0.1l9.2,0.1l-4.9-12.6L792,375z"/>
				</g>
			</g>
			<g>
				<path class="st2" d="M826.2,410.1c2,1.6,5.5,6.7,9.9,10.3c2.6,2.1,4.6,1.6,7.9,2c15.7,1.9,11.4,5.1,13.3,5.4
					c-0.5,1.2-5.4,11.6-6.3,13.7c-0.8,1.9-2.3,2.8-4.4,2.5c-3.2-0.4-6.5-0.8-9.7-1.5c-8.2-1.8-12.8-5.9-18.6-10.9
					c-1.6-1.3-1.9-3-1.1-4.8C820.8,418.2,825.8,410.9,826.2,410.1z"/>
				<path class="st1" d="M879.7,432.7c-9-7.5-18-15-27-22.5c-3-2.5-6.3-3.9-10.1-4.4c-2.9-0.3-31.6-3.9-34.5-4.3
					c-1.1-0.1-2.1-0.1-2.8,0.8c-1,1.2-0.8,2.7,0.4,3.7c9.1,7.7,18.3,15.3,27.4,23c2.6,2.2,5.7,3.5,9.1,4l35.5,4.3
					c1.6,0.3,2.6-0.3,3.1-1.5C881.2,434.7,880.9,433.7,879.7,432.7z"/>
			</g>
		</g>
		<polygon class="st5" points="908,327.6 914.4,325.5 918.9,335.5 928.7,333.6 933.3,340.4 936.7,338.1 930.6,328.9 921.4,330.7 
			916.7,320.4 907.1,323.5 		"/>
		<polygon class="st9" points="997.1,709.8 1003.5,707.7 1008,717.6 1017.8,715.7 1022.3,722.6 1025.8,720.3 1019.7,711.1 
			1010.5,712.9 1005.8,702.6 996.1,705.7 		"/>
		<g>
			<ellipse class="st9" cx="529.9" cy="195.7" rx="24" ry="24"/>
			<path class="st21" d="M516.6,196.9c-1.4,6.9,3.1,13.7,10,15.1c6.9,1.4,13.7-3.1,15.1-10L516.6,196.9z"/>
		</g>
		<g>
			<path class="st7" d="M195.7,472.5c-2-2.6-4.1-3.9-6.4-3.9c-13.1,0-16,38.5-16,52c0,15.4,1.7,28.6,4.9,38.3
				c3,8.9,6.9,13.8,11.2,13.8c4.5,0,8.6-5.6,11.6-15.8C208.5,530.8,205.7,485.9,195.7,472.5z M198.4,556.5c-2.5,8.4-5.9,13.5-9,13.5
				s-6.5-5-9-13.5c-2.8-9.4-4.4-22.2-4.4-35.9s1.5-26.5,4.4-35.9c2.5-8.4,5.9-13.5,9-13.5s6.5,5,9,13.5c2.8,9.4,4.4,22.2,4.4,35.9
				C202.7,534.4,201.2,547.1,198.4,556.5z"/>
			<path class="st7" d="M233.7,535c-10.5-17.3-58.8-43.2-80.8-43.2c-5.1,0-8.4,1.4-9.8,4.1c-1.4,2.6-0.9,5.8,1.4,9.5
				c10.5,17.4,58.7,43.3,80.7,43.3c5.1,0,8.5-1.4,9.9-4.2C236.4,542,236,538.8,233.7,535z M233.1,542.9c-0.8,2-3.5,3-7.9,3l0,0
				c-15.2,0-49.9-13-71.8-34.1c-8.3-8.1-9.1-12.1-8.3-14.1c0.8-1.9,3.5-3,7.8-3c8.1,0,20.8,3.5,33.9,9.4
				c14.8,6.6,28.3,15.4,37.9,24.7C233.1,536.8,233.9,540.9,233.1,542.9z"/>
			<path class="st7" d="M234.2,495.4c-1.5-2.8-4.8-4.2-9.8-4.2c-10,0-27,6-44.3,15.6c-17.3,9.6-31.1,20.6-36,28.8
				c-2.2,3.7-2.7,6.9-1.3,9.4c1.5,2.7,4.7,4.1,9.7,4.1c21.8,0,69.9-26.4,80.4-44.1C235.1,501.2,235.6,498,234.2,495.4z M209.8,522.9
				c-15.4,10.8-33.4,19.1-48.2,22.3c-3.5,0.8-6.6,1.2-9.2,1.2l0,0c-3.9,0-6.4-0.9-7.4-2.6c-0.9-1.6-0.5-3.9,1.2-6.7
				c4.4-7.5,17.6-18.2,33.6-27.3c17.2-9.8,33.9-15.6,44.7-15.6c5,0,7.6,1.3,7.9,3.9C233,503.1,224.1,512.9,209.8,522.9z"/>
			<path class="st8" d="M197.7,519.1c0,4.6-3.7,8.3-8.3,8.3s-8.3-3.7-8.3-8.3s3.7-8.3,8.3-8.3C193.9,510.7,197.7,514.5,197.7,519.1z
				"/>
			<path class="st8" d="M186.9,480c0,3.4-2.8,6.2-6.2,6.2s-6.2-2.8-6.2-6.2c0-3.4,2.8-6.2,6.2-6.2
				C184.1,473.8,186.9,476.6,186.9,480z"/>
			<path class="st8" d="M206.2,554.1c0,2.9-2.3,5.2-5.2,5.2s-5.2-2.3-5.2-5.2s2.3-5.2,5.2-5.2C203.8,548.9,206.2,551.2,206.2,554.1z
				"/>
			<path class="st8" d="M155.7,529.1c0,3-2.4,5.4-5.4,5.4s-5.4-2.4-5.4-5.4s2.4-5.4,5.4-5.4C153.3,523.7,155.7,526.2,155.7,529.1z"
				/>
			<path class="st8" d="M235.3,505.1c0,2.4-2,4.4-4.4,4.4s-4.4-2-4.4-4.4s2-4.4,4.4-4.4S235.3,502.7,235.3,505.1z"/>
			<path class="st8" d="M169.8,495.8c0,2.4-2,4.4-4.4,4.4s-4.4-2-4.4-4.4s2-4.4,4.4-4.4S169.8,493.4,169.8,495.8z"/>
		</g>
		<g>
			<g>
				
					<rect x="1063.8" y="590.9" transform="matrix(0.9504 -0.3109 0.3109 0.9504 -131.0582 363.5248)" class="st22" width="21.9" height="3.8"/>
			</g>
			<g>
				
					<rect x="1031.5" y="555.4" transform="matrix(0.4738 -0.8806 0.8806 0.4738 58.0697 1211.7502)" class="st22" width="23.1" height="3.8"/>
			</g>
			<g>
				
					<rect x="1059" y="631.1" transform="matrix(0.7602 -0.6497 0.6497 0.7602 -163.4449 843.5099)" class="st22" width="3.8" height="24.1"/>
			</g>
			<g>
				<polygon class="st22" points="1054.4,634.3 1016.4,644.5 987.7,620.7 990.1,617.8 1017.3,640.4 1051.3,631.2 1061,596.2 
					1035.9,569.4 1038.7,566.8 1065.2,595.2 				"/>
			</g>
			<g>
				<path class="st15" d="M996.8,616.1c1.7,4.8-0.8,10-5.6,11.7s-10-0.8-11.7-5.6s0.8-10,5.6-11.7
					C989.9,608.9,995.2,611.4,996.8,616.1z"/>
			</g>
			<g>
				<path class="st15" d="M1025.6,640.7c1.7,4.8-0.8,10-5.6,11.7c-4.8,1.7-10-0.8-11.7-5.6s0.8-10,5.6-11.7
					C1018.7,633.4,1023.9,635.9,1025.6,640.7z"/>
			</g>
			<g>
				<path class="st15" d="M1061.6,629.7c1.7,4.8-0.8,10-5.6,11.7c-4.8,1.7-10-0.8-11.7-5.6s0.8-10,5.6-11.7
					C1054.7,622.5,1059.9,625,1061.6,629.7z"/>
			</g>
			<g>
				<path class="st15" d="M1080,651.6c1.7,4.8-0.8,10-5.6,11.7c-4.8,1.7-10-0.8-11.7-5.6s0.8-10,5.6-11.7
					C1073.1,644.4,1078.3,646.9,1080,651.6z"/>
			</g>
			<g>
				<path class="st15" d="M1099.6,585.2c1.7,4.8-0.8,10-5.6,11.7c-4.8,1.7-10-0.8-11.7-5.6s0.8-10,5.6-11.7
					C1092.7,578,1097.9,580.5,1099.6,585.2z"/>
			</g>
			<g>
				<path class="st15" d="M1060.7,540.5c1.7,4.8-0.8,10-5.6,11.7c-4.8,1.7-10-0.8-11.7-5.6s0.8-10,5.6-11.7
					C1053.8,533.3,1059,535.8,1060.7,540.5z"/>
			</g>
			<g>
				<path class="st15" d="M1073.2,592.2c1.7,4.8-0.8,10-5.6,11.7c-4.8,1.7-10-0.8-11.7-5.6s0.8-10,5.6-11.7
					C1066.3,585,1071.5,587.5,1073.2,592.2z"/>
			</g>
			<g>
				<path class="st15" d="M1046.2,564.4c1.7,4.8-0.8,10-5.6,11.7c-4.8,1.7-10-0.8-11.7-5.6s0.8-10,5.6-11.7
					C1039.3,557.1,1044.5,559.6,1046.2,564.4z"/>
			</g>
		</g>
		<g>
			<polygon class="st8" points="1042,502.6 1029.8,500.1 1032.4,490.2 1036,491.1 1034.5,497.2 1042.8,498.9 			"/>
		</g>
		<polygon class="st5" points="213.7,612 211,619.7 198.2,616.6 192.8,627.3 182.8,626.6 182.4,631.6 195.8,632.6 200.9,622.5 
			214.2,625.7 218.3,614.2 		"/>
		<polygon class="st22" points="202,399.5 208.7,400.2 208.8,411.1 218.5,413.3 219.8,421.5 224,420.7 222.1,409.9 213,407.7 
			212.9,396.4 202.8,395.4 		"/>
	</g>
</g>
</svg>
