<?xml version="1.0" encoding="utf-8"?>
<!-- Generator: Adobe Illustrator 24.0.2, SVG Export Plug-In . SVG Version: 6.00 Build 0)  -->
<svg version="1.1" id="Layer_1" xmlns="http://www.w3.org/2000/svg" xmlns:xlink="http://www.w3.org/1999/xlink" x="0px" y="0px"
	 viewBox="0 0 1900 1080" style="enable-background:new 0 0 1900 1080;" xml:space="preserve">
<style type="text/css">
	.st0{fill:url(#SVGID_1_);}
	.st1{fill-rule:evenodd;clip-rule:evenodd;fill:#615F9D;}
	.st2{fill-rule:evenodd;clip-rule:evenodd;fill:#3F508D;}
	.st3{fill-rule:evenodd;clip-rule:evenodd;fill:#9083BF;}
	.st4{fill-rule:evenodd;clip-rule:evenodd;fill:#AD5F9D;}
	.st5{fill-rule:evenodd;clip-rule:evenodd;fill:#8B508D;}
	.st6{fill-rule:evenodd;clip-rule:evenodd;fill:#DC83BF;}
	.st7{fill-rule:evenodd;clip-rule:evenodd;fill:#DD8DC6;}
	.st8{fill-rule:evenodd;clip-rule:evenodd;fill:#20282E;}
	.st9{fill:#F3BB54;}
	.st10{fill:#D1DEF6;}
	.st11{fill-rule:evenodd;clip-rule:evenodd;fill:#FCDEC9;}
	.st12{fill:#E28A19;}
	.st13{fill:#DCA632;}
	.st14{fill:#A76B58;}
	.st15{fill-rule:evenodd;clip-rule:evenodd;fill:#D28224;}
	.st16{fill-rule:evenodd;clip-rule:evenodd;fill:#A76B58;}
	.st17{fill:#73D8F5;}
	.st18{fill-rule:evenodd;clip-rule:evenodd;fill:#49A7E2;}
	.st19{fill-rule:evenodd;clip-rule:evenodd;fill:#FBF9F5;}
	.st20{fill-rule:evenodd;clip-rule:evenodd;fill:#98E5FF;}
	.st21{fill-rule:evenodd;clip-rule:evenodd;fill:#61C0FC;}
	.st22{fill-rule:evenodd;clip-rule:evenodd;fill:#DBEDF7;}
	.st23{fill-rule:evenodd;clip-rule:evenodd;fill:#47323E;}
	.st24{fill-rule:evenodd;clip-rule:evenodd;fill:#B3C9D2;stroke:#DBEDF7;stroke-width:1.319600e-02;stroke-miterlimit:10;}
	.st25{fill-rule:evenodd;clip-rule:evenodd;fill:#EC9250;}
	.st26{fill-rule:evenodd;clip-rule:evenodd;fill:#304344;}
	.st27{fill-rule:evenodd;clip-rule:evenodd;fill:#9BAEB8;}
	.st28{fill-rule:evenodd;clip-rule:evenodd;fill:#FBFFFF;}
	.st29{fill-rule:evenodd;clip-rule:evenodd;fill:#EBFDFF;}
	.st30{fill:#FBFFFF;}
	.st31{fill-rule:evenodd;clip-rule:evenodd;fill:#3B4851;}
	.st32{fill-rule:evenodd;clip-rule:evenodd;fill:#B4CBCB;}
	.st33{fill-rule:evenodd;clip-rule:evenodd;fill:#2C3E48;}
	.st34{fill-rule:evenodd;clip-rule:evenodd;fill:#EAFDFF;}
	.st35{fill-rule:evenodd;clip-rule:evenodd;fill:#212C36;}
	.st36{fill-rule:evenodd;clip-rule:evenodd;fill:#00AFFF;}
	.st37{fill:#E8FCE1;}
	.st38{fill:#F9E791;}
	.st39{fill:#FBFCAD;}
	.st40{fill:#FBFFD2;}
	.st41{fill:#FCFFFF;}
	.st42{fill:#94A1A9;}
	.st43{fill:#3B4851;}
	.st44{fill-rule:evenodd;clip-rule:evenodd;fill:#566670;}
	.st45{fill-rule:evenodd;clip-rule:evenodd;fill:#4A4E53;}
	.st46{fill:#B7D5EE;}
	.st47{fill:#F2FFFF;}
	.st48{fill:#4A4E54;}
	.st49{fill:#1A292E;}
	.st50{fill:#1B252C;}
	.st51{fill:#16242D;}
	.st52{fill:#566670;}
	.st53{fill-rule:evenodd;clip-rule:evenodd;fill:#8597A2;}
	.st54{fill:#EAFFFF;}
	.st55{fill:#1E312D;}
	.st56{fill:#4A4E53;}
	.st57{fill-rule:evenodd;clip-rule:evenodd;fill:#7B8B97;}
	.st58{fill-rule:evenodd;clip-rule:evenodd;fill:#E3F5FF;}
	.st59{fill-rule:evenodd;clip-rule:evenodd;fill:#C9DBE5;}
	.st60{fill-rule:evenodd;clip-rule:evenodd;fill:#485A64;}
	.st61{fill-rule:evenodd;clip-rule:evenodd;fill:#FCA219;}
	.st62{fill-rule:evenodd;clip-rule:evenodd;fill:#A2B6C3;}
	.st63{fill-rule:evenodd;clip-rule:evenodd;fill:#1E2E38;}
	.st64{fill-rule:evenodd;clip-rule:evenodd;fill:#3F515D;}
	.st65{fill:#232D35;}
	.st66{fill-rule:evenodd;clip-rule:evenodd;fill:#232D35;}
	.st67{fill-rule:evenodd;clip-rule:evenodd;fill:#E43624;}
	.st68{fill-rule:evenodd;clip-rule:evenodd;fill:#E76557;}
	.st69{fill-rule:evenodd;clip-rule:evenodd;fill:#263039;}
	.st70{fill-rule:evenodd;clip-rule:evenodd;fill:#F2BFA9;}
	.st71{fill-rule:evenodd;clip-rule:evenodd;fill:#F0BEA7;}
	.st72{fill-rule:evenodd;clip-rule:evenodd;fill:#7D3F50;}
	.st73{fill-rule:evenodd;clip-rule:evenodd;fill:#F0AF96;}
	.st74{fill-rule:evenodd;clip-rule:evenodd;fill:#FC6F85;}
	.st75{fill-rule:evenodd;clip-rule:evenodd;fill:#7D6673;}
	.st76{fill-rule:evenodd;clip-rule:evenodd;fill:#FCFFFF;}
	.st77{fill-rule:evenodd;clip-rule:evenodd;fill:#20323C;}
	.st78{fill-rule:evenodd;clip-rule:evenodd;fill:#CBDFEA;}
	.st79{fill-rule:evenodd;clip-rule:evenodd;fill:#ED9C19;}
	.st80{fill-rule:evenodd;clip-rule:evenodd;fill:#C37542;}
	.st81{fill-rule:evenodd;clip-rule:evenodd;fill:#E4F7FF;}
	.st82{fill-rule:evenodd;clip-rule:evenodd;fill:#F1BB48;}
	.st83{fill-rule:evenodd;clip-rule:evenodd;fill:#3B4952;}
	.st84{fill-rule:evenodd;clip-rule:evenodd;fill:#3D3C28;}
	.st85{fill:#20282E;}
	.st86{fill-rule:evenodd;clip-rule:evenodd;fill:#1F3039;}
	.st87{fill:#3B4247;}
	.st88{fill:#313436;}
	.st89{fill:#33373A;}
	.st90{fill:#C5D8E2;}
	.st91{fill-rule:evenodd;clip-rule:evenodd;fill:#F8BF54;}
	.st92{fill-rule:evenodd;clip-rule:evenodd;fill:#7D6938;}
	.st93{fill-rule:evenodd;clip-rule:evenodd;fill:#6D4D70;}
	.st94{fill-rule:evenodd;clip-rule:evenodd;fill:#F7E8E1;}
	.st95{fill-rule:evenodd;clip-rule:evenodd;fill:#7D567C;}
	.st96{fill-rule:evenodd;clip-rule:evenodd;fill:#FC9EDE;}
	.st97{fill-rule:evenodd;clip-rule:evenodd;fill:#F2F2F2;}
	.st98{fill-rule:evenodd;clip-rule:evenodd;}
	.st99{fill-rule:evenodd;clip-rule:evenodd;fill:#E20F2B;}
	.st100{fill-rule:evenodd;clip-rule:evenodd;fill:#20282E;stroke:#20282E;stroke-width:3.771100e-02;stroke-miterlimit:10;}
</style>
<g id="Layer_2_1_">
	
		<linearGradient id="SVGID_1_" gradientUnits="userSpaceOnUse" x1="-159.4697" y1="405.9" x2="2338.4697" y2="405.9" gradientTransform="matrix(1 0 0 -1 0 1080)">
		<stop  offset="0" style="stop-color:#553D93"/>
		<stop  offset="1" style="stop-color:#2B1E6E"/>
	</linearGradient>
	<path class="st0" d="M48.1,830.7c447.4-36,565.1-117.1,581-190c6.4-29.3-4.5-53.9,10.2-108.3C669.6,420,762.6,352.9,790.4,334.3
		c141.1-94.1,235.5-62.2,299.1-142.9c59.7-75.7,30.2-184.7-37.6-243.1c-35.4-30.5-53.5-24.4-53.8-32.7
		c-1.2-35.3,635.1-283.7,1026-4.1c401.4,287.1,400.9,1035.9,98,1382.8c-571.2,654.3-2293-35.5-2281.5-310.5
		C-156.6,917.6-52.5,866.3,48.1,830.7z"/>
</g>
<g id="Layer_1_1_">
	<g id="Layer_2_2_">
		<g>
			<g>
				<path class="st1" d="M327.6,887.5C371.4,764,209.8,588.1,78.4,552.7C54.6,705.9,178,889.4,327.6,887.5L327.6,887.5z"/>
				<path class="st2" d="M78.4,552.7C54.6,705.9,178,889.4,327.6,887.5C299.9,787.9,160.6,616.4,78.4,552.7L78.4,552.7z"/>
				<path class="st3" d="M78.4,552.7c87.1,81.1,205.5,225.8,245.6,334.8c1.2,0,2.4,0,3.6,0C299.9,787.9,160.6,616.4,78.4,552.7
					L78.4,552.7z"/>
				<polygon class="st3" points="287.1,804.3 195.4,784.2 285.8,801.6 				"/>
				<path class="st3" d="M273.2,784.7c0.5-1.4,1-71.7,1-71.7l-2.7,68.8L273.2,784.7z"/>
				<path class="st3" d="M244.6,740.7c0,0-88-15.9-86.2-16c1.8-0.2,87.7,18.4,87.7,18.4L244.6,740.7z"/>
				<path class="st3" d="M220.4,705.6c1.4-1.1-10.6-63-10.6-63l7.8,62.4L220.4,705.6z"/>
				<polygon class="st3" points="184.8,663.9 121.6,644.6 186.3,666.3 				"/>
				<path class="st3" d="M156,629.7c-0.1-0.9-12-41-12-41l9.8,39.7L156,629.7z"/>
				<path class="st3" d="M129.1,600.4c-1.1-0.9-39.4-18.5-37.8-17.6c1.5,0.8,38.6,19.9,38.6,19.9L129.1,600.4z"/>
				<path class="st1" d="M348,882.9c91.7-50.7,88.3-241.6,28.4-332.5C280.9,629.4,257.4,804.7,348,882.9L348,882.9z"/>
				<path class="st2" d="M376.4,550.3c-95.5,79.1-119,254.4-28.4,332.5C384.2,808.6,391.7,632.1,376.4,550.3L376.4,550.3z"/>
				<path class="st3" d="M376.4,550.3c9.1,94.7,3.2,244.1-30.6,330.6c0.7,0.6,1.4,1.3,2.2,1.9C384.2,808.6,391.7,632.1,376.4,550.3
					L376.4,550.3z"/>
				<polygon class="st3" points="367.9,811.6 323.7,751 368.5,809.3 				"/>
				<path class="st3" d="M369.9,792.5c1.1-0.6,38.6-42.4,38.6-42.4l-38.1,39.8L369.9,792.5z"/>
				<path class="st3" d="M376.1,751c0,0-44.3-56.2-43.1-55.3c1.2,0.8,42.7,57.5,42.7,57.5L376.1,751z"/>
				<path class="st3" d="M380.3,717.1c1.4,0.1,27.1-43.3,27.1-43.3L379,715.3L380.3,717.1z"/>
				<polygon class="st3" points="381.1,673.4 353.5,628.3 380.7,675.5 				"/>
				<path class="st3" d="M382,637.6c0.4-0.6,14.5-30.9,14.5-30.9l-15.1,28.9L382,637.6z"/>
				<path class="st3" d="M381.4,605.8c-0.2-1.1-13.8-31.9-13.3-30.6c0.5,1.3,12.6,32.3,12.6,32.3L381.4,605.8z"/>
				<path class="st1" d="M324.3,904.7C300.9,802.6,116.4,753.1,12.5,785.5C62.2,899.2,224.2,970.2,324.3,904.7L324.3,904.7z"/>
				<path class="st2" d="M12.5,785.5c49.6,113.6,211.6,184.6,311.7,119.2C262.9,849.4,95.4,793.4,12.5,785.5L12.5,785.5z"/>
				<path class="st3" d="M12.5,785.5C106.1,803,248,849.9,321.8,906.3c0.8-0.5,1.6-1,2.4-1.6C262.9,849.4,95.4,793.4,12.5,785.5
					L12.5,785.5z"/>
				<polygon class="st3" points="261.3,865.9 190.8,891.7 259.2,864.7 				"/>
				<path class="st3" d="M243.5,858.7c-0.3-1.2-30.1-48.8-30.1-48.8l27.7,47.6L243.5,858.7z"/>
				<path class="st3" d="M205.3,841.2c0,0-66.2,27-65.1,26.1s67.1-25.2,67.1-25.2L205.3,841.2z"/>
				<path class="st3" d="M173.9,827.9c0.5-1.3-34.1-38-34.1-38l32,38.8L173.9,827.9z"/>
				<polygon class="st3" points="132.1,815 81.2,829.1 134.1,816 				"/>
				<path class="st3" d="M98,804.2c-0.4-0.6-25.7-22.5-25.7-22.5l23.6,22.6L98,804.2z"/>
				<path class="st3" d="M67.2,796c-1.1-0.1-34.5,4.4-33.1,4.3c1.4-0.1,34.5-3.1,34.5-3.1L67.2,796z"/>
			</g>
			<g>
				<path class="st4" d="M1070.5,921.2c-43.8-123.5,117.8-299.4,249.2-334.8C1343.5,739.6,1220,923.1,1070.5,921.2L1070.5,921.2z"/>
				<path class="st5" d="M1319.7,586.4c23.8,153.2-99.7,336.8-249.2,334.8C1098.1,821.6,1237.5,650.1,1319.7,586.4L1319.7,586.4z"/>
				<path class="st6" d="M1319.7,586.4c-87.1,81.1-205.5,225.8-245.6,334.8c-1.2,0-2.4,0-3.6,0
					C1098.1,821.6,1237.5,650.1,1319.7,586.4L1319.7,586.4z"/>
				<polygon class="st6" points="1110.9,838 1202.6,817.9 1112.3,835.3 				"/>
				<path class="st6" d="M1124.9,818.4c-0.5-1.4-1-71.7-1-71.7l2.7,68.8L1124.9,818.4z"/>
				<path class="st6" d="M1153.5,774.4c0,0,88-15.9,86.2-16c-1.8-0.2-87.7,18.4-87.7,18.4L1153.5,774.4z"/>
				<path class="st6" d="M1177.7,739.3c-1.4-1.1,10.6-63,10.6-63l-7.8,62.4L1177.7,739.3z"/>
				<polygon class="st6" points="1213.2,697.6 1276.4,678.3 1211.8,700 				"/>
				<path class="st6" d="M1242,663.4c0.1-0.9,12-41,12-41l-9.8,39.7L1242,663.4z"/>
				<path class="st6" d="M1269,634.1c1.1-0.9,39.4-18.5,37.8-17.6c-1.5,0.8-38.6,19.9-38.6,19.9L1269,634.1z"/>
				<path class="st4" d="M1050.1,916.6c-91.7-50.7-88.3-241.6-28.4-332.5C1117.2,663.1,1140.6,838.4,1050.1,916.6L1050.1,916.6z"/>
				<path class="st5" d="M1021.7,584c95.5,79.1,119,254.4,28.4,332.5C1013.8,842.3,1006.3,665.8,1021.7,584L1021.7,584z"/>
				<path class="st6" d="M1021.7,584c-9.1,94.7-3.2,244.1,30.6,330.6c-0.7,0.6-1.4,1.3-2.2,1.9
					C1013.8,842.3,1006.3,665.8,1021.7,584L1021.7,584z"/>
				<polygon class="st6" points="1030.2,845.3 1074.4,784.7 1029.5,843 				"/>
				<path class="st6" d="M1028.1,826.2c-1.1-0.6-38.6-42.4-38.6-42.4l38.1,39.8L1028.1,826.2z"/>
				<path class="st6" d="M1021.9,784.7c0,0,44.3-56.2,43.1-55.3c-1.2,0.8-42.7,57.5-42.7,57.5L1021.9,784.7z"/>
				<path class="st6" d="M1017.8,750.8c-1.4,0.1-27.1-43.3-27.1-43.3l28.4,41.5L1017.8,750.8z"/>
				<polygon class="st6" points="1016.9,707.1 1044.5,662 1017.3,709.2 				"/>
				<path class="st6" d="M1016,671.3c-0.4-0.6-14.5-30.9-14.5-30.9l15.1,28.9L1016,671.3z"/>
				<path class="st6" d="M1016.6,639.5c0.2-1.1,13.8-31.9,13.3-30.6c-0.5,1.3-12.6,32.3-12.6,32.3L1016.6,639.5z"/>
				<path class="st4" d="M1073.8,938.4c23.4-102.1,207.8-151.6,311.7-119.2C1335.9,932.9,1173.9,1003.9,1073.8,938.4L1073.8,938.4z"
					/>
				<path class="st5" d="M1385.5,819.2c-49.6,113.6-211.6,184.6-311.7,119.2C1135.1,883.1,1302.7,827.1,1385.5,819.2L1385.5,819.2z"
					/>
				<path class="st6" d="M1385.5,819.2c-93.6,17.5-235.5,64.4-309.3,120.8c-0.8-0.5-1.6-1-2.4-1.6
					C1135.1,883.1,1302.7,827.1,1385.5,819.2L1385.5,819.2z"/>
				<polygon class="st6" points="1136.7,899.6 1207.2,925.4 1138.8,898.4 				"/>
				<path class="st6" d="M1154.5,892.4c0.3-1.2,30.1-48.8,30.1-48.8l-27.7,47.6L1154.5,892.4z"/>
				<path class="st6" d="M1192.7,874.9c0,0,66.2,27,65.1,26.1s-67.1-25.2-67.1-25.2L1192.7,874.9z"/>
				<path class="st6" d="M1224.1,861.6c-0.5-1.3,34.1-38,34.1-38l-32,38.8L1224.1,861.6z"/>
				<polygon class="st6" points="1265.9,848.7 1316.8,862.8 1263.9,849.7 				"/>
				<path class="st6" d="M1300.1,837.9c0.4-0.6,25.7-22.5,25.7-22.5l-23.6,22.6L1300.1,837.9z"/>
				<path class="st6" d="M1330.8,829.7c1.1-0.1,34.5,4.4,33.1,4.3c-1.4-0.1-34.5-3.1-34.5-3.1L1330.8,829.7z"/>
			</g>
			<g>
				<path class="st7" d="M107.9,695.8c-3,8.4,44,42.3,51.4,42c7.4-0.4,57.1-31.1,57.1-31.1l-3-5.9c0,0-48.1,21.8-52.6,20.6
					C143.2,716.6,115.5,674.6,107.9,695.8L107.9,695.8z"/>
				<path class="st8" d="M668.3,530.8c51.3,0,93.2-6.1,93.2-13.7c0-7.5-41.9-13.7-93.2-13.7s-93.2,6.1-93.2,13.7
					C575.1,524.7,617,530.8,668.3,530.8L668.3,530.8z"/>
				<rect x="483.7" y="572.9" class="st9" width="363.1" height="363.1"/>
				<path class="st10" d="M482,936c-1.3-67.7-15.5-133.7-42-196.2c-4.1-9.7-10.4-23.4-18.4-37.6H484V936H482z"/>
				<rect x="591.4" y="813.6" class="st11" width="147.8" height="122.5"/>
				<rect x="596.2" y="818.4" class="st12" width="138.2" height="117.6"/>
				<rect x="294.5" y="702.2" class="st13" width="189.5" height="233.8"/>
				<rect x="846.7" y="702.2" class="st13" width="189.5" height="233.8"/>
				<polygon class="st14" points="666,481.2 453.1,576 878.9,576 				"/>
				<polygon class="st9" points="483.7,576 483.7,592.8 846.8,592.7 846.8,576 666,492.7 				"/>
				<rect x="665.3" y="818.4" class="st15" width="69.1" height="117.6"/>
				<rect x="667.8" y="872.9" class="st16" width="4" height="14.6"/>
				<rect x="658.8" y="872.9" class="st16" width="4" height="14.6"/>
				<rect x="508.8" y="621.8" class="st11" width="53.6" height="75.1"/>
				<rect x="512" y="625" class="st17" width="47.2" height="68.7"/>
				<rect x="556.1" y="625" class="st18" width="3.1" height="68.7"/>
				<rect x="506.8" y="693.8" class="st19" width="57.1" height="5.8"/>
				<polygon class="st20" points="541.8,625 512,652.2 512,690 556.1,649.8 556.1,625 				"/>
				<polygon class="st21" points="556.1,625 556.1,649.8 559.2,647 559.2,625 				"/>
				<rect x="508.8" y="724.8" class="st11" width="53.6" height="75.1"/>
				<rect x="512" y="728" class="st17" width="47.2" height="68.7"/>
				<rect x="556.1" y="728" class="st18" width="3.1" height="68.7"/>
				<rect x="506.8" y="796.7" class="st19" width="57.1" height="5.8"/>
				<polygon class="st20" points="541.8,728 512,755.2 512,793 556.1,752.7 556.1,728 				"/>
				<polygon class="st21" points="556.1,728 556.1,752.7 559.2,749.9 559.2,728 				"/>
				<rect x="508.8" y="827.8" class="st11" width="53.6" height="75.2"/>
				<rect x="512" y="831" class="st17" width="47.2" height="68.7"/>
				<rect x="556.1" y="831" class="st18" width="3.1" height="68.7"/>
				<rect x="506.8" y="899.7" class="st19" width="57.1" height="5.8"/>
				<polygon class="st20" points="541.8,831 512,858.1 512,896 556.1,855.7 556.1,831 				"/>
				<polygon class="st21" points="556.1,831 556.1,855.7 559.2,852.9 559.2,831 				"/>
				<rect x="595.4" y="621.8" class="st11" width="53.6" height="75.1"/>
				<rect x="598.6" y="625" class="st17" width="47.2" height="68.7"/>
				<rect x="642.7" y="625" class="st18" width="3.1" height="68.7"/>
				<rect x="593.4" y="693.8" class="st19" width="57.1" height="5.8"/>
				<polygon class="st20" points="628.4,625 598.6,652.2 598.6,690 642.7,649.8 642.7,625 				"/>
				<polygon class="st21" points="642.7,625 642.7,649.8 645.8,647 645.8,625 				"/>
				<rect x="682" y="621.8" class="st11" width="53.6" height="75.1"/>
				<rect x="685.2" y="625" class="st17" width="47.2" height="68.7"/>
				<rect x="729.3" y="625" class="st18" width="3.1" height="68.7"/>
				<rect x="680" y="693.8" class="st19" width="57.1" height="5.8"/>
				<polygon class="st20" points="715,625 685.2,652.2 685.2,690 729.3,649.8 729.3,625 				"/>
				<polygon class="st21" points="729.3,625 729.3,649.8 732.4,647 732.4,625 				"/>
				<rect x="768.6" y="621.8" class="st11" width="53.6" height="75.1"/>
				<rect x="771.8" y="625" class="st17" width="47.2" height="68.7"/>
				<rect x="815.9" y="625" class="st18" width="3.1" height="68.7"/>
				<rect x="766.6" y="693.8" class="st19" width="57.1" height="5.8"/>
				<polygon class="st20" points="801.6,625 771.8,652.2 771.8,690 815.9,649.8 815.9,625 				"/>
				<polygon class="st21" points="815.9,625 815.9,649.8 819,647 819,625 				"/>
				<rect x="595.4" y="724.8" class="st11" width="53.6" height="75.1"/>
				<rect x="598.6" y="728" class="st17" width="47.2" height="68.7"/>
				<rect x="642.7" y="728" class="st18" width="3.1" height="68.7"/>
				<rect x="593.4" y="796.7" class="st19" width="57.1" height="5.8"/>
				<polygon class="st20" points="628.4,728 598.6,755.2 598.6,793 642.7,752.7 642.7,728 				"/>
				<polygon class="st21" points="642.7,728 642.7,752.7 645.8,749.9 645.8,728 				"/>
				<rect x="682" y="724.8" class="st11" width="53.6" height="75.1"/>
				<rect x="685.2" y="728" class="st17" width="47.2" height="68.7"/>
				<rect x="729.3" y="728" class="st18" width="3.1" height="68.7"/>
				<rect x="680" y="796.7" class="st19" width="57.1" height="5.8"/>
				<polygon class="st20" points="715,728 685.2,755.2 685.2,793 729.3,752.7 729.3,728 				"/>
				<polygon class="st21" points="729.3,728 729.3,752.7 732.4,749.9 732.4,728 				"/>
				<rect x="768.6" y="724.8" class="st11" width="53.6" height="75.1"/>
				<rect x="771.8" y="728" class="st17" width="47.2" height="68.7"/>
				<rect x="815.9" y="728" class="st18" width="3.1" height="68.7"/>
				<rect x="766.6" y="796.7" class="st19" width="57.1" height="5.8"/>
				<polygon class="st20" points="801.6,728 771.8,755.2 771.8,793 815.9,752.7 815.9,728 				"/>
				<polygon class="st21" points="815.9,728 815.9,752.7 819,749.9 819,728 				"/>
				<rect x="768.6" y="824.5" class="st11" width="53.6" height="75.2"/>
				<rect x="771.8" y="827.7" class="st17" width="47.2" height="68.7"/>
				<rect x="815.9" y="827.7" class="st18" width="3.1" height="68.7"/>
				<rect x="766.6" y="896.4" class="st19" width="57.1" height="5.8"/>
				<polygon class="st20" points="801.6,827.7 771.8,854.9 771.8,892.7 815.9,852.4 815.9,827.7 				"/>
				<polygon class="st21" points="815.9,827.7 815.9,852.4 819,849.6 819,827.7 				"/>
				<rect x="319.4" y="728.8" class="st11" width="53.6" height="75.2"/>
				<rect x="322.6" y="732" class="st17" width="47.2" height="68.7"/>
				<rect x="366.7" y="732" class="st18" width="3.1" height="68.7"/>
				<rect x="317.4" y="800.7" class="st19" width="57.1" height="5.8"/>
				<polygon class="st20" points="352.4,732 322.6,759.2 322.6,797 366.7,756.7 366.7,732 				"/>
				<polygon class="st21" points="366.7,732 366.7,756.7 369.8,753.9 369.8,732 				"/>
				<rect x="406" y="728.8" class="st11" width="53.6" height="75.2"/>
				<rect x="409.2" y="732" class="st17" width="47.2" height="68.7"/>
				<rect x="453.3" y="732" class="st18" width="3.1" height="68.7"/>
				<rect x="404" y="800.7" class="st19" width="57.1" height="5.8"/>
				<polygon class="st20" points="439,732 409.2,759.2 409.2,797 453.3,756.7 453.3,732 				"/>
				<polygon class="st21" points="453.3,732 453.3,756.7 456.3,753.9 456.3,732 				"/>
				<rect x="319.4" y="831.7" class="st11" width="53.6" height="75.2"/>
				<rect x="322.6" y="834.9" class="st17" width="47.2" height="68.7"/>
				<rect x="366.7" y="834.9" class="st18" width="3.1" height="68.7"/>
				<rect x="317.4" y="903.7" class="st19" width="57.1" height="5.8"/>
				<polygon class="st20" points="352.4,834.9 322.6,862.1 322.6,899.9 366.7,859.7 366.7,834.9 				"/>
				<polygon class="st21" points="366.7,834.9 366.7,859.7 369.8,856.9 369.8,834.9 				"/>
				<rect x="406" y="831.7" class="st11" width="53.6" height="75.2"/>
				<rect x="409.2" y="834.9" class="st17" width="47.2" height="68.7"/>
				<rect x="453.3" y="834.9" class="st18" width="3.1" height="68.7"/>
				<rect x="404" y="903.7" class="st19" width="57.1" height="5.8"/>
				<polygon class="st20" points="439,834.9 409.2,862.1 409.2,899.9 453.3,859.7 453.3,834.9 				"/>
				<polygon class="st21" points="453.3,834.9 453.3,859.7 456.3,856.9 456.3,834.9 				"/>
				<rect x="871.6" y="728.8" class="st11" width="53.6" height="75.2"/>
				<rect x="874.8" y="732" class="st17" width="47.2" height="68.7"/>
				<rect x="918.9" y="732" class="st18" width="3.1" height="68.7"/>
				<rect x="869.6" y="800.7" class="st19" width="57.1" height="5.8"/>
				<polygon class="st20" points="904.6,732 874.8,759.2 874.8,797 918.9,756.7 918.9,732 				"/>
				<polygon class="st21" points="918.9,732 918.9,756.7 921.9,753.9 921.9,732 				"/>
				<rect x="958.2" y="728.8" class="st11" width="53.6" height="75.2"/>
				<rect x="961.4" y="732" class="st17" width="47.2" height="68.7"/>
				<rect x="1005.4" y="732" class="st18" width="3.1" height="68.7"/>
				<rect x="956.2" y="800.7" class="st19" width="57.1" height="5.8"/>
				<polygon class="st20" points="991.1,732 961.4,759.2 961.4,797 1005.4,756.7 1005.4,732 				"/>
				<polygon class="st21" points="1005.4,732 1005.4,756.7 1008.5,753.9 1008.5,732 				"/>
				<rect x="871.6" y="831.7" class="st11" width="53.6" height="75.2"/>
				<rect x="874.8" y="834.9" class="st17" width="47.2" height="68.7"/>
				<rect x="918.9" y="834.9" class="st18" width="3.1" height="68.7"/>
				<rect x="869.6" y="903.7" class="st19" width="57.1" height="5.8"/>
				<polygon class="st20" points="904.6,834.9 874.8,862.1 874.8,899.9 918.9,859.7 918.9,834.9 				"/>
				<polygon class="st21" points="918.9,834.9 918.9,859.7 921.9,856.9 921.9,834.9 				"/>
				<rect x="958.2" y="831.7" class="st11" width="53.6" height="75.2"/>
				<rect x="961.4" y="834.9" class="st17" width="47.2" height="68.7"/>
				<rect x="1005.4" y="834.9" class="st18" width="3.1" height="68.7"/>
				<rect x="956.2" y="903.7" class="st19" width="57.1" height="5.8"/>
				<polygon class="st20" points="991.1,834.9 961.4,862.1 961.4,899.9 1005.4,859.7 1005.4,834.9 				"/>
				<polygon class="st21" points="1005.4,834.9 1005.4,859.7 1008.5,856.9 1008.5,834.9 				"/>
				<polygon class="st16" points="294.5,661.8 483.7,661.8 483.7,702.2 271.4,702.2 				"/>
				<polygon class="st16" points="1036.1,661.8 846.8,661.8 846.8,702.2 1059.2,702.2 				"/>
				<path class="st22" d="M325.2,938.6c-1.5-2.3-28.3-15.1-28.3-15.1c27-13.4,50.4-29,48.3-28.2c77.8-28.1,192.2-89.8,277.1-49.4
					c24.9,11.8,38.3,25.1,42.6,29.9v26.9L325.2,938.6z"/>
				<path class="st22" d="M1004.5,938.6c1.5-2.3,28.3-15.1,28.3-15.1c-25.9-13-50.4-29-48.3-28.2c-77.8-28.1-192.2-89.8-277.1-49.4
					c-24.9,11.8-38.3,25.1-42.6,29.9v26.9L1004.5,938.6z"/>
				<path class="st23" d="M664.9,958.3c5.5,0,10.2-3.5,12.3-8.5l1.4-3.3l3.6-0.5c0.4,0,0.7-0.1,1.1-0.1c0.7-0.1,1.3-0.2,2-0.2
					c0,0,0,0,0.1,0l10.3-1.3l-3.5,9.7c-4.1,11.6-14.9,19.7-27.3,19.7s-23.2-8.1-27.3-19.7l-3.5-9.7l10.2,1.2c0,0,0,0,0.1,0
					c0.7,0.1,1.3,0.2,2,0.2c0.4,0,0.8,0.1,1.1,0.1l3.6,0.5l1.4,3.3C654.8,954.8,659.4,958.3,664.9,958.3L664.9,958.3z"/>
				<path class="st24" d="M664.9,902.7c-98.7-108.7-235.4,10.5-368,20.8c-8.5,15.3-17.1,30.7-25.6,46c196.4-4.5,302.6-32,393.6-14.2
					c91-17.8,197.2,9.7,393.6,14.2c-8.5-15.3-17.1-30.7-25.6-46C900.3,913.1,763.6,794,664.9,902.7L664.9,902.7z"/>
				<path class="st25" d="M647.5,940.6c0.9-4.6,2.1-9.2,3.6-13.6c2.4-6.7,5.5-12.2,10.1-17.6c1.2-1.4,2.4-2.7,3.6-4
					c1.2,1.3,2.5,2.6,3.6,4c4.6,5.4,7.7,10.9,10.1,17.6c1.6,4.4,2.7,9,3.6,13.6c0.8,3.8,1.4,7.7,1.9,11.6c0.7-0.1,1.3-0.2,2-0.2
					c-3.8-29.1-10.8-38.9-21.2-49.3c-10.4,10.4-17.4,20.2-21.2,49.3c0.7,0.1,1.3,0.2,2,0.2C646.1,948.3,646.7,944.4,647.5,940.6
					L647.5,940.6z"/>
				<path class="st16" d="M664.9,964.6c-8.3,0-15.1-5.2-18.2-12.3c-0.4,0-0.7-0.1-1.1-0.1c-0.7-0.1-1.3-0.2-2-0.2c0,0,0,0-0.1,0
					c3.2,9,11.5,15.5,21.3,15.5s18.1-6.4,21.3-15.5H686c-0.7,0.1-1.3,0.2-2,0.2c-0.4,0-0.7,0.1-1.1,0.1
					C680,959.5,673.2,964.6,664.9,964.6L664.9,964.6z"/>
				<path class="st26" d="M664.9,964.6c10.7,0,17.9-8.1,19.2-12.5c-0.5-3.9-1.1-7.7-1.9-11.6c-0.9-4.6-2.1-9.2-3.6-13.6
					c-2.4-6.7-5.5-12.2-10.1-17.6c-1.2-1.4-2.4-2.7-3.6-4c-1.2,1.3-2.5,2.6-3.6,4c-4.6,5.4-7.7,10.9-10.1,17.6
					c-1.6,4.4-2.7,9-3.6,13.6c-0.8,3.8-1.4,7.7-1.9,11.6C645.6,952.8,650.6,964.6,664.9,964.6L664.9,964.6z"/>
				<polygon class="st23" points="261.9,978.7 641.4,959.2 637.7,951.3 261.5,970.6 				"/>
				<polygon class="st23" points="1069.1,978.6 689.5,959.1 693.3,951.2 1069.5,970.5 				"/>
				<path class="st27" d="M490.5,920.2c-50,11.3-130.5,34.8-179.4,31c-9.7-0.7-17.4-2.1-26.4-5.8c23,5.7,39.2,5.4,62.7,2.4
					c53.1-7,108-26,161.6-35.6c56.8-10.1,90.8-17.4,131.2,9.8C589.8,905,581.2,899.7,490.5,920.2L490.5,920.2z"/>
				<path class="st27" d="M636.4,896.8c-23.2-10.1-35.5-14-61.4-13.9c-57.8,0.2-134.6,29.6-192.4,43.2c-8.7,2-17.4,4.1-26.2,4.9
					c5.5-1.8,2.8-1,8.3-2.5c29.2-7.8,57.2-17,86-26C500.7,886.9,589.9,861.5,636.4,896.8L636.4,896.8z"/>
				<path class="st27" d="M634.3,941.5c-27-11.4-44-14.4-72.6-12.7c-32.2,2-71.1,11.3-103.1,18c-22.8,4.8-59.2,12.6-81.7,12.7
					c11.6-2.8,24.4-4.6,36.2-7c31.8-6.5,64.4-15.9,95.9-21.7C549.8,923.3,597.8,917.3,634.3,941.5L634.3,941.5z"/>
				<path class="st27" d="M840.1,920.7c50,11.3,130.5,34.8,179.4,31c9.7-0.7,17.4-2.1,26.4-5.8c-23,5.7-39.2,5.4-62.7,2.4
					c-53.1-7-108-26-161.6-35.6c-56.8-10.1-90.8-17.4-131.2,9.8C740.8,905.5,749.4,900.2,840.1,920.7L840.1,920.7z"/>
				<path class="st27" d="M694.2,897.3c23.2-10.1,35.5-14,61.4-13.9c57.8,0.2,134.6,29.6,192.4,43.2c8.7,2,17.4,4.1,26.2,4.9
					c-5.5-1.8-2.8-1-8.3-2.5c-29.2-7.8-57.2-17-86-26C829.9,887.5,740.6,862,694.2,897.3L694.2,897.3z"/>
				<path class="st27" d="M696.3,942c27-11.4,44-14.4,72.6-12.7c32.2,2,71.1,11.3,103.1,18c22.8,4.8,59.2,12.6,81.7,12.7
					c-11.6-2.8-24.4-4.6-36.2-7c-31.8-6.5-64.4-15.9-95.9-21.7C780.8,923.8,732.8,917.8,696.3,942L696.3,942z"/>
				<path class="st28" d="M664.9,902.7c-75-100.1-259-35.1-354.2,8.9l50.6-60.5C456.5,797.3,664.9,740.7,664.9,902.7L664.9,902.7z"
					/>
				<path class="st29" d="M664.9,902.7c-89.7-78.6-183.8-69.3-310.8-23.9c5.9-8.9,27.9-47.4,36-61.1s104.6-46.7,176.3-30.9
					C665.5,808.7,664.9,905.5,664.9,902.7L664.9,902.7z"/>
				<path class="st30" d="M496.4,682.7c-27.8,30.4-56.2,60.8-83.4,91.4c71.4,14.4,167.1,25.3,252,128.5c0-49.4,4.9-86.6-39.8-127.3
					C589.8,743.2,537.7,724.3,496.4,682.7L496.4,682.7z"/>
				<path class="st28" d="M664.9,902.7c75-100.1,259-35.1,354.2,8.9l-50.6-60.5C873.3,797.3,664.9,740.7,664.9,902.7L664.9,902.7z"
					/>
				<path class="st29" d="M664.9,902.7c89.7-78.6,177.4-107.4,298.4-83.8c-5.9-8.9-35.1-58.3-43.1-72c0,0-101.1,6.7-169.9,36.2
					C657.8,822.6,664.9,905.5,664.9,902.7L664.9,902.7z"/>
				<path class="st31" d="M903.4,889.9c40.2,0,80.4,0,120.7,0c40.1,0,80.4,0,120.6,0c5.9,0,11.9,2,13.2,4.4
					c5.4,10,11.3,20.8,17.6,32.5c6.9,12.8,15,19.2,23.3,34.5c2.2,4.1-2.9,15.1-10.9,15.1c-54.2,0-108.4,0-162.5,0
					c-54.2,0-108.4,0-162.6,0c-9.7,0-13.7-9.7-11-14.9c7-13,16.3-23.4,22-34.8c5.9-11.8,11.5-22.5,16.6-32.5
					C891.8,891.9,897.5,889.9,903.4,889.9L903.4,889.9z"/>
				<path class="st32" d="M903.4,881.2c40.2,0,80.4,0,120.7,0c40.1,0,80.4,0,120.6,0c5.9,0,11.9,2,13.2,4.4
					c5.4,10,11.3,20.8,17.6,32.5c6.9,12.8,14.5,26.7,22.8,42c2.2,4.1-2.4,7.6-10.4,7.6c-54.2,0-108.4,0-162.5,0
					c-54.2,0-108.4,0-162.6,0c-7.9,0-12.6-3.4-10.5-7.5c7.8-15.3,15-29.3,21.6-42.2c6-11.7,11.5-22.5,16.6-32.5
					C891.8,883.2,897.5,881.2,903.4,881.2L903.4,881.2z"/>
				<path class="st33" d="M907.4,887.8c38.9,0,77.8,0,116.8,0c38.8,0,77.8,0,116.8,0c3.1,6.6,6.4,13.6,9.9,20.9
					c3.6,7.7,7.5,15.9,11.6,24.6c-45.9,0-91.7,0-137.6,0s-91.8,0-137.7,0c3.8-8.7,7.5-16.9,10.9-24.7
					C901.4,901.3,904.4,894.4,907.4,887.8L907.4,887.8z"/>
				<path class="st33" d="M970.6,938c18.1,0,36.2,0,54.3,0c18,0,36.2,0,54.3,0c1.5,7.9,3.1,16.1,4.8,24.9c-19.6,0-39.2,0-58.7,0
					c-19.6,0-39.2,0-58.8,0C968,954.2,969.3,945.9,970.6,938L970.6,938z"/>
				<path class="st34" d="M899.5,711.4H1151c4,0,7.2,3.3,7.2,7.2V874c0,4-3.3,7.2-7.2,7.2H899.5c-4,0-7.2-3.3-7.2-7.2V718.6
					C892.3,714.6,895.5,711.4,899.5,711.4L899.5,711.4z"/>
				<rect x="900.2" y="719.3" class="st35" width="250.2" height="154.1"/>
				<rect x="914.1" y="733.9" class="st36" width="128.2" height="1.8"/>
				<rect x="934.9" y="742" class="st36" width="107.5" height="1.8"/>
				<rect x="934.9" y="750.1" class="st36" width="107.5" height="1.8"/>
				<rect x="934.9" y="758.3" class="st36" width="77.6" height="1.8"/>
				<rect x="914.1" y="766.4" class="st36" width="128.2" height="1.8"/>
				<rect x="914.1" y="774.5" class="st36" width="139.6" height="1.8"/>
				<rect x="914.1" y="782.7" class="st36" width="128.2" height="1.8"/>
				<rect x="914.1" y="790.8" class="st36" width="77.6" height="1.8"/>
				<rect x="914.1" y="798.9" class="st36" width="154.8" height="1.8"/>
				<rect x="934.9" y="807" class="st36" width="107.5" height="1.8"/>
				<rect x="934.9" y="815.2" class="st36" width="107.5" height="1.8"/>
				<rect x="934.9" y="823.3" class="st36" width="107.5" height="1.8"/>
				<rect x="914.1" y="831.4" class="st36" width="128.2" height="1.8"/>
				<rect x="914.1" y="839.6" class="st36" width="151.4" height="1.8"/>
				<rect x="914.1" y="847.7" class="st36" width="128.2" height="1.8"/>
				<rect x="914.1" y="855.8" class="st36" width="74.6" height="1.8"/>
				<rect x="914.1" y="863.9" class="st36" width="74.6" height="1.8"/>
				<path class="st37" d="M681.2,368.9H664c-4.6,0-5.3,2-2.8,3.6l0,0c1.7,1.1,4.7,1.8,7,1.8h8.7c2.3,0,5.3-0.7,7-1.8l0,0
					C686.5,370.9,685.8,368.9,681.2,368.9L681.2,368.9z"/>
				<path class="st38" d="M673.1,259.6c-20.3,0-36.8,16.5-36.8,36.8c0,10.8,4.6,20.5,12,27.2c0.1,0.4,0.1,0.8,0.2,1.2l10,38
					c0.3,1.3,1.9,2.3,3.5,2.3h22.3c1.6,0,3.1-1,3.5-2.3l10-38c0.1-0.4,0.2-0.8,0.2-1.2c7.4-6.7,12-16.4,12-27.2
					C710,276.1,693.5,259.6,673.1,259.6L673.1,259.6z"/>
				<path class="st39" d="M668.1,317.3c-14.3,0-25.8-11.6-25.8-25.8c0-14.3,11.6-25.8,25.8-25.8s25.8,11.6,25.8,25.8
					c0,7.5-3.2,14.3-8.3,19c0.4-2.1,0.8-4.2,1.2-6.3c0.7-0.5,1-1,1.1-1.4c0.7-1.8-0.6-4.3-3.4-6.2c-0.2,0.2-0.4,0.5-0.6,0.7
					c2.5,1.6,3.7,3.8,3.1,5.2c-0.1,0.3-0.4,0.7-1,1.1c-0.5,2.6-0.9,5.1-1.4,7.7C680.1,315.1,674.4,317.3,668.1,317.3L668.1,317.3z
					 M661.6,271.8c-7.7,0-13.9,6.2-13.9,13.9c0,7.7,6.2,13.9,13.9,13.9s13.9-6.2,13.9-13.9S669.2,271.8,661.6,271.8L661.6,271.8z"/>
				<path class="st40" d="M661.6,299.5c-7.7,0-13.9-6.2-13.9-13.9c0-7.7,6.2-13.9,13.9-13.9s13.9,6.2,13.9,13.9
					S669.2,299.5,661.6,299.5L661.6,299.5z M657.9,276c-3.6,0-6.5,2.9-6.5,6.5s2.9,6.5,6.5,6.5s6.5-2.9,6.5-6.5S661.5,276,657.9,276
					L657.9,276z"/>
				<path class="st41" d="M657.9,289c-3.6,0-6.5-2.9-6.5-6.5s2.9-6.5,6.5-6.5s6.5,2.9,6.5,6.5S661.5,289,657.9,289L657.9,289z"/>
				<path class="st42" d="M657.8,302.6c-0.6-1.4,0.6-3.6,3.1-5.2c-0.2-0.2-0.4-0.5-0.6-0.7c-2.7,1.9-4,4.4-3.4,6.2
					c0.1,0.4,0.4,0.9,1.1,1.4c2.3,12.6,4.7,25.2,7,37.7c0.3,0,0.6,0,0.8,0c-2.4-12.8-4.7-25.5-7.1-38.3
					C658.2,303.3,657.9,302.9,657.8,302.6L657.8,302.6z"/>
				<path class="st42" d="M684.5,296.7c-0.2,0.2-0.4,0.5-0.6,0.7c2.5,1.6,3.7,3.8,3.1,5.2c-0.1,0.3-0.4,0.7-1,1.1
					c-2.4,12.8-4.7,25.5-7.1,38.3c0.3,0,0.6,0,0.8,0c2.3-12.6,4.7-25.2,7-37.7c0.7-0.5,1-1,1.1-1.4
					C688.6,301.1,687.2,298.5,684.5,296.7L684.5,296.7z"/>
				<path class="st43" d="M654,345.7c-2.7,0.2-2.4,3.5-0.5,4c-2.2,0.7-1.7,4.4,0.5,4.4h0.1c-2,0.9-1.4,4.3,0.7,4.3h0.3
					c-2,0.9-1.4,4.3,0.7,4.3h0.6c-2,0.9-1.4,4.3,0.7,4.3h0.8v0.1c-1.5,1-1.2,3.7,0.6,4.1h14.4h14.4c1.8-0.4,2-3.1,0.6-4.1V367h0.8
					c2.1,0,2.7-3.4,0.7-4.3h0.6c2.1,0,2.7-3.4,0.7-4.3h0.3c2.1,0,2.7-3.4,0.7-4.3h0.1c2.2,0,2.7-3.7,0.5-4.4c1.8-0.6,2-3.9,0.1-4
					L654,345.7L654,345.7z"/>
				<path class="st42" d="M684.7,298c-0.4-0.4-1.8-1.9-3.4-2.5c-0.5-0.2-1-0.3-1.5-0.3s-1,0.2-1.5,0.6c-0.6,0.5-1.2,1.3-1.7,2.6
					c-0.4,1.1-1,1.3-1.7,1c-0.6-0.2-1.3-1-2-1.8c-0.6-0.6-1.2-1.3-1.8-1.7c-0.7-0.5-1.4-0.6-2.1,0.3c-0.4,0.6-0.7,1.2-1,1.6
					c-0.3,0.5-0.5,1-0.8,1.2c-0.8,0.7-1.6,0.3-3.7-2.1c-0.8-1-1.5-0.6-2-0.2c-0.1,0.1-0.2,0.2-0.3,0.3c-0.2,0.2-0.3,0.3-0.4,0.4
					l-0.6-0.8c0.1-0.1,0.2-0.2,0.3-0.3c0.1-0.1,0.3-0.2,0.4-0.4c0.8-0.7,1.9-1.3,3.3,0.3c1.6,1.8,2.1,2.2,2.4,2l0,0
					c0.2-0.1,0.4-0.5,0.6-0.9c0.3-0.5,0.6-1.1,1-1.7c1.1-1.6,2.3-1.4,3.5-0.5c0.7,0.5,1.3,1.2,1.9,1.9c0.6,0.7,1.2,1.4,1.6,1.5
					c0.2,0.1,0.3-0.1,0.5-0.5c0.6-1.5,1.2-2.4,2-3c0.6-0.5,1.3-0.8,2-0.8c0.7-0.1,1.3,0.1,1.9,0.3c1.8,0.7,3.4,2.3,3.8,2.8
					L684.7,298z"/>
				<path class="st44" d="M655.3,346.8h34.9c0.5,0,0.8,0.4,0.8,0.8l0,0c0,0.5-0.4,0.8-0.8,0.8h-34.9c-0.5,0-0.8-0.4-0.8-0.8l0,0
					C654.5,347.2,654.9,346.8,655.3,346.8L655.3,346.8z"/>
				<path class="st44" d="M655.3,350.8h34.9c0.5,0,0.8,0.4,0.8,0.8l0,0c0,0.5-0.4,0.8-0.8,0.8h-34.9c-0.5,0-0.8-0.4-0.8-0.8l0,0
					C654.5,351.2,654.9,350.8,655.3,350.8L655.3,350.8z"/>
				<path class="st44" d="M655.3,355.1h34.9c0.5,0,0.8,0.4,0.8,0.8l0,0c0,0.5-0.4,0.8-0.8,0.8h-34.9c-0.5,0-0.8-0.4-0.8-0.8l0,0
					C654.5,355.5,654.9,355.1,655.3,355.1L655.3,355.1z"/>
				<path class="st44" d="M656.2,359.6h33.3c0.5,0,0.8,0.4,0.8,0.8l0,0c0,0.5-0.4,0.8-0.8,0.8h-33.3c-0.5,0-0.8-0.4-0.8-0.8l0,0
					C655.3,360,655.7,359.6,656.2,359.6L656.2,359.6z"/>
				<path class="st44" d="M657.9,364.1h29.8c0.5,0,0.8,0.4,0.8,0.8l0,0c0,0.5-0.4,0.8-0.8,0.8h-29.8c-0.5,0-0.8-0.4-0.8-0.8l0,0
					C657.1,364.4,657.5,364.1,657.9,364.1L657.9,364.1z"/>
				<path class="st44" d="M659.7,367.8h26.2c0.5,0,0.8,0.4,0.8,0.8l0,0c0,0.5-0.4,0.8-0.8,0.8h-26.2c-0.5,0-0.8-0.4-0.8-0.8l0,0
					C658.9,368.2,659.3,367.8,659.7,367.8L659.7,367.8z"/>
				<path class="st45" d="M289.6,790.4l8.6-10.2c0.4-0.5,0.4-1.3-0.1-1.7l-3-2.5c-0.5-0.4-1.3-0.4-1.7,0.1l-8.6,10.2
					c-0.4,0.5-0.4,1.3,0.1,1.7l3,2.5C288.4,790.9,289.1,790.9,289.6,790.4L289.6,790.4z"/>
				<path class="st29" d="M286.2,790.7l11.6-13.8c0.3-0.3,0.2-0.8-0.1-1.1l-19.2-16.2c-0.3-0.3-0.8-0.2-1.1,0.1l-11.6,13.8
					c-0.3,0.3-0.2,0.8,0.1,1.1l19.2,16.2C285.4,791,285.9,791,286.2,790.7L286.2,790.7z"/>
				
					<rect x="275.7" y="766.3" transform="matrix(0.6435 -0.7654 0.7654 0.6435 -496.4639 491.2135)" class="st28" width="6.9" height="24.7"/>
				<path class="st45" d="M269.5,805.3l10.3-8c0.5-0.4,0.6-1.1,0.2-1.6l-2.4-3c-0.4-0.5-1.1-0.6-1.6-0.2l-10.3,8
					c-0.5,0.4-0.6,1.1-0.2,1.6l2.4,3C268.3,805.6,269,805.7,269.5,805.3L269.5,805.3z"/>
				<path class="st29" d="M266.3,804.9l14-10.9c0.3-0.3,0.4-0.7,0.1-1.1l-15.1-19.4c-0.3-0.3-0.7-0.4-1.1-0.1l-14,10.9
					c-0.3,0.3-0.4,0.7-0.1,1.1l15.1,19.4C265.4,805.1,265.9,805.2,266.3,804.9L266.3,804.9z"/>
				
					<rect x="258.5" y="779.8" transform="matrix(0.7891 -0.6142 0.6142 0.7891 -431.1969 327.834)" class="st28" width="6.8" height="24.3"/>
				<path class="st45" d="M245.9,816.5l11-4.1c0.5-0.2,0.8-0.8,0.6-1.4l-1.2-3.2c-0.2-0.5-0.8-0.8-1.4-0.6l-11,4.1
					c-0.5,0.2-0.8,0.8-0.6,1.4l1.2,3.2C244.8,816.4,245.4,816.7,245.9,816.5L245.9,816.5z"/>
				<path class="st29" d="M243.3,815.3l14.9-5.6c0.4-0.1,0.5-0.5,0.4-0.9l-7.8-20.7c-0.1-0.4-0.5-0.5-0.9-0.4l-14.9,5.6
					c-0.4,0.1-0.5,0.5-0.4,0.9l7.8,20.7C242.5,815.2,242.9,815.4,243.3,815.3L243.3,815.3z"/>
				
					<rect x="240" y="792.1" transform="matrix(0.9362 -0.3514 0.3514 0.9362 -266.6705 136.6193)" class="st28" width="6.1" height="21.8"/>
				<path class="st46" d="M232.8,940.5v-24.6c-47.4,0-85.9-38.6-85.9-85.9c0-33,19.2-63.5,49-77.6l-10.6-22.2
					c-38.3,18.2-63.1,57.4-63.1,99.9C122.2,890.9,171.8,940.5,232.8,940.5L232.8,940.5z"/>
				<path class="st47" d="M185.3,730.1l7.8,16.3c-31.7,18.1-51.6,49.9-51.6,84.1c0,48.9,39.5,89.6,91.3,97.9v12.1
					c-61,0-110.6-49.6-110.6-110.6C122.2,787.5,147,748.3,185.3,730.1L185.3,730.1z"/>
				<rect x="152.8" y="957.6" class="st48" width="185.4" height="19.1"/>
				<polygon class="st49" points="168.7,957.7 322.3,957.7 305.9,935 185.1,935 				"/>
				<rect x="184.7" y="853.5" class="st43" width="144" height="22.2"/>
				<polygon class="st50" points="207.3,937.5 258.4,935.9 258.4,913.7 279,897.9 279,875.7 208.7,875.7 208.7,897.9 				"/>
				<path class="st51" d="M187.2,928.2c0,16.7,13.5,30.3,30.3,30.3c16.7,0,30.3-13.5,30.3-30.3c0-16.7-13.6-30.3-30.3-30.3
					C200.7,897.9,187.2,911.5,187.2,928.2L187.2,928.2z"/>
				<path class="st52" d="M193.3,928.2c0,13.3,10.8,24.1,24.1,24.1s24.1-10.8,24.1-24.1s-10.8-24.1-24.1-24.1
					C204.1,904.1,193.3,914.9,193.3,928.2L193.3,928.2z"/>
				<rect x="184.7" y="853.5" class="st53" width="144" height="5.1"/>
				
					<rect x="192.5" y="675.8" transform="matrix(0.8205 -0.5717 0.5717 0.8205 -378.7915 261.3383)" class="st54" width="68.4" height="115.9"/>
				
					<rect x="166.4" y="668.4" transform="matrix(0.8205 -0.5716 0.5716 0.8205 -353.9049 229.2162)" class="st43" width="43.3" height="19.6"/>
				<polygon class="st55" points="160.4,661.7 182.2,646.5 193.3,662.6 171.5,677.8 				"/>
				<polygon class="st43" points="192,764.9 201.9,758.1 176.6,721.9 166.8,728.8 				"/>
				<polygon class="st56" points="232,802.9 289.4,763 281.4,751.6 224,791.5 				"/>
				<polygon class="st28" points="222,675.2 203,688.3 253.9,762.3 272.9,749.2 				"/>
				<path class="st43" d="M202.2,928.2c0,8.4,6.8,15.2,15.2,15.2s15.2-6.8,15.2-15.2s-6.8-15.2-15.2-15.2S202.2,919.8,202.2,928.2
					L202.2,928.2z"/>
				<path class="st57" d="M315.1,817.5L429,774c7.1-2.7,15,0.8,17.6,7.7l54,141.3c2.7,6.9-0.9,14.8-8,17.5l-114,43.5
					c-7.1,2.7-15-0.8-17.6-7.7L307,835C304.4,828.1,308,820.2,315.1,817.5L315.1,817.5z"/>
				<path class="st58" d="M316.2,817.7l112.1-42.9c6.9-2.6,14.7,0.7,17.3,7.6l53,138.6c2.6,6.8-1,14.5-7.9,17.2L378.6,981
					c-6.9,2.7-14.7-0.7-17.3-7.6l-53-138.6C305.7,828.1,309.3,820.4,316.2,817.7L316.2,817.7z"/>
				<path class="st59" d="M461.2,823.2l-15.6-40.7c-2.6-6.8-10.4-10.2-17.3-7.6l-112.1,42.9c-6.9,2.6-10.5,10.4-7.9,17.2l15.5,40.5
					L461.2,823.2z"/>
				<path class="st60" d="M443.7,816.2c1.2,3.1-0.1,6.5-2.9,7.6l-95.7,36.6c-2.8,1.1-6-0.6-7.2-3.7l-7.7-20.2
					c-1.2-3.1,0.1-6.5,2.9-7.6l95.7-36.6c2.8-1.1,6,0.6,7.2,3.7L443.7,816.2z"/>
				<path class="st33" d="M441.2,815.9c1,2.7-0.3,5.7-3,6.7l-91.7,35.1c-2.7,1-5.7-0.3-6.7-3l-6.6-17.3c-1-2.7,0.3-5.7,3-6.7
					l91.7-35.1c2.7-1,5.7,0.3,6.7,3L441.2,815.9z"/>
				<path class="st60" d="M371.1,881.8c1,2.7-0.3,5.7-3,6.7l-11.9,4.6c-2.7,1-5.7-0.3-6.7-3l-4.6-11.9c-1-2.7,0.3-5.7,3-6.7
					l11.9-4.6c2.7-1,5.7,0.3,6.7,3L371.1,881.8z"/>
				<path class="st60" d="M399.3,871.1c1,2.7-0.3,5.7-3,6.7l-11.9,4.6c-2.7,1-5.7-0.3-6.7-3l-4.6-11.9c-1-2.7,0.3-5.7,3-6.7
					l11.9-4.6c2.7-1,5.7,0.3,6.7,3L399.3,871.1z"/>
				<path class="st60" d="M427.3,860.4c1,2.7-0.3,5.7-3,6.7l-11.9,4.6c-2.7,1-5.7-0.3-6.7-3l-4.6-11.9c-1-2.7,0.3-5.7,3-6.7
					l11.9-4.6c2.7-1,5.7,0.3,6.7,3L427.3,860.4z"/>
				<path class="st60" d="M455.3,849.7c1,2.7-0.3,5.7-3,6.7l-11.9,4.6c-2.7,1-5.7-0.3-6.7-3l-4.6-11.9c-1-2.7,0.3-5.7,3-6.7
					l11.9-4.6c2.7-1,5.7,0.3,6.7,3L455.3,849.7z"/>
				<path class="st60" d="M380.8,907.1c1,2.7-0.3,5.7-3,6.7l-11.9,4.6c-2.7,1-5.7-0.3-6.7-3l-4.6-11.9c-1-2.7,0.3-5.7,3-6.7
					l11.9-4.6c2.7-1,5.7,0.3,6.7,3L380.8,907.1z"/>
				<path class="st60" d="M408.9,896.3c1,2.7-0.3,5.7-3,6.7l-11.9,4.6c-2.7,1-5.7-0.3-6.7-3l-4.6-11.9c-1-2.7,0.3-5.7,3-6.7
					l11.9-4.6c2.7-1,5.7,0.3,6.7,3L408.9,896.3z"/>
				<path class="st60" d="M436.9,885.6c1,2.7-0.3,5.7-3,6.7l-11.9,4.6c-2.7,1-5.7-0.3-6.7-3l-4.6-11.9c-1-2.7,0.3-5.7,3-6.7
					l11.9-4.6c2.7-1,5.7,0.3,6.7,3L436.9,885.6z"/>
				<path class="st60" d="M464.9,874.9c1,2.7-0.3,5.7-3,6.7l-11.9,4.6c-2.7,1-5.7-0.3-6.7-3l-4.6-11.9c-1-2.7,0.3-5.7,3-6.7
					l11.9-4.6c2.7-1,5.7,0.3,6.7,3L464.9,874.9z"/>
				<path class="st60" d="M390.4,932.4c1,2.7-0.3,5.7-3,6.7l-11.9,4.6c-2.7,1-5.7-0.3-6.7-3l-4.6-11.9c-1-2.7,0.3-5.7,3-6.7
					l11.9-4.6c2.7-1,5.7,0.3,6.7,3L390.4,932.4z"/>
				<path class="st60" d="M418.6,921.6c1,2.7-0.3,5.7-3,6.7l-11.9,4.6c-2.7,1-5.7-0.3-6.7-3l-4.6-11.9c-1-2.7,0.3-5.7,3-6.7
					l11.9-4.6c2.7-1,5.7,0.3,6.7,3L418.6,921.6z"/>
				<path class="st60" d="M446.6,910.9c1,2.7-0.3,5.7-3,6.7l-11.9,4.6c-2.7,1-5.7-0.3-6.7-3l-4.6-11.9c-1-2.7,0.3-5.7,3-6.7
					l11.9-4.6c2.7-1,5.7,0.3,6.7,3L446.6,910.9z"/>
				<path class="st60" d="M400.1,957.6c1,2.7-0.3,5.7-3,6.7l-11.9,4.6c-2.7,1-5.7-0.3-6.7-3l-4.6-11.9c-1-2.7,0.3-5.7,3-6.7
					l11.9-4.6c2.7-1,5.7,0.3,6.7,3L400.1,957.6z"/>
				<path class="st60" d="M428.3,946.9c1,2.7-0.3,5.7-3,6.7l-11.9,4.6c-2.7,1-5.7-0.3-6.7-3l-4.6-11.9c-1-2.7,0.3-5.7,3-6.7L417,932
					c2.7-1,5.7,0.3,6.7,3L428.3,946.9z"/>
				<path class="st60" d="M456.3,936.2c1,2.7-0.3,5.7-3,6.7l-11.9,4.6c-2.7,1-5.7-0.3-6.7-3l-4.6-11.9c-1-2.7,0.3-5.7,3-6.7
					l11.9-4.6c2.7-1,5.7,0.3,6.7,3L456.3,936.2z"/>
				<path class="st61" d="M484.3,925.5L473,895.8c-0.1-0.2-0.2-0.4-0.3-0.6l-2.7-7c-1-2.7-4-4-6.7-3l-11.9,4.6c-2.7,1-4,4-3,6.7
					l4.6,11.9c0.1,0.2,0.2,0.3,0.2,0.5l9.4,24.8c1,2.7,4,4,6.7,3l11.9-4.6C483.9,931.2,485.3,928.2,484.3,925.5L484.3,925.5z"/>
				<polygon class="st62" points="797.1,752.9 800.2,756.4 800.1,758.5 795.2,762.8 793.1,762.7 790,759.2 790.1,757.1 795,752.7 
									"/>
				<path class="st63" d="M579.2,952c-3.1,2.7-6,4.4-6.6,3.8c-0.6-0.6,1.5-3.4,4.6-6.1c3.1-2.7,6-4.4,6.6-3.8
					C584.3,946.6,582.2,949.3,579.2,952L579.2,952z"/>
				<path class="st64" d="M703.2,861.9c-40.7,36.3-78.6,66.1-102.7,81.6l-12.4-13.9c18.2-22.2,52.2-56.3,92.9-92.6
					c41.7-37.1,80.4-67.5,104.4-82.7c0.2,0.2,2.8-2.1,8.5,4.5c5.4,6.3,3.4,8.8,3.5,8.9C779.5,789.8,744.9,824.7,703.2,861.9
					L703.2,861.9z"/>
				<path class="st62" d="M777.3,759.7l0.2-0.1c-1.2-1.4-2.8-3.1-4.1-3.3c-2.3-0.3-49.3,37.9-59.2,47.3
					c-15.7,14.8-14.6,21.5-37.3,24.4c0,0,94.7-77.7,96-78c4.5-1.1,7.3,2.9,9.9,6l12.6,14.2c-1.3,1.6-2.7,3.2-4.2,5L779,761.7
					L777.3,759.7z"/>
				<path class="st62" d="M695,869.1c-1.6,1.4-3.2,2.8-4.8,4.3l-22-24.7c1.6-1.4,3.2-2.9,4.8-4.3L695,869.1z"/>
				<path class="st62" d="M600.5,943.4c-10.1,6.5-17.9,10.6-22.4,11.5l-4-4.5c1.4-4.3,6.3-11.6,14-20.9L600.5,943.4z"/>
				<polygon class="st31" points="473.6,439.1 668.3,410.9 863,439.1 863,443.7 668.3,471.9 473.6,443.7 				"/>
				<polygon class="st8" points="473.6,443.7 668.3,415.6 863,443.7 668.3,471.9 				"/>
				<path class="st65" d="M583.7,449.1h169.1l8.6,68.1l-0.1-0.5c-1.9-7.3-42.8-13.2-93.1-13.2c-9.5,0-18.6,0.2-27.2,0.6
					c-11.9,0.5-22.7,1.4-32.1,2.5c-19.8,2.4-32.8,6-33.8,10L583.7,449.1z"/>
				<path class="st66" d="M668.3,463c46.6,0,84.6-6.1,84.6-13.7c0-7.5-38-13.7-84.6-13.7s-84.6,6.1-84.6,13.7
					C583.7,456.8,621.7,463,668.3,463L668.3,463z"/>
				<path class="st67" d="M836.3,435.2v26.9v120.3c0,1.6,1.3,2.9,2.9,2.9l0,0c1.6,0,2.9-1.3,2.9-2.9V435.2v-2.9
					c0-1.6-1.3-2.9-2.9-2.9h-2.9h-40.2L836.3,435.2z"/>
				<path class="st67" d="M839,548.1c10.2,0,18.6,46.4-0.1,65C820.1,594.3,828.8,548.1,839,548.1L839,548.1z"/>
				<path class="st68" d="M837.1,544.9h4c1.5,0,2.7,1.2,2.7,2.7l0,0c0,1.5-1.2,2.7-2.7,2.7h-4c-1.5,0-2.7-1.2-2.7-2.7l0,0
					C834.4,546.1,835.6,544.9,837.1,544.9L837.1,544.9z"/>
				<path class="st69" d="M748.2,460.3c-45.8,18.2-101.4,28.8-161.4,28.8c-2.7,0-5.5,0-8.2-0.1l-3.5,27.6
					c1.9-7.3,42.8-13.2,93.1-13.2s91.3,5.8,93.1,13.2l-7.2-57.2L754,458C752.1,458.8,750.2,459.6,748.2,460.3L748.2,460.3z"/>
				<g>
					<path class="st70" d="M1028.8,502.8c0,0-4.7,5.5-4.9,7.2c-0.1,1.7,1,6.1,1.7,5.1c0.7-0.9,0.8-3.8,0.8-3.8l1.3-1.6
						c0,0-0.9,8.5-0.5,10.1c0.4,1.6,1.3,1.5,1.3,1.5s0.1,1.4,1,1.6c0.7,0.2,1.2,0.1,1.6-0.8c0,0,0.2,0.3,0.9,0
						c0.7-0.4,1.1-1.3,1.1-1.3s0.5,0.2,1.1-0.5s0.7-1.2,0.7-1.3c0-0.2,0.9-6.5,1-6.7c1.1-3.1,0.3-7.8-1.5-9.9
						C1031.1,498.4,1032.5,501.3,1028.8,502.8L1028.8,502.8z"/>
					<path class="st71" d="M909.3,405.7c0.4-0.2,2.2,1.1,4.2-1c2-1.1,2.6-3.4,1.9-4.7c-0.7-1.2-2-2.2-2.5-3.1
						c-1.1-2-2.6-3.4-5.6-2.2c-3.1,1.2-4.5,1.7-4.6,5C902.5,402.9,906.6,405.8,909.3,405.7L909.3,405.7z"/>
					<path class="st8" d="M945,648.5c-1.3,3.5-2.2,8.3-2.2,8.3s-19.4,8.6-16.7,10.6c4.3,3.1,20.1-0.9,25.7-2.1v-8.9L945,648.5z"/>
					<path class="st8" d="M1004.9,646.3c1.3,3.5,2.2,8.3,2.2,8.3s19.4,8.6,16.7,10.6c-4.3,3.1-24.4-0.7-24.4-2.4v-8.9L1004.9,646.3z
						"/>
					<path class="st72" d="M958.6,494.3c-8,44.2-11.6,109.6-15.8,162.4c0,0,6.3,0.2,9-0.5c10.6-44.1,20.2-89.5,30.8-133.6
						c5.7,43.4,11.1,89.3,16.8,132.8c1.5,0.5,6.2-0.7,7.8-0.9c1.7-0.2,2.4-155.7,2.1-157.5C1008.9,495.2,958.6,494.3,958.6,494.3
						L958.6,494.3z"/>
					<path class="st73" d="M982.6,377.8c0.4,3.5,0.6,14.7-6.3,17.1c-2.8,1-5.4,3.2-5.4,3.2c0.2,10.6,24.8,13.4,35.1,3.8l-4.1-4.8
						c-8.6-1.7-4.9-16.3-4.5-23.2L982.6,377.8z"/>
					<path class="st74" d="M961.5,414.9c1.1,38.9-5.7,67.4-7.3,88.9c-0.7,11.1,58.1,18.8,58.1,9.6c-1.1-31.6-1.5-65.2,2-94.2
						l-0.1-18.4c-0.5-0.1-1-0.2-1.6-0.4L1002,397c0,0-6.3,6.3-16.5,5.1c-10.2-1.3-9.1-7.2-9.1-7.2c-4.6,0.7-9.2,1.7-13.8,2.4
						L961.5,414.9z"/>
					<path class="st75" d="M1007,361c0.4,1.6-1.7,8.5-3.4,12.5c-1.8,4-6.8,6.1-6.7,5.6c0-0.6,1.3-14.6,1.3-14.6L1007,361z"/>
					<path class="st70" d="M972.2,379.8c1.7,9.6,5.9,12.5,12.8,9.2c5.9-2.9,10.1-8,12.9-13.4c1.9,0.5,4.1-0.7,5.4-3
						c1.6-2.8,1.2-6.1-0.8-7.4c-0.4-0.3-0.9-0.5-1.4-0.5c0.2-2.9,0-5.7-0.2-8.7c-0.3-5.5-15-10.8-21.4-7.4
						C971.5,352.6,971,372.9,972.2,379.8L972.2,379.8z"/>
					<path class="st75" d="M995.8,358.3c0.6,0.6-0.8,10.7,0.3,10.8c1.1,0,5-4.6,5-4.6s0.2-0.3,1.4,0.5s1.5,2.2,1.5,2.2
						s4.9-9.4,4.3-11.5c-0.6-2.1-4.7-4.8-4.7-4.8s-0.3-2.2-2.7-4.8c-2.3-2.6-9.1-3.1-18.2-4.4c-9-1.3-15.4,4.3-7.2,10.6
						C983.2,358.2,995.8,358.3,995.8,358.3L995.8,358.3z"/>
					<path class="st74" d="M1014.2,400.8c13,5.6,21.2,59.3,22.2,104.6l-8.4-2c-0.8-22.5-5.2-53-16.4-83.9L1014.2,400.8z"/>
					<path class="st74" d="M962.6,397.4c-13.9,14.5-26.4,40.8-26.4,40.8c-1-1.5-17.9-29.8-20.9-38.1l-6,5.7
						c3,7.4,19.4,47.2,25.2,47.9c11.4,1.3,26.4-30.7,30.7-37.5L962.6,397.4z"/>
					<path class="st76" d="M879,363c-0.6-0.1-7.2-0.3-7.2-0.3l-3.7,11.1l5.2,4.5L879,363z"/>
					<path class="st77" d="M905.7,382.5c0.3,1.4,0.1,5.8-1.4,10s-4.4,7-4.4,8.8s4.8,5,6.9,2.9c1.7-1.8,6.9-20,6.4-20.4
						C912.8,383.5,905.7,382.5,905.7,382.5L905.7,382.5z"/>
					<path class="st78" d="M878.9,349.8c0.2-0.4,0.6,0.1,1.8,0.9s0.2,0.2,1.2,2.2c2.1,4.3,29.1,20.5,34.3,22.9c3.2,1.5,3.9,2.1,5,3
						l-5.1,13.9c-1.4,0-2.1-0.2-5.5-1.1c-5.5-1.4-36.8-5.8-41.1-3.7c-1.2,0.5-4.3,0.5-4.3,0.5C868.3,375.2,872.8,362.4,878.9,349.8
						L878.9,349.8z"/>
					<path class="st79" d="M878.9,349.8c0.2-0.4,0.6,0.1,1.8,0.9s0.2,0.2,1.2,2.2c-4.9,10.8-9.1,22.5-12.4,35c-2,0.9-0.9,1-2.3,0.9
						c-1.4-0.1-2,0-1.9-0.4C868.3,375.2,872.8,362.4,878.9,349.8L878.9,349.8z"/>
					<path class="st79" d="M915.6,375.5c0.2,0.1,0.4,0.2,0.6,0.3c3.2,1.5,5.2,1.7,6.3,2.5l-2.7,7.6l-2.7,7.6c-1.4,0-3-1.1-6.5-2
						c-0.2,0-0.4-0.1-0.6-0.1L915.6,375.5z"/>
					<path class="st80" d="M913.2,384.7c0.1-0.5,0.1-0.8,0.1-0.9c-0.3-0.2-2.7-0.6-4.7-0.9L913.2,384.7z"/>
					<path class="st81" d="M878.9,349.8c0.2-0.4,2.6,2.4,3,3.1c2.1,4.3,29.1,20.5,34.3,22.9c3.2,1.5,3.9,2.1,5,3l-2.6,7.9L871,368.5
						C873.3,362.2,875.9,356,878.9,349.8L878.9,349.8z"/>
					<path class="st82" d="M878.9,349.8c0.2-0.4,0.6,0.1,1.8,0.9s0.2,0.2,1.2,2.2c-2.5,5.5-4.8,11.2-6.9,17.1l-3.9-1.5
						C873.3,362.2,875.9,356,878.9,349.8L878.9,349.8z"/>
					<path class="st82" d="M915.6,375.5c0.2,0.1,0.4,0.2,0.6,0.3c3.2,1.5,5.2,1.7,6.3,2.5l-2.7,7.6l-0.4,1.1l-6.9-2.7L915.6,375.5z"
						/>
					<polygon class="st83" points="861.4,359.6 845.3,350.2 846.9,348.2 					"/>
					<polygon class="st83" points="867.6,354.2 855.8,337.5 857.1,336.5 					"/>
					<polygon class="st83" points="863.1,370.2 838,368.8 838.2,371.4 					"/>
					<polygon class="st83" points="863,377.2 842.8,385.2 843.2,386.8 					"/>
					<path class="st73" d="M907.2,393.8c0.8,2.9-0.9,6.3-3.2,7.6c-0.8,0.4-2,0.8-4.3-1.1c-2.1-1.7,1.6-8.3,3.3-8.6
						C904.5,391.5,907.1,392.9,907.2,393.8L907.2,393.8z"/>
					<path class="st70" d="M912.4,401.1l1.6-1.7c0,0-1.1-4.8-2.1-5.9s-4.9-5-5.4-4.6c-0.4,0.4-0.6,1.5,0.4,3.6c1,2,3,2.8,3,2.8
						s-0.6,3.4,0.1,5.6C910.7,403.1,912.4,401.1,912.4,401.1L912.4,401.1z"/>
					<path class="st75" d="M998.2,353.8l-2.3,4.9c-3.3,0.3-14.1,1.4-16.4,0.3l2.1-1.2c0,0-4,0.2-8.1-1.3c-4-1.5-5.1-3.5-4.8-3.5
						s3.2-0.2,3.2-0.2s-1.9-0.3-3.9-4.3s-2.4-6-2-5.6s3,1.3,2.8,1c-0.1-0.4-0.3-3.4-0.3-3.4s4,0.5,9.2,0.9s21.7,3.1,21.7,4.5
						C999.6,347.2,998.2,353.8,998.2,353.8L998.2,353.8z"/>
				</g>
				<path class="st8" d="M1169.4,967.5c-1.3,3.7-2.4,8.7-2.4,8.7s-20.5,9-17.6,11.1c4.5,3.3,21.1-1,27-2.2v-9.4L1169.4,967.5z"/>
				<path class="st8" d="M1232.5,965.2c1.3,3.7,2.4,8.7,2.4,8.7s20.4,9,17.6,11.1c-4.5,3.3-25.7-0.7-25.7-2.6V973L1232.5,965.2z"/>
				<path class="st84" d="M1183.8,805.2c-8.5,46.5-12.2,115.3-16.7,170.9c0,0,6.7,0.2,9.4-0.5c11.2-46.4,21.2-94.2,32.4-140.6
					c6,45.7,11.7,94,17.7,139.7c1.6,0.5,6.5-0.7,8.2-1s2.5-163.8,2.2-165.7C1236.7,806.2,1183.8,805.2,1183.8,805.2L1183.8,805.2z"
					/>
				<path class="st85" d="M1271.4,831.3h-3.1v-10.9h-20.8v10.9h-3.1v-12.5c0-0.9,0.7-1.5,1.5-1.5h23.9c0.9,0,1.5,0.7,1.5,1.5
					L1271.4,831.3L1271.4,831.3z"/>
				<path class="st86" d="M1270.7,830.7v-11.8c0-0.5-0.4-0.9-0.9-0.9H1246c-0.5,0-0.9,0.4-0.9,0.9v11.8h1.7v-10.9h22.1v10.9H1270.7z
					"/>
				<path class="st87" d="M1298.2,881.3c0,2.7-2.2,4.8-4.9,4.8h-70.7c-2.7,0-4.9-2.2-4.9-4.8v-49.4c0-2.7,2.2-4.8,4.9-4.8h70.7
					c2.7,0,4.9,2.2,4.9,4.8V881.3z"/>
				<path class="st88" d="M1296.3,881.3v-1.6c0-0.1,0-0.1-0.1-0.1s-0.2,0-0.2,0.1c0,0.5,0.1,1.6-0.1,2.2c-0.1,0.2,0.3,0.3,0.3,0.1
					C1296.3,881.8,1296.3,881.5,1296.3,881.3L1296.3,881.3z M1295.4,883.4c0.2-0.2-0.1-0.4-0.2-0.2c-0.4,0.4-0.8,0.6-1.3,0.7
					c-0.2,0.1-0.1,0.4,0.1,0.3C1294.5,884.1,1295,883.8,1295.4,883.4L1295.4,883.4z M1292.4,884.3
					C1292.5,884.3,1292.5,884.3,1292.4,884.3c0.1-0.2,0.1-0.3,0-0.3h-1.6c-0.1,0-0.1,0-0.1,0.1s0,0.2,0.1,0.2H1292.4z M1289.2,884.3
					C1289.3,884.3,1289.3,884.3,1289.2,884.3c0.1-0.2,0.1-0.3,0-0.3h-1.6c-0.1,0-0.1,0-0.1,0.1s0,0.2,0.1,0.2H1289.2z M1286.1,884.3
					C1286.2,884.3,1286.2,884.3,1286.1,884.3c0.1-0.2,0.1-0.3,0-0.3h-1.6c-0.1,0-0.1,0-0.1,0.1s0,0.2,0.1,0.2H1286.1z M1282.9,884.3
					C1283,884.3,1283,884.3,1282.9,884.3c0.1-0.2,0.1-0.3,0-0.3h-1.6c-0.1,0-0.1,0-0.1,0.1s0,0.2,0.1,0.2H1282.9z M1279.8,884.3
					C1279.9,884.3,1279.9,884.3,1279.8,884.3c0.1-0.2,0.1-0.3,0-0.3h-1.6c-0.1,0-0.1,0-0.1,0.1s0,0.2,0.1,0.2H1279.8z M1276.7,884.3
					C1276.8,884.3,1276.8,884.3,1276.7,884.3c0.1-0.2,0.1-0.3,0-0.3h-1.6c-0.1,0-0.1,0-0.1,0.1s0,0.2,0.1,0.2H1276.7z M1273.5,884.3
					C1273.6,884.3,1273.6,884.3,1273.5,884.3c0.1-0.2,0.1-0.3,0-0.3h-1.6c-0.1,0-0.1,0-0.1,0.1s0,0.2,0.1,0.2H1273.5z M1270.4,884.3
					C1270.5,884.3,1270.5,884.3,1270.4,884.3c0.1-0.2,0.1-0.3,0-0.3h-1.6c-0.1,0-0.1,0-0.1,0.1s0,0.2,0.1,0.2H1270.4z M1267.2,884.3
					C1267.3,884.3,1267.3,884.3,1267.2,884.3c0.1-0.2,0.1-0.3,0-0.3h-1.6c-0.1,0-0.1,0-0.1,0.1s0,0.2,0.1,0.2H1267.2z M1264.1,884.3
					C1264.2,884.3,1264.2,884.3,1264.1,884.3c0.1-0.2,0.1-0.3,0-0.3h-1.6c-0.1,0-0.1,0-0.1,0.1s0,0.2,0.1,0.2H1264.1z M1260.9,884.3
					C1261,884.3,1261,884.3,1260.9,884.3c0.1-0.2,0.1-0.3,0-0.3h-1.6c-0.1,0-0.1,0-0.1,0.1s0,0.2,0.1,0.2H1260.9z M1257.8,884.3
					C1257.9,884.3,1257.9,884.3,1257.8,884.3c0.1-0.2,0.1-0.3,0-0.3h-1.6c-0.1,0-0.1,0-0.1,0.1s0,0.2,0.1,0.2H1257.8z M1254.7,884.3
					C1254.8,884.3,1254.8,884.3,1254.7,884.3c0.1-0.2,0.1-0.3,0-0.3h-1.6c-0.1,0-0.1,0-0.1,0.1s0,0.2,0.1,0.2H1254.7z M1251.5,884.3
					C1251.6,884.3,1251.6,884.3,1251.5,884.3c0.1-0.2,0.1-0.3,0-0.3h-1.6c-0.1,0-0.1,0-0.1,0.1s0,0.2,0.1,0.2H1251.5z M1248.4,884.3
					C1248.5,884.3,1248.5,884.3,1248.4,884.3c0.1-0.2,0.1-0.3,0-0.3h-1.6c-0.1,0-0.1,0-0.1,0.1s0,0.2,0.1,0.2H1248.4z M1245.2,884.3
					C1245.3,884.3,1245.3,884.3,1245.2,884.3c0.1-0.2,0.1-0.3,0-0.3h-1.6c-0.1,0-0.1,0-0.1,0.1s0,0.2,0.1,0.2H1245.2z M1242.1,884.3
					C1242.2,884.3,1242.2,884.3,1242.1,884.3c0.1-0.2,0.1-0.3,0-0.3h-1.6c-0.1,0-0.1,0-0.1,0.1s0,0.2,0.1,0.2H1242.1z M1238.9,884.3
					C1239,884.3,1239,884.3,1238.9,884.3c0.1-0.2,0.1-0.3,0-0.3h-1.6c-0.1,0-0.1,0-0.1,0.1s0,0.2,0.1,0.2H1238.9z M1235.8,884.3
					C1235.9,884.3,1235.9,884.3,1235.8,884.3c0.1-0.2,0.1-0.3,0-0.3h-1.6c-0.1,0-0.1,0-0.1,0.1s0,0.2,0.1,0.2H1235.8z M1232.7,884.3
					C1232.8,884.3,1232.8,884.3,1232.7,884.3c0.1-0.2,0.1-0.3,0-0.3h-1.6c-0.1,0-0.1,0-0.1,0.1s0,0.2,0.1,0.2H1232.7z M1229.5,884.3
					C1229.6,884.3,1229.6,884.3,1229.5,884.3c0.1-0.2,0.1-0.3,0-0.3h-1.6c-0.1,0-0.1,0-0.1,0.1s0,0.2,0.1,0.2H1229.5z M1226.4,884.3
					C1226.5,884.3,1226.5,884.3,1226.4,884.3c0.1-0.2,0.1-0.3,0-0.3h-1.6c-0.1,0-0.1,0-0.1,0.1s0,0.2,0.1,0.2H1226.4z M1223.2,884.3
					C1223.3,884.3,1223.3,884.3,1223.2,884.3c0.1-0.2,0.1-0.3,0-0.3h-0.7c-0.3,0-0.6,0-0.8-0.1c-0.2-0.1-0.3,0.2-0.1,0.3
					c0.3,0.1,0.6,0.1,0.9,0.1H1223.2z M1220.2,883.3c0.2,0.2,0.4-0.1,0.2-0.2c-0.3-0.3-0.6-0.8-0.7-1.3c-0.1-0.2-0.3-0.2-0.3,0.1
					C1219.6,882.4,1219.9,882.9,1220.2,883.3L1220.2,883.3z M1219.4,880.2C1219.4,880.3,1219.4,880.3,1219.4,880.2
					c0.2,0.1,0.3,0.1,0.3,0v-1.6c0-0.1,0-0.1-0.1-0.1s-0.2,0-0.2,0.1L1219.4,880.2L1219.4,880.2z M1219.4,877.1
					C1219.4,877.2,1219.4,877.2,1219.4,877.1c0.2,0.1,0.3,0.1,0.3,0v-1.6c0-0.1,0-0.1-0.1-0.1s-0.2,0-0.2,0.1L1219.4,877.1
					L1219.4,877.1z M1219.4,873.9C1219.4,874,1219.4,874,1219.4,873.9c0.2,0.1,0.3,0.1,0.3,0v-1.6c0-0.1,0-0.1-0.1-0.1
					s-0.2,0-0.2,0.1L1219.4,873.9L1219.4,873.9z M1219.4,870.8C1219.4,870.9,1219.4,870.9,1219.4,870.8c0.2,0.1,0.3,0.1,0.3,0v-1.6
					c0-0.1,0-0.1-0.1-0.1s-0.2,0-0.2,0.1L1219.4,870.8L1219.4,870.8z M1219.4,867.7C1219.4,867.8,1219.4,867.8,1219.4,867.7
					c0.2,0.1,0.3,0.1,0.3,0v-1.6c0-0.1,0-0.1-0.1-0.1s-0.2,0-0.2,0.1L1219.4,867.7L1219.4,867.7z M1219.4,864.5
					C1219.4,864.6,1219.4,864.6,1219.4,864.5c0.2,0.1,0.3,0.1,0.3,0v-1.6c0-0.1,0-0.1-0.1-0.1s-0.2,0-0.2,0.1L1219.4,864.5
					L1219.4,864.5z M1219.4,861.4C1219.4,861.5,1219.4,861.5,1219.4,861.4c0.2,0.1,0.3,0.1,0.3,0v-1.6c0-0.1,0-0.1-0.1-0.1
					s-0.2,0-0.2,0.1L1219.4,861.4L1219.4,861.4z M1219.4,858.2C1219.4,858.3,1219.4,858.3,1219.4,858.2c0.2,0.1,0.3,0.1,0.3,0v-1.6
					c0-0.1,0-0.1-0.1-0.1s-0.2,0-0.2,0.1L1219.4,858.2L1219.4,858.2z M1219.4,855.1C1219.4,855.2,1219.4,855.2,1219.4,855.1
					c0.2,0.1,0.3,0.1,0.3,0v-1.6c0-0.1,0-0.1-0.1-0.1s-0.2,0-0.2,0.1L1219.4,855.1L1219.4,855.1z M1219.4,851.9
					C1219.4,852,1219.4,852,1219.4,851.9c0.2,0.1,0.3,0.1,0.3,0v-1.6c0-0.1,0-0.1-0.1-0.1s-0.2,0-0.2,0.1L1219.4,851.9L1219.4,851.9
					z M1219.4,848.8C1219.4,848.9,1219.4,848.9,1219.4,848.8c0.2,0.1,0.3,0.1,0.3,0v-1.6c0-0.1,0-0.1-0.1-0.1s-0.2,0-0.2,0.1
					L1219.4,848.8L1219.4,848.8z M1219.4,845.7C1219.4,845.8,1219.4,845.8,1219.4,845.7c0.2,0.1,0.3,0.1,0.3,0v-1.6
					c0-0.1,0-0.1-0.1-0.1s-0.2,0-0.2,0.1L1219.4,845.7L1219.4,845.7z M1219.4,842.5C1219.4,842.6,1219.4,842.6,1219.4,842.5
					c0.2,0.1,0.3,0.1,0.3,0v-1.6c0-0.1,0-0.1-0.1-0.1s-0.2,0-0.2,0.1L1219.4,842.5L1219.4,842.5z M1219.4,839.4
					C1219.4,839.5,1219.4,839.5,1219.4,839.4c0.2,0.1,0.3,0.1,0.3,0v-1.6c0-0.1,0-0.1-0.1-0.1s-0.2,0-0.2,0.1L1219.4,839.4
					L1219.4,839.4z M1219.4,836.2C1219.4,836.3,1219.4,836.3,1219.4,836.2c0.2,0.1,0.3,0.1,0.3,0v-1.6c0-0.1,0-0.1-0.1-0.1
					s-0.2,0-0.2,0.1L1219.4,836.2L1219.4,836.2z M1219.4,833.1C1219.4,833.2,1219.4,833.2,1219.4,833.1c0.2,0.1,0.3,0.1,0.3,0
					c0-0.5,0-1.1,0-1.6c0-0.2-0.3-0.2-0.3,0C1219.4,832,1219.4,832.6,1219.4,833.1L1219.4,833.1z M1220.1,830
					c-0.1,0.2,0.1,0.3,0.2,0.2c0.3-0.4,0.7-0.7,1.2-0.9c0.2-0.1,0.1-0.4-0.1-0.3C1220.9,829.3,1220.5,829.6,1220.1,830L1220.1,830z
					 M1223.1,828.9C1223,828.9,1223,828.9,1223.1,828.9c-0.1,0.2-0.1,0.3,0,0.3h1.6c0.1,0,0.1,0,0.1-0.1s0-0.2-0.1-0.2H1223.1z
					 M1226.2,828.9C1226.1,828.9,1226.1,828.9,1226.2,828.9c-0.1,0.2-0.1,0.3,0,0.3h1.6c0.1,0,0.1,0,0.1-0.1s0-0.2-0.1-0.2H1226.2z
					 M1229.3,828.9C1229.2,828.9,1229.2,828.9,1229.3,828.9c-0.1,0.2-0.1,0.3,0,0.3h1.6c0.1,0,0.1,0,0.1-0.1s0-0.2-0.1-0.2H1229.3z
					 M1232.5,828.9C1232.4,828.9,1232.4,828.9,1232.5,828.9c-0.1,0.2-0.1,0.3,0,0.3h1.6c0.1,0,0.1,0,0.1-0.1s0-0.2-0.1-0.2H1232.5z
					 M1235.6,828.9C1235.5,828.9,1235.5,828.9,1235.6,828.9c-0.1,0.2-0.1,0.3,0,0.3h1.6c0.1,0,0.1,0,0.1-0.1s0-0.2-0.1-0.2H1235.6z
					 M1238.8,828.9C1238.7,828.9,1238.7,828.9,1238.8,828.9c-0.1,0.2-0.1,0.3,0,0.3h1.6c0.1,0,0.1,0,0.1-0.1s0-0.2-0.1-0.2H1238.8z
					 M1241.9,828.9C1241.8,828.9,1241.8,828.9,1241.9,828.9c-0.1,0.2-0.1,0.3,0,0.3h1.6c0.1,0,0.1,0,0.1-0.1s0-0.2-0.1-0.2H1241.9z
					 M1245.1,828.9C1245,828.9,1245,828.9,1245.1,828.9c-0.1,0.2-0.1,0.3,0,0.3h1.6c0.1,0,0.1,0,0.1-0.1s0-0.2-0.1-0.2H1245.1z
					 M1248.2,828.9C1248.1,828.9,1248.1,828.9,1248.2,828.9c-0.1,0.2-0.1,0.3,0,0.3h1.6c0.1,0,0.1,0,0.1-0.1s0-0.2-0.1-0.2H1248.2z
					 M1251.4,828.9C1251.3,828.9,1251.3,828.9,1251.4,828.9c-0.1,0.2-0.1,0.3,0,0.3h1.6c0.1,0,0.1,0,0.1-0.1s0-0.2-0.1-0.2H1251.4z
					 M1254.5,828.9C1254.4,828.9,1254.4,828.9,1254.5,828.9c-0.1,0.2-0.1,0.3,0,0.3h1.6c0.1,0,0.1,0,0.1-0.1s0-0.2-0.1-0.2H1254.5z
					 M1257.6,828.9C1257.5,828.9,1257.5,828.9,1257.6,828.9c-0.1,0.2-0.1,0.3,0,0.3h1.6c0.1,0,0.1,0,0.1-0.1s0-0.2-0.1-0.2H1257.6z
					 M1260.8,828.9C1260.7,828.9,1260.7,828.9,1260.8,828.9c-0.1,0.2-0.1,0.3,0,0.3h1.6c0.1,0,0.1,0,0.1-0.1s0-0.2-0.1-0.2H1260.8z
					 M1263.9,828.9C1263.8,828.9,1263.8,828.9,1263.9,828.9c-0.1,0.2-0.1,0.3,0,0.3h1.6c0.1,0,0.1,0,0.1-0.1s0-0.2-0.1-0.2H1263.9z
					 M1267.1,828.9C1267,828.9,1267,828.9,1267.1,828.9c-0.1,0.2-0.1,0.3,0,0.3h1.6c0.1,0,0.1,0,0.1-0.1s0-0.2-0.1-0.2H1267.1z
					 M1270.2,828.9C1270.1,828.9,1270.1,828.9,1270.2,828.9c-0.1,0.2-0.1,0.3,0,0.3h1.6c0.1,0,0.1,0,0.1-0.1s0-0.2-0.1-0.2H1270.2z
					 M1273.3,828.9C1273.2,828.9,1273.2,828.9,1273.3,828.9c-0.1,0.2-0.1,0.3,0,0.3h1.6c0.1,0,0.1,0,0.1-0.1s0-0.2-0.1-0.2H1273.3z
					 M1276.5,828.9C1276.4,828.9,1276.4,828.9,1276.5,828.9c-0.1,0.2-0.1,0.3,0,0.3h1.6c0.1,0,0.1,0,0.1-0.1s0-0.2-0.1-0.2H1276.5z
					 M1279.6,828.9C1279.5,828.9,1279.5,828.9,1279.6,828.9c-0.1,0.2-0.1,0.3,0,0.3h1.6c0.1,0,0.1,0,0.1-0.1s0-0.2-0.1-0.2H1279.6z
					 M1282.8,828.9C1282.7,828.9,1282.7,828.9,1282.8,828.9c-0.1,0.2-0.1,0.3,0,0.3h1.6c0.1,0,0.1,0,0.1-0.1s0-0.2-0.1-0.2H1282.8z
					 M1285.9,828.9C1285.8,828.9,1285.8,828.9,1285.9,828.9c-0.1,0.2-0.1,0.3,0,0.3h1.6c0.1,0,0.1,0,0.1-0.1s0-0.2-0.1-0.2H1285.9z
					 M1289.1,828.9C1289,828.9,1289,828.9,1289.1,828.9c-0.1,0.2-0.1,0.3,0,0.3h1.6c0.1,0,0.1,0,0.1-0.1s0-0.2-0.1-0.2H1289.1z
					 M1292.2,828.9C1292.1,828.9,1292.1,828.9,1292.2,828.9c-0.1,0.2-0.1,0.3,0,0.3c0.3,0,1.1,0,1.5,0c0.2,0,0.3-0.3,0.1-0.3
					C1293.3,828.8,1292.6,828.9,1292.2,828.9L1292.2,828.9z M1295.3,829.6c-0.1-0.1-0.4,0.1-0.2,0.2c0.4,0.3,0.7,0.8,0.8,1.2
					c0.1,0.2,0.4,0.1,0.3-0.1C1296,830.5,1295.7,829.9,1295.3,829.6L1295.3,829.6z M1296.3,832.6
					C1296.3,832.5,1296.3,832.5,1296.3,832.6c-0.2-0.1-0.3-0.1-0.3,0v1.6c0,0.1,0,0.1,0.1,0.1s0.2,0,0.2-0.1L1296.3,832.6
					L1296.3,832.6z M1296.3,835.7C1296.3,835.6,1296.3,835.6,1296.3,835.7c-0.2-0.1-0.3-0.1-0.3,0v1.6c0,0.1,0,0.1,0.1,0.1
					s0.2,0,0.2-0.1L1296.3,835.7L1296.3,835.7z M1296.3,838.9C1296.3,838.8,1296.3,838.8,1296.3,838.9c-0.2-0.1-0.3-0.1-0.3,0v1.6
					c0,0.1,0,0.1,0.1,0.1s0.2,0,0.2-0.1L1296.3,838.9L1296.3,838.9z M1296.3,842C1296.3,841.9,1296.3,841.9,1296.3,842
					c-0.2-0.1-0.3-0.1-0.3,0v1.6c0,0.1,0,0.1,0.1,0.1s0.2,0,0.2-0.1L1296.3,842L1296.3,842z M1296.3,845.1
					C1296.3,845,1296.3,845,1296.3,845.1c-0.2-0.1-0.3-0.1-0.3,0v1.6c0,0.1,0,0.1,0.1,0.1s0.2,0,0.2-0.1L1296.3,845.1L1296.3,845.1z
					 M1296.3,848.3C1296.3,848.2,1296.3,848.2,1296.3,848.3c-0.2-0.1-0.3-0.1-0.3,0v1.6c0,0.1,0,0.1,0.1,0.1s0.2,0,0.2-0.1
					L1296.3,848.3L1296.3,848.3z M1296.3,851.4C1296.3,851.3,1296.3,851.3,1296.3,851.4c-0.2-0.1-0.3-0.1-0.3,0v1.6
					c0,0.1,0,0.1,0.1,0.1s0.2,0,0.2-0.1L1296.3,851.4L1296.3,851.4z M1296.3,854.6C1296.3,854.5,1296.3,854.5,1296.3,854.6
					c-0.2-0.1-0.3-0.1-0.3,0v1.6c0,0.1,0,0.1,0.1,0.1s0.2,0,0.2-0.1L1296.3,854.6L1296.3,854.6z M1296.3,857.7
					C1296.3,857.6,1296.3,857.6,1296.3,857.7c-0.2-0.1-0.3-0.1-0.3,0v1.6c0,0.1,0,0.1,0.1,0.1s0.2,0,0.2-0.1L1296.3,857.7
					L1296.3,857.7z M1296.3,860.9C1296.3,860.8,1296.3,860.8,1296.3,860.9c-0.2-0.1-0.3-0.1-0.3,0v1.6c0,0.1,0,0.1,0.1,0.1
					s0.2,0,0.2-0.1L1296.3,860.9L1296.3,860.9z M1296.3,864C1296.3,863.9,1296.3,863.9,1296.3,864c-0.2-0.1-0.3-0.1-0.3,0v1.6
					c0,0.1,0,0.1,0.1,0.1s0.2,0,0.2-0.1L1296.3,864L1296.3,864z M1296.3,867.1C1296.3,867,1296.3,867,1296.3,867.1
					c-0.2-0.1-0.3-0.1-0.3,0v1.6c0,0.1,0,0.1,0.1,0.1s0.2,0,0.2-0.1L1296.3,867.1L1296.3,867.1z M1296.3,870.3
					C1296.3,870.2,1296.3,870.2,1296.3,870.3c-0.2-0.1-0.3-0.1-0.3,0v1.6c0,0.1,0,0.1,0.1,0.1s0.2,0,0.2-0.1L1296.3,870.3
					L1296.3,870.3z M1296.3,873.4C1296.3,873.3,1296.3,873.3,1296.3,873.4c-0.2-0.1-0.3-0.1-0.3,0v1.6c0,0.1,0,0.1,0.1,0.1
					s0.2,0,0.2-0.1L1296.3,873.4L1296.3,873.4z M1296.3,876.6C1296.3,876.5,1296.3,876.5,1296.3,876.6c-0.2-0.1-0.3-0.1-0.3,0v1.6
					c0,0.1,0,0.1,0.1,0.1s0.2,0,0.2-0.1L1296.3,876.6L1296.3,876.6z"/>
				<path class="st89" d="M1216,826.4c0.2,15.3,18.9,27.7,41.9,27.7s41.7-12.4,41.9-27.7H1216z"/>
				<rect x="1253" y="848.4" class="st27" width="9.8" height="12.6"/>
				<rect x="1254.4" y="849.8" class="st90" width="7.1" height="9.8"/>
				<path class="st73" d="M1207.4,680.9c0.6,3.8,1.5,16.2-5.9,19.3c-3,1.3-5.8,3.8-5.8,3.8c0.8,11.7,28.2,13.4,39,2.2l-4.8-5.1
					c-9.6-1.4-6.3-17.7-6.3-25.4L1207.4,680.9z"/>
				<path class="st91" d="M1189,718.4c1.1,38.9-5.7,67.5-7.3,88.9c-0.7,11.1,58.1,18.8,58,9.6c-1.1-31.6-1.5-65.1,2-94.2l-0.1-18.4
					c-0.5-0.1-1.1-0.2-1.6-0.4l-10.6-3.4c0,0-6.3,6.3-16.5,5.1s-9.1-7.2-9.1-7.2c-4.6,0.7-9.2,1.7-13.8,2.4L1189,718.4z"/>
				<path class="st92" d="M1233.4,661c0.5,1.8-1.3,9.5-3.1,14c-1.7,4.5-7.2,7.2-7.1,6.5c0-0.6,0.6-16.2,0.6-16.2L1233.4,661z"/>
				<path class="st70" d="M1195.9,683.7c2.5,10.5,7.3,13.5,14.7,9.4c6.3-3.5,10.7-9.4,13.5-15.6c2.1,0.5,4.5-1,5.8-3.6
					c1.6-3.1,1-6.8-1.3-8.2c-0.5-0.3-1-0.5-1.6-0.5c0.1-3.3-0.4-6.3-0.7-9.6c-0.6-6-17.2-11.1-24.1-7
					C1193.6,653.8,1194.2,676.2,1195.9,683.7L1195.9,683.7z"/>
				<path class="st92" d="M1220.8,658.7c0.7,0.7-0.3,11.9,0.9,11.9c1.2,0,5.3-5.4,5.3-5.4s0.2-0.3,1.6,0.5s1.8,2.4,1.8,2.4
					s4.9-10.7,4.1-13c-0.7-2.3-5.4-5-5.4-5s-0.5-2.4-3.2-5.2c-2.7-2.7-10.2-2.9-20.3-3.9c-10-0.9-16.7,5.6-7.4,12.1
					C1206.9,659.3,1220.8,658.7,1220.8,658.7L1220.8,658.7z"/>
				<path class="st70" d="M1257.3,804l-1.6,4c0,0-2.4,9.5-1.3,9.7s2-0.9,2.2-1.6c0.2-0.8,1-2.8,1-2.8s1.2,0.8,1.5,1
					c0.2,0.1,0.9,1.5,1.4,2.7c0,0.5,0,0.8,0,0.9c-0.2,0.4-3.6,6.5-2.3,6.6c0.6,0,1.5-0.8,2.4-1.7c-0.3,1.2-0.5,2.3-0.1,2.4
					c0.9,0.2,4.5-4.3,4.5-5.6s-2.3-13.7-2.3-13.7l-5.4-1.7L1257.3,804z"/>
				<path class="st91" d="M1241.6,704.3c13,5.6,21.2,59.3,22.2,104.6l-8.4-2c-0.8-22.5-5.2-53-16.4-83.9L1241.6,704.3z"/>
				<path class="st70" d="M1093.6,712.4c-1.1-0.4-4.2,0.1-4.2,0.1s-5.9,5.3-7.7,5.7c-1.8,0.4,2.4-5.5,1.8-5.9s-6-1-6-1s-6.5,0-7.3,0
					s0.1-1.4,1.9-2.2c1.7-0.9,7.7-2.6,9.6-2.7c1.9-0.1,10.7,1,10.7,1L1093.6,712.4z"/>
				<path class="st91" d="M1190,700.9c-14.1,9.7-38.9,16.2-38.9,16.2c-6.4-0.6-45.5-6.4-58.7-9.6l-2.9,5.1
					c17.2,8,55.1,20.4,60.9,20.3c7.9-0.2,35.7-8.7,42.3-13.3L1190,700.9z"/>
				<path class="st93" d="M108.4,765.5c-4,2.6-10.6,5.2-15.8,26.2c-5.2,21,3.3,80,3.3,80s-7.3,23.6-10.3,43.4
					c-3,19.7-6.6,46.4-6.6,46.4l9.4,2.8l26.5-87.6c9.3-30.9,8.8-102.6,5.9-104.2L108.4,765.5z"/>
				<path class="st94" d="M107.4,962.4l-2.4,4l-0.9,4.3c0,0,4.5,6.4,9.2,5.9c4.6-0.5,5.5-3.2,5.5-3.2l-4.1-5.8L107.4,962.4z"/>
				<path class="st31" d="M104.1,970.7c-1.4,0.3-2.4,7.3-1.1,8.8c2.4,0,4.8,0,7.2,0c0.5,0,0.9,0,1.4,0c4.2,0,14,0.2,17.2,0
					c3.2-0.2,8.1-2.5,2.8-3.8s-15-5.2-15-5.2C115.4,975.6,106.5,973,104.1,970.7L104.1,970.7z"/>
				<path class="st95" d="M92.7,762.9c-3.4,3.4-9.3,7.2-10.2,28.9c-0.8,21.6,19.5,77.7,19.5,77.7s-2.3,24.6-1.3,44.6
					c1.1,19.9,3.7,54,3.7,54l10.5,0.2l6.6-97.8c0,0,3.8-47.1,4.2-65.8c0.4-18.7-7-38.8-7-38.8L92.7,762.9z"/>
				<path class="st8" d="M106.1,642.6c-1,1.4-1.5,8.7-1.3,13.2c0.3,4.4,4.3,8.3,4.4,7.8c0.2-0.6,4.1-14.4,4.1-14.4L106.1,642.6z"/>
				<path class="st73" d="M118.8,666.2c0,0,1.1,2.6-0.2,11.2c-0.8,5.5-0.1,11.2,2.8,16.5c0,0-1.9,7.9-19.4-12.5l8.6-23.1
					L118.8,666.2z"/>
				<path class="st70" d="M132.6,673.1c-5.2,8.6-10.2,9.8-15.5,4.1c-4.6-4.9-6.8-11.3-7.5-17.5c-2-0.2-3.7-2.1-4.1-4.8
					c-0.5-3.2,1-6.2,3.4-6.8c0.5-0.1,1-0.1,1.6,0c0.9-2.9,2.1-5.4,3.3-8.2c2.2-5.1,18.2-4.9,23.2,0.7
					C143.1,647.5,136.3,667,132.6,673.1L132.6,673.1z"/>
				<path class="st8" d="M117.8,644.1c-0.8,0.4-3.1,10.6-4.2,10.2c-1.1-0.4-3.1-6.2-3.1-6.2s-0.1-0.3-1.6,0s-2.3,1.6-2.3,1.6
					s-1.3-10.8,0-12.6s6.2-2.9,6.2-2.9s1.1-2,4.3-3.6c3.1-1.6,9.8,0.3,18.9,2.3c9,2,13.1,9.7,3.1,12.8
					C129.9,648.5,117.8,644.1,117.8,644.1L117.8,644.1z"/>
				<path class="st96" d="M103,679.3c6,1.9,7.5,10.3,16.7,10.5c0,0,8.4,13,11,18.2c4.3,8.9-4.3,14.5-5.3,20s-1.4,56.8,0.1,59.9
					c1.5,3.2-44.5-4.7-41.4-10.7s5.2-30.6,6.2-51.8C90.7,718.5,90.3,675.3,103,679.3L103,679.3z"/>
				<path class="st8" d="M125.4,638.8c-1.9,1-6,5-7.7,18.5s-7.6,21-17.3,25.8s-10.2,33.7-9.5,27.8c0.6-5.9-11.2-16.3-2.9-33.6
					c8.3-17.4,13.6-17.4,12.9-21.3c-0.7-3.9-0.6-14.9,4-19.2c4.6-4.4,7.4-3.6,7.9-4.4c0.5-0.8,3.8-3.3,7.7-3.6
					c4-0.3,17.3,0.8,20.7,5.2c3.4,4.4,2.9,7.4-2.6,9.4S125.4,638.8,125.4,638.8L125.4,638.8z"/>
				<path class="st94" d="M79.3,960.6l-2,4c0,0,2.8,7.3,7.4,8s6.1-1.7,6.1-1.7l-2.5-6.7L79.3,960.6z"/>
				<path class="st31" d="M77.3,964.6c-1.4-0.1-4.1,6.5-3.2,8.2c2.3,0.6,4.7,1.2,7,1.8c0.5,0.1,0.9,0.2,1.4,0.4
					c4,1,13.5,3.7,16.6,4.3c3.2,0.6,8.5-0.4,3.7-3s-13.2-8.8-13.2-8.8C87.1,972.1,79.1,967.4,77.3,964.6L77.3,964.6z"/>
				<path class="st70" d="M199,703.7c0.7-0.4,2.4-3.8,2.4-3.8s2.4-7,3.6-8.1c1.2-1.1,3-2.5,3.6-2.2c0.6,0.2-2.3,4-2.3,4l-1,3.1
					c0,0,3.8-2.5,5.4-3.5c1.6-1.1,3.7-1.7,4.6-1.6c0.9,0.1,1,0.5,1,0.5s1.2-0.1,1.6,1c0.4,1,0.2,1.9,0.2,1.9s0.3,0.8,0.3,1.4
					c0,0.6-0.9,1.8-0.9,1.8s0,1-0.4,1.7s-4.7,2.6-4.7,2.6s-1.8,2-4.1,2.5s-4.3,0.1-4.3,0.1L199,703.7z"/>
				<path class="st96" d="M96.4,694c-3,8.4,44,42.3,51.4,42c7.4-0.4,57.1-31.1,57.1-31.1l-3-5.9c0,0-48.1,21.8-52.6,20.6
					C131.7,714.8,104,672.7,96.4,694L96.4,694z"/>
				<g>
					<path class="st8" d="M371.8,339.1c10.1-2.2,18.6-2.8,18.9-1.3s-7.6,4.5-17.8,6.7c-10.1,2.2-18.6,2.8-18.9,1.3
						C353.7,344.3,361.7,341.3,371.8,339.1L371.8,339.1z"/>
					<path class="st70" d="M324.9,487.9l3,3.1c0,0,5.9,7.8,5,8.4s-2.2,0-2.7-0.6s-2-2.2-2-2.2s-0.8,1.2-0.9,1.5
						c-0.1,0.2-0.2,1.7-0.2,3.1c0.2,0.4,0.3,0.7,0.4,0.8c0.3,0.3,5.8,4.6,4.7,5.2c-0.5,0.3-1.7-0.1-2.9-0.6c0.8,1,1.4,1.9,1,2.2
						c-0.8,0.5-5.8-2.2-6.3-3.4c-0.5-1.2-3.2-13.5-3.2-13.5l4.3-3.7L324.9,487.9z"/>
					<path class="st8" d="M418.6,642.6c1.3,3.5,2.3,8.4,2.3,8.4s19.7,8.7,16.9,10.7c-4.3,3.2-20.3-0.9-26-2.1v-9L418.6,642.6z"/>
					<path class="st8" d="M358,640.4c-1.3,3.5-2.3,8.3-2.3,8.3s-19.7,8.7-16.9,10.7c4.3,3.2,24.7-0.7,24.6-2.5v-9L358,640.4z"/>
					<path class="st73" d="M503.8,354.9c0,0,1.1,4.1-1.3,6.8c-2.4,2.7-7,3.5-7,3.5l-3.8-4.4c0,0,3.5-7.6,3.9-8.2
						C495.9,352.1,503.8,354.9,503.8,354.9L503.8,354.9z"/>
					<path class="st23" d="M404.8,486.7c8.1,44.7,11.7,110.8,16,164.3c0,0-6.4,0.2-9.1-0.5c-10.7-44.6-20.4-90.5-31.1-135.1
						c-5.7,43.9-11.2,90.4-17,134.2c-1.5,0.5-6.2-0.7-7.9-0.9c-1.7-0.2-2.4-157.4-2.1-159.3C354,487.7,404.8,486.7,404.8,486.7
						L404.8,486.7z"/>
					<path class="st73" d="M380.5,369c-0.4,3.5-0.6,14.9,6.3,17.3c2.8,1,5.5,3.2,5.5,3.2c-0.2,10.7-25.1,13.5-35.5,3.8l4.1-4.9
						c8.7-1.8,5-16.4,4.5-23.5L380.5,369z"/>
					<path class="st97" d="M402.9,389c30.9,5.1,65.3-8.7,87.9-29.3l4.7,5.4c0,0-13.5,21.4-40.5,31.8c-17.2,8.8-40.3,9.7-53.2,9.5
						c-1.1,39.4,5.8,68.2,7.3,89.9c0.7,11.2-58.7,19-58.7,9.7c1.1-31.9-4-66.3-7.5-95.7l7.2-18.5l10.7-3.4c0,0,6.4,6.4,16.7,5.1
						c10.3-1.3,9.2-7.3,9.2-7.3C392.2,387.1,397.5,388.2,402.9,389L402.9,389z"/>
					<path class="st97" d="M350.2,391.8c-16.6,8.6-29.4,30.7-32,48.5c-7,28,2.6,51.4,2.6,51.4l7.1-0.8c-4-32.1,5.9-70.6,30.9-92.5
						L350.2,391.8z"/>
					<path class="st8" d="M355.8,352c-0.4,1.6,1.7,8.6,3.5,12.6s6.9,6.2,6.8,5.6c0-0.6-1.3-14.8-1.3-14.8L355.8,352z"/>
					<path class="st70" d="M391.1,371c-1.8,9.7-6,12.6-12.9,9.3c-5.9-2.9-10.2-8.1-13.1-13.6c-1.9,0.5-4.2-0.7-5.5-3
						c-1.6-2.8-1.2-6.1,0.8-7.5c0.4-0.3,0.9-0.5,1.4-0.5c-0.2-3,0-5.8,0.2-8.8c0.3-5.5,15.2-10.9,21.7-7.5
						C391.8,343.5,392.3,364,391.1,371L391.1,371z"/>
					<path class="st8" d="M367.2,349.3c-0.6,0.7,0.8,10.9-0.3,10.9c-1.1,0-5.1-4.6-5.1-4.6s-0.2-0.3-1.4,0.5
						c-1.2,0.8-1.5,2.3-1.5,2.3s-5-9.5-4.4-11.6s4.7-4.8,4.7-4.8s0.3-2.3,2.7-4.9c2.3-2.6,9.2-3.2,18.4-4.5
						c9.1-1.3,15.5,4.4,7.3,10.7C380,349.1,367.2,349.3,367.2,349.3L367.2,349.3z"/>
					<path class="st98" d="M490.7,328l-5.1,2c-0.7,0.3-1,1-0.7,1.7l16.6,42.5c0.3,0.7,1,1,1.7,0.7l5.1-2c0.7-0.3,1-1,0.7-1.7
						l-16.6-42.5C492.1,328.1,491.4,327.8,490.7,328L490.7,328z"/>
					<path class="st8" d="M365.4,346.3c0.2,0.3,1.8,2.9,7.1,4.2c5.3,1.3,6.4-1.6,6.4-1.6s2.5,0.9,6.1-0.2s1.9-2.8,1.9-2.8
						s1,1.7,4.2-0.8s0.2-5.8,0.2-5.8l-1.9-2.9c0,0,0.4-1.7-1.4-3.7s-5.4-1.1-5.4-1.1s-1.6-1.6-4.9-1.3c-3.4,0.3-5.2,2.5-5.2,2.5
						s-2.7-1.1-5.5-0.6s-4.2,2.9-4.2,2.9s-3.1,0.4-4.5,2.4s-0.3,4.3-0.3,4.3s-3.2,0.5-3,3c0.1,2.5,3.4,5.9,6.9,5.5
						C365.3,349.9,365.4,346.3,365.4,346.3L365.4,346.3z"/>
					<path class="st70" d="M499.1,349.2c-0.7,0.6-0.8,0.9-1.2,2.1c-0.9,2.2,1.9,7.3,3.9,8s2.9,1,3.3-1.4c0.3-1.7-1.6-6.3-3.2-8.5
						C501,348.1,500.5,347.9,499.1,349.2L499.1,349.2z"/>
					<path class="st70" d="M492.7,361.8l-1.9-2c0,0,1.3-5.6,2.5-6.8c1.2-1.3,5.7-5.8,6.2-5.3s0.7,1.8-0.4,4.1
						c-1.2,2.4-3.5,3.3-3.5,3.3s0.7,4-0.1,6.5C494.6,364.1,492.7,361.8,492.7,361.8L492.7,361.8z"/>
					<polygon class="st99" points="498,342.3 490.3,346 491.8,349.6 499.5,346.3 					"/>
					<path class="st99" d="M493.2,346.6c-0.2,0.3-1.6,1.5-3.3,4.4c-1.7,2.8-1.1,9.7-1.6,9.5c-0.5-0.1-2.1-0.3-2.1-0.3
						s-0.9-5.1,0.6-8.5c1.4-3.3,4.8-5.4,4.8-5.4L493.2,346.6z"/>
					<path class="st99" d="M493.2,348.1c-0.4,0.2-2.2,1.4-6.3,1.2c-4-0.2-5.6-2-5.6-2l1-1.5c0,0,3.2,1.6,6.4,1.6
						c3.3,0,4.4-0.3,4.4-0.3L493.2,348.1z"/>
					<path class="st100" d="M360.2,388c-27.3,6.2-41.7,30.4-45.4,59.3c-3.1,24.2-0.9,39.3-0.9,39.3l17.2,0.7c0,0,8.1-52.6,8.8-48.1
						c0.7,4.4-6,138.7-4.3,139s95.2,3.1,95.2,3.1l-18.2-158.7c0,0,9.4-2.6,36.2-10c26.8-7.4,48.9-25.2,48.6-25.9
						c-0.2-0.6-13.8-23.2-13.8-23.2s-18.9,13.1-33.5,18.1c-14.5,5-26.4,7.4-39.2,5.8c-12.8-1.6-24.1-1.3-24.1-1.3
						c-1.3,4-6,7.4-14.7,6.3C366.3,391.8,360.2,388,360.2,388L360.2,388z"/>
					<polygon class="st31" points="330.7,334.8 367.8,320.9 407.4,318 407.6,318.9 370.5,332.9 330.9,335.7 					"/>
					<polygon class="st8" points="330.9,335.7 368,321.8 407.6,318.9 370.5,332.9 					"/>
					<path class="st65" d="M352.8,332l33.3-7.3l4.6,13v-0.1c-0.7-1.4-9-0.8-18.9,1.4c-1.9,0.4-3.7,0.8-5.3,1.3
						c-2.3,0.6-4.4,1.3-6.2,1.9c-3.8,1.3-6.2,2.6-6.2,3.4L352.8,332z"/>
					<path class="st66" d="M368.9,325.7c9.2-2,16.9-2.4,17.2-0.9c0.3,1.5-6.9,4.3-16.1,6.3s-16.9,2.4-17.2,0.9
						C352.5,330.5,359.7,327.7,368.9,325.7L368.9,325.7z"/>
					<path class="st67" d="M401.9,318.4l1.2,5.3l5.2,23.7c0.1,0.3,0.4,0.5,0.7,0.4l0,0c0.3-0.1,0.5-0.4,0.4-0.7l-6.3-29l-0.1-0.6
						c-0.1-0.3-0.4-0.5-0.7-0.4l-0.6,0.1l-7.9,1.7L401.9,318.4z"/>
					<path class="st67" d="M407.3,340.5c2-0.4,5.7,8.3,2.8,12.8C405.6,350.4,405.3,341,407.3,340.5L407.3,340.5z"/>
					<path class="st68" d="M406.8,340l0.8-0.2c0.3-0.1,0.6,0.1,0.7,0.4l0,0c0.1,0.3-0.1,0.6-0.4,0.7L407,341
						c-0.3,0.1-0.6-0.1-0.7-0.4l0,0C406.3,340.3,406.5,340,406.8,340L406.8,340z"/>
					<path class="st69" d="M385.7,327.1c-8.2,5.5-18.7,10-30.5,12.6c-0.5,0.1-1.1,0.2-1.6,0.3l0.5,5.6c0.1-1.5,7.9-4.4,17.8-6.6
						s18.2-2.8,18.9-1.4l-3.9-10.9l-0.1-0.3C386.4,326.7,386,326.9,385.7,327.1L385.7,327.1z"/>
				</g>
			</g>
		</g>
	</g>
</g>
</svg>
