<?xml version="1.0" encoding="utf-8"?>
<!-- Generator: Adobe Illustrator 24.0.2, SVG Export Plug-In . SVG Version: 6.00 Build 0)  -->
<svg version="1.1" id="Layer_1" xmlns="http://www.w3.org/2000/svg" xmlns:xlink="http://www.w3.org/1999/xlink" x="0px" y="0px"
	 viewBox="0 0 1900 1080" style="enable-background:new 0 0 1900 1080;" xml:space="preserve">
<style type="text/css">
	.st0{fill:url(#SVGID_1_);}
	.st1{fill:#FFFFFF;}
	.st2{fill:#5E2D00;}
	.st3{fill:#6B3500;}
	.st4{fill:#F1F2F2;}
	.st5{fill:none;stroke:#FFFFFF;stroke-width:0.396;stroke-linecap:round;stroke-linejoin:round;stroke-miterlimit:10;}
	.st6{fill:#E8BAA0;}
	.st7{opacity:0.3;fill:#EF9D78;enable-background:new    ;}
	.st8{fill:#1C1016;}
	.st9{fill:#F1F1F2;}
	.st10{fill:#EAA444;}
	.st11{fill:#1E1713;}
	.st12{fill:#F9C9B4;}
	.st13{fill:#5F4544;}
	.st14{fill:#2B221E;}
	.st15{fill:#BCBEC0;}
	.st16{fill:#1F0000;}
	.st17{fill:#30587C;}
	.st18{fill:#D8A084;}
	.st19{fill:#354D6F;}
	.st20{fill:#181944;}
	.st21{opacity:0.5;fill:#424043;enable-background:new    ;}
	.st22{fill:#3A6687;}
	.st23{fill:#FEA200;}
	.st24{fill:#FFB602;}
	.st25{fill:#424043;}
	.st26{fill:#9B8579;}
	.st27{fill:#F7941E;}
	.st28{fill:#F7C99A;}
	.st29{fill:#A8421A;}
	.st30{fill:#004080;}
	.st31{fill:#DD364A;}
	.st32{fill:#E54863;}
	.st33{opacity:0.4;fill:#BCBEC0;enable-background:new    ;}
	.st34{fill:#244B36;}
	.st35{fill:url(#XMLID_2_);}
	.st36{fill:#47A35A;}
	.st37{fill:url(#XMLID_3_);}
	.st38{fill:#C62A44;}
	.st39{fill:#26C698;}
	.st40{opacity:0.5;}
	.st41{fill:#FB7536;}
	.st42{opacity:0.28;fill:#26C698;enable-background:new    ;}
	.st43{fill:#3ED9B1;}
	.st44{fill:#414042;}
	.st45{fill:#FFCEA1;}
	.st46{fill:#025F99;}
	.st47{fill:#7ED8FD;}
	.st48{fill:#AEECFF;}
	.st49{fill:none;stroke:#FFFFFF;stroke-width:4;stroke-linecap:round;stroke-miterlimit:10;}
	.st50{fill:#6D6E71;}
	.st51{opacity:0.2;fill:#EF9D78;enable-background:new    ;}
	.st52{fill:#74352C;}
	.st53{fill:#9E3515;}
	.st54{fill:#E6E7E8;}
</style>
<g id="Layer_2_1_">
	
		<linearGradient id="SVGID_1_" gradientUnits="userSpaceOnUse" x1="-128.7573" y1="393.0929" x2="2369.1821" y2="393.0929" gradientTransform="matrix(1 0 0 -1 0 1080)">
		<stop  offset="0" style="stop-color:#553D93"/>
		<stop  offset="1" style="stop-color:#2B1E6E"/>
	</linearGradient>
	<path class="st0" d="M78.8,843.5c447.4-36,565.1-117.1,581-190c6.4-29.3-4.5-53.9,10.2-108.3c30.3-112.4,123.3-179.5,151.1-198.1
		c141.1-94.1,235.5-62.2,299.1-142.9c59.7-75.7,30.2-184.7-37.6-243.1c-35.4-30.5-53.5-24.4-53.8-32.7
		c-1.2-35.3,635.1-283.7,1026-4.1c401.4,287.1,400.9,1035.9,98,1382.8c-571.2,654.3-2293-35.5-2281.5-310.5
		C-125.9,930.4-21.8,879.1,78.8,843.5z"/>
</g>
<g id="Layer_1_1_">
	<g id="Layer_2_2_">
		<g id="XMLID_285_">
			<g id="XMLID_292_">
				<g id="XMLID_497_">
					<g id="XMLID_559_">
						<path id="XMLID_574_" class="st1" d="M283.2,683.7c-0.3,0.1,4-10.8,4-10.8h0.5l9.6,3.4c-0.1,0.1-0.2,0.1-0.2,0.2
							c0.1-0.1,0.2-0.2,0.2-0.2l0.4,0.1c0,0,0.4,0,1.1,0c1,0.5,1.9,1.4,1.9,1.4c0.8,4.5-2.3,7.1-5.9,8.3c-0.6-0.3-0.9-0.4-0.9-0.4
							S283.5,683.6,283.2,683.7z"/>
						<g id="XMLID_560_">
							<path id="XMLID_573_" class="st2" d="M300.6,677.5c0,0-0.9-1-1.9-1.4c4-0.1,17.3-0.5,19.9,1.3c3.1,2,4.6,3.8,4.5,5.7
								s-1.9,8.1-12.5,6.8c-8.3-1-16.9-2.5-15.9-4.1C298.3,684.6,301.4,682,300.6,677.5z"/>
							<path id="XMLID_572_" class="st3" d="M294.7,686.1c1.7-0.6,3.3-1.5,4.4-2.7c4.9,1.8,9.1,1.5,14,1.5c0.5-0.7,1.2-4.3,0.3-5
								c-2.5-1.9-9.7-1.4-12.8-2.1c0,0-0.9-1-1.9-1.4c4-0.1,17.3-0.5,19.9,1.3c3.1,2,4.6,3.8,4.5,5.7s-1.9,8.2-12.5,6.8
								C302.3,689.2,293.7,687.7,294.7,686.1z"/>
							<path id="XMLID_571_" class="st4" d="M318.2,677.5c0.1,0.1,0.3,0.1,0.4,0.2c3.1,2,4.6,3.8,4.5,5.7c-0.1,1.4-1.1,5.1-5.8,6.5
								C317.1,685.7,316.6,681.6,318.2,677.5z"/>
							<g id="XMLID_566_">
								<line id="XMLID_570_" class="st5" x1="301.8" y1="677.5" x2="305.1" y2="685.5"/>
								<line id="XMLID_569_" class="st5" x1="304.7" y1="678" x2="307.8" y2="685.3"/>
								<line id="XMLID_568_" class="st5" x1="308" y1="678.4" x2="310.5" y2="685.5"/>
								<line id="XMLID_567_" class="st5" x1="311.7" y1="678.4" x2="313.7" y2="685.5"/>
							</g>
							<g id="XMLID_561_">
								<line id="XMLID_565_" class="st5" x1="300.4" y1="685.3" x2="305.1" y2="677.8"/>
								<line id="XMLID_564_" class="st5" x1="303.3" y1="685.2" x2="307.7" y2="678.5"/>
								<line id="XMLID_563_" class="st5" x1="306.7" y1="685.3" x2="310.4" y2="678.7"/>
								<line id="XMLID_562_" class="st5" x1="310.3" y1="685.9" x2="313.5" y2="679.2"/>
							</g>
						</g>
					</g>
					<g id="XMLID_530_">
						<g id="XMLID_531_">
							<g id="XMLID_557_">
								<path id="XMLID_558_" d="M258.3,654.1c0,0-8.3,7.7-5.7,10.3c1.4,1.3,15,13.1,15,13.1s10.6-4.8,17.5-0.1
									c6.3,0.8,16.3-6.4,19.7-13c1.4-2.7-3-8.3-5.3-10.1l-3.6-0.7l-37.2-0.2L258.3,654.1z"/>
							</g>
							<path id="XMLID_551_" class="st6" d="M270.7,586.5c0.1-0.1,0.2-0.3,0.3-0.5c0-0.2,0.1-0.3,0.1-0.5c0.1-0.1,0.1-0.3,0.2-0.4
								c0.7-2.7,0.5-7.8,0.7-9.3c0,0,3.3,0.2,6.6,0.3c3.3-0.1,6.6-0.3,6.6-0.3c0.1,1.5,0,6.6,0.7,9.3c0.1,0.1,0.1,0.3,0.2,0.4
								c0.1,0.1,0.1,0.3,0.1,0.5c0.1,0.2,0.2,0.3,0.3,0.5c1.2,1.4,14.4,5.1,16.1,8.5c-1.5,5.8-46.1,5.9-47.6,0.1
								C256.6,591.6,269.5,587.9,270.7,586.5"/>
							<path id="XMLID_548_" class="st7" d="M254.9,595c1.6-3.4,14.7-7.1,15.9-8.4c0.1-0.1,0.2-0.3,0.3-0.5c0-0.2,0.1-0.3,0.1-0.5
								c0.1-0.1,0.1-0.3,0.2-0.4c0.7-2.7,0.5-7.7,0.6-9.1c0,0,3.3,0.2,6.5,0.3c3.3-0.1,6.5-0.3,6.5-0.3c0.1,1.5,0.1,5.3,0.5,8.1
								c-0.4,0.2-0.4,5.1-29.1,12.4C255.5,596.8,255,595.6,254.9,595"/>
							<path id="XMLID_546_" class="st8" d="M253,595"/>
							<path id="XMLID_545_" class="st8" d="M253,595.5"/>
							<path id="XMLID_542_" class="st9" d="M278.1,606.7c7.1,0,13.2-8.3,13.2-15.7c0-1.1-0.1-2.1-0.3-3.1c-0.9-0.2-1.8-0.3-2.8-0.5
								c-3,3.4-6.1,4.7-8.6,5.1c-0.3,0.1-0.7,2-0.7,4.5c-0.4-1.6-0.9-4.4-1.2-4.4c-5.6-0.2-8.9-5.2-8.9-5.2s-1.1,0.3-2.7,0.8
								c-0.2,0.9-0.3,1.8-0.3,2.8C265.7,598.4,271,606.7,278.1,606.7z"/>
							<g id="XMLID_532_">
								<path id="XMLID_541_" class="st10" d="M258.7,653.6L258.7,653.6L258.7,653.6z"/>
								<path id="XMLID_539_" class="st10" d="M315.1,629.5c0-2.4-6-30.9-11.6-36.4c-0.3-0.3-3.4-1.9-4-2.1l0,0
									c-0.1-0.1-0.2-0.1-0.4-0.2c-1.3-0.7-3.4-1.7-6.4-2.4c-0.6-0.1-1.2-0.3-1.9-0.4c0.2,1-5.4,10.3-12.5,10.3s-12.7-9.1-12.5-10
									c-0.5,0.1-1,0.3-1.5,0.5c-2.2,0.7-4.9,1.6-6.8,2.4l0,0l0,0c-0.6,0.3-1.1,0.5-1.5,0.8c-1.1,0.5-2.3,1.2-2.4,1.4
									c-5.5,5.5-13.1,34.5-13.1,34.5c-3,7.3,19.4,21.4,20.9,19.2c2.4-3.7,0.9-10.8-8.5-18.8c1.8-2.6,5.7-14.7,5.7-14.7
									c-0.1,1.4-1.7,23.8-1.3,31.1c0.4,7.4,1.4,9.1,1.3,9.1c0,0,29.2,0.1,37.2,0.1c2.9-2,3.7-31.8,2.6-40.5
									c2.3,9.8,4.9,14.6,4.9,14.6L290,646.8c2,2.4,3.9,1.6,7.3,1.9C308.7,639.5,315.1,631.1,315.1,629.5z"/>
								<path id="XMLID_536_" class="st1" d="M286.2,584.5c0,0,0.4,5.6-6.7,8c2.9,1.3,6.1,8.5,6.1,8.5s5.2-7.1,4.4-13.4
									C288.8,586.5,286.2,584.5,286.2,584.5z"/>
								<path id="XMLID_533_" class="st1" d="M271,584.5c0,0-0.7,5.8,6.5,8.2c-2.9,1.3-3.5,9.4-3.5,9.4s-8.5-7.7-6.3-14.4
									C268.8,586.5,271,584.5,271,584.5z"/>
							</g>
						</g>
					</g>
					<path id="XMLID_529_" class="st11" d="M278.4,662.2c0,0-33.1-11.6-43.9-8.1c-10.8,3.4-13.2,23.1,24.1,28.3s35.7,4.8,35.7,4.8
						s6.3-12.9,0.8-19.5C286,664.2,278.4,662.2,278.4,662.2z"/>
					<g id="XMLID_524_">
						<path id="XMLID_526_" class="st6" d="M291.7,560.4c0,9,2.5,2.6-0.2,12.8c-2.7,9.9-5.7,12.4-8.9,14c-4.7,2.2-9.4-0.9-12.1-4.6
							c-1.8-2.4-2.6-3.2-4.5-13c-5.7-30.3-1.4-3.3-1.1-8.6c0.7-11.9,8.6-18.2,15.1-18.2C286.4,542.8,291.7,548.5,291.7,560.4z"/>
						<path id="XMLID_525_" class="st12" d="M292.5,575.4"/>
					</g>
					<path id="XMLID_523_" class="st13" d="M290.1,569.6c-0.5-0.6-2.1,0-2.7,0.1c-1.9,0.4-3.8,0.9-5.8,1.2c-2.5,0.4-5.1,0.6-7.7,0.5
						c-0.8,0-1.6-0.1-2.4-0.2c-0.7-0.2-1.5-0.3-2.2-0.2s-1.3,0.4-1.7,1c-0.3,0.5-0.4,1.2-0.4,1.8c-0.1,0.8-0.1,1.5-0.2,2.3
						c-1.2-2.5-2.4-5-3.1-7.7s-1-5.5-1.1-8.3c-0.1-2.3-0.1-5,0.5-7.3c0.5-1.7,2-3.3,3.2-4.4c2.5-2.4,5.3-4.4,8.3-5.5
						c2.8-1,6.6-2,9.5-1c0.8,0.3,1.6,0.7,2.3,1.4c0.2,0.2,1.5,2.3,1.5,2.3c1.6-0.5,3.3,0,4.6,1.2c1.2,1,2.2,2.6,2.7,4.4
						c1,3.1,0.5,7.6,0.2,10.9c-0.3,2.7-0.7,5.5-1.5,8.1c-0.2,0.6-0.3,1.3-0.6,1.8c-0.3,0.5-0.6,0.9-0.9,1.5c-0.7,1.3-1.4,2.6-2.2,4
						c-0.2-1.1,0.1-2.3,0.3-3.4C291.1,572.5,291.1,570.8,290.1,569.6z"/>
					<g id="XMLID_505_">
						<path id="XMLID_522_" class="st1" d="M266,683.7c0.3,0.1-4-10.8-4-10.8h-0.5l-9.6,3.4c0.1,0.1,0.2,0.1,0.2,0.2
							c-0.1-0.1-0.2-0.2-0.2-0.2l-0.4,0.1c0,0-0.4,0-1.1,0c-1,0.5-1.9,1.4-1.9,1.4c-0.8,4.5,2.3,7.1,5.9,8.3
							c0.6-0.3,0.9-0.4,0.9-0.4S265.7,683.6,266,683.7z"/>
						<g id="XMLID_506_">
							<path id="XMLID_521_" class="st2" d="M248.6,677.5c0,0,0.9-1,1.9-1.4c-4-0.1-17.3-0.5-19.9,1.3c-3.1,2-4.6,3.8-4.5,5.7
								s2,8.1,12.5,6.8c8.3-1,16.9-2.5,15.9-4.1C250.9,684.6,247.8,682,248.6,677.5z"/>
							<path id="XMLID_520_" class="st3" d="M254.5,686.1c-1.7-0.6-3.3-1.5-4.4-2.7c-4.9,1.8-9.1,1.5-14,1.5c-0.6-0.7-1.2-4.3-0.3-5
								c2.5-1.9,9.7-1.4,12.8-2.1c0,0,0.9-1,1.9-1.4c-4-0.1-17.3-0.5-19.9,1.3c-3.1,2-4.6,3.8-4.5,5.7s2,8.2,12.5,6.8
								C246.9,689.2,255.5,687.7,254.5,686.1z"/>
							<path id="XMLID_519_" class="st4" d="M231,677.5c-0.1,0.1-0.3,0.1-0.4,0.2c-3.1,2-4.6,3.8-4.5,5.7c0.1,1.4,1.1,5.1,5.8,6.5
								C232,685.7,232.5,681.6,231,677.5z"/>
							<g id="XMLID_512_">
								<line id="XMLID_518_" class="st5" x1="247.4" y1="677.5" x2="244.1" y2="685.5"/>
								<line id="XMLID_517_" class="st5" x1="244.5" y1="678" x2="241.4" y2="685.3"/>
								<line id="XMLID_516_" class="st5" x1="241.1" y1="678.4" x2="238.7" y2="685.5"/>
								<line id="XMLID_514_" class="st5" x1="237.5" y1="678.4" x2="235.5" y2="685.5"/>
							</g>
							<g id="XMLID_507_">
								<line id="XMLID_511_" class="st5" x1="248.8" y1="685.3" x2="244.1" y2="677.8"/>
								<line id="XMLID_510_" class="st5" x1="245.8" y1="685.2" x2="241.5" y2="678.5"/>
								<line id="XMLID_509_" class="st5" x1="242.5" y1="685.3" x2="238.7" y2="678.7"/>
								<line id="XMLID_508_" class="st5" x1="238.9" y1="685.9" x2="235.7" y2="679.2"/>
							</g>
						</g>
					</g>
					<path id="XMLID_499_" class="st14" d="M276.9,661.9c0,0,33.1-11.5,43.9-8.1s13.2,23.1-24.1,28.3s-35.7,4.8-35.7,4.8
						s-6.3-12.9-0.8-19.5C269.3,663.8,276.9,661.9,276.9,661.9z"/>
				</g>
			</g>
			<g id="XMLID_35_">
				<path id="XMLID_30_" class="st15" d="M304.2,659.5h-53.6v-24.2c0-4,3.3-7.3,7.3-7.3H297c4,0,7.3,3.3,7.3,7.3L304.2,659.5
					L304.2,659.5z"/>
				<path id="XMLID_34_" class="st1" d="M281.4,643.8c0,2.2-1.8,4-4,4s-4-1.8-4-4s1.8-4,4-4S281.4,641.6,281.4,643.8z"/>
			</g>
		</g>
		<g id="XMLID_55_">
			<path id="XMLID_43_" d="M520.1,254.8c-0.2,0-15.1,2.1-15.1,2.1s-1.6,4,3.2,6.5c10.7-3.4,11.7-4.4,11.7-4.4L520.1,254.8z"/>
			<path id="XMLID_136_" class="st6" d="M532.6,329.1c0,0-0.9-2.9-5.3-10.8c-4.3-7.8-6-11.4-6-11.4s4.4-19.8,4.1-45.1
				c7.7-5.2,3.3-6.9,3.3-6.9s2.1-3-1.1-3.9c-3.1-0.9-13.6,1.3-8.6,9.9c-3.9,13.6-7,31.8-8.8,43.6c-0.1,13.7,6.8,35.3,8.7,41.7
				C525.1,344.7,532.6,329.1,532.6,329.1z"/>
			<path id="XMLID_97_" class="st16" d="M528.6,252.9l-0.6,2.4c0,0,0.8,1.2,1.3,1.3c4.6-0.3,16.2-1.1,16.2-1.1s2.6-6.4-2.1-7.3
				C536.4,249.7,528.6,252.9,528.6,252.9z"/>
			<path id="XMLID_68_" class="st17" d="M523.9,305.3c0,0,2.9-12.1,3.5-31.5c-3.1,0.8-15.9,5.4-18.8,6.8c-2.4,7.5-3.2,21.4-4.3,29.3
				c-0.1,13.7,11.4,34.7,13.2,41.1c6.1-1.4,15.9-25,15.9-25s-1.4-1.7-4.9-7.4C523.1,310,523.9,305.3,523.9,305.3z"/>
			<path id="XMLID_135_" class="st6" d="M545.6,314.8c0,0,2.1,9.6,4.4,12.8c-6.1,3.9-14.6-1.1-14.6-1.1l0.7-9.2L545.6,314.8z"/>
			<g id="XMLID_131_">
				<path id="XMLID_133_" class="st6" d="M567.4,422.3c0,0,3.2,41,2.8,44.5c-0.5,3.5-19.7,53.2-22.9,58.7s-7.9,2.6-7.9,2.6
					s4.9-49.2,11.4-61.9c-14.1-30.2-16.3-48.7-16.3-48.7L567.4,422.3z"/>
				<path id="XMLID_80_" class="st14" d="M567.4,422.3l-33-4.8c0,0,2.1,18.5,16.3,48.7c-4.7,9.3-10.9,35.6-12.7,50.4
					c2.4,2.1,9.6,6.4,12.6,7.1c5.3-11.7,19.1-53.7,19.5-56.9C570.6,463.3,567.4,422.3,567.4,422.3z"/>
				<path id="XMLID_132_" class="st18" d="M556,408.2c0,0-12.2,52.5-13.2,55.5c-1,3.1-27.5,43.7-31.4,47.9c-3.9,4.3-7.6,0.5-7.6,0.5
					s14.7-43.2,21.4-53.5c-4.2-26.4-3-44.7-3-44.7L556,408.2z"/>
				<path id="XMLID_61_" class="st14" d="M556,408.2l-33.9,5.7c0,0-1.1,18.3,3,44.7c-4.7,7.1-14.9,27.6-19.6,41
					c2.5,1.7,8.8,6.5,11.4,8.1c8.3-11.8,25-41.4,25.9-44C543.8,460.7,556,408.2,556,408.2z"/>
			</g>
			<path id="XMLID_129_" class="st19" d="M555.5,324.9c4.6,0,7,4.2,8.2,8.1c1.7,5.5,3.3,11.1,4.8,16.7c5.2,18.6,3.9,38.6,6.3,57.6
				c1.5,12,3.2,23.7,3.1,35.8c0,8,1,16.2,0.9,24.4c-0.1,10.2-0.2,20.5-0.3,30.7c-0.1,5.7-0.1,11.5-0.9,17.1
				c-8.5,1.7-16.3-4.4-23.2-9.6c0-1.9-11.3-7.6-13.1-8.6c-4.5-2.6-9.2-4.9-14.1-6.8c-10-3.9-19.9-5.2-30.4-6.5
				c8.5-23.4,16.1-47.4,19.1-72.2c1.4-11.2,1.1-21.5,0.1-32.6c-1.1-12.5-1.8-22.4-1.2-34.9c0.3-6.9,2.4-18.4,10.4-20.9
				c2.9-0.9,6.4-0.8,9.3,0.2c0,0,6.3,4.8,14.2,1.1C551.1,324.8,553.7,324.9,555.5,324.9z"/>
			<path id="XMLID_128_" class="st6" d="M552.8,328.1c0.7-1.8,2.6-2.9,4.4-2.6c2.8,0.3,6.8,2.3,8.9,9.8c0,1.6,1,3.7,1.4,5.2
				s0.8,3,1.1,4.5c0.8,3.1,1.7,6.1,2.6,9.2c1.7-4.2,3.4-8.4,4.9-12.6c0.6-1.8,2-4.3,2-6.2c0-1.6-1-3.6-1.7-5
				c-0.1-0.2-0.3-0.5-0.3-0.8c-0.1-0.4,0-0.7,0.1-1.1c0.2-0.8,0.4-1.5,0.5-2.3c0.1-0.2,0.1-0.4,0.3-0.6c0.1-0.1,0.3-0.2,0.5-0.2
				c0.6-0.2,1.5,0,2.1-0.2c0.7-0.3,1.1-1.1,1.7-1.4c0.7-0.4,1.5-0.7,2.3-0.6c1.3,0.2,2.1,1.4,2.7,2.6c0.7,1.2,1.4,2.5,1.8,3.9
				c0.4,1.4,0.3,2.9-0.4,4.2c-0.4,0.7-1,1.3-1.5,1.9c-1.8,2.3-1.8,5.1-2.2,7.9c-0.3,2.6-0.7,5.3-1.2,7.9c-1,5.5-2.2,11-4.4,16.2
				c-0.8,2-1.8,4-3.1,5.8c-0.5,0.7-2.8,4-3.9,3.8c-9.2-1.4-12.1-14.7-14.2-20.5C555,350,548.5,338.4,552.8,328.1z"/>
			<path id="XMLID_60_" class="st17" d="M576.3,339.1c-1.9,5.3-2.7,8-4,13.1c-1.5-6.9,0.2-5-4.4-17c-3.1-8.1-7.8-9.4-10.6-9.7
				c-1.9-0.2-3.7,0.9-4.4,2.6c-4.3,10.2-0.4,27,2.1,33.8c2.2,5.9,8.3,21.1,17.5,22.5c6.4-4,17.6-15,19.4-25.6
				C590,355.7,578.9,341.2,576.3,339.1z"/>
			<path id="XMLID_127_" class="st6" d="M546.6,289.3c0,0,3.5,3.5,7.6,12.6c4.2,9.1-0.2,15.7-2.4,16s-13.2,0.7-19.4-5.2
				C526.3,306.7,521.1,283.4,546.6,289.3z"/>
			<path id="XMLID_119_" class="st20" d="M553.1,292.3c1.6,3.6-1.4,7-4.5,8.4c-3.5,1.6-5.1,5.9-4,9.5c-0.4-0.6-0.9-1.2-1.5-1.6
				s-1.5-0.6-2.1-0.2c-1.6,0.8-1.1,3.3-0.6,4.6c0.5,1.2,1,2.3,1.5,3.5c0.1,0.4,0.3,0.8,0.1,1.1c-0.1,0.1-0.2,0.2-0.4,0.3
				c-3,1.6-7.2-0.1-10.2-0.7c-2.8-0.6-5.3-2.4-7.4-4.4c-2.2-2.2-3.3-4.3-3.8-7.4c-0.3-2.1-0.6-4.2-0.1-6.3c0.5-2.1,1.2-4.3,2.4-6
				s3-3.6,4.6-4.8c1.7-1.2,3.8-1.9,5.7-2.6C535.5,284.7,548.5,281.7,553.1,292.3z"/>
			<g id="XMLID_52_">
				<g id="XMLID_159_">
					<path id="XMLID_163_" class="st19" d="M540.8,275.5l-21.8,7.4c-1,3.1-2.1,8.1-0.1,14.3l0.7,2.1l32-10.2l-0.7-2.1
						C548.9,280.8,543.8,276.6,540.8,275.5z"/>
					<path id="XMLID_160_" class="st21" d="M536.5,276.6l-9.9,5.6c-3.1,1-6.1,0.7-7.5,3.3c8.9-3.3,22.2-3.3,29,4.6l3.4-1.1l-0.7-2.1
						C548.9,280.8,542.8,274.6,536.5,276.6z"/>
				</g>
				<path id="XMLID_156_" class="st22" d="M553.5,269.6l-46.8,15c-0.9,0.3-1.5,1.3-1.2,2.3l0.4,1.1c0.3,0.9,1.3,1.5,2.3,1.2l46.8-15
					c0.9-0.3,1.5-1.3,1.2-2.3l-0.4-1.1C555.4,269.8,554.4,269.3,553.5,269.6z"/>
				<path id="XMLID_149_" class="st23" d="M556.5,281.4L556.5,281.4c-0.2,0-0.3,0-0.3-0.1l-2.5-8c0-0.1,0-0.2,0.1-0.2h0.1
					c0.1,0,0.2,0,0.2,0.1l2.5,8C556.7,281.3,556.6,281.4,556.5,281.4z"/>
				<g id="XMLID_54_">
					<path id="XMLID_62_" class="st24" d="M561.2,292.6l-2.1,0.7l-3.7-11.5c-0.1-0.4,0.1-0.9,0.5-1.1l0.5-0.2
						c0.4-0.1,0.9,0.1,1.1,0.5L561.2,292.6z"/>
					<polygon id="XMLID_59_" class="st23" points="559.7,293.1 559.4,293.2 556.3,283.4 556.6,283.4 					"/>
					<polygon id="XMLID_58_" class="st23" points="560.3,292.9 560,293 556.9,283.2 557.2,283.2 					"/>
					<polygon id="XMLID_56_" class="st23" points="561,292.7 560.7,292.8 557.6,283 557.8,282.9 					"/>
				</g>
			</g>
			<path id="XMLID_115_" class="st19" d="M547,526.1c0,0-5.6,0.4-6.7-5.1c-5.6-0.2-11.2,1.8-11.2,1.8l1.6,10h2.2
				c0,0-0.8,9.7-0.8,10.2s2.9,25,4.6,25.8c5.1-0.1,5.6-18.2,6.7-23.9C544.4,539.2,547,526.1,547,526.1z"/>
			<path id="XMLID_57_" class="st19" d="M513.5,509.2c0,0-5.6,0.4-6.7-5.1c-5.6-0.2-11.2,1.8-11.2,1.8l1.6,10h2.2
				c0,0-0.8,9.7-0.8,10.2s2.9,25,4.6,25.8c5.1-0.1,5.6-18.2,6.7-23.9C510.9,522.3,513.5,509.2,513.5,509.2z"/>
		</g>
		<g id="XMLID_180_">
			<g id="XMLID_179_">
				<path id="XMLID_189_" class="st6" d="M743,777c0,0-2-1.7-1.1-4.8c-1.6-1.7-8.1-1.1-8.1-1.1s-1.2,8-1.5,9.2
					c-0.1,0.2-0.1,0.6-0.2,0.9c4.9-0.2,9.8-1.3,14.7-3.2C744.6,777.5,743,777,743,777z"/>
				<path id="XMLID_190_" class="st25" d="M744.2,776.8c0,0-1.2-0.5-1.9-1.6c-2.8,1.3-5.9,2.4-9.9,2.5c-0.3,1.3-0.5,2.5-0.7,2.9
					c-0.3,1.2,0,4.8,0,4.8h9v-1.5c0,0,6.9,1.5,8,1.5c1,0,8.1,0.7,11.2,0C758.6,781,744.2,776.8,744.2,776.8z"/>
			</g>
			<g id="XMLID_182_">
				<path id="XMLID_194_" class="st6" d="M702.8,773.2c0,0-1-2.2,0.9-4.4c-0.7-2.1-6.2-4.1-6.2-4.1s-4.1,6.1-4.8,7
					c-0.1,0.2-0.3,0.4-0.5,0.7c4.1,1.7,8.5,2.8,13.3,3.1C704,774.2,702.8,773.2,702.8,773.2z"/>
				<path id="XMLID_184_" class="st25" d="M703.9,773.4c0,0-0.7-0.9-0.9-2.1c-2.8,0-5.7-0.3-9.1-1.8c-0.8,1-1.4,1.8-1.6,2.1
					c-0.8,0.9-1.9,3.9-1.9,3.9l7.4,3.5l0.6-1.3c0,0,5.1,3.9,5.9,4.4c0.9,0.4,6.4,3.7,9.1,4.3C714,782.5,703.9,773.4,703.9,773.4z"/>
			</g>
			<g id="XMLID_178_">
				<path id="XMLID_177_" class="st26" d="M767.2,549.3c0,0,1,7.2,6.6,12.8c-1.7,2.7-5.8,2.8-5.8,2.8s-4.5-5.9-6-14.8
					C764.2,548,767.2,549.3,767.2,549.3z"/>
				<g id="XMLID_176_">
					<polygon id="XMLID_83_" class="st27" points="794.1,555.3 760.2,546.4 789.7,527.5 					"/>
					<path id="XMLID_175_" class="st28" d="M768.2,549.8l-7,1.1c-0.8,0.1-1.6-0.4-1.8-1.3l-0.9-5.9c-0.1-0.8,0.4-1.6,1.3-1.8l7-1.1
						c0.8-0.1,1.6,0.4,1.8,1.3l0.9,5.9C769.6,548.8,769,549.6,768.2,549.8z"/>
					<path id="XMLID_188_" class="st28" d="M794.7,541c1.2,7.7,0.9,14.1-0.6,14.3c-1.3,0.2-3.2-4.1-4.5-10.2c-0.2-1-0.4-2.1-0.6-3.3
						c-0.3-1.6-0.4-3.1-0.6-4.5c-0.5-5.5-0.1-9.7,1.2-9.9C791.2,527.3,793.5,533.3,794.7,541z"/>
					<path id="XMLID_186_" class="st1" d="M791.8,540.8c0.3,2.2-0.6,4.1-2.2,4.3c-0.2-1-0.4-2.1-0.6-3.3c-0.3-1.6-0.4-3.1-0.6-4.5
						C790,537.2,791.5,538.7,791.8,540.8z"/>
				</g>
			</g>
			<path id="XMLID_157_" class="st6" d="M743.4,549.6c0,0-1.1,11,0.2,15.1c-7.8,2-15.1-6.3-15.1-6.3l4-9.5L743.4,549.6z"/>
			<path id="XMLID_85_" class="st6" d="M753.4,522.9c0,0,2.4,4.9,3.7,16c1.2,11.1-5.8,16.5-8.2,16.1c-2.4-0.5-14.2-3.9-18.7-12.3
				C725.8,534.3,728.5,507.7,753.4,522.9z"/>
			<path id="XMLID_64_" class="st29" d="M759.2,528.4c0.4,4.4-4,6.9-7.8,7.4c-4.2,0.5-7.4,4.5-7.6,8.7c-0.3-0.8-0.5-1.6-1.1-2.2
				c-0.5-0.6-1.3-1.1-2.2-1c-1.9,0.3-2.4,3.1-2.2,4.6c0.1,1.4,0.2,2.8,0.4,4.2c0,0.4,0,0.9-0.3,1.2c-0.1,0.1-0.3,0.2-0.5,0.2
				c-3.8,0.7-7.6-2.6-10.6-4.4c-2.7-1.6-4.8-4.5-6.2-7.3c-1.6-3.1-1.9-5.8-1.4-9.2c0.4-2.3,0.8-4.7,2.1-6.7s2.7-4.1,4.7-5.5
				c1.9-1.4,4.4-2.8,6.6-3.5c2.2-0.7,4.7-0.6,7-0.7C743.3,514.2,758.1,515.6,759.2,528.4z"/>
			<path id="XMLID_63_" class="st20" d="M706.5,645.6c0.6,11,2.5,38.7,5.1,55.3c-5,24.9-17.6,64.9-17.6,64.9s6.5,3.6,11,4.1
				c11.2-22.8,28.8-63.9,28.8-63.9l10.5-68.9c0,0-20.8-44.2-36.8-1.6C706.6,637.7,706.4,643.3,706.5,645.6z"/>
			<path id="XMLID_78_" class="st30" d="M710.6,651.8c2.7,10.7,11.2,37.3,16.9,53.2c-0.1,25.4,5.5,66.7,5.5,66.7s6.8,2.7,11.3,2.2
				c1.9-36.3,6-68.2,6-68.2l-4.2-69.5c0,0-28.9-40.6-36.5,4.3C709.2,642.8,710.1,649.5,710.6,651.8z"/>
			<path id="XMLID_81_" class="st31" d="M710.1,641.6c0,0,22.6,6.4,38.5,2.2c1.3-35.3,9.3-59.9-4.4-79.9c-4.7-2.2-10.5-7.5-13.8-9.9
				c-13.3,5.8-25.2,66.6-26.7,85.5C703.7,639.5,706.7,640.7,710.1,641.6z"/>
			<path id="XMLID_84_" class="st6" d="M761.8,560.6c0,0-0.7-7.3,2.7-6.9c2.2-2.3,3.7-3.4,5.2-2.2c2.5,2.1,3,5.6,2,7.6
				s-3.5,2.8-3.5,2.8L761.8,560.6z"/>
			<path id="XMLID_82_" class="st32" d="M733.8,559.2c4.3,2.3,14.5,8.9,24.2,24.5c0,0,2-12.1,2.7-24.4c5.8-3.5,10.5,1.9,10.5,1.9
				s2.2,31.1-3.1,37.6s-29.9-10.1-36.5-15.6c-3-2.5-11.4-18.7-2.5-24.1C730.5,558.4,732.3,558.4,733.8,559.2z"/>
		</g>
		<g>
			<path id="XMLID_261_" class="st33" d="M707.5,957.4c0-4.2-106.7-7.7-238.3-7.7s-238.3,3.4-238.3,7.7c0,4.2,106.7,7.7,238.3,7.7
				C600.9,965,707.5,961.6,707.5,957.4z"/>
			<g id="XMLID_720_">
				<path id="XMLID_77_" class="st34" d="M293.5,865.2c0,0,7.2-65-36.5-64.9c-43.8,0.2,8.4,73.1,8.4,73.1S213.8,831,184,845.8
					c-14.3,7.1-29.7,29.2,60.8,65c-75.8-25.4-106.9-1.5-106.8,7.5c0.4,23.5,98.4,25.2,188.7,25.7"/>
				<path id="XMLID_745_" class="st34" d="M645,836.2c0,0-10-89.4,50.2-89.2s-11.5,100.5-11.5,100.5s70.9-58.3,111.9-37.9
					c19.7,9.8,40.8,40.2-83.5,89.3c104.2-34.9,146.9-2.1,146.7,10.3c-0.5,32.2-135.2,34.6-259.4,35.4"/>
				
					<linearGradient id="XMLID_2_" gradientUnits="userSpaceOnUse" x1="799.6727" y1="334.5586" x2="731.5343" y2="404.4824" gradientTransform="matrix(1 0 0 1 0 580)">
					<stop  offset="0.1907" style="stop-color:#47A35A"/>
					<stop  offset="0.551" style="stop-color:#244B36"/>
					<stop  offset="1" style="stop-color:#1C3839"/>
				</linearGradient>
				<path id="XMLID_725_" class="st35" d="M732.7,951.7c3,0,5.9,0,8.9-0.1c5.6-0.1,11.1-0.1,16.6-0.3c18.5-8.1,39.5-11.5,57.4-21.5
					C788.9,938.7,761.3,948.3,732.7,951.7z"/>
				<g id="XMLID_721_">
					<path id="XMLID_69_" class="st36" d="M640,949.9c0.3,0.3,0.7,0.5,1.1,0.7c4.1,1.7,20.7,1,25.2,1c23.4,0,44.7,0.3,66.5,0.2
						c28.6-3.4,13.5,0,25.4-0.4c16-0.4,31.7-1.6,47.5-5.2c5.4-1.2,10.9-2.7,15.4-5.8s8-8,7.8-13.2c-0.1-1.7-0.5-3.4-1.6-4.6
						c-1.1-1.2-2.7-2-4.3-2.6c-8.4-3.1-17.9-3-26.3,0.1c-9.6,3.6-53.6,16.1-54.9,6.2c-3.6-27.8,58.8-23.5,63.5-41.5
						c1.9-7.2-11.8-13.8-19.5-13.4c-20.8,1-34.8,14.5-47.8,31.4c-6.5,8.4-12.8,13.8-23.6,11.7c-2.1-0.4-4.3-1-5.6-2.6
						c-1.1-1.3-1.5-3-1.7-4.7c-1.1-9.6,3.1-19.1,8.7-27.2c5.6-8.1,12.6-15.2,18.2-23.4c8.4-12.2,25.6-42.4,10.2-62.1
						c-13.2-16.8-52.5-1.3-65,19.7c-3.6,6-5.3,12.9-6.3,19.8c-2.8,20,0.3,40.7-4.6,60.4c-0.9,3.5-2,7.1-4.3,10
						c-2.2,3-5.7,5.3-9.6,5.4c-1.8,0.1-3.7-0.3-5.3,0.4c-0.4,0.2-0.7,0.4-1,0.6c-0.6,0.5-1.1,1.1-1.6,1.7c-3.8,5.4-3.3,13.5-5,20.1"
						/>
					
						<linearGradient id="XMLID_3_" gradientUnits="userSpaceOnUse" x1="772.556" y1="223.6102" x2="681.9572" y2="267.3951" gradientTransform="matrix(1 0 0 1 0 580)">
						<stop  offset="0.1907" style="stop-color:#47A35A"/>
						<stop  offset="0.551" style="stop-color:#244B36"/>
						<stop  offset="1" style="stop-color:#1C3839"/>
					</linearGradient>
					<path id="XMLID_722_" class="st37" d="M728,800.6c-27.6,11.2-43.2,37.2-56.6,62.4c-0.1,4.8-0.2,9.7-0.6,14.5
						C683.5,847.4,694.8,815.8,728,800.6z"/>
				</g>
			</g>
			<g id="XMLID_284_">
				<g id="XMLID_754_">
					<path id="XMLID_765_" class="st36" d="M266.1,889.6c0,0,6.3-58.9-31.7-58.7s-11.2,49.8,12.3,67.3
						c-16.2,12.4-49.7-39.5-75.6-26.1c-3.7,1.9-7.5,5-8.9,9.3c0.8-2,2.2-4,4.1-5.6c-2,1.6-3.3,3.5-4.1,5.6c-1.3,4-0.6,9.1,4.3,15.1
						c6.4,5.8,18.9-0.9,23.4,6.7c8.2,13.7,19,18.6,33.1,24.4c3.1,1.3,6.5,1.5,9.5,3c1.3,0.7,2.7,2,2.3,3.4c-1.7,0.9-3.7,0.6-5.4,0
						c-1.8-0.6-3.3-1.7-5-2.4c-2.9-1.3-6.2-1.9-9.4-2.4c-7-1.2-14.1-2.1-21.1-3.4c-3.6-0.6-7.1-1.4-10.6-2.3c-3-0.8-7.1-3-10.1-3
						c-10.2-0.2-18.3,1.1-24.6,3.2c-1.3,0.8-2.6,1.7-3.9,2.6c1.2-0.9,2.6-1.8,3.9-2.6c-11.9,3.8-17.3,10.2-17.3,13.9
						c0.3,21.2,85.3,17.9,163.7,18.4L266.1,889.6z"/>
				</g>
			</g>
			<g id="XMLID_28_">
				<g id="XMLID_65_">
					<path id="XMLID_79_" class="st31" d="M680.6,956H259.9c-15.2,0-27.6-12.4-27.6-27.6V896c0-15.2,12.4-27.6,27.6-27.6h420.7V956z
						"/>
					<path id="XMLID_76_" class="st38" d="M680.6,956H418.4c-16.1,0-29.1-13-29.1-29.1v-29.3c0-16.1,13-29.1,29.1-29.1h262.2V956z"
						/>
					<path id="XMLID_75_" class="st1" d="M680.6,878.9H438.2c-17.1,0-31,13.9-31,31v4.7c0,17.1,13.9,31,31,31h242.3L680.6,878.9
						L680.6,878.9z"/>
					<path id="XMLID_73_" class="st4" d="M680.6,912.3c0,0-165.8,0-273.3,0l0,0c0,18.4,14.9,33.4,33.4,33.4h240L680.6,912.3
						L680.6,912.3z"/>
					<path id="XMLID_71_" class="st38" d="M685.3,868.5h-42.4c-2.7,0-4.8,2.2-4.8,4.8v0.7c0,2.7,2.2,4.8,4.8,4.8h42.4
						c2.7,0,4.8-2.2,4.8-4.8v-0.7C690.1,870.6,687.9,868.5,685.3,868.5z"/>
					<path id="XMLID_70_" class="st38" d="M685.3,945.6h-42.4c-2.7,0-4.8,2.2-4.8,4.8v0.7c0,2.7,2.2,4.8,4.8,4.8h42.4
						c2.7,0,4.8-2.2,4.8-4.8v-0.7C690.1,947.8,687.9,945.6,685.3,945.6z"/>
					<polygon id="XMLID_67_" class="st39" points="479,968.8 463.7,958 448.4,968.8 448.4,912.3 479,912.3 					"/>
				</g>
				<g id="XMLID_50_">
					<g id="XMLID_40_">
						<path id="XMLID_44_" class="st19" d="M610.3,589.2H425.9c-12.2,13.8-22.2,38-26.8,84.3v15.8H637v-15.8
							C634.8,628.7,620.2,599.6,610.3,589.2z"/>
					</g>
					<g id="XMLID_32_" class="st40">
						<g>
							<g id="XMLID_171_">
								<path class="st25" d="M610.3,589.2H425.9c-0.7,0.8-1.4,1.6-2.1,2.5C507,583,590.8,613,637,680.8v-7.3
									C634.8,628.7,620.2,599.6,610.3,589.2z"/>
							</g>
						</g>
					</g>
					<path id="XMLID_27_" class="st17" d="M688.8,561.8H347.4c-8.7,0-15.7,7-15.7,15.7v2.4c0,8.7,7,15.7,15.7,15.7h341.4
						c8.7,0,15.7-7,15.7-15.7v-2.4C704.5,568.8,697.5,561.8,688.8,561.8z"/>
					<path id="XMLID_24_" class="st23" d="M686.9,647.7h-0.2c-0.8,0-1.4-0.6-1.4-1.4v-58.6c0-0.8,0.6-1.4,1.4-1.4h0.2
						c0.8,0,1.4,0.6,1.4,1.4v58.6C688.3,647,687.7,647.7,686.9,647.7z"/>
					<g id="XMLID_45_">
						<path id="XMLID_29_" class="st24" d="M694.7,733.6h-15.8v-84.2c0-4,3.3-7.3,7.3-7.3h1.1c4,0,7.3,3.3,7.3,7.3v84.2H694.7z"/>
						<rect id="XMLID_41_" x="681.1" y="661.1" class="st23" width="2.1" height="72.5"/>
						<rect id="XMLID_47_" x="685.8" y="661.1" class="st23" width="2.1" height="72.5"/>
						<rect id="XMLID_49_" x="690.5" y="661.1" class="st23" width="2.1" height="72.5"/>
					</g>
				</g>
				<g id="XMLID_23_">
					<path id="XMLID_14_" class="st24" d="M750.2,872.2H329.5c-15.2,0-27.6-12.4-27.6-27.6v-32.4c0-15.2,12.4-27.6,27.6-27.6h420.7
						V872.2z"/>
					<path id="XMLID_17_" class="st23" d="M750.2,872.2H488c-16.1,0-29.1-13-29.1-29.1v-29.3c0-16.1,13-29.1,29.1-29.1h262.2V872.2z
						"/>
					<path id="XMLID_18_" class="st1" d="M750.2,795H507.9c-17.1,0-31,13.9-31,31v4.7c0,17.1,13.9,31,31,31h242.3V795z"/>
					<path id="XMLID_20_" class="st4" d="M750.2,828.4c0,0-165.8,0-273.4,0l0,0c0,18.4,14.9,33.4,33.4,33.4h240V828.4z"/>
					<path id="XMLID_19_" class="st23" d="M754.9,784.6h-42.4c-2.7,0-4.8,2.2-4.8,4.8v0.7c0,2.7,2.2,4.8,4.8,4.8h42.4
						c2.7,0,4.8-2.2,4.8-4.8v-0.7C759.8,786.8,757.6,784.6,754.9,784.6z"/>
					<path id="XMLID_21_" class="st23" d="M754.9,861.8h-42.4c-2.7,0-4.8,2.2-4.8,4.8v0.7c0,2.7,2.2,4.8,4.8,4.8h42.4
						c2.7,0,4.8-2.2,4.8-4.8v-0.7C759.8,864,757.6,861.8,754.9,861.8z"/>
					<polygon id="XMLID_22_" class="st41" points="548.6,885 533.4,874.2 518.1,885 518.1,828.4 548.6,828.4 					"/>
				</g>
				<g id="XMLID_25_">
					<path id="XMLID_42_" class="st39" d="M186,785.1h460c15.2,0,27.6-12.4,27.6-27.6v-40.1c0-15.2-12.3-27.6-27.6-27.6H186V785.1z"
						/>
					<path id="XMLID_213_" class="st42" d="M673.6,746.1v11.4c0,15.2-12.3,27.6-27.6,27.6H186v-11.4h460
						C661.2,773.7,673.6,761.4,673.6,746.1z"/>
					<path id="XMLID_39_" class="st43" d="M186,785.1h287.7c16.1,0,29.1-13,29.1-29.1v-37c0-16.1-13-29.1-29.1-29.1H186V785.1z"/>
					<path id="XMLID_38_" class="st1" d="M186,701.2h269.5c15.4,0,27.8,12.5,27.8,27.8v17c0,15.4-12.5,27.8-27.8,27.8H186V701.2z"/>
					<path id="XMLID_36_" class="st4" d="M186,737.5c0,0,180.4,0,297.3,0l0,0c0,20.1-16.3,36.3-36.3,36.3H186V737.5z"/>
					<path id="XMLID_33_" class="st43" d="M180,689.9h47.9c2.4,0,4.3,1.9,4.3,4.3v2.6c0,2.4-1.9,4.3-4.3,4.3H180
						c-2.4,0-4.3-1.9-4.3-4.3v-2.6C175.6,691.8,177.6,689.9,180,689.9z"/>
					<path id="XMLID_31_" class="st43" d="M180,773.8h47.9c2.4,0,4.3,1.9,4.3,4.3v2.6c0,2.4-1.9,4.3-4.3,4.3H180
						c-2.4,0-4.3-1.9-4.3-4.3v-2.6C175.6,775.8,177.6,773.8,180,773.8z"/>
					<polygon id="XMLID_26_" class="st31" points="405.3,799.1 421.9,787.3 438.5,799.1 438.5,737.5 405.3,737.5 					"/>
				</g>
			</g>
			<path id="XMLID_260_" class="st33" d="M782,975.2c0-4.2-55.8-7.7-124.7-7.7s-124.7,3.4-124.7,7.7c0,4.2,55.8,7.7,124.7,7.7
				S782,979.4,782,975.2z"/>
			<g id="XMLID_94_">
				<polygon id="XMLID_91_" class="st44" points="740.7,943.6 786,959.4 740.7,975.2 720.3,969.6 725.6,949.4 				"/>
				<path id="XMLID_234_" class="st45" d="M772.1,954.6l-31.4-11l-15,5.8l-5.3,20.2l20.3,5.6l29.7-10.3
					C769.6,961.3,770.1,957.6,772.1,954.6z"/>
				<polygon id="XMLID_74_" class="st23" points="734.4,952.6 546,952.6 546,943.6 740.7,943.6 				"/>
				<polygon id="XMLID_90_" class="st23" points="740.7,975.2 546,975.2 546,966.2 734.4,966.2 				"/>
				<rect id="XMLID_89_" x="546" y="952.6" class="st24" width="188.4" height="13.7"/>
				<path id="XMLID_86_" class="st45" d="M546,975.2h-4.1c-8.7,0-15.8-7.1-15.8-15.8l0,0c0-8.7,7.1-15.8,15.8-15.8h4.1V975.2z"/>
				<g id="XMLID_93_">
					<rect id="XMLID_92_" x="542.8" y="943.6" class="st19" width="15.2" height="31.6"/>
				</g>
			</g>
		</g>
		<g>
			<g id="XMLID_113_">
				<g id="XMLID_96_">
					<path id="XMLID_37_" class="st46" d="M386,914.8c-27.9,26.5-72,25.5-98.6-2.4c-26.5-27.9-25.5-72,2.4-98.6
						c27.9-26.5,72-25.5,98.6,2.4C414.9,844.1,413.9,888.2,386,914.8z"/>
					<path id="XMLID_66_" class="st47" d="M379.9,908.5c-24.4,23.2-63,22.3-86.2-2.1c-23.2-24.4-22.3-63,2.1-86.2s63-22.3,86.2,2.1
						C405.3,846.6,404.3,885.2,379.9,908.5z"/>
					<path id="XMLID_116_" class="st48" d="M333.1,894.5c32.5-5.9,51.1-24.9,62.2-50.7c-2.8-7.8-7.2-15.2-13.3-21.5
						c-23.2-24.4-61.8-25.3-86.2-2.1c-17.2,16.4-22.7,40.4-16.3,61.7C295,891,312.8,898.1,333.1,894.5z"/>
					<path id="XMLID_98_" class="st49" d="M303.6,828.3c19.9-18.9,51.4-18.2,70.3,1.7"/>
				</g>
				
					<rect id="XMLID_99_" x="264.6" y="906" transform="matrix(0.7243 -0.6895 0.6895 0.7243 -555.5546 447.4415)" class="st46" width="34.2" height="24.7"/>
				<path id="XMLID_110_" class="st25" d="M216.9,994.1l-14-14.7c-2.3-2.4-2.2-6.1,0.2-8.4l56.8-54.1c2.4-2.3,6.1-2.2,8.4,0.2
					l14,14.7c2.3,2.4,2.2,6.1-0.2,8.4l-56.8,54.1C222.9,996.6,219.2,996.5,216.9,994.1z"/>
				<path id="XMLID_102_" class="st50" d="M218.3,968.6L218.3,968.6c-1.2-1.3-1.2-3.3,0.1-4.6l43.2-41.1c1.3-1.2,3.3-1.2,4.6,0.1
					l0,0c1.2,1.3,1.2,3.4-0.1,4.6l-43.2,41.1C221.5,969.9,219.5,969.9,218.3,968.6z"/>
			</g>
			<path id="XMLID_262_" class="st33" d="M348.1,992.7c0-4.2-35-7.7-78.3-7.7c-43.2,0-78.3,3.4-78.3,7.7c0,4.2,35,7.7,78.3,7.7
				S348.1,997,348.1,992.7z"/>
		</g>
		<g>
			<path id="XMLID_636_" class="st6" d="M175.9,817.7c1-1,1.7-2.3,2.2-3.6c-0.3-1-0.6-2.1-0.8-3.4c-1.3-7.7-8.9-31.6-8.9-31.6
				s-5.2-2.5-10.2,3.1c4.6,20,7.6,25.8,10.8,32.1C170.5,816.9,173.3,819,175.9,817.7z"/>
			<path id="XMLID_635_" class="st6" d="M193.4,769.5l-0.1-0.1c-0.4-0.3-0.8-1.5-1.3-1.4c-0.4,0.1-1,1.9-1.1,2.3
				c-0.6,1.4-1.1,2.9-1.4,4.4c-0.3,1.3-0.3,2.8-0.7,4.1c0,0-0.8,2.6-9.1,14.3c-7,9.1-8.4,13.3-10.1,17.3c-0.3,4.5,1.5,8.8,6.4,7.5
				c0.3-0.4,1.9-1.2,2.3-1.6c5.2-5.3,12.5-28.4,15-33.4c1.2-2.5,2.5-4.9,3.7-7.4c0.7-1.4,1.6-2.9,2.3-4.4c0.6-1.3,1.6-2.5,2.5-3.6
				c0.3-0.4,0.5-0.7,0.9-1c0.7-0.7,1.7-1.3,2-2.2c-1.6,0.3-3.2,0.6-4.6,1.3c-0.8,0.4-1.5,1-2.1,1.6c-0.6,0.5-1.3,1-1.9,1.5
				C195.1,769.3,194.1,770,193.4,769.5z"/>
			<path id="XMLID_629_" class="st33" d="M195.3,981.1c0-4.2-21.1-7.7-47.2-7.7s-47.2,3.4-47.2,7.7c0,4.2,21.1,7.7,47.2,7.7
				C174.2,988.7,195.3,985.3,195.3,981.1z"/>
			<path id="XMLID_628_" class="st6" d="M167.7,868.9c1.8,36.1,0.7,11.8,0.9,38.6c-0.9,14.3-4.8,59.6-4.8,59.6s-5.1,3.4-7.3,0.5
				c-2.9-33.9-6.9-50.1-4.5-66.2c-1.1-16.9-2.3-34.6-2.3-34.6L167.7,868.9z"/>
			<path id="XMLID_625_" class="st51" d="M154,849l-4.3-0.3c0,0,1.2,25.2,2.3,36.2c-0.8,3.7-0.9,7.3-0.5,11.5
				C158.5,874.6,153.8,864.6,154,849z"/>
			<path id="XMLID_624_" class="st6" d="M127.6,861.3c0,0-3.1,11.8,7.7,42.1c-9.3,8.1-15.3,60-15.3,60l4.2,4
				c0,0,23.1-45.2,28.2-64.7c2.4-21.4,0.9-32.4,0.9-32.4L127.6,861.3z"/>
			<path id="XMLID_289_" class="st52" d="M119.4,959.9c-0.1,0.2,6.8,2.4,7.3,2.8c0.8,0.8,0.8,2.4,0.9,3.4c0.2,1.4,0.5,2.8,0.9,4.2
				c1.3,3.7,3.8,6.8,6,10.1c0.3,0.4,0.6,0.9,0.5,1.4c-0.1,2-3.7-0.5-4.5-0.8c-1.4-0.7-2.7-1.4-3.9-2.3c-0.9-0.9-2-1.5-3-2.3
				c-1-0.9-2.1-1.8-3-2.8c-0.5-0.5-0.8-0.5-1.4-0.1c-0.4,0.3-0.7,0.7-0.9,1.2c0,0.1-0.1,0.1-0.1,0.2h-0.1c-0.8-0.3-1.6-0.8-2.3-1.3
				c-0.3-0.2-0.6-0.6-1-0.8c-0.2-0.1-0.6-0.1-0.7-0.5s0.2-0.9,0.4-1.2c0.2-0.4,0.3-0.8,0.5-1.3c0.3-0.9,0.4-1.8,0.6-2.7
				c0.2-0.7,0.4-1.5,0.7-2.1c0.4-0.7,0.9-1.3,1.4-2C118.7,962.1,119,961.1,119.4,959.9z"/>
			<path id="XMLID_72_" class="st52" d="M156.1,964.4c0,0.3,7.1,0.1,7.7,0.4c1,0.5,1.5,2,2,2.9c0.6,1.3,1.3,2.5,2.2,3.6
				c2.4,3.1,5.8,5.2,8.8,7.6c0.4,0.3,0.8,0.6,0.9,1.1c0.5,1.9-3.6,0.7-4.5,0.6c-1.5-0.2-3-0.5-4.4-0.9c-1.1-0.5-2.4-0.8-3.5-1.2
				c-1.3-0.5-2.5-1-3.7-1.6c-0.6-0.3-0.9-0.2-1.3,0.3c-0.3,0.4-0.4,0.9-0.4,1.4c0,0.1,0,0.2-0.1,0.2h-0.1c-0.9-0.1-1.7-0.2-2.6-0.5
				c-0.4-0.1-0.7-0.3-1.1-0.4c-0.3-0.1-0.6,0-0.8-0.2c-0.2-0.3-0.1-0.9,0-1.3c0-0.4,0.1-0.9,0-1.3c0-0.9-0.2-1.8-0.2-2.7
				c-0.1-0.7-0.1-1.5,0-2.2c0.1-0.8,0.4-1.6,0.7-2.3C156.1,966.7,156.1,965.6,156.1,964.4z"/>
			<path id="XMLID_615_" class="st53" d="M163,754.1c-0.4-0.4-0.7-0.8-1.1-1.2c-6-7.8,1.2-18.7-4.6-26.8c-4.2-5.6-11.4-9.3-17-5.1
				c-0.5,0.3-2.5,0.1-3.1,0.1c-2.4,0.3-4.7,1.2-6.7,2.5c-4.6,3.2-6.5,8.6-7.3,14.2c-1,6.3-2,12.2-6.1,17.2c-1.2,1.4-2.5,2.7-3.5,4.2
				c-1,1.6-1.7,3.5-1.3,5.3c0.4,2.1,2,3.7,2.3,5.8c0.4,3.2-2.1,5.7-3.1,8.5c-1.1,3.1-1.1,6.3,0.2,9.4c1.2,2.8,3.2,5.2,5.4,7.3
				c2.1,2.1,4.4,4,7.1,5.3c2.6,1.3,5.6,1.9,8.4,1.2c2.1-0.5,4-1.5,5.8-2.6c0.7-0.4,1.5-1.2,1.1-1.9c2.3,0.7,4.5,1.8,6.8,2.6
				s4.7,1.3,7.1,0.7c3-0.8,5.3-3.3,7.1-6s3.2-5.7,5.2-8.2c2-2.4,4.4-4.4,6.2-6.9s2.5-5.9,2.7-9.1c0.1-3.6-1-7.3-3.3-9.9
				C169,758.1,165.5,756.6,163,754.1z"/>
			<path id="XMLID_612_" class="st29" d="M168.1,759.2c4.6,1.9,5.7,7.5,6.3,13.3c0.1-0.6,0.1-1.2,0.1-1.8c0.1-3.6-1-7.3-3.3-9.9
				c-2.4-2.7-5.8-4.2-8.3-6.7c-0.4-0.4-0.7-0.8-1.1-1.2c-6-7.8,1.2-18.7-4.6-26.8c-1-1.3-2.1-2.5-3.4-3.5
				C157.1,735.6,152.5,752.8,168.1,759.2z"/>
			<path id="XMLID_611_" class="st54" d="M160.1,766.5c0,0-4-1.6-5.9,4.7s8.6,26,8.6,26s9.9-1.7,13.6-5.4
				C171.7,782.2,169.5,770.4,160.1,766.5z"/>
			<path id="XMLID_608_" class="st6" d="M140.1,755.6c0,0,0,7.8-0.9,10.9c0,0,2.3,6.6,8.2,5.7c3.5-0.9,5.2-5.4,5.2-5.4
				s-1.8-6-1.4-11.5C150.3,756.1,144.1,758.7,140.1,755.6z"/>
			<path id="XMLID_605_" class="st7" d="M151.1,756.9c0-0.5,0-1.1,0.1-1.6c-0.8,0.8-7,3.4-11,0.3c0,0,0,7.8-0.9,10.9
				c0,0,0.5,1.5,1.7,3C145.1,767.6,148.6,763,151.1,756.9z"/>
			<path id="XMLID_87_" class="st4" d="M164.1,825.7c0-0.2,0-0.5-0.1-0.7c-0.2-2.8-0.2-5.6-0.1-8.3c0.2-4.9,0.6-9.9,1-14.8
				c5-4.7,5.2-8.4,4.4-12.6c-1.7-9.4-6.8-8.1-8.8-20.8c-0.2-1.3-1.4-1.8-2.6-2.4c-6.1-3.5-2.1,1.2-10.5,3.4c-12,1.9-14.9-3-14.9-3
				s-12-0.2-14.8,14.1c-0.6,3,2.1,7.2,3.2,9.8c2.3,5.5,6.3,9.5,7.5,15.3c0.6,3.2,3.5,10,3.5,13.3c0,2.5-0.2,4.8-0.6,6.9
				C142.4,825.8,153.2,825.4,164.1,825.7z"/>
			<path id="XMLID_88_" class="st17" d="M164.1,825.7c-10.9-0.3-21.7,0.1-32.6,0.2c-1.8,10.2-7.8,16.1-9.5,25
				c-4.6,24.2,9.2,46.5,10.1,46.1c2-0.9,4.1-1.9,6.3-1.7c1.7,0.2,3.2,0.9,4.8,1.4c6,1.8,12.1-1,17.7-2.8c1.7-0.5,3.4-1.1,5.1-1.4
				c1-0.2,2.4,0.5,3.2-0.3c0.5-0.5,1.5-44-4.1-56.2C164.8,835.1,164.4,829.7,164.1,825.7z"/>
			<path id="XMLID_601_" class="st1" d="M147.6,769.4c0,0-3.8,0-7.9-5.6c-0.6-0.8-5,1.3-4.9,5.2
				C134.9,772.9,142.3,780.6,147.6,769.4z"/>
			<path id="XMLID_600_" class="st1" d="M147.6,769.4c0,0,3.1,0,4-6.8c1.1-0.7,5.3,2,5.7,5C157.6,770.6,155.6,778.1,147.6,769.4z"/>
			<path id="XMLID_597_" class="st6" d="M155.7,741.3c0,0,2.3,8.3-3.9,15.2c-1.4,1.6-1.2,2.8-4.2,3.4c-15.3,0.5-17.8-16.2-18-21.7
				C129.4,732.6,157.2,714.6,155.7,741.3z"/>
			<path id="XMLID_594_" class="st7" d="M147.7,730.8c0,0-0.7,7.9-9.9,10.4c-4.2,1.1-5.8,5.4-6.6,11.7c-2.4-3.6-8.1-14.3-1.7-23.2
				C133.2,725.9,144,720.9,147.7,730.8z"/>
			<path id="XMLID_591_" class="st7" d="M146.9,732.4c0,0,0.4,2.3,4,3.5c1.5,0.5,5.3,1.4,5.9,3.4c1.1-2.4,0-10-6.1-12.8
				c-6.1-2.7-7.8,1.1-7.8,1.1L146.9,732.4z"/>
			<path id="XMLID_588_" class="st29" d="M146.2,730.4c0,0,0.6,3.5,5.5,5.4c2.1,0.8,7.3,2.1,8.1,5.3c1.6-3.7,0.1-15.6-8.3-19.8
				c-8.4-4.2-10.8,1.8-10.8,1.8L146.2,730.4z"/>
			<path id="XMLID_585_" class="st6" d="M128.2,780.3c0,0,0.2,2.7,0.2,2.9c0.4,5.4,0.8,10.8,1,16.1c0.1,2.9,0.3,5.8,0.3,8.7
				c0,2.8,0.2,3.4,0.5,6.2c7.2,0.5,13.3,2.7,19.5,1.1c1.2-0.3,1.9-1.4,2.9-2.2c0.5-0.4,1-0.8,1.6-1.1c0.1-0.1,1.8-0.4,1.8-0.3
				c-0.3,0.8,0.2,1.8,0.9,2.3s1.6,0.7,2.5,0.7c3.8,0.1,7.4-2.1,11.2-2.1c-0.4,2.1-1.8,4-3.7,5.1c-1.8,1.1-4,1.6-6.2,1.6
				c-0.7,0-1.4-0.1-2.1,0c-1,0.1-1.9,0.4-2.8,0.6c-5.9,1.7-21.6,4.5-30.1,3.2c-0.6-0.1-1.3,0-1.9-0.2c-1.2-0.3-2.2-1.4-2.7-2.5
				c-0.5-1.2-2.6-11.2-3.2-16.1c-0.8-6.4-0.9-12.8-0.9-19.2C123.1,780.8,128.2,780.3,128.2,780.3z"/>
			<path id="XMLID_584_" class="st1" d="M124.9,774.6c0,0-4.4-3.1-7.8,2.5s0.2,27.5,0.2,27.5s11.5,0.8,16-1.9
				C131.2,792.2,133,780.8,124.9,774.6z"/>
			<path id="XMLID_581_" class="st29" d="M148.1,729.2c0.1,0.5-0.3,1.5-0.5,1.9c-0.6,1.5-1.4,2.9-2.6,4.1c-1.7,1.8-3.7,2.6-6,3.5
				c-2.5,0.9-4.6,2.8-5.8,5.2c-1.3,2.7-1.5,5.9-0.4,8.7c1.3,3.2,8.1,10.7,6.6,14.6c-0.7,1.7-2.5-0.7-3.1,1.1s-1.7,3.3-2.8,4.8
				c-1.7,2.4-3.6,4.4-6.1,6c-3.7,2.3-8.3,3.2-12.6,2.6c1.4-1.1,2.5-2.6,2.9-4.4c0.5-2.3-0.4-4.7-1.1-7c-0.8-2.5-0.9-5.3-0.5-7.9
				c0.5-3.2,3-5.4,4.5-8.1c2.6-4.6,1.9-10.1,2.1-15.1c0.2-4.8,1.7-9.8,5.4-13.2C132.1,722.3,143.8,715.8,148.1,729.2z"/>
		</g>
		<g>
			<path id="XMLID_137_" class="st33" d="M629.8,996c0-4.2-21.1-7.7-47.2-7.7c-26.1,0-47.2,3.4-47.2,7.7c0,4.2,21.1,7.7,47.2,7.7
				C608.6,1003.6,629.8,1000.2,629.8,996z"/>
			<g id="XMLID_235_">
				<g id="XMLID_270_">
					<path id="XMLID_274_" class="st6" d="M566.1,988c0,0,2.1-1.8,1.2-5.1c1.7-1.8,8.5-1.2,8.5-1.2s1.2,8.4,1.6,9.7
						c0.1,0.2,0.1,0.6,0.2,1c-5.2-0.3-10.3-1.4-15.5-3.3C564.4,988.4,566.1,988,566.1,988z"/>
					<path id="XMLID_271_" class="st25" d="M564.9,987.7c0,0,1.2-0.6,2-1.7c3,1.4,6.2,2.5,10.4,2.6c0.3,1.4,0.6,2.6,0.7,3
						c0.4,1.3,0,5.1,0,5.1h-9.5v-1.6c0,0-7.3,1.6-8.4,1.6c-1.1,0-8.5,0.7-11.7,0C549.8,992.1,564.9,987.7,564.9,987.7z"/>
				</g>
				<g id="XMLID_265_">
					<path id="XMLID_269_" class="st6" d="M608.3,984c0,0,1-2.3-1-4.6c0.7-2.2,6.5-4.3,6.5-4.3s4.3,6.4,5.1,7.3
						c0.2,0.2,0.3,0.4,0.5,0.7c-4.3,1.8-9,2.9-13.9,3.3C607.1,985,608.3,984,608.3,984z"/>
					<path id="XMLID_266_" class="st25" d="M607.2,984.2c0,0,0.8-0.9,0.9-2.2c3,0,6-0.3,9.5-1.9c0.8,1,1.5,1.9,1.7,2.2
						c0.8,0.9,2,4.1,2,4.1l-7.7,3.7l-0.6-1.3c0,0-5.3,4.1-6.2,4.6c-0.9,0.4-6.7,3.9-9.6,4.6C596.6,993.7,607.2,984.2,607.2,984.2z"
						/>
				</g>
				<path id="XMLID_257_" class="st6" d="M565.7,749.2c0,0,1.2,11.5-0.2,15.8c8.2,2.1,15.8-6.6,15.8-6.6l-4.2-9.9L565.7,749.2z"/>
				<path id="XMLID_256_" class="st6" d="M555.2,721.2c0,0-2.6,5.2-3.9,16.8c-1.3,11.6,6,17.3,8.5,16.9c2.5-0.5,14.9-4.1,19.6-12.9
					C584.2,733.1,581.4,705.3,555.2,721.2z"/>
				<path id="XMLID_253_" class="st20" d="M549.1,727c-0.4,4.6,4.2,7.3,8.2,7.7c4.4,0.5,7.8,4.7,7.9,9.1c0.3-0.8,0.6-1.7,1.1-2.3
					c0.5-0.7,1.4-1.2,2.3-1c2,0.3,2.5,3.2,2.3,4.9c-0.1,1.5-0.3,2.9-0.4,4.4c0,0.4,0,1,0.3,1.3c0.1,0.1,0.3,0.2,0.5,0.2
					c4,0.7,7.9-2.8,11.1-4.6c2.9-1.7,5-4.7,6.6-7.6c1.7-3.3,2-6,1.5-9.7c-0.4-2.4-0.9-4.9-2.2-7s-2.9-4.3-4.9-5.8
					c-2-1.4-4.6-2.9-6.9-3.7c-2.3-0.7-4.9-0.6-7.3-0.7C565.9,712,550.3,713.5,549.1,727z"/>
				<path id="XMLID_252_" class="st20" d="M604.5,850c-0.6,11.6-2.6,40.6-5.3,58.1c5.2,26.2,18.4,68.1,18.4,68.1s-6.8,3.8-11.5,4.3
					c-11.8-24-30.3-67-30.3-67l-11-72.3c0,0,21.8-46.4,38.7-1.7C604.4,841.7,604.6,847.6,604.5,850z"/>
				<path id="XMLID_251_" class="st30" d="M600.1,856.5c-2.8,11.2-11.8,39.2-17.7,55.8c0.1,26.7-5.7,70.1-5.7,70.1
					s-7.2,2.8-11.9,2.3c-2-38.1-6.3-71.6-6.3-71.6l4.5-73c0,0,30.3-42.6,38.3,4.5C601.6,847.1,600.7,854.1,600.1,856.5z"/>
				<path id="XMLID_240_" class="st47" d="M600.7,845.8c0,0-23.7,6.8-40.4,2.3c-1.4-37.1-9.7-62.9,4.7-83.9
					c4.9-2.3,11-7.9,14.4-10.4c14,6.1,26.4,69.9,28,89.8C607.4,843.6,604.2,844.9,600.7,845.8z"/>
				<path id="XMLID_239_" class="st6" d="M543.8,763.8c0,0,7.3-6.9,4.6-9.3c-0.7-0.7-1.1,0.1-1.1-0.7c0-0.7,0.3-0.7,0.5-1.4
					c0.1-0.5,0.1-1.1,0.3-1.6s0.5-1,1-1.2c0.3-0.1,0.7-0.1,1.1,0c0.4,0,0.7,0,1-0.1c0.3-0.2,0.6-0.5,0.4-0.9
					c-0.1-0.2-0.3-0.4-0.5-0.5c-0.6-0.3-1.2-0.5-1.9-0.7c-0.5-0.1-1-0.2-1.5-0.1c-0.7,0.1-1.3,0.6-1.8,1.2c-0.4,0.6-0.7,1.3-1,2
					c-0.1,0.2-0.2,0.4-0.4,0.6c-0.4,0.3-1.5,0.2-2,0.3c-0.7,0.2-1.4,0.5-2.1,0.9c-1.1,0.7-2.1,1.6-2.5,2.8c-0.9,2.2,0.3,4.7,0.3,4.7
					L543.8,763.8z"/>
				<path id="XMLID_236_" class="st48" d="M575.8,759.3c-4.6,2.4-15.2,9.4-25.4,25.8c0,0-2.1-12.7-2.9-25.6c-6.1-3.7-11,2-11,2
					s-2.3,32.7,3.3,39.5c5.5,6.9,31.4-10.6,38.3-16.4c3.1-2.6,11.9-19.7,2.7-25.3C579.3,758.4,577.4,758.5,575.8,759.3z"/>
			</g>
		</g>
	</g>
</g>
</svg>
