<?xml version="1.0" encoding="utf-8"?>
<!-- Generator: Adobe Illustrator 24.0.2, SVG Export Plug-In . SVG Version: 6.00 Build 0)  -->
<svg version="1.1" id="Layer_1" xmlns="http://www.w3.org/2000/svg" xmlns:xlink="http://www.w3.org/1999/xlink" x="0px" y="0px"
	 viewBox="0 0 1900 900" style="enable-background:new 0 0 1900 900;" xml:space="preserve">
<style type="text/css">
	.st0{clip-path:url(#SVGID_2_);fill:#FEFEFE;}
	.st1{clip-path:url(#SVGID_2_);}
	.st2{fill:#A6A4E8;}
	.st3{fill:#DEDFF5;}
	.st4{fill:#8987BF;}
	.st5{fill:none;stroke:#8987BF;stroke-width:0.9921;stroke-miterlimit:10;}
	.st6{fill:none;stroke:#8987BF;stroke-width:0.9921;stroke-miterlimit:10;stroke-dasharray:2.8417,5.6834;}
	.st7{fill:#C4C5F3;}
	.st8{fill:#B8B5F2;}
	.st9{fill:#FFFFFB;}
	.st10{fill:#D2D9F5;}
	.st11{fill:#D5DEF5;}
	.st12{fill:#E4F3F7;}
	.st13{fill:#F3FFF9;}
	.st14{fill:#BAB7F2;}
	.st15{fill:#C0C0F3;}
	.st16{fill:#D9E3F6;}
	.st17{fill:#B1ABEF;}
	.st18{opacity:0.43;fill:#F3FFF9;}
	.st19{fill:url(#SVGID_3_);}
	.st20{fill:url(#SVGID_4_);}
	.st21{fill:url(#SVGID_5_);}
	.st22{fill:#FEC4AD;}
	.st23{fill:url(#SVGID_6_);}
	.st24{fill:#AEBFDE;}
	.st25{fill:url(#SVGID_7_);}
	.st26{fill:#7B2B1A;}
	.st27{fill:#FFFFFF;}
	.st28{fill:#542F38;}
	.st29{opacity:0.35;fill:#FFFFFF;}
	.st30{fill:#782F38;}
	.st31{fill:#8E373F;}
	.st32{fill:#2F2521;}
	.st33{fill:#F49A8A;}
	.st34{fill:#C85A58;}
	.st35{fill:url(#SVGID_8_);}
	.st36{fill:url(#SVGID_9_);}
	.st37{fill:url(#SVGID_10_);}
	.st38{fill:#97A3CC;}
	.st39{fill:url(#XMLID_2_);}
	.st40{fill:url(#SVGID_11_);}
	.st41{fill:url(#SVGID_12_);}
	.st42{fill:url(#SVGID_13_);}
	.st43{fill:url(#SVGID_14_);}
	.st44{fill:none;stroke:#E9F2F4;stroke-width:0.3024;stroke-miterlimit:10;}
	.st45{fill:#918DFF;}
	.st46{fill:#E9F2F4;}
	.st47{fill:#133A50;}
</style>
<g>
	<defs>
		<path id="SVGID_1_" d="M1878,914H25c-19,0-34.5-15.4-34.5-34.5V13.6c0-19,15.4-34.5,34.5-34.5H1878c19,0,34.5,15.4,34.5,34.5
			v865.9C1912.5,898.5,1897.1,914,1878,914z"/>
	</defs>
	<clipPath id="SVGID_2_">
		<use xlink:href="#SVGID_1_"  style="overflow:visible;"/>
	</clipPath>
	<path class="st0" d="M1878,914H25c-19,0-34.5-15.4-34.5-34.5V13.6c0-19,15.4-34.5,34.5-34.5H1878c19,0,34.5,15.4,34.5,34.5v865.9
		C1912.5,898.5,1897.1,914,1878,914z"/>
	<g class="st1">
		<g>
			<polygon class="st2" points="842.1,205.9 838.1,177.5 951.2,148.1 			"/>
			<polygon class="st3" points="951.2,148.1 870.8,209.2 846.1,185.6 			"/>
			<polygon class="st3" points="951.2,148.1 838.1,177.5 814.5,155.1 			"/>
			<polygon class="st4" points="846.1,185.6 842.1,205.9 856.8,195.9 			"/>
		</g>
		<g>
			<g>
				<path class="st5" d="M832.9,193.9c-0.4,0.2-0.8,0.4-1.3,0.6"/>
				<path class="st6" d="M826.6,197.1c-20.9,10-46.6,18-71.5,15.8c-26.9-2.4-45.9-16.9-75.4-12.4c-26.8,4.1-50,21-56.8,41.1
					c-4.7,13.6,0.2,29.6,14.9,38.1c37.6,21.7,79.6-11.9,79.6-53.2c0-52.8-89.8-98.1-218.3-105.7c-156-9.3-361.8,76.9-427,253.5"/>
				<path class="st5" d="M71.2,377c-0.2,0.4-0.3,0.9-0.5,1.3"/>
			</g>
		</g>
	</g>
	<g class="st1">
		<g>
			
				<rect x="1214.6" y="710.3" transform="matrix(-1 -1.224647e-16 1.224647e-16 -1 2444.853 1425.6593)" class="st7" width="15.6" height="5"/>
			
				<rect x="1212.6" y="714.2" transform="matrix(-1 -1.224647e-16 1.224647e-16 -1 2444.853 1430.6473)" class="st7" width="19.6" height="2.2"/>
			
				<rect x="1207.8" y="716.4" transform="matrix(-1 -1.224647e-16 1.224647e-16 -1 2444.853 1438.4553)" class="st7" width="29.3" height="5.6"/>
			<polygon class="st7" points="1220.6,661.1 1224.2,661.1 1222.9,635.1 1221.9,635.1 			"/>
			<path class="st7" d="M1218.3,660.7v50.7h8.3v-50.7H1218.3z M1223,683h1.1v26.2h-1.1V683z M1220.8,683h1.1v26.2h-1.1V683z"/>
		</g>
		<rect x="763.6" y="807.1" class="st7" width="45" height="119.2"/>
		<polygon class="st7" points="1052,926.3 1052,698.3 943,659.9 902.6,659.9 902.6,653.1 901,653.1 901,713.3 892.7,713.3 
			892.7,672.8 848.2,672.8 848.2,713.3 840.7,713.3 840.7,775.7 832.3,775.7 832.3,926.3 		"/>
		<polygon class="st7" points="360.2,926.3 360.2,793.5 296.7,771.1 273.2,771.1 241.5,778.7 241.5,802.2 237.2,802.2 237.2,838.6 
			232.3,838.6 232.3,926.3 		"/>
		<rect x="680.1" y="795.4" class="st7" width="29.2" height="130.9"/>
		<rect x="645.4" y="774.8" class="st7" width="54.1" height="151.5"/>
		<rect x="595.8" y="803.8" class="st7" width="40.3" height="120.5"/>
		<rect x="673.8" y="662.2" class="st7" width="70" height="262.1"/>
		
			<rect x="1184.8" y="685.5" transform="matrix(-1 -1.224647e-16 1.224647e-16 -1 2429.1772 1597.5627)" class="st7" width="59.5" height="226.5"/>
		<rect x="1212.5" y="728.1" class="st7" width="59.5" height="198"/>
		<path class="st7" d="M1188.3,659.4v39.9h-40.4V684h-22.1v-6.4h-11.7v6.4h-55.5c-0.2,0.2-0.4,0.5-0.6,0.7v68.5h-23.3v173.2H1192
			V659.4H1188.3z"/>
		<polygon class="st7" points="358.4,926.3 358.4,795.8 366.9,804.4 390,804.4 390,769.9 390.9,769.9 390.9,804.4 395.6,804.4 
			395.6,781.2 421.1,781.2 421.1,804.4 425.4,804.4 425.4,840.1 430.2,840.1 430.2,926.3 		"/>
		<rect x="438" y="699.8" class="st7" width="45" height="226.5"/>
		<polygon class="st7" points="482.7,926.3 482.7,755.8 525.9,755.8 549.1,774.1 549.1,926.3 		"/>
		<g>
			<g>
				<polygon class="st8" points="855.9,807.1 855.9,814.2 859.2,814.2 859.2,828.3 870.2,828.3 870.2,926.3 812.7,926.3 
					812.7,807.1 				"/>
			</g>
			<g>
				<g>
					<rect x="728.4" y="724.6" class="st9" width="18.8" height="1.3"/>
					<rect x="723.7" y="725.9" class="st10" width="28.3" height="21.5"/>
				</g>
				<g>
					<g>
						
							<rect x="780.8" y="685.9" transform="matrix(-1 -1.224647e-16 1.224647e-16 -1 1565.4724 1478.3827)" class="st11" width="3.8" height="106.6"/>
						
							<rect x="789.3" y="685.9" transform="matrix(-1 -1.224647e-16 1.224647e-16 -1 1582.2882 1478.3827)" class="st11" width="3.8" height="106.6"/>
					</g>
					<rect x="742.6" y="716.9" class="st12" width="60.3" height="118.7"/>
					<polygon class="st13" points="841.3,795.4 773.6,795.4 773.6,759.6 					"/>
					<rect x="698.1" y="748.2" class="st12" width="81.5" height="178.1"/>
					<rect x="770.1" y="792.4" class="st11" width="74.7" height="133.9"/>
				</g>
			</g>
		</g>
		<g>
			<g>
				<polygon class="st8" points="1743.1,839.2 1743.1,844.7 1745.6,844.7 1745.6,855.7 1754.2,855.7 1754.2,932.2 1709.4,932.2 
					1709.4,839.2 				"/>
			</g>
			<g>
				<g>
					<rect x="1643.6" y="774.9" class="st9" width="14.7" height="1"/>
					<rect x="1640" y="775.9" class="st10" width="22.1" height="16.8"/>
				</g>
				<g>
					<g>
						
							<rect x="1684.5" y="744.7" transform="matrix(-1 -1.224647e-16 1.224647e-16 -1 3371.9729 1572.4939)" class="st11" width="3" height="83.1"/>
						
							<rect x="1691.1" y="744.7" transform="matrix(-1 -1.224647e-16 1.224647e-16 -1 3385.0884 1572.4939)" class="st11" width="3" height="83.1"/>
					</g>
					<rect x="1654.7" y="768.9" class="st12" width="47" height="92.6"/>
					<polygon class="st13" points="1731.7,830.1 1678.9,830.1 1678.9,802.2 					"/>
					<rect x="1620" y="793.3" class="st12" width="63.5" height="138.9"/>
					<rect x="1676.1" y="827.8" class="st11" width="58.2" height="104.4"/>
				</g>
			</g>
		</g>
		<g>
			<g>
				<polygon class="st8" points="158.3,860.7 158.3,864.9 156.4,864.9 156.4,873.4 149.8,873.4 149.8,932.2 184.3,932.2 
					184.3,860.7 				"/>
			</g>
			<g>
				<g>
					
						<rect x="223.5" y="811.3" transform="matrix(-1 -1.224647e-16 1.224647e-16 -1 458.2883 1623.2982)" class="st9" width="11.3" height="0.8"/>
					
						<rect x="220.7" y="812" transform="matrix(-1 -1.224647e-16 1.224647e-16 -1 458.2886 1636.9822)" class="st10" width="17" height="12.9"/>
				</g>
				<g>
					<g>
						<rect x="201.1" y="788" class="st11" width="2.3" height="63.9"/>
						<rect x="196.1" y="788" class="st11" width="2.3" height="63.9"/>
					</g>
					
						<rect x="190.2" y="806.7" transform="matrix(-1 -1.224647e-16 1.224647e-16 -1 416.5055 1684.4911)" class="st12" width="36.1" height="71.2"/>
					<polygon class="st13" points="167.1,853.7 207.7,853.7 207.7,832.2 					"/>
					<rect x="204.1" y="825.4" class="st12" width="48.8" height="106.8"/>
					<rect x="165" y="851.9" class="st11" width="44.8" height="80.3"/>
				</g>
			</g>
		</g>
		<g>
			<g>
				<rect x="948.1" y="586.1" class="st14" width="30.4" height="153.9"/>
				<rect x="924.6" y="591.9" class="st11" width="110.8" height="190.2"/>
			</g>
			<g>
				<g>
					
						<rect x="912.1" y="733.9" transform="matrix(-1 -1.224647e-16 1.224647e-16 -1 1844.323 1471.7933)" class="st13" width="20.1" height="4.1"/>
					
						<rect x="909.5" y="737" transform="matrix(-1 -1.224647e-16 1.224647e-16 -1 1844.323 1475.8655)" class="st13" width="25.3" height="1.8"/>
					
						<rect x="903.2" y="738.8" transform="matrix(-1 -1.224647e-16 1.224647e-16 -1 1844.323 1507.2805)" class="st14" width="37.9" height="29.6"/>
				</g>
				<polygon class="st11" points="965.6,667.8 965.6,926.3 1052,926.3 1052,698.3 				"/>
				<rect x="895.1" y="723.9" class="st14" width="51.5" height="202.5"/>
				<g>
					<rect x="933.4" y="743.7" class="st15" width="4.2" height="128.9"/>
					<rect x="924" y="743.7" class="st15" width="4.2" height="128.9"/>
					<rect x="914.6" y="743.7" class="st15" width="4.2" height="128.9"/>
					<rect x="905.2" y="743.7" class="st15" width="4.2" height="128.9"/>
				</g>
				<rect x="966.5" y="719.7" class="st11" width="29.7" height="24"/>
			</g>
		</g>
		<g>
			<g>
				<rect x="1418.2" y="665.6" class="st14" width="23.3" height="117.9"/>
				<rect x="1400.2" y="670.1" class="st11" width="84.9" height="145.7"/>
			</g>
			<g>
				<g>
					
						<rect x="1390.7" y="778.9" transform="matrix(-1 -1.224647e-16 1.224647e-16 -1 2796.7324 1560.8444)" class="st13" width="15.4" height="3.1"/>
					
						<rect x="1388.7" y="781.3" transform="matrix(-1 -1.224647e-16 1.224647e-16 -1 2796.7324 1563.9646)" class="st13" width="19.3" height="1.4"/>
					
						<rect x="1383.9" y="782.7" transform="matrix(-1 -1.224647e-16 1.224647e-16 -1 2796.7324 1588.0345)" class="st14" width="29" height="22.7"/>
				</g>
				<polygon class="st11" points="1431.7,728.3 1431.7,926.3 1497.9,926.3 1497.9,751.6 				"/>
				<rect x="1377.6" y="771.2" class="st7" width="39.4" height="155.1"/>
				<g>
					<rect x="1407" y="786.4" class="st15" width="3.2" height="98.8"/>
					<rect x="1399.8" y="786.4" class="st15" width="3.2" height="98.8"/>
					<rect x="1392.6" y="786.4" class="st15" width="3.2" height="98.8"/>
					<rect x="1385.4" y="786.4" class="st15" width="3.2" height="98.8"/>
				</g>
				<rect x="1432.3" y="768" class="st11" width="22.8" height="18.4"/>
			</g>
		</g>
		
			<rect x="615.8" y="765.1" transform="matrix(-1 -1.224647e-16 1.224647e-16 -1 1247.4481 1547.9265)" class="st8" width="15.8" height="17.7"/>
		
			<rect x="625.9" y="775.1" transform="matrix(-1 -1.224647e-16 1.224647e-16 -1 1272.4187 1563.7933)" class="st8" width="20.7" height="13.5"/>
		<g>
			
				<rect x="711" y="639.4" transform="matrix(-1 -1.224647e-16 1.224647e-16 -1 1450.0082 1300.5991)" class="st8" width="27.9" height="21.8"/>
			<g>
				<polygon class="st16" points="575.2,926.3 578.4,788.9 582.3,788.9 582.3,774.8 646.3,769.8 646.3,797.5 653.8,797.5 
					653.8,646.4 744.8,646.4 744.8,794 753,794 753,926.3 				"/>
				<g>
					
						<rect x="585.6" y="818.6" transform="matrix(-1 -1.224647e-16 1.224647e-16 -1 1198.9653 1643.012)" class="st7" width="27.7" height="5.8"/>
					
						<rect x="585.6" y="829.1" transform="matrix(-1 -1.224647e-16 1.224647e-16 -1 1198.9653 1664.0322)" class="st7" width="27.7" height="5.8"/>
					
						<rect x="585.6" y="839.6" transform="matrix(-1 -1.224647e-16 1.224647e-16 -1 1198.9653 1685.0525)" class="st7" width="27.7" height="5.8"/>
					
						<rect x="585.6" y="850.2" transform="matrix(-1 -1.224647e-16 1.224647e-16 -1 1198.9653 1706.0723)" class="st7" width="27.7" height="5.8"/>
					
						<rect x="585.6" y="860.7" transform="matrix(-1 -1.224647e-16 1.224647e-16 -1 1198.9653 1727.0925)" class="st7" width="27.7" height="5.8"/>
					
						<rect x="585.6" y="871.2" transform="matrix(-1 -1.224647e-16 1.224647e-16 -1 1198.9653 1748.1128)" class="st7" width="27.7" height="5.8"/>
					
						<rect x="585.6" y="881.7" transform="matrix(-1 -1.224647e-16 1.224647e-16 -1 1198.9653 1769.1331)" class="st7" width="27.7" height="5.8"/>
					
						<rect x="585.6" y="892.2" transform="matrix(-1 -1.224647e-16 1.224647e-16 -1 1198.9653 1790.1533)" class="st7" width="27.7" height="5.8"/>
					
						<rect x="585.6" y="902.7" transform="matrix(-1 -1.224647e-16 1.224647e-16 -1 1198.9653 1811.1733)" class="st7" width="27.7" height="5.8"/>
				</g>
			</g>
		</g>
		<rect x="1354.5" y="807.1" class="st7" width="45" height="119.2"/>
		<polygon class="st7" points="1625,926.3 1625,751.6 1541.5,722.2 1510.5,722.2 1510.5,717 1509.3,717 1509.3,763.1 1502.9,763.1 
			1502.9,732.1 1468.8,732.1 1468.8,763.1 1463.1,763.1 1463.1,810.9 1456.7,810.9 1456.7,926.3 		"/>
		<rect x="1264.7" y="662.2" class="st7" width="70" height="262.1"/>
		<g>
			<g>
				<polygon class="st8" points="1446.8,807.1 1446.8,814.2 1450,814.2 1450,828.3 1461,828.3 1461,926.3 1403.6,926.3 
					1403.6,807.1 				"/>
			</g>
			<g>
				<g>
					<rect x="1319.3" y="724.6" class="st9" width="18.8" height="1.3"/>
					<rect x="1314.6" y="725.9" class="st10" width="28.3" height="21.5"/>
				</g>
				<g>
					<g>
						
							<rect x="1371.7" y="685.9" transform="matrix(-1 -1.224647e-16 1.224647e-16 -1 2747.1934 1478.3827)" class="st11" width="3.8" height="106.6"/>
						
							<rect x="1380.1" y="685.9" transform="matrix(-1 -1.224647e-16 1.224647e-16 -1 2764.0093 1478.3827)" class="st11" width="3.8" height="106.6"/>
					</g>
					<rect x="1333.4" y="716.9" class="st12" width="60.3" height="118.7"/>
					<polygon class="st13" points="1432.2,795.4 1364.5,795.4 1364.5,759.6 					"/>
					<rect x="1288.9" y="748.2" class="st12" width="81.5" height="178.1"/>
					<rect x="1361" y="792.4" class="st11" width="74.7" height="133.9"/>
				</g>
			</g>
		</g>
		<g>
			<g>
				<rect x="1550.1" y="713.6" class="st14" width="15.6" height="79"/>
				<rect x="1538" y="716.6" class="st11" width="56.9" height="97.6"/>
			</g>
			<g>
				<g>
					
						<rect x="1531.6" y="789.5" transform="matrix(-1 -1.224647e-16 1.224647e-16 -1 3073.5408 1581.0023)" class="st13" width="10.3" height="2.1"/>
					
						<rect x="1530.3" y="791.1" transform="matrix(-1 -1.224647e-16 1.224647e-16 -1 3073.5403 1583.0931)" class="st13" width="13" height="0.9"/>
					
						<rect x="1527" y="792" transform="matrix(-1 -1.224647e-16 1.224647e-16 -1 3073.5403 1599.2229)" class="st14" width="19.4" height="15.2"/>
				</g>
				<polygon class="st11" points="1559.1,755.6 1559.1,888.3 1603.5,888.3 1603.5,771.2 				"/>
				<rect x="1522.9" y="784.3" class="st11" width="26.4" height="104"/>
				<g>
					<rect x="1542.6" y="794.5" class="st15" width="2.2" height="66.2"/>
					<rect x="1537.7" y="794.5" class="st15" width="2.2" height="66.2"/>
					<rect x="1532.9" y="794.5" class="st15" width="2.2" height="66.2"/>
					<rect x="1528.1" y="794.5" class="st15" width="2.2" height="66.2"/>
				</g>
				<rect x="1559.5" y="782.2" class="st11" width="15.3" height="12.3"/>
			</g>
		</g>
		<g>
			
				<rect x="1301.9" y="639.4" transform="matrix(-1 -1.224647e-16 1.224647e-16 -1 2631.7292 1300.5991)" class="st8" width="27.9" height="21.8"/>
			<g>
				<polygon class="st16" points="1166,926.3 1169.3,788.9 1173.2,788.9 1173.2,774.8 1237.2,769.8 1237.2,797.5 1244.7,797.5 
					1244.7,646.4 1335.6,646.4 1335.6,794 1343.8,794 1343.8,926.3 				"/>
				<g>
					
						<rect x="1176.5" y="818.6" transform="matrix(-1 -1.224647e-16 1.224647e-16 -1 2380.6863 1643.012)" class="st7" width="27.7" height="5.8"/>
					
						<rect x="1176.5" y="829.1" transform="matrix(-1 -1.224647e-16 1.224647e-16 -1 2380.6863 1664.0322)" class="st7" width="27.7" height="5.8"/>
					
						<rect x="1176.5" y="839.6" transform="matrix(-1 -1.224647e-16 1.224647e-16 -1 2380.6863 1685.0525)" class="st7" width="27.7" height="5.8"/>
					
						<rect x="1176.5" y="850.2" transform="matrix(-1 -1.224647e-16 1.224647e-16 -1 2380.6863 1706.0723)" class="st7" width="27.7" height="5.8"/>
					
						<rect x="1176.5" y="860.7" transform="matrix(-1 -1.224647e-16 1.224647e-16 -1 2380.6863 1727.0925)" class="st7" width="27.7" height="5.8"/>
					
						<rect x="1176.5" y="871.2" transform="matrix(-1 -1.224647e-16 1.224647e-16 -1 2380.6863 1748.1128)" class="st7" width="27.7" height="5.8"/>
					
						<rect x="1176.5" y="881.7" transform="matrix(-1 -1.224647e-16 1.224647e-16 -1 2380.6863 1769.1331)" class="st7" width="27.7" height="5.8"/>
					
						<rect x="1176.5" y="892.2" transform="matrix(-1 -1.224647e-16 1.224647e-16 -1 2380.6863 1790.1533)" class="st7" width="27.7" height="5.8"/>
					
						<rect x="1176.5" y="902.7" transform="matrix(-1 -1.224647e-16 1.224647e-16 -1 2380.6863 1811.1733)" class="st7" width="27.7" height="5.8"/>
				</g>
			</g>
		</g>
		<g>
			<rect x="1132.7" y="820.5" class="st11" width="60.4" height="105.7"/>
		</g>
		<path class="st10" d="M1163.3,759.6V636h-12.9v-5.9h-2.9v-0.9h-1.2v-1.6h-2.2v-12.3h-1.4l-0.8-10.7h-0.6l-0.8,10.7h-1.4v12.3h-2.2
			v1.6h-1.2v0.9h-2.9v5.9h-35.8l-20.6,19.1v104.6H1163.3z M1141.4,627.1h-0.7v-11h0.7V627.1z M1142.7,627.1h-0.7v-11h0.7V627.1z"/>
		<g>
			<rect x="1036.8" y="709.2" class="st14" width="76" height="142.6"/>
		</g>
		<g>
			<rect x="434.9" y="778.4" class="st13" width="11.5" height="2.3"/>
			<rect x="433.4" y="780.2" class="st13" width="14.5" height="1"/>
			<rect x="429.8" y="781.2" class="st14" width="21.7" height="17"/>
		</g>
		<rect x="400.8" y="810.5" class="st7" width="29.5" height="115.9"/>
		<g>
			
				<rect x="405.9" y="808.8" transform="matrix(-1 -1.224647e-16 1.224647e-16 -1 814.2193 1691.4696)" class="st15" width="2.4" height="73.8"/>
			
				<rect x="411.3" y="808.8" transform="matrix(-1 -1.224647e-16 1.224647e-16 -1 824.972 1691.4696)" class="st15" width="2.4" height="73.8"/>
			
				<rect x="416.7" y="808.8" transform="matrix(-1 -1.224647e-16 1.224647e-16 -1 835.7247 1691.4696)" class="st15" width="2.4" height="73.8"/>
			
				<rect x="422" y="808.8" transform="matrix(-1 -1.224647e-16 1.224647e-16 -1 846.4775 1691.4696)" class="st15" width="2.4" height="73.8"/>
		</g>
		
			<rect x="403.2" y="728.2" transform="matrix(-1 -1.224647e-16 1.224647e-16 -1 859.4138 1654.5848)" class="st8" width="53.1" height="198.1"/>
		<polygon class="st13" points="332.6,871.4 364.7,871.4 364.7,801.3 		"/>
		
			<rect x="318.8" y="722.2" transform="matrix(-1 -1.224647e-16 1.224647e-16 -1 677.1056 1553.6664)" class="st8" width="39.4" height="109.2"/>
		<g>
			
				<rect x="361.4" y="792" transform="matrix(-1 -1.224647e-16 1.224647e-16 -1 741.0756 1585.1775)" class="st9" width="18.3" height="1.2"/>
		</g>
		<g>
			<rect x="306.4" y="752.5" class="st8" width="3.7" height="172.9"/>
			<rect x="314.6" y="752.5" class="st8" width="3.7" height="172.9"/>
			<rect x="322.9" y="839.4" class="st8" width="3.7" height="85.9"/>
			<rect x="331.1" y="839.4" class="st8" width="3.7" height="85.9"/>
		</g>
		
			<rect x="394.7" y="753.4" transform="matrix(-1 -1.224647e-16 1.224647e-16 -1 806.3394 1520.6025)" class="st11" width="17" height="13.7"/>
		<rect x="319.3" y="835.4" class="st8" width="24.8" height="91"/>
		<g>
			<g>
				<g>
					
						<rect x="496.4" y="683" transform="matrix(-1 -1.224647e-16 1.224647e-16 -1 1051.5261 1369.8354)" class="st10" width="58.7" height="3.9"/>
					
						<rect x="496.4" y="690.1" transform="matrix(-1 -1.224647e-16 1.224647e-16 -1 1051.5261 1384.1652)" class="st10" width="58.7" height="3.9"/>
					
						<rect x="496.4" y="697.3" transform="matrix(-1 -1.224647e-16 1.224647e-16 -1 1051.5261 1398.4949)" class="st10" width="58.7" height="3.9"/>
					
						<rect x="496.4" y="704.5" transform="matrix(-1 -1.224647e-16 1.224647e-16 -1 1051.5261 1412.8242)" class="st10" width="58.7" height="3.9"/>
					
						<rect x="496.4" y="711.6" transform="matrix(-1 -1.224647e-16 1.224647e-16 -1 1051.5261 1427.1537)" class="st10" width="58.7" height="3.9"/>
					
						<rect x="496.4" y="718.8" transform="matrix(-1 -1.224647e-16 1.224647e-16 -1 1051.5261 1441.4829)" class="st10" width="58.7" height="3.9"/>
					
						<rect x="496.4" y="725.9" transform="matrix(-1 -1.224647e-16 1.224647e-16 -1 1051.5261 1455.8121)" class="st10" width="58.7" height="3.9"/>
					
						<rect x="496.4" y="733.1" transform="matrix(-1 -1.224647e-16 1.224647e-16 -1 1051.5261 1470.1416)" class="st10" width="58.7" height="3.9"/>
					
						<rect x="496.4" y="740.3" transform="matrix(-1 -1.224647e-16 1.224647e-16 -1 1051.5261 1484.4712)" class="st10" width="58.7" height="3.9"/>
				</g>
				<polygon class="st10" points="444.3,926.3 549.4,926.3 550.4,678.2 444.3,669.9 				"/>
				<polygon class="st17" points="444.3,926.3 465.6,926.3 466.9,677.7 444.3,669.9 				"/>
			</g>
			<g>
				<polygon class="st11" points="549.1,774.1 525.9,755.8 482.7,755.8 				"/>
				<rect x="509.9" y="802.7" class="st18" width="3.2" height="123.7"/>
				<rect x="517" y="802.7" class="st18" width="3.2" height="123.7"/>
				<rect x="524.1" y="802.7" class="st18" width="3.2" height="123.7"/>
				<rect x="531.1" y="802.7" class="st18" width="3.2" height="123.7"/>
			</g>
		</g>
		<rect x="609.3" y="792" class="st12" width="51.1" height="17.7"/>
		<rect x="1085.5" y="699.3" class="st12" width="106.5" height="227"/>
		<rect x="1105" y="744.1" class="st11" width="64.6" height="181.4"/>
		<polygon class="st16" points="395.6,765.4 389.2,794.4 389.2,862.3 383.7,862.3 383.7,830 367.1,830 367.1,793.6 349.5,793.6 
			349.5,740.6 320.4,740.6 320.4,730.2 314.3,730.2 314.3,740.6 302.8,740.6 302.8,752.4 296.7,752.4 296.7,721.8 284.8,721.8 
			284.8,926.3 422.5,926.3 422.5,785.2 418.1,765.9 		"/>
		<rect x="470.5" y="806.9" class="st12" width="25.9" height="119.4"/>
		<rect x="547.8" y="773.1" class="st12" width="19.5" height="153.3"/>
	</g>
	<g class="st1">
		<linearGradient id="SVGID_3_" gradientUnits="userSpaceOnUse" x1="434.275" y1="758.5068" x2="520.2578" y2="1031.9596">
			<stop  offset="0" style="stop-color:#272438"/>
			<stop  offset="1" style="stop-color:#304260"/>
		</linearGradient>
		<path class="st19" d="M387.9,940h110.9c4.3-28.3,7.6-51.8,9-65.9c6.3-65.9,2.6-153.7,11-162.8c8.4-9.1-22.7-60.7-22.7-60.7
			l-73.3,12.7l-34.4,91.1c0,0-3.4,145.5-1.3,172.2C387.2,929.2,387.5,933.8,387.9,940z"/>
		<linearGradient id="SVGID_4_" gradientUnits="userSpaceOnUse" x1="355.9003" y1="677.7408" x2="341.9667" y2="1001.0031">
			<stop  offset="0" style="stop-color:#272438"/>
			<stop  offset="1" style="stop-color:#304260"/>
		</linearGradient>
		<path class="st20" d="M377,940c5.7-23.7,10.8-42.9,14.8-54.1c20.7-57.3,60.8-234.6,60.8-234.6l-178,12.1c0,0-15.5,70-19.8,147
			c2.8,1.5,4.1,4.6,1,7c-0.5,0.3-0.9,0.7-1.4,1c-0.4,8.9-0.7,17.9-0.7,26.8c-0.1,22.2,0.6,56.2,1.6,94.8H377z"/>
		<linearGradient id="SVGID_5_" gradientUnits="userSpaceOnUse" x1="476.5522" y1="485.4613" x2="570.3236" y2="485.4613">
			<stop  offset="0" style="stop-color:#8A74DC"/>
			<stop  offset="0.4231" style="stop-color:#634DB4"/>
			<stop  offset="0.7889" style="stop-color:#473198"/>
			<stop  offset="1" style="stop-color:#3D278D"/>
		</linearGradient>
		<path class="st21" d="M570.2,495c0,0,2,16.4-9.8,25.6c-11.8,9.2-24.5,27.3-24.5,27.3s-15.4-10.9-23.7-19.5
			c-8.3-8.5-35.1-43.3-35.6-61.1c-0.5-17.7,41.2-44.4,41.2-44.4s23,28.7,25,45S570.2,495,570.2,495z"/>
		<path class="st22" d="M588.8,483.8c-3.9,8.2-3.9,16.7-3.9,28s1.5,30.7-7.8,35.5c-9.3,4.8-22.6,14-33.8,6.5
			c-11.3-7.5-17.2-19.4-18.6-30.7c-1.5-11.3,16.7-27.6,25-37.5L588.8,483.8z"/>
		<linearGradient id="SVGID_6_" gradientUnits="userSpaceOnUse" x1="591.9127" y1="485.5077" x2="546.705" y2="546.1812">
			<stop  offset="0" style="stop-color:#8A74DC"/>
			<stop  offset="0.4231" style="stop-color:#634DB4"/>
			<stop  offset="0.7889" style="stop-color:#473198"/>
			<stop  offset="1" style="stop-color:#3D278D"/>
		</linearGradient>
		<path class="st23" d="M512.1,528.4c0,0,8.8,12.1,31.1,25.3s39.1,6.6,45.6,0c6.5-6.6,0-53.9,0-53.9s-23.5,2.7-39.2-14.4
			L512.1,528.4z"/>
		<polygon class="st24" points="563.4,502.1 588.8,499.8 588.8,483.8 563.4,485.5 		"/>
		<g>
			<path class="st22" d="M335.1,346.7c-4,8.7-42,18.8-42,18.8s114.7,99.8,159,99.2c44.3-0.6-19.4-94.1-19.4-94.1
				s-12.9-4.9-16.9-14.4c-4-9.5,4.4-50.3,4.4-50.3l-46.7-21.7C373.5,284.1,339.2,338,335.1,346.7z"/>
			<linearGradient id="SVGID_7_" gradientUnits="userSpaceOnUse" x1="348.0036" y1="358.7993" x2="398.0232" y2="371.3041">
				<stop  offset="0" style="stop-color:#FFFFFF;stop-opacity:0"/>
				<stop  offset="1" style="stop-color:#E0BAD1"/>
			</linearGradient>
			<path class="st25" d="M335.1,346.7c-4,8.7-42,18.8-42,18.8s114.7,99.8,159,99.2c44.3-0.6-19.4-94.1-19.4-94.1
				s-12.9-4.9-16.9-14.4c-4-9.5,4.4-50.3,4.4-50.3l-46.7-21.7C373.5,284.1,339.2,338,335.1,346.7z"/>
			<path class="st22" d="M477.9,229c7,5.1,18.7,15.4,17.6,21.2c-1.1,5.9-0.8,24-7,32.9c-8.7,12.4-7.6,31.3-13.3,42.4
				c-5.6,11.1-33.7,28-38.2,29.4c-4.5,1.4-19.6-0.8-26.9-5.1c-7.3-4.3-45.4-41.3-36.6-65.7c0,0-16.8,2.4-22.6-21.9
				c-1.5-6.3,32.1-23.7,37.3-29.9c12.9-15,58.4-2.3,71.4-1.3C472.8,232,477.9,229,477.9,229z"/>
			<path class="st26" d="M494,259.9c0,0,5.7-15-11.1-16.6l-52.4-8.1c-14.8-3.5-20.7-5.6-20.7-5.6s-4.4,15.2-9.6,18.6
				c-5.2,3.4-15.9,6.7-17.9,11.5c-2,4.8-2.8,9.9-2.8,9.9s-6.8-10.3-14.8-9.9c-8,0.3-10.6,9.4-4.2,14.8c6.3,5.4,13,9.6,13,9.6
				s-2,7-5.3,12c-3.3,5-9.3,13.5-9.3,13.5s-7.2-34.1-16.9-49.2c-9.6-15.1-9.8-57,48.6-56.4c0,0,38.1-22.2,75.8-16.1
				c32.7,5.3,67.3,25.7,39,59.2C495.7,258.8,494,259.9,494,259.9z"/>
			<g>
				<g>
					<path class="st27" d="M433.1,277.6c0,0,1.1,3.4,6,6.7c4.9,3.3,8.7,3.3,14.6-1C453.7,283.2,446.4,275.7,433.1,277.6z"/>
					<path class="st28" d="M442.2,278.3c-1.7-0.5-2.7,3.4-2.5,4.3c0.4,1.4,1.2,3.1,5.2,3.5c5.9,0.7,7.2-5,7.2-5L442.2,278.3z"/>
					<path class="st29" d="M449.6,281.9c-2.5-0.2-4.2,1.8-2.6,2.9c1.5,1,3.7,1.5,4.4-0.1S452.1,282.1,449.6,281.9z"/>
					<path class="st30" d="M428,277.8c0,0,16.8-0.6,28.5,6.9c0,0,1.3-1.9-1.8-4c-1.7-1.2-5.7-2.7-9.9-3.4
						C430.6,274.8,428,277.8,428,277.8z"/>
				</g>
				<path class="st31" d="M461.4,268.8c0,0,3.3-2.6,2.8-6.2c0,0-17-6.8-40.1-1.2c0,0-2.6,1.2,1.5,1.2
					C429.8,262.7,452.7,261.9,461.4,268.8z"/>
				<g>
					<path class="st27" d="M483.9,288.1c0,0-0.1,5.8-4.3,6.5c-5.6,0.9-5.9-3.6-5.7-6.7C473.8,287.9,478.8,285.6,483.9,288.1z"/>
					<path class="st28" d="M483.9,288.9c1.3,0.3-0.3,3.2-1,3.7c-1.1,0.7-2.5,1.5-5.3,0.3c-4-1.8-1.5-5.9-1.5-5.9L483.9,288.9z"/>
					<path class="st29" d="M483.8,290.5c1.9,0.9,1.7,3.1,0,3.2c-1.8,0.1-3.6-0.5-3-1.9S481.9,289.6,483.8,290.5z"/>
					<path class="st30" d="M485.7,289.6c1.9,0.1,1.5-1.2-1.6-2.3c-3.4-1.2-7.2-1.8-9.2-1.7c-3.6,0.2-4,2.1-4,2.1
						c4.9-0.2,9.6,0.8,13.5,2C484.9,289.6,485.2,289.5,485.7,289.6z"/>
				</g>
				<path class="st31" d="M493.8,273.5c-8.4-6.8-14.2-7.4-14.2-7.4c-2.2,1.9-2.4,5.7-2.4,5.7c7.8,1.1,13.1,3.1,16.6,4.7
					C494.3,275.1,494.3,274,493.8,273.5z"/>
			</g>
			<path class="st32" d="M413.2,270.9c-0.1,1.1,2.8,2.5,3.3,2.9c1,0.9,0.3,0.9,1.7,9.7c1,6.5,6.7,10.7,21.1,12.1
				c11,1.1,13.7-6.2,16.3-9.1c2.6-2.9,3.7-3.2,5.4-2.8c1.6,0.4,2.3,1,2.6,4.6c0.3,3.6-3.2,11.2,7.5,13.8c7.3,1.8,10.1,0.9,13.6-3.2
				c3.2-3.6,5.7-7.5,7.2-10.5c1.5-3.1,2.5-4.9,0.8-5.7c-2.1-1.1-5.4-1.7-8.6-2.4c-6.4-1.4-10.7-3-15.1-2.3c-4.3,0.7-4.7,2-6.5,1.6
				c-1.9-0.4-1.5-1.7-4.7-4.1c-3.3-2.4-20.4-6.2-26.8-7.6c-6.4-1.4-15.6-2.7-16.6-0.8C413.8,268,413.3,269.6,413.2,270.9z
				 M468.6,283.4c1.7-2.3,1.8-1.9,9.9-0.5c8.1,1.4,8.7,2,9.6,3.5c0.9,1.5-0.3,5.7-4,10.4c-2,2.5-4.7,5.7-11.2,4.3
				c-7-1.6-6.9-4.8-6.5-9.1C466.7,287.6,467.9,284.2,468.6,283.4z M423.7,270.8c1.8-0.9,12.3,1.8,20.2,3.9
				c7.9,2.1,10.5,2.8,10.5,5.5c0,1-1.2,4.4-3.8,8.2c-2.6,3.9-5.6,7-18.2,4.2c-8.9-1.9-11.7-5.4-12.1-11.7
				C420,275.5,421.9,271.8,423.7,270.8z M377.9,267.3c0,0,4.2-2,5.8-1.8c0.7,0.1,2,0.9,2,0.9l27.6,5.1l9.3-5.2
				c0,0-23.5-4.5-34.9-6.6c-5.5-1-13.2,4.3-13.2,4.3S376.4,265.3,377.9,267.3z"/>
			<path class="st33" d="M463.1,286c0,0,2.4,16.1,7.2,19.4c6.1,4.2,3.6,7.6-1,8.6c-4.7,1-15.6-0.5-15.6-0.5s0.2-7.9,3.6-13.7
				C460.7,294.1,463.1,286,463.1,286z"/>
			<path class="st28" d="M458.9,320.6c0,0-2.3,5.6-8.1,8.3c-1.8,0.9-3.9,1.5-6.4,1.6c-7.7,0.3-11.7-3-13.8-6.6
				c-2.5-4.4-2.2-9.4-2.2-9.4s7.9,3.4,17.8,5C455.9,320.9,458.9,320.6,458.9,320.6z"/>
			<path class="st34" d="M450.7,328.9c-1.8,0.9-3.9,1.5-6.4,1.6c-7.7,0.3-11.7-3-13.8-6.6C432.4,323,444.3,330.5,450.7,328.9z"/>
		</g>
		<linearGradient id="SVGID_8_" gradientUnits="userSpaceOnUse" x1="484.0476" y1="390.5233" x2="509.1455" y2="509.7376">
			<stop  offset="0" style="stop-color:#8A74DC"/>
			<stop  offset="0.4231" style="stop-color:#634DB4"/>
			<stop  offset="0.7889" style="stop-color:#473198"/>
			<stop  offset="1" style="stop-color:#3D278D"/>
		</linearGradient>
		<path class="st35" d="M475.4,379.7c23.8,8.9,31.1,20.2,42.9,42.7c11.8,22.5,23.5,27.6,23.5,27.6s-25,4.1-53,46.1
			c0,0-29.4-14.3-36.8-43C444.7,424.4,475.4,379.7,475.4,379.7z"/>
		<linearGradient id="SVGID_9_" gradientUnits="userSpaceOnUse" x1="367.6946" y1="354.4232" x2="367.6946" y2="689.0328">
			<stop  offset="0" style="stop-color:#8A74DC"/>
			<stop  offset="0.4231" style="stop-color:#634DB4"/>
			<stop  offset="0.7889" style="stop-color:#473198"/>
			<stop  offset="1" style="stop-color:#3D278D"/>
		</linearGradient>
		<path class="st36" d="M313.8,354.4L235,377.1c0,0-12.7,56.6-11.7,77.7c1,21.1,42.9,230.3,42.9,230.3s104.6,8.8,157.1,0
			c52.6-8.8,88.9-16.9,88.9-16.9S494,464,489.9,442.9c-4.1-21.1-14.5-63.2-14.5-63.2l-41.2-14.8l-22.8,12.2L313.8,354.4z"/>
		<linearGradient id="SVGID_10_" gradientUnits="userSpaceOnUse" x1="426.2901" y1="639.6176" x2="426.2901" y2="403.047">
			<stop  offset="0" style="stop-color:#272438"/>
			<stop  offset="1" style="stop-color:#304260"/>
		</linearGradient>
		<path class="st37" d="M420.4,403c0,0,27.6,188.1,32.9,209.4l-18,27.2c0,0-30.2-15.7-31.9-24.4c-1.7-8.7-4.1-211.2-4.1-211.2
			L420.4,403z"/>
		<g>
			<path class="st22" d="M546.2,450.1c-5.5-1.5-29.1-5.8-38.2-5.6c-9.2,0.2-37-1.6-48-0.4c-11,1.2-21.2,12.9-30.6,16.2
				c-5,1.8-14.8,5.3-26.7,9.3c4,7.9,7.8,15.9,11.6,23.9c5.9-3.1,11-5.3,14.9-6.2c15.9-3.4,15.5-6.5,24.1-6.2c8.6,0.3,7.3,0.4,15-0.6
				s13.1-9.6,18.6-12.2c5.5-2.7,13.7-5.5,12.7-7.7c-1-2.2-1.3-4.9-20-1.8c0,0,17.7-4.9,25.6-4.9c7.9-0.1,24.5,1.5,32.4,1.5
				C545.6,455.1,551.7,451.5,546.2,450.1z"/>
			<polygon class="st24" points="398.3,470.4 420.6,462.1 440.9,496.2 419.2,508.2 			"/>
		</g>
		<g>
			<path id="XMLID_55_" class="st38" d="M468.2,510.8l64,11.3c6.6,1.1,14.5-1.9,17.8-6.7l71.1-106.9c3.2-4.8,0.6-9.6-5.9-10.8
				l-63.4-11.5c-11.7-0.3-17.7,1.7-21,6.6l-71.2,106.1C456.3,503.9,457.2,507.2,468.2,510.8z"/>
			
				<linearGradient id="XMLID_2_" gradientUnits="userSpaceOnUse" x1="2212.4124" y1="840.7891" x2="2452.7605" y2="838.2592" gradientTransform="matrix(-0.7155 -0.228 -0.3981 0.8326 2583.6753 299.3176)">
				<stop  offset="0" style="stop-color:#EEF4FB"/>
				<stop  offset="0.3115" style="stop-color:#E3EDF8"/>
				<stop  offset="1" style="stop-color:#CFE1F3"/>
			</linearGradient>
			<path id="XMLID_37_" class="st39" d="M471.8,511.7l64.3,11.3c6.6,1.1,14.6-1.9,17.9-6.7l71.4-107.4c3.2-4.8,0.6-9.6-5.9-10.8
				l-63.7-11.5c-6.9-1.2-15.2,1.8-18.5,6.8l-71.8,107.1C462,505.4,464.9,510.5,471.8,511.7z"/>
		</g>
		<path class="st22" d="M575.5,492.7c6.4-1.2,15-1.7,17.2-4.7c2.1-3,5.4-3.7,8.9-6c3.6-2.2,1.4-4.5,5.7-7.2c4.3-2.7,0-7.5,0.4-10
			c0.4-2.5,0.7-7.5-0.7-12c-1.4-4.5-7.2-5.5-14.7-7.2c-7.5-1.7-12.9-1.7-12.9,1c0,2.7,7.9,6.5,7.9,6.5s-12.9-3-16.5-4
			c-3.6-1-9.3,1.2-6.8,4.5c2.5,3.2,12.9,7.5,16.1,8.7c3.2,1.2,5,3.7,5,3.7s-9.7,0-16.5-2c-6.8-2-12.9-6.5-17.5-4.5
			c-4.7,2-2.1,4.5,2.5,7.2c0,0,10,4.7,13.2,5.7c0,0-10,0.2-15-1.2c-5-1.5-7.5,0.2-6.1,3c1.4,2.7,15.4,5,15.7,6
			c0.4,1-2.5,3.5-4.3,6.5C555.4,489.7,575.5,492.7,575.5,492.7z"/>
		<linearGradient id="SVGID_11_" gradientUnits="userSpaceOnUse" x1="400.0636" y1="403.8505" x2="400.0636" y2="377.12">
			<stop  offset="0" style="stop-color:#272438"/>
			<stop  offset="1" style="stop-color:#304260"/>
		</linearGradient>
		<polygon class="st40" points="432.4,381.3 420.4,403 399.3,403.9 367.7,378.1 413.9,377.1 		"/>
		<linearGradient id="SVGID_12_" gradientUnits="userSpaceOnUse" x1="362.5975" y1="353.6361" x2="362.5975" y2="394.7199">
			<stop  offset="0" style="stop-color:#8A74DC"/>
			<stop  offset="0.4231" style="stop-color:#634DB4"/>
			<stop  offset="0.7889" style="stop-color:#473198"/>
			<stop  offset="1" style="stop-color:#3D278D"/>
		</linearGradient>
		<polygon class="st41" points="323.3,343.9 411.4,377.1 375.7,397.8 313.8,354.4 		"/>
		<linearGradient id="SVGID_13_" gradientUnits="userSpaceOnUse" x1="425.7396" y1="353.6361" x2="425.7396" y2="394.72">
			<stop  offset="0" style="stop-color:#8A74DC"/>
			<stop  offset="0.4231" style="stop-color:#634DB4"/>
			<stop  offset="0.7889" style="stop-color:#473198"/>
			<stop  offset="1" style="stop-color:#3D278D"/>
		</linearGradient>
		<polygon class="st42" points="411.4,377.1 440.1,393.3 434.2,364.9 424.8,356.8 		"/>
		<linearGradient id="SVGID_14_" gradientUnits="userSpaceOnUse" x1="313" y1="443.6321" x2="280.6761" y2="608.4843">
			<stop  offset="0" style="stop-color:#8A74DC"/>
			<stop  offset="0.4231" style="stop-color:#634DB4"/>
			<stop  offset="0.7889" style="stop-color:#473198"/>
			<stop  offset="1" style="stop-color:#3D278D"/>
		</linearGradient>
		<path class="st43" d="M235,377.1c0,0-25.1,14.4-30.6,21.3c-5.5,6.8-2.2,22.8-4.4,40.2c-2.2,17.5,6.2,104.8,18.2,119.2
			c12,14.4,33.8,18.2,44.7,18.2c10.9,0,156.1-67.9,156.1-67.9l-20.8-37.9l-106.6,30.5c0,0,1.1-61.5,2.2-75.2
			C295,412.1,256.8,380.9,235,377.1z"/>
	</g>
	<g class="st1">
		<path class="st11" d="M813,407v-22.2l-14.3-3.2c-0.9-2.1-2.1-4.2-3.4-6.2l7.1-10l-20.6-15.7l-13.1,5.4c-2.6-1-5.3-1.9-8.1-2.6
			l-4.2-10.9h-29.2l-4.2,10.9c-2.8,0.7-5.5,1.6-8.1,2.6l-13.1-5.4L681,365.4l7.1,10c-1.3,2-2.5,4-3.4,6.2l-14.3,3.2V407l14.3,3.2
			c0.9,2.1,2.1,4.2,3.4,6.2l-7.1,10l20.6,15.7l13.1-5.4c2.6,1,5.3,1.9,8.1,2.6l4.2,10.9h29.2l4.2-10.9c2.8-0.7,5.5-1.6,8.1-2.6
			l13.1,5.4l20.6-15.7l-7.1-10c1.3-2,2.5-4,3.4-6.2L813,407z M773.8,395.9c0,13.5-14.4,24.4-32.1,24.4c-17.7,0-32.1-10.9-32.1-24.4
			c0-13.5,14.4-24.4,32.1-24.4C759.4,371.5,773.8,382.4,773.8,395.9z"/>
		<path class="st11" d="M913.6,346.1v-13.7l-8.8-2c-0.6-1.3-1.3-2.6-2.1-3.8l4.4-6.2l-12.7-9.7l-8.1,3.3c-1.6-0.6-3.3-1.2-5-1.6
			l-2.6-6.7h-18l-2.6,6.7c-1.7,0.4-3.4,1-5,1.6l-8.1-3.3l-12.7,9.7l4.4,6.2c-0.8,1.2-1.5,2.5-2.1,3.8l-8.8,2v13.7l8.8,2
			c0.6,1.3,1.3,2.6,2.1,3.8l-4.4,6.2l12.7,9.7l8.1-3.4c1.6,0.6,3.3,1.2,5,1.6l2.6,6.7h18l2.6-6.7c1.7-0.4,3.4-1,5-1.6l8.1,3.3
			l12.7-9.7l-4.4-6.2c0.8-1.2,1.5-2.5,2.1-3.8L913.6,346.1z M889.4,339.3c0,8.3-8.9,15.1-19.8,15.1c-10.9,0-19.8-6.7-19.8-15.1
			c0-8.3,8.9-15.1,19.8-15.1C880.6,324.2,889.4,331,889.4,339.3z"/>
	</g>
	<g class="st1">
		<g>
			<line class="st44" x1="697.9" y1="511.3" x2="697.9" y2="542.4"/>
			<g>
				<path class="st45" d="M718.9,509.1c0,8.6-9.4,15.6-21,15.6c-11.6,0-21-7-21-15.6c0-8.6,9.4-15.6,21-15.6
					C709.5,493.5,718.9,500.5,718.9,509.1z"/>
			</g>
			<g>
				<path class="st45" d="M718.9,563.7c0,8.6-9.4,15.6-21,15.6c-11.6,0-21-7-21-15.6c0-8.6,9.4-15.6,21-15.6
					C709.5,548.2,718.9,555.1,718.9,563.7z"/>
			</g>
			<g>
				<polygon class="st27" points="696.3,515.3 686.6,506 695.4,508.7 715.6,495.6 				"/>
			</g>
			<g>
				<polygon class="st27" points="696.3,570.5 686.6,561.2 695.4,563.9 715.6,550.8 				"/>
			</g>
		</g>
		<rect x="731.3" y="515.2" class="st46" width="241.9" height="16.8"/>
		<rect x="731.3" y="569.3" class="st46" width="158.1" height="16.8"/>
		<rect x="731.3" y="498.8" class="st45" width="138.3" height="8.6"/>
		<rect x="731.3" y="552.3" class="st45" width="85.7" height="8.6"/>
	</g>
</g>
<g>
	<g id="XMLID_319_">
		<g id="XMLID_338_">
			<path id="XMLID_346_" class="st47" d="M984.1,982.9c-1.4,1.1-2.6,2.3-3.6,3.6l-1.5-0.6c-0.2-0.7-1.1-1.2-2.1-1.1
				c-1.1,0.1-1.8,0.8-1.7,1.6c0.1,0.8,1.1,1.4,2.2,1.3c0.2,0,0.4-0.1,0.6-0.1l1.5,0.6c-0.8,1.4-1.4,2.8-1.7,4.3l2.4,0.3
				c0.7-3.2,2.7-6.1,5.8-8.5L984.1,982.9z"/>
			<path id="XMLID_345_" class="st47" d="M1001.8,977.3c-0.6,0-1.1,0-1.6,0l-0.2-1.5c0.6-0.4,1-1,0.9-1.6c-0.1-1-1.3-1.7-2.6-1.5
				c-1.3,0.1-2.2,1-2,1.9c0.1,0.6,0.6,1.1,1.3,1.4l0.2,1.5c-2.3,0.3-4.5,0.8-6.6,1.6l1.1,1.7c3-1.1,6.3-1.6,9.7-1.6
				c1.6,0,3.2,0.1,4.8,0.4l0.5-1.8C1005.3,977.4,1003.6,977.3,1001.8,977.3z"/>
			<path id="XMLID_344_" class="st47" d="M1023.1,983.5c1.1-0.1,1.8-0.8,1.7-1.6c-0.1-0.8-1.1-1.4-2.2-1.3c-1,0.1-1.7,0.7-1.7,1.5
				l-1.3,0.9c-1.3-1.1-2.9-2-4.5-2.8l-1.3,1.6c3.7,1.8,6.5,4.2,8.3,7.2l2.2-0.8c-0.8-1.4-1.8-2.6-3-3.8l1.3-0.9
				C1022.7,983.5,1022.9,983.5,1023.1,983.5z"/>
			<path id="XMLID_343_" class="st47" d="M1000,1002.3c-1.2,0.1-2.5,0.1-3.7,0.1c-2.8,0-5.6-0.1-8-0.4c-1.3-0.2-2.7-0.4-4.1-0.7
				c3.4,4.6,9.9,7.7,17.4,7.7c9.2,0,17-4.7,19.2-11c-2.2,1.1-4.9,2-7.9,2.8C1009,1001.5,1004.6,1002.1,1000,1002.3z"/>
			<path id="XMLID_339_" class="st47" d="M1001.8,981c-10.8,0-19.6,6.5-19.6,14.6c0,1,0.1,2.1,0.4,3.1c2.2,1.2,8.7,2.2,17.2,1.8
				c9.3-0.4,17.1-2.3,21.5-5.3c0-0.5-0.1-1-0.1-1.4C1020,986.5,1011.6,981,1001.8,981z M994.8,997c-3.3,0-6-2-6-4.5
				c0-2.5,2.7-4.5,6-4.5c3.3,0,6,2,6,4.5C1000.8,994.9,998.1,997,994.8,997z M1010.1,994.7c-2.4,0-4.4-1.5-4.4-3.3
				c0-1.8,2-3.3,4.4-3.3c2.4,0,4.4,1.5,4.4,3.3C1014.5,993.2,1012.5,994.7,1010.1,994.7z"/>
		</g>
		<path id="XMLID_336_" class="st47" d="M1053.4,985.6c-1-0.3-2.6-0.8-4.5-0.6c-1.8,0.2-2.7,0.8-2.7,2.5v2.1h7.2v4.2h-7.2v13.4h-6.2
			v-13.4h-4.3v-4.2h4.3v-2.2c0-4.1,2.9-6.8,8.3-6.8c2.1,0,3.7,0.3,5.1,0.8L1053.4,985.6z"/>
		<path id="XMLID_334_" class="st47" d="M1068.6,993.7c-0.6-0.1-1.2-0.1-1.7-0.1c-2.9,0-4.9,1.3-4.9,4v9.6h-6.2v-17.6h6v1.9
			c1.5-1.7,3.7-2.4,6.5-2.4c1.3,0,2.7,0.3,3.5,0.8L1068.6,993.7z"/>
		<path id="XMLID_331_" class="st47" d="M1093.3,998.3c0,0.5,0,1.2-0.1,1.6h-16.4c0.7,2.5,3,3.6,5.9,3.6c2,0,4.2-0.6,5.8-1.7l3.7,3
			c-2.6,1.8-6,2.7-9.9,2.7c-7.1,0-12-3.7-12-9.2c0-5.5,4.8-9.3,11.7-9.3C1088.7,989.1,1093.3,992.9,1093.3,998.3z M1076.8,996.7
			h10.2c-0.6-2.2-2.4-3.5-5-3.5C1079.1,993.2,1077.3,994.5,1076.8,996.7z"/>
		<path id="XMLID_328_" class="st47" d="M1118,998.3c0,0.5,0,1.2-0.1,1.6h-16.4c0.7,2.5,3,3.6,5.9,3.6c2,0,4.2-0.6,5.8-1.7l3.7,3
			c-2.6,1.8-6,2.7-9.9,2.7c-7.1,0-12-3.7-12-9.2c0-5.5,4.8-9.3,11.7-9.3C1113.4,989.1,1117.9,992.9,1118,998.3z M1101.5,996.7h10.2
			c-0.6-2.2-2.4-3.5-5-3.5C1103.7,993.2,1102,994.5,1101.5,996.7z"/>
		<path id="XMLID_325_" class="st47" d="M1144.9,998.4c0,5.3-4.8,9.2-11.2,9.2c-3.1,0-5.3-0.9-6.8-2.3v9.1h-6.2v-24.8h6.1v1.9
			c1.5-1.4,3.7-2.4,6.9-2.4C1140.1,989.1,1144.9,993.1,1144.9,998.4z M1126.6,998.4c0,2.8,2.4,4.8,5.9,4.8c3.7,0,6-2.2,6-4.8
			c0-2.7-2.3-4.8-6-4.8C1129,993.5,1126.6,995.6,1126.6,998.4z"/>
		<path id="XMLID_322_" class="st47" d="M1154.9,983.8c0,1.7-1.7,3-4,3c-2.2,0-4-1.3-4-3c0-1.7,1.7-3,4-3
			C1153.1,980.8,1154.9,982.1,1154.9,983.8z M1154.1,1007.2h-6.2v-17.6h6.2V1007.2z"/>
		<path id="XMLID_320_" class="st47" d="M1164.4,995.8l8.7-6.3h7.6l-11.2,8.3l11.3,9.3h-7.7l-8.8-7.1v7.1h-6.2V981h6.2V995.8z"/>
	</g>
	<g>
		<path class="st47" d="M740,1007v-2.6c-1.7,1.8-4.5,3-7.7,3c-6,0-10.2-3.4-10.2-9.1c0-5.5,4.2-9.1,10.2-9.1c3.1,0,5.9,1.1,7.7,3.1
			v-9.2h3.5v23.9H740z M740,1002.3v-7.9c-1.3-1.5-4-2.8-6.8-2.8c-4.6,0-7.3,2.9-7.3,6.7c0,3.8,2.7,6.7,7.3,6.7
			C736,1005,738.7,1003.8,740,1002.3z"/>
		<path class="st47" d="M748.1,998.3c0-5,4.7-9.1,11.2-9.1c6.9,0,11,4.1,11,9.3v0.7h-18.5c0.3,3.3,3.3,6,8.2,6c2.6,0,5.2-0.8,7-2.2
			l1.7,1.8c-2.3,1.7-5.3,2.7-9.1,2.7C753,1007.4,748.1,1003.7,748.1,998.3z M759.3,991.5c-4.9,0-7.3,3.1-7.5,5.8h15
			C766.8,994.7,764.5,991.5,759.3,991.5z"/>
		<path class="st47" d="M772.9,1004.7l1.8-1.9c1.5,1.3,4.4,2.5,7.5,2.5c3.5,0,5.4-1.3,5.4-3c0-4.2-14.1-1.6-14.1-8
			c0-2.7,3.1-5,8.5-5c3.9,0,6.6,1.1,8.5,2.5l-1.7,1.9c-1.4-1.3-3.9-2.2-6.8-2.2c-3.1,0-5.1,1.2-5.1,2.7c0,3.8,14.1,1.3,14.1,8
			c0,2.9-3.1,5.2-9,5.2C778.3,1007.4,775.2,1006.6,772.9,1004.7z"/>
		<path class="st47" d="M795,985.4c0-1,1.1-1.8,2.4-1.8c1.3,0,2.4,0.8,2.4,1.8c0,1-1.1,1.8-2.4,1.8C796.1,987.2,795,986.4,795,985.4
			z M795.6,1007v-17.3h3.5v17.3H795.6z"/>
		<path class="st47" d="M805,1011.4l1.8-2c1.9,1.7,4.2,2.4,7.4,2.4c3.8,0,7.3-1.4,7.3-5.2v-2.5c-1.7,1.8-4.4,3.1-7.7,3.1
			c-6,0-10.2-3.4-10.2-9c0-5.6,4.2-9,10.2-9c3.1,0,5.8,1.1,7.7,3.1v-2.6h3.5v16.8c0,5.7-5.3,7.5-10.9,7.5
			C810.4,1014,807.7,1013.5,805,1011.4z M821.6,1002v-7.6c-1.2-1.5-4-2.8-6.8-2.8c-4.6,0-7.3,2.8-7.3,6.6c0,3.8,2.7,6.6,7.3,6.6
			C817.6,1004.8,820.3,1003.5,821.6,1002z"/>
		<path class="st47" d="M846.4,1007v-11.3c0-3.1-2-4-5.1-4c-2.8,0-5.4,1.3-6.8,2.7v12.7H831v-17.3h3.5v2.5c1.6-1.4,4.7-2.9,8.1-2.9
			c4.8,0,7.3,1.8,7.3,5.6v12.2H846.4z"/>
		<path class="st47" d="M854.5,998.3c0-5,4.7-9.1,11.2-9.1c6.9,0,11,4.1,11,9.3v0.7h-18.5c0.3,3.3,3.3,6,8.2,6c2.6,0,5.2-0.8,7-2.2
			l1.7,1.8c-2.3,1.7-5.3,2.7-9.1,2.7C859.4,1007.4,854.5,1003.7,854.5,998.3z M865.7,991.5c-4.9,0-7.3,3.1-7.5,5.8h15
			C873.2,994.7,870.9,991.5,865.7,991.5z"/>
		<path class="st47" d="M897.8,1007v-2.6c-1.7,1.8-4.5,3-7.7,3c-6,0-10.2-3.4-10.2-9.1c0-5.5,4.2-9.1,10.2-9.1
			c3.1,0,5.9,1.1,7.7,3.1v-9.2h3.5v23.9H897.8z M897.8,1002.3v-7.9c-1.3-1.5-4-2.8-6.8-2.8c-4.6,0-7.3,2.9-7.3,6.7
			c0,3.8,2.7,6.7,7.3,6.7C893.8,1005,896.5,1003.8,897.8,1002.3z"/>
		<path class="st47" d="M918.3,1007v-23.9h3.5v9.2c1.8-1.9,4.6-3.1,7.7-3.1c6,0,10.2,3.6,10.2,9.1c0,5.6-4.2,9.1-10.2,9.1
			c-3.2,0-6-1.3-7.7-3v2.6H918.3z M928.6,1005c4.6,0,7.4-2.8,7.4-6.7c0-3.8-2.7-6.7-7.4-6.7c-2.8,0-5.6,1.3-6.8,2.8v7.9
			C923,1003.8,925.8,1005,928.6,1005z"/>
		<path class="st47" d="M943.5,1011.3c0.5,0.2,1.4,0.3,1.9,0.3c1.6,0,2.6-0.4,3.4-1.8l1.5-2.6l-9.5-17.5h3.8l7.6,14.2l7.6-14.2h3.9
			l-11.4,20.9c-1.4,2.5-3.7,3.5-6.7,3.5c-0.8,0-1.9-0.1-2.6-0.3L943.5,1011.3z"/>
	</g>
</g>
</svg>
