<?xml version="1.0" encoding="utf-8"?>
<!-- Generator: Adobe Illustrator 24.0.2, SVG Export Plug-In . SVG Version: 6.00 Build 0)  -->
<svg version="1.1" id="Layer_1" xmlns="http://www.w3.org/2000/svg" xmlns:xlink="http://www.w3.org/1999/xlink" x="0px" y="0px"
	 viewBox="0 0 1900 900" style="enable-background:new 0 0 1900 900;" xml:space="preserve">
<style type="text/css">
	.st0{fill:#F8F8F8;}
	.st1{fill:#EDEDED;}
	.st2{fill:#222023;}
	.st3{fill:#A59AA5;}
	.st4{fill:#C2B8C2;}
	.st5{fill:#DBD5DB;}
	.st6{fill:#FDC72F;}
	.st7{fill:#FFD56C;}
	.st8{fill:none;stroke:#FFFFFF;stroke-width:2.2052;stroke-miterlimit:10;}
	.st9{fill:none;stroke:#FFFFFF;stroke-width:13.1376;stroke-linecap:round;stroke-linejoin:round;stroke-miterlimit:10;}
	.st10{fill:none;stroke:#FFFFFF;stroke-width:9.0321;stroke-linecap:round;stroke-linejoin:round;stroke-miterlimit:10;}
	.st11{fill:none;stroke:#222021;stroke-width:0.9905;stroke-miterlimit:10;}
	.st12{fill:#9FDEFD;}
	.st13{fill:#FFFFFF;}
	.st14{fill:#FBA09F;}
	.st15{fill:#005FEA;}
	.st16{fill:#1FA5F8;}
	.st17{fill:#FAFAFA;}
	.st18{fill:#21529F;}
	.st19{fill:#E0895A;}
	.st20{fill:#FAC030;}
	.st21{fill:none;stroke:#EAAE28;stroke-width:0.75;stroke-miterlimit:10;}
	.st22{fill:none;stroke:#1C96D3;stroke-width:0.75;stroke-miterlimit:10;}
	.st23{fill:#201C30;}
	.st24{fill:#CC6E44;}
	.st25{fill:#FDBC9B;}
	.st26{fill:none;stroke:#0759AA;stroke-width:0.75;stroke-miterlimit:10;}
	.st27{fill:#FFAC9D;}
	.st28{fill:none;stroke:#ED8E8E;stroke-width:0.75;stroke-miterlimit:10;}
	.st29{fill:none;stroke:#EFA987;stroke-width:0.4825;stroke-miterlimit:10;}
	.st30{fill:#090B0C;}
	.st31{fill:#3D5057;}
	.st32{fill:#EFA987;}
	.st33{fill:#171E21;}
	.st34{fill:#E49D7D;}
	.st35{fill:#2783F2;}
	.st36{fill:#E9B022;}
	.st37{fill:#F7C12E;}
</style>
<g>
	<g>
		<rect x="-9.1" class="st0" width="1907.3" height="898.2"/>
		<g>
			<g>
				<g>
					<g>
						<g>
							<path class="st1" d="M1059.6,467.4c0-179.5-197.8-325.1-441.9-325.1S175.9,287.9,175.9,467.4c0,102.4,64.4,193.8,165,253.3
								h553.8C995.2,661.2,1059.6,569.8,1059.6,467.4z"/>
						</g>
					</g>
					<g>
						<g>
							<path class="st2" d="M622.7,719.8h-29c-21.1,0-38.1-17.1-38.1-38.1v-21.8h105.3v21.8C660.8,702.7,643.7,719.8,622.7,719.8z"
								/>
							<path class="st3" d="M663.9,689.8H553.3c-15.8,0-28.7-12.8-28.7-28.7v-85.5h167.9v85.5C692.5,677,679.7,689.8,663.9,689.8z"
								/>
							<path class="st4" d="M693.1,628.3H522.9c-11.2,0-20.2-6.7-20.2-14.9l0,0c0-8.2,9.1-14.9,20.2-14.9h170.1
								c11.2,0,20.2,6.7,20.2,14.9v0C713.3,621.7,704.2,628.3,693.1,628.3z"/>
							<path class="st5" d="M591.1,628.3h-35.6c-11.2,0-20.2-6.7-20.2-14.9l0,0c0-8.2,9.1-14.9,20.2-14.9h35.6
								c11.2,0,20.2,6.7,20.2,14.9v0C611.3,621.7,602.3,628.3,591.1,628.3z"/>
							<path class="st4" d="M693.1,673.5H522.9c-11.2,0-20.2-6.7-20.2-14.9l0,0c0-8.2,9.1-14.9,20.2-14.9h170.1
								c11.2,0,20.2,6.7,20.2,14.9l0,0C713.3,666.8,704.2,673.5,693.1,673.5z"/>
							<path class="st5" d="M574.3,673.5h-2c-11.2,0-20.2-6.7-20.2-14.9l0,0c0-8.2,9.1-14.9,20.2-14.9h2c11.2,0,20.2,6.7,20.2,14.9
								v0C594.5,666.8,585.5,673.5,574.3,673.5z"/>
						</g>
						<g>
							<path class="st6" d="M847.5,371c0-89.7-106.9-162.4-238.8-162.4S369.9,281.4,369.9,371c0,53.7,38.4,101.4,97.5,130.9l0,0
								c0,0,27.7,11.2,30.8,41.6v21.8c0,10.3,12.2,18.6,27.3,18.6h166.6c15.1,0,27.3-8.3,27.3-18.6v-22
								c3.2-30.3,30.3-41.3,30.3-41.3l0,0C809,472.5,847.5,424.8,847.5,371z"/>
							<ellipse class="st7" cx="611.4" cy="386.3" rx="172.5" ry="126.9"/>
							<g>
								<path class="st8" d="M583.5,584V401c0-13.5-14.9-24.5-33.3-24.5l0,0c-18.4,0-33.3,11-33.3,24.5v13.7
									c0,13.5,14.9,24.5,33.3,24.5l57.5,0.1"/>
								<path class="st8" d="M632.5,584V401c0-13.5,14.9-24.5,33.3-24.5l0,0c18.4,0,33.3,11,33.3,24.5v13.7
									c0,13.5-14.9,24.5-33.3,24.5l-62,0.1"/>
							</g>
							<g>
								<path class="st9" d="M466.4,294.1c15.8-14.2,35.3-26.1,57.5-34.7"/>
								<path class="st10" d="M428.3,409.2c-2.6-9.1-3.9-18.5-3.9-28.2"/>
								<path class="st10" d="M798.5,381c0,12.9-2.4,25.4-6.9,37.2"/>
							</g>
						</g>
					</g>
					<g>
						<line class="st11" x1="36.1" y1="719.8" x2="1162.4" y2="719.8"/>
						<line class="st11" x1="223.3" y1="759.7" x2="536.3" y2="759.7"/>
					</g>
				</g>
				<g>
					<g>
						<path class="st12" d="M1181.3,518.4l-52.1,0.1c-3.5,0-6.3-2.1-6.3-4.6l0,0c0-2.5,2.8-4.6,6.3-4.6l52.1-0.1
							c3.5,0,6.3,2.1,6.3,4.6l0,0C1187.5,516.3,1184.7,518.4,1181.3,518.4z"/>
						<path class="st12" d="M248.5,209.8L142,209.9c-3.5,0-6.3-2.1-6.3-4.6l0,0c0-2.5,2.8-4.6,6.3-4.6l106.5-0.1
							c3.5,0,6.3,2.1,6.3,4.6l0,0C254.7,207.8,251.9,209.8,248.5,209.8z"/>
						<path class="st12" d="M1071.4,220.6l-11.3,0c-2.2,0-4.1-1.8-4.1-4l0-5.7c0-2.2,1.8-4.1,4.1-4.1l11.3,0c2.2,0,4.1,1.8,4.1,4
							l0,5.7C1075.4,218.8,1073.6,220.6,1071.4,220.6z"/>
						<path class="st12" d="M60.9,507.9l-11.3,0c-2.2,0-4.1-1.8-4.1-4l0-5.7c0-2.2,1.8-4.1,4.1-4.1l11.3,0c2.2,0,4.1,1.8,4.1,4
							l0,5.7C65,506,63.2,507.9,60.9,507.9z"/>
						<path class="st13" d="M304.7,435.3l-9.9,0c-2,0-3.6-1.6-3.6-3.6l0-5c0-2,1.6-3.6,3.6-3.6l9.9,0c2,0,3.6,1.6,3.6,3.6l0,5
							C308.2,433.7,306.7,435.3,304.7,435.3z"/>
						<path class="st13" d="M634.2,178.4h-51.9c-3.4,0-6.2-2-6.2-4.5l0,0c0-2.5,2.8-4.5,6.2-4.5h51.9c3.4,0,6.2,2,6.2,4.5l0,0
							C640.3,176.4,637.6,178.4,634.2,178.4z"/>
					</g>
					<g>
						<g>
							<g>
								<g>
									<path class="st14" d="M1133.7,363.5h-49.4c-6.6,0-11.9-3.9-11.9-8.8l0,0c0-4.8,5.3-8.8,11.9-8.8h49.4
										c6.6,0,11.9,3.9,11.9,8.8l0,0C1145.6,359.6,1140.3,363.5,1133.7,363.5z"/>
								</g>
								<g>
									<path class="st13" d="M1099,354.8c0,1.2-1.4,2.2-3,2.3c-1.7,0-3.1-1-3.1-2.2c0-1.2,1.4-2.2,3-2.3
										C1097.6,352.5,1099,353.5,1099,354.8z"/>
									<path class="st13" d="M1112.1,354.7c0,1.2-1.4,2.2-3,2.3c-1.7,0-3.1-1-3.1-2.2s1.4-2.2,3-2.3
										C1110.7,352.5,1112.1,353.5,1112.1,354.7z"/>
									<path class="st13" d="M1125.2,354.7c0,1.2-1.4,2.2-3,2.3c-1.7,0-3.1-1-3.1-2.2s1.4-2.2,3-2.3
										C1123.8,352.5,1125.2,353.5,1125.2,354.7z"/>
								</g>
							</g>
						</g>
						<g>
							<g>
								<ellipse class="st15" cx="209.6" cy="318.2" rx="43.8" ry="32.2"/>
							</g>
							<path class="st13" d="M224.5,309.9c-3.6-2.6-9.3-2.5-12.9,0.1l-2.3,1.7l-2.4-1.7c-3.6-2.6-9.3-2.6-12.9,0.1
								c-3.5,2.6-3.5,6.9,0.1,9.5l8.8,6.4c0,0,0,0,0,0c1.4,1,3.2,1.6,5,1.8c2.8,0.3,5.8-0.3,7.9-1.9l8.7-6.5
								C228.1,316.7,228.1,312.4,224.5,309.9z"/>
						</g>
						<g>
							<g>
								<g>
									<g>
										<path class="st16" d="M947.9,251.3h-86.7c-6.3,0-11.4-5.1-11.4-11.4v-49.6c0-4.9,4-8.9,8.9-8.9h89.2c4.9,0,8.9,4,8.9,8.9
											v52.1C956.8,247.3,952.8,251.3,947.9,251.3z"/>
									</g>
								</g>
							</g>
							<g>
								<g>
									<g>
										<path class="st17" d="M894.5,231.4c9.1,0.1,18.3,0.2,26.6-0.2c2.6-0.1,4.9-3.2,1.7-4.2c1.4-0.5,2.7-1,3.3-2.1
											c0.6-1.1-0.1-2.5-1.6-2.8c3.1,0.6,4.4-3.1,1.9-4.3c1.3-0.8,2.4-1.9,2.7-3.1c0.3-1.2-0.4-2.6-1.9-3.2
											c-1-0.4-2.2-0.4-3.3-0.4c-3.8,0-7.6,0-11.3-0.1c1-4.3,1.3-9.1-1.7-12.9c-0.9-1.2-3.3-2.5-5.3-1.6
											c-1.8,0.8-1.3,2.9-1.2,4.2c0.4,5.4-3.8,10.8-10.3,13.4C894.1,214,894.6,225.5,894.5,231.4z"/>
									</g>
								</g>
								<rect x="877.4" y="214" class="st17" width="13.7" height="17.4"/>
							</g>
						</g>
					</g>
				</g>
			</g>
			<g>
				<g>
					<g>
						<path class="st18" d="M1058.8,720.7c-1.8,0-3.4-0.8-4-2.1L937.8,482.5L820.9,718.7c-0.8,1.6-3.3,2.5-5.5,1.9
							c-2.2-0.6-3.4-2.4-2.6-4.1l120.9-244.3c0.6-1.2,2.2-2.1,4-2.1c1.8,0,3.4,0.8,4,2.1l120.9,244.3c0.8,1.6-0.3,3.5-2.6,4.1
							C1059.8,720.7,1059.3,720.7,1058.8,720.7z"/>
						<path class="st18" d="M951.8,504.6h-63.6c-2.4,0-4.3-1.4-4.3-3.2c0-1.7,1.9-3.2,4.3-3.2h63.6c2.4,0,4.3,1.4,4.3,3.2
							C956.1,503.2,954.2,504.6,951.8,504.6z"/>
						<path class="st18" d="M968.2,539.1h-60.7c-2.4,0-4.3-1.4-4.3-3.2s1.9-3.2,4.3-3.2h60.7c2.4,0,4.3,1.4,4.3,3.2
							S970.5,539.1,968.2,539.1z"/>
						<path class="st18" d="M900.8,539.1h-58.1c-2.3,0-4.1-1.4-4.1-3.2s1.8-3.2,4.1-3.2h58.1c2.3,0,4.1,1.4,4.1,3.2
							S903.1,539.1,900.8,539.1z"/>
						<path class="st18" d="M984.5,573.5h-60.7c-2.4,0-4.3-1.4-4.3-3.2c0-1.7,1.9-3.2,4.3-3.2h60.7c2.4,0,4.3,1.4,4.3,3.2
							C988.8,572.1,986.9,573.5,984.5,573.5z"/>
						<path class="st18" d="M888.1,573.5h-60.7c-2.4,0-4.3-1.4-4.3-3.2c0-1.7,1.9-3.2,4.3-3.2h60.7c2.4,0,4.3,1.4,4.3,3.2
							C892.4,572.1,890.5,573.5,888.1,573.5z"/>
						<path class="st18" d="M1000.9,608h-60.7c-2.4,0-4.3-1.4-4.3-3.2s1.9-3.2,4.3-3.2h60.7c2.4,0,4.3,1.4,4.3,3.2
							S1003.3,608,1000.9,608z"/>
						<path class="st18" d="M870.3,608h-60.7c-2.4,0-4.3-1.4-4.3-3.2s1.9-3.2,4.3-3.2h60.7c2.4,0,4.3,1.4,4.3,3.2
							S872.7,608,870.3,608z"/>
						<path class="st18" d="M1017.3,642.4h-60.7c-2.4,0-4.3-1.4-4.3-3.2c0-1.7,1.9-3.2,4.3-3.2h60.7c2.4,0,4.3,1.4,4.3,3.2
							C1021.6,641,1019.7,642.4,1017.3,642.4z"/>
						<path class="st18" d="M853.9,642.4h-60.7c-2.4,0-4.3-1.4-4.3-3.2c0-1.7,1.9-3.2,4.3-3.2h60.7c2.4,0,4.3,1.4,4.3,3.2
							C858.2,641,856.2,642.4,853.9,642.4z"/>
						<path class="st18" d="M1033.7,676.9H973c-2.4,0-4.3-1.4-4.3-3.2c0-1.7,1.9-3.2,4.3-3.2h60.7c2.4,0,4.3,1.4,4.3,3.2
							C1038,675.5,1036.1,676.9,1033.7,676.9z"/>
						<path class="st18" d="M837,676.9h-60.7c-2.4,0-4.3-1.4-4.3-3.2c0-1.7,1.9-3.2,4.3-3.2H837c2.4,0,4.3,1.4,4.3,3.2
							C841.3,675.5,839.4,676.9,837,676.9z"/>
						<path class="st18" d="M937.5,476.4h-63.6c-2.4,0-4.3-1.4-4.3-3.2c0-1.7,1.9-3.2,4.3-3.2h63.6c2.4,0,4.3,1.4,4.3,3.2
							C941.8,475,939.9,476.4,937.5,476.4z"/>
					</g>
					<g>
						<g>
							<g>
								<g>
									<polygon class="st19" points="956.6,624.7 958.6,599.4 977.1,601.2 973.4,627.8 955.8,625.5 									"/>
									<g>
										<path d="M976,621.3c0,0-12.4,4.7-19.3-2.3l-33.5,13.3l57.4-0.3L976,621.3z"/>
										<polygon class="st3" points="923.2,636.1 980.6,635.8 980.6,632 923.1,632.3 										"/>
									</g>
								</g>
								<path class="st20" d="M976.6,455.1c0,0-16.6,7.2-18.6,47.4c-2,40.2-5.4,107.8-5.4,107.8h27.9l14.4-131.1l-3.8-24.1H976.6z"
									/>
							</g>
							<g>
								<g>
									<polygon class="st19" points="1004.9,624.7 1003.1,599.4 1021.6,601.2 1021.7,627.8 1004,625.5 									"/>
									<g>
										<path d="M1024.3,621.3c0,0-12.4,4.7-19.3-2.3l-33.5,13.3l57.4-0.3L1024.3,621.3z"/>
										<polygon class="st3" points="971.4,636.1 1028.9,635.8 1028.8,632 971.4,632.3 										"/>
									</g>
								</g>
								<g>
									<path class="st20" d="M1014.4,460.4c0,0,16.8,14.3,14.3,39.3l-0.8,111l-31.8-0.6l-10.1-151.1L1014.4,460.4z"/>
									<polyline class="st21" points="990.1,524.6 988.3,492.4 976.3,480.1 									"/>
								</g>
							</g>
						</g>
						<g>
							<g>
								<g>
									<g>
										<path class="st19" d="M872.6,409.9l35.7,25c4.7,3.3,12.2,2.4,15.3-1.8l3.4-4.7l-48.3-25.8L872.6,409.9z"/>
										<g>
											<path class="st19" d="M879.6,406.4c-1.9,4.2-8,6.5-13.8,5.2c-5.7-1.4-8.9-5.9-7-10.1c1.9-4.2,8-6.5,13.8-5.2
												C878.3,397.7,881.4,402.2,879.6,406.4z"/>
											<path class="st19" d="M872,396.2l-10.1-4.6c-0.8-0.4-2-0.3-2.6,0.3l0,0c-0.5,0.5-0.4,1.2,0.2,1.6l9.5,6.2L872,396.2z"/>
										</g>
									</g>
									<path class="st19" d="M913.8,423.5l46-12.5l-2.2,16c0,0-24.8,7.9-40.4,9.7C901.7,438.5,913.8,423.5,913.8,423.5z"/>
								</g>
								<path class="st16" d="M971.9,410.4c0,0-4.2-4.8-15.1-1.5c-10.9,3.4-30.8,8.3-30.8,8.3l17.3,21.8l32.8-9L971.9,410.4z"/>
							</g>
							<g>
								<path class="st16" d="M1015.7,405.5l-24.3-1.7l-30.4,4.1c0,0-2,32.2,3.1,48.8c0.9,2.9,4.5,4.9,8.5,4.7l43.5,0.5
									c0,0,6-3.1,6.2-9.8l-3.1-43.9C1019,406.8,1017.6,405.7,1015.7,405.5z"/>
								<line class="st22" x1="959.5" y1="433.5" x2="958" y2="421.2"/>
							</g>
							<g>
								<path class="st15" d="M1090,482.3l-141.6-10.8c-3.2-0.2-5.5-2.3-5.2-4.6l1.7-12.6c0.3-2.3,3.1-4,6.3-3.8l141.6,10.8
									c3.2,0.2,5.5,2.3,5.2,4.6l-1.7,12.6C1096,480.8,1093.2,482.5,1090,482.3z"/>
								<g>
									<g>
										<path class="st19" d="M1050.6,460.9c-0.1-0.6,5.6-7.8,5.6-7.8l-15.9-24.2c-2.2-4.8-16-21.6-21.7-18.7
											c-4.2,2.1-1.4,20.9,0.8,24.3l16.9,23.7L1050.6,460.9z"/>
										<g>
											<path class="st16" d="M1013.3,405.3c0,0,14,0.8,19.4,7c6.9,7.9,18.8,20.8,18.8,20.8l-35.7,9.8L1013.3,405.3z"/>
											<line class="st22" x1="1020.6" y1="441.7" x2="1007.3" y2="424.8"/>
										</g>
									</g>
									<g>
										<g>
											<path class="st19" d="M1040.5,448.7l-39,20.7l6.2,6.7l42.2-13.5c6.6-2.1,8.5-8.3,3.8-12.3l0,0
												C1050.5,447.6,1044.9,446.9,1040.5,448.7z"/>
										</g>
										<g>
											<path class="st19" d="M1008.9,475.1c0,0-5.3,9.3-15.3,8.4c-11.6-1.1-12.6-7.8-7.3-9.2l7.8,0.4c0,0,0.1-3.7,5-5.3
												c1.1-0.4,2.5-0.6,4.2-0.7L1008.9,475.1z"/>
											<path class="st19" d="M1000.9,469l-10.8,1.4c-0.7,0.1-1.2,0.6-1.2,1.1l0,0c0,0.6,0.6,1.1,1.4,1.1l10.4,0.6L1000.9,469z"
												/>
										</g>
									</g>
								</g>
							</g>
						</g>
						<g>
							<path class="st23" d="M956.4,380.6c3.3-2,7.1-6.6,7.1-6.6l3.3-6.1l10.3,2.1l-5,7.5l-2.8,1.4l20.8,17.8
								c0,0-15.1,10.7-29.6,3.9C948.3,395,950.3,384.4,956.4,380.6z"/>
							<path class="st23" d="M1013.3,371.9c0,0,1.2,5.6,7.6,8.7c6.3,3.1,8.1,14.4-4.1,20.1c-14.5,6.8-29.6-3.9-29.6-3.9
								L1013.3,371.9z"/>
							<path class="st23" d="M972.3,361.8c0,0,29.3-9.3,39.2,5c5.9,8.4-1.1,23.1-15.5,27.3c-13.7,4-9.8-28.8-9.8-28.8L972.3,361.8z"
								/>
							<path class="st24" d="M976,382c0.3,2.7-2.4,5.1-6.1,5.3c-3.7,0.2-6.9-1.8-7.2-4.5c-0.3-2.7,2.4-5.1,6.1-5.3
								C972.4,377.3,975.7,379.3,976,382z"/>
							<path class="st19" d="M978.1,395.8l1.1,10.7c0.4,3.8,3.7,5.6,8.8,5.3l0,0c4.3-0.3,8.1-2.1,8.3-5.3l-2.9-16.8L978.1,395.8z"/>
							<polygon class="st24" points="978.9,403.5 995.7,392.2 977.9,394.7 							"/>
							<path class="st19" d="M982.6,397.4L982.6,397.4c-8.6,0.1-15.8-4.8-16.2-10l-0.7-12.2c-0.5-6.5,6.2-12,14.9-12.6l0,0
								c9-0.6,18.5,4.3,19.2,10.9l0.5,9.8C1000.6,391,992.8,396.8,982.6,397.4z"/>
							<path class="st23" d="M997.6,382.3c0,0-0.7-4.4-5.7-6.6c-5-2.2-18.7-5.3-17.3-13.1c0,0,21.3-4.6,29.1,5.6
								C1011.5,378.5,997.6,382.3,997.6,382.3z"/>
							<g>
								<path class="st19" d="M1008.5,382.4c0.3,2.7-2.4,5.1-6.1,5.3c-3.7,0.2-6.9-1.8-7.2-4.5c-0.3-2.7,2.4-5.1,6.1-5.3
									C1004.9,377.7,1008.2,379.7,1008.5,382.4z"/>
							</g>
							<path class="st23" d="M980.2,362.6c0,0-1.5,6.4-15.1,10.7c0,0-3.4-4.7,5.6-10.8c0.8-0.6,1.9-0.9,3.1-0.9l10.4,0L980.2,362.6z
								"/>
							<path class="st19" d="M1003.4,404.7l-13.5-1.1l-17.9,2.9c0,0,0.1,9.5,14.6,8.8C1001,414.7,1003.4,404.7,1003.4,404.7z"/>
						</g>
					</g>
					<path class="st16" d="M994.2,720.7c-1.8,0-3.4-0.8-4-2.1L873.3,482.5L756.4,718.7c-0.8,1.6-3.3,2.5-5.5,1.9
						c-2.2-0.6-3.4-2.4-2.6-4.1l120.9-244.3c0.6-1.2,2.2-2.1,4-2.1s3.4,0.8,4,2.1l120.9,244.3c0.8,1.6-0.3,3.5-2.6,4.1
						C995.2,720.7,994.7,720.7,994.2,720.7z"/>
				</g>
				<g>
					<g>
						<g>
							<polygon class="st25" points="214.7,677.8 212.3,703.8 196,703.3 196.5,676.9 							"/>
							<g>
								<g>
									<path d="M213.5,700.9l29.7,10c1.9,0.7,3,2.3,2.5,3.9l0,0h-52.4l1.9-14L213.5,700.9z"/>
									
										<rect x="192.3" y="714.8" transform="matrix(-1 -1.224647e-16 1.224647e-16 -1 438.7002 1433.7593)" class="st4" width="54" height="4.1"/>
								</g>
							</g>
						</g>
						<g>
							<polygon class="st25" points="161.6,677.8 159.2,703.8 142.9,703.3 143.4,676.9 							"/>
							<g>
								<g>
									<path d="M160.4,700.9l29.7,10c1.9,0.7,3,2.3,2.5,3.9l0,0h-52.4l1.9-14L160.4,700.9z"/>
									
										<rect x="139.2" y="714.8" transform="matrix(-1 -1.224647e-16 1.224647e-16 -1 332.4798 1433.7593)" class="st4" width="54" height="4.1"/>
								</g>
							</g>
						</g>
						<g>
							<polygon class="st15" points="205.3,555.5 142.7,559 134.4,688.3 168.7,688.3 179.8,590.8 194.6,632.5 189.6,689.9 
								218.8,690 228.8,626.5 							"/>
							<line class="st26" x1="193.8" y1="585.2" x2="179.8" y2="590.8"/>
						</g>
					</g>
					<g>
						<g>
							<polygon class="st27" points="204.5,516 204.1,528.7 213.8,528.8 213.1,515.2 							"/>
							<path class="st14" d="M205.1,494.5c0,0,15.7,6.8,13.4,28.6l-14.6-2.4L205.1,494.5z"/>
						</g>
						<g>
							<path class="st14" d="M173.5,487.3c-15.8,0-33.6,4-33.6,4l0.7,73.7l66.5-3.8l-0.7-64.5c0-1.1-0.9-2.2-2.2-2.7l-18.4-5.8
								C185.8,488.3,176.7,487.3,173.5,487.3z"/>
							<line class="st28" x1="206.6" y1="521.1" x2="206.6" y2="506.9"/>
						</g>
						<g>
							<g>
								<path class="st25" d="M147.8,516.2l-4.3,36.5c0,0-4.7,7.3-13.1-0.3c-8.4-7.6-1.2-37.4-1.2-37.4L147.8,516.2z"/>
								<g>
									<path class="st14" d="M150,523.9c0,0,5.4-31-6.2-32.6c-12-1.6-23.3,19.2-23.3,36.5L150,523.9z"/>
									<polyline class="st28" points="146.8,524.1 151.3,523.1 152.1,508.5 									"/>
								</g>
							</g>
							<g>
								<g>
									<path class="st25" d="M176.2,518.5c0,0,2.4-6.4,11.2-7.1c8.7-0.6,11.3,4.4,9.7,7.7c-1.6,3.3-7.3,8.7-16,6
										C172.4,522.4,176.2,518.5,176.2,518.5z"/>
									<path class="st25" d="M190.2,511.5c0,0,8.6,0.7,15,3c0.6,0.2,1,0.8,0.9,1.3l0,0c-0.1,0.7-1,1.2-2,1.1l-11.9-1.6
										L190.2,511.5z"/>
								</g>
								<g>
									<polygon class="st25" points="141.6,554.5 181.1,525.2 176.2,518.5 137.9,536.4 									"/>
									<line class="st29" x1="145.8" y1="532.7" x2="137.9" y2="536.4"/>
								</g>
							</g>
						</g>
						<g>
							<g>
								<path class="st30" d="M230,525.9l-16.6,36.2c-0.6,1.2-2.3,2-4,1.8l-40.3-3.9c-2.3-0.2-3.8-2-3-3.6l17.1-36.2
									c0.6-1.2,2.3-2,4-1.8l39.8,3.8C229.3,522.5,230.8,524.2,230,525.9z"/>
								<polygon class="st30" points="229.3,523.2 231.4,525.2 168.6,560.9 166.4,558.7 								"/>
								<path class="st31" d="M231.9,527.7l-16.6,36.2c-0.6,1.2-2.3,2-4,1.8l-40.3-3.9c-2.3-0.2-3.8-2-3-3.6l17.1-36.2
									c0.6-1.2,2.3-2,4-1.8l39.8,3.8C231.2,524.3,232.7,526,231.9,527.7z"/>
							</g>
							<path class="st25" d="M230,538.2l-3.8,7.5c-0.5,0.9-1.7,1.5-3,1.3l0,0c-3.9-0.4-6.3-3.2-5.2-6l1.1-2.5c0.9-2,3.4-3.3,6.3-3.2
								l2.1,0.1C229.4,535.5,230.7,536.9,230,538.2z"/>
						</g>
					</g>
					<g>
						<path class="st25" d="M188,476.4l-2,11.9c-0.7,4.2-4.4,6.1-9.8,5.6l0,0c-4.6-0.5-9.4-2.6-8.6-6.2L170,469L188,476.4z"/>
						<path class="st32" d="M186.2,487.3c0,0-18.2-4.9-16.7-16.8c0.5-3.6,18.6,5.4,18.6,5.4L186.2,487.3z"/>
						<path class="st25" d="M190.1,489.7l-7.8-2.7l-13.8,0.3l-8.1,0.8c0,0-3,8.9,17.5,9.4C194.2,498,190.1,489.7,190.1,489.7z"/>
						<g>
							<path class="st33" d="M198.9,461c0,0,15.8-8.7,8.6-16.7c-7.2-8-20.3-1.1-20.3-1.1L198.9,461z"/>
							<path class="st33" d="M186.2,441.1c0,0-44.5-4.6-24.9,20.7l5.1-10.3L186.2,441.1z"/>
							<path class="st33" d="M199.7,448c0,0,7.5,4.6-1.9,14.6l-2.5-12.8L199.7,448z"/>
							<path class="st34" d="M191.3,465.6c-0.4,2.8,2.2,5.3,5.8,5.6c3.6,0.3,6.9-1.7,7.4-4.4c0.4-2.8-2.2-5.3-5.8-5.6
								C195.1,460.9,191.8,462.9,191.3,465.6z"/>
							<path class="st25" d="M181.2,480.6L181.2,480.6c9.3,0.3,17.4-5,18-10.7l1.3-12.1c0.8-7.2-6.1-13.6-15.5-14.5l0,0
								c-9.7-0.9-20.2,4.3-21.4,11.7l-0.8,9.4C161.9,472.9,170.1,479.6,181.2,480.6z"/>
							<path class="st33" d="M200.5,454.9c0,0,0.6-3.2-7.8-3.9c-8.5-0.8-19.3-0.2-25.4,5.3l-0.1,8.7l-7.6-5.5l4-13l22.6-5.4
								l13.5,6.9L200.5,454.9z"/>
							<g>
								<path class="st25" d="M154.1,463.8c-0.4,2.7,2.1,5.2,5.7,5.5c3.6,0.3,6.9-1.6,7.3-4.4c0.4-2.7-2.1-5.2-5.7-5.5
									C157.8,459.2,154.6,461.1,154.1,463.8z"/>
							</g>
							<path class="st33" d="M192.9,443.6c0,0,2-3.8-5.1-5.9c-6.1-1.8-12.4-1-26,5.7L192.9,443.6z"/>
							<path class="st33" d="M197.6,475.2c0-0.8-0.7-1.5-1.6-1.8c-1.3-0.4-3.6-1-6.9-1.4c-4.1-0.5-10,0.5-13.2,1.1
								c-1.4,0.3-2.8-0.2-3.4-1.1c-2.1-3.1-6-10.4-3-18.8l-4.7,2.5l0.6,5.3c0,0,3.7,5.8-2.1,8.3c0,0-0.3,11.9,14.7,14.1
								c4.3,0.6,9.4,0.1,13.3-1.3C194.6,480.9,197.6,478.2,197.6,475.2z"/>
							<path class="st33" d="M167.7,458.9c0,0,9.9-1.7,6.1-8.8c-3.8-7.1-8.4,1.9-8.4,1.9L167.7,458.9z"/>
						</g>
					</g>
				</g>
				<g>
					<g>
						<g>
							<g>
								<polygon class="st25" points="297.7,724.6 313.6,706.1 332.2,713 313.1,734.6 298.1,729.6 								"/>
								<g>
									<g>
										<path d="M297.4,723.2c0,0,9.1,10.8,21.3,7.9l14,25.6l-49.1-26.1L297.4,723.2z"/>
										<polygon class="st4" points="329.6,759.8 280.5,733.7 283.6,730.5 332.7,756.6 										"/>
									</g>
								</g>
							</g>
							<g>
								<polygon class="st15" points="349.4,613.5 330.3,673.1 298.2,712.8 328.7,725.9 367.3,675.3 380.1,637.2 								"/>
								<polygon class="st35" points="328.8,727.1 295.9,712.7 305.3,701.2 338.2,716.5 								"/>
							</g>
						</g>
						<g>
							<g>
								<polygon class="st25" points="445,742.9 433,722.8 451.3,715.4 464.8,739.1 450.9,745.4 								"/>
								<g>
									<g>
										<path d="M443.2,742.2c0,0,17.3,0.5,20.8-8.5l36.6,5.8L444,754.4L443.2,742.2z"/>
										<polygon class="st4" points="502.4,743.2 445.5,758.4 443.7,754.8 500.6,739.5 										"/>
									</g>
								</g>
							</g>
							<g>
								<g>
									<path class="st15" d="M386.4,597.1v13.5l48.4,55l30.3,60.2l-29.6,8.7l-30.5-55.1l-57.8-54.8c0,0-19.4-18.5,3.9-34.7
										L386.4,597.1z"/>
									<line class="st26" x1="375.3" y1="651.4" x2="346.2" y2="623.7"/>
								</g>
								<polygon class="st35" points="467.3,725.3 432.9,735.7 426.3,723.2 461.6,713.3 								"/>
							</g>
						</g>
					</g>
					<g>
						<g>
							<g>
								<path class="st32" d="M389.8,548.4l22.5,12l27.1-25.5l8.4,3.4c0,0-10,25.2-23.4,37.9c-2.3,2.2-6.4,3-10,2
									c-7.3-2.1-20.8-7-37.6-17.5L389.8,548.4z"/>
								<path class="st36" d="M396.6,552l-17,20.8l-16.7-9.4c-6.8-3.9-8.4-10.9-3.7-16.2l0,0c5.3-6,16.3-7.7,23.8-3.2L396.6,552z"/>
							</g>
						</g>
						<path class="st37" d="M383,543.9l-26.5-6.7c0,0-22.8,15-5.5,52.8l35.4,7.2c0,0,2.7-10.5,3.3-22.7
							C403.3,560.5,383,543.9,383,543.9z"/>
						<g>
							<g>
								<path class="st16" d="M517,566.3h-72c-7.3,0-13.2-5.9-13.2-13.2V508c0-7.3,5.9-13.2,13.2-13.2h72c7.3,0,13.2,5.9,13.2,13.2
									v45.1C530.2,560.4,524.3,566.3,517,566.3z"/>
								<path class="st13" d="M499.8,527.9l-3.1-0.4c-0.4-1-0.9-2-1.6-2.8l1.8-1.9c0.7-0.7,0.6-1.6-0.3-2.2l-1.9-1.4
									c-0.8-0.6-2.1-0.7-3.1-0.2l-2.6,1.3c-1.2-0.5-2.5-0.9-3.9-1.2l-0.5-2.3c-0.2-0.8-1.2-1.4-2.3-1.5h-2.7
									c-1.2,0-2.2,0.6-2.4,1.5l-0.5,2.3c-1.4,0.3-2.7,0.7-3.9,1.2l-2.6-1.3c-0.9-0.5-2.2-0.4-3.1,0.2l-1.9,1.4
									c-0.8,0.6-0.9,1.6-0.3,2.2l1.8,1.9c-0.7,0.9-1.2,1.9-1.6,2.8l-3.1,0.4c-1.1,0.1-2,0.9-2,1.7v1.9c0,0.9,0.8,1.6,2,1.7
									l3.1,0.4c0.4,1,0.9,2,1.6,2.8l-1.8,1.9c-0.7,0.7-0.6,1.6,0.3,2.2l1.9,1.4c0.8,0.6,2.1,0.7,3.1,0.2l2.6-1.3
									c1.2,0.5,2.5,0.9,3.9,1.2l0.5,2.3c0.2,0.8,1.2,1.5,2.4,1.5h2.7c1.2,0,2.2-0.6,2.4-1.5l0.5-2.3c1.4-0.3,2.7-0.7,3.9-1.2
									l2.5,1.3c0.9,0.5,2.2,0.4,3.1-0.2l1.9-1.4c0.8-0.6,0.9-1.6,0.3-2.2l-1.8-1.9c0.7-0.9,1.2-1.8,1.6-2.8l3.1-0.4
									c1.1-0.1,2-0.9,2-1.7v-1.9C501.7,528.8,500.9,528,499.8,527.9z M481,535.8c-3.9,0-7.1-2.3-7.1-5.2c0-2.9,3.2-5.2,7.1-5.2
									c3.9,0,7.1,2.3,7.1,5.2c0,0,0,0,0,0C488.1,533.5,484.9,535.8,481,535.8z"/>
							</g>
							<g>
								<g>
									<g>
										<path class="st25" d="M383.8,555.5l19.5,17.4l33.1-21.4l7,4.8c0,0-18.2,22.5-35.5,32.4c-3,1.7-7.2,1.7-10.3,0.1
											c-6.3-3.4-17.8-10.5-30.5-23.8L383.8,555.5z"/>
										<path class="st25" d="M460.6,544.2c-0.5-0.4-1.2-0.4-1.8-0.1l-4.9,2.2c-0.1-0.1-0.3-0.1-0.4-0.2l5.1-3.8
											c0.6-0.5,0.6-1.2,0-1.6c-0.6-0.5-1.7-0.5-2.4,0l-5.7,3.7c-0.2-0.1-0.3-0.2-0.5-0.3l5.4-5.5c0.4-0.4,0.3-1-0.2-1.4
											c-0.6-0.4-1.6-0.4-2.2,0.1l-6.1,4.9l0,0c-0.2-0.1-0.4-0.2-0.6-0.3l3.4-4.5c0.4-0.5,0.2-1.1-0.5-1.4
											c-0.7-0.3-1.8-0.2-2.2,0.4l-3.5,4c0,0.1-1.2,2.1-2.7,4.4l-1-4c-0.1-0.4-0.5-0.7-1.1-0.8c-0.9-0.1-1.7,0.3-1.7,0.9
											c-0.2,2.5,0,10-0.5,10.5l7,4.8l13.5-8.2l3.6-2.5C461,545.2,461,544.6,460.6,544.2z"/>
									</g>
									<path class="st20" d="M389.5,560l-23.8,17.3l-13-12.2c-5.3-5-4.5-12.1,1.9-16.4l0,0c7.2-4.8,18.4-4,24.2,1.7L389.5,560z"/>
									<polyline class="st21" points="373.9,571.6 365.6,577.3 352.7,565.1 									"/>
									<line class="st21" x1="389.5" y1="560" x2="377" y2="549"/>
								</g>
							</g>
						</g>
					</g>
					<g>
						<path class="st33" d="M379.8,519.1l13.1-2.5c9,3.9,10.4,14.6,10.4,14.6h-22.8L379.8,519.1z"/>
						<polygon class="st25" points="384.3,526.3 377.2,541.8 357.9,536 368.6,512.8 						"/>
						<path class="st32" d="M380.1,535.4c0.1-0.3-3.6-9.6-3.6-9.6l8,2.7L380.1,535.4z"/>
						<g>
							<path class="st25" d="M390,494.1c0,0,10,1.2,10.5,10.5c0,0,0.3,6.7,0.6,16.3c0.2,5.1-6.1,9.2-12.9,8.1
								c-4.1-0.7-8.8-1.9-12.9-4.3l-5.8-4c-13.5-11.1-1.1-28.8,18.9-26.9C389,494,389.5,494.1,390,494.1z"/>
							<path class="st25" d="M399.4,514.2l4.6,3.2c0.6,0.4,0.3,1.2-0.6,1.3l-4.5,0.4L399.4,514.2z"/>
						</g>
						<path class="st33" d="M376.7,510.7c0,0-5.9-22.4,20.4-13.3c0,0-10.2-12.3-33.4-4.9c-4.9,1.6-9.9,5.9-10.8,9.8
							c-1.5,6.2,3.2,11.5,10.7,21.3l8.8-7.5C373,514.5,376.7,510.7,376.7,510.7z"/>
						<path class="st33" d="M368.2,504.1l5.3,9.3c33.7-7.8,18.4-19.4,18.4-19.4S364.6,488,368.2,504.1z"/>
						<polygon class="st33" points="385.2,508.5 380.4,513.7 374.5,507.7 						"/>
						<path class="st33" d="M387,495.2c0,0,11.6,1.4,13.2,7.3c0,0,9.1-6.9-9.7-9.8C379.3,491.1,387,495.2,387,495.2z"/>
						<path class="st33" d="M374.7,516c0,0-2.2,11.3-0.7,15.3l-28.3-1.1c0,0,5.2-7.3,5.6-13c0.3-4.5-2.7-14.6,6.6-21.5l4.7,13.4
							L374.7,516z"/>
						<g>
							<path class="st25" d="M367.3,513.8c-0.3,2.7,2.4,5.1,6.1,5.3s6.9-1.8,7.2-4.5c0.3-2.7-2.4-5.1-6.1-5.3
								C370.8,509.1,367.6,511.1,367.3,513.8z"/>
						</g>
						<path class="st25" d="M356.5,537.2c0,0,10.1,7.1,26.5,6.7l-11.6-10l-11.2-1.7L356.5,537.2z"/>
					</g>
				</g>
			</g>
		</g>
	</g>
</g>
</svg>
