<?xml version="1.0" encoding="utf-8"?>
<!-- Generator: Adobe Illustrator 24.0.2, SVG Export Plug-In . SVG Version: 6.00 Build 0)  -->
<svg version="1.1" id="Layer_1" xmlns="http://www.w3.org/2000/svg" xmlns:xlink="http://www.w3.org/1999/xlink" x="0px" y="0px"
	 viewBox="0 0 1900 1080" style="enable-background:new 0 0 1900 1080;" xml:space="preserve">
<style type="text/css">
	.st0{fill:#FFFFFF;}
	.st1{clip-path:url(#SVGID_2_);fill:url(#SVGID_3_);}
	.st2{clip-path:url(#SVGID_5_);}
	.st3{fill:url(#SVGID_6_);}
	.st4{fill:url(#SVGID_7_);}
	.st5{fill:#E6E6E6;}
	.st6{fill:#D5D3E0;}
	.st7{fill:url(#SVGID_8_);}
	.st8{fill:url(#SVGID_9_);}
	.st9{opacity:0.5;}
	.st10{fill:url(#SVGID_10_);}
	.st11{clip-path:url(#SVGID_12_);}
	.st12{fill:url(#SVGID_13_);}
	.st13{fill:#DDDBFC;}
	.st14{fill:#FE9601;}
	.st15{fill:#FEC70A;}
	.st16{clip-path:url(#SVGID_15_);}
	.st17{fill:url(#SVGID_16_);}
	.st18{fill:#F7327A;}
	.st19{clip-path:url(#SVGID_18_);}
	.st20{fill:#3B3283;}
	.st21{clip-path:url(#SVGID_20_);}
	.st22{fill:url(#SVGID_21_);}
	.st23{fill:url(#SVGID_22_);}
	.st24{fill:url(#SVGID_23_);}
	.st25{fill:url(#SVGID_24_);}
	.st26{fill:url(#SVGID_25_);}
	.st27{fill:#FB7F37;}
	.st28{fill:url(#SVGID_26_);}
	.st29{fill:url(#SVGID_27_);}
	.st30{fill:url(#SVGID_28_);}
	.st31{fill:#2B1E6E;}
	.st32{fill:#553D93;}
	.st33{fill:#E94F8F;}
	.st34{opacity:0.3;fill:url(#SVGID_29_);enable-background:new    ;}
	.st35{fill:url(#SVGID_30_);}
	.st36{opacity:0.3;fill:#FFFFFF;enable-background:new    ;}
	.st37{opacity:0.3;}
	.st38{clip-path:url(#SVGID_32_);fill:#DDDBFC;}
	.st39{clip-path:url(#SVGID_34_);fill:#DDDBFC;}
	.st40{clip-path:url(#SVGID_36_);fill:#DDDBFC;}
	.st41{clip-path:url(#SVGID_38_);fill:#DDDBFC;}
</style>
<g>
	<g>
		<rect class="st0" width="1900" height="1080"/>
	</g>
</g>
<g>
	<g>
		<defs>
			<rect id="SVGID_1_" x="-417.3" y="-4.3" width="2317.3" height="1046.9"/>
		</defs>
		<clipPath id="SVGID_2_">
			<use xlink:href="#SVGID_1_"  style="overflow:visible;"/>
		</clipPath>
		
			<linearGradient id="SVGID_3_" gradientUnits="userSpaceOnUse" x1="6866.8174" y1="522.2297" x2="23296.3926" y2="522.2297" gradientTransform="matrix(-0.1521 0 0 -1 2995.47 1080)">
			<stop  offset="0" style="stop-color:#553D93"/>
			<stop  offset="1" style="stop-color:#2B1E6E"/>
		</linearGradient>
		<path class="st1" d="M1030,119c-10.9,55.9,9.7,93.6-70,113c-84.8,20.6-151.9,29.4-223.8,71.4c-79.5,46.3-43.9,122.9-64.7,183.5
			c-22.7,66.4-104.2,78.9-196.8,85.8c-53.7,4-112.5,9-158.3,30c-61.8,28.4-61.7,74.3-64.8,120.3c-5.7,86.2-102,134.6-223.2,144.4
			c-90.1,7.3-182-2.7-271.8,6.3c-125.7,12.5-246,67.5-289.3,148.5c-43.3,80.9,8.2,184.3,124.5,218.8
			c61.9,18.4,132.2,16.6,199.8,14.5c512.2-15.8,1024.4-31.6,1536.6-47.5c74.1-2.3,152.8-5.6,212.9-35.1
			c59.7-29.3,363.9-65.9,380.9-114.5c62-176.8,4.4-363,10.8-544.7c5.5-157.9,33.8-391.5-9-546.7c-15.8-57.2-305.3-65.2-386.9-93.8
			c-90.5-31.8-230.7-5.2-316.6,23.5c-34.2,11.4-68,26.6-85.8,49.4C1097-5.7,1048.7,37.7,1037,85.2C1032.7,101.3,1031.2,113,1030,119
			z"/>
	</g>
</g>
<g>
	<g>
		<defs>
			<rect id="SVGID_4_" x="-756.1" y="110.1" width="1900" height="908.5"/>
		</defs>
		<clipPath id="SVGID_5_">
			<use xlink:href="#SVGID_4_"  style="overflow:visible;"/>
		</clipPath>
		<g class="st2">
			
				<linearGradient id="SVGID_6_" gradientUnits="userSpaceOnUse" x1="-662.9068" y1="500" x2="144.3932" y2="500" gradientTransform="matrix(1 0 0 -1 843.7068 1080)">
				<stop  offset="0" style="stop-color:#A1AEF8"/>
				<stop  offset="1" style="stop-color:#9097E7"/>
			</linearGradient>
			<path class="st3" d="M988.1,791.5H180.8v-400c0-12.7,10.3-23,23-23H965c12.7,0,23,10.3,23,23L988.1,791.5L988.1,791.5z"/>
			
				<linearGradient id="SVGID_7_" gradientUnits="userSpaceOnUse" x1="-345.5211" y1="392.4442" x2="-275.656" y2="304.2813" gradientTransform="matrix(1 0 0 -1 843.7068 1080)">
				<stop  offset="0" style="stop-color:#8D91F8"/>
				<stop  offset="1" style="stop-color:#817EE7"/>
			</linearGradient>
			<path class="st4" d="M969,839.6H199.8c-37.2,0-67.4-21.7-67.4-48.4c0-4.7,5.3-8.5,11.9-8.5h880.4c6.6,0,11.9,3.8,11.9,8.5
				C1036.5,817.9,1006.3,839.6,969,839.6z"/>
			<rect x="203.4" y="393.8" class="st0" width="762.1" height="388.9"/>
			<g>
				<rect x="284.3" y="552.5" class="st5" width="69.7" height="182.8"/>
				<rect x="401.2" y="509" class="st5" width="69.7" height="226.3"/>
				<rect x="508.2" y="509" class="st5" width="69.7" height="226.3"/>
				<rect x="814.8" y="479.8" class="st6" width="69.7" height="255.5"/>
				<rect x="713.2" y="519.9" class="st6" width="69.7" height="215.4"/>
				<rect x="607" y="564.8" class="st5" width="69.7" height="170.6"/>
			</g>
			<g>
				
					<linearGradient id="SVGID_8_" gradientUnits="userSpaceOnUse" x1="-226.8068" y1="429.1" x2="68.6932" y2="429.1" gradientTransform="matrix(1 0 0 -1 843.7068 1080)">
					<stop  offset="0" style="stop-color:#A1AEF8"/>
					<stop  offset="1" style="stop-color:#9097E7"/>
				</linearGradient>
				<path class="st7" d="M912.4,572.8c-30.6,40.2-69,77.7-113.4,111.6c-23.2,17.7-47.9,34.4-74.1,50H617.4l-0.5-0.6
					c54.7-19.1,106.9-42.6,154.8-70.4c47.9-27.8,91.6-59.9,128.7-96L912.4,572.8z"/>
				
					<linearGradient id="SVGID_9_" gradientUnits="userSpaceOnUse" x1="-2.4068" y1="497.95" x2="91.2932" y2="497.95" gradientTransform="matrix(1 0 0 -1 843.7068 1080)">
					<stop  offset="0" style="stop-color:#A1AEF8"/>
					<stop  offset="1" style="stop-color:#9097E7"/>
				</linearGradient>
				<polygon class="st8" points="935,543.7 841.3,585.6 884.9,592.8 907.7,620.4 				"/>
			</g>
			<g class="st9">
				<rect x="144.2" y="782.3" class="st0" width="859.7" height="3.8"/>
			</g>
			
				<linearGradient id="SVGID_10_" gradientUnits="userSpaceOnUse" x1="-333.5068" y1="698" x2="-185.1068" y2="698" gradientTransform="matrix(1 0 0 -1 843.7068 1080)">
				<stop  offset="0" style="stop-color:#8D91F8"/>
				<stop  offset="1" style="stop-color:#817EE7"/>
			</linearGradient>
			<path class="st10" d="M653.4,385.7h-138c-2.8,0-5.2-1.7-5.2-3.7l0,0c0-2,2.3-3.7,5.2-3.7h138c2.8,0,5.2,1.7,5.2,3.7l0,0
				C658.6,384,656.3,385.7,653.4,385.7z"/>
		</g>
	</g>
	<g>
		<defs>
			<rect id="SVGID_11_" x="-756.1" y="110.1" width="1900" height="908.5"/>
		</defs>
		<clipPath id="SVGID_12_">
			<use xlink:href="#SVGID_11_"  style="overflow:visible;"/>
		</clipPath>
		<g class="st11">
			
				<linearGradient id="SVGID_13_" gradientUnits="userSpaceOnUse" x1="-741.5352" y1="286.2521" x2="-678.299" y2="209.3431" gradientTransform="matrix(1 0 0 -1 843.7068 1080)">
				<stop  offset="0" style="stop-color:#E94F8F"/>
				<stop  offset="1" style="stop-color:#D80E6A"/>
			</linearGradient>
			<path class="st12" d="M283.6,834.5c-5.9-4.2-14.3-5.9-22.4-4.6l-31.5,5l4.4-41.3c0.7-6.2-6.2-11.5-14.8-11.5H63.4
				c-8.6,0-15.5,5.3-14.8,11.5L61,910.3l1.1,10.4c1.5,13.9,17.7,24.7,37.1,24.7h84.3c19.5,0,35.7-10.8,37.1-24.7l0.4-3.7l43.2-12.9
				c7.5-2.2,12.9-7,14.6-12.7l11.6-41C292.1,844.7,289.5,838.7,283.6,834.5z M254.7,887.9l-31.6,9.4l4.7-44l38.5-6.1L254.7,887.9z"
				/>
			<path class="st13" d="M142.7,714.9c7.9-11,17.2-22.2,17.4-34.6c0.1-8.6-4.6-17.3-13.3-23.2s-21.5-8.8-33.2-7s-22,8.4-25,16.7
				c-3.3,9.1,2,18.9,10.1,26.3c4.7,4.2,8.2,7.1,6.8,12.7c-1.4,5.5-5.2,10.6-7.5,15.9c-6.1,14.3-1.8,30.9,13.2,41.6
				c4.6,3.3,14.7,9.7,22,7.1c11.1-3.9,0.1-17.3-1.4-22.9C128.9,736.1,135.6,724.7,142.7,714.9z"/>
			<path class="st13" d="M180.6,757.6c-0.5-11.3,9.5-20.7,16.1-30.4c6.7-9.7,11.3-24.5-3-32.1c-14.9-7.8-32.4-0.2-38.2,10.8
				c-6.7,12.7-6.1,28-3.4,41.2c1.6,8.1,4.5,18.5,13.7,24.1c4.6,2.8,9.8,2.2,13.1-1.3C182.6,766.1,180.8,761.9,180.6,757.6z"/>
			<ellipse class="st14" cx="144.3" cy="869" rx="60.3" ry="43.2"/>
			<ellipse class="st15" cx="144.3" cy="869" rx="44.6" ry="32"/>
			<g>
				<path class="st0" d="M150.9,877.6c0-1.5-0.6-2.7-1.7-3.5c-1.1-0.9-3.1-1.7-5.8-2.4s-5.1-1.5-7.1-2.2s-3.7-1.6-5.1-2.5
					c-1.4-0.9-2.5-2.1-3.3-3.3c-0.8-1.3-1.2-2.8-1.2-4.6c0-3,1.4-5.5,4.1-7.5c2.7-1.9,6.3-3.1,10.8-3.4v-5.8h6v5.9
					c4.5,0.5,7.9,1.8,10.5,4c2.5,2.2,3.8,5.1,3.8,8.6H151c0-2.2-0.6-3.8-1.9-4.9c-1.2-1.1-2.9-1.6-5-1.6s-3.7,0.4-4.8,1.3
					c-1.1,0.8-1.7,2-1.7,3.5c0,1.4,0.6,2.5,1.7,3.3c1.1,0.8,3.2,1.7,6.2,2.5c3,0.9,5.5,1.7,7.4,2.5s3.6,1.6,4.9,2.6
					c1.3,1,2.4,2.1,3.1,3.3c0.7,1.2,1.1,2.7,1.1,4.3c0,3.1-1.3,5.6-4,7.5s-6.3,3-11,3.4v5.4h-6v-5.4c-5.2-0.4-9.2-1.7-12-3.9
					s-4.2-5.2-4.2-8.9h10.9c0,2.1,0.7,3.8,2.1,4.9c1.4,1.1,3.5,1.7,6.1,1.7c2.2,0,4-0.4,5.2-1.3C150.3,880.2,150.9,879,150.9,877.6z
					"/>
			</g>
			<path class="st13" d="M149.1,794.4H63.7c-2.7,0-4.9-1.6-4.9-3.5c0-2,2.2-3.5,4.9-3.5h85.4c2.7,0,4.9,1.6,4.9,3.5
				C154.1,792.8,151.9,794.4,149.1,794.4z"/>
		</g>
	</g>
	<g>
		<defs>
			<rect id="SVGID_14_" x="-756.1" y="110.1" width="1900" height="908.5"/>
		</defs>
		<clipPath id="SVGID_15_">
			<use xlink:href="#SVGID_14_"  style="overflow:visible;"/>
		</clipPath>
		<g class="st16">
			<g>
				
					<linearGradient id="SVGID_16_" gradientUnits="userSpaceOnUse" x1="-291.5662" y1="286.5024" x2="-188.4421" y2="277.2949" gradientTransform="matrix(1 0 0 -1 843.7068 1080)">
					<stop  offset="0" style="stop-color:#FBC733"/>
					<stop  offset="1" style="stop-color:#FB7F37"/>
				</linearGradient>
				<path class="st17" d="M797.1,793.4c0,10.7-6,20.3-15.8,27.4c-9.8,7-23.2,11.3-38.1,11.3H355.5v-11.2h15.3c1.3,0,2.5,0,3.8-0.1
					c9.1-0.6,17.3-3.6,23.4-7.9c6.9-5,11.2-11.9,11.2-19.5c0-14.3-15.2-26-34.6-27.4c-1.2-0.1-2.5-0.1-3.8-0.1h-15.3v-11.2h387.7
					C773,754.7,797.1,772,797.1,793.4z"/>
				<path class="st0" d="M609.6,793.4c0,7.6-4.3,14.5-11.2,19.5s-16.5,8.1-27.1,8.1H374.6v-0.1c9.1-0.6,17.3-3.6,23.4-7.9
					c1.6-1.1,3-2.4,4.3-3.7c1.1-1.1,2.1-2.3,2.9-3.5c2.2-3.2,3.6-6.7,3.9-10.5c0-0.6,0.1-1.2,0.1-1.8s0-1.2-0.1-1.8
					c-0.3-3.7-1.7-7.3-3.9-10.5c-0.9-1.2-1.8-2.4-2.9-3.5c-6.3-6.4-16.2-10.8-27.7-11.6V766h196.7
					C592.4,765.9,609.6,778.2,609.6,793.4z"/>
				<g>
					<g>
						<path class="st13" d="M572.3,777.6v3.5H405.2c-0.9-1.2-1.8-2.4-2.9-3.5H572.3z"/>
					</g>
					<g>
						<path class="st13" d="M572.3,791.6v3.5H409.1c0-0.6,0.1-1.2,0.1-1.8s0-1.2-0.1-1.8L572.3,791.6L572.3,791.6z"/>
					</g>
					<g>
						<path class="st13" d="M572.3,805.6v3.5h-170c1.1-1.1,2.1-2.3,2.9-3.5H572.3z"/>
					</g>
				</g>
			</g>
			<g>
				<g>
					<path class="st18" d="M884.1,869.1c0,10.7-6,20.3-15.8,27.4c-9.8,7-23.2,11.3-38.1,11.3H442.4v-11.2h15.3c1.3,0,2.5,0,3.8-0.1
						c9.1-0.6,17.3-3.6,23.4-7.9c6.9-5,11.2-11.9,11.2-19.5c0-14.3-15.2-26-34.6-27.4c-1.2-0.1-2.5-0.1-3.8-0.1h-15.3v-11.2h387.7
						C859.9,830.4,884.1,847.8,884.1,869.1z"/>
					<path class="st0" d="M863.7,869.1c0,7.6-4.3,14.5-11.2,19.5c-7,5-16.5,8.1-27.1,8.1H461.5v-0.1c9.1-0.6,17.3-3.6,23.4-7.9
						c6.9-5,11.2-11.9,11.2-19.5c0-14.3-15.2-26-34.6-27.4v-0.1h363.8C846.5,841.6,863.7,853.9,863.7,869.1z"/>
				</g>
				<g>
					<g>
						<path class="st13" d="M799.7,853.4v3.5H492.1c-0.9-1.2-1.8-2.4-2.9-3.5H799.7z"/>
					</g>
					<g>
						<path class="st13" d="M799.7,867.4v3.5H496.1c0-0.6,0.1-1.2,0.1-1.8s0-1.2-0.1-1.8L799.7,867.4L799.7,867.4z"/>
					</g>
					<g>
						<path class="st13" d="M799.7,881.4v3.5H489.2c1.1-1.1,2.1-2.3,2.9-3.5H799.7z"/>
					</g>
				</g>
			</g>
		</g>
	</g>
	<g>
		<defs>
			<rect id="SVGID_17_" x="-756.1" y="110.1" width="1900" height="908.5"/>
		</defs>
		<clipPath id="SVGID_18_">
			<use xlink:href="#SVGID_17_"  style="overflow:visible;"/>
		</clipPath>
		<g class="st19">
			<g>
				<path class="st0" d="M373.7,893.4c-6.7,0-12.2-3.9-12.2-8.8c0-4.8,5.5-8.8,12.2-8.8s12.2,3.9,12.2,8.8
					C385.9,889.5,380.4,893.4,373.7,893.4z M373.7,878.8c-4.5,0-8.1,2.6-8.1,5.8s3.7,5.8,8.1,5.8c4.5,0,8.1-2.6,8.1-5.8
					C381.8,881.4,378.2,878.8,373.7,878.8z"/>
			</g>
			<g>
				<path class="st20" d="M66.2,467.9c-6.7,0-12.2-3.9-12.2-8.8c0-4.8,5.5-8.8,12.2-8.8s12.2,3.9,12.2,8.8
					C78.4,463.9,72.9,467.9,66.2,467.9z M66.2,453.3c-4.5,0-8.1,2.6-8.1,5.8c0,3.2,3.7,5.8,8.1,5.8c4.5,0,8.1-2.6,8.1-5.8
					C74.3,455.9,70.7,453.3,66.2,453.3z"/>
			</g>
			<g>
				<path class="st20" d="M270.8,523.6c-6.7,0-12.2-3.9-12.2-8.8c0-4.8,5.5-8.8,12.2-8.8s12.2,3.9,12.2,8.8
					C283,519.7,277.5,523.6,270.8,523.6z M270.8,509c-4.5,0-8.1,2.6-8.1,5.8c0,3.2,3.7,5.8,8.1,5.8c4.5,0,8.1-2.6,8.1-5.8
					C278.9,511.7,275.2,509,270.8,509z"/>
			</g>
			<g>
				<path class="st0" d="M-76.6,788.9c-6.7,0-12.2-3.9-12.2-8.8c0-4.8,5.5-8.8,12.2-8.8s12.2,3.9,12.2,8.8S-69.9,788.9-76.6,788.9z
					 M-76.6,774.3c-4.5,0-8.1,2.6-8.1,5.8s3.7,5.8,8.1,5.8c4.5,0,8.1-2.6,8.1-5.8C-68.5,776.9-72.2,774.3-76.6,774.3z"/>
			</g>
			<g>
				<path class="st20" d="M596.8,336.9c-6.7,0-12.2-3.9-12.2-8.8c0-4.8,5.5-8.8,12.2-8.8s12.2,3.9,12.2,8.8S603.5,336.9,596.8,336.9
					z M596.8,322.3c-4.5,0-8.1,2.6-8.1,5.8c0,3.2,3.7,5.8,8.1,5.8c4.5,0,8.1-2.6,8.1-5.8C604.9,324.9,601.2,322.3,596.8,322.3z"/>
			</g>
			<g>
				<path class="st20" d="M234.6,297.1c-6.7,0-12.2-3.9-12.2-8.8c0-4.8,5.5-8.8,12.2-8.8s12.2,3.9,12.2,8.8S241.3,297.1,234.6,297.1
					z M234.6,282.5c-4.5,0-8.1,2.6-8.1,5.8c0,3.2,3.7,5.8,8.1,5.8c4.5,0,8.1-2.6,8.1-5.8C242.8,285.1,239.1,282.5,234.6,282.5z"/>
			</g>
			<g>
				<path class="st20" d="M1064.3,336.9c-6.7,0-12.2-3.9-12.2-8.8c0-4.8,5.5-8.8,12.2-8.8s12.2,3.9,12.2,8.8
					S1071,336.9,1064.3,336.9z M1064.3,322.3c-4.5,0-8.1,2.6-8.1,5.8c0,3.2,3.7,5.8,8.1,5.8c4.5,0,8.1-2.6,8.1-5.8
					S1068.8,322.3,1064.3,322.3z"/>
			</g>
			<g>
				<path class="st0" d="M604.9,973.2c-6.7,0-12.2-3.9-12.2-8.8c0-4.8,5.5-8.8,12.2-8.8s12.2,3.9,12.2,8.8
					C617.1,969.2,611.6,973.2,604.9,973.2z M604.9,958.6c-4.5,0-8.1,2.6-8.1,5.8s3.7,5.8,8.1,5.8c4.5,0,8.1-2.6,8.1-5.8
					C613,961.2,609.4,958.6,604.9,958.6z"/>
			</g>
			<g>
				<path class="st20" d="M1050,508.1c-6.7,0-12.2-3.9-12.2-8.8c0-4.8,5.5-8.8,12.2-8.8s12.2,3.9,12.2,8.8
					C1062.3,504.2,1056.8,508.1,1050,508.1z M1050,493.5c-4.5,0-8.1,2.6-8.1,5.8c0,3.2,3.7,5.8,8.1,5.8c4.5,0,8.1-2.6,8.1-5.8
					C1058.2,496.1,1054.5,493.5,1050,493.5z"/>
			</g>
		</g>
	</g>
	<g>
		<defs>
			<rect id="SVGID_19_" x="-756.1" y="110.1" width="1900" height="908.5"/>
		</defs>
		<clipPath id="SVGID_20_">
			<use xlink:href="#SVGID_19_"  style="overflow:visible;"/>
		</clipPath>
		<g class="st21">
			<g>
				
					<linearGradient id="SVGID_21_" gradientUnits="userSpaceOnUse" x1="139.0718" y1="565.7681" x2="136.0286" y2="510.9901" gradientTransform="matrix(1 0 0 -1 843.7068 1080)">
					<stop  offset="0" style="stop-color:#553D93"/>
					<stop  offset="1" style="stop-color:#2B1E6E"/>
				</linearGradient>
				<path class="st22" d="M990.6,498.9c10.8,0.8,21.3,2.9,30.4,7c24.9,11.2,36.6,33.8,39,54c2.7,22.5-16.7,40.5-19.5,62.3
					c-1,7.9,8.2,12.7,9.4,20.4c1.1,7.3-3.8,14.4-9.4,20.3c-6.3,6.7-14,13-17.5,20.6c-6.1,13.6,11.4,24.4,15.8,37.2
					c9.3,27.1-11.3,82.2-63.8,55.9c-17.1-8.6-25.8-23.2-34.8-36.2c-6.2-9-10.4-15.2-9.3-25.5c1.1-10.6,6.9-20.4,2.2-31.1
					c-6.6-14.8-30-29-19.8-45.7c2.9-4.7,8.2-8.5,11.5-13.1c10-13.6-12.8-22-19.1-32.4c-8.4-13.9-6.8-37.8-2.2-52.2
					C913.2,510.7,950.3,495.8,990.6,498.9z"/>
				<path class="st0" d="M980.7,673.2c-4.6,13.7-5.8,27.9-3.8,41.9c2.3,15.7,8.8,30.9,19,44.9c1,1.4,3.9,0,2.9-1.4
					c-18.5-25.5-24.1-55.4-15.3-83.4c4.2-13.4,13-26,16.5-39.5c3.7-14.1-1.6-26.8-9.1-39.8c-8.4-14.7-18.7-31.4-8.5-47
					c0.9-1.3-2-2.4-2.8-1c-18.6,28.4,23,54.8,18,83.5C995.1,645.9,985.4,659.1,980.7,673.2z"/>
			</g>
			<g>
				
					<linearGradient id="SVGID_22_" gradientUnits="userSpaceOnUse" x1="40.0991" y1="409.0806" x2="55.5801" y2="297.618" gradientTransform="matrix(1 0 0 -1 843.7068 1080)">
					<stop  offset="0" style="stop-color:#553D93"/>
					<stop  offset="1" style="stop-color:#2B1E6E"/>
				</linearGradient>
				<path class="st23" d="M864,621c38.7,6.3,80.3,33.8,97.2,56.3c11.7,15.5,12,32.1,10.7,48.9c-0.4,5.6-0.9,11.2-2,16.8
					c-2.4,11.9,1.5,22.3,11,32.5c9.6,10.4,16.3,22.4,11.6,35.5c-4.8,13.3-19.5,23.7-40.3,20.4c-10.3-1.7-17.5-7.2-24.5-12.7
					c-27.1-21.3-11.4-56.1-37.2-76.4c-13.8-10.8-35.6-9.8-52.2-17.2c-33.1-14.8-58-49.8-42-76.9C811.3,622.6,837,616.6,864,621z"/>
				<path class="st0" d="M928.8,708.3c14.1,8.7,19.7,20,20.3,33.1c0.5,11.5-1.7,23,1.4,34.3c2.8,10.1,9.4,19.7,22.7,24.5
					c1.7,0.6,2.8-1.4,1.1-2c-17.4-6.3-22.1-21.4-22.6-34.2c-0.5-13.6,2.9-27.8-4.1-40.8c-6.5-12.3-21.9-19.7-36.4-26.8
					c-16.4-8.1-35.4-19-33.5-34.9c0.2-1.4-2.7-1.6-2.9-0.3C871.3,684.8,908.3,695.6,928.8,708.3z"/>
			</g>
			<g>
				
					<linearGradient id="SVGID_23_" gradientUnits="userSpaceOnUse" x1="191.3324" y1="423.3759" x2="213.4373" y2="372.8504" gradientTransform="matrix(1 0 0 -1 843.7068 1080)">
					<stop  offset="0" style="stop-color:#553D93"/>
					<stop  offset="1" style="stop-color:#2B1E6E"/>
				</linearGradient>
				<path class="st24" d="M1093.8,587.2c32.8,4.9,52.3,52.9,42.5,74.5c-5,10.9-8,23.3-15.9,33.3c-12.5,15.8-35.3,25.8-51,39.8
					c-15.7,13.9-33.4,25.7-45.2,41.8c-6.8,9.3-19.7,18.9-36.8,14.3c-12.4-3.3-14.2-19.7-14.4-27.6c-0.3-11.6,6.7-22.7,15.1-32.4
					c7.6-8.8,15.6-12.5,20.4-22.5c5.4-11.2,8.7-22.9,10.2-34.7c1.9-14.8-3.7-28,6.9-41.5c10.2-13,22.4-27.7,38.1-37.6
					C1074.6,587.8,1084.7,585.8,1093.8,587.2z"/>
				<path class="st0" d="M1062,690.4c0.8,13.3-6.7,24-19.6,33.3c-11.3,8.1-24.5,14.9-33.8,24.3c-8.3,8.4-13.5,18.4-9.3,28.7
					c0.5,1.3,3.3,0.5,2.8-0.8c-5.5-13.4,6.5-26.2,19.2-35.3c13.4-9.6,30.1-17.5,38.6-30.1c8-11.8,4.9-24.9,2.3-37.4
					c-3-14.1-5-31.5,12.4-41.4c1.5-0.8-0.2-2.6-1.7-1.7C1046.4,644.3,1060.9,671,1062,690.4z"/>
			</g>
			
				<linearGradient id="SVGID_24_" gradientUnits="userSpaceOnUse" x1="40.5841" y1="245.6" x2="209.1024" y2="245.6" gradientTransform="matrix(1 0 0 -1 843.7068 1080)">
				<stop  offset="0" style="stop-color:#FBC733"/>
				<stop  offset="1" style="stop-color:#FB7F37"/>
			</linearGradient>
			<path class="st25" d="M1010.8,897.4h-84.6c-10,0-18.4-4.6-19.7-10.7l-22.1-106.3c-1-4.8,5-9,12.8-9h142.7c7.8,0,13.8,4.2,12.8,9
				l-22.1,106.3C1029.2,892.8,1020.8,897.4,1010.8,897.4z"/>
			<g>
				<rect x="887.1" y="791.3" class="st0" width="162" height="4.4"/>
			</g>
		</g>
	</g>
</g>
<g>
	
		<linearGradient id="SVGID_25_" gradientUnits="userSpaceOnUse" x1="-2669.2024" y1="-2575.7417" x2="-2657.7104" y2="-2809.408" gradientTransform="matrix(0.7071 0.7071 0.7071 -0.7071 4216.5552 626.5995)">
		<stop  offset="0" style="stop-color:#FBC733"/>
		<stop  offset="1" style="stop-color:#F9DF9B"/>
	</linearGradient>
	<path class="st26" d="M456.7,549.8l-35.5,12.6C386.7,574.7,359,595,342.6,620l-42.3,64.4c-2.1,3.1,1.1,6.8,5.9,6.8l9,0.1
		c13.1,0.1,19.9,11.2,11.1,18.2l-21.6,17.1c-3.9,3.1-0.8,8,5,8l21.6-0.1c42.8-0.2,84.8-8,122.4-22.7l8.8-3.4
		c36.1-14.1,63.9-37,78.3-64.6l13.4-25.8L456.7,549.8z"/>
	<path class="st27" d="M484.2,569l-21.6,8.7c-26.9,10.8-48,27.7-60.1,48c-7.3,12.2-11.7,25.2-13.1,38.5l-1.6,14.9l17.7-1.9
		c20.9-2.3,41-7.3,59.4-14.9l5.3-2.2c19.6-8.1,36.2-19.5,48.4-33.2l18.5-21L484.2,569z"/>
	<g>
		
			<linearGradient id="SVGID_26_" gradientUnits="userSpaceOnUse" x1="-2756.0464" y1="-2529.1553" x2="-2737.1377" y2="-2660.2551" gradientTransform="matrix(0.7071 0.7071 0.7071 -0.7071 4216.5552 626.5995)">
			<stop  offset="0" style="stop-color:#553D93"/>
			<stop  offset="1" style="stop-color:#2B1E6E"/>
		</linearGradient>
		<path class="st28" d="M555.6,441.6l-54,9.8c-16,2.9-30.6,8.9-42.1,17.4l-87.9,64.7c-4.9,3.6-2.3,9.6,4.5,10.6l77.6,11.4
			L555.6,441.6z"/>
		
			<linearGradient id="SVGID_27_" gradientUnits="userSpaceOnUse" x1="-2557.8721" y1="-2498.1475" x2="-2539.8877" y2="-2614.4478" gradientTransform="matrix(0.7071 0.7071 0.7071 -0.7071 4216.5552 626.5995)">
			<stop  offset="0" style="stop-color:#553D93"/>
			<stop  offset="1" style="stop-color:#2B1E6E"/>
		</linearGradient>
		<path class="st29" d="M708.3,548.2l-12.2,38.9c-3.6,11.6-11.6,22.2-23.2,30.7L585,682.5c-4.9,3.6-13.3,1.9-14.9-3l-17.9-55.4
			L708.3,548.2z"/>
	</g>
	
		<linearGradient id="SVGID_28_" gradientUnits="userSpaceOnUse" x1="-2665.7932" y1="-2252.7341" x2="-2599.7754" y2="-2494.8003" gradientTransform="matrix(0.7071 0.7071 0.7071 -0.7071 4216.5552 626.5995)">
		<stop  offset="0" style="stop-color:#A1AEF8"/>
		<stop  offset="1" style="stop-color:#9097E7"/>
	</linearGradient>
	<path class="st30" d="M673.7,580.9c-10.7,7.9-24.3,13.3-39.3,15.5l-29,4.3c-5.3,0.8-10.1,2.7-13.9,5.5L570.2,622
		c-5.7,4.2-15,4.3-20.8,0.2l-92.6-64.7c-5.8-4.1-6-10.7-0.3-14.9l21.3-15.8c3.7-2.7,6.2-6.2,7.2-10l5.4-20.9
		c2.8-10.8,9.9-20.7,20.6-28.6l125.2-92.2c21.4-15.8,47.5-27.9,76.3-35.4l63.1-16.5l67.5-17.4c16.5-4.3,32.8,0.4,41.8,9.1
		c6.6,6.4,9.2,14.9,5.2,23.7l-22.5,48.9l-21.4,45.8c-9.8,20.8-25.9,39.9-47.3,55.6L673.7,580.9z"/>
	<g>
		<ellipse class="st0" cx="667.8" cy="468.7" rx="33.5" ry="24"/>
		<path class="st31" d="M667.8,496.8c-10.3,0-20-2.8-27.3-8c-7.5-5.2-11.7-12.3-11.8-19.8s3.8-14.6,11.1-20s17.1-8.4,27.6-8.5
			c10.6-0.1,20.4,2.7,27.9,8c7.5,5.2,11.7,12.3,11.8,19.8s-3.8,14.6-11.1,20s-17.1,8.4-27.6,8.5C668.2,496.8,668,496.8,667.8,496.8z
			 M667.8,448.8c-0.1,0-0.3,0-0.4,0c-7.4,0.1-14.4,2.2-19.6,6c-5.2,3.8-8,8.9-7.9,14.2c0.1,5.3,3.1,10.3,8.4,14
			c5.3,3.7,12.2,5.7,19.8,5.7c7.4-0.1,14.4-2.2,19.6-6c5.2-3.8,8-8.9,7.9-14.2c-0.1-5.3-3.1-10.3-8.4-14
			C682,450.8,675.1,448.8,667.8,448.8z"/>
	</g>
	<g>
		<ellipse class="st0" cx="742.2" cy="415.4" rx="43.5" ry="31.2"/>
		<path class="st31" d="M742.2,450.7c-12.4,0-24.8-3.3-34.3-10c-19.4-13.6-19.9-36-0.9-49.9c18.9-13.9,50.1-14.2,69.6-0.7
			c19.4,13.6,19.9,36,0.9,49.9C767.8,447.1,755,450.7,742.2,450.7z M742.2,388.3c-9.9,0-19.7,2.7-27.1,8.2
			c-14.6,10.7-14.2,27.9,0.7,38.4c14.9,10.4,39,10.2,53.5-0.5c14.6-10.7,14.2-27.9-0.7-38.4C761.2,390.8,751.7,388.3,742.2,388.3z"
			/>
	</g>
	<path class="st32" d="M867.6,387.4c-20.1-5.3-39.1-13.7-55.5-25.2c-16.4-11.4-28.6-24.8-36.6-39.1l67.5-17.4
		c28.6-7.4,56.6,12.1,47,32.8L867.6,387.4z"/>
	<g>
		<polygon class="st32" points="882,312.5 879.6,310.8 896.2,298.5 898.6,300.2 		"/>
	</g>
	<ellipse class="st33" cx="908.5" cy="291.2" rx="15.9" ry="11.4"/>
	
		<linearGradient id="SVGID_29_" gradientUnits="userSpaceOnUse" x1="-2635.6191" y1="-2309.9233" x2="-2592.8394" y2="-2586.5667" gradientTransform="matrix(0.7071 0.7071 0.7071 -0.7071 4216.5552 626.5995)">
		<stop  offset="0" style="stop-color:#553D93"/>
		<stop  offset="1" style="stop-color:#2B1E6E"/>
	</linearGradient>
	<path class="st34" d="M673.7,580.9c-10.7,7.9-24.3,13.3-39.3,15.5l-29,4.3c-5.3,0.8-10.1,2.7-13.9,5.5L570.2,622
		c-5.7,4.2-15,4.3-20.8,0.2l-92.6-64.7c-5.8-4.1-6-10.7-0.3-14.9l21.3-15.8c3.7-2.7,6.2-6.2,7.2-10l27.4,14.9
		c30.1,16.4,68.6,22.6,105.5,17.1c32.7-4.9,62.6-16.5,86.2-33.4l1.7-1.2c62.1-44.5,112.1-97,147.3-154.7l31.8-44.6
		c6.6,6.4,9.2,14.9,5.2,23.7l-22.5,48.9l-21.4,45.8c-9.8,20.8-25.9,39.9-47.3,55.6L673.7,580.9z"/>
	
		<linearGradient id="SVGID_30_" gradientUnits="userSpaceOnUse" x1="-2657.1628" y1="-2511.3745" x2="-2632.303" y2="-2595.4243" gradientTransform="matrix(0.7071 0.7071 0.7071 -0.7071 4216.5552 626.5995)">
		<stop  offset="0" style="stop-color:#553D93"/>
		<stop  offset="1" style="stop-color:#2B1E6E"/>
	</linearGradient>
	<path class="st35" d="M606.6,508.3l-48.8,9.9c-5.3,1.1-10,3.3-13.4,6.3l-66.7,59c-4,3.5-3.6,8.7,1,11.8l16.5,11.5
		c4.5,3.2,11.7,3.3,16.5,0.4l80.4-49.4c4.2-2.6,7.1-6,8.5-9.8l12.5-35.2C614.1,510.1,610.5,507.6,606.6,508.3z"/>
	<path class="st36" d="M578.1,436.6c-2.5-1.8-2.5-4.6,0-6.4l63.9-45.8c2.5-1.8,6.4-1.8,8.9,0s2.5,4.6,0,6.4L587,436.6
		C584.6,438.3,580.6,438.3,578.1,436.6z"/>
	<g class="st37">
		<path class="st0" d="M664.1,375.8c-0.2-0.2-0.4-0.3-0.6-0.5c-2.3-2.2-1.7-5.3,1.3-6.9c6.1-3.3,12.4-6.4,18.7-9.4
			c1.9-0.9,3.8-1.7,5.7-2.6c3.2-1.4,7.5-0.7,9.4,1.6c2,2.3,1,5.4-2.3,6.8c-1.8,0.8-3.7,1.6-5.5,2.5c-6.1,2.8-12.1,5.8-17.9,8.9
			C670.3,377.7,666.5,377.5,664.1,375.8z"/>
	</g>
	<g>
		<g>
			<defs>
				<ellipse id="SVGID_31_" cx="742.2" cy="415.4" rx="37.6" ry="26.9"/>
			</defs>
			<clipPath id="SVGID_32_">
				<use xlink:href="#SVGID_31_"  style="overflow:visible;"/>
			</clipPath>
			<polygon class="st38" points="703.3,392.9 778.9,392.7 791.1,408.5 690,409.7 			"/>
		</g>
		<g>
			<defs>
				<ellipse id="SVGID_33_" cx="742.2" cy="415.4" rx="37.6" ry="26.9"/>
			</defs>
			<clipPath id="SVGID_34_">
				<use xlink:href="#SVGID_33_"  style="overflow:visible;"/>
			</clipPath>
			<path class="st39" d="M690.5,414.2c1.2-0.3,4.1-0.1,5.3-0.1c9.7-0.2,19.3-0.4,29-0.6c16.1-0.3,32.1-0.6,48.2-1
				c5.8-0.1,11.9-0.8,17.7-0.7c7.5,0.2,4.9,5.7,1.8,8.6c-4.3,4-9.3,3.4-17.1,3.6c-16.3,0.4-32.5,0.8-48.8,1.2
				c-6.1,0.2-12.1,0.3-18.2,0.5c-4.7,0.1-12,0.9-16.1,0.1C686.3,424.7,682.4,416.4,690.5,414.2z"/>
		</g>
	</g>
	<g>
		<g>
			<defs>
				<path id="SVGID_35_" d="M688.6,481.9c-10.2,8.2-27.7,9-39.2,1.7s-12.6-19.9-2.4-28.1c10.2-8.2,27.7-9,39.2-1.7
					C697.7,461.1,698.8,473.7,688.6,481.9z"/>
			</defs>
			<clipPath id="SVGID_36_">
				<use xlink:href="#SVGID_35_"  style="overflow:visible;"/>
			</clipPath>
			<polygon class="st40" points="628.9,446.2 704.5,446.1 716.7,461.8 615.6,463.1 			"/>
		</g>
		<g>
			<defs>
				<path id="SVGID_37_" d="M688.6,481.9c-10.2,8.2-27.7,9-39.2,1.7s-12.6-19.9-2.4-28.1c10.2-8.2,27.7-9,39.2-1.7
					C697.7,461.1,698.8,473.7,688.6,481.9z"/>
			</defs>
			<clipPath id="SVGID_38_">
				<use xlink:href="#SVGID_37_"  style="overflow:visible;"/>
			</clipPath>
			<path class="st41" d="M616.1,467.5c1.2-0.3,4.1-0.1,5.3-0.1c9.7-0.2,19.3-0.4,29-0.6c16.1-0.3,32.1-0.6,48.2-1
				c5.8-0.1,11.9-0.8,17.7-0.7c7.5,0.2,4.9,5.7,1.8,8.6c-4.3,4-9.3,3.4-17.1,3.6c-16.3,0.4-32.5,0.8-48.8,1.2
				c-6.1,0.2-12.1,0.3-18.2,0.5c-4.7,0.1-12,0.9-16.1,0.1C612,478,608,469.7,616.1,467.5z"/>
		</g>
	</g>
</g>
</svg>
