<?xml version="1.0" encoding="utf-8"?>
<!-- Generator: Adobe Illustrator 24.0.2, SVG Export Plug-In . SVG Version: 6.00 Build 0)  -->
<svg version="1.1" xmlns="http://www.w3.org/2000/svg" xmlns:xlink="http://www.w3.org/1999/xlink" x="0px" y="0px"
	 viewBox="0 0 1900 900" style="enable-background:new 0 0 1900 900;" xml:space="preserve">
<style type="text/css">
	.st0{fill:#F9FBFC;}
	.st1{fill:#152244;}
	.st2{fill:#FFD04F;}
	.st3{fill:#FEFEFE;}
	.st4{fill:none;stroke:#FEFEFE;stroke-width:0.5;stroke-miterlimit:10;}
	.st5{fill:#B77649;}
	.st6{fill:#F8B1E4;}
	.st7{fill:#F8A4E0;}
	.st8{fill:#353460;}
	.st9{fill:#9DA1F1;}
	.st10{fill:#8E93F1;}
	.st11{fill:#CCD7F0;}
	.st12{fill:#470CA7;}
	.st13{fill:#653CE9;}
	.st14{fill:#5232E2;}
	.st15{fill:#5852F9;}
	.st16{fill:#7278D8;}
	.st17{fill:#470CA7;stroke:#470CA7;stroke-width:0.75;stroke-miterlimit:10;}
	.st18{fill:none;stroke:#FDFDFD;stroke-width:0.75;stroke-miterlimit:10;}
	.st19{fill:none;stroke:#5232E2;stroke-miterlimit:10;}
	.st20{fill:none;stroke:#FEFEFE;stroke-width:2;stroke-miterlimit:10;}
	.st21{fill:#6233F9;}
	.st22{fill:#E5A8A1;}
	.st23{fill:#E58277;}
</style>
<g id="Layer_1">
	<g>
		<polygon class="st0" points="1900,899.2 1548.3,899.2 151.2,825.5 0,563.4 0,0 1900,0 		"/>
		<g>
			<g>
				<path class="st1" d="M1484.5,766.7c-14.4-4.5-30.2-6.4-45.8-8.3c-54.5-6.7-173.7-7.1-194.5-15.7c-44.2-18.3,2.2-71.5,30.3-101.6
					c33.7-36.1,161.7-156.8,230.1-213.7c-10.8-8.3-21.6-16.6-32.3-25c-67.7,54.2-155.3,102-185.4,121.7
					c-53.2,34.8-106.6,59.8-181,56.7c-72-3-135.4-32.3-203.8-45.3c-67.6-12.9-140.1-8.5-207.7,4.5
					C513.3,574.6,362.7,654.9,170,592.4c-29.3-9.5-57.5-21.5-89-26.6c-20-3.2-54.5-5.9-81-2.4v335.8h1548.3c3.6-7.9,7-15.9,9.9-23.7
					C1573.4,834.4,1541.2,784.3,1484.5,766.7z"/>
				<path class="st2" d="M746.7,689.6c7.3-5.2,84.5-50.6,84.5-50.6s-63.8,54.9-71.2,60.1c-7.3,5.2-16.3,7.3-20,4.7
					C736.4,701.2,739.4,694.9,746.7,689.6z"/>
				<path class="st2" d="M134.4,716.9c3.6-2.5,41.1-24.6,41.1-24.6s-31,26.7-34.6,29.2c-3.6,2.5-7.9,3.6-9.7,2.3
					C129.4,722.5,130.9,719.4,134.4,716.9z"/>
				<path class="st2" d="M491.7,859.5c3.6-2.5,41.1-24.6,41.1-24.6s-31,26.7-34.6,29.2c-3.6,2.5-7.9,3.6-9.7,2.3
					C486.7,865.1,488.1,862,491.7,859.5z"/>
				<path class="st2" d="M1140.5,848.1c3.6-2.5,41.1-24.6,41.1-24.6s-31,26.7-34.6,29.2c-3.6,2.5-7.9,3.6-9.7,2.3
					C1135.5,853.8,1136.9,850.7,1140.5,848.1z"/>
				<polygon class="st3" points="64.6,618 68.6,628.8 83.7,631.6 68.6,634.4 64.6,645.2 60.7,634.4 45.5,631.6 60.7,628.8 				"/>
				<path class="st3" d="M75.1,797.7c0,1.8-2.1,3.3-4.7,3.3c-2.6,0-4.7-1.5-4.7-3.3s2.1-3.3,4.7-3.3C73,794.4,75.1,795.9,75.1,797.7
					z"/>
				<path class="st3" d="M293.6,688.9c0,1.8-2.1,3.3-4.7,3.3c-2.6,0-4.7-1.5-4.7-3.3c0-1.8,2.1-3.3,4.7-3.3
					C291.5,685.6,293.6,687.1,293.6,688.9z"/>
				<path class="st3" d="M177.9,645.2c0,0.9-1.1,1.7-2.3,1.7c-1.3,0-2.3-0.7-2.3-1.7c0-0.9,1.1-1.7,2.3-1.7
					C176.8,643.5,177.9,644.3,177.9,645.2z"/>
				<path class="st3" d="M141.9,865.4c0,0.9-1.1,1.7-2.3,1.7c-1.3,0-2.3-0.7-2.3-1.7c0-0.9,1.1-1.7,2.3-1.7
					C140.8,863.7,141.9,864.4,141.9,865.4z"/>
				<path class="st3" d="M65.7,864.5c0,0.5-0.5,0.8-1.2,0.8c-0.6,0-1.2-0.4-1.2-0.8c0-0.5,0.5-0.8,1.2-0.8
					C65.1,863.7,65.7,864.1,65.7,864.5z"/>
				<path class="st3" d="M381.1,658.5c0,0.5-0.5,0.8-1.2,0.8c-0.6,0-1.2-0.4-1.2-0.8s0.5-0.8,1.2-0.8
					C380.6,657.6,381.1,658,381.1,658.5z"/>
				<g>
					<path class="st3" d="M576.9,868.7c0,0.5-0.5,0.8-1.2,0.8c-0.6,0-1.2-0.4-1.2-0.8s0.5-0.8,1.2-0.8
						C576.3,867.9,576.9,868.2,576.9,868.7z"/>
					<path class="st3" d="M642.5,825.5c0,0.5-0.5,0.8-1.2,0.8s-1.2-0.4-1.2-0.8c0-0.5,0.5-0.8,1.2-0.8S642.5,825.1,642.5,825.5z"/>
					<path class="st3" d="M570.8,797.7c0,0.5-0.5,0.8-1.2,0.8s-1.2-0.4-1.2-0.8s0.5-0.8,1.2-0.8S570.8,797.3,570.8,797.7z"/>
				</g>
				<g>
					<path class="st3" d="M625.2,635.5c-0.3,0.4-1.1,0.5-1.6,0.3c-0.5-0.2-0.7-0.8-0.4-1.2s1.1-0.5,1.6-0.3
						C625.4,634.6,625.6,635.1,625.2,635.5z"/>
					<path class="st3" d="M713.2,624.3c-0.3,0.4-1.1,0.5-1.6,0.3c-0.5-0.2-0.7-0.8-0.4-1.2s1.1-0.5,1.6-0.3
						C713.4,623.3,713.6,623.9,713.2,624.3z"/>
					<path class="st3" d="M673.9,573.4c-0.3,0.4-1.1,0.5-1.6,0.3c-0.5-0.2-0.7-0.8-0.4-1.2c0.3-0.4,1.1-0.5,1.6-0.3
						C674,572.5,674.2,573,673.9,573.4z"/>
				</g>
				<g>
					<path class="st3" d="M1038.9,615.9c0.6,0.1,1.1,0.5,1,1c-0.1,0.5-0.7,0.8-1.4,0.7c-0.6-0.1-1.1-0.5-1-1
						C1037.7,616.1,1038.3,615.8,1038.9,615.9z"/>
					<path class="st3" d="M996.2,593.2c0.6,0.1,1.1,0.5,1,1c-0.1,0.5-0.7,0.8-1.4,0.7c-0.6-0.1-1.1-0.5-1-1
						C995,593.4,995.6,593.1,996.2,593.2z"/>
					<path class="st3" d="M961.7,619.8c0.6,0.1,1.1,0.5,1,1c-0.1,0.5-0.7,0.8-1.4,0.7c-0.6-0.1-1.1-0.5-1-1
						C960.4,620,961,619.7,961.7,619.8z"/>
				</g>
				<g>
					<path class="st3" d="M983.3,824.7c0.6,0.1,1.1,0.5,1,1c-0.1,0.5-0.7,0.8-1.4,0.7c-0.6-0.1-1.1-0.5-1-1
						C982,824.9,982.6,824.6,983.3,824.7z"/>
					<path class="st3" d="M919.8,793.6c0.6,0.1,1.1,0.5,1,1c-0.1,0.5-0.7,0.8-1.4,0.7c-0.6-0.1-1.1-0.5-1-1
						C918.5,793.8,919.2,793.5,919.8,793.6z"/>
					<path class="st3" d="M888.7,850.1c0.6,0.1,1.1,0.5,1,1c-0.1,0.5-0.7,0.8-1.4,0.7c-0.6-0.1-1.1-0.5-1-1
						C887.5,850.3,888.1,850,888.7,850.1z"/>
				</g>
				<g>
					<path class="st3" d="M1439.5,809.9c0.6,0.1,1.1,0.5,1,1c-0.1,0.5-0.7,0.8-1.4,0.7c-0.6-0.1-1.1-0.5-1-1
						C1438.2,810.1,1438.8,809.8,1439.5,809.9z"/>
					<path class="st3" d="M1376,778.7c0.6,0.1,1.1,0.5,1,1c-0.1,0.5-0.7,0.8-1.4,0.7c-0.6-0.1-1.1-0.5-1-1
						C1374.7,779,1375.4,778.7,1376,778.7z"/>
					<path class="st3" d="M1344.9,835.3c0.6,0.1,1.1,0.5,1,1c-0.1,0.5-0.7,0.8-1.4,0.7c-0.6-0.1-1.1-0.5-1-1
						C1343.7,835.5,1344.3,835.2,1344.9,835.3z"/>
				</g>
				<path class="st3" d="M45.5,711.7c0,0.9-1.1,1.7-2.3,1.7c-1.3,0-2.3-0.7-2.3-1.7c0-0.9,1.1-1.7,2.3-1.7
					C44.5,710,45.5,710.8,45.5,711.7z"/>
				<polygon class="st3" points="781,567.1 784.9,577.9 800.1,580.7 784.9,583.5 781,594.3 777.1,583.5 761.9,580.7 777.1,577.9 
									"/>
				<polygon class="st3" points="649.1,853.4 653,864.2 668.2,867 653,869.8 649.1,880.6 645.2,869.8 630,867 645.2,864.2 				"/>
				<polygon class="st3" points="1392,801.6 1395.9,812.4 1411.1,815.2 1395.9,818 1392,828.8 1388.1,818 1372.9,815.2 
					1388.1,812.4 				"/>
				<path class="st3" d="M992.5,850.9c0,1.8-2.1,3.3-4.7,3.3c-2.6,0-4.7-1.5-4.7-3.3c0-1.8,2.1-3.3,4.7-3.3
					C990.4,847.6,992.5,849.1,992.5,850.9z"/>
				<path class="st3" d="M935.4,591c0,1.8-2.1,3.3-4.7,3.3c-2.6,0-4.7-1.5-4.7-3.3s2.1-3.3,4.7-3.3
					C933.3,587.6,935.4,589.1,935.4,591z"/>
				<path class="st3" d="M822.7,822.2c0,1.8-2.1,3.3-4.7,3.3c-2.6,0-4.7-1.5-4.7-3.3c0-1.8,2.1-3.3,4.7-3.3
					C820.6,818.9,822.7,820.3,822.7,822.2z"/>
				<path class="st3" d="M827.3,764.8c0,1.8-2.1,3.3-4.7,3.3c-2.6,0-4.7-1.5-4.7-3.3c0-1.8,2.1-3.3,4.7-3.3
					C825.2,761.5,827.3,763,827.3,764.8z"/>
				<ellipse class="st3" cx="630" cy="731.7" rx="4.7" ry="3.3"/>
				<path class="st3" d="M1136.5,620.3c0,1.8-2.1,3.3-4.7,3.3s-4.7-1.5-4.7-3.3s2.1-3.3,4.7-3.3S1136.5,618.5,1136.5,620.3z"/>
				<path class="st3" d="M1198,775.4c0,1.8-2.1,3.3-4.7,3.3c-2.6,0-4.7-1.5-4.7-3.3c0-1.8,2.1-3.3,4.7-3.3
					C1195.9,772.1,1198,773.5,1198,775.4z"/>
				<path class="st3" d="M688.3,648.1c0,1.8-2.1,3.3-4.7,3.3c-2.6,0-4.7-1.5-4.7-3.3c0-1.8,2.1-3.3,4.7-3.3
					C686.2,644.8,688.3,646.3,688.3,648.1z"/>
				<path class="st3" d="M1303,850.9c0,1.8-2.1,3.3-4.7,3.3c-2.6,0-4.7-1.5-4.7-3.3c0-1.8,2.1-3.3,4.7-3.3
					C1300.9,847.6,1303,849.1,1303,850.9z"/>
				<ellipse class="st3" cx="1188.6" cy="662.7" rx="2.3" ry="1.7"/>
				<path class="st3" d="M767.7,855.6c0,0.9-1.1,1.7-2.3,1.7s-2.3-0.7-2.3-1.7s1.1-1.7,2.3-1.7S767.7,854.7,767.7,855.6z"/>
				<ellipse class="st3" cx="701.6" cy="787.2" rx="2.3" ry="1.7"/>
				<path class="st3" d="M532.8,620.9c0,0.9-1.1,1.7-2.3,1.7c-1.3,0-2.3-0.7-2.3-1.7s1.1-1.7,2.3-1.7
					C531.7,619.2,532.8,620,532.8,620.9z"/>
				<path class="st3" d="M1509.8,865.4c0,0.9-1.1,1.7-2.3,1.7s-2.3-0.7-2.3-1.7c0-0.9,1.1-1.7,2.3-1.7S1509.8,864.4,1509.8,865.4z"
					/>
				<ellipse class="st3" cx="416.6" cy="867" rx="2.3" ry="1.7"/>
				<polyline class="st4" points="630,731.7 701.6,787.2 765.3,855.6 818,822.2 822.7,764.8 701.6,787.2 				"/>
				<line class="st4" x1="683.6" y1="648.1" x2="630" y2="731.7"/>
				<path class="st1" d="M1289.8,670.4c-14.2,9.4-31.6,27.2-27.2,41.9c1.6,5.4,6.8,10.1,13.2,13.2c6.4,3.2,13.9,4.9,21.6,6.1
					c11.2,1.7,22.8,2.1,34.2,1.1c4.4-0.4,8.9-1,12.6-2.7c5.1-2.4,8-8.7,5-12.8c-2-2.8-8.1-5.1-12.2-5.8c-1.9-0.3-3.7-0.7-5.6-1.1
					c-7.7-1.5-16.3-1.4-24.1-2.4c-5.5-0.7-11.2-2.1-15-5c-4.9-3.7-6.9-9.5-7.2-14.5c-0.2-3.8,0.8-15.5,4.9-18.2
					C1289.9,670.3,1289.8,670.4,1289.8,670.4z"/>
				<ellipse class="st1" cx="1303" cy="652.6" rx="9.5" ry="6.8"/>
				<ellipse class="st1" cx="488" cy="553.3" rx="14.7" ry="10.4"/>
				<path class="st1" d="M1541.8,772.7c39.3,17,49.3,49.4,45.9,82.2c-0.3,3-1.7,5.9-2,8.9c-0.8,6.8-1.7,22.7,12.4,23
					c2.1,0.1,4.4,0.5,6.4-0.1c16.3-4.8,19.8-32.5,20.2-42.7c0.9-23.5-13.9-46.9-35.8-64.1c-6.6-5.2-71.9-41.1-75.4-20.6
					c-1,6,6.1,6.1,11.9,7.7C1531.3,768.6,1536.8,770.5,1541.8,772.7z"/>
				<path class="st1" d="M442,556c-3.9-2.2-9-3-13.9-3.5c-27.4-2.5-45.6,6.9-70.4,11.9c-19.8,4-40.3,6.4-60.9,7.3
					c-32.3,1.3-65-6.5-96.1-12.9c-31.4-6.5-52.6-16.2-78.6-29.7c-22.5-11.7-47.9-21.2-74-28.1c-14.9-3.9-31.3-7.6-47.6-8.2v37.4
					c22.3,0.5,44.4,4.3,65.5,9.3c53.5,12.7,102.7,33.3,156.8,44.9c55.6,11.9,117.7,11.9,174,2.3c11.5-2,24.4-3.9,34.6-8.6
					C440.7,573.7,454.2,562.9,442,556z"/>
			</g>
			<g>
				<g>
					<path class="st5" d="M1459.2,322.2c0,0,25.5-10.2,34.3-14.4c8.8-4.2,45-32,46.7-31.4c1.7,0.6-13.8,12.9-13.8,12.9
						s11.3,10.1,9.9,11.3c-1.4,1.2-24.6,12-30.6,11.9c-6-0.1-35.2,19.9-35.2,19.9L1459.2,322.2z"/>
					<path class="st6" d="M1365.6,380.2c0,0,62.2-15.3,115.1-51.9l-13.6-11.8c0,0-61.1,38.3-102.3,28.1
						C1364.8,344.6,1300.3,387.4,1365.6,380.2z"/>
				</g>
				<g>
					<path class="st5" d="M1469.8,331.7l0.8,0.7c0,0,8.2-5.6,16.8-10.9C1481.4,324.7,1475.6,328.2,1469.8,331.7z"/>
					<path class="st7" d="M1434.4,348.5c-22.3,7-39.3,6.9-57.8-2.3c-4-0.2-8-0.7-11.7-1.7c0,0-64.5,42.9,0.8,35.7
						c0,0,62.2-15.3,115.1-51.9l-2.1-1.8C1464.6,334.6,1451,343.3,1434.4,348.5z"/>
				</g>
				<polygon class="st8" points="1581.3,526.8 1601.1,546.2 1641.2,527.3 1608.6,532.3 1594.9,518.3 				"/>
				<g>
					<path class="st9" d="M1397.4,462.7l-80.8-16.1c-14.8-3-30.7,0.9-39.8,9.8l-109.4,106.4l115.8-70.1c7.9-4.8,19.3-5.5,28.3-1.8
						l21.8,9.1L1397.4,462.7z"/>
					<path class="st2" d="M1333.9,581.9c-24.1,11.8-151.9,28.8-151.9,28.8s67.8-78.9,91.9-90.7c24.1-11.8,57-7.5,73.6,9.6
						C1364,546.7,1357.9,570.1,1333.9,581.9z"/>
					<path class="st9" d="M1451.3,518.3l-7.6,59.5c-1.4,10.9-12.2,20.1-27,23L1238,635.6l133.3-52c9.1-3.6,14.1-10.9,12.4-18.2
						l-4.2-17.7L1451.3,518.3z"/>
					<path class="st10" d="M1371.3,583.5l-16.1,6.3c5.7-1.4,11.2-3.1,16.4-5.4c15.6-6.7,25.5-17.7,40.7-24.6
						c10.2-4.7,22.7-8.8,34.9-9.5l4.1-32l-71.8,29.3l4.2,17.7C1385.4,572.7,1380.5,580,1371.3,583.5z"/>
					<path class="st11" d="M1788.9,313.2c-126.3-16.5-260.1,55.8-260.1,55.8l-247.6,140.5l-0.1,2.5c-1.1,30.2,26.1,57.2,66.6,66.1
						l0,0l275.3-112C1622.9,466.2,1765.6,403.1,1788.9,313.2z"/>
					<path class="st9" d="M1666.7,443c44-26.1,107.3-72.5,122.2-129.8c-80.6-10.5-164.1,15-214.1,35v0
						C1580.7,388.9,1615.4,424.6,1666.7,443L1666.7,443z"/>
					<path class="st12" d="M1593.4,341.1c-6.6,2.4-12.8,4.8-18.6,7.1l0,0c5.9,40.7,40.5,76.4,91.9,94.8c5.1-3,10.4-6.3,15.9-9.8
						C1633.3,414.8,1600,380.4,1593.4,341.1z"/>
					<path class="st9" d="M1419.6,494.2c0,0-20.3-15-96.7,28.3c-31.6,17.9-119.2,77.6-119.2,77.6s109.6-37,144.4-51.6
						C1432,513,1419.6,494.2,1419.6,494.2z"/>
					<path class="st12" d="M1540.3,468.8c-17.8,8.7-42.1,5.5-54.4-7.1c-12.2-12.6-7.8-30,10-38.7c17.8-8.7,42.1-5.5,54.4,7.1
						C1562.6,442.8,1558.1,460.1,1540.3,468.8z"/>
					<ellipse class="st13" cx="1518.1" cy="445.9" rx="31.4" ry="22.3"/>
				</g>
				<g>
					<path class="st5" d="M1335.4,322.1c-0.1,6.3-3.9,16.5,1.1,21.7c5.1,5.2,11-1.3,19.1-4.1c-1.5-2.6,4.6-12.1,8.2-13.3
						c1.1-0.4,2.3-0.4,3.5-0.5c0.4,0,0.8-0.1,1.2-0.1c6.2-0.7,9.8-5.2,11.7-9.3c3.1-6.8,4-14,2.6-21.1l-0.9-0.7l-5.8-4.5
						c-6.3-2-13.6-1.5-20.3-0.5c-7.1,1.1-14.4,3-18.6,7.1C1333.4,300.6,1335.5,317.5,1335.4,322.1z"/>
				</g>
				<path class="st6" d="M1404.1,407.2c0.4,0.9,3.5,5.3,3.5,6.8c0,0.1,0,0.2-0.1,0.3c-6.1,8.4-17.7,12.3-29.5,14.1
					c-11.4,1.6-23.1,1.2-30.7,0.6c-0.2-0.3-0.5-0.7-0.7-1c-0.6-2.9-4-6.3-5.4-9.1c-6.8-14.1-13.2-28.5-16.6-43.2
					c-3.5-14.9-8.4-34,5.9-46.9l4.2,1l0.2,0l9.3,2.3c0,0,12.6,3.1,12.6,3.1c2,10.2,35.4,20.2,42.7,28.8c3.5,4.2,0.8,10-0.6,14.3
					c-0.8,2.5-1.7,5.1-1.9,7.7C1396.3,393.2,1400.9,400.4,1404.1,407.2z"/>
				<path class="st14" d="M1589.3,527.1c4.1-1.9,8.4-3.7,12.6-5.4c-5.8-3.9-9.7-9.2-13.7-14.3c-7.8-10.2-14.6-20.6-20.5-31.5
					c-5.8-10.7-10.9-21.5-17-32.2c-4-7-8.4-14-14.4-20.2c-4.6-3.3-9.9-5.5-16.2-6.2c-22.9-2.3-67.4,3.6-83.1,3.1
					c-14-0.5-27-5.5-29.5-6.5c-0.3-0.1-0.5-0.2-0.5-0.2s-9.8,4.9-32.1,9.6c-7.8,1.6-17.3,3.2-28.3,4.6c-0.1,0-0.1,0-0.1,0.1
					c0,0,0,0,0,0c-1.3,1.8,12.4,27.6,13.9,29c10.4,10.2,25.2,13.6,42.3,11.7c19.8-2.1,40.4-7,58.9-12.1c16.1-4.5,38.8-14.6,53.4-2.5
					c10.4,8.6,12.7,20.4,19.5,30.3c8.9,13,20.9,25,35.2,35.2l14.2,10.1C1585.8,528.8,1587.6,527.9,1589.3,527.1z"/>
				<path class="st1" d="M1332.6,340.4c9.5-5,14.6-5.8,13.2-16.8c-1.4-10.9-7.3-16.6,2.9-17c10.2-0.4,8.4,5.2,19.7,0.7
					c11.3-4.5,21.1,2.6,25.9-4c4.8-6.7,0.6-29.3-36.3-25.2c-36.8,4.1-43.8,17.5-44.6,24.9c-0.7,7.4-16.5,12.4-20,18.9
					c-3,5.4,0.4,23-7.1,29.5c-8.3,7.3-12.3,26.2,7.2,32.3c20.5,6.4,38.1-4.8,33.8-18.4C1323.1,351.6,1332.6,340.4,1332.6,340.4z"/>
				<path class="st15" d="M1520.1,417.4c-5.5-0.6-12.2-0.6-19.5-0.4c-1.2,9,7.4,17.2,20.1,18.9c8.3,1.1,16.3-0.9,21.9-4.8
					c-1.9-2.6-3.9-5.1-6.2-7.4C1531.7,420.3,1526.4,418,1520.1,417.4z"/>
				<path class="st15" d="M1395.1,422.2c0,0,7.2,14.4-7.7,20.5"/>
				<g>
					<path class="st5" d="M1470.4,385.5c0,0,28.1,5.6,38.6,7.1c8.3,1.2,29.8,2.6,38.3,3.2c1.9,0.1,3.3,1.3,3,2.7
						c-0.7,3.7-2.2,10.4-3.8,10.5c-2.2,0.1-29.3-3.9-33.5-7c-4.2-3.1-44.7-3.6-44.7-3.6L1470.4,385.5z"/>
					<path class="st6" d="M1346.5,379.5c0,0,59.2,20.4,133,21.2l2.1-15.2c0,0-81.3-3.6-100.2-31.6
						C1381.4,353.9,1293.2,351.7,1346.5,379.5z"/>
				</g>
				<path class="st5" d="M1527.3,395.1c0,0,14.6-2,14.2-3.4c-0.5-1.4-14.1,1.4-19.4,1c-5.4-0.4-12.8,1.4-12.8,1.4L1527.3,395.1z"/>
				<path class="st7" d="M1397.6,392.4l2.2,6c-17.9-1.6-51.8-18.4-51.8-18.4s48.8,12.2,48.9,12.2L1397.6,392.4z"/>
				<g>
					<path class="st9" d="M1638.3,248.7h-10.1c-7.7,0-14-6.3-14-14v-29.6c0-0.6,0.5-1.1,1.1-1.1h35.7c0.6,0,1.1,0.5,1.1,1.1v29.6
						C1652.3,242.5,1646,248.7,1638.3,248.7z"/>
					<ellipse class="st2" cx="1633.3" cy="187" rx="50.8" ry="36.1"/>
					<g>
						<path class="st12" d="M1656,232.6h-45.1c-1.3,0-2.4-1.1-2.4-2.4v0c0-1.3,1.1-2.4,2.4-2.4h45.1c1.3,0,2.4,1.1,2.4,2.4v0
							C1658.3,231.6,1657.3,232.6,1656,232.6z"/>
						<path class="st16" d="M1656,227.9h-45.1c-1.3,0-2.4-1.1-2.4-2.4v0c0-1.3,1.1-2.4,2.4-2.4h45.1c1.3,0,2.4,1.1,2.4,2.4v0
							C1658.3,226.8,1657.3,227.9,1656,227.9z"/>
						<path class="st12" d="M1656,223.1h-45.1c-1.3,0-2.4-1.1-2.4-2.4l0,0c0-1.3,1.1-2.4,2.4-2.4h45.1c1.3,0,2.4,1.1,2.4,2.4l0,0
							C1658.3,222.1,1657.3,223.1,1656,223.1z"/>
					</g>
					<g>
						<line class="st17" x1="1626.9" y1="186.5" x2="1626.9" y2="220.7"/>
						<line class="st17" x1="1638.1" y1="186.5" x2="1638.1" y2="220.7"/>
					</g>
					<g>
						<ellipse class="st18" cx="1626.9" cy="180.6" rx="8.7" ry="6.2"/>
						<path class="st18" d="M1646.7,180.6c0,3.4-3.9,6.2-8.7,6.2c-4.8,0-8.7-2.8-8.7-6.2c0-3.4,3.9-6.2,8.7-6.2
							C1642.9,174.4,1646.7,177.1,1646.7,180.6z"/>
					</g>
				</g>
				<g>
					<line class="st19" x1="1765.9" y1="220.4" x2="1765.9" y2="229"/>
					<line class="st19" x1="1772" y1="224.7" x2="1759.9" y2="224.7"/>
				</g>
				<g>
					<line class="st19" x1="1500.6" y1="177.8" x2="1500.6" y2="186.4"/>
					<line class="st19" x1="1506.6" y1="182.1" x2="1494.5" y2="182.1"/>
				</g>
				<g>
					<line class="st19" x1="1628.7" y1="284.9" x2="1628.7" y2="293.6"/>
					<line class="st19" x1="1634.8" y1="289.2" x2="1622.6" y2="289.2"/>
				</g>
			</g>
		</g>
	</g>
</g>
<g id="Layer_2">
	<g>
		<g>
			<path class="st20" d="M939.2,702.5c23.7-2.1,53.7-2.6,86.2-1c41.4,2,78.1,6.9,102.6,13"/>
			<path class="st20" d="M887.4,717.9c0.7-7.2,20.8-12.7,51.8-15.4"/>
			<ellipse class="st21" cx="1023.3" cy="724.3" rx="103.1" ry="73.3"/>
			<path class="st20" d="M1128,714.4c19.9,5,31.7,10.8,31.1,16.4c-1.2,12.7-63,20-138,16.5s-134.9-16.7-133.7-29.4"/>
		</g>
		<path class="st12" d="M982.7,714.7c-0.3,3.3-4.4,5.9-9.1,5.6s-8.2-3.1-7.9-6.4c0.3-3.3,4.4-5.9,9.1-5.6
			C979.5,708.5,983,711.3,982.7,714.7z"/>
		<path class="st12" d="M1059.8,772.7c-0.3,3.7-4.8,6.5-10,6.2c-5.2-0.2-9.1-3.4-8.8-7.1c0.3-3.7,4.8-6.5,10-6.2
			C1056.3,765.8,1060.2,769,1059.8,772.7z"/>
		<path class="st12" d="M1069.5,721c-0.2,1.9-2.4,3.3-5.1,3.2c-2.6-0.1-4.6-1.7-4.4-3.6c0.2-1.9,2.4-3.3,5.1-3.2
			C1067.7,717.5,1069.7,719.1,1069.5,721z"/>
		<path class="st12" d="M992.8,770.8c-0.2,1.9-2.4,3.3-5.1,3.2c-2.6-0.1-4.6-1.7-4.4-3.6c0.2-1.9,2.4-3.3,5.1-3.2
			C991,767.3,993,768.9,992.8,770.8z"/>
		<path class="st12" d="M1050.3,678.3c-0.5,5.1-6.7,9-13.9,8.6c-7.2-0.3-12.6-4.8-12.1-9.9c0.5-5.1,6.7-9,13.9-8.6
			C1045.3,668.8,1050.8,673.2,1050.3,678.3z"/>
	</g>
</g>
<g id="Layer_3">
	<g>
		<path class="st20" d="M219.1,751.9c30.8-4.2,70.1-6.8,113-6.8c54.5,0,103.3,4.1,136.2,10.6"/>
		<ellipse class="st22" cx="332.1" cy="775.4" rx="74.8" ry="53.2"/>
		<path class="st20" d="M468.2,755.8c26.7,5.3,42.9,12.1,42.9,19.6c0,16.7-80.2,30.2-179.1,30.2S153,792.1,153,775.4
			c0-9.5,25.8-17.9,66.1-23.5"/>
		<path class="st23" d="M380.5,743c5.5,4.8,7,10.3,3.3,12.5c-3.7,2.1-11.1,0-16.6-4.7c-5.5-4.8-7-10.3-3.3-12.5
			C367.6,736.1,375,738.2,380.5,743z"/>
		<path class="st23" d="M371.9,768.7c2.8,2.4,3.5,5.2,1.7,6.3c-1.8,1.1-5.6,0-8.3-2.4c-2.8-2.4-3.5-5.2-1.7-6.3
			C365.4,765.2,369.2,766.3,371.9,768.7z"/>
		<path class="st23" d="M341,733c2.8,2.4,3.5,5.2,1.7,6.3c-1.8,1.1-5.6,0-8.3-2.4c-2.8-2.4-3.5-5.2-1.7-6.3
			C334.5,729.5,338.2,730.6,341,733z"/>
	</g>
</g>
<g id="Layer_4">
	<path class="st11" d="M959,461.8c-15.8,0-28.6-9.1-28.6-20.4c0-5.9,3.5-11.1,9.1-14.8c-13.8,3.2-23.8,12.4-23.8,23.3
		c0,13.5,15.4,24.5,34.4,24.5c18.6,0,33.7-10.5,34.4-23.6"/>
</g>
</svg>
