<?xml version="1.0" encoding="utf-8"?>
<!-- Generator: Adobe Illustrator 24.0.2, SVG Export Plug-In . SVG Version: 6.00 Build 0)  -->
<svg version="1.1" id="Layer_1" xmlns="http://www.w3.org/2000/svg" xmlns:xlink="http://www.w3.org/1999/xlink" x="0px" y="0px"
	 viewBox="0 0 1900 1080" style="enable-background:new 0 0 1900 1080;" xml:space="preserve">
<style type="text/css">
	.st0{fill:#FFFFFF;}
	.st1{opacity:0.4;fill:#0DCBC3;}
	.st2{opacity:0.7;fill:#0DCBC3;}
	.st3{fill:#2C3748;}
	.st4{opacity:0.3;fill:#1F4E79;}
	.st5{fill:none;stroke:#FFFFFF;stroke-width:2;stroke-miterlimit:10;}
	.st6{opacity:0.4;}
	.st7{fill:#5462C1;}
	.st8{fill:none;stroke:#0DCBC3;stroke-width:3;stroke-linecap:round;stroke-linejoin:round;}
	.st9{fill:none;stroke:#0DCBC3;stroke-width:3;stroke-linecap:round;stroke-linejoin:round;stroke-dasharray:0,6.9946;}
	.st10{clip-path:url(#SVGID_2_);}
	.st11{fill:#0DCBC3;}
</style>
<g>
	<g>
		
			<image style="overflow:visible;opacity:0.36;" width="1936" height="1113" xlink:href="2915A83F.png"  transform="matrix(1 0 0 1 -4 -4)">
		</image>
		<g>
			<path class="st0" d="M1911.1,1074.1c0,7.8-7.1,14.2-15.9,14.2H15.9c-8.8,0-15.9-6.3-15.9-14.2V14.2C0,6.3,7.1,0,15.9,0h1879.3
				c8.8,0,15.9,6.3,15.9,14.2V1074.1z"/>
		</g>
	</g>
	<g>
		<path class="st1" d="M0,1074.1c0,7.8,7.1,14.2,15.9,14.2h1800c8.8,0,15.9-6.3,15.9-14.2V14.2c0-7.8-7.1-14.2-15.9-14.2H627.1
			c-3.2,11-5.8,22.3-7.4,33.6c-0.1,0.8-0.2,1.5-0.3,2.3c-0.1,1.1-0.3,2.1-0.4,3.2c-2.8,25.2-1.1,50.4,5.2,74.8
			c14.1,51.9,49.1,97.3,94.4,132.5c13.6,10.6,27.9,20.3,41,31.2c13.2,11,25.8,22.5,37.5,34.8c23,24,43.2,50.2,59.2,78.4
			c31.8,55.9,47.5,118.8,38.4,181.4c-8.6,59-40.1,118.9-88.2,160.5c-41.5,35.9-95.2,56.2-151.9,63.5c-14,1.8-27.9,2.8-41.8,3.3
			c-23.9,0.9-47.9,0.3-71.6-1.3c-3.8-0.3-7.6-0.5-11.5-0.8c-5.8-0.4-11.6-0.8-17.4-1.2c-38.1-2.6-76.2-4.9-114.3-5.5
			c-61.3-0.7-122.8,3.3-181.9,18c-4.8,1.2-9.7,2.5-14.5,3.8c-0.2,0.1-0.5,0.1-0.7,0.2c-4.4,1.2-8.8,2.5-13.1,3.9
			c-0.8,0.3-1.6,0.5-2.4,0.8c-3.8,1.2-7.7,2.5-11.5,3.8c-1.1,0.4-2.1,0.7-3.2,1.1c-3.7,1.3-7.3,2.6-10.9,4c-0.9,0.4-1.9,0.7-2.8,1.1
			c-4,1.5-7.9,3.1-11.8,4.8c-0.4,0.2-0.8,0.3-1.2,0.5c-13.6,5.8-26.9,12.2-39.7,19.4C70.1,871.3,29.9,897,0,921.1"/>
		<path class="st2" d="M1857.1,0H668.4c-3.2,11-5.8,22.3-7.4,33.6c-0.1,0.8-0.2,1.5-0.3,2.3c-0.1,1.1-0.3,2.1-0.4,3.2
			c-2.8,25.2-1.1,50.4,5.2,74.8c14.1,51.9,49.1,97.3,94.4,132.5c13.6,10.6,27.9,20.3,41,31.2c13.2,11,25.8,22.5,37.5,34.8
			c23,24,43.2,50.2,59.2,78.4c31.8,55.9,47.5,118.8,38.4,181.4c-8.6,59-40.1,118.9-88.2,160.5c-41.5,35.9-95.2,56.2-151.9,63.5
			c-14,1.8-27.9,2.8-41.8,3.3c-23.9,0.9-47.9,0.3-71.6-1.3c-3.8-0.3-7.6-0.5-11.5-0.8c-5.8-0.4-11.6-0.8-17.4-1.2
			c-38.1-2.6-76.2-4.9-114.3-5.5c-61.3-0.7-122.8,3.3-181.9,18c-4.8,1.2-9.7,2.5-14.5,3.8c-0.2,0.1-0.5,0.1-0.7,0.2
			c-4.4,1.2-8.8,2.5-13.1,3.9c-0.8,0.3-1.6,0.5-2.4,0.8c-3.8,1.2-7.7,2.5-11.5,3.8c-1.1,0.4-2.1,0.7-3.2,1.1
			c-3.7,1.3-7.3,2.6-10.9,4c-0.9,0.4-1.9,0.7-2.8,1.1c-4,1.5-7.9,3.1-11.8,4.8c-0.4,0.2-0.8,0.3-1.2,0.5
			c-13.6,5.8-26.9,12.2-39.7,19.4c-34.1,19.1-65.9,42-95.7,66c-31.1,25-22.2,14.9-49.7,43.1v112.7c0,7.8,7.1,14.2,15.9,14.2h1841.3
			c8.8,0,15.9-6.3,15.9-14.2V14.2C1873,6.3,1865.9,0,1857.1,0z"/>
		<path class="st3" d="M1895.2,0H712.8c-3.2,11-5.8,22.3-7.4,33.6c-0.1,0.8-0.2,1.5-0.3,2.3c-0.1,1.1-0.3,2.1-0.4,3.2
			c-2.8,25.2-1.1,50.4,5.2,74.8c14.1,51.9,49.1,97.3,94.4,132.5c13.6,10.6,27.9,20.3,41,31.2c13.2,11,25.8,22.5,37.5,34.8
			c23,24,43.2,50.2,59.2,78.4c31.8,55.9,47.5,118.8,38.4,181.4c-8.6,59-40.1,118.9-88.2,160.5c-41.5,35.9-95.2,56.2-151.9,63.5
			c-14,1.8-27.9,2.8-41.8,3.3c-23.9,0.9-47.9,0.3-71.6-1.3c-3.8-0.3-7.6-0.5-11.5-0.8c-5.8-0.4-11.6-0.8-17.4-1.2
			c-38.1-2.6-76.2-4.9-114.3-5.5c-61.3-0.7-122.8,3.3-181.9,18c-4.8,1.2-9.7,2.5-14.5,3.8c-0.2,0.1-0.5,0.1-0.7,0.2
			c-4.4,1.2-8.8,2.5-13.1,3.9c-0.8,0.3-1.6,0.5-2.4,0.8c-3.8,1.2-7.7,2.5-11.5,3.8c-1.1,0.4-2.1,0.7-3.2,1.1
			c-3.7,1.3-7.3,2.6-10.9,4c-0.9,0.4-1.9,0.7-2.8,1.1c-4,1.5-7.9,3.1-11.8,4.8c-0.4,0.2-0.8,0.3-1.2,0.5
			c-13.6,5.8-26.9,12.2-39.7,19.4c-34.1,19.1-65.9,42-95.7,66c-31.1,25-66.7,51.8-94.2,80v75.8c0,7.8,7.1,14.2,15.9,14.2h1879.3
			c8.8,0,15.9-6.3,15.9-14.2V14.2C1911.1,6.3,1904,0,1895.2,0z"/>
		<path class="st4" d="M1895.2,0h-619.5c-22.4,35.9-39.8,75.7-41.3,116.1c0,0.1,0,0.2,0,0.2c-0.1,1.9-0.1,3.8-0.1,5.6
			c0,0.4,0,0.7,0,1.1c0,1.8,0.1,3.7,0.2,5.5c0,0.4,0,0.7,0,1.1c0.8,15.3,4,30.7,10.2,45.9c21.9,53.5,77.2,82.4,135,99.4
			c29.9,8.8,60.7,15,91.1,22.1c29.7,6.9,59.3,14.2,88.4,22.7c55.6,16.2,111.1,36.2,158.9,66.7c45,28.7,82,66.9,101.7,113.5
			c23.7,56.2,23.3,119.2,10.8,177.6c-13.5,63-42,125.6-89.8,174.1c-10.5,10.7-21.9,20.3-33.8,29.1c-1,0.8-2,1.5-3.1,2.3
			c-0.6,0.4-1.2,0.8-1.8,1.2c-14.2,10.1-29.4,18.8-45.3,26.4c-28.2,13.6-58.6,23.7-90.3,31c-37,8.5-74.8,13.7-112.9,16.4
			c0,0,0,0-0.1,0c-2,0.1-4,0.3-6.1,0.4c-35.2,2.5-70.8,2.9-105.8,0.9c-2.4-0.1-4.7-0.3-7.1-0.5c-2.9-0.2-5.9-0.4-8.8-0.6
			c-1.4-0.1-2.8-0.2-4.2-0.3c-6.5-0.5-13-1.1-19.5-1.8c-35.2-3.8-70-10.4-104.7-17.4c-33.7-6.6-67.4-13.4-101.5-18.5
			c-46.8-7-94.2-8.8-141.5-10c-47.4-1.3-95.1-1.2-142.3,3.1c-3.4,0.3-6.8,0.7-10.2,1.1c-1.7,0.2-3.5,0.4-5.2,0.6
			c-1.6,0.2-3.2,0.4-4.8,0.7c-3.6,0.5-7.3,1-10.9,1.6c-1.3,0.2-2.6,0.4-3.8,0.6c-3.4,0.6-6.8,1.2-10.2,1.9c-1.9,0.4-3.8,0.7-5.7,1.1
			c-1.2,0.3-2.5,0.5-3.7,0.8c-3.2,0.7-6.5,1.4-9.7,2.2c-0.5,0.1-1,0.2-1.5,0.4c-46.6,11.2-91.3,29.5-131.2,53.2
			c-50.7,30.2-93.6,68.2-130.5,110.8h1410.5c8.8,0,15.9-6.3,15.9-14.2V14.2C1911.1,6.3,1904,0,1895.2,0z"/>
	</g>
	<g>
		<g>
			<g>
				<g>
					<path class="st5" d="M1839.3,91.6"/>
				</g>
				<g>
					<path class="st5" d="M1783.9,91.6"/>
				</g>
				<g>
					<path class="st5" d="M1839.3,77.1"/>
				</g>
				<g>
					<path class="st5" d="M1783.9,77.1"/>
				</g>
			</g>
		</g>
	</g>
	<g>
	</g>
	<g class="st6">
		<g>
			<g>
				<g>
					<path class="st7" d="M3.8,936.4c27.1,0.2,53,10.6,80.3,7.8c13.2-1.3,26.2-4.5,39.3-6.4c14.5-2.1,28.5-1.4,42.9,1.1
						c12.8,2.2,25.6,5.1,38.6,5.7c13.3,0.7,26.4-1.6,39.3-4c13.8-2.5,27.7-5,41.8-4.1c14.1,0.9,27.8,4.3,41.7,6.4
						c12.5,1.9,24.8,2.2,37.4,0.4c14-1.9,27.7-5.4,41.7-6.6c27.3-2.5,53.2,8.4,80.3,7.9c13.3-0.2,26.3-3,39.4-5.4
						c13.9-2.5,27.6-3.8,41.7-2.2c13.4,1.6,26.4,4.8,39.8,6.5c13.3,1.7,26.2,0.9,39.4-1.3c13.9-2.3,27.7-5.6,41.7-6
						c13.8-0.4,27.4,2.4,41,4.8c13,2.4,26.1,4.2,39.3,3.2c13.3-1,26.2-4.1,39.4-6.2c7-1.1,14-1.8,21.1-1.9c1.6,0,1.6-2.5,0-2.5
						c-27.1,0.2-53,10.6-80.3,7.8c-13.6-1.4-27-4.7-40.5-6.5c-13.3-1.8-26.2-1.3-39.4,0.8c-13.6,2.2-27.2,5.4-41,6.2
						c-14.1,0.7-27.9-1.9-41.7-4.4c-13-2.4-26.1-4.5-39.4-3.6c-13.3,0.9-26.3,3.9-39.4,6c-14.2,2.3-28,2.6-42.2,0.5
						c-13.1-2-26.1-5.1-39.4-6.3c-27.3-2.5-53.2,8.4-80.3,7.9c-14.1-0.2-27.9-3.4-41.8-5.8c-13.1-2.2-26.1-3.3-39.4-1.7
						c-13.4,1.6-26.4,4.8-39.8,6.5c-14.1,1.8-27.8,0.7-41.8-1.7c-13-2.3-26.1-5.2-39.3-5.6c-13-0.4-25.9,2-38.6,4.3
						c-13.8,2.5-27.6,4.8-41.7,3.7c-14.1-1.1-27.8-4.5-41.8-6.5c-6.2-0.9-12.4-1.5-18.7-1.5C2.2,933.9,2.2,936.4,3.8,936.4
						L3.8,936.4z"/>
				</g>
			</g>
			<g>
				<g>
					<path class="st7" d="M3.8,967.1c27.1,0.2,53,10.6,80.3,7.8c13.2-1.3,26.2-4.5,39.3-6.4c14.5-2.1,28.5-1.4,42.9,1.1
						c12.8,2.2,25.6,5.1,38.6,5.7c13.3,0.7,26.4-1.6,39.3-4c13.8-2.5,27.7-5,41.8-4.1c14.1,0.9,27.8,4.3,41.7,6.4
						c12.5,1.9,24.8,2.2,37.4,0.4c14-1.9,27.7-5.4,41.7-6.6c27.3-2.5,53.2,8.4,80.3,7.9c13.3-0.2,26.3-3,39.4-5.4
						c13.9-2.5,27.6-3.8,41.7-2.2c13.4,1.6,26.4,4.8,39.8,6.5c13.3,1.7,26.2,0.9,39.4-1.3c13.9-2.3,27.7-5.6,41.7-6
						c13.8-0.4,27.4,2.4,41,4.8c13,2.4,26.1,4.2,39.3,3.2c13.3-1,26.2-4.1,39.4-6.2c7-1.1,14-1.8,21.1-1.9c1.6,0,1.6-2.5,0-2.5
						c-27.1,0.2-53,10.6-80.3,7.8c-13.6-1.4-27-4.7-40.5-6.5c-13.3-1.8-26.2-1.3-39.4,0.8c-13.6,2.2-27.2,5.4-41,6.2
						c-14.1,0.7-27.9-1.9-41.7-4.4c-13-2.4-26.1-4.5-39.4-3.6c-13.3,0.9-26.3,3.9-39.4,6c-14.2,2.3-28,2.6-42.2,0.5
						c-13.1-2-26.1-5.1-39.4-6.3c-27.3-2.5-53.2,8.4-80.3,7.9c-14.1-0.2-27.9-3.4-41.8-5.8c-13.1-2.2-26.1-3.3-39.4-1.7
						c-13.4,1.6-26.4,4.8-39.8,6.5c-14.1,1.8-27.8,0.7-41.8-1.7c-13-2.3-26.1-5.2-39.3-5.6c-13-0.4-25.9,2-38.6,4.3
						c-13.8,2.5-27.6,4.8-41.7,3.7c-14.1-1.1-27.8-4.5-41.8-6.5c-6.2-0.9-12.4-1.5-18.7-1.5C2.2,964.5,2.2,967,3.8,967.1L3.8,967.1z
						"/>
				</g>
			</g>
			<g>
				<g>
					<path class="st7" d="M3.8,997.7c27.1,0.2,53,10.6,80.3,7.8c13.2-1.3,26.2-4.5,39.3-6.4c14.5-2.1,28.5-1.4,42.9,1.1
						c12.8,2.2,25.6,5.1,38.6,5.7c13.3,0.7,26.4-1.6,39.3-4c13.8-2.5,27.7-5,41.8-4.1c14.1,0.9,27.8,4.3,41.7,6.4
						c12.5,1.9,24.8,2.2,37.4,0.4c14-1.9,27.7-5.4,41.7-6.6c27.3-2.5,53.2,8.4,80.3,7.9c13.3-0.2,26.3-3,39.4-5.4
						c13.9-2.5,27.6-3.8,41.7-2.2c13.4,1.6,26.4,4.8,39.8,6.5c13.3,1.7,26.2,0.9,39.4-1.3c13.9-2.3,27.7-5.6,41.7-6
						c13.8-0.4,27.4,2.4,41,4.8c13,2.4,26.1,4.2,39.3,3.2c13.3-1,26.2-4.1,39.4-6.2c7-1.1,14-1.8,21.1-1.9c1.6,0,1.6-2.5,0-2.5
						c-27.1,0.2-53,10.6-80.3,7.8c-13.6-1.4-27-4.7-40.5-6.5c-13.3-1.8-26.2-1.3-39.4,0.8c-13.6,2.2-27.2,5.4-41,6.2
						c-14.1,0.7-27.9-1.9-41.7-4.4c-13-2.4-26.1-4.5-39.4-3.6c-13.3,0.9-26.3,3.9-39.4,6c-14.2,2.3-28,2.6-42.2,0.5
						c-13.1-2-26.1-5.1-39.4-6.3c-27.3-2.5-53.2,8.4-80.3,7.9c-14.1-0.2-27.9-3.4-41.8-5.8c-13.1-2.2-26.1-3.3-39.4-1.7
						c-13.4,1.6-26.4,4.8-39.8,6.5c-14.1,1.8-27.8,0.7-41.8-1.7c-13-2.3-26.1-5.2-39.3-5.6c-13-0.4-25.9,2-38.6,4.3
						c-13.8,2.5-27.6,4.8-41.7,3.7c-14.1-1.1-27.8-4.5-41.8-6.5c-6.2-0.9-12.4-1.5-18.7-1.5C2.2,995.2,2.2,997.7,3.8,997.7
						L3.8,997.7z"/>
				</g>
			</g>
			<g>
				<g>
					<path class="st7" d="M3.8,1028.3c27.1,0.2,53,10.6,80.3,7.8c13.2-1.3,26.2-4.5,39.3-6.4c14.5-2.1,28.5-1.4,42.9,1.1
						c12.8,2.2,25.6,5.1,38.6,5.7c13.3,0.7,26.4-1.6,39.3-4c13.8-2.5,27.7-5,41.8-4.1c14.1,0.9,27.8,4.3,41.7,6.4
						c12.5,1.9,24.8,2.2,37.4,0.4c14-1.9,27.7-5.4,41.7-6.6c27.3-2.5,53.2,8.4,80.3,7.9c13.3-0.2,26.3-3,39.4-5.4
						c13.9-2.5,27.6-3.8,41.7-2.2c13.4,1.6,26.4,4.8,39.8,6.5c13.3,1.7,26.2,0.9,39.4-1.3c13.9-2.3,27.7-5.6,41.7-6
						c13.8-0.4,27.4,2.4,41,4.8c13,2.4,26.1,4.2,39.3,3.2c13.3-1,26.2-4.1,39.4-6.2c7-1.1,14-1.8,21.1-1.9c1.6,0,1.6-2.5,0-2.5
						c-27.1,0.2-53,10.6-80.3,7.8c-13.6-1.4-27-4.7-40.5-6.5c-13.3-1.8-26.2-1.3-39.4,0.8c-13.6,2.2-27.2,5.4-41,6.2
						c-14.1,0.7-27.9-1.9-41.7-4.4c-13-2.4-26.1-4.5-39.4-3.6c-13.3,0.9-26.3,3.9-39.4,6c-14.2,2.3-28,2.6-42.2,0.5
						c-13.1-2-26.1-5.1-39.4-6.3c-27.3-2.5-53.2,8.4-80.3,7.9c-14.1-0.2-27.9-3.4-41.8-5.8c-13.1-2.2-26.1-3.3-39.4-1.7
						c-13.4,1.6-26.4,4.8-39.8,6.5c-14.1,1.8-27.8,0.7-41.8-1.7c-13-2.3-26.1-5.2-39.3-5.6c-13-0.4-25.9,2-38.6,4.3
						c-13.8,2.5-27.6,4.8-41.7,3.7c-14.1-1.1-27.8-4.5-41.8-6.5c-6.2-0.9-12.4-1.5-18.7-1.5C2.2,1025.8,2.2,1028.3,3.8,1028.3
						L3.8,1028.3z"/>
				</g>
			</g>
			<g>
				<g>
					<path class="st7" d="M3.8,1058.9c27.1,0.2,53,10.6,80.3,7.8c13.2-1.3,26.2-4.5,39.3-6.4c14.5-2.1,28.5-1.4,42.9,1.1
						c12.8,2.2,25.6,5.1,38.6,5.7c13.3,0.7,26.4-1.6,39.3-4c13.8-2.5,27.7-5,41.8-4.1c14.1,0.9,27.8,4.3,41.7,6.4
						c12.5,1.9,24.8,2.2,37.4,0.4c14-1.9,27.7-5.4,41.7-6.6c27.3-2.5,53.2,8.4,80.3,7.9c13.3-0.2,26.3-3,39.4-5.4
						c13.9-2.5,27.6-3.8,41.7-2.2c13.4,1.6,26.4,4.8,39.8,6.5c13.3,1.7,26.2,0.9,39.4-1.3c13.9-2.3,27.7-5.6,41.7-6
						c13.8-0.4,27.4,2.4,41,4.8c13,2.4,26.1,4.2,39.3,3.2c13.3-1,26.2-4.1,39.4-6.2c7-1.1,14-1.8,21.1-1.9c1.6,0,1.6-2.5,0-2.5
						c-27.1,0.2-53,10.6-80.3,7.8c-13.6-1.4-27-4.7-40.5-6.5c-13.3-1.8-26.2-1.3-39.4,0.8c-13.6,2.2-27.2,5.4-41,6.2
						c-14.1,0.7-27.9-1.9-41.7-4.4c-13-2.4-26.1-4.5-39.4-3.6c-13.3,0.9-26.3,3.9-39.4,6c-14.2,2.3-28,2.6-42.2,0.5
						c-13.1-2-26.1-5.1-39.4-6.3c-27.3-2.5-53.2,8.4-80.3,7.9c-14.1-0.2-27.9-3.4-41.8-5.8c-13.1-2.2-26.1-3.3-39.4-1.7
						c-13.4,1.6-26.4,4.8-39.8,6.5c-14.1,1.8-27.8,0.7-41.8-1.7c-13-2.3-26.1-5.2-39.3-5.6c-13-0.4-25.9,2-38.6,4.3
						c-13.8,2.5-27.6,4.8-41.7,3.7c-14.1-1.1-27.8-4.5-41.8-6.5c-6.2-0.9-12.4-1.5-18.7-1.5C2.2,1056.4,2.2,1058.9,3.8,1058.9
						L3.8,1058.9z"/>
				</g>
			</g>
		</g>
	</g>
	<g>
		<g>
			<g>
				<line class="st8" x1="1435" y1="324.8" x2="1435" y2="324.8"/>
				<path class="st9" d="M1442,324.8c143.4,0,299.6,0,444.2,0"/>
				<line class="st8" x1="1889.6" y1="324.8" x2="1889.6" y2="324.8"/>
			</g>
		</g>
		<g>
			<g>
				<line class="st8" x1="1435" y1="347.5" x2="1435" y2="347.5"/>
				<path class="st9" d="M1442,347.5c143.4,0,299.6,0,444.2,0"/>
				<line class="st8" x1="1889.6" y1="347.5" x2="1889.6" y2="347.5"/>
			</g>
		</g>
		<g>
			<g>
				<line class="st8" x1="1435" y1="279.5" x2="1435" y2="279.5"/>
				<path class="st9" d="M1442,279.5c143.4,0,299.6,0,444.2,0"/>
				<line class="st8" x1="1889.6" y1="279.5" x2="1889.6" y2="279.5"/>
			</g>
		</g>
		<g>
			<g>
				<line class="st8" x1="1435" y1="302.2" x2="1435" y2="302.2"/>
				<path class="st9" d="M1442,302.2c143.4,0,299.6,0,444.2,0"/>
				<line class="st8" x1="1889.6" y1="302.2" x2="1889.6" y2="302.2"/>
			</g>
		</g>
		<g>
			<g>
				<line class="st8" x1="1435" y1="370.2" x2="1435" y2="370.2"/>
				<path class="st9" d="M1442,370.2c143.4,0,299.6,0,444.2,0"/>
				<line class="st8" x1="1889.6" y1="370.2" x2="1889.6" y2="370.2"/>
			</g>
		</g>
		<g>
			<g>
				<line class="st8" x1="1435" y1="392.9" x2="1435" y2="392.9"/>
				<path class="st9" d="M1442,392.9c143.4,0,299.6,0,444.2,0"/>
				<line class="st8" x1="1889.6" y1="392.9" x2="1889.6" y2="392.9"/>
			</g>
		</g>
	</g>
	<g>
		<defs>
			<path id="SVGID_1_" d="M1895.2,0H712.8c-3.2,11-5.8,22.3-7.4,33.6c-0.1,0.8-0.2,1.5-0.3,2.3c-0.1,1.1-0.3,2.1-0.4,3.2
				c-2.8,25.2-1.1,50.4,5.2,74.8c14.1,51.9,49.1,97.3,94.4,132.5c13.6,10.6,27.9,20.3,41,31.2c13.2,11,25.8,22.5,37.5,34.8
				c23,24,43.2,50.2,59.2,78.4c31.8,55.9,47.5,118.8,38.4,181.4c-8.6,59-40.1,118.9-88.2,160.5c-41.5,35.9-95.2,56.2-151.9,63.5
				c-14,1.8-27.9,2.8-41.8,3.3c-23.9,0.9-47.9,0.3-71.6-1.3c-3.8-0.3-7.6-0.5-11.5-0.8c-5.8-0.4-11.6-0.8-17.4-1.2
				c-38.1-2.6-76.2-4.9-114.3-5.5c-61.3-0.7-122.8,3.3-181.9,18c-4.8,1.2-9.7,2.5-14.5,3.8c-0.2,0.1-0.5,0.1-0.7,0.2
				c-4.4,1.2-8.8,2.5-13.1,3.9c-0.8,0.3-1.6,0.5-2.4,0.8c-3.8,1.2-7.7,2.5-11.5,3.8c-1.1,0.4-2.1,0.7-3.2,1.1
				c-3.7,1.3-7.3,2.6-10.9,4c-0.9,0.4-1.9,0.7-2.8,1.1c-4,1.5-7.9,3.1-11.8,4.8c-0.4,0.2-0.8,0.3-1.2,0.5
				c-13.6,5.8-26.9,12.2-39.7,19.4c-34.1,19.1-65.9,42-95.7,66c-31.1,25-66.7,51.8-94.2,80v75.8c0,7.8,7.1,14.2,15.9,14.2h1879.3
				c8.8,0,15.9-6.3,15.9-14.2V14.2C1911.1,6.3,1904,0,1895.2,0z"/>
		</defs>
		<clipPath id="SVGID_2_">
			<use xlink:href="#SVGID_1_"  style="overflow:visible;"/>
		</clipPath>
		<g class="st10">
			<path class="st11" d="M784.9-16.2c-5.8,15.1-10.3,30.6-12.7,46.5c-1.2,7.9-1.9,15.9-2,23.9c-0.1,8,0.5,16,1.6,23.9
				c2.3,15.8,7.4,31.1,14.5,45.6c3.6,7.2,7.6,14.2,12,21c4.4,6.8,9.2,13.3,14.3,19.6c10.1,12.7,21.3,24.6,32.8,36.2
				C857,211.8,869,223,881.1,234l36.5,33.1c6.1,5.6,12.1,11.1,18.1,16.8c6,5.7,11.8,11.6,17.4,17.7c11.2,12.2,21.6,25.1,31,38.7
				c9.3,13.6,17.7,28,24.8,42.9c14.2,29.8,23.4,62.1,26.5,95c3.2,32.9,0.2,66.2-8.3,98.1c-4.2,15.9-9.8,31.5-16.5,46.5
				c-6.7,15-14.6,29.5-23.4,43.3c8.6-14,16.3-28.5,22.9-43.6c6.5-15.1,11.9-30.6,15.9-46.5c8.1-31.8,10.6-65,7.1-97.5
				c-3.5-32.5-13-64.3-27.4-93.6c-7.2-14.7-15.6-28.7-25-42.1c-9.4-13.3-19.8-26-31-37.8c-5.6-5.9-11.4-11.7-17.4-17.2
				c-6-5.6-12.1-11.1-18.2-16.5l-36.9-32.7c-12.3-10.9-24.5-22-36.4-33.5c-11.8-11.5-23.3-23.5-33.8-36.4
				c-5.3-6.4-10.3-13.1-14.9-20c-4.6-6.9-8.9-14.2-12.8-21.6c-7.6-15-13.2-31.1-15.9-47.8c-1.3-8.3-2.1-16.8-2.1-25.2
				c0-8.4,0.6-16.9,1.8-25.2c2.4-16.7,6.9-32.9,12.6-48.6L784.9-16.2z"/>
		</g>
		<g class="st10">
			<path class="st11" d="M-21.5,1089.5c26.7-22.4,52.6-46.1,78.8-69.3c26.2-23.3,52.7-46.3,80.5-68c27.7-21.6,56.7-41.9,87.6-58.8
				c15.5-8.5,31.4-16.1,47.8-22.6c8.2-3.2,16.6-6.2,25-8.7c8.5-2.6,16.9-4.8,25.5-6.9c34.3-8.2,69.4-12.2,104.5-13.4
				c35.1-1.2,70.2,0.2,105.2,1.9c35,1.7,70,3.7,105,3.7c35,0.1,70.1-1.9,104.7-7.3c-34.5,5.9-69.6,8.3-104.7,8.6
				c-35.1,0.4-70.1-1.2-105.1-2.5c-35-1.3-70-2.3-104.9-0.6c-34.9,1.6-69.7,6-103.5,14.5c-8.4,2.1-16.8,4.5-25.1,7.1
				c-8.3,2.6-16.4,5.6-24.5,8.9c-16.1,6.5-31.7,14.3-46.9,22.8c-30.3,17.1-58.7,37.5-86,59.3c-27.3,21.8-53.4,45-79.3,68.6
				c-25.9,23.5-51.5,47.5-78.2,70.5L-21.5,1089.5z"/>
		</g>
	</g>
</g>
</svg>
