<?xml version="1.0" encoding="utf-8"?>
<!-- Generator: Adobe Illustrator 24.0.2, SVG Export Plug-In . SVG Version: 6.00 Build 0)  -->
<svg version="1.1" id="Layer_1" xmlns="http://www.w3.org/2000/svg" xmlns:xlink="http://www.w3.org/1999/xlink" x="0px" y="0px"
	 viewBox="0 0 1900 1080" style="enable-background:new 0 0 1900 1080;" xml:space="preserve">
<style type="text/css">
	.st0{fill:url(#XMLID_3_);}
	.st1{opacity:0.15;clip-path:url(#XMLID_4_);fill:#FFFFFF;}
	.st2{opacity:0.17;clip-path:url(#XMLID_4_);fill:#FFFFFF;}
	.st3{clip-path:url(#XMLID_13_);fill:#FFFFFF;}
	.st4{clip-path:url(#XMLID_13_);}
	.st5{fill:#BB80FF;}
	.st6{fill:url(#XMLID_14_);}
	.st7{fill:url(#XMLID_15_);}
	.st8{fill:url(#XMLID_17_);}
	.st9{fill:url(#XMLID_18_);}
	.st10{fill:#FFCC71;}
	.st11{fill:url(#XMLID_19_);}
	.st12{fill:url(#XMLID_20_);}
	.st13{opacity:0.35;fill:url(#XMLID_21_);}
	.st14{fill:url(#XMLID_23_);}
	.st15{opacity:0.42;fill:url(#XMLID_32_);}
	.st16{opacity:0.19;fill:url(#XMLID_33_);}
	.st17{opacity:0.42;fill:url(#XMLID_34_);}
	.st18{opacity:9.000000e-02;fill:url(#XMLID_35_);}
	.st19{opacity:9.000000e-02;fill:url(#XMLID_36_);}
	.st20{opacity:9.000000e-02;fill:url(#XMLID_37_);}
	.st21{opacity:9.000000e-02;fill:url(#XMLID_38_);}
	.st22{opacity:9.000000e-02;fill:url(#XMLID_39_);}
	.st23{opacity:9.000000e-02;fill:url(#XMLID_40_);}
	.st24{clip-path:url(#XMLID_13_);fill:#9C07C0;}
	.st25{clip-path:url(#XMLID_13_);fill:#9007BF;}
	.st26{clip-path:url(#XMLID_13_);fill:#8907BD;}
	.st27{clip-path:url(#XMLID_42_);}
	.st28{fill:#FFFFFF;}
	.st29{fill:#8907BD;}
	.st30{fill:#9C07C0;}
	.st31{opacity:0.43;}
	.st32{fill:#8107BC;}
</style>
<g>
	<g>
		
			<radialGradient id="XMLID_3_" cx="885.4488" cy="360.8922" r="531.9888" gradientTransform="matrix(3.5448 0 0 3.0224 -2692.0752 -1094.7856)" gradientUnits="userSpaceOnUse">
			<stop  offset="0" style="stop-color:#FF09D0"/>
			<stop  offset="0.9969" style="stop-color:#5406B5"/>
		</radialGradient>
		<rect id="XMLID_398_" class="st0" width="1900" height="1080"/>
		<g id="XMLID_391_">
			<defs>
				<rect id="XMLID_393_" width="1900" height="1080"/>
			</defs>
			<clipPath id="XMLID_4_">
				<use xlink:href="#XMLID_393_"  style="overflow:visible;"/>
			</clipPath>
			<path id="XMLID_397_" class="st1" d="M1764.7,829.6c-18.3-7.2-284.2-393.2-206.2-622c78-228.8-191.4-434.3-356.8-423.3
				c-165.4,11.1-301.7,660.7,7.1,904.2S1764.7,829.6,1764.7,829.6z"/>
			<path id="XMLID_396_" class="st2" d="M1690.3,925.4c-16.3,6-74.5-12.5-426.6,62.9c-352.1,75.4-719,21.5-1026.2-28.1
				c-307.2-49.6-501,131-501,131s-106.6-461.2,100.3-557c206.9-95.8,1549.7,202.1,1684.3,278.5
				C1655.7,889,1690.3,925.4,1690.3,925.4z"/>
			<path id="XMLID_395_" class="st1" d="M1778.6,852.3c-15.4-58.4-154-221.7-83.1-392.4c70.9-170.7,153-525.3,13.9-616
				s-610.3,206.4-390.1,616C1539.6,869.4,1778.6,852.3,1778.6,852.3z"/>
			<path id="XMLID_394_" class="st2" d="M1735.2,945.5c-17.5,7.2-323.2,14.6-495.7,134.5c-172.5,119.9-1165,238.8-1302.1,77.6
				c-137.1-161.2-134.7-470,293-510S1735.2,945.5,1735.2,945.5z"/>
		</g>
		<g id="XMLID_356_">
			<defs>
				<rect id="XMLID_357_" width="1900" height="1080"/>
			</defs>
			<clipPath id="XMLID_13_">
				<use xlink:href="#XMLID_357_"  style="overflow:visible;"/>
			</clipPath>
			<path id="XMLID_389_" class="st3" d="M1562.7,576.5c0,0-126.2-65.8-143.7-213.9S1544.2-40.1,1213.3-124s-645.1-40.1-992.5,13.1
				s-815.3,443.3-657,779.8S43.6,770.3,294,785.7c250.5,15.4,326,127.4,550.6,139.6c224.7,12.3,357-53.1,547.1-23.8
				C1582,930.8,1562.7,576.5,1562.7,576.5z"/>
			<g id="XMLID_365_" class="st4">
				<path id="XMLID_388_" class="st5" d="M1866.4,895.5l-80.3,106.9l44.9,24.5c12.1,6.6,28.4,3.6,36.2-6.8l52-69.2
					c7.8-10.3,4.2-24.2-7.9-30.8L1866.4,895.5z"/>
				
					<linearGradient id="XMLID_14_" gradientUnits="userSpaceOnUse" x1="-1290.8755" y1="234.1683" x2="-1290.8755" y2="97.2328" gradientTransform="matrix(-0.842 -0.5395 -0.5395 0.842 857.0062 131.7211)">
					<stop  offset="3.105590e-03" style="stop-color:#000046"/>
					<stop  offset="1" style="stop-color:#7F00FF"/>
				</linearGradient>
				<path id="XMLID_387_" class="st6" d="M1862.4,895.7l-80.3,106.9l44.9,24.5c12.1,6.6,28.4,3.6,36.2-6.8l52-69.2
					c7.8-10.3,4.2-24.2-7.9-30.8L1862.4,895.7z"/>
				<path id="XMLID_386_" class="st5" d="M1432.2,809l4.3,2.3l80.3-106.8l-4.3-2.3c-34.6-18.9-80.6-10.3-102.8,19.2l0,0
					C1387.5,750.8,1397.6,790.1,1432.2,809z"/>
				
					<radialGradient id="XMLID_15_" cx="-522.7115" cy="204.5241" r="53.1937" gradientTransform="matrix(-2.9847 -1.6306 -1.9124 2.5449 345.82 -696.6734)" gradientUnits="userSpaceOnUse">
					<stop  offset="0" style="stop-color:#7F00FF"/>
					<stop  offset="0.9969" style="stop-color:#000046"/>
				</radialGradient>
				<path id="XMLID_385_" class="st7" d="M1435,813.3l4.3,2.3l80.3-106.8l-4.3-2.3c-34.6-18.9-80.6-10.3-102.8,19.2v0
					C1390.3,755.1,1400.4,794.4,1435,813.3z"/>
				<path id="XMLID_384_" class="st5" d="M1761.5,821L1663,952.2l99.4,54.3c8,4.4,18.8,2.4,23.9-4.4l79.9-106.3
					c5.1-6.8,2.8-16.1-5.2-20.4L1761.5,821z"/>
				
					<linearGradient id="XMLID_17_" gradientUnits="userSpaceOnUse" x1="-1188.6918" y1="258.6666" x2="-1188.6918" y2="87.1604" gradientTransform="matrix(-0.842 -0.5395 -0.5395 0.842 857.0062 131.7211)">
					<stop  offset="3.105590e-03" style="stop-color:#000046"/>
					<stop  offset="1" style="stop-color:#7F00FF"/>
				</linearGradient>
				<path id="XMLID_383_" class="st8" d="M1757.7,821.8l-98.5,131.1l99.4,54.3c8,4.4,18.8,2.4,23.9-4.4l79.9-106.3
					c5.1-6.8,2.8-16.1-5.2-20.4L1757.7,821.8z"/>
				
					<linearGradient id="XMLID_18_" gradientUnits="userSpaceOnUse" x1="-1181.0107" y1="415.092" x2="-1181.0107" y2="249.1178" gradientTransform="matrix(-0.842 -0.5395 -0.5395 0.842 857.0062 131.7211)">
					<stop  offset="0" style="stop-color:#7F00FF"/>
					<stop  offset="0.9969" style="stop-color:#000046"/>
				</linearGradient>
				<path id="XMLID_382_" class="st9" d="M1690.8,967.3l-79.9,106.3c-10.3,13.7-5.6,32,10.6,40.8c16.1,8.8,37.6,4.8,47.9-8.9
					l79.9-106.3L1690.8,967.3z"/>
				<polygon id="XMLID_381_" class="st10" points="1567.2,574.5 1319,904.7 1663,952.2 1761.5,821 				"/>
				
					<linearGradient id="XMLID_19_" gradientUnits="userSpaceOnUse" x1="-685.0328" y1="41.5077" x2="-1087.0284" y2="335.3912" gradientTransform="matrix(-0.842 -0.5395 -0.5395 0.842 857.0062 131.7211)">
					<stop  offset="0" style="stop-color:#FCC947"/>
					<stop  offset="0.9938" style="stop-color:#EF8F26"/>
				</linearGradient>
				<polygon id="XMLID_380_" class="st11" points="1565.7,576.5 1317.5,906.7 1661.5,954.2 1760,823 				"/>
				
					<linearGradient id="XMLID_20_" gradientUnits="userSpaceOnUse" x1="-805.0836" y1="181.7271" x2="-1055.5049" y2="364.8004" gradientTransform="matrix(-0.842 -0.5395 -0.5395 0.842 857.0062 131.7211)">
					<stop  offset="0" style="stop-color:#FCC947"/>
					<stop  offset="0.9938" style="stop-color:#EF8F26"/>
				</linearGradient>
				<polygon id="XMLID_379_" class="st12" points="1401.4,795.1 1319,904.7 1663,952.2 1698.6,904.8 				"/>
				
					<linearGradient id="XMLID_21_" gradientUnits="userSpaceOnUse" x1="-859.0616" y1="121.4253" x2="-1068.7555" y2="274.7244" gradientTransform="matrix(-0.842 -0.5395 -0.5395 0.842 857.0062 131.7211)">
					<stop  offset="0" style="stop-color:#FCC947"/>
					<stop  offset="0.9938" style="stop-color:#EF8F26"/>
				</linearGradient>
				<polygon id="XMLID_378_" class="st13" points="1458.3,719.3 1401.4,795.1 1698.6,904.8 1730.2,862.7 				"/>
				
					<linearGradient id="XMLID_23_" gradientUnits="userSpaceOnUse" x1="-682.887" y1="95.6106" x2="-920.7887" y2="269.5315" gradientTransform="matrix(-0.842 -0.5395 -0.5395 0.842 857.0062 131.7211)">
					<stop  offset="0" style="stop-color:#FCC947"/>
					<stop  offset="0.9938" style="stop-color:#EF8F26"/>
				</linearGradient>
				<path id="XMLID_377_" class="st14" d="M1315.4,906.8l0.2,0.1c3.9,2.1,9,1.2,11.5-2.2l243.5-324c2.5-3.3,1.4-7.7-2.5-9.8
					l-0.2-0.1c-3.9-2.1-9-1.2-11.5,2.2l-243.5,324C1310.4,900.3,1311.5,904.7,1315.4,906.8z"/>
				
					<linearGradient id="XMLID_32_" gradientUnits="userSpaceOnUse" x1="-1256.3602" y1="214.1396" x2="-1121.2295" y2="214.1396" gradientTransform="matrix(-0.842 -0.5395 -0.5395 0.842 857.0062 131.7211)">
					<stop  offset="0" style="stop-color:#7F00FF"/>
					<stop  offset="0.9969" style="stop-color:#000046"/>
				</linearGradient>
				<path id="XMLID_376_" class="st15" d="M1707.9,892.3l-44.9,59.8l99.4,54.3c8,4.4,18.8,2.4,23.9-4.4l35.6-47.4L1707.9,892.3z"/>
				
					<linearGradient id="XMLID_33_" gradientUnits="userSpaceOnUse" x1="-1331.6565" y1="204.4053" x2="-1251.911" y2="204.4053" gradientTransform="matrix(-0.842 -0.5395 -0.5395 0.842 857.0062 131.7211)">
					<stop  offset="0" style="stop-color:#7F00FF"/>
					<stop  offset="0.9969" style="stop-color:#000046"/>
				</linearGradient>
				<path id="XMLID_375_" class="st16" d="M1815.9,962.6l-29.8,39.7l44.9,24.5c12.1,6.6,28.4,3.6,36.2-6.8l15.7-20.8L1815.9,962.6z"
					/>
				
					<linearGradient id="XMLID_34_" gradientUnits="userSpaceOnUse" x1="-1174.5311" y1="415.092" x2="-1174.5311" y2="252.4189" gradientTransform="matrix(-0.842 -0.5395 -0.5395 0.842 857.0062 131.7211)">
					<stop  offset="0" style="stop-color:#7F00FF"/>
					<stop  offset="0.9969" style="stop-color:#000046"/>
				</linearGradient>
				<path id="XMLID_374_" class="st17" d="M1690.8,967.3l-79.9,106.3c-10.3,13.7-5.6,32,10.6,40.8c12.6,6.9,28.2,5.9,39.4-1.2
					c-4.1-0.7-8-2-11.6-4c-16.1-8.8-20.8-27.1-10.6-40.8l69-91.9L1690.8,967.3z"/>
				
					<linearGradient id="XMLID_35_" gradientUnits="userSpaceOnUse" x1="-1234.5175" y1="90.6388" x2="-1231.6654" y2="151.1035" gradientTransform="matrix(-0.842 -0.5395 -0.5395 0.842 857.0062 131.7211)">
					<stop  offset="0" style="stop-color:#7F00FF"/>
					<stop  offset="0.9969" style="stop-color:#000046"/>
				</linearGradient>
				<path id="XMLID_373_" class="st18" d="M1813.6,920.8L1813.6,920.8c1.6,0.9,3.7,0.5,4.7-0.9l24.5-32.6c1-1.3,0.5-3.1-1-4l0,0
					c-1.6-0.9-3.7-0.5-4.7,0.9l-24.5,32.6C1811.6,918.2,1812,920,1813.6,920.8z"/>
				
					<linearGradient id="XMLID_36_" gradientUnits="userSpaceOnUse" x1="-1212.3624" y1="92.1882" x2="-1209.5104" y2="152.6529" gradientTransform="matrix(-0.842 -0.5395 -0.5395 0.842 857.0062 131.7211)">
					<stop  offset="0" style="stop-color:#7F00FF"/>
					<stop  offset="0.9969" style="stop-color:#000046"/>
				</linearGradient>
				<path id="XMLID_372_" class="st19" d="M1794.1,910.2L1794.1,910.2c1.6,0.9,3.7,0.5,4.7-0.9l24.5-32.6c1-1.3,0.5-3.1-1-4l0,0
					c-1.6-0.9-3.7-0.5-4.7,0.9l-24.5,32.6C1792.1,907.5,1792.6,909.3,1794.1,910.2z"/>
				
					<linearGradient id="XMLID_37_" gradientUnits="userSpaceOnUse" x1="-1315.6648" y1="103.6216" x2="-1312.8127" y2="164.0863" gradientTransform="matrix(-0.842 -0.5395 -0.5395 0.842 857.0062 131.7211)">
					<stop  offset="0" style="stop-color:#7F00FF"/>
					<stop  offset="0.9969" style="stop-color:#000046"/>
				</linearGradient>
				<path id="XMLID_371_" class="st20" d="M1874.9,975.5L1874.9,975.5c1.6,0.9,3.7,0.5,4.7-0.9l24.5-32.6c1-1.3,0.5-3.1-1-4l0,0
					c-1.6-0.9-3.7-0.5-4.7,0.9l-24.5,32.6C1872.9,972.9,1873.4,974.7,1874.9,975.5z"/>
				
					<linearGradient id="XMLID_38_" gradientUnits="userSpaceOnUse" x1="-1290.1716" y1="105.4045" x2="-1287.3196" y2="165.8695" gradientTransform="matrix(-0.842 -0.5395 -0.5395 0.842 857.0062 131.7211)">
					<stop  offset="0" style="stop-color:#7F00FF"/>
					<stop  offset="0.9969" style="stop-color:#000046"/>
				</linearGradient>
				<path id="XMLID_370_" class="st21" d="M1852.5,963.3L1852.5,963.3c1.6,0.9,3.7,0.5,4.7-0.9l24.5-32.6c1-1.3,0.5-3.1-1-4l0,0
					c-1.6-0.9-3.7-0.5-4.7,0.9l-24.5,32.6C1850.5,960.6,1850.9,962.4,1852.5,963.3z"/>
				
					<linearGradient id="XMLID_39_" gradientUnits="userSpaceOnUse" x1="-1190.2078" y1="93.7378" x2="-1187.3557" y2="154.2028" gradientTransform="matrix(-0.842 -0.5395 -0.5395 0.842 857.0062 131.7211)">
					<stop  offset="0" style="stop-color:#7F00FF"/>
					<stop  offset="0.9969" style="stop-color:#000046"/>
				</linearGradient>
				<path id="XMLID_369_" class="st22" d="M1774.6,899.5L1774.6,899.5c1.6,0.9,3.7,0.5,4.7-0.9l24.5-32.6c1-1.3,0.5-3.1-1-4l0,0
					c-1.6-0.9-3.7-0.5-4.7,0.9l-24.5,32.6C1772.6,896.9,1773.1,898.7,1774.6,899.5z"/>
				
					<linearGradient id="XMLID_40_" gradientUnits="userSpaceOnUse" x1="-1168.0529" y1="95.2873" x2="-1165.2008" y2="155.7523" gradientTransform="matrix(-0.842 -0.5395 -0.5395 0.842 857.0062 131.7211)">
					<stop  offset="0" style="stop-color:#7F00FF"/>
					<stop  offset="0.9969" style="stop-color:#000046"/>
				</linearGradient>
				<path id="XMLID_368_" class="st23" d="M1755.1,888.9L1755.1,888.9c1.6,0.9,3.7,0.5,4.7-0.9l24.5-32.6c1-1.3,0.5-3.1-1-4l0,0
					c-1.6-0.9-3.7-0.5-4.7,0.9l-24.5,32.6C1753.1,886.2,1753.6,888,1755.1,888.9z"/>
				<path id="XMLID_367_" class="st10" d="M1634.3,698.1L1634.3,698.1c3.5-1.9,4.5-5.9,2.2-8.9l-55.2-72.6c-2.3-3-6.9-3.8-10.4-1.9
					l0,0c-3.5,1.9-4.5,5.9-2.2,8.9l55.2,72.6C1626.1,699.2,1630.7,700.1,1634.3,698.1z"/>
				<path id="XMLID_366_" class="st10" d="M1663.2,735.2L1663.2,735.2c3.5-1.9,4.5-5.9,2.2-8.9l-12.4-16.4c-2.3-3-6.9-3.8-10.4-1.9
					l0,0c-3.5,1.9-4.5,5.9-2.2,8.9l12.4,16.4C1655.1,736.2,1659.7,737.1,1663.2,735.2z"/>
			</g>
			<path id="XMLID_364_" class="st24" d="M1397.6,450.3c-29.8-32.7-109-97.9-89.2-150.8c19.7-52.9,105.4-69.5,87.4,5
				C1377.7,379,1443.8,500.8,1397.6,450.3z"/>
			<path id="XMLID_363_" class="st3" d="M1533.6,536.1c-27.1-34.4-100.6-104.2-76.6-155.8c24-51.6,110.8-63,86.7,10.3
				C1519.7,463.8,1575.5,589.3,1533.6,536.1z"/>
			<path id="XMLID_362_" class="st3" d="M1274.7,907.3c-33.5,2.2-109.3-2.1-131.9,31.1c-22.6,33.2,32.8,66.1,69.1,23.6
				C1248.3,919.6,1326.5,904,1274.7,907.3z"/>
			<path id="XMLID_361_" class="st3" d="M346.3,811.7c-6.5-1.5-13.2-2.6-19.9-3.2c-27.5-2.8-100.5-7.8-104,18.3
				c-4.3,32.1,34.6,73.6,75.4,70c40.7-3.6,146.9-14.6,143.5-40.9C438.4,834.5,371.6,817.4,346.3,811.7z"/>
			<path id="XMLID_360_" class="st25" d="M1436.8,575.8c-1.6-3.1-3.4-6.2-5.3-9.2c-8-12.3-30.5-44.4-42.4-39.7
				c-14.7,5.9-18.8,32.2-3.7,48.6c15.2,16.4,55.3,58.7,65,51C1458.3,620.2,1442.9,587.9,1436.8,575.8z"/>
			<path id="XMLID_359_" class="st26" d="M1174.1,730c-4.6,13.9,28,31.6,51.7,32.6c23.8,1,72.9,5.9,72.7-5.9
				C1298.4,747.2,1188.7,697.9,1174.1,730z"/>
			<path id="XMLID_358_" class="st26" d="M1225.6,871.6c0,0-62.9,0.6-147.1,14.2c-84.2,13.6-181.4-13-122.7-70.6
				C1014.4,757.6,1315.2,874.4,1225.6,871.6z"/>
		</g>
		<g id="XMLID_353_">
			<defs>
				<rect id="XMLID_354_" width="1900" height="1080"/>
			</defs>
			<clipPath id="XMLID_41_">
				<use xlink:href="#XMLID_354_"  style="overflow:visible;"/>
			</clipPath>
		</g>
		<g id="XMLID_26_">
			<defs>
				<rect id="XMLID_27_" width="1900" height="1080"/>
			</defs>
			<clipPath id="XMLID_42_">
				<use xlink:href="#XMLID_27_"  style="overflow:visible;"/>
			</clipPath>
			<g id="XMLID_242_" class="st27">
				<g id="XMLID_338_">
					<path id="XMLID_352_" class="st28" d="M1665.2,161.1c0,2.9-2.8,5.3-6.2,5.3c-3.4,0-6.2-2.4-6.2-5.3c0-2.9,2.8-5.3,6.2-5.3
						C1662.4,155.8,1665.2,158.2,1665.2,161.1z"/>
					<path id="XMLID_351_" class="st28" d="M1735.5,161.1c0,2.9-2.8,5.3-6.2,5.3c-3.4,0-6.2-2.4-6.2-5.3c0-2.9,2.8-5.3,6.2-5.3
						C1732.8,155.8,1735.5,158.2,1735.5,161.1z"/>
					<path id="XMLID_350_" class="st28" d="M1805.8,161.1c0,2.9-2.8,5.3-6.2,5.3c-3.4,0-6.2-2.4-6.2-5.3c0-2.9,2.8-5.3,6.2-5.3
						C1803.1,155.8,1805.8,158.2,1805.8,161.1z"/>
					<path id="XMLID_349_" class="st28" d="M1876.2,161.1c0,2.9-2.8,5.3-6.2,5.3c-3.4,0-6.2-2.4-6.2-5.3c0-2.9,2.8-5.3,6.2-5.3
						C1873.4,155.8,1876.2,158.2,1876.2,161.1z"/>
					<path id="XMLID_348_" class="st28" d="M1946.5,161.1c0,2.9-2.8,5.3-6.2,5.3c-3.4,0-6.2-2.4-6.2-5.3c0-2.9,2.8-5.3,6.2-5.3
						C1943.7,155.8,1946.5,158.2,1946.5,161.1z"/>
				</g>
				<g id="XMLID_330_">
					<ellipse id="XMLID_337_" class="st28" cx="1659" cy="212.5" rx="6.2" ry="5.3"/>
					<path id="XMLID_336_" class="st28" d="M1735.5,212.5c0,2.9-2.8,5.3-6.2,5.3c-3.4,0-6.2-2.4-6.2-5.3c0-2.9,2.8-5.3,6.2-5.3
						C1732.8,207.3,1735.5,209.6,1735.5,212.5z"/>
					<path id="XMLID_333_" class="st28" d="M1805.8,212.5c0,2.9-2.8,5.3-6.2,5.3c-3.4,0-6.2-2.4-6.2-5.3c0-2.9,2.8-5.3,6.2-5.3
						C1803.1,207.3,1805.8,209.6,1805.8,212.5z"/>
					<path id="XMLID_332_" class="st28" d="M1876.2,212.5c0,2.9-2.8,5.3-6.2,5.3c-3.4,0-6.2-2.4-6.2-5.3c0-2.9,2.8-5.3,6.2-5.3
						C1873.4,207.3,1876.2,209.6,1876.2,212.5z"/>
					<path id="XMLID_331_" class="st28" d="M1946.5,212.5c0,2.9-2.8,5.3-6.2,5.3c-3.4,0-6.2-2.4-6.2-5.3c0-2.9,2.8-5.3,6.2-5.3
						C1943.7,207.3,1946.5,209.6,1946.5,212.5z"/>
				</g>
				<g id="XMLID_261_">
					<ellipse id="XMLID_329_" class="st28" cx="1659" cy="263.9" rx="6.2" ry="5.3"/>
					<path id="XMLID_328_" class="st28" d="M1735.5,263.9c0,2.9-2.8,5.3-6.2,5.3c-3.4,0-6.2-2.4-6.2-5.3s2.8-5.3,6.2-5.3
						C1732.8,258.7,1735.5,261,1735.5,263.9z"/>
					<path id="XMLID_327_" class="st28" d="M1805.8,263.9c0,2.9-2.8,5.3-6.2,5.3c-3.4,0-6.2-2.4-6.2-5.3s2.8-5.3,6.2-5.3
						C1803.1,258.7,1805.8,261,1805.8,263.9z"/>
					<path id="XMLID_326_" class="st28" d="M1876.2,263.9c0,2.9-2.8,5.3-6.2,5.3c-3.4,0-6.2-2.4-6.2-5.3s2.8-5.3,6.2-5.3
						C1873.4,258.7,1876.2,261,1876.2,263.9z"/>
					<path id="XMLID_262_" class="st28" d="M1946.5,263.9c0,2.9-2.8,5.3-6.2,5.3c-3.4,0-6.2-2.4-6.2-5.3s2.8-5.3,6.2-5.3
						C1943.7,258.7,1946.5,261,1946.5,263.9z"/>
				</g>
				<g id="XMLID_255_">
					<ellipse id="XMLID_260_" class="st28" cx="1659" cy="315.4" rx="6.2" ry="5.3"/>
					<path id="XMLID_259_" class="st28" d="M1735.5,315.4c0,2.9-2.8,5.3-6.2,5.3c-3.4,0-6.2-2.4-6.2-5.3s2.8-5.3,6.2-5.3
						C1732.8,310.1,1735.5,312.4,1735.5,315.4z"/>
					<path id="XMLID_258_" class="st28" d="M1805.8,315.4c0,2.9-2.8,5.3-6.2,5.3c-3.4,0-6.2-2.4-6.2-5.3s2.8-5.3,6.2-5.3
						C1803.1,310.1,1805.8,312.4,1805.8,315.4z"/>
					<path id="XMLID_257_" class="st28" d="M1876.2,315.4c0,2.9-2.8,5.3-6.2,5.3c-3.4,0-6.2-2.4-6.2-5.3s2.8-5.3,6.2-5.3
						C1873.4,310.1,1876.2,312.4,1876.2,315.4z"/>
					<path id="XMLID_256_" class="st28" d="M1946.5,315.4c0,2.9-2.8,5.3-6.2,5.3c-3.4,0-6.2-2.4-6.2-5.3s2.8-5.3,6.2-5.3
						C1943.7,310.1,1946.5,312.4,1946.5,315.4z"/>
				</g>
				<g id="XMLID_243_">
					<ellipse id="XMLID_254_" class="st28" cx="1659" cy="366.8" rx="6.2" ry="5.3"/>
					<path id="XMLID_253_" class="st28" d="M1735.5,366.8c0,2.9-2.8,5.3-6.2,5.3c-3.4,0-6.2-2.4-6.2-5.3s2.8-5.3,6.2-5.3
						C1732.8,361.5,1735.5,363.9,1735.5,366.8z"/>
					<path id="XMLID_252_" class="st28" d="M1805.8,366.8c0,2.9-2.8,5.3-6.2,5.3c-3.4,0-6.2-2.4-6.2-5.3s2.8-5.3,6.2-5.3
						C1803.1,361.5,1805.8,363.9,1805.8,366.8z"/>
					<path id="XMLID_251_" class="st28" d="M1876.2,366.8c0,2.9-2.8,5.3-6.2,5.3c-3.4,0-6.2-2.4-6.2-5.3s2.8-5.3,6.2-5.3
						C1873.4,361.5,1876.2,363.9,1876.2,366.8z"/>
					<path id="XMLID_250_" class="st28" d="M1946.5,366.8c0,2.9-2.8,5.3-6.2,5.3c-3.4,0-6.2-2.4-6.2-5.3s2.8-5.3,6.2-5.3
						C1943.7,361.5,1946.5,363.9,1946.5,366.8z"/>
				</g>
			</g>
			<g id="XMLID_117_" class="st27">
				<g id="XMLID_215_">
					<path id="XMLID_241_" class="st28" d="M349.6,943.8c0,2.9-2.8,5.3-6.2,5.3c-3.4,0-6.2-2.4-6.2-5.3c0-2.9,2.8-5.3,6.2-5.3
						C346.9,938.5,349.6,940.9,349.6,943.8z"/>
					<path id="XMLID_240_" class="st28" d="M419.9,943.8c0,2.9-2.8,5.3-6.2,5.3s-6.2-2.4-6.2-5.3c0-2.9,2.8-5.3,6.2-5.3
						S419.9,940.9,419.9,943.8z"/>
					<path id="XMLID_218_" class="st28" d="M490.3,943.8c0,2.9-2.8,5.3-6.2,5.3c-3.4,0-6.2-2.4-6.2-5.3c0-2.9,2.8-5.3,6.2-5.3
						C487.5,938.5,490.3,940.9,490.3,943.8z"/>
					<path id="XMLID_217_" class="st28" d="M560.6,943.8c0,2.9-2.8,5.3-6.2,5.3c-3.4,0-6.2-2.4-6.2-5.3c0-2.9,2.8-5.3,6.2-5.3
						C557.8,938.5,560.6,940.9,560.6,943.8z"/>
					<path id="XMLID_216_" class="st28" d="M630.9,943.8c0,2.9-2.8,5.3-6.2,5.3c-3.4,0-6.2-2.4-6.2-5.3c0-2.9,2.8-5.3,6.2-5.3
						C628.1,938.5,630.9,940.9,630.9,943.8z"/>
				</g>
				<g id="XMLID_164_">
					<path id="XMLID_214_" class="st28" d="M349.6,995.2c0,2.9-2.8,5.3-6.2,5.3c-3.4,0-6.2-2.4-6.2-5.3c0-2.9,2.8-5.3,6.2-5.3
						C346.9,989.9,349.6,992.3,349.6,995.2z"/>
					<path id="XMLID_213_" class="st28" d="M419.9,995.2c0,2.9-2.8,5.3-6.2,5.3s-6.2-2.4-6.2-5.3c0-2.9,2.8-5.3,6.2-5.3
						S419.9,992.3,419.9,995.2z"/>
					<path id="XMLID_167_" class="st28" d="M490.3,995.2c0,2.9-2.8,5.3-6.2,5.3c-3.4,0-6.2-2.4-6.2-5.3c0-2.9,2.8-5.3,6.2-5.3
						C487.5,989.9,490.3,992.3,490.3,995.2z"/>
					<path id="XMLID_166_" class="st28" d="M560.6,995.2c0,2.9-2.8,5.3-6.2,5.3c-3.4,0-6.2-2.4-6.2-5.3c0-2.9,2.8-5.3,6.2-5.3
						C557.8,989.9,560.6,992.3,560.6,995.2z"/>
					<path id="XMLID_165_" class="st28" d="M630.9,995.2c0,2.9-2.8,5.3-6.2,5.3c-3.4,0-6.2-2.4-6.2-5.3c0-2.9,2.8-5.3,6.2-5.3
						C628.1,989.9,630.9,992.3,630.9,995.2z"/>
				</g>
				<g id="XMLID_159_">
					<path id="XMLID_163_" class="st28" d="M349.6,1046.6c0,2.9-2.8,5.3-6.2,5.3c-3.4,0-6.2-2.4-6.2-5.3c0-2.9,2.8-5.3,6.2-5.3
						C346.9,1041.4,349.6,1043.7,349.6,1046.6z"/>
					<path id="XMLID_162_" class="st28" d="M419.9,1046.6c0,2.9-2.8,5.3-6.2,5.3s-6.2-2.4-6.2-5.3c0-2.9,2.8-5.3,6.2-5.3
						S419.9,1043.7,419.9,1046.6z"/>
					<path id="XMLID_161_" class="st28" d="M490.3,1046.6c0,2.9-2.8,5.3-6.2,5.3c-3.4,0-6.2-2.4-6.2-5.3c0-2.9,2.8-5.3,6.2-5.3
						C487.5,1041.4,490.3,1043.7,490.3,1046.6z"/>
					<path id="XMLID_160_" class="st28" d="M560.6,1046.6c0,2.9-2.8,5.3-6.2,5.3c-3.4,0-6.2-2.4-6.2-5.3c0-2.9,2.8-5.3,6.2-5.3
						C557.8,1041.4,560.6,1043.7,560.6,1046.6z"/>
					<path id="XMLID_201_" class="st28" d="M630.9,1046.6c0,2.9-2.8,5.3-6.2,5.3c-3.4,0-6.2-2.4-6.2-5.3c0-2.9,2.8-5.3,6.2-5.3
						C628.1,1041.4,630.9,1043.7,630.9,1046.6z"/>
				</g>
				<g id="XMLID_127_">
					<path id="XMLID_158_" class="st28" d="M349.6,1098c0,2.9-2.8,5.3-6.2,5.3c-3.4,0-6.2-2.4-6.2-5.3c0-2.9,2.8-5.3,6.2-5.3
						C346.9,1092.8,349.6,1095.1,349.6,1098z"/>
					<path id="XMLID_131_" class="st28" d="M419.9,1098c0,2.9-2.8,5.3-6.2,5.3s-6.2-2.4-6.2-5.3c0-2.9,2.8-5.3,6.2-5.3
						S419.9,1095.1,419.9,1098z"/>
					<path id="XMLID_130_" class="st28" d="M490.3,1098c0,2.9-2.8,5.3-6.2,5.3c-3.4,0-6.2-2.4-6.2-5.3c0-2.9,2.8-5.3,6.2-5.3
						C487.5,1092.8,490.3,1095.1,490.3,1098z"/>
					<path id="XMLID_129_" class="st28" d="M560.6,1098c0,2.9-2.8,5.3-6.2,5.3c-3.4,0-6.2-2.4-6.2-5.3c0-2.9,2.8-5.3,6.2-5.3
						C557.8,1092.8,560.6,1095.1,560.6,1098z"/>
					<path id="XMLID_128_" class="st28" d="M630.9,1098c0,2.9-2.8,5.3-6.2,5.3c-3.4,0-6.2-2.4-6.2-5.3c0-2.9,2.8-5.3,6.2-5.3
						C628.1,1092.8,630.9,1095.1,630.9,1098z"/>
				</g>
				<g id="XMLID_118_">
					<path id="XMLID_126_" class="st28" d="M349.6,1149.5c0,2.9-2.8,5.3-6.2,5.3c-3.4,0-6.2-2.4-6.2-5.3c0-2.9,2.8-5.3,6.2-5.3
						C346.9,1144.2,349.6,1146.6,349.6,1149.5z"/>
					<path id="XMLID_125_" class="st28" d="M419.9,1149.5c0,2.9-2.8,5.3-6.2,5.3s-6.2-2.4-6.2-5.3c0-2.9,2.8-5.3,6.2-5.3
						S419.9,1146.6,419.9,1149.5z"/>
					<path id="XMLID_124_" class="st28" d="M490.3,1149.5c0,2.9-2.8,5.3-6.2,5.3c-3.4,0-6.2-2.4-6.2-5.3c0-2.9,2.8-5.3,6.2-5.3
						C487.5,1144.2,490.3,1146.6,490.3,1149.5z"/>
					<path id="XMLID_123_" class="st28" d="M560.6,1149.5c0,2.9-2.8,5.3-6.2,5.3c-3.4,0-6.2-2.4-6.2-5.3c0-2.9,2.8-5.3,6.2-5.3
						C557.8,1144.2,560.6,1146.6,560.6,1149.5z"/>
					<path id="XMLID_122_" class="st28" d="M630.9,1149.5c0,2.9-2.8,5.3-6.2,5.3c-3.4,0-6.2-2.4-6.2-5.3c0-2.9,2.8-5.3,6.2-5.3
						C628.1,1144.2,630.9,1146.6,630.9,1149.5z"/>
				</g>
			</g>
			<g id="XMLID_106_" class="st27">
				<g id="XMLID_267_">
					<path id="XMLID_272_" class="st29" d="M-61.7,586.7c0,2-1.9,3.6-4.3,3.6c-2.4,0-4.3-1.6-4.3-3.6c0-2,1.9-3.6,4.3-3.6
						C-63.6,583-61.7,584.6-61.7,586.7z"/>
					<path id="XMLID_271_" class="st29" d="M-13.2,586.7c0,2-1.9,3.6-4.3,3.6c-2.4,0-4.3-1.6-4.3-3.6c0-2,1.9-3.6,4.3-3.6
						C-15.1,583-13.2,584.6-13.2,586.7z"/>
					<path id="XMLID_270_" class="st29" d="M35.3,586.7c0,2-1.9,3.6-4.3,3.6c-2.4,0-4.3-1.6-4.3-3.6c0-2,1.9-3.6,4.3-3.6
						C33.4,583,35.3,584.6,35.3,586.7z"/>
					<path id="XMLID_269_" class="st29" d="M83.7,586.7c0,2-1.9,3.6-4.3,3.6c-2.4,0-4.3-1.6-4.3-3.6c0-2,1.9-3.6,4.3-3.6
						C81.8,583,83.7,584.6,83.7,586.7z"/>
					<path id="XMLID_268_" class="st29" d="M132.2,586.7c0,2-1.9,3.6-4.3,3.6c-2.4,0-4.3-1.6-4.3-3.6c0-2,1.9-3.6,4.3-3.6
						C130.3,583,132.2,584.6,132.2,586.7z"/>
				</g>
				<g id="XMLID_238_">
					<path id="XMLID_266_" class="st29" d="M-61.7,622.1c0,2-1.9,3.6-4.3,3.6c-2.4,0-4.3-1.6-4.3-3.6c0-2,1.9-3.6,4.3-3.6
						C-63.6,618.5-61.7,620.1-61.7,622.1z"/>
					<path id="XMLID_265_" class="st29" d="M-13.2,622.1c0,2-1.9,3.6-4.3,3.6c-2.4,0-4.3-1.6-4.3-3.6c0-2,1.9-3.6,4.3-3.6
						C-15.1,618.5-13.2,620.1-13.2,622.1z"/>
					<ellipse id="XMLID_264_" class="st29" cx="31" cy="622.1" rx="4.3" ry="3.6"/>
					<path id="XMLID_263_" class="st29" d="M83.7,622.1c0,2-1.9,3.6-4.3,3.6c-2.4,0-4.3-1.6-4.3-3.6c0-2,1.9-3.6,4.3-3.6
						C81.8,618.5,83.7,620.1,83.7,622.1z"/>
					<path id="XMLID_239_" class="st29" d="M132.2,622.1c0,2-1.9,3.6-4.3,3.6c-2.4,0-4.3-1.6-4.3-3.6c0-2,1.9-3.6,4.3-3.6
						C130.3,618.5,132.2,620.1,132.2,622.1z"/>
				</g>
				<g id="XMLID_232_">
					<path id="XMLID_116_" class="st29" d="M-61.7,657.5c0,2-1.9,3.6-4.3,3.6c-2.4,0-4.3-1.6-4.3-3.6c0-2,1.9-3.6,4.3-3.6
						C-63.6,653.9-61.7,655.5-61.7,657.5z"/>
					<path id="XMLID_115_" class="st29" d="M-13.2,657.5c0,2-1.9,3.6-4.3,3.6c-2.4,0-4.3-1.6-4.3-3.6c0-2,1.9-3.6,4.3-3.6
						C-15.1,653.9-13.2,655.5-13.2,657.5z"/>
					<path id="XMLID_114_" class="st29" d="M35.3,657.5c0,2-1.9,3.6-4.3,3.6c-2.4,0-4.3-1.6-4.3-3.6c0-2,1.9-3.6,4.3-3.6
						C33.4,653.9,35.3,655.5,35.3,657.5z"/>
					<path id="XMLID_234_" class="st29" d="M83.7,657.5c0,2-1.9,3.6-4.3,3.6c-2.4,0-4.3-1.6-4.3-3.6c0-2,1.9-3.6,4.3-3.6
						C81.8,653.9,83.7,655.5,83.7,657.5z"/>
					<path id="XMLID_233_" class="st29" d="M132.2,657.5c0,2-1.9,3.6-4.3,3.6c-2.4,0-4.3-1.6-4.3-3.6c0-2,1.9-3.6,4.3-3.6
						C130.3,653.9,132.2,655.5,132.2,657.5z"/>
				</g>
				<g id="XMLID_226_">
					<path id="XMLID_113_" class="st29" d="M-61.7,693c0,2-1.9,3.6-4.3,3.6c-2.4,0-4.3-1.6-4.3-3.6c0-2,1.9-3.6,4.3-3.6
						C-63.6,689.3-61.7,691-61.7,693z"/>
					<path id="XMLID_230_" class="st29" d="M-13.2,693c0,2-1.9,3.6-4.3,3.6c-2.4,0-4.3-1.6-4.3-3.6c0-2,1.9-3.6,4.3-3.6
						C-15.1,689.3-13.2,691-13.2,693z"/>
					<path id="XMLID_108_" class="st29" d="M35.3,693c0,2-1.9,3.6-4.3,3.6c-2.4,0-4.3-1.6-4.3-3.6c0-2,1.9-3.6,4.3-3.6
						C33.4,689.3,35.3,691,35.3,693z"/>
					<path id="XMLID_228_" class="st29" d="M83.7,693c0,2-1.9,3.6-4.3,3.6c-2.4,0-4.3-1.6-4.3-3.6c0-2,1.9-3.6,4.3-3.6
						C81.8,689.3,83.7,691,83.7,693z"/>
					<path id="XMLID_227_" class="st29" d="M132.2,693c0,2-1.9,3.6-4.3,3.6c-2.4,0-4.3-1.6-4.3-3.6c0-2,1.9-3.6,4.3-3.6
						C130.3,689.3,132.2,691,132.2,693z"/>
				</g>
				<g id="XMLID_220_">
					<path id="XMLID_225_" class="st29" d="M-61.7,728.4c0,2-1.9,3.6-4.3,3.6c-2.4,0-4.3-1.6-4.3-3.6c0-2,1.9-3.6,4.3-3.6
						C-63.6,724.8-61.7,726.4-61.7,728.4z"/>
					<path id="XMLID_224_" class="st29" d="M-13.2,728.4c0,2-1.9,3.6-4.3,3.6c-2.4,0-4.3-1.6-4.3-3.6c0-2,1.9-3.6,4.3-3.6
						C-15.1,724.8-13.2,726.4-13.2,728.4z"/>
					<path id="XMLID_223_" class="st29" d="M35.3,728.4c0,2-1.9,3.6-4.3,3.6c-2.4,0-4.3-1.6-4.3-3.6c0-2,1.9-3.6,4.3-3.6
						C33.4,724.8,35.3,726.4,35.3,728.4z"/>
					<path id="XMLID_222_" class="st29" d="M83.7,728.4c0,2-1.9,3.6-4.3,3.6c-2.4,0-4.3-1.6-4.3-3.6c0-2,1.9-3.6,4.3-3.6
						C81.8,724.8,83.7,726.4,83.7,728.4z"/>
					<path id="XMLID_221_" class="st29" d="M132.2,728.4c0,2-1.9,3.6-4.3,3.6c-2.4,0-4.3-1.6-4.3-3.6c0-2,1.9-3.6,4.3-3.6
						C130.3,724.8,132.2,726.4,132.2,728.4z"/>
				</g>
			</g>
			<g id="XMLID_273_" class="st27">
				<g id="XMLID_96_">
					<path id="XMLID_104_" class="st29" d="M1005.7,182.9c0,1.7-1.6,3.1-3.6,3.1c-2,0-3.6-1.4-3.6-3.1c0-1.7,1.6-3.1,3.6-3.1
						C1004.1,179.8,1005.7,181.2,1005.7,182.9z"/>
					<path id="XMLID_103_" class="st29" d="M1047.2,182.9c0,1.7-1.6,3.1-3.6,3.1c-2,0-3.6-1.4-3.6-3.1c0-1.7,1.6-3.1,3.6-3.1
						C1045.5,179.8,1047.2,181.2,1047.2,182.9z"/>
					<path id="XMLID_102_" class="st29" d="M1088.6,182.9c0,1.7-1.6,3.1-3.6,3.1c-2,0-3.6-1.4-3.6-3.1c0-1.7,1.6-3.1,3.6-3.1
						C1087,179.8,1088.6,181.2,1088.6,182.9z"/>
					<path id="XMLID_101_" class="st29" d="M1130.1,182.9c0,1.7-1.6,3.1-3.6,3.1c-2,0-3.6-1.4-3.6-3.1c0-1.7,1.6-3.1,3.6-3.1
						C1128.5,179.8,1130.1,181.2,1130.1,182.9z"/>
					<path id="XMLID_97_" class="st29" d="M1171.5,182.9c0,1.7-1.6,3.1-3.6,3.1c-2,0-3.6-1.4-3.6-3.1c0-1.7,1.6-3.1,3.6-3.1
						C1169.9,179.8,1171.5,181.2,1171.5,182.9z"/>
				</g>
				<g id="XMLID_90_">
					<path id="XMLID_95_" class="st29" d="M1005.7,213.2c0,1.7-1.6,3.1-3.6,3.1c-2,0-3.6-1.4-3.6-3.1c0-1.7,1.6-3.1,3.6-3.1
						C1004.1,210.1,1005.7,211.5,1005.7,213.2z"/>
					<path id="XMLID_94_" class="st29" d="M1047.2,213.2c0,1.7-1.6,3.1-3.6,3.1c-2,0-3.6-1.4-3.6-3.1c0-1.7,1.6-3.1,3.6-3.1
						C1045.5,210.1,1047.2,211.5,1047.2,213.2z"/>
					<path id="XMLID_93_" class="st29" d="M1088.6,213.2c0,1.7-1.6,3.1-3.6,3.1c-2,0-3.6-1.4-3.6-3.1c0-1.7,1.6-3.1,3.6-3.1
						C1087,210.1,1088.6,211.5,1088.6,213.2z"/>
					<path id="XMLID_92_" class="st29" d="M1130.1,213.2c0,1.7-1.6,3.1-3.6,3.1c-2,0-3.6-1.4-3.6-3.1c0-1.7,1.6-3.1,3.6-3.1
						C1128.5,210.1,1130.1,211.5,1130.1,213.2z"/>
					<path id="XMLID_91_" class="st29" d="M1171.5,213.2c0,1.7-1.6,3.1-3.6,3.1c-2,0-3.6-1.4-3.6-3.1c0-1.7,1.6-3.1,3.6-3.1
						C1169.9,210.1,1171.5,211.5,1171.5,213.2z"/>
				</g>
				<g id="XMLID_286_">
					<path id="XMLID_89_" class="st29" d="M1005.7,243.5c0,1.7-1.6,3.1-3.6,3.1c-2,0-3.6-1.4-3.6-3.1c0-1.7,1.6-3.1,3.6-3.1
						C1004.1,240.4,1005.7,241.8,1005.7,243.5z"/>
					<ellipse id="XMLID_31_" class="st29" cx="1043.5" cy="243.5" rx="3.6" ry="3.1"/>
					<path id="XMLID_30_" class="st29" d="M1088.6,243.5c0,1.7-1.6,3.1-3.6,3.1c-2,0-3.6-1.4-3.6-3.1c0-1.7,1.6-3.1,3.6-3.1
						C1087,240.4,1088.6,241.8,1088.6,243.5z"/>
					<ellipse id="XMLID_29_" class="st29" cx="1126.4" cy="243.5" rx="3.6" ry="3.1"/>
					<path id="XMLID_28_" class="st29" d="M1171.5,243.5c0,1.7-1.6,3.1-3.6,3.1c-2,0-3.6-1.4-3.6-3.1c0-1.7,1.6-3.1,3.6-3.1
						C1169.9,240.4,1171.5,241.8,1171.5,243.5z"/>
				</g>
				<g id="XMLID_280_">
					<path id="XMLID_285_" class="st29" d="M1005.7,273.8c0,1.7-1.6,3.1-3.6,3.1c-2,0-3.6-1.4-3.6-3.1s1.6-3.1,3.6-3.1
						C1004.1,270.7,1005.7,272.1,1005.7,273.8z"/>
					<ellipse id="XMLID_284_" class="st29" cx="1043.5" cy="273.8" rx="3.6" ry="3.1"/>
					<path id="XMLID_283_" class="st29" d="M1088.6,273.8c0,1.7-1.6,3.1-3.6,3.1c-2,0-3.6-1.4-3.6-3.1s1.6-3.1,3.6-3.1
						C1087,270.7,1088.6,272.1,1088.6,273.8z"/>
					<ellipse id="XMLID_282_" class="st29" cx="1126.4" cy="273.8" rx="3.6" ry="3.1"/>
					<path id="XMLID_281_" class="st29" d="M1171.5,273.8c0,1.7-1.6,3.1-3.6,3.1c-2,0-3.6-1.4-3.6-3.1s1.6-3.1,3.6-3.1
						C1169.9,270.7,1171.5,272.1,1171.5,273.8z"/>
				</g>
				<g id="XMLID_274_">
					<path id="XMLID_279_" class="st29" d="M1005.7,304.2c0,1.7-1.6,3.1-3.6,3.1c-2,0-3.6-1.4-3.6-3.1c0-1.7,1.6-3.1,3.6-3.1
						C1004.1,301.1,1005.7,302.4,1005.7,304.2z"/>
					<path id="XMLID_278_" class="st29" d="M1047.2,304.2c0,1.7-1.6,3.1-3.6,3.1c-2,0-3.6-1.4-3.6-3.1c0-1.7,1.6-3.1,3.6-3.1
						C1045.5,301.1,1047.2,302.4,1047.2,304.2z"/>
					<path id="XMLID_277_" class="st29" d="M1088.6,304.2c0,1.7-1.6,3.1-3.6,3.1c-2,0-3.6-1.4-3.6-3.1c0-1.7,1.6-3.1,3.6-3.1
						C1087,301.1,1088.6,302.4,1088.6,304.2z"/>
					<path id="XMLID_276_" class="st29" d="M1130.1,304.2c0,1.7-1.6,3.1-3.6,3.1c-2,0-3.6-1.4-3.6-3.1c0-1.7,1.6-3.1,3.6-3.1
						C1128.5,301.1,1130.1,302.4,1130.1,304.2z"/>
					<path id="XMLID_275_" class="st29" d="M1171.5,304.2c0,1.7-1.6,3.1-3.6,3.1c-2,0-3.6-1.4-3.6-3.1c0-1.7,1.6-3.1,3.6-3.1
						C1169.9,301.1,1171.5,302.4,1171.5,304.2z"/>
				</g>
			</g>
		</g>
		<g id="XMLID_119_">
			<path id="XMLID_121_" class="st30" d="M1309.7,219.3L1309.7,219.3c-2,1.7-5.2,1.7-7.1,0l-25.8-22c-2-1.7-2-4.4,0-6.1l0,0
				c2-1.7,5.2-1.7,7.1,0l25.8,22C1311.6,214.9,1311.6,217.7,1309.7,219.3z"/>
			<path id="XMLID_25_" class="st30" d="M1276.7,219.3L1276.7,219.3c-2-1.7-2-4.4,0-6.1l25.8-22c2-1.7,5.2-1.7,7.1,0l0,0
				c2,1.7,2,4.4,0,6.1l-25.8,22C1281.9,221,1278.7,221,1276.7,219.3z"/>
		</g>
		<g id="XMLID_12_">
			<path id="XMLID_24_" class="st30" d="M165.9,371.2L165.9,371.2c-2,1.7-5.2,1.7-7.1,0l-25.8-22c-2-1.7-2-4.4,0-6.1l0,0
				c2-1.7,5.2-1.7,7.1,0l25.8,22C167.8,366.8,167.8,369.5,165.9,371.2z"/>
			<path id="XMLID_22_" class="st30" d="M132.9,371.2L132.9,371.2c-2-1.7-2-4.4,0-6.1l25.8-22c2-1.7,5.2-1.7,7.1,0l0,0
				c2,1.7,2,4.4,0,6.1l-25.8,22C138.1,372.9,134.9,372.9,132.9,371.2z"/>
		</g>
		<g id="XMLID_98_" class="st31">
			<path id="XMLID_100_" class="st28" d="M147.9,916.7L147.9,916.7c-2,1.7-5.2,1.7-7.1,0l-25.8-22c-2-1.7-2-4.4,0-6.1l0,0
				c2-1.7,5.2-1.7,7.1,0l25.8,22C149.9,912.3,149.9,915.1,147.9,916.7z"/>
			<path id="XMLID_99_" class="st28" d="M115,916.7L115,916.7c-2-1.7-2-4.4,0-6.1l25.8-22c2-1.7,5.2-1.7,7.1,0l0,0
				c2,1.7,2,4.4,0,6.1l-25.8,22C120.1,918.4,116.9,918.4,115,916.7z"/>
		</g>
		<g id="XMLID_9_">
			<path id="XMLID_11_" class="st28" d="M1792.4,609.8L1792.4,609.8c-1.1,1-2.9,1-4,0l-14.7-12.5c-1.1-1-1.1-2.5,0-3.4l0,0
				c1.1-1,2.9-1,4,0l14.7,12.5C1793.5,607.3,1793.5,608.9,1792.4,609.8z"/>
			<path id="XMLID_10_" class="st28" d="M1773.7,609.8L1773.7,609.8c-1.1-1-1.1-2.5,0-3.4l14.7-12.5c1.1-1,2.9-1,4,0l0,0
				c1.1,1,1.1,2.5,0,3.4l-14.7,12.5C1776.6,610.8,1774.8,610.8,1773.7,609.8z"/>
		</g>
		<g id="XMLID_1_">
			<path id="XMLID_8_" class="st28" d="M1336.3,999.4L1336.3,999.4c-1.1,1-2.9,1-4,0l-14.7-12.5c-1.1-1-1.1-2.5,0-3.4l0,0
				c1.1-1,2.9-1,4,0l14.7,12.5C1337.4,996.9,1337.4,998.5,1336.3,999.4z"/>
			<path id="XMLID_7_" class="st28" d="M1317.6,999.4L1317.6,999.4c-1.1-1-1.1-2.5,0-3.4l14.7-12.5c1.1-1,2.9-1,4,0l0,0
				c1.1,1,1.1,2.5,0,3.4l-14.7,12.5C1320.5,1000.4,1318.7,1000.4,1317.6,999.4z"/>
		</g>
	</g>
	<g>
		<g id="XMLID_480_">
			<g id="XMLID_481_">
				<g>
					<g id="XMLID_62_">
						<g id="XMLID_63_">
							<path class="st32" d="M195.8,93.7L195.8,93.7c4.1,0,7.5,2.9,7.5,6.4l0,0c0,3.5-3.3,6.4-7.5,6.4l0,0c-4.1,0-7.5-2.9-7.5-6.4
								l0,0C188.3,96.6,191.7,93.7,195.8,93.7z"/>
						</g>
					</g>
					<g id="XMLID_59_">
						<g id="XMLID_61_">
							<path class="st32" d="M173.8,87.7L173.8,87.7c0-3.5,3.3-6.4,7.5-6.4l0,0c4.1,0,7.5,2.9,7.5,6.4l0,0c0,3.5-3.3,6.4-7.5,6.4
								l0,0C177.1,94.1,173.8,91.2,173.8,87.7z"/>
						</g>
						<g id="XMLID_60_">
							<path class="st32" d="M173.8,112.5L173.8,112.5c0-3.5,3.3-6.4,7.5-6.4l0,0c4.1,0,7.5,2.9,7.5,6.4l0,0c0,3.5-3.3,6.4-7.5,6.4
								l0,0C177.1,118.9,173.8,116,173.8,112.5z"/>
						</g>
					</g>
				</g>
			</g>
		</g>
	</g>
</g>
</svg>
