<?xml version="1.0" encoding="utf-8"?>
<!-- Generator: Adobe Illustrator 24.0.2, SVG Export Plug-In . SVG Version: 6.00 Build 0)  -->
<svg version="1.1" id="Layer_1" xmlns="http://www.w3.org/2000/svg" xmlns:xlink="http://www.w3.org/1999/xlink" x="0px" y="0px"
	 viewBox="0 0 500 350" style="enable-background:new 0 0 500 350;" xml:space="preserve">
<style type="text/css">
	.st0{fill:#E0D5F8;}
	.st1{fill:#9C78ED;}
	.st2{fill:#7846D1;}
	.st3{fill:#5B23A9;}
	.st4{fill:#403657;}
	.st5{fill:#FFA681;}
	.st6{fill:#FFFFFF;}
	.st7{fill:#F97853;}
	.st8{fill:#EA5143;}
	.st9{fill:#6020BD;}
	.st10{fill:#1A0B42;}
	.st11{fill:#614C6E;}
	.st12{opacity:0.5;}
</style>
<g>
	<path class="st0" d="M222.4,80.2c-15.4-55.8-84.6-73.7-124.3-32c-0.6,0.6-1.1,1.2-1.7,1.8c-56.9,61.9-30,214.3,88.7,252.9
		c118.8,38.6,242.3-31.9,249.2-95c6.9-63.1-47.9-82.9-132.9-65.3C253.4,152.6,232,114.9,222.4,80.2z"/>
	<path class="st0" d="M321.2,89.7c-15.9,2.6-20.3,16.7-8,26.7c4.1,3.3,9.8,6,18.1,7.4c31.4,5.2,48.1-8.7,35.5-26.7
		C359,85.9,337,87.2,321.2,89.7z"/>
	<path class="st0" d="M75.3,203.7c-7.8-14.1-22.5-13.5-27.8,1.5c-1.7,4.9-2.4,11.3-0.9,19.5c5.7,31.3,24.4,42.3,37.1,24.4
		C91.6,238,83,217.6,75.3,203.7z"/>
	<path class="st0" d="M445.6,215.2c-1.5,7.7,4.9,13.1,12,10.1c2.4-1,4.8-2.9,6.9-6.2c8.1-12.6,4-23.4-7.3-22.3
		C450.2,197.6,447,207.6,445.6,215.2z"/>
	<path class="st0" d="M405.4,134.4c7.6,1.6,13.2-4.6,10.3-11.9c-0.9-2.4-2.8-4.8-6-7c-12.5-8.3-23.3-4.4-22.4,6.9
		C387.8,129.4,397.8,132.8,405.4,134.4z"/>
	<path class="st0" d="M219.8,52.4c6,4.9,13.8,1.9,14.6-5.8c0.3-2.5-0.3-5.5-2.2-9c-7.2-13.1-18.7-14.6-23.1-4.2
		C206.5,39.9,213.8,47.5,219.8,52.4z"/>
</g>
<g>
	<g>
		<path class="st1" d="M461.6,327.6c2.6,0.4,5.4-0.3,7.2-2.2c1.2-1.3,2-2.8,2-4.3c0,0,0,0,0-0.1c0-10.7,13.1-10,17.3-23
			c4.2-13.1-12.4-14.2-22-6.1c-6.8,5.8-15.1-2.3-25,4.5c-8.6,5.9-3.8,20.3-18,15.8c-4.5-1.4-8.6-0.1-12,2.5c-3.9,3-6.5,7.1-7.6,11.6
			l1.1,0.8C432.7,344.1,445.2,324.8,461.6,327.6z"/>
		<g>
			<path class="st2" d="M433.9,327l37-23.8c0.5-0.3,0.6-1,0.3-1.5c-0.3-0.5-1-0.6-1.5-0.3L430,327H433.9z"/>
		</g>
	</g>
	<g>
		<g>
			<path class="st3" d="M431.9,256.3c-1.6-23.3-1.8-47.7-0.1-63.9c2.3-21.2,7.4-35.9,15.2-43.8c0.5-0.5,1.4-0.5,1.9,0
				c0.5,0.5,0.5,1.4,0,1.9c-13.7,13.8-18.6,50.8-14.3,107.2L431.9,256.3z"/>
		</g>
		<path class="st2" d="M435.4,173.6c0,0-11.2,0-10.4-19.6C425.1,154,442.1,158.9,435.4,173.6z"/>
		<path class="st2" d="M434.5,183.7c0,0-0.6-11.1,19-11.4C453.5,172.3,449.6,189.6,434.5,183.7z"/>
		<path class="st2" d="M443,156.2c0,0-4.3-10.3,14.1-17.1C457.2,139.1,459.2,156.7,443,156.2z"/>
		<path class="st2" d="M432,204c0,0-10.5,3.8-16.4-15C415.6,189,433.3,187.8,432,204z"/>
		<path class="st2" d="M432.6,214.4c0,0-2.5-10.9,16.8-14.6C449.4,199.8,448.5,217.6,432.6,214.4z"/>
		<path class="st2" d="M432,228.8c0,0-10.4,4-16.7-14.7C415.3,214.1,433,212.6,432,228.8z"/>
	</g>
	<g>
		<path class="st2" d="M108,308.2l-3-0.1l-1.6-0.1l-4.6-0.2c0,0-42.2-71.7-15.8-95.1c8.1-7.2,22.4-1.2,19.2,31.9
			C99.3,275.3,108,308.2,108,308.2z"/>
		<g>
			<path class="st3" d="M105,308.1l-1.6-0.1c-7.4-17.4-11.1-36-12.9-49.1c-2.2-15.6-2.3-26.8-2.3-27c0-0.4,0.3-0.7,0.7-0.7
				c0.4,0,0.7,0.3,0.7,0.7c0,0.1,0.1,11.3,2.3,26.8C93.7,271.9,97.5,290.7,105,308.1z"/>
		</g>
	</g>
	<g>
		<path class="st1" d="M116.4,322.6l-4.1,1.5l-2.2,0.8l-6.2,2.3c0,0-96.4-72.3-74.1-118.3c6.9-14.2,29.2-14.1,43.5,31.8
			C86.5,283.4,116.4,322.6,116.4,322.6z"/>
		<g>
			<path class="st2" d="M112.3,324.1l-2.2,0.8c-19.5-19.1-34.9-42-44.7-58.4c-11.6-19.6-18-34.6-18.1-34.7c-0.2-0.5,0-1.2,0.6-1.4
				c0.5-0.2,1.2,0,1.4,0.6c0.1,0.2,6.4,15.1,18,34.5C77.1,282,92.6,305,112.3,324.1z"/>
		</g>
	</g>
	<g>
		<path class="st2" d="M445.9,326.7c0-1.7-0.2-3.3-0.6-5c-3.5-15.9,6-18.9,18.4-23.9c12.4-5,13.9-19.9,5.1-32.3
			c-8.8-12.4,7-22.3,1.2-40.9c-5.8-18.6-26.1-6.2-30.5,10.9c-3.2,12.3-19.3,9.7-25.3,25.7c-5.2,13.9,12.2,26.7-7.9,33.1
			c-6.4,2-10,7-11.8,12.7c-2.1,6.7-1.7,13.6,0.7,19.6H445.9z"/>
		<g>
			<path class="st3" d="M421.3,326.7l33.2-81.9c0.3-0.8-0.1-1.7-0.8-2c-0.8-0.3-1.7,0.1-2,0.8l-33.6,83H421.3z"/>
		</g>
	</g>
</g>
<g>
	<path class="st4" d="M144.9,79.1c0,0,0.7-14.7-8.3-17.6c-14-4.4-17.8,2.8-20,7.6c-2.8,6.1-1.6,18.2,6.7,19.3
		C135.9,90.2,144.2,83.3,144.9,79.1z"/>
	<path class="st4" d="M153.9,128.4c7.3,0,13.5-5.1,15-12.2c1.1-5.1,2.1-9.6,2.1-12.2V104c0.1-0.8,0.1-1.6,0.1-2.4
		c0.1-11.6-7.1-32.9-32.3-29.5c0,0-20.9,2.4-23.3,22.8c0,0-1,9.4-1.7,16.3c0,0.1,0,0.2,0,0.4c-0.9,9,6.2,16.9,15.3,16.9H153.9z"/>
	<g>
		<g>
			<path class="st2" d="M183.9,152.7c0,0,4.5,35.3,9.6,53.5c0,0,7.2-3.4,16.7-7.9c10.3-5,25-14,25-14l3.7,9c0,0-38.1,36-50.8,38
				c-12.6,2-20.4-43.2-20.4-43.2L183.9,152.7z"/>
			<path class="st5" d="M234.4,185.3c0,0-1-5,1.2-8.4c2.2-3.4,5.7-9.8,9.7-11.1c3.4-1.1-1.6,4.6-1.7,8.2c0,0,5-0.6,8.6-1.8
				c3.2-1,9.4-2.3,12.4-2.9c0.8-0.2,1.3,0.8,0.7,1.4c-1,0.9-3.1,1.9-7.4,3c0,0,10.4-2,11.5-0.4c1.1,1.6-12,3.8-12,3.8
				s10.2-0.6,10.4,1c0.2,1-10.4,3.2-10.4,3.2s9.6,0.3,7.3,1.8c-0.7,0.4-19.3,2.5-25.8,10.2C238.9,193.2,234.6,188.7,234.4,185.3z"/>
		</g>
	</g>
	<g>
		<g>
			<path class="st2" d="M119.6,145.8c0,0-21.3,6.3-39.7,10.4c0,0-0.5-8-1-18.5c-0.5-11.4,0.4-28.7,0.4-28.7l-9.7,1
				c0,0-13.5,50.7-9.3,62.8c4.2,12.1,57.8-4.8,57.8-4.8L119.6,145.8z"/>
			<path class="st5" d="M78.8,110.2c0,0,4.9-1.5,6.8-5.1c1.9-3.6,7.2-10.8,3.9-13.5c-1.2-1-2.1,3.3-5.2,5.1c0,0-1.8-4.7-2.5-8.4
				c-0.6-3.3-2.5-9.4-3.3-12.2c-0.2-0.8-1.4-0.7-1.5,0c-0.3,1.3-0.2,3.6,0.9,7.9c0,0-3.2-10.1-5.2-10.3c-1.9-0.2,2.3,12.4,2.3,12.4
				s-4.3-9.2-5.8-8.7c-0.9,0.3,2.1,10.6,2.1,10.6s-4.8-8.3-5-5.6c-0.1,0.8,6.9,18.2,3.3,27.5C69.6,110,75.7,111.7,78.8,110.2z"/>
		</g>
	</g>
	<g>
		<g>
			<path class="st1" d="M183.1,289.6l0.2,0.8c-16.6,11.3-78.8,3.6-78.8,3.6c0.1-1.3,0.2-2.7,0.4-4.1c0.2-1.6,0.4-3.2,0.7-4.9
				c0.8-4.5,1.8-9.4,2.9-14.5c0.4-1.6,0.7-3.2,1.1-4.8c1.1-4.8,2.3-9.7,3.4-14.4c0.4-1.6,0.8-3.2,1.1-4.8c0.5-2.2,1-4.4,1.5-6.5
				c0.6-2.8,1.2-5.5,1.6-8.1c0.3-1.7,0.6-3.4,0.8-4.9c0.2-1.7,0.4-3.2,0.5-4.7c-1-3.7-1.9-7.2-2.8-10.7c-0.4-1.8-0.8-3.5-1.3-5.2
				c-1.3-5.5-2.4-10.7-3.4-15.5c-0.3-1.8-0.7-3.5-1-5.2c-1.1-5.7-2-10.9-2.7-15.5c-0.3-1.8-0.5-3.5-0.8-5.1
				c-0.2-1.7-0.5-3.4-0.6-4.8c-0.8-6.4-1.1-10.1-1.1-10.1c0.1-0.1,0.3-0.2,0.5-0.3c1.9-1.3,4.8-2.6,8.1-3.7c3.5-1.2,7.3-2.2,10.7-3
				c0.5-0.1,1-0.2,1.5-0.4c4.4-1,7.7-1.6,7.7-1.6c15.1,3.2,19.4,1.1,19.4,1.1l7.7,2.3l0.9,0.3l5.6,2l0.2,0.1l10,3.5l6.7,2.3l-2.6,12
				l-1.1,5.2l-3.4,15.7l-1.1,5.2l-3.4,15.7l-1.1,5.1l-2.8,13l0.6,2.5l1.1,4.8l1.7,7.7l1.6,6.9l1.1,4.8l3.3,14.4l1.1,4.8l3.3,14.3
				L183.1,289.6z"/>
			<path class="st5" d="M161.4,144.8c-1.6,9.4-6.2,18.9-15.7,19.9c-11.5,1.2-17.4-13.1-20-22c4.4-1,9-2,9-2c15.1,3.2,18,1.2,18,1.2
				l7.8,2.6L161.4,144.8z"/>
			<g>
				<path class="st6" d="M144.6,156.8c-12,0-14.9-14.8-14.9-15c-0.1-0.3,0.2-0.6,0.5-0.7c0.3-0.1,0.6,0.2,0.7,0.5
					c0.1,0.6,2.8,14.6,14.5,14c10.2-0.5,10.8-11.8,10.8-12.3c0-0.3,0.3-0.6,0.6-0.6c0.3,0,0.6,0.3,0.6,0.6c0,0.1-0.7,12.8-11.9,13.4
					C145.1,156.8,144.8,156.8,144.6,156.8z"/>
			</g>
			<path class="st2" d="M123,152.7c0,1.6-1.3,2.9-2.9,2.9s-2.9-1.3-2.9-2.9s1.3-2.9,2.9-2.9S123,151.1,123,152.7z"/>
			<path class="st2" d="M117.1,167.1c0,1.6-1.3,2.9-2.9,2.9c-1.6,0-2.9-1.3-2.9-2.9c0-1.6,1.3-2.9,2.9-2.9
				C115.8,164.1,117.1,165.4,117.1,167.1z"/>
			<path class="st2" d="M135.8,173.8c0,1.6-1.3,2.9-2.9,2.9c-1.6,0-2.9-1.3-2.9-2.9c0-1.6,1.3-2.9,2.9-2.9
				C134.5,170.9,135.8,172.2,135.8,173.8z"/>
			<path class="st2" d="M122.8,181.8c0.6,1.5-0.1,3.2-1.6,3.8c-1.5,0.6-3.2-0.1-3.8-1.6c-0.6-1.5,0.1-3.2,1.6-3.8
				C120.5,179.6,122.2,180.3,122.8,181.8z"/>
			<path class="st2" d="M148.2,187.3c0,1.6-1.3,2.9-2.9,2.9c-1.6,0-2.9-1.3-2.9-2.9c0-1.6,1.3-2.9,2.9-2.9
				C146.9,184.3,148.2,185.6,148.2,187.3z"/>
			<path class="st2" d="M166.9,193.3c0,1.6-1.3,2.9-2.9,2.9c-1.6,0-2.9-1.3-2.9-2.9c0-1.6,1.3-2.9,2.9-2.9
				C165.6,190.4,166.9,191.7,166.9,193.3z"/>
			<path class="st2" d="M170.7,155.7c0,1.6-1.3,2.9-2.9,2.9c-1.6,0-2.9-1.3-2.9-2.9c0-1.6,1.3-2.9,2.9-2.9
				C169.4,152.7,170.7,154.1,170.7,155.7z"/>
			<path class="st2" d="M149.4,206c0,1.6-1.3,2.9-2.9,2.9c-1.6,0-2.9-1.3-2.9-2.9c0-1.6,1.3-2.9,2.9-2.9
				C148.1,203.1,149.4,204.4,149.4,206z"/>
			<path class="st2" d="M131.3,215.1c0,1.6-1.3,2.9-2.9,2.9c-1.6,0-2.9-1.3-2.9-2.9c0-1.6,1.3-2.9,2.9-2.9
				C130,212.2,131.3,213.5,131.3,215.1z"/>
			<path class="st2" d="M129.2,198.5c0,1.6-1.3,2.9-2.9,2.9c-1.6,0-2.9-1.3-2.9-2.9c0-1.6,1.3-2.9,2.9-2.9
				C127.9,195.6,129.2,196.9,129.2,198.5z"/>
			<path class="st2" d="M158.1,174.6c0,1.6-1.3,2.9-2.9,2.9c-1.6,0-2.9-1.3-2.9-2.9c0-1.6,1.3-2.9,2.9-2.9
				C156.8,171.7,158.1,173,158.1,174.6z"/>
			<path class="st2" d="M174.4,170.9c0,1.6-1.3,2.9-2.9,2.9s-2.9-1.3-2.9-2.9c0-1.6,1.3-2.9,2.9-2.9S174.4,169.3,174.4,170.9z"/>
			<path class="st2" d="M164,210.9c0,1.6-1.3,2.9-2.9,2.9c-1.6,0-2.9-1.3-2.9-2.9c0-1.6,1.3-2.9,2.9-2.9
				C162.7,207.9,164,209.2,164,210.9z"/>
			<path class="st2" d="M164.8,234.1c0,1.6-1.3,2.9-2.9,2.9c-1.6,0-2.9-1.3-2.9-2.9s1.3-2.9,2.9-2.9
				C163.5,231.1,164.8,232.4,164.8,234.1z"/>
			<path class="st2" d="M149.8,224.4c0.6,1.5-0.1,3.2-1.6,3.8c-1.5,0.6-3.2-0.1-3.8-1.6c-0.6-1.5,0.1-3.2,1.6-3.8
				C147.5,222.1,149.2,222.9,149.8,224.4z"/>
			<path class="st2" d="M129.9,233c0.6,1.5-0.1,3.2-1.6,3.8c-1.5,0.6-3.2-0.1-3.8-1.6c-0.6-1.5,0.1-3.2,1.6-3.8
				C127.6,230.7,129.3,231.5,129.9,233z"/>
		</g>
		<polygon class="st1" points="189.3,326.6 188.7,323 186.3,308.8 185.5,303.9 183.3,290.4 179.1,290.6 124.7,293 104.5,293.9 
			103.2,304.5 102.6,309.4 100.8,324 100.5,326.6 		"/>
		<g>
			<g>
				<path class="st4" d="M189.3,326.6l-0.6-3.3l0-0.3l-0.4-2.3l-0.4-2.3l-1.6-9.5l-0.5-2.8l-0.3-2l0-0.3l-2.1-12.4l-0.1-0.9
					l-0.2-0.8l-0.2-0.7l-0.9-4.1l-1.8-8l-0.5-2.3l-0.9-4l-1.1-4.8l-0.7-3.3l-0.5-2.3l-2-8.9l-0.7-3.2l-0.3-1.6l-0.2-0.7l-1.4-6.2
					c-22.1,6.5-45.6,2.7-56,0.3c-0.5,2.1-1,4.3-1.5,6.5c-0.1,0.5-0.2,1-0.3,1.5c-0.2,0.8-0.4,1.5-0.6,2.3c-0.1,0.4-0.2,0.7-0.3,1.1
					c-0.9,3.6-1.8,7.3-2.6,11c-0.2,0.8-0.3,1.5-0.5,2.3c-0.1,0.4-0.2,0.8-0.3,1.2c-0.4,1.6-0.7,3.2-1.1,4.8
					c-0.5,2.1-0.9,4.2-1.3,6.2c-0.2,0.8-0.3,1.5-0.5,2.2c-0.4,2.1-0.8,4.1-1.1,6c-0.3,1.7-0.5,3.3-0.7,4.9c-0.1,0.5-0.1,1-0.2,1.4
					c-0.1,0.8-0.2,1.5-0.2,2.3c0,0.1,0,0.2,0,0.3l-1.3,10.5l-0.2,1.6l-0.3,2.3l-0.1,1l-1.4,11.5l-0.3,2.3l-0.1,0.7l-0.3,2.7H189.3z"
					/>
			</g>
		</g>
	</g>
	<g>
		<g>
			<g>
				<path class="st7" d="M162.5,105.4c0,0,3.6-4.6,6.3-0.8c2.7,3.8-1.1,14.9-7.7,12.2L162.5,105.4z"/>
				<g>
					<path class="st8" d="M162.5,113.4c0.2,0,0.5-0.2,0.5-0.4c1-3.4,4.8-4.8,4.8-4.9c0.3-0.1,0.4-0.4,0.3-0.7
						c-0.1-0.3-0.4-0.4-0.7-0.3c-0.2,0.1-4.3,1.6-5.5,5.6c-0.1,0.3,0.1,0.6,0.4,0.6C162.4,113.4,162.5,113.4,162.5,113.4z"/>
				</g>
				<g>
					<path class="st8" d="M166.3,111.6c0.1,0,0.2,0,0.3-0.1c0.3-0.2,0.3-0.5,0.2-0.7c0,0-0.7-1-2.1-1.6c-0.3-0.1-0.6,0-0.7,0.3
						c-0.1,0.3,0,0.6,0.3,0.7c1.1,0.5,1.6,1.2,1.6,1.2C166,111.5,166.2,111.6,166.3,111.6z"/>
				</g>
				<g>
					<path class="st6" d="M160.9,116.7c-0.6,0.7-1,1.6-1,2.6c0,2.2,1.8,3.9,3.9,3.9c2.2,0,3.9-1.8,3.9-3.9c0-1.2-0.6-2.3-1.5-3.1
						c-0.5-0.4-1-0.6-1.6-0.7c-0.1-0.3-0.1-0.5,0.1-0.7c0.7,0.2,1.4,0.5,2,1c1,0.9,1.7,2.1,1.7,3.6c0,2.6-2.1,4.7-4.7,4.7
						c-2.6,0-4.7-2.1-4.7-4.7c0-1.1,0.4-2.1,1-2.9C160.4,116.5,160.6,116.6,160.9,116.7z"/>
				</g>
			</g>
			<path class="st5" d="M134.7,128.7v13.7c0,0,6.4,4.9,11.3,5.3c5,0.4,6.7-5.4,6.7-5.4v-12.7L134.7,128.7z"/>
			<path class="st7" d="M134.7,130.1v5.5c3.3,3.7,9.2,5,18,3.7l0-8.3L134.7,130.1z"/>
			<path class="st5" d="M164.7,110.6c-0.2,1.3-0.3,2.7-0.6,4c-1.6,8.9-7.2,18.5-14.3,20.1c-15.3,3.5-21.7-8.6-24.2-17.5
				c-0.3-1,0.2-2.1,0-3.3c-0.5-2.8-1.6-5.9-1.9-9c-0.2-2.2-0.3-4.3-0.4-6.2c-0.2-5.4,2.9-10.4,7.8-12.3c7.1-2.8,17.8-5,27.9,0.9
				c3.7,2.2,6.1,6.3,6.2,10.7C165.3,101.5,165.2,105.9,164.7,110.6z"/>
			<g>
				<path class="st7" d="M145.2,117.5c-0.3,0-0.5-0.2-0.6-0.5c-0.1-0.3,0.2-0.6,0.5-0.7l2-0.3l-2.8-7.5c-0.1-0.3,0-0.7,0.3-0.8
					c0.3-0.1,0.7,0,0.8,0.3l3.3,8.9L145.2,117.5C145.3,117.5,145.2,117.5,145.2,117.5z"/>
			</g>
			<path class="st4" d="M152.6,107.5c0,1.3,0.7,2.4,1.5,2.4c0.8,0,1.5-1.1,1.5-2.4s-0.7-2.4-1.5-2.4
				C153.2,105.2,152.6,106.2,152.6,107.5z"/>
			<path class="st4" d="M135.9,107.5c0,1.3,0.7,2.4,1.5,2.4s1.5-1.1,1.5-2.4s-0.7-2.4-1.5-2.4S135.9,106.2,135.9,107.5z"/>
			<path class="st4" d="M158.5,101.3c-1.2-0.2-3.7-0.6-6.3-0.5c-0.7,0-1.2,0.5-1.1,1.1l0,0c0.1,0.4,0.5,0.7,1.1,0.7
				c1.8-0.1,6.4-0.1,8.6,0.5c0.1-0.3-0.2-0.6-0.5-0.9C159.9,101.7,159.2,101.4,158.5,101.3z"/>
			<path class="st4" d="M134.2,101.6c1.2-0.3,3.7-0.7,6.3-0.6c0.7,0,1.2,0.5,1.2,1.1l0,0c-0.1,0.4-0.5,0.7-1.1,0.7
				c-1.8-0.1-6.4,0-8.6,0.7c-0.1-0.3,0.1-0.7,0.4-0.9C132.9,102,133.5,101.7,134.2,101.6z"/>
			<path class="st6" d="M152.6,121c-0.4,2.1-1.9,5.9-6.9,5.9c-5,0-6.3-3.5-6.8-5.9H152.6z"/>
			<g>
				<path class="st7" d="M145.8,130.5c1.4,0,2.7-0.8,2.7-0.8c0.3-0.2,0.4-0.5,0.2-0.8c-0.2-0.3-0.5-0.4-0.8-0.2l0,0
					c0,0-1,0.6-2.1,0.6c-1.2,0-2.2-0.6-2.2-0.6c-0.3-0.2-0.6-0.1-0.8,0.2c-0.2,0.3-0.1,0.6,0.2,0.8
					C143,129.8,144.3,130.5,145.8,130.5z"/>
			</g>
			<path class="st4" d="M165.3,109.2c-0.1,0.1-0.3,0.1-0.4-0.2c-2-3.6-0.1-10.7-6.1-13.4c-4.6-2.1-6.2-6.4-6.2-6.4
				c-1,1.8-3.8,3.4-3.8,3.4s-6.9,4.1-14.1,6.8c-2.1,0.8-3.6,1.7-4.7,2.4c0.1,0,0.1,0,0.1,0s-2,3.2-0.5,8.2c1.5,5-0.4,13.3-3.6,15.2
				c0.1-0.1,2.5-5.9,1.1-10.5c-0.8-2.7-0.8-6.9-1.5-9.5c-0.8-0.6-2.7-1.5-3.4-1.9c-0.2-2.2-0.3-4.4-0.4-6.3
				c-0.3-5.5,3-10.6,8.2-12.6c7.4-2.9,18.7-5.1,29.4,0.9c3.9,2.2,6.4,6.4,6.5,10.9C165.9,99.9,165.9,104.5,165.3,109.2z"/>
		</g>
		<g>
			<path class="st5" d="M125.6,105.4c0,0-4.2-5.1-6.7-1.4c-2.5,3.7,1.2,14.9,7.2,12.3L125.6,105.4z"/>
			<g>
				<path class="st6" d="M125.7,116.4c0.4,0.8,0.6,1.8,0.3,2.8c-0.5,2.1-2.6,3.4-4.7,2.8s-3.4-2.6-2.8-4.7c0.3-1.2,1.1-2.1,2.2-2.6
					c0.5-0.2,1.1-0.4,1.7-0.3c0.1-0.2,0.2-0.5,0-0.8c-0.8,0-1.5,0.1-2.2,0.5c-1.2,0.6-2.1,1.7-2.5,3.1c-0.6,2.5,0.9,5,3.4,5.6
					c2.5,0.6,5-0.9,5.6-3.4c0.3-1.1,0.1-2.2-0.3-3.1C126.2,116.3,126,116.3,125.7,116.4z"/>
			</g>
			<g>
				<path class="st7" d="M124.7,112.4c-0.2,0-0.4-0.1-0.5-0.4c-0.9-3.3-4.4-4.7-4.4-4.7c-0.3-0.1-0.4-0.4-0.3-0.7
					c0.1-0.3,0.4-0.4,0.7-0.3c0.2,0.1,4,1.5,5.1,5.4c0.1,0.3-0.1,0.6-0.4,0.6C124.7,112.4,124.7,112.4,124.7,112.4z"/>
			</g>
			<g>
				<g>
					<path class="st7" d="M121.2,110.8c-0.1,0-0.2,0-0.3-0.1c-0.2-0.2-0.3-0.5-0.2-0.7c0,0,0.6-1,1.9-1.5c0.3-0.1,0.6,0,0.7,0.3
						c0.1,0.3,0,0.6-0.3,0.7c-1,0.4-1.5,1.2-1.5,1.2C121.5,110.7,121.3,110.8,121.2,110.8z"/>
				</g>
			</g>
		</g>
	</g>
</g>
<g>
	<path class="st5" d="M347.4,215.7c-9.7,7-25,11.8-25,11.8l-3.1-11.2l-2.4-8.8l-1.7-6.2l-17.5,0c0.9,3.3,1.9,6.6,2.9,9.9
		c1.3,4.3,2.5,8.4,3.7,12.3c1.7,5.4,3.2,10.2,4.5,13.5c0.3,0.8,0.6,1.7,1,2.6c2.3,6.3,4.2,13.2,13.1,8.9c7.9-3.8,18.5-9,23.8-12.5
		L347.4,215.7z"/>
	<g>
		<path class="st7" d="M300.6,211.3c1.3,4.2,2.5,8.4,3.7,12.3c7.1-0.8,12.1-4.3,15-7.2l-2.4-8.8L300.6,211.3z"/>
		<path class="st9" d="M296.9,150c0,0,18.2,43.5,26.1,57.6c0,0-11,9.3-21.7,9.6C301.3,217.1,295.1,169.4,296.9,150z"/>
	</g>
	<g>
		<g>
			<g>
				<path class="st1" d="M254.2,326.7c0.2-3,0.4-5.9,0.5-8.6c0.6-11,1.1-18.5,1.1-18.5l-4.3-0.2l-2.4-0.1l-29.2-1.3
					c0,0-0.5,8.4-1.2,20.7c-0.1,2.5-0.3,5.2-0.4,8H254.2z"/>
			</g>
		</g>
		<path class="st2" d="M251.5,299.4l4.3,0.2c0,0-0.4,7.5-1.1,18.5c-11.2,0.9-23.5,1.3-36.1,0.6c0.6-12.3,1.2-20.7,1.2-20.7l29.2,1.3
			L251.5,299.4z"/>
		<g>
			<path class="st2" d="M249.9,326.7c0.7-11.7,1.2-21.8,1.5-27.3l-2.4-0.1c-0.3,5.5-0.9,15.6-1.5,27.4H249.9z"/>
		</g>
	</g>
	<g>
		<g>
			<g>
				<path class="st1" d="M263.6,326.7h35.9c-0.1-2.8-0.3-5.5-0.4-8c-0.6-12.3-1.2-20.7-1.2-20.7l-29.2,1.3l-2.4,0.1l-4.3,0.2
					c0,0,0.4,7.5,1.1,18.5C263.2,320.7,263.4,323.6,263.6,326.7z"/>
			</g>
		</g>
		<path class="st2" d="M266.3,299.4l-4.3,0.2c0,0,0.4,7.5,1.1,18.5c11.2,0.9,23.5,1.3,36.1,0.6c-0.6-12.3-1.2-20.7-1.2-20.7
			l-29.2,1.3L266.3,299.4z"/>
		<g>
			<path class="st2" d="M270.3,326.7c-0.7-11.8-1.2-21.9-1.5-27.4l-2.4,0.1c0.3,5.5,0.9,15.6,1.5,27.3H270.3z"/>
		</g>
	</g>
	<g>
		<g>
			<g>
				<g>
					<path class="st2" d="M213.5,277.1c0,0.6,0,1.2,0,1.8c0,10.7,0.1,19,0.1,23c10.3,2.8,20.6,4.6,31,5.4c0.5,0,0.9,0.1,1.4,0.1
						c0.3,0,0.5,0,0.8,0c0.6,0,1.1,0.1,1.7,0.1c0.6,0,1.2,0.1,1.8,0.1c7,0.3,14.1,0.2,21.1-0.4c1.4-0.1,2.8-0.3,4.3-0.4
						c0.1,0,0.2,0,0.3,0c0.4,0,0.7-0.1,1.1-0.1c0.2,0,0.4-0.1,0.7-0.1c8.2-1,16.3-2.6,24.5-4.8c0-1.8,0-4.6,0-8c0-0.6,0-1.3,0-2v0
						c0-4.9,0-11.1-0.1-18c0-0.6,0-1.2,0-1.8c0-4.6-0.1-9.6-0.1-14.7c0-0.6,0-1.2,0-1.8c-0.1-5.3-0.1-10.8-0.2-16.4
						c-0.1-3.4-0.1-6.9-0.2-10.3c-0.1-3.5-0.1-7-0.2-10.5c0-0.8,0-1.5-0.1-2.3c-0.8-32.9-2.2-63-4.5-66.4c-1.6-2.3-5.2-5.1-9.5-7.8
						c-0.5-0.3-1.1-0.7-1.6-1c-1.8-1.1-16.7-6.2-18.6-7.3l-15.7-1.1c-0.1,0.1-15.1,5.1-15.2,5.2c-0.6,0.4-1.3,0.7-1.9,1.1
						c-5.6,3.2-11.1,6.6-14.2,9.5c-0.5,0.4-0.9,0.8-1.2,1.2c-0.3,0.3-0.5,0.6-0.7,0.9c-0.2,0.3-0.4,0.7-0.5,1.4
						c-1.9,6.9-2.9,34.1-3.4,63.7c0,2.1-0.1,4.3-0.1,6.4c0,0.9,0,1.9,0,2.8c0,0.6,0,1.3,0,1.9c0,0.3,0,0.6,0,1c0,1.6,0,3.2-0.1,4.8
						c0,1.2,0,2.4,0,3.5C213.5,250.9,213.5,265.3,213.5,277.1z"/>
				</g>
			</g>
		</g>
	</g>
	<g>
		<g>
			<path class="st5" d="M185.3,319.4c-0.4,4.2,4.7,1.9,3.3-6.6c-1.4-8.5,2.7-16.2,4.4-16c1.8,0.3-1.5,9.3,0.1,12.5
				c1.6,3.3,3.6-3.1,5.6-6.9c2.1-4,2-12.7,1-18.9c-1-6.2,10.3-43.9,10.4-54.9l1.4-4.6l5-17l7.9-26.6c0,0-4.7-20.1-12.7-18.4
				c0,0-4.2,14-8.7,29.8c-0.8,2.7-1.5,5.4-2.3,8.1c-3.2,11.5-6.2,22.8-7.6,29.5c-3.7,17.7-4,54.5-4,54.5s-6.5,13.5-6.7,19.6
				C182.3,310.1,185.7,315.2,185.3,319.4z"/>
			<path class="st7" d="M200.8,200.1l10.8,24l5-17l-13.5-15.1C202.3,194.6,201.5,197.4,200.8,200.1z"/>
		</g>
		<path class="st2" d="M200.2,192.9c4.7,8.1,9.5,16.1,14.3,24.2c1.6-5.3,3.2-10.3,4.7-15c0,0,0,0,0,0c0.6-1.9,1.2-3.7,1.8-5.4
			c0,0,0-0.1,0-0.1c0.2-0.6,0.4-1.2,0.6-1.8v0c2.3-6.9,4-12.4,4.6-15.6c1.4-8.6-2.4-25.5-7.6-28.8l0,0c-0.1,0.3-0.5-0.6-0.8-0.1
			c-0.9,2.1-5,7.4-7,12.5c-0.3,0.7-0.5,1.3-0.8,2C207.1,172.5,203.5,182.2,200.2,192.9z"/>
	</g>
	<g>
		<g>
			<g>
				<path class="st9" d="M258.4,148.2c6.8,0,11.6-6.2,11.8-6.5c0.3-0.4,0.2-0.9-0.1-1.2c-0.4-0.3-0.9-0.2-1.2,0.1
					c-0.1,0.1-4.5,5.8-10.5,5.8c-5.9,0-9.6-6.5-9.6-6.6c-0.2-0.4-0.7-0.6-1.1-0.3c-0.4,0.2-0.5,0.8-0.3,1.2
					C247.6,141,251.5,148.2,258.4,148.2z"/>
			</g>
		</g>
		<g>
			<path class="st9" d="M287.2,207.7c0.1,0,0.3,0,0.4-0.1c0.4-0.2,0.6-0.8,0.4-1.2l-3-6.3c-0.2-0.4-0.7-0.6-1.1-0.4
				c-0.4,0.2-0.6,0.8-0.4,1.2l3,6.3C286.6,207.6,286.9,207.7,287.2,207.7z"/>
		</g>
		<g>
			<path class="st9" d="M293.4,202.6c0.1,0.1,0.2,0.1,0.4,0.1c0.5,0,0.9-0.3,0.9-0.8l0.6-7c0-0.5-0.3-0.9-0.8-1
				c-0.5,0-0.9,0.3-0.9,0.8l-0.6,7C293,202.1,293.1,202.4,293.4,202.6z"/>
		</g>
		<g>
			<path class="st9" d="M277.4,191.7c0.4,0,0.8-0.3,0.8-0.7l1.1-6.9c0.1-0.5-0.2-0.9-0.7-1c-0.5-0.1-0.9,0.2-1,0.7l-1.1,6.9
				c-0.1,0.5,0.2,0.9,0.7,1C277.3,191.7,277.4,191.7,277.4,191.7z"/>
		</g>
		<g>
			<path class="st9" d="M250.7,194.3c0.1,0,0.3,0,0.4-0.1c0.4-0.2,0.5-0.8,0.3-1.2l-3.4-6.1c-0.2-0.4-0.7-0.6-1.1-0.3
				c-0.4,0.2-0.5,0.8-0.3,1.2l3.4,6.1C250.2,194.2,250.5,194.3,250.7,194.3z"/>
		</g>
		<g>
			<path class="st9" d="M283.5,167.2c0.2,0,0.3,0,0.4-0.1l5.5-3.8c0.4-0.3,0.5-0.8,0.2-1.2c-0.2-0.4-0.8-0.5-1.1-0.3l-5.5,3.8
				c-0.4,0.3-0.5,0.8-0.2,1.2C283,167,283.3,167.2,283.5,167.2z"/>
		</g>
		<g>
			<path class="st9" d="M258.9,223.6c0.1,0,0.3,0,0.4-0.1c0.4-0.2,0.6-0.8,0.4-1.2l-3-6.3c-0.2-0.4-0.7-0.6-1.1-0.4
				c-0.4,0.2-0.6,0.8-0.4,1.2l3,6.3C258.3,223.4,258.6,223.6,258.9,223.6z"/>
		</g>
		<g>
			<path class="st9" d="M272,171.9c0.3,0,0.5-0.1,0.7-0.4c0.2-0.4,0.1-1-0.3-1.2l-5.6-3.7c-0.4-0.3-0.9-0.1-1.1,0.3
				c-0.2,0.4-0.1,1,0.3,1.2l5.6,3.7C271.7,171.9,271.8,171.9,272,171.9z"/>
		</g>
		<g>
			<path class="st9" d="M285.2,145.8c0,0.2,0,0.3,0.1,0.5c0.1,0.3,0.4,0.4,0.7,0.5c0.5,0,0.9-0.3,0.9-0.8l0.3-4
				c-0.5-0.3-1.1-0.7-1.6-1L285.2,145.8z"/>
		</g>
		<g>
			<path class="st9" d="M292.7,184.3c0.3,0,0.5-0.1,0.7-0.4c0.2-0.4,0.1-1-0.3-1.2l-5.6-3.7c-0.4-0.3-0.9-0.1-1.1,0.3
				c-0.2,0.4-0.1,1,0.3,1.2l5.6,3.7C292.4,184.3,292.5,184.3,292.7,184.3z"/>
		</g>
		<g>
			<path class="st9" d="M248.2,153.7c0.2,0,0.3,0,0.5-0.1c0.4-0.3,0.5-0.8,0.2-1.2l-3.2-5.2c-0.3-0.4-0.8-0.5-1.1-0.3
				c-0.4,0.3-0.5,0.8-0.2,1.2l3.2,5.2C247.7,153.5,247.9,153.7,248.2,153.7z"/>
		</g>
		<g>
			<path class="st9" d="M245.4,242.8c0.2,0,0.4-0.1,0.6-0.3l4.6-5.1c0.3-0.4,0.3-0.9,0-1.3c-0.3-0.3-0.9-0.3-1.2,0l-4.6,5.1
				c-0.3,0.4-0.3,0.9,0,1.3C244.9,242.8,245.1,242.8,245.4,242.8z"/>
		</g>
		<g>
			<path class="st9" d="M262.1,241.8c0.2,0,0.4-0.1,0.6-0.3l4.6-5.1c0.3-0.4,0.3-0.9,0-1.3c-0.3-0.3-0.9-0.3-1.2,0l-4.6,5.1
				c-0.3,0.4-0.3,0.9,0,1.3C261.7,241.7,261.9,241.8,262.1,241.8z"/>
		</g>
		<g>
			<path class="st9" d="M274.1,276.1c0.1-0.2,0.1-0.5,0-0.7l-2.8-6.3c-0.2-0.4-0.7-0.6-1.1-0.4c-0.4,0.2-0.6,0.7-0.4,1.2l2.8,6.3
				c0.2,0.4,0.7,0.6,1.1,0.4C273.9,276.5,274.1,276.3,274.1,276.1z"/>
		</g>
		<g>
			<path class="st9" d="M226.1,297c0.1-0.2,0.1-0.5,0-0.7l-2.8-6.3c-0.2-0.4-0.7-0.6-1.1-0.4c-0.4,0.2-0.6,0.7-0.4,1.2l2.8,6.3
				c0.2,0.4,0.7,0.6,1.1,0.4C225.9,297.4,226,297.2,226.1,297z"/>
		</g>
		<g>
			<path class="st9" d="M246.7,307.5c0.6,0,1.1,0.1,1.7,0.1l0.6-4c0.1-0.5-0.2-0.9-0.7-1c-0.5-0.1-0.9,0.3-0.9,0.7L246.7,307.5z"/>
		</g>
		<g>
			<path class="st9" d="M240.1,295.6c0.2-0.1,0.3-0.3,0.3-0.6l1-7c0.1-0.5-0.2-0.9-0.7-1c-0.5-0.1-0.9,0.3-0.9,0.7l-1,7
				c-0.1,0.5,0.2,0.9,0.7,1C239.7,295.8,239.9,295.7,240.1,295.6z"/>
		</g>
		<g>
			<path class="st9" d="M280.1,237.5c0.1,0,0.3,0,0.4-0.1c0.4-0.2,0.5-0.8,0.3-1.2l-3.3-6.1c-0.2-0.4-0.7-0.6-1.1-0.3
				c-0.4,0.2-0.5,0.8-0.3,1.2l3.3,6.1C279.5,237.3,279.8,237.5,280.1,237.5z"/>
		</g>
		<g>
			<path class="st9" d="M270.4,222.2c0.3,0,0.6-0.2,0.7-0.5l3-6.3c0.2-0.4,0.1-1-0.4-1.2c-0.4-0.2-0.9-0.1-1.1,0.4l-3,6.3
				c-0.2,0.4-0.1,1,0.4,1.2C270.2,222.2,270.3,222.2,270.4,222.2z"/>
		</g>
		<g>
			<path class="st9" d="M296.6,221.3c0.1,0.1,0.2,0.2,0.3,0.2c0.3,0.1,0.6,0.1,0.9-0.1l3.4-3c0-0.8,0-1.5-0.1-2.3l-4.4,4
				C296.4,220.4,296.3,220.9,296.6,221.3z"/>
		</g>
		<g>
			<path class="st9" d="M270.5,155.9c0.3,0,0.6-0.2,0.7-0.5l3-6.3c0.2-0.4,0.1-1-0.4-1.2c-0.4-0.2-0.9-0.1-1.1,0.4l-3,6.3
				c-0.2,0.4-0.1,1,0.4,1.2C270.2,155.9,270.3,155.9,270.5,155.9z"/>
		</g>
		<g>
			<path class="st9" d="M251.1,178.8c0.1,0,0.1,0,0.2,0c0.4-0.1,0.7-0.6,0.7-1l-1.2-6.9c-0.1-0.5-0.5-0.8-1-0.7
				c-0.4,0.1-0.7,0.6-0.7,1l1.2,6.9C250.4,178.5,250.7,178.8,251.1,178.8z"/>
		</g>
		<g>
			<path class="st9" d="M261.9,184.9c0.1,0,0.1,0,0.2,0c0.4-0.1,0.7-0.6,0.7-1l-1.2-6.9c-0.1-0.5-0.5-0.8-1-0.7
				c-0.4,0.1-0.7,0.6-0.7,1l1.2,6.9C261.2,184.6,261.5,184.9,261.9,184.9z"/>
		</g>
		<g>
			<path class="st9" d="M254.2,162.1c0.3,0,0.5-0.1,0.7-0.4l3.5-5.9c0.2-0.4,0.1-1-0.3-1.2c-0.4-0.3-0.9-0.1-1.1,0.3l-3.5,5.9
				c-0.2,0.4-0.1,1,0.3,1.2C253.9,162,254,162.1,254.2,162.1z"/>
		</g>
		<g>
			<path class="st9" d="M286.5,223.3c0.2-0.3,0.3-0.6,0.1-1l-2.8-6.4c-0.2-0.4-0.7-0.6-1.1-0.4c-0.4,0.2-0.6,0.7-0.4,1.2l2.8,6.4
				c0.2,0.4,0.7,0.6,1.1,0.4C286.4,223.5,286.5,223.4,286.5,223.3z"/>
		</g>
		<g>
			<path class="st9" d="M265.2,204.9c0.3,0,0.6-0.2,0.8-0.6l2.4-6.6c0.2-0.5,0-1-0.5-1.1c-0.4-0.2-0.9,0-1.1,0.5l-2.4,6.6
				c-0.2,0.5,0,1,0.5,1.1C265,204.9,265.1,204.9,265.2,204.9z"/>
		</g>
		<g>
			<path class="st9" d="M238.9,245.4c0.1,0,0.3,0,0.4-0.1c0.4-0.2,0.6-0.8,0.4-1.2l-3-6.3c-0.2-0.4-0.7-0.6-1.1-0.4
				c-0.4,0.2-0.6,0.8-0.4,1.2l3,6.3C238.3,245.2,238.6,245.4,238.9,245.4z"/>
		</g>
		<g>
			<path class="st9" d="M282.5,290.5c0,0.1,0,0.3,0.1,0.4c0.2,0.4,0.7,0.6,1.1,0.4l5.8-3.2c0.4-0.2,0.6-0.8,0.4-1.2
				c-0.2-0.4-0.7-0.6-1.1-0.4l-5.8,3.2C282.7,289.9,282.5,290.2,282.5,290.5z"/>
		</g>
		<g>
			<path class="st9" d="M298.4,294.5c0,0.1,0,0.3,0.1,0.4c0.2,0.4,0.7,0.6,1.1,0.4l2.5-1.4c0-0.6,0-1.3,0-2l-3.3,1.8
				C298.5,293.9,298.4,294.2,298.4,294.5z"/>
		</g>
		<g>
			<path class="st9" d="M273.8,302.4l2,4.6c0.4,0,0.7-0.1,1.1-0.1c0.2,0,0.4-0.1,0.7-0.1l-2.2-5.1c-0.2-0.4-0.7-0.6-1.1-0.4
				C273.8,301.4,273.6,301.9,273.8,302.4z"/>
		</g>
		<g>
			<path class="st9" d="M228.1,229.4c0.4,0,0.8-0.3,0.8-0.7l1.1-6.9c0.1-0.5-0.2-0.9-0.7-1c-0.5-0.1-0.9,0.2-1,0.7l-1.1,6.9
				c-0.1,0.5,0.2,0.9,0.7,1C228,229.4,228,229.4,228.1,229.4z"/>
		</g>
		<g>
			<path class="st9" d="M227.4,178.2c0.1,0,0.3,0,0.4-0.1c0.4-0.2,0.5-0.8,0.3-1.2l-3.4-6.1c-0.2-0.4-0.7-0.6-1.1-0.3
				c-0.4,0.2-0.5,0.8-0.3,1.2l3.4,6.1C226.8,178,227.1,178.2,227.4,178.2z"/>
		</g>
		<g>
			<path class="st9" d="M238.2,202.8c0.2,0,0.3,0,0.4-0.1l5.5-3.8c0.4-0.3,0.5-0.8,0.2-1.2c-0.2-0.4-0.8-0.5-1.1-0.3l-5.5,3.8
				c-0.4,0.3-0.5,0.8-0.2,1.2C237.6,202.6,237.9,202.8,238.2,202.8z"/>
		</g>
		<g>
			<path class="st9" d="M296.7,244c0.1,0,0.3,0,0.4-0.1c0.4-0.2,0.6-0.8,0.4-1.2l-3-6.3c-0.2-0.4-0.7-0.6-1.1-0.4
				c-0.4,0.2-0.6,0.8-0.4,1.2l3,6.3C296.1,243.9,296.4,244,296.7,244z"/>
		</g>
		<g>
			<path class="st9" d="M228.8,212.3c0.3,0,0.5-0.1,0.7-0.4c0.2-0.4,0.1-1-0.3-1.2l-5.6-3.7c-0.4-0.3-0.9-0.1-1.1,0.3
				c-0.2,0.4-0.1,1,0.3,1.2l5.6,3.7C228.5,212.3,228.6,212.3,228.8,212.3z"/>
		</g>
		<g>
			<path class="st9" d="M242.1,221.2c0.2,0.2,0.5,0.3,0.8,0.2c0.4-0.1,0.7-0.6,0.6-1.1l-1.7-6.8c-0.1-0.5-0.6-0.8-1-0.6
				c-0.4,0.1-0.7,0.6-0.6,1.1l1.7,6.8C241.9,220.9,242,221.1,242.1,221.2z"/>
		</g>
		<g>
			<path class="st9" d="M218.6,149.5l1.4,2.3c0.2,0.3,0.4,0.4,0.7,0.4c0.2,0,0.3,0,0.5-0.1c0.4-0.3,0.5-0.8,0.2-1.2l-1.6-2.6
				C219.4,148.7,218.9,149.1,218.6,149.5z"/>
		</g>
		<g>
			<path class="st9" d="M212.3,164.9l1.5,2.5c0.2,0.3,0.4,0.4,0.7,0.4c0.2,0,0.3,0,0.5-0.1c0.4-0.3,0.5-0.8,0.2-1.2l-2.2-3.5
				C212.8,163.6,212.5,164.3,212.3,164.9z"/>
		</g>
		<g>
			<path class="st9" d="M284,266c0.2,0,0.4-0.1,0.6-0.3l4.6-5.1c0.3-0.4,0.3-0.9,0-1.3c-0.3-0.3-0.9-0.3-1.2,0l-4.6,5.1
				c-0.3,0.4-0.3,0.9,0,1.3C283.6,265.9,283.8,266,284,266z"/>
		</g>
		<g>
			<path class="st9" d="M253.7,283.7c0.2,0,0.4-0.1,0.6-0.3l4.6-5.1c0.3-0.4,0.3-0.9,0-1.3c-0.3-0.3-0.9-0.3-1.2,0l-4.6,5.1
				c-0.3,0.4-0.3,0.9,0,1.3C253.3,283.6,253.5,283.7,253.7,283.7z"/>
		</g>
		<g>
			<path class="st9" d="M245.2,276.7c0.1-0.2,0.2-0.4,0.2-0.7l-0.8-7c-0.1-0.5-0.5-0.8-0.9-0.8c-0.5,0.1-0.8,0.5-0.7,1l0.8,7
				c0.1,0.5,0.5,0.8,0.9,0.8C244.9,277,245.1,276.8,245.2,276.7z"/>
		</g>
		<g>
			<path class="st9" d="M262.5,296.3c0.2,0,0.4-0.1,0.6-0.3l4.6-5.1c0.3-0.4,0.3-0.9,0-1.3c-0.3-0.3-0.9-0.3-1.2,0l-4.6,5.1
				c-0.3,0.4-0.3,0.9,0,1.3C262.1,296.3,262.3,296.3,262.5,296.3z"/>
		</g>
		<g>
			<path class="st9" d="M213.5,277.1c0,0.6,0,1.2,0,1.8l5.1,0.5c0.5,0,0.9-0.3,0.9-0.8c0-0.5-0.3-0.9-0.8-1L213.5,277.1z"/>
		</g>
		<g>
			<path class="st9" d="M273.7,255.3c0.2,0,0.4-0.1,0.6-0.3l4.6-5.1c0.3-0.4,0.3-0.9,0-1.3c-0.3-0.3-0.9-0.3-1.2,0l-4.6,5.1
				c-0.3,0.4-0.3,0.9,0,1.3C273.3,255.2,273.5,255.3,273.7,255.3z"/>
		</g>
		<g>
			<path class="st9" d="M251.8,253.1c0,0.2,0.1,0.5,0.3,0.6l5,4.5c0.4,0.3,0.9,0.3,1.2-0.1c0.3-0.4,0.2-0.9-0.1-1.2l-5-4.5
				c-0.4-0.3-0.9-0.3-1.2,0.1C251.8,252.6,251.8,252.9,251.8,253.1z"/>
		</g>
		<g>
			<path class="st9" d="M227.8,278c0.1,0,0.3,0,0.4-0.1c0.4-0.2,0.5-0.8,0.3-1.2l-3.3-6.1c-0.2-0.4-0.7-0.6-1.1-0.3
				c-0.4,0.2-0.5,0.8-0.3,1.2l3.3,6.1C227.2,277.8,227.5,278,227.8,278z"/>
		</g>
		<g>
			<path class="st9" d="M222.1,259.9c0.3,0,0.6-0.2,0.7-0.5l3-6.3c0.2-0.4,0.1-1-0.4-1.2c-0.4-0.2-0.9-0.1-1.1,0.4l-3,6.3
				c-0.2,0.4-0.1,1,0.4,1.2C221.8,259.9,221.9,259.9,222.1,259.9z"/>
		</g>
		<g>
			<path class="st9" d="M231.1,188.9c0.3,0,0.6-0.2,0.7-0.5l3-6.3c0.2-0.4,0.1-1-0.4-1.2c-0.4-0.2-0.9-0.1-1.1,0.4l-3,6.3
				c-0.2,0.4-0.1,1,0.4,1.2C230.8,188.9,230.9,188.9,231.1,188.9z"/>
		</g>
		<g>
			<path class="st9" d="M227.8,162.6c0.1,0,0.1,0,0.2,0c0.4-0.1,0.7-0.6,0.7-1l-1.2-6.9c-0.1-0.5-0.5-0.8-1-0.7
				c-0.4,0.1-0.7,0.6-0.7,1l1.2,6.9C227,162.3,227.4,162.6,227.8,162.6z"/>
		</g>
		<g>
			<path class="st9" d="M212.6,186.5c0.1,0,0.1,0,0.2,0c0.4-0.1,0.7-0.6,0.7-1l-1.2-6.9c-0.1-0.5-0.5-0.8-1-0.7
				c-0.4,0.1-0.7,0.6-0.7,1l1.2,6.9C211.9,186.2,212.2,186.5,212.6,186.5z"/>
		</g>
		<g>
			<path class="st9" d="M238.5,168.7c0.1,0,0.1,0,0.2,0c0.4-0.1,0.7-0.6,0.7-1l-1.2-6.9c-0.1-0.5-0.5-0.8-1-0.7
				c-0.4,0.1-0.7,0.6-0.7,1l1.2,6.9C237.8,168.4,238.2,168.7,238.5,168.7z"/>
		</g>
		<g>
			<path class="st9" d="M233.6,144.6c0.2,0,0.3,0,0.5,0c0.3-0.1,0.5-0.3,0.5-0.6l1.4-6.3c-0.6,0.4-1.3,0.7-1.9,1.1l-1.1,4.8
				C232.9,144.1,233.2,144.5,233.6,144.6z"/>
		</g>
		<g>
			<path class="st9" d="M214.6,197.2c0.3,0,0.5-0.1,0.7-0.4l3.5-5.9c0.2-0.4,0.1-1-0.3-1.2c-0.4-0.3-0.9-0.1-1.1,0.3l-3.5,5.9
				c-0.2,0.4-0.1,1,0.3,1.2C214.3,197.1,214.5,197.2,214.6,197.2z"/>
		</g>
		<g>
			<path class="st9" d="M238.2,261c0.2-0.3,0.3-0.6,0.1-1l-2.8-6.4c-0.2-0.4-0.7-0.6-1.1-0.4c-0.4,0.2-0.6,0.7-0.4,1.2l2.8,6.4
				c0.2,0.4,0.7,0.6,1.1,0.4C238,261.1,238.1,261.1,238.2,261z"/>
		</g>
		<g>
			<path class="st9" d="M296.5,272.9l5.5,1c0-0.6,0-1.2,0-1.8l-5.3-0.9c-0.5-0.1-0.9,0.3-0.9,0.7
				C295.7,272.4,296.1,272.8,296.5,272.9z"/>
		</g>
		<g>
			<path class="st9" d="M298.2,256.7l3.7,0.6c0-0.6,0-1.2,0-1.8l-3.4-0.6c-0.5-0.1-0.9,0.3-0.9,0.7
				C297.4,256.2,297.7,256.6,298.2,256.7z"/>
		</g>
		<g>
			<path class="st9" d="M216.9,242.6c0.3,0,0.6-0.2,0.8-0.6l2.4-6.6c0.2-0.5,0-1-0.5-1.1c-0.4-0.2-0.9,0-1.1,0.5l-2.4,6.6
				c-0.2,0.5,0,1,0.5,1.1C216.7,242.5,216.8,242.6,216.9,242.6z"/>
		</g>
	</g>
	<g>
		<g>
			<g>
				<path class="st9" d="M213.8,221.9c1.6-6.4,3.5-13.6,5.5-19.7c0,0,0,0,0,0c0.6-1.9,1.2-3.7,1.8-5.4c0,0,0-0.1,0-0.1
					c0.2-0.5,0.4-1,0.5-1.5c0-0.1,0-0.2,0-0.3v0c0-0.3-0.2-0.6-0.5-0.7c-0.4-0.1-0.8,0.1-0.9,0.4c-2,5.4-4.3,13.2-6.3,20.9
					C213.9,217.6,213.8,219.8,213.8,221.9z"/>
			</g>
		</g>
	</g>
	<g>
		<path class="st4" d="M237.6,97.7c0,0-5.8-6.4-3.6-13.8c2.2-7.4,8.1-7.3,8.1-7.3s3.5-7.9,9.4-8.1c5.9-0.3,11.5-10.8,16.9-7.9
			c5.4,2.9-0.6,9.1-0.6,9.1s9.2-9.7,12.3-6.9c3,2.9-4.2,10.5-4.2,10.5s7.8-5.5,10.3-3.4c2.5,2.1-6.1,11-6.1,11s5.6,10.1,0,14.6
			L237.6,97.7z"/>
		<g>
			<path class="st7" d="M277.9,99.8c0,0,3.7-4.9,6.4-0.9c2.7,4.1-1.1,16.1-7.9,13.2L277.9,99.8z"/>
			<g>
				<path class="st8" d="M278,108.4c0.2,0,0.5-0.2,0.5-0.4c1-3.7,4.9-5.2,4.9-5.2c0.3-0.1,0.4-0.4,0.3-0.7c-0.1-0.3-0.4-0.4-0.7-0.3
					c-0.2,0.1-4.4,1.7-5.6,6c-0.1,0.3,0.1,0.6,0.4,0.7C277.9,108.4,277.9,108.4,278,108.4z"/>
			</g>
			<g>
				<path class="st8" d="M281.8,106.5c0.1,0,0.2,0,0.3-0.1c0.3-0.2,0.3-0.5,0.2-0.8c0,0-0.7-1.1-2.1-1.7c-0.3-0.1-0.6,0-0.8,0.3
					c-0.1,0.3,0,0.6,0.3,0.8c1.1,0.5,1.6,1.3,1.6,1.3C281.5,106.5,281.7,106.5,281.8,106.5z"/>
			</g>
		</g>
		<g>
			<path class="st7" d="M239.9,99.8c0,0-3.7-4.9-6.4-0.9c-2.7,4.1,1.1,16.1,7.9,13.2L239.9,99.8z"/>
			<g>
				<path class="st8" d="M239.8,108.4c-0.2,0-0.5-0.2-0.5-0.4c-1-3.7-4.9-5.2-4.9-5.2c-0.3-0.1-0.4-0.4-0.3-0.7
					c0.1-0.3,0.4-0.4,0.7-0.3c0.2,0.1,4.4,1.7,5.6,6c0.1,0.3-0.1,0.6-0.4,0.7C239.9,108.4,239.9,108.4,239.8,108.4z"/>
			</g>
			<g>
				<g>
					<path class="st8" d="M235.9,106.5c-0.1,0-0.2,0-0.3-0.1c-0.3-0.2-0.3-0.5-0.2-0.8c0,0,0.7-1.1,2.1-1.7c0.3-0.1,0.6,0,0.8,0.3
						c0.1,0.3,0,0.6-0.3,0.8c-1.1,0.5-1.6,1.3-1.6,1.3C236.3,106.5,236.1,106.5,235.9,106.5z"/>
				</g>
			</g>
		</g>
		<path class="st5" d="M249.8,122.3v12c0,0,3.6,6.1,8.4,6.5c4.8,0.4,9.1-5.2,9.1-5.2v-12.4L249.8,122.3z"/>
		<path class="st7" d="M249.8,122.3v5.3c3.2,3.6,9,4.5,17.5,3.2v-7.7L249.8,122.3z"/>
		<path class="st5" d="M237.2,91.6c0.2,4.6,0.7,10.5,1.5,15.1v0c0,0,0,0,0,0c0,0,0,0,0,0c0.2,1.1,0.5,2.2,0.7,3.2
			c0.2,0.6,0.3,1.2,0.5,1.8c2.8,8.9,9.4,21.8,25.9,15.9c6.9-2.5,10.6-9.7,12.4-17.4c0.1-0.5,0.2-0.9,0.3-1.4
			c0.1-0.3,0.1-0.6,0.2-0.9l0.1-0.4c0-0.1,0-0.1,0-0.2c0,0,0,0,0,0c1.1-6,1.3-12,1.2-16.4c-0.1-4.4-2.5-8.4-6.3-10.6
			c-10.4-5.9-21.4-3.7-28.6-0.9C240.2,81.3,236.9,86.3,237.2,91.6z"/>
		<path class="st4" d="M238.7,106.7C238.7,106.7,238.7,106.7,238.7,106.7C238.8,106.7,238.8,106.8,238.7,106.7
			C238.8,106.8,238.8,106.8,238.7,106.7c0.1,0.5,0.7,2.6,1.3,5c2.8,8.9,9.4,21.8,25.9,15.9c6.9-2.5,10.6-9.7,12.4-17.4
			c0.1-0.5,0.2-0.9,0.3-1.4c0.1-0.3,0.1-0.6,0.2-0.9l0.1-0.4c0-0.1,0-0.1,0-0.2c0,0,0,0,0,0l-2.4-0.5c-0.5,2.3-1.5,4.5-2.7,6.4
			c-2.1-4.9-12.5-1.7-12.5-1.7l0,0c-0.6,0.2-1.3,0.3-1.9,0.3c-0.7,0-1.3-0.1-2-0.3c0,0-10.3-3.4-12.4,1.3c-2.1-3.3-3.6-6.3-3.6-6.3
			L238.7,106.7L238.7,106.7z M259.3,113.8c11.8-1.6,9.9,4.8,9.9,4.8c-1.3,1.2-2.5,2.1-3.3,2.5c-2.6,1.4-5.1,2-6.9,1.9
			c-1.8-0.1-2.3,0.3-6.9-2.2c-0.8-0.4-1.6-1.1-2.4-1.8c0,0,0,0,0,0v0C249.4,117.7,247.5,111.8,259.3,113.8z"/>
		<path class="st4" d="M248.6,100.3c0,1.3,0.7,2.3,1.5,2.3c0.8,0,1.5-1,1.5-2.3c0-1.3-0.7-2.3-1.5-2.3
			C249.2,98,248.6,99,248.6,100.3z"/>
		<path class="st4" d="M267,100.3c0,1.3,0.7,2.3,1.5,2.3c0.8,0,1.5-1,1.5-2.3c0-1.3-0.7-2.3-1.5-2.3C267.6,98,267,99,267,100.3z"/>
		<path class="st4" d="M244.8,92.5c0,0,6.1-2.4,10.7-0.4l-0.5,2.6c0,0-6.9-0.6-10.3,0.8C244.5,94.5,244.4,93.5,244.8,92.5z"/>
		<path class="st4" d="M273.7,92.5c0,0-6.1-2.4-10.8-0.4l0.5,2.6c0,0,6.9-0.6,10.4,0.8C274,94.5,274.1,93.5,273.7,92.5z"/>
		<g>
			<g>
				<path class="st7" d="M258.7,110.6c-1,0-1.9-0.4-2.1-0.4c-0.3-0.1-0.4-0.4-0.3-0.7c0.1-0.3,0.5-0.4,0.7-0.3
					c0.5,0.2,1.7,0.5,2.3,0.2c0.1-0.1,0.2-0.2,0.3-0.5c0.2-2-0.3-8.6-0.3-8.7c0-0.3,0.2-0.6,0.5-0.6c0.3,0,0.6,0.2,0.6,0.5
					c0,0.3,0.6,6.8,0.3,8.9c-0.1,0.8-0.5,1.2-0.8,1.4C259.6,110.5,259.1,110.6,258.7,110.6z"/>
			</g>
		</g>
		<path class="st6" d="M265.9,114.9c-0.4,2.2-1.9,6.2-6.7,6.2c-4.8,0-6.2-3.6-6.7-6.2H265.9z"/>
		<path class="st4" d="M237.2,91.6c0.2,4.6,0.7,10.5,1.6,15.1l2.5-0.2c0,0-0.6-3.9-0.9-6.5c-0.3-2.6-0.8-7.3,1.4-7.9
			c2.2-0.6,0.9-6,3.9-8.4c3-2.4,9.8-3,14.3-0.3c4.5,2.7,9.5-0.2,11.6,0.3c2.1,0.5,4.9,3.3,4.1,6c-0.8,2.6,1.5,4.3,2.1,7
			c0.6,2.7-1.2,10.1-1.2,10.1l2.4,0.5c1.1-6,1.3-12,1.2-16.4c-0.1-4.4-2.5-8.4-6.3-10.6c-10.4-5.9-21.4-3.7-28.6-0.9
			C240.2,81.3,236.9,86.3,237.2,91.6z"/>
	</g>
</g>
<g>
	<g>
		<g>
			<g>
				<g>
					<path class="st2" d="M341.7,219.6c-1.5,14.1-10.7,45.5-17.1,51.7c-8.3,8-35.6,24.9-49.8,33.6c-2.6,1.6,9.5,12,9.5,12
						s37.7-16.1,52.1-28.8c4.1-3.6,12.3-14.9,21.7-36.6c2.8-6.6,9.7-19.8,9.3-28.4C367.1,213.1,351.3,214.7,341.7,219.6z"/>
				</g>
			</g>
			<path class="st5" d="M312.3,300.5c0,0-10.3,3.9-13.9,8.2c-3.6,4.3-8.4,7.9-7.3,9.6c1.2,1.7,6.5-3.2,6.5-3.2s1.5,5.4,6.6,6
				c5.2,0.6,14.9-9.5,14.9-9.5L312.3,300.5z"/>
			<g>
				<g>
					<path class="st1" d="M413.6,258.9c0,0.9,0,1.9,0,3.1c0,1.2,0,2.5-0.1,4c0,1-0.1,2-0.1,3.2c0,0.9-0.1,1.9-0.1,2.9
						c0,1-0.1,2.1-0.1,3.2c-0.7,14.7-2.4,35.1-6.2,51.4h-79.8c2.7-11.9,6.7-30.6,10-54.9c0.1-1,0.3-2.1,0.4-3.1
						c0.1-1,0.3-2.1,0.4-3.2c0.1-0.6,0.1-1.1,0.2-1.7c0.1-0.5,0.1-0.9,0.2-1.4c0.1-1.3,0.3-2.6,0.4-3.9c0.1-1.1,0.2-2.1,0.3-3.1
						c1.4-16.3,0.9-28.6,2.9-35.9c2.3-8.5,29-18.3,29-18.3l16.7,0.9c0,0,16,5.2,24.5,12.7c8.5,7.5,1.4,29.8,1.6,42.5
						C413.6,257.8,413.6,258.3,413.6,258.9z"/>
					<g>
						<path class="st0" d="M413.5,262c-7.3,0.9-14.8,1.2-22.3,1.2c-24.3,0-47.2-3.7-52.7-4.7c0.1-1.1,0.2-2.1,0.3-3.1
							c6.4,1.1,43.6,7.3,74.7,3.4C413.6,259.8,413.6,260.8,413.5,262z"/>
					</g>
					<g>
						<path class="st0" d="M413.5,266c0,1-0.1,2-0.1,3.2c-7.2,0.9-14.7,1.2-22.1,1.2c-25.7,0-49.7-4.2-53.5-4.8
							c0.1-0.6,0.1-1.1,0.2-1.7c0.1-0.5,0.1-0.9,0.2-1.4C341.9,263.1,381,270,413.5,266z"/>
					</g>
					<g>
						<path class="st0" d="M413.3,272c0,1-0.1,2.1-0.1,3.2c-7.5,1-15.3,1.3-23,1.3c-24.9,0-48.2-3.9-53.1-4.7c0.1-1,0.3-2.1,0.4-3.1
							C343.2,269.7,381.6,276.2,413.3,272z"/>
					</g>
					<g>
						<path class="st2" d="M375.6,217.3c8.3,0,16-8.8,16.3-9.2c0.2-0.2,0.2-0.6-0.1-0.8c-0.2-0.2-0.6-0.2-0.8,0.1
							c-0.1,0.1-8.1,9.4-16.2,8.8c-0.3,0-0.6,0.2-0.6,0.5c0,0.3,0.2,0.6,0.5,0.6C375,217.3,375.3,217.3,375.6,217.3z"/>
					</g>
					<g>
						<path class="st2" d="M382.8,316.8c0.3,0,0.5-0.2,0.6-0.5c0-0.3-0.2-0.6-0.5-0.7c-21.5-2.5-30.4-39.7-30.5-40.1
							c-0.1-0.3-0.4-0.5-0.7-0.4c-0.3,0.1-0.5,0.4-0.4,0.7C351.6,277.4,360.4,314.2,382.8,316.8
							C382.7,316.8,382.7,316.8,382.8,316.8z"/>
					</g>
					<g>
						<path class="st2" d="M374.2,305.5c0.2,0,0.4-0.1,0.5-0.3c0.2-0.3,0.1-0.6-0.2-0.8c-11.4-7-13.1-17.4-13.1-17.5
							c0-0.3-0.3-0.5-0.7-0.5c-0.3,0-0.5,0.3-0.5,0.7c0.1,0.4,1.8,11,13.7,18.4C374,305.5,374.1,305.5,374.2,305.5z"/>
					</g>
				</g>
				<g>
					<circle class="st4" cx="380.9" cy="162.6" r="23.5"/>
					<path class="st4" d="M357.7,158.4c0,0-6.7-1.8-5.8-8.3c0.7-5.5,7.2-1.9,6.6-6.2c-0.6-4.3-1.8-8.2,3.7-9.3
						c4.9-0.9,5,2.4,11.3-2.4c7.6-5.7,13.4,7.5,20.1,7.9c9.9,0.6,11.2,6.2,12.2,10.7c1,4.5-2.9,7.7-2.9,7.7H357.7z"/>
					<g>
						<path class="st7" d="M361.3,169.2c0,0-3.7-5-6.5-0.9c-2.8,4.1,1.1,16.3,7.9,13.3L361.3,169.2z"/>
						<g>
							<path class="st8" d="M361.2,177.8c-0.3,0-0.5-0.2-0.6-0.4c-1.1-3.7-4.9-5.3-5-5.3c-0.3-0.1-0.4-0.4-0.3-0.7
								c0.1-0.3,0.4-0.4,0.7-0.3c0.2,0.1,4.5,1.7,5.7,6c0.1,0.3-0.1,0.6-0.4,0.7C361.3,177.8,361.3,177.8,361.2,177.8z"/>
						</g>
						<g>
							<g>
								<path class="st8" d="M357.3,176c-0.1,0-0.2,0-0.3-0.1c-0.3-0.2-0.3-0.5-0.2-0.8c0,0,0.7-1.1,2.2-1.7c0.3-0.1,0.6,0,0.8,0.3
									c0.1,0.3,0,0.6-0.3,0.8c-1.1,0.5-1.7,1.3-1.7,1.3C357.7,175.9,357.5,176,357.3,176z"/>
							</g>
						</g>
					</g>
					<path class="st5" d="M388.3,191.9V204c0,0-5,5.3-9.8,5.7c-4.9,0.4-7.8-5.4-7.8-5.4v-11.6L388.3,191.9z"/>
					<path class="st7" d="M388.3,191.9v5.4c-3.3,3.6-9.1,4.5-17.7,3.3v-7.8L388.3,191.9z"/>
					<path class="st5" d="M401.1,160.9c-0.2,4.7-0.7,10.6-1.6,15.3c-0.2,1.2-0.5,2.3-0.8,3.3c-2.5,8.9-8.9,24.2-26.7,17.8
						c-7.9-2.8-11.5-11.6-13.1-20.5c-1.1-6-1.3-12.2-1.2-16.5c0.1-4.5,2.5-8.5,6.4-10.7c10.5-6,21.6-3.7,28.9-0.9
						C398.1,150.5,401.3,155.5,401.1,160.9z"/>
					<g>
						<g>
							<g>
								<g>
									<g>
										<path class="st4" d="M379.7,169.4v1c0,1.9,0.7,3.7,2.1,5.1c1.3,1.3,3.1,2.1,5,2.1h0.2c1.6,0,3.1-0.7,4.4-2
											c1.3-1.3,2.1-3.1,2.1-5v-1.1c0-0.3-0.1-0.6-0.2-0.9c-0.1-0.3-0.3-0.6-0.6-0.9c-0.5-0.5-1.1-0.7-1.8-0.7h-8.8
											c-1,0-1.9,0.6-2.3,1.4C379.8,168.6,379.7,169,379.7,169.4C379.7,169.4,379.7,169.4,379.7,169.4z M380.8,169.4
											c0-0.8,0.7-1.5,1.5-1.5h8.8c0.8,0,1.5,0.7,1.5,1.5v1.1c0,1.6-0.6,3.2-1.7,4.3c-1.1,1.1-2.4,1.6-3.7,1.7h-0.2
											c-1.6,0-3.1-0.6-4.3-1.8c-1.2-1.2-1.8-2.7-1.8-4.3V169.4z"/>
									</g>
								</g>
							</g>
							<g>
								<g>
									<g>
										<path class="st4" d="M362.1,169.4v1c0,1.9,0.8,3.7,2.1,5.1c1.3,1.3,3.1,2.1,5,2.1h0.2c1.6,0,3.1-0.7,4.4-2
											c1.3-1.3,2.1-3.1,2.1-5v-1.1c0,0,0,0,0,0c0-0.3-0.1-0.7-0.2-1c-0.4-0.9-1.3-1.5-2.3-1.5h-8.8c-0.8,0-1.5,0.4-1.9,0.9
											c-0.2,0.3-0.4,0.6-0.5,0.9C362.1,169,362.1,169.2,362.1,169.4z M363.1,169.4c0-0.8,0.7-1.5,1.5-1.5h8.8
											c0.8,0,1.5,0.7,1.5,1.5v1.1c0,1.6-0.6,3.2-1.7,4.3c-1.1,1.1-2.4,1.6-3.7,1.7h-0.2c-1.6,0-3.1-0.6-4.3-1.8
											c-1.2-1.2-1.8-2.7-1.8-4.3V169.4z"/>
									</g>
								</g>
							</g>
							<g>
								<g>
									<path class="st4" d="M399.8,166.5c-3-0.1-5.1,0.7-6,1.2c-0.2,0.1-0.9,0.5-0.9,0.5l0.5,0.9c0,0,0.7-0.4,1-0.5
										c0.8-0.4,2.7-1.2,5.4-1V166.5z"/>
								</g>
							</g>
							<g>
								<g>
									<path class="st4" d="M380.4,169.4l0.3-1c-0.1,0-1.5-0.5-3.1-0.5c-1.7,0-2.8,0.5-2.9,0.5l0.5,0.9c0,0,0.9-0.4,2.4-0.4
										C379.1,169,380.4,169.4,380.4,169.4z"/>
								</g>
							</g>
							<g>
								<g>
									<path class="st4" d="M358.4,166.7v1c2.2,0.2,4.1,1.1,4.2,1.2l0.5-0.9C363,167.9,360.8,166.9,358.4,166.7z"/>
								</g>
							</g>
						</g>
					</g>
					<path class="st4" d="M370.2,170.7c0,1.3-0.7,2.3-1.5,2.3c-0.8,0-1.5-1-1.5-2.3c0-1.3,0.7-2.3,1.5-2.3
						C369.6,168.4,370.2,169.5,370.2,170.7z"/>
					<path class="st4" d="M387.6,170.7c0,1.3-0.7,2.3-1.5,2.3c-0.8,0-1.5-1-1.5-2.3c0-1.3,0.7-2.3,1.5-2.3
						C387,168.4,387.6,169.5,387.6,170.7z"/>
					<path class="st4" d="M363.9,163.6c0,0,6.2-2.4,10.9-0.4l-0.4,2.2c0,0-5.2-1.2-10.2,0.7C364,165.1,363.5,164.6,363.9,163.6z"/>
					<path class="st4" d="M392.2,163.6c0,0-6.2-2.4-10.9-0.4l0.4,2.2c0,0,5.2-1.2,10.2,0.7C392.2,165.1,392.6,164.6,392.2,163.6z"/>
					<g>
						<g>
							<path class="st7" d="M378.4,180.5c1,0,1.9-0.4,2.1-0.4c0.3-0.1,0.4-0.5,0.3-0.7c-0.1-0.3-0.5-0.4-0.7-0.3
								c-0.5,0.2-1.8,0.5-2.3,0.2c-0.1-0.1-0.2-0.2-0.3-0.5c-0.2-2,0.3-8.7,0.3-8.8c0-0.3-0.2-0.6-0.5-0.6c-0.3,0-0.6,0.2-0.6,0.5
								c0,0.3-0.6,6.9-0.3,9c0.1,0.8,0.5,1.2,0.8,1.4C377.5,180.4,377.9,180.5,378.4,180.5z"/>
						</g>
					</g>
					<path class="st6" d="M371.2,183.4c0.5,2.4,2,6.7,7.3,6.7c5.3,0,6.7-4,7.2-6.7H371.2z"/>
					<g>
						<path class="st7" d="M378.4,193.1c1.5,0,2.7-0.8,2.8-0.8c0.3-0.2,0.4-0.5,0.2-0.8c-0.2-0.3-0.5-0.4-0.8-0.2c0,0-1,0.6-2.2,0.6
							c-1.1,0-2.1-0.6-2.1-0.6c-0.3-0.2-0.6-0.1-0.8,0.2c-0.2,0.3-0.1,0.6,0.2,0.8C375.8,192.4,377,193.1,378.4,193.1z"/>
					</g>
					<path class="st4" d="M360.7,173c-0.4-2.4-0.9-5.4-0.6-7c0.6-2.8,2.9-4.4,2.1-7.1c-0.8-2.7,2.1-5.6,4.1-6
						c2.1-0.5,6.9,0.6,11.7-1.7c4.6-2.2,12.5-0.6,13.8,2.3c1.6,3.5-0.6,3.9,3.7,7.7c1.7,1.5-0.3,5.5-0.6,8.1c-0.1,1.2-0.1,1.8-0.1,3
						l0,0.6h5.1c0.6-4,0.9-8.4,1.1-12.1c0.3-5.4-3-10.4-8.1-12.3c-7.3-2.8-18.4-5-28.9,0.9c-3.9,2.2-6.3,6.3-6.4,10.7
						c-0.1,3.5,0,8,0.6,12.8H360.7z"/>
					<g>
						<path class="st5" d="M397.8,175.2c0-1.3,0.1-2.7,0.3-4c0.3-1.8,0.8-3.4,2.7-4.2c1.5-0.6,3.1-0.6,4.2,1.1
							c2.8,4.1-0.3,16.9-7.1,13.9L397.8,175.2z"/>
						<g>
							<g>
								<path class="st7" d="M399.1,178.3c0.2,0,0.4-0.3,0.5-0.5c0.3-3.9,3.8-6.1,3.8-6.2c0.3-0.2,0.3-0.5,0.2-0.8
									c-0.2-0.3-0.5-0.3-0.8-0.2c-0.2,0.1-4,2.6-4.4,7c0,0.3,0.2,0.6,0.5,0.6C399,178.3,399.1,178.3,399.1,178.3z"/>
							</g>
						</g>
						<g>
							<g>
								<path class="st7" d="M402.6,175.7c0.1,0,0.2-0.1,0.3-0.2c0.2-0.2,0.2-0.6,0-0.8c0,0-0.9-0.9-2.5-1.3
									c-0.3-0.1-0.6,0.1-0.7,0.4c-0.1,0.3,0.1,0.6,0.4,0.7c1.2,0.3,1.9,1,1.9,1C402.2,175.7,402.4,175.7,402.6,175.7z"/>
							</g>
						</g>
					</g>
				</g>
			</g>
			<g>
				<path class="st2" d="M408.6,212.2c-8.4,12.7-40.5,56.7-47.7,61.8c-9.4,6.6-35.1,16.1-49.9,25.9c-5,3.3,6.8,12.8,6.8,12.8
					s36-10.1,52.2-20.5c4.6-2.9,23.6-22,35.8-38.9c4.2-5.8,10.9-13.9,11.9-22.4C418.8,221,415.7,215.8,408.6,212.2z"/>
			</g>
		</g>
	</g>
	<g>
		<path class="st10" d="M344.9,326.6H245c-1.3,0-2.3-1-2.3-2.3v-8c0-1.3,1-2.3,2.3-2.3h100c1.3,0,2.3,1,2.3,2.3v8
			C347.3,325.6,346.2,326.6,344.9,326.6z"/>
		<path class="st4" d="M242.7,326.6L223,253c-1.1-4.1,2-8.2,6.3-8.2h43.3c2.9,0,5.5,1.9,6.3,4.8l21.7,77.1H242.7z"/>
		<path class="st10" d="M278.8,249.5l21.5,76.4h4.9l-21.5-76.4c-0.8-2.8-3.4-4.8-6.3-4.8h-4.9C275.5,244.8,278,246.7,278.8,249.5z"
			/>
		<path class="st11" d="M267.7,289c1.1,4.9-1.9,8.8-6.8,8.8c-4.9,0-9.7-3.9-10.8-8.8c-1.1-4.9,1.9-8.8,6.8-8.8
			C261.7,280.2,266.6,284.1,267.7,289z"/>
	</g>
</g>
<g>
	<g>
		<g>
			<g>
				<path class="st2" d="M401.8,55.4c-3.6,0-6.6-3-6.6-6.6c0-3.6,3-6.6,6.6-6.6c3.6,0,6.6,3,6.6,6.6
					C408.4,52.4,405.4,55.4,401.8,55.4z M401.8,44.3c-2.5,0-4.5,2-4.5,4.5c0,2.5,2,4.5,4.5,4.5c2.5,0,4.5-2,4.5-4.5
					C406.3,46.3,404.3,44.3,401.8,44.3z"/>
			</g>
			<g>
				<path class="st1" d="M425.6,78.6c-3.6,0-6.6-3-6.6-6.6s3-6.6,6.6-6.6c3.6,0,6.6,3,6.6,6.6S429.2,78.6,425.6,78.6z M425.6,67.4
					c-2.5,0-4.5,2-4.5,4.5c0,2.5,2,4.5,4.5,4.5c2.5,0,4.5-2,4.5-4.5C430.1,69.5,428.1,67.4,425.6,67.4z"/>
			</g>
			<g>
				<g>
					<g>
						<path class="st2" d="M433.7,100c-0.6,0-1-0.5-1-1v-4.6c0-0.6,0.5-1,1-1c0.6,0,1,0.5,1,1V99C434.8,99.6,434.3,100,433.7,100z"
							/>
					</g>
					<g>
						<path class="st2" d="M433.7,108c-0.6,0-1-0.5-1-1v-4.6c0-0.6,0.5-1,1-1c0.6,0,1,0.5,1,1v4.6C434.8,107.6,434.3,108,433.7,108z
							"/>
					</g>
				</g>
				<g>
					<g>
						<path class="st2" d="M440.1,101.7H436c-0.6,0-1-0.5-1-1c0-0.6,0.5-1,1-1h4.1c0.6,0,1,0.5,1,1
							C441.2,101.3,440.7,101.7,440.1,101.7z"/>
					</g>
					<g>
						<path class="st2" d="M431.4,101.7h-4.1c-0.6,0-1-0.5-1-1c0-0.6,0.5-1,1-1h4.1c0.6,0,1,0.5,1,1
							C432.4,101.3,432,101.7,431.4,101.7z"/>
					</g>
				</g>
			</g>
			<g>
				<g>
					<g>
						<g>
							<path class="st3" d="M397.3,74.4c-0.6,0-1-0.5-1-1v-4.6c0-0.6,0.5-1,1-1c0.6,0,1,0.5,1,1v4.6C398.3,74,397.8,74.4,397.3,74.4
								z"/>
						</g>
						<g>
							<path class="st3" d="M397.3,82.4c-0.6,0-1-0.5-1-1v-4.6c0-0.6,0.5-1,1-1c0.6,0,1,0.5,1,1v4.6C398.3,82,397.8,82.4,397.3,82.4
								z"/>
						</g>
					</g>
					<g>
						<g>
							<path class="st3" d="M403.7,76.1h-4.1c-0.6,0-1-0.5-1-1s0.5-1,1-1h4.1c0.6,0,1,0.5,1,1S404.2,76.1,403.7,76.1z"/>
						</g>
						<g>
							<path class="st3" d="M394.9,76.1h-4.1c-0.6,0-1-0.5-1-1s0.5-1,1-1h4.1c0.6,0,1,0.5,1,1S395.5,76.1,394.9,76.1z"/>
						</g>
					</g>
				</g>
			</g>
		</g>
	</g>
	<g>
		<g>
			<g>
				<path class="st2" d="M95.3,25.1c0-3.6,3-6.6,6.6-6.6c3.6,0,6.6,3,6.6,6.6s-3,6.6-6.6,6.6C98.3,31.7,95.3,28.7,95.3,25.1z
					 M97.4,25.1c0,2.5,2,4.5,4.5,4.5c2.5,0,4.5-2,4.5-4.5c0-2.5-2-4.5-4.5-4.5C99.4,20.6,97.4,22.6,97.4,25.1z"/>
			</g>
			<g>
				<path class="st1" d="M68.8,50.3c0-3.6,3-6.6,6.6-6.6c3.6,0,6.6,3,6.6,6.6c0,3.6-3,6.6-6.6,6.6C71.8,56.9,68.8,53.9,68.8,50.3z
					 M70.9,50.3c0,2.5,2,4.5,4.5,4.5c2.5,0,4.5-2,4.5-4.5c0-2.5-2-4.5-4.5-4.5C72.9,45.7,70.9,47.8,70.9,50.3z"/>
			</g>
			<g>
				<g>
					<g>
						<path class="st2" d="M55.1,59.5c0.6,0,1-0.5,1-1v-4.6c0-0.6-0.5-1-1-1c-0.6,0-1,0.5-1,1v4.6C54.1,59.1,54.5,59.5,55.1,59.5z"
							/>
					</g>
					<g>
						<path class="st2" d="M55.1,67.5c0.6,0,1-0.5,1-1v-4.6c0-0.6-0.5-1-1-1c-0.6,0-1,0.5-1,1v4.6C54.1,67,54.5,67.5,55.1,67.5z"/>
					</g>
				</g>
				<g>
					<g>
						<path class="st2" d="M48.7,61.2h4.1c0.6,0,1-0.5,1-1c0-0.6-0.5-1-1-1h-4.1c-0.6,0-1,0.5-1,1C47.6,60.8,48.1,61.2,48.7,61.2z"
							/>
					</g>
					<g>
						<path class="st2" d="M57.4,61.2h4.1c0.6,0,1-0.5,1-1c0-0.6-0.5-1-1-1h-4.1c-0.6,0-1,0.5-1,1C56.4,60.8,56.8,61.2,57.4,61.2z"
							/>
					</g>
				</g>
			</g>
			<g>
				<g>
					<g>
						<g>
							<path class="st3" d="M79,24.4c0.6,0,1-0.5,1-1v-4.6c0-0.6-0.5-1-1-1c-0.6,0-1,0.5-1,1v4.6C77.9,23.9,78.4,24.4,79,24.4z"/>
						</g>
						<g>
							<path class="st3" d="M79,32.4c0.6,0,1-0.5,1-1v-4.6c0-0.6-0.5-1-1-1c-0.6,0-1,0.5-1,1v4.6C77.9,31.9,78.4,32.4,79,32.4z"/>
						</g>
					</g>
					<g>
						<g>
							<path class="st3" d="M72.5,26.1h4.1c0.6,0,1-0.5,1-1s-0.5-1-1-1h-4.1c-0.6,0-1,0.5-1,1S72,26.1,72.5,26.1z"/>
						</g>
						<g>
							<path class="st3" d="M81.3,26.1h4.1c0.6,0,1-0.5,1-1s-0.5-1-1-1h-4.1c-0.6,0-1,0.5-1,1S80.7,26.1,81.3,26.1z"/>
						</g>
					</g>
				</g>
			</g>
		</g>
	</g>
	<g>
		<path class="st1" d="M350.1,32.1v20.1c0,2.7-2.2,4.8-4.8,4.8h-36.5l-11,4c-1.1,0.4-2.2-0.7-1.8-1.8l4.2-10.8V32.1
			c0-2.7,2.2-4.8,4.8-4.8h40.3C347.9,27.3,350.1,29.4,350.1,32.1z"/>
		<g class="st12">
			<path class="st0" d="M342.4,37.8h-33.5c-0.7,0-1.3-0.6-1.3-1.3l0,0c0-0.7,0.6-1.3,1.3-1.3h33.5c0.7,0,1.3,0.6,1.3,1.3l0,0
				C343.7,37.2,343.1,37.8,342.4,37.8z"/>
			<path class="st0" d="M342.4,43.1h-33.5c-0.7,0-1.3-0.6-1.3-1.3l0,0c0-0.7,0.6-1.3,1.3-1.3h33.5c0.7,0,1.3,0.6,1.3,1.3l0,0
				C343.7,42.5,343.1,43.1,342.4,43.1z"/>
			<path class="st0" d="M342.4,48.5h-33.5c-0.7,0-1.3-0.6-1.3-1.3l0,0c0-0.7,0.6-1.3,1.3-1.3h33.5c0.7,0,1.3,0.6,1.3,1.3l0,0
				C343.7,47.9,343.1,48.5,342.4,48.5z"/>
		</g>
	</g>
</g>
<g>
	<path class="st3" d="M457.8,334.1v0.7c0,4.1-3.4,7.5-7.5,7.5H60.8c-4.1,0-7.5-3.4-7.5-7.5v-0.7c0-4.1,3.4-7.5,7.5-7.5h389.4
		C454.4,326.6,457.8,330,457.8,334.1z"/>
	<path class="st2" d="M457.8,334.1v0.4H53.3v-0.4c0-4.1,3.4-7.5,7.5-7.5h389.4C454.4,326.6,457.8,330,457.8,334.1z"/>
</g>
</svg>
