<?xml version="1.0" encoding="utf-8"?>
<!-- Generator: Adobe Illustrator 24.0.2, SVG Export Plug-In . SVG Version: 6.00 Build 0)  -->
<svg version="1.1" id="Layer_1" xmlns="http://www.w3.org/2000/svg" xmlns:xlink="http://www.w3.org/1999/xlink" x="0px" y="0px"
	 viewBox="0 0 300 300" style="enable-background:new 0 0 300 300;" xml:space="preserve">
<style type="text/css">
	.st0{fill:none;stroke:#FEFEFE;stroke-width:2;stroke-miterlimit:10;}
	.st1{fill:#6233F9;}
	.st2{fill:#470CA7;}
</style>
<g>
	<g>
		<path class="st0" d="M66,128.6c23.7-2.1,53.7-2.6,86.2-1c41.4,2,78.1,6.9,102.6,13"/>
		<path class="st0" d="M14.2,144c0.7-7.2,20.8-12.7,51.8-15.4"/>
		<ellipse class="st1" cx="150" cy="150.5" rx="103.1" ry="73.3"/>
		<path class="st0" d="M254.8,140.5c19.9,5,31.7,10.8,31.1,16.4c-1.2,12.7-63,20-138,16.5C72.8,169.8,13,156.7,14.2,144"/>
	</g>
	<path class="st2" d="M109.5,140.8c-0.3,3.3-4.4,5.9-9.1,5.6c-4.7-0.2-8.2-3.1-7.9-6.4c0.3-3.3,4.4-5.9,9.1-5.6
		C106.2,134.6,109.8,137.5,109.5,140.8z"/>
	<path class="st2" d="M186.6,198.8c-0.3,3.7-4.8,6.5-10,6.2c-5.2-0.2-9.1-3.4-8.8-7.1c0.3-3.7,4.8-6.5,10-6.2
		C183,191.9,186.9,195.1,186.6,198.8z"/>
	<path class="st2" d="M196.3,147.1c-0.2,1.9-2.4,3.3-5.1,3.2c-2.6-0.1-4.6-1.7-4.4-3.6c0.2-1.9,2.4-3.3,5.1-3.2
		C194.4,143.6,196.4,145.3,196.3,147.1z"/>
	<path class="st2" d="M119.6,196.9c-0.2,1.9-2.4,3.3-5.1,3.2c-2.6-0.1-4.6-1.7-4.4-3.6c0.2-1.9,2.4-3.3,5.1-3.2
		C117.7,193.4,119.7,195,119.6,196.9z"/>
	<path class="st2" d="M177.1,104.4c-0.5,5.1-6.7,9-13.9,8.6c-7.2-0.3-12.6-4.8-12.1-9.9c0.5-5.1,6.7-9,13.9-8.6
		C172.1,94.9,177.5,99.3,177.1,104.4z"/>
</g>
</svg>
