<?xml version="1.0" encoding="utf-8"?>
<!-- Generator: Adobe Illustrator 24.0.2, SVG Export Plug-In . SVG Version: 6.00 Build 0)  -->
<svg version="1.1" id="Layer_1" xmlns="http://www.w3.org/2000/svg" xmlns:xlink="http://www.w3.org/1999/xlink" x="0px" y="0px"
	 viewBox="0 0 500 500" style="enable-background:new 0 0 500 500;" xml:space="preserve">
<style type="text/css">
	.st0{fill:url(#SVGID_1_);}
	.st1{fill:#FB7F37;}
	.st2{fill:url(#SVGID_2_);}
	.st3{fill:url(#SVGID_3_);}
	.st4{fill:url(#SVGID_4_);}
	.st5{fill:#FFFFFF;}
	.st6{fill:#2B1E6E;}
	.st7{fill:#553D93;}
	.st8{fill:#E94F8F;}
	.st9{opacity:0.3;fill:url(#SVGID_5_);}
	.st10{fill:url(#SVGID_6_);}
	.st11{opacity:0.3;fill:#FFFFFF;}
	.st12{opacity:0.3;}
	.st13{clip-path:url(#SVGID_8_);fill:#DDDBFC;}
	.st14{clip-path:url(#SVGID_10_);fill:#DDDBFC;}
</style>
<g>
	
		<linearGradient id="SVGID_1_" gradientUnits="userSpaceOnUse" x1="-3037.9373" y1="2510.1594" x2="-3029.4255" y2="2683.228" gradientTransform="matrix(0.7071 0.7071 -0.7071 0.7071 4107.0127 661.022)">
		<stop  offset="0" style="stop-color:#FBC733"/>
		<stop  offset="1" style="stop-color:#F9DF9B"/>
	</linearGradient>
	<path class="st0" d="M146,280.5l-26.4,9.3c-25.7,9-46.3,23.9-58.5,42.3l-31.5,47.4c-1.5,2.3,0.8,5,4.4,5l6.7,0.1
		c9.7,0.1,14.8,8.3,8.3,13.4l-16,12.6c-2.9,2.3-0.6,5.9,3.7,5.9l16.1-0.1c31.8-0.2,63.1-5.9,91-16.7l6.5-2.5
		c26.8-10.4,47.5-27.2,58.2-47.5l10-19L146,280.5z"/>
	<path class="st1" d="M166.5,294.6l-16,6.4c-20,8-35.7,20.4-44.6,35.3c-5.4,9-8.7,18.6-9.8,28.3l-1.2,10.9l13.1-1.4
		c15.5-1.7,30.5-5.4,44.1-10.9l4-1.6c14.6-5.9,26.9-14.3,35.9-24.4l13.8-15.4L166.5,294.6z"/>
	<g>
		
			<linearGradient id="SVGID_2_" gradientUnits="userSpaceOnUse" x1="-3101.5916" y1="2476.3232" x2="-3087.6001" y2="2573.3313" gradientTransform="matrix(0.7071 0.7071 -0.7071 0.7071 4107.0127 661.022)">
			<stop  offset="0" style="stop-color:#553D93"/>
			<stop  offset="1" style="stop-color:#2B1E6E"/>
		</linearGradient>
		<path class="st2" d="M219.6,200.9l-40.1,7.2c-11.9,2.1-22.8,6.6-31.3,12.8l-65.3,47.6c-3.6,2.6-1.7,7.1,3.4,7.8l57.7,8.4
			L219.6,200.9z"/>
		
			<linearGradient id="SVGID_3_" gradientUnits="userSpaceOnUse" x1="-2954.9077" y1="2452.5542" x2="-2941.6226" y2="2538.4651" gradientTransform="matrix(0.7071 0.7071 -0.7071 0.7071 4107.0127 661.022)">
			<stop  offset="0" style="stop-color:#553D93"/>
			<stop  offset="1" style="stop-color:#2B1E6E"/>
		</linearGradient>
		<path class="st3" d="M333.1,279.3l-9,28.6c-2.7,8.5-8.6,16.3-17.2,22.5l-65.3,47.6c-3.6,2.6-9.9,1.4-11.1-2.2l-13.3-40.7
			L333.1,279.3z"/>
	</g>
	
		<linearGradient id="SVGID_4_" gradientUnits="userSpaceOnUse" x1="-3034.3701" y1="2271.5425" x2="-2985.6306" y2="2450.2542" gradientTransform="matrix(0.7071 0.7071 -0.7071 0.7071 4107.0127 661.022)">
		<stop  offset="0" style="stop-color:#A1AEF8"/>
		<stop  offset="1" style="stop-color:#9097E7"/>
	</linearGradient>
	<path class="st4" d="M307.4,303.4c-7.9,5.8-18.1,9.8-29.2,11.4l-21.6,3.2c-3.9,0.6-7.5,2-10.3,4l-15.8,11.5
		c-4.2,3.1-11.1,3.1-15.5,0.1l-68.8-47.5c-4.3-3-4.4-7.9-0.2-11l15.9-11.6c2.8-2,4.6-4.6,5.3-7.3l4-15.4c2.1-7.9,7.4-15.2,15.3-21
		l93.1-67.8c15.9-11.6,35.3-20.5,56.7-26l46.9-12.2l50.2-12.8c12.3-3.1,24.4,0.3,31.1,6.7c4.9,4.7,6.9,11,3.9,17.4l-16.7,35.9
		l-15.9,33.6c-7.3,15.3-19.3,29.3-35.2,40.9L307.4,303.4z"/>
	<g>
		<ellipse class="st5" cx="303" cy="220.9" rx="24.9" ry="17.7"/>
		<path class="st6" d="M303,241.6c-7.6,0-14.8-2.1-20.3-5.9c-5.6-3.8-8.7-9-8.8-14.5c-0.1-5.5,2.8-10.7,8.3-14.7
			c5.4-4,12.7-6.2,20.5-6.2c7.9-0.1,15.1,2,20.7,5.9c5.6,3.8,8.7,9,8.8,14.5c0.1,5.5-2.8,10.7-8.3,14.7c-5.4,4-12.7,6.2-20.5,6.2
			C303.2,241.6,303.1,241.6,303,241.6z M303,206.2c-0.1,0-0.2,0-0.3,0c-5.5,0.1-10.7,1.6-14.5,4.4c-3.9,2.8-5.9,6.5-5.9,10.4
			c0.1,3.9,2.3,7.6,6.3,10.3c4,2.7,9.1,4.2,14.7,4.2c5.5-0.1,10.7-1.6,14.5-4.4c3.9-2.8,5.9-6.5,5.9-10.4c-0.1-3.9-2.3-7.6-6.3-10.3
			C313.5,207.7,308.4,206.2,303,206.2z"/>
	</g>
	<g>
		<ellipse class="st5" cx="358.3" cy="181.7" rx="32.4" ry="23"/>
		<path class="st6" d="M358.3,207.6c-9.2,0-18.4-2.4-25.5-7.3c-14.5-10-14.8-26.4-0.7-36.7c14.1-10.3,37.3-10.5,51.7-0.5
			c14.5,10,14.8,26.4,0.7,36.7C377.3,205,367.8,207.6,358.3,207.6z M358.3,161.7c-7.3,0-14.7,2-20.2,6c-10.8,7.9-10.6,20.5,0.5,28.2
			c11.1,7.7,29,7.5,39.8-0.4c10.8-7.9,10.6-20.5-0.5-28.2C372.5,163.6,365.4,161.7,358.3,161.7z"/>
	</g>
	<path class="st7" d="M451.5,161.1c-15-3.9-29.1-10.1-41.2-18.5c-12.2-8.4-21.2-18.2-27.2-28.7l50.2-12.8c21.3-5.4,42,8.9,34.9,24.1
		L451.5,161.1z"/>
	<g>
		<polygon class="st7" points="462.2,106 460.4,104.8 472.8,95.7 474.6,97 		"/>
	</g>
	<ellipse class="st8" cx="481.9" cy="90.4" rx="11.8" ry="8.4"/>
	
		<linearGradient id="SVGID_5_" gradientUnits="userSpaceOnUse" x1="-3012.1055" y1="2313.8354" x2="-2980.4551" y2="2518.5083" gradientTransform="matrix(0.7071 0.7071 -0.7071 0.7071 4107.0127 661.022)">
		<stop  offset="0" style="stop-color:#553D93"/>
		<stop  offset="1" style="stop-color:#2B1E6E"/>
	</linearGradient>
	<path class="st9" d="M307.4,303.4c-7.9,5.8-18.1,9.8-29.2,11.4l-21.6,3.2c-3.9,0.6-7.5,2-10.3,4l-15.8,11.5
		c-4.2,3.1-11.1,3.1-15.5,0.1l-68.8-47.5c-4.3-3-4.4-7.9-0.2-11l15.9-11.6c2.8-2,4.6-4.6,5.3-7.3l20.4,11c22.4,12,51,16.6,78.5,12.5
		c24.3-3.6,46.6-12.1,64.1-24.6l1.2-0.9c46.2-32.7,83.3-71.3,109.5-113.7l23.7-32.8c4.9,4.7,6.9,11,3.9,17.4l-16.7,35.9l-15.9,33.6
		c-7.3,15.3-19.3,29.3-35.2,40.9L307.4,303.4z"/>
	
		<linearGradient id="SVGID_6_" gradientUnits="userSpaceOnUse" x1="-3028.4458" y1="2462.7805" x2="-3010.0896" y2="2524.8416" gradientTransform="matrix(0.7071 0.7071 -0.7071 0.7071 4107.0127 661.022)">
		<stop  offset="0" style="stop-color:#553D93"/>
		<stop  offset="1" style="stop-color:#2B1E6E"/>
	</linearGradient>
	<path class="st10" d="M257.5,250l-36.3,7.3c-3.9,0.8-7.4,2.4-10,4.7l-49.6,43.3c-3,2.6-2.7,6.4,0.7,8.7l12.3,8.5
		c3.4,2.3,8.7,2.5,12.3,0.3l59.8-36.3c3.1-1.9,5.3-4.4,6.3-7.2l9.3-25.9C263,251.3,260.4,249.4,257.5,250z"/>
	<path class="st11" d="M236.3,197.2c-1.8-1.3-1.8-3.4,0-4.7l47.5-33.7c1.8-1.3,4.8-1.3,6.6,0c1.8,1.3,1.8,3.4,0,4.7l-47.5,33.7
		C241.1,198.5,238.1,198.5,236.3,197.2z"/>
	<g class="st12">
		<path class="st5" d="M300.2,152.6c-0.2-0.1-0.3-0.2-0.5-0.4c-1.7-1.6-1.3-3.9,1-5.1c4.5-2.4,9.2-4.7,13.9-6.9
			c1.4-0.6,2.8-1.3,4.3-1.9c2.4-1,5.5-0.5,7,1.2c1.5,1.7,0.7,3.9-1.7,5c-1.4,0.6-2.7,1.2-4.1,1.8c-4.5,2.1-9,4.3-13.3,6.6
			C304.9,154,302,153.8,300.2,152.6z"/>
	</g>
	<g>
		<defs>
			<ellipse id="SVGID_7_" cx="358.3" cy="181.7" rx="27.9" ry="19.8"/>
		</defs>
		<clipPath id="SVGID_8_">
			<use xlink:href="#SVGID_7_"  style="overflow:visible;"/>
		</clipPath>
		<polygon class="st13" points="329.4,165.1 385.6,165 394.6,176.6 319.5,177.5 		"/>
		<path class="st13" d="M319.8,180.8c0.9-0.2,3.1-0.1,3.9-0.1c7.2-0.1,14.4-0.3,21.6-0.4c11.9-0.2,23.9-0.5,35.8-0.7
			c4.3-0.1,8.9-0.6,13.1-0.5c5.6,0.1,3.6,4.2,1.3,6.3c-3.2,3-6.9,2.5-12.7,2.6c-12.1,0.3-24.2,0.6-36.3,0.9c-4.5,0.1-9,0.2-13.5,0.3
			c-3.5,0.1-8.9,0.7-12,0.1C316.8,188.5,313.8,182.4,319.8,180.8z"/>
	</g>
	<g>
		<defs>
			<path id="SVGID_9_" d="M318.5,230.6c-7.6,6.1-20.6,6.6-29.2,1.3c-8.6-5.4-9.4-14.6-1.8-20.7c7.6-6.1,20.6-6.6,29.2-1.3
				C325.2,215.3,326,224.5,318.5,230.6z"/>
		</defs>
		<clipPath id="SVGID_10_">
			<use xlink:href="#SVGID_9_"  style="overflow:visible;"/>
		</clipPath>
		<polygon class="st14" points="274.1,204.4 330.3,204.3 339.3,215.8 264.2,216.7 		"/>
		<path class="st14" d="M264.6,220c0.9-0.2,3.1-0.1,3.9-0.1c7.2-0.1,14.4-0.3,21.6-0.4c11.9-0.2,23.9-0.5,35.8-0.7
			c4.3-0.1,8.9-0.6,13.1-0.5c5.6,0.1,3.6,4.2,1.3,6.3c-3.2,3-6.9,2.5-12.7,2.6c-12.1,0.3-24.2,0.6-36.3,0.9c-4.5,0.1-9,0.2-13.5,0.3
			c-3.5,0.1-8.9,0.7-12,0.1C261.5,227.7,258.5,221.6,264.6,220z"/>
	</g>
</g>
</svg>
