<?xml version="1.0" encoding="utf-8"?>
<!-- Generator: Adobe Illustrator 24.0.2, SVG Export Plug-In . SVG Version: 6.00 Build 0)  -->
<svg version="1.1" id="Layer_1" xmlns="http://www.w3.org/2000/svg" xmlns:xlink="http://www.w3.org/1999/xlink" x="0px" y="0px"
	 viewBox="0 0 300 300" style="enable-background:new 0 0 300 300;" xml:space="preserve">
<style type="text/css">
	.st0{fill:none;stroke:#FEFEFE;stroke-width:2;stroke-miterlimit:10;}
	.st1{fill:#E5A8A1;}
	.st2{fill:#E58277;}
</style>
<g>
	<path class="st0" d="M66.6,144.8c23.7-3.3,53.9-5.2,86.8-5.2c41.9,0,79.4,3.2,104.6,8.1"/>
	<ellipse class="st1" cx="153.4" cy="162.8" rx="57.4" ry="40.9"/>
	<path class="st0" d="M258,147.7c20.5,4.1,32.9,9.3,32.9,15.1c0,12.8-61.6,23.2-137.5,23.2S15.8,175.6,15.8,162.8
		c0-7.3,19.8-13.8,50.8-18"/>
	<path class="st2" d="M190.6,137.9c4.2,3.6,5.4,7.9,2.6,9.6c-2.8,1.6-8.5,0-12.7-3.6c-4.2-3.6-5.4-7.9-2.6-9.6
		C180.6,132.6,186.3,134.2,190.6,137.9z"/>
	<path class="st2" d="M184,157.6c2.1,1.8,2.7,4,1.3,4.8c-1.4,0.8-4.3,0-6.4-1.8c-2.1-1.8-2.7-4-1.3-4.8
		C179,154.9,181.9,155.8,184,157.6z"/>
	<path class="st2" d="M160.2,130.2c2.1,1.8,2.7,4,1.3,4.8c-1.4,0.8-4.3,0-6.4-1.8c-2.1-1.8-2.7-4-1.3-4.8
		C155.2,127.5,158.1,128.3,160.2,130.2z"/>
</g>
</svg>
